<?xml version="1.0" encoding="UTF-8" standalone="no"?>
<!DOCTYPE svg PUBLIC "-//W3C//DTD SVG 1.1//EN"
 "http://www.w3.org/Graphics/SVG/1.1/DTD/svg11.dtd">
<!-- Generated by graphviz version 2.43.0 (0)
 -->
<!-- Title: macveth::MVExpr Pages: 1 -->
<svg width="427pt" height="84pt"
 viewBox="0.00 0.00 427.00 84.00" xmlns="http://www.w3.org/2000/svg" xmlns:xlink="http://www.w3.org/1999/xlink">
<g id="graph0" class="graph" transform="scale(1 1) rotate(0) translate(4 80)">
<title>macveth::MVExpr</title>
<!-- Node1 -->
<g id="node1" class="node">
<title>Node1</title>
<g id="a_node1"><a xlink:title="Expressions in MACVETH inherit from MVExpr.">
<polygon fill="#bfbfbf" stroke="black" points="163,-56.5 163,-75.5 266,-75.5 266,-56.5 163,-56.5"/>
<text text-anchor="middle" x="214.5" y="-63.5" font-family="Helvetica,sans-Serif" font-size="10.00">macveth::MVExpr</text>
</a>
</g>
</g>
<!-- Node2 -->
<g id="node2" class="node">
<title>Node2</title>
<g id="a_node2"><a xlink:href="classmacveth_1_1MVExprArray.html" target="_top" xlink:title="Abstraction of arrays for simplicity.">
<polygon fill="none" stroke="black" points="0,-0.5 0,-19.5 129,-19.5 129,-0.5 0,-0.5"/>
<text text-anchor="middle" x="64.5" y="-7.5" font-family="Helvetica,sans-Serif" font-size="10.00">macveth::MVExprArray</text>
</a>
</g>
</g>
<!-- Node1&#45;&gt;Node2 -->
<g id="edge1" class="edge">
<title>Node1&#45;&gt;Node2</title>
<path fill="none" stroke="midnightblue" d="M181.28,-53.04C153.05,-42.88 113.24,-28.55 88.16,-19.52"/>
<polygon fill="midnightblue" stroke="midnightblue" points="180.14,-56.35 190.73,-56.44 182.51,-49.76 180.14,-56.35"/>
</g>
<!-- Node3 -->
<g id="node3" class="node">
<title>Node3</title>
<g id="a_node3"><a xlink:href="classmacveth_1_1MVExprLiteral.html" target="_top" xlink:title="Abstraction of variables for simplicity.">
<polygon fill="none" stroke="black" points="147.5,-0.5 147.5,-19.5 281.5,-19.5 281.5,-0.5 147.5,-0.5"/>
<text text-anchor="middle" x="214.5" y="-7.5" font-family="Helvetica,sans-Serif" font-size="10.00">macveth::MVExprLiteral</text>
</a>
</g>
</g>
<!-- Node1&#45;&gt;Node3 -->
<g id="edge2" class="edge">
<title>Node1&#45;&gt;Node3</title>
<path fill="none" stroke="midnightblue" d="M214.5,-45.8C214.5,-36.91 214.5,-26.78 214.5,-19.75"/>
<polygon fill="midnightblue" stroke="midnightblue" points="211,-46.08 214.5,-56.08 218,-46.08 211,-46.08"/>
</g>
<!-- Node4 -->
<g id="node4" class="node">
<title>Node4</title>
<g id="a_node4"><a xlink:href="classmacveth_1_1MVExprVar.html" target="_top" xlink:title="Abstraction of variables for simplicity.">
<polygon fill="none" stroke="black" points="300,-0.5 300,-19.5 419,-19.5 419,-0.5 300,-0.5"/>
<text text-anchor="middle" x="359.5" y="-7.5" font-family="Helvetica,sans-Serif" font-size="10.00">macveth::MVExprVar</text>
</a>
</g>
</g>
<!-- Node1&#45;&gt;Node4 -->
<g id="edge3" class="edge">
<title>Node1&#45;&gt;Node4</title>
<path fill="none" stroke="midnightblue" d="M246.98,-52.91C274.24,-42.75 312.49,-28.51 336.63,-19.52"/>
<polygon fill="midnightblue" stroke="midnightblue" points="245.63,-49.67 237.48,-56.44 248.07,-56.23 245.63,-49.67"/>
</g>
</g>
</svg>
