<?xml version="1.0" encoding="UTF-8" standalone="no"?>
<!DOCTYPE svg PUBLIC "-//W3C//DTD SVG 1.1//EN"
 "http://www.w3.org/Graphics/SVG/1.1/DTD/svg11.dtd">
<!-- Generated by graphviz version 2.43.0 (0)
 -->
<!-- Title: PragmaHandler Pages: 1 -->
<svg width="372pt" height="84pt"
 viewBox="0.00 0.00 372.00 84.00" xmlns="http://www.w3.org/2000/svg" xmlns:xlink="http://www.w3.org/1999/xlink">
<g id="graph0" class="graph" transform="scale(1 1) rotate(0) translate(4 80)">
<title>PragmaHandler</title>
<!-- Node1 -->
<g id="node1" class="node">
<title>Node1</title>
<g id="a_node1"><a xlink:title=" ">
<polygon fill="#bfbfbf" stroke="black" points="140,-56.5 140,-75.5 232,-75.5 232,-56.5 140,-56.5"/>
<text text-anchor="middle" x="186" y="-63.5" font-family="Helvetica,sans-Serif" font-size="10.00">PragmaHandler</text>
</a>
</g>
</g>
<!-- Node2 -->
<g id="node2" class="node">
<title>Node2</title>
<g id="a_node2"><a xlink:href="structmacveth_1_1PragmaEndScopHandler.html" target="_top" xlink:title="Handle pragmas of the form.">
<polygon fill="none" stroke="black" points="0,-0.5 0,-19.5 182,-19.5 182,-0.5 0,-0.5"/>
<text text-anchor="middle" x="91" y="-7.5" font-family="Helvetica,sans-Serif" font-size="10.00">macveth::PragmaEndScopHandler</text>
</a>
</g>
</g>
<!-- Node1&#45;&gt;Node2 -->
<g id="edge1" class="edge">
<title>Node1&#45;&gt;Node2</title>
<path fill="none" stroke="midnightblue" d="M161.68,-51.18C144.2,-41.24 121.17,-28.15 106.23,-19.65"/>
<polygon fill="midnightblue" stroke="midnightblue" points="160.31,-54.43 170.74,-56.32 163.77,-48.34 160.31,-54.43"/>
</g>
<!-- Node3 -->
<g id="node3" class="node">
<title>Node3</title>
<g id="a_node3"><a xlink:href="structmacveth_1_1PragmaScopHandler.html" target="_top" xlink:title="Handle pragmas of the form.">
<polygon fill="none" stroke="black" points="200,-0.5 200,-19.5 364,-19.5 364,-0.5 200,-0.5"/>
<text text-anchor="middle" x="282" y="-7.5" font-family="Helvetica,sans-Serif" font-size="10.00">macveth::PragmaScopHandler</text>
</a>
</g>
</g>
<!-- Node1&#45;&gt;Node3 -->
<g id="edge2" class="edge">
<title>Node1&#45;&gt;Node3</title>
<path fill="none" stroke="midnightblue" d="M210.57,-51.18C228.24,-41.24 251.51,-28.15 266.61,-19.65"/>
<polygon fill="midnightblue" stroke="midnightblue" points="208.42,-48.37 201.42,-56.32 211.86,-54.47 208.42,-48.37"/>
</g>
</g>
</svg>
