<?xml version="1.0" encoding="UTF-8" standalone="no"?>
<!DOCTYPE svg PUBLIC "-//W3C//DTD SVG 1.1//EN"
 "http://www.w3.org/Graphics/SVG/1.1/DTD/svg11.dtd">
<!-- Generated by graphviz version 2.43.0 (0)
 -->
<!-- Title: macveth::AVX2BackEnd Pages: 1 -->
<!--zoomable 348 -->
<svg id="main" version="1.1" xmlns="http://www.w3.org/2000/svg" xmlns:xlink="http://www.w3.org/1999/xlink" xml:space="preserve" onload="init(evt)">
<style type="text/css"><![CDATA[
.edge:hover path { stroke: red; }
.edge:hover polygon { stroke: red; fill: red; }
]]></style>
<script type="text/javascript"><![CDATA[
var edges = document.getElementsByTagName('g');
if (edges && edges.length) {
  for (var i=0;i<edges.length;i++) {
    if (edges[i].id.substr(0,4)=='edge') {
      edges[i].setAttribute('class','edge');
    }
  }
}
]]></script>
        <defs>
                <circle id="rim" cx="0" cy="0" r="7"/>
                <circle id="rim2" cx="0" cy="0" r="3.5"/>
                <g id="zoomPlus">
                        <use xlink:href="#rim" fill="#404040">
                                <set attributeName="fill" to="#808080" begin="zoomplus.mouseover" end="zoomplus.mouseout"/>
                        </use>
                        <path d="M-4,0h8M0,-4v8" fill="none" stroke="white" stroke-width="1.5" pointer-events="none"/>
                </g>
                <g id="zoomMin">
                        <use xlink:href="#rim" fill="#404040">
                                <set attributeName="fill" to="#808080" begin="zoomminus.mouseover" end="zoomminus.mouseout"/>
                        </use>
                        <path d="M-4,0h8" fill="none" stroke="white" stroke-width="1.5" pointer-events="none"/>
                </g>
                <g id="dirArrow">
                        <path fill="none" stroke="white" stroke-width="1.5" d="M0,-3.0v7 M-2.5,-0.5L0,-3.0L2.5,-0.5"/>
                </g>
               <g id="resetDef">
                       <use xlink:href="#rim2" fill="#404040">
                               <set attributeName="fill" to="#808080" begin="reset.mouseover" end="reset.mouseout"/>
                       </use>
               </g>
        </defs>

<script type="text/javascript">
var viewWidth = 630;
var viewHeight = 348;
var sectionId = 'dynsection-1';
</script>
<script xlink:href="svgpan.js"/>
<svg id="graph" class="graph">
<g id="viewport">
<title>macveth::AVX2BackEnd</title>
<!-- Node1 -->
<g id="node1" class="node">
<title>Node1</title>
<g id="a_node1"><a xlink:title="SIMD generator for AVX2 architectures.">
<polygon fill="#bfbfbf" stroke="black" points="489,-79 489,-98 622,-98 622,-79 489,-79"/>
<text text-anchor="middle" x="555.5" y="-86" font-family="Helvetica,sans-Serif" font-size="10.00">macveth::AVX2BackEnd</text>
</a>
</g>
</g>
<!-- Node2 -->
<g id="node2" class="node">
<title>Node2</title>
<g id="a_node2"><a xlink:href="classmacveth_1_1SIMDBackEnd.html" target="_top" xlink:title="Abstract class implemented by each architecture (AVX, AVX2, AVX512, etc.) to generate specific intrin...">
<polygon fill="none" stroke="black" points="276,-198 276,-217 409,-217 409,-198 276,-198"/>
<text text-anchor="middle" x="342.5" y="-205" font-family="Helvetica,sans-Serif" font-size="10.00">macveth::SIMDBackEnd</text>
</a>
</g>
</g>
<!-- Node2&#45;&gt;Node1 -->
<g id="edge1" class="edge">
<title>Node2&#45;&gt;Node1</title>
<path fill="none" stroke="midnightblue" d="M369.3,-192.95C413.04,-168.28 500.63,-118.88 537.51,-98.08"/>
<polygon fill="midnightblue" stroke="midnightblue" points="367.4,-190 360.41,-197.96 370.84,-196.1 367.4,-190"/>
</g>
<!-- Node3 -->
<g id="node3" class="node">
<title>Node3</title>
<g id="a_node3"><a xlink:title=" ">
<polygon fill="none" stroke="#bfbfbf" points="22.5,-309 22.5,-328 150.5,-328 150.5,-309 22.5,-309"/>
<text text-anchor="middle" x="86.5" y="-316" font-family="Helvetica,sans-Serif" font-size="10.00">map&lt; std::string, int &gt;</text>
</a>
</g>
</g>
<!-- Node3&#45;&gt;Node2 -->
<g id="edge2" class="edge">
<title>Node3&#45;&gt;Node2</title>
<path fill="none" stroke="#9a32cd" stroke-dasharray="5,2" d="M160.56,-313.41C191.88,-308.98 228.06,-300.75 258,-285.5 291.41,-268.48 321,-234.08 334.2,-217.23"/>
<polygon fill="#9a32cd" stroke="#9a32cd" points="160.04,-309.95 150.58,-314.72 160.95,-316.89 160.04,-309.95"/>
<text text-anchor="middle" x="224.5" y="-331.5" font-family="Helvetica,sans-Serif" font-size="10.00"> AccmDirty</text>
<text text-anchor="middle" x="224.5" y="-320.5" font-family="Helvetica,sans-Serif" font-size="10.00">AccmToReg</text>
<text text-anchor="middle" x="224.5" y="-309.5" font-family="Helvetica,sans-Serif" font-size="10.00">AuxReg</text>
</g>
<!-- Node4 -->
<g id="node4" class="node">
<title>Node4</title>
<g id="a_node4"><a xlink:title=" ">
<polygon fill="none" stroke="#bfbfbf" points="21.5,-271 21.5,-290 151.5,-290 151.5,-271 21.5,-271"/>
<text text-anchor="middle" x="86.5" y="-278" font-family="Helvetica,sans-Serif" font-size="10.00">static SIMDInstListType</text>
</a>
</g>
</g>
<!-- Node4&#45;&gt;Node2 -->
<g id="edge3" class="edge">
<title>Node4&#45;&gt;Node2</title>
<path fill="none" stroke="#9a32cd" stroke-dasharray="5,2" d="M161.74,-275.73C192.19,-272.21 227.4,-266.11 258,-255.5 284.7,-246.25 312.54,-228.29 328.37,-217.16"/>
<polygon fill="#9a32cd" stroke="#9a32cd" points="161.17,-272.27 151.61,-276.83 161.92,-279.23 161.17,-272.27"/>
<text text-anchor="middle" x="224.5" y="-273.5" font-family="Helvetica,sans-Serif" font-size="10.00"> InitReg</text>
</g>
<!-- Node5 -->
<g id="node5" class="node">
<title>Node5</title>
<g id="a_node5"><a xlink:title=" ">
<polygon fill="none" stroke="#bfbfbf" points="72,-217 72,-236 101,-236 101,-217 72,-217"/>
<text text-anchor="middle" x="86.5" y="-224" font-family="Helvetica,sans-Serif" font-size="10.00">int</text>
</a>
</g>
</g>
<!-- Node5&#45;&gt;Node2 -->
<g id="edge4" class="edge">
<title>Node5&#45;&gt;Node2</title>
<path fill="none" stroke="#9a32cd" stroke-dasharray="5,2" d="M111.53,-224.7C148.88,-221.91 222.15,-216.43 275.99,-212.4"/>
<polygon fill="#9a32cd" stroke="#9a32cd" points="110.87,-221.24 101.16,-225.48 111.39,-228.22 110.87,-221.24"/>
<text text-anchor="middle" x="224.5" y="-243.5" font-family="Helvetica,sans-Serif" font-size="10.00"> AuxArrayReg</text>
<text text-anchor="middle" x="224.5" y="-232.5" font-family="Helvetica,sans-Serif" font-size="10.00">AccmReg</text>
<text text-anchor="middle" x="224.5" y="-221.5" font-family="Helvetica,sans-Serif" font-size="10.00">AuxRegId</text>
</g>
<!-- Node6 -->
<g id="node6" class="node">
<title>Node6</title>
<g id="a_node6"><a xlink:title=" ">
<polygon fill="none" stroke="#bfbfbf" points="27,-179 27,-198 146,-198 146,-179 27,-179"/>
<text text-anchor="middle" x="86.5" y="-186" font-family="Helvetica,sans-Serif" font-size="10.00">static RegistersMapT</text>
</a>
</g>
</g>
<!-- Node6&#45;&gt;Node2 -->
<g id="edge5" class="edge">
<title>Node6&#45;&gt;Node2</title>
<path fill="none" stroke="#9a32cd" stroke-dasharray="5,2" d="M156.61,-191.79C187.64,-193.46 224.68,-195.73 258,-198.5 263.81,-198.98 269.85,-199.54 275.89,-200.12"/>
<polygon fill="#9a32cd" stroke="#9a32cd" points="156.51,-188.28 146.34,-191.24 156.14,-195.27 156.51,-188.28"/>
<text text-anchor="middle" x="224.5" y="-201.5" font-family="Helvetica,sans-Serif" font-size="10.00"> RegDeclared</text>
</g>
<!-- Node7 -->
<g id="node7" class="node">
<title>Node7</title>
<g id="a_node7"><a xlink:title=" ">
<polygon fill="none" stroke="#bfbfbf" points="64.5,-109 64.5,-128 108.5,-128 108.5,-109 64.5,-109"/>
<text text-anchor="middle" x="86.5" y="-116" font-family="Helvetica,sans-Serif" font-size="10.00">string</text>
</a>
</g>
</g>
<!-- Node7&#45;&gt;Node1 -->
<g id="edge10" class="edge">
<title>Node7&#45;&gt;Node1</title>
<path fill="none" stroke="#9a32cd" stroke-dasharray="5,2" d="M119.05,-116.47C194.58,-111.62 387.04,-99.26 488.93,-92.71"/>
<polygon fill="#9a32cd" stroke="#9a32cd" points="118.53,-113 108.78,-117.13 118.98,-119.98 118.53,-113"/>
<text text-anchor="middle" x="342.5" y="-119.5" font-family="Helvetica,sans-Serif" font-size="10.00"> NISA</text>
<text text-anchor="middle" x="342.5" y="-108.5" font-family="Helvetica,sans-Serif" font-size="10.00">NArch</text>
</g>
<!-- Node7&#45;&gt;Node2 -->
<g id="edge6" class="edge">
<title>Node7&#45;&gt;Node2</title>
<path fill="none" stroke="#9a32cd" stroke-dasharray="5,2" d="M118.69,-122.31C153.6,-127.29 211.36,-137.67 258,-156.5 284.93,-167.38 313.14,-186.48 328.9,-197.96"/>
<polygon fill="#9a32cd" stroke="#9a32cd" points="119.01,-118.82 108.63,-120.94 118.07,-125.76 119.01,-118.82"/>
<text text-anchor="middle" x="224.5" y="-181.5" font-family="Helvetica,sans-Serif" font-size="10.00"> ARR_PREFIX</text>
<text text-anchor="middle" x="224.5" y="-170.5" font-family="Helvetica,sans-Serif" font-size="10.00">VEC_PREFIX</text>
<text text-anchor="middle" x="224.5" y="-159.5" font-family="Helvetica,sans-Serif" font-size="10.00">AUX_PREFIX</text>
</g>
<!-- Node8 -->
<g id="node8" class="node">
<title>Node8</title>
<g id="a_node8"><a xlink:href="classmacveth_1_1IntelIntrinsics.html" target="_top" xlink:title=" ">
<polygon fill="none" stroke="black" points="277,-46 277,-65 408,-65 408,-46 277,-46"/>
<text text-anchor="middle" x="342.5" y="-53" font-family="Helvetica,sans-Serif" font-size="10.00">macveth::IntelIntrinsics</text>
</a>
</g>
</g>
<!-- Node8&#45;&gt;Node1 -->
<g id="edge7" class="edge">
<title>Node8&#45;&gt;Node1</title>
<path fill="none" stroke="midnightblue" d="M414.29,-66.57C439.95,-70.58 468.7,-75.08 493.45,-78.95"/>
<polygon fill="midnightblue" stroke="midnightblue" points="414.67,-63.09 404.25,-65 413.59,-70 414.67,-63.09"/>
</g>
<!-- Node9 -->
<g id="node9" class="node">
<title>Node9</title>
<g id="a_node9"><a xlink:title=" ">
<polygon fill="none" stroke="#bfbfbf" points="9,-49.5 9,-79.5 164,-79.5 164,-49.5 9,-49.5"/>
<text text-anchor="start" x="17" y="-67.5" font-family="Helvetica,sans-Serif" font-size="10.00">map&lt; MVDataType::VWidth,</text>
<text text-anchor="middle" x="86.5" y="-56.5" font-family="Helvetica,sans-Serif" font-size="10.00"> std::string &gt;</text>
</a>
</g>
</g>
<!-- Node9&#45;&gt;Node8 -->
<g id="edge8" class="edge">
<title>Node9&#45;&gt;Node8</title>
<path fill="none" stroke="#9a32cd" stroke-dasharray="5,2" d="M174.32,-61.42C207.86,-60.24 245.57,-58.9 276.68,-57.8"/>
<polygon fill="#9a32cd" stroke="#9a32cd" points="173.92,-57.94 164.05,-61.79 174.17,-64.93 173.92,-57.94"/>
<text text-anchor="middle" x="224.5" y="-63.5" font-family="Helvetica,sans-Serif" font-size="10.00"> MapWidth</text>
</g>
<!-- Node10 -->
<g id="node10" class="node">
<title>Node10</title>
<g id="a_node10"><a xlink:title=" ">
<polygon fill="none" stroke="#bfbfbf" points="0,-0.5 0,-30.5 173,-30.5 173,-0.5 0,-0.5"/>
<text text-anchor="start" x="8" y="-18.5" font-family="Helvetica,sans-Serif" font-size="10.00">map&lt; MVDataType::VDataType,</text>
<text text-anchor="middle" x="86.5" y="-7.5" font-family="Helvetica,sans-Serif" font-size="10.00"> std::string &gt;</text>
</a>
</g>
</g>
<!-- Node10&#45;&gt;Node8 -->
<g id="edge9" class="edge">
<title>Node10&#45;&gt;Node8</title>
<path fill="none" stroke="#9a32cd" stroke-dasharray="5,2" d="M183.22,-30.57C216.04,-35.74 251.84,-41.38 281.08,-45.98"/>
<polygon fill="#9a32cd" stroke="#9a32cd" points="183.56,-27.08 173.14,-28.99 182.47,-34 183.56,-27.08"/>
<text text-anchor="middle" x="224.5" y="-43.5" font-family="Helvetica,sans-Serif" font-size="10.00"> MapType</text>
</g>
<!-- Node11 -->
<g id="node11" class="node">
<title>Node11</title>
<g id="a_node11"><a xlink:title=" ">
<polygon fill="none" stroke="#bfbfbf" points="291,-8 291,-27 394,-27 394,-8 291,-8"/>
<text text-anchor="middle" x="342.5" y="-15" font-family="Helvetica,sans-Serif" font-size="10.00">list&lt; std::string &gt;</text>
</a>
</g>
</g>
<!-- Node11&#45;&gt;Node1 -->
<g id="edge11" class="edge">
<title>Node11&#45;&gt;Node1</title>
<path fill="none" stroke="#9a32cd" stroke-dasharray="5,2" d="M391.76,-29.64C415.79,-36.06 445.16,-44.47 471,-53.5 492.67,-61.07 516.78,-71.39 533.5,-78.86"/>
<polygon fill="#9a32cd" stroke="#9a32cd" points="392.38,-26.18 381.81,-27.02 390.59,-32.95 392.38,-26.18"/>
<text text-anchor="middle" x="449" y="-56.5" font-family="Helvetica,sans-Serif" font-size="10.00"> Headers</text>
</g>
</g>
</svg>
        <g id="navigator" transform="translate(0 0)" fill="#404254">
                <rect fill="#f2f5e9" fill-opacity="0.5" stroke="#606060" stroke-width=".5" x="0" y="0" width="60" height="60"/>
                <use id="zoomplus" xlink:href="#zoomPlus" x="17" y="9" onmousedown="handleZoom(evt,'in')"/>
                <use id="zoomminus" xlink:href="#zoomMin" x="42" y="9" onmousedown="handleZoom(evt,'out')"/>
                <use id="reset" xlink:href="#resetDef" x="30" y="36" onmousedown="handleReset()"/>
                <g id="arrowUp" xlink:href="#dirArrow" transform="translate(30 24)" onmousedown="handlePan(0,-1)">
                  <use xlink:href="#rim" fill="#404040">
                        <set attributeName="fill" to="#808080" begin="arrowUp.mouseover" end="arrowUp.mouseout"/>
                  </use>
                  <path fill="none" stroke="white" stroke-width="1.5" d="M0,-3.0v7 M-2.5,-0.5L0,-3.0L2.5,-0.5"/>
                </g>
                <g id="arrowRight" xlink:href="#dirArrow" transform="rotate(90) translate(36 -43)" onmousedown="handlePan(1,0)">
                  <use xlink:href="#rim" fill="#404040">
                        <set attributeName="fill" to="#808080" begin="arrowRight.mouseover" end="arrowRight.mouseout"/>
                  </use>
                  <path fill="none" stroke="white" stroke-width="1.5" d="M0,-3.0v7 M-2.5,-0.5L0,-3.0L2.5,-0.5"/>
                </g>
                <g id="arrowDown" xlink:href="#dirArrow" transform="rotate(180) translate(-30 -48)" onmousedown="handlePan(0,1)">
                  <use xlink:href="#rim" fill="#404040">
                        <set attributeName="fill" to="#808080" begin="arrowDown.mouseover" end="arrowDown.mouseout"/>
                  </use>
                  <path fill="none" stroke="white" stroke-width="1.5" d="M0,-3.0v7 M-2.5,-0.5L0,-3.0L2.5,-0.5"/>
                </g>
                <g id="arrowLeft" xlink:href="#dirArrow" transform="rotate(270) translate(-36 17)" onmousedown="handlePan(-1,0)">
                  <use xlink:href="#rim" fill="#404040">
                        <set attributeName="fill" to="#808080" begin="arrowLeft.mouseover" end="arrowLeft.mouseout"/>
                  </use>
                  <path fill="none" stroke="white" stroke-width="1.5" d="M0,-3.0v7 M-2.5,-0.5L0,-3.0L2.5,-0.5"/>
                </g>
        </g>
        <svg viewBox="0 0 15 15" width="100%" height="30px" preserveAspectRatio="xMaxYMin meet">
         <g id="arrow_out" transform="scale(0.3 0.3)">
          <a xlink:href="classmacveth_1_1AVX2BackEnd__coll__graph_org.svg" target="_base">
           <rect id="button" ry="5" rx="5" y="6" x="6" height="38" width="38"
                fill="#f2f5e9" fill-opacity="0.5" stroke="#606060" stroke-width="1.0"/>
           <path id="arrow"
             d="M 11.500037,31.436501 C 11.940474,20.09759 22.043105,11.32322 32.158766,21.979434 L 37.068811,17.246167 C 37.068811,17.246167 37.088388,32 37.088388,32 L 22.160133,31.978069 C 22.160133,31.978069 26.997745,27.140456 26.997745,27.140456 C 18.528582,18.264221 13.291696,25.230495 11.500037,31.436501 z"
             style="fill:#404040;"/>
          </a>
         </g>
        </svg>
</svg>
