<?xml version="1.0" encoding="UTF-8" standalone="no"?>
<!DOCTYPE svg PUBLIC "-//W3C//DTD SVG 1.1//EN"
 "http://www.w3.org/Graphics/SVG/1.1/DTD/svg11.dtd">
<!-- Generated by graphviz version 2.43.0 (0)
 -->
<!-- Title: macveth::VectorIR Pages: 1 -->
<svg width="364pt" height="224pt"
 viewBox="0.00 0.00 364.00 224.00" xmlns="http://www.w3.org/2000/svg" xmlns:xlink="http://www.w3.org/1999/xlink">
<g id="graph0" class="graph" transform="scale(1 1) rotate(0) translate(4 220)">
<title>macveth::VectorIR</title>
<!-- Node1 -->
<g id="node1" class="node">
<title>Node1</title>
<g id="a_node1"><a xlink:title="VectorIR is a facade for the CDAG to compute the cost of the vectorization, generate intrinsics and p...">
<polygon fill="#bfbfbf" stroke="black" points="250,-87.5 250,-106.5 356,-106.5 356,-87.5 250,-87.5"/>
<text text-anchor="middle" x="303" y="-94.5" font-family="Helvetica,sans-Serif" font-size="10.00">macveth::VectorIR</text>
</a>
</g>
</g>
<!-- Node2 -->
<g id="node2" class="node">
<title>Node2</title>
<g id="a_node2"><a xlink:title=" ">
<polygon fill="none" stroke="#bfbfbf" points="3.5,-196.5 3.5,-215.5 131.5,-215.5 131.5,-196.5 3.5,-196.5"/>
<text text-anchor="middle" x="67.5" y="-203.5" font-family="Helvetica,sans-Serif" font-size="10.00">map&lt; std::string, int &gt;</text>
</a>
</g>
</g>
<!-- Node2&#45;&gt;Node1 -->
<g id="edge1" class="edge">
<title>Node2&#45;&gt;Node1</title>
<path fill="none" stroke="#9a32cd" stroke-dasharray="5,2" d="M114.3,-193.53C121.27,-191.46 128.35,-189.25 135,-187 178.86,-172.18 191.5,-171.45 232,-149 254.24,-136.67 277.44,-118.13 290.76,-106.84"/>
<polygon fill="#9a32cd" stroke="#9a32cd" points="112.86,-190.31 104.24,-196.46 114.82,-197.03 112.86,-190.31"/>
<text text-anchor="middle" x="192.5" y="-183" font-family="Helvetica,sans-Serif" font-size="10.00"> MapStores</text>
</g>
<!-- Node3 -->
<g id="node3" class="node">
<title>Node3</title>
<g id="a_node3"><a xlink:title=" ">
<polygon fill="none" stroke="#bfbfbf" points="0,-136.5 0,-177.5 135,-177.5 135,-136.5 0,-136.5"/>
<text text-anchor="start" x="8" y="-165.5" font-family="Helvetica,sans-Serif" font-size="10.00">map&lt; std::tuple&lt; std</text>
<text text-anchor="start" x="8" y="-154.5" font-family="Helvetica,sans-Serif" font-size="10.00">::string, MVDataType</text>
<text text-anchor="middle" x="67.5" y="-143.5" font-family="Helvetica,sans-Serif" font-size="10.00">::VWidth &gt;, std::string &gt;</text>
</a>
</g>
</g>
<!-- Node3&#45;&gt;Node1 -->
<g id="edge2" class="edge">
<title>Node3&#45;&gt;Node1</title>
<path fill="none" stroke="#9a32cd" stroke-dasharray="5,2" d="M144.88,-137.37C185.09,-127.04 232.58,-114.84 264.75,-106.57"/>
<polygon fill="#9a32cd" stroke="#9a32cd" points="143.91,-134.01 135.1,-139.89 145.66,-140.79 143.91,-134.01"/>
<text text-anchor="middle" x="192.5" y="-137" font-family="Helvetica,sans-Serif" font-size="10.00"> MapRegToVReg</text>
</g>
<!-- Node4 -->
<g id="node4" class="node">
<title>Node4</title>
<g id="a_node4"><a xlink:title=" ">
<polygon fill="none" stroke="#bfbfbf" points="10,-76.5 10,-117.5 125,-117.5 125,-76.5 10,-76.5"/>
<text text-anchor="start" x="18" y="-105.5" font-family="Helvetica,sans-Serif" font-size="10.00">list&lt; std::tuple&lt; std</text>
<text text-anchor="start" x="18" y="-94.5" font-family="Helvetica,sans-Serif" font-size="10.00">::vector&lt; int &gt;, std</text>
<text text-anchor="middle" x="67.5" y="-83.5" font-family="Helvetica,sans-Serif" font-size="10.00">::string &gt; &gt;</text>
</a>
</g>
</g>
<!-- Node4&#45;&gt;Node1 -->
<g id="edge3" class="edge">
<title>Node4&#45;&gt;Node1</title>
<path fill="none" stroke="#9a32cd" stroke-dasharray="5,2" d="M135.08,-97C171.55,-97 216.09,-97 249.99,-97"/>
<polygon fill="#9a32cd" stroke="#9a32cd" points="135.02,-93.5 125.02,-97 135.02,-100.5 135.02,-93.5"/>
<text text-anchor="middle" x="192.5" y="-100" font-family="Helvetica,sans-Serif" font-size="10.00"> MapLoads</text>
</g>
<!-- Node5 -->
<g id="node5" class="node">
<title>Node5</title>
<g id="a_node5"><a xlink:title=" ">
<polygon fill="none" stroke="#bfbfbf" points="53,-38.5 53,-57.5 82,-57.5 82,-38.5 53,-38.5"/>
<text text-anchor="middle" x="67.5" y="-45.5" font-family="Helvetica,sans-Serif" font-size="10.00">int</text>
</a>
</g>
</g>
<!-- Node5&#45;&gt;Node1 -->
<g id="edge4" class="edge">
<title>Node5&#45;&gt;Node1</title>
<path fill="none" stroke="#9a32cd" stroke-dasharray="5,2" d="M92.16,-52.87C123.96,-59.43 182.26,-71.5 232,-82 240.27,-83.75 249.08,-85.62 257.57,-87.44"/>
<polygon fill="#9a32cd" stroke="#9a32cd" points="92.57,-49.38 82.07,-50.79 91.16,-56.24 92.57,-49.38"/>
<text text-anchor="middle" x="192.5" y="-85" font-family="Helvetica,sans-Serif" font-size="10.00"> VID</text>
</g>
<!-- Node6 -->
<g id="node6" class="node">
<title>Node6</title>
<g id="a_node6"><a xlink:title=" ">
<polygon fill="none" stroke="#bfbfbf" points="45.5,-0.5 45.5,-19.5 89.5,-19.5 89.5,-0.5 45.5,-0.5"/>
<text text-anchor="middle" x="67.5" y="-7.5" font-family="Helvetica,sans-Serif" font-size="10.00">string</text>
</a>
</g>
</g>
<!-- Node6&#45;&gt;Node1 -->
<g id="edge5" class="edge">
<title>Node6&#45;&gt;Node1</title>
<path fill="none" stroke="#9a32cd" stroke-dasharray="5,2" d="M99.78,-14.63C133.46,-20.34 188.11,-31.74 232,-51 253.84,-60.58 276.42,-76.77 289.84,-87.16"/>
<polygon fill="#9a32cd" stroke="#9a32cd" points="100.06,-11.13 89.62,-12.97 98.93,-18.04 100.06,-11.13"/>
<text text-anchor="middle" x="192.5" y="-54" font-family="Helvetica,sans-Serif" font-size="10.00"> VOP_PREFIX</text>
</g>
</g>
</svg>
