<?xml version="1.0" encoding="UTF-8" standalone="no"?>
<!DOCTYPE svg PUBLIC "-//W3C//DTD SVG 1.1//EN"
 "http://www.w3.org/Graphics/SVG/1.1/DTD/svg11.dtd">
<!-- Generated by graphviz version 2.43.0 (0)
 -->
<!-- Title: macveth::MVDataType Pages: 1 -->
<svg width="447pt" height="154pt"
 viewBox="0.00 0.00 447.00 154.00" xmlns="http://www.w3.org/2000/svg" xmlns:xlink="http://www.w3.org/1999/xlink">
<g id="graph0" class="graph" transform="scale(1 1) rotate(0) translate(4 150)">
<title>macveth::MVDataType</title>
<!-- Node1 -->
<g id="node1" class="node">
<title>Node1</title>
<g id="a_node1"><a xlink:title=" ">
<polygon fill="#bfbfbf" stroke="black" points="312,-60.5 312,-79.5 439,-79.5 439,-60.5 312,-60.5"/>
<text text-anchor="middle" x="375.5" y="-67.5" font-family="Helvetica,sans-Serif" font-size="10.00">macveth::MVDataType</text>
</a>
</g>
</g>
<!-- Node2 -->
<g id="node2" class="node">
<title>Node2</title>
<g id="a_node2"><a xlink:title=" ">
<polygon fill="none" stroke="#bfbfbf" points="22.5,-126.5 22.5,-145.5 150.5,-145.5 150.5,-126.5 22.5,-126.5"/>
<text text-anchor="middle" x="86.5" y="-133.5" font-family="Helvetica,sans-Serif" font-size="10.00">map&lt; std::string, int &gt;</text>
</a>
</g>
</g>
<!-- Node2&#45;&gt;Node1 -->
<g id="edge1" class="edge">
<title>Node2&#45;&gt;Node1</title>
<path fill="none" stroke="#9a32cd" stroke-dasharray="5,2" d="M160.74,-125.32C200.49,-118.82 250.3,-109.55 294,-98 313.17,-92.93 334.33,-85.5 350.14,-79.56"/>
<polygon fill="#9a32cd" stroke="#9a32cd" points="160.18,-121.87 150.86,-126.91 161.29,-128.78 160.18,-121.87"/>
<text text-anchor="middle" x="242.5" y="-122" font-family="Helvetica,sans-Serif" font-size="10.00"> SizeOf</text>
</g>
<!-- Node3 -->
<g id="node3" class="node">
<title>Node3</title>
<g id="a_node3"><a xlink:title=" ">
<polygon fill="none" stroke="#bfbfbf" points="0,-77 0,-107 173,-107 173,-77 0,-77"/>
<text text-anchor="start" x="8" y="-95" font-family="Helvetica,sans-Serif" font-size="10.00">map&lt; MVDataType::VDataType,</text>
<text text-anchor="middle" x="86.5" y="-84" font-family="Helvetica,sans-Serif" font-size="10.00"> std::string &gt;</text>
</a>
</g>
</g>
<!-- Node3&#45;&gt;Node1 -->
<g id="edge2" class="edge">
<title>Node3&#45;&gt;Node1</title>
<path fill="none" stroke="#9a32cd" stroke-dasharray="5,2" d="M183.29,-84.66C225.69,-81.41 274.37,-77.68 312,-74.79"/>
<polygon fill="#9a32cd" stroke="#9a32cd" points="182.92,-81.17 173.22,-85.43 183.46,-88.15 182.92,-81.17"/>
<text text-anchor="middle" x="242.5" y="-86" font-family="Helvetica,sans-Serif" font-size="10.00"> VDTypeToCType</text>
</g>
<!-- Node4 -->
<g id="node4" class="node">
<title>Node4</title>
<g id="a_node4"><a xlink:title=" ">
<polygon fill="none" stroke="#bfbfbf" points="2.5,-38.5 2.5,-57.5 170.5,-57.5 170.5,-38.5 2.5,-38.5"/>
<text text-anchor="middle" x="86.5" y="-45.5" font-family="Helvetica,sans-Serif" font-size="10.00">map&lt; std::string, VDataType &gt;</text>
</a>
</g>
</g>
<!-- Node4&#45;&gt;Node1 -->
<g id="edge3" class="edge">
<title>Node4&#45;&gt;Node1</title>
<path fill="none" stroke="#9a32cd" stroke-dasharray="5,2" d="M181.27,-52.94C216.63,-55.06 257.2,-57.79 294,-61 299.74,-61.5 305.71,-62.07 311.69,-62.68"/>
<polygon fill="#9a32cd" stroke="#9a32cd" points="181.15,-49.43 170.96,-52.33 180.74,-56.41 181.15,-49.43"/>
<text text-anchor="middle" x="242.5" y="-64" font-family="Helvetica,sans-Serif" font-size="10.00"> CTypeToVDataType</text>
</g>
<!-- Node5 -->
<g id="node5" class="node">
<title>Node5</title>
<g id="a_node5"><a xlink:title=" ">
<polygon fill="none" stroke="#bfbfbf" points="20.5,-0.5 20.5,-19.5 152.5,-19.5 152.5,-0.5 20.5,-0.5"/>
<text text-anchor="middle" x="86.5" y="-7.5" font-family="Helvetica,sans-Serif" font-size="10.00">map&lt; VDataType, int &gt;</text>
</a>
</g>
</g>
<!-- Node5&#45;&gt;Node1 -->
<g id="edge4" class="edge">
<title>Node5&#45;&gt;Node1</title>
<path fill="none" stroke="#9a32cd" stroke-dasharray="5,2" d="M163.02,-15.79C202.5,-19.93 251.35,-26.81 294,-38 315.24,-43.57 338.44,-53.2 354.45,-60.44"/>
<polygon fill="#9a32cd" stroke="#9a32cd" points="163.24,-12.29 152.93,-14.77 162.53,-19.26 163.24,-12.29"/>
<text text-anchor="middle" x="242.5" y="-41" font-family="Helvetica,sans-Serif" font-size="10.00"> VDataTypeWidthBits</text>
</g>
</g>
</svg>
