<?xml version="1.0" encoding="UTF-8" standalone="no"?>
<!DOCTYPE svg PUBLIC "-//W3C//DTD SVG 1.1//EN"
 "http://www.w3.org/Graphics/SVG/1.1/DTD/svg11.dtd">
<!-- Generated by graphviz version 2.43.0 (0)
 -->
<!-- Title: macveth::AVX2BackEnd Pages: 1 -->
<svg width="290pt" height="84pt"
 viewBox="0.00 0.00 290.00 84.00" xmlns="http://www.w3.org/2000/svg" xmlns:xlink="http://www.w3.org/1999/xlink">
<g id="graph0" class="graph" transform="scale(1 1) rotate(0) translate(4 80)">
<title>macveth::AVX2BackEnd</title>
<!-- Node1 -->
<g id="node1" class="node">
<title>Node1</title>
<g id="a_node1"><a xlink:title="SIMD generator for AVX2 architectures.">
<polygon fill="#bfbfbf" stroke="black" points="75,-0.5 75,-19.5 208,-19.5 208,-0.5 75,-0.5"/>
<text text-anchor="middle" x="141.5" y="-7.5" font-family="Helvetica,sans-Serif" font-size="10.00">macveth::AVX2BackEnd</text>
</a>
</g>
</g>
<!-- Node2 -->
<g id="node2" class="node">
<title>Node2</title>
<g id="a_node2"><a xlink:href="classmacveth_1_1SIMDBackEnd.html" target="_top" xlink:title="Abstract class implemented by each architecture (AVX, AVX2, AVX512, etc.) to generate specific intrin...">
<polygon fill="none" stroke="black" points="0,-56.5 0,-75.5 133,-75.5 133,-56.5 0,-56.5"/>
<text text-anchor="middle" x="66.5" y="-63.5" font-family="Helvetica,sans-Serif" font-size="10.00">macveth::SIMDBackEnd</text>
</a>
</g>
</g>
<!-- Node2&#45;&gt;Node1 -->
<g id="edge1" class="edge">
<title>Node2&#45;&gt;Node1</title>
<path fill="none" stroke="midnightblue" d="M86.81,-50.38C100.36,-40.62 117.74,-28.11 129.23,-19.83"/>
<polygon fill="midnightblue" stroke="midnightblue" points="84.62,-47.64 78.55,-56.32 88.71,-53.32 84.62,-47.64"/>
</g>
<!-- Node3 -->
<g id="node3" class="node">
<title>Node3</title>
<g id="a_node3"><a xlink:href="classmacveth_1_1IntelIntrinsics.html" target="_top" xlink:title=" ">
<polygon fill="none" stroke="black" points="151,-56.5 151,-75.5 282,-75.5 282,-56.5 151,-56.5"/>
<text text-anchor="middle" x="216.5" y="-63.5" font-family="Helvetica,sans-Serif" font-size="10.00">macveth::IntelIntrinsics</text>
</a>
</g>
</g>
<!-- Node3&#45;&gt;Node1 -->
<g id="edge2" class="edge">
<title>Node3&#45;&gt;Node1</title>
<path fill="none" stroke="midnightblue" d="M196.19,-50.38C182.64,-40.62 165.26,-28.11 153.77,-19.83"/>
<polygon fill="midnightblue" stroke="midnightblue" points="194.29,-53.32 204.45,-56.32 198.38,-47.64 194.29,-53.32"/>
</g>
</g>
</svg>
