<?xml version="1.0" encoding="UTF-8" standalone="no"?>
<!DOCTYPE svg PUBLIC "-//W3C//DTD SVG 1.1//EN"
 "http://www.w3.org/Graphics/SVG/1.1/DTD/svg11.dtd">
<!-- Generated by graphviz version 2.43.0 (0)
 -->
<!-- Title: MACVETH/include/CostModel/CostTable.h Pages: 1 -->
<!--zoomable 263 -->
<svg id="main" version="1.1" xmlns="http://www.w3.org/2000/svg" xmlns:xlink="http://www.w3.org/1999/xlink" xml:space="preserve" onload="init(evt)">
<style type="text/css"><![CDATA[
.edge:hover path { stroke: red; }
.edge:hover polygon { stroke: red; fill: red; }
]]></style>
<script type="text/javascript"><![CDATA[
var edges = document.getElementsByTagName('g');
if (edges && edges.length) {
  for (var i=0;i<edges.length;i++) {
    if (edges[i].id.substr(0,4)=='edge') {
      edges[i].setAttribute('class','edge');
    }
  }
}
]]></script>
        <defs>
                <circle id="rim" cx="0" cy="0" r="7"/>
                <circle id="rim2" cx="0" cy="0" r="3.5"/>
                <g id="zoomPlus">
                        <use xlink:href="#rim" fill="#404040">
                                <set attributeName="fill" to="#808080" begin="zoomplus.mouseover" end="zoomplus.mouseout"/>
                        </use>
                        <path d="M-4,0h8M0,-4v8" fill="none" stroke="white" stroke-width="1.5" pointer-events="none"/>
                </g>
                <g id="zoomMin">
                        <use xlink:href="#rim" fill="#404040">
                                <set attributeName="fill" to="#808080" begin="zoomminus.mouseover" end="zoomminus.mouseout"/>
                        </use>
                        <path d="M-4,0h8" fill="none" stroke="white" stroke-width="1.5" pointer-events="none"/>
                </g>
                <g id="dirArrow">
                        <path fill="none" stroke="white" stroke-width="1.5" d="M0,-3.0v7 M-2.5,-0.5L0,-3.0L2.5,-0.5"/>
                </g>
               <g id="resetDef">
                       <use xlink:href="#rim2" fill="#404040">
                               <set attributeName="fill" to="#808080" begin="reset.mouseover" end="reset.mouseout"/>
                       </use>
               </g>
        </defs>

<script type="text/javascript">
var viewWidth = 1033;
var viewHeight = 263;
var sectionId = 'dynsection-0';
</script>
<script xlink:href="svgpan.js"/>
<svg id="graph" class="graph">
<g id="viewport">
<title>MACVETH/include/CostModel/CostTable.h</title>
<!-- Node1 -->
<g id="node1" class="node">
<title>Node1</title>
<g id="a_node1"><a xlink:title=" ">
<polygon fill="#bfbfbf" stroke="black" points="790.5,-224.5 790.5,-254.5 948.5,-254.5 948.5,-224.5 790.5,-224.5"/>
<text text-anchor="start" x="798.5" y="-242.5" font-family="Helvetica,sans-Serif" font-size="10.00">MACVETH/include/CostModel</text>
<text text-anchor="middle" x="869.5" y="-231.5" font-family="Helvetica,sans-Serif" font-size="10.00">/CostTable.h</text>
</a>
</g>
</g>
<!-- Node2 -->
<g id="node2" class="node">
<title>Node2</title>
<g id="a_node2"><a xlink:href="Utils_8h.html" target="_top" xlink:title=" ">
<polygon fill="none" stroke="black" points="322.5,-168.5 322.5,-187.5 408.5,-187.5 408.5,-168.5 322.5,-168.5"/>
<text text-anchor="middle" x="365.5" y="-175.5" font-family="Helvetica,sans-Serif" font-size="10.00">include/Utils.h</text>
</a>
</g>
</g>
<!-- Node1&#45;&gt;Node2 -->
<g id="edge1" class="edge">
<title>Node1&#45;&gt;Node2</title>
<path fill="none" stroke="midnightblue" d="M790.47,-229.17C686.81,-216.93 507.68,-195.79 418.76,-185.29"/>
<polygon fill="midnightblue" stroke="midnightblue" points="418.98,-181.79 408.64,-184.09 418.16,-188.74 418.98,-181.79"/>
</g>
<!-- Node10 -->
<g id="node10" class="node">
<title>Node10</title>
<g id="a_node10"><a xlink:title=" ">
<polygon fill="none" stroke="#bfbfbf" points="584.5,-56.5 584.5,-75.5 616.5,-75.5 616.5,-56.5 584.5,-56.5"/>
<text text-anchor="middle" x="600.5" y="-63.5" font-family="Helvetica,sans-Serif" font-size="10.00">list</text>
</a>
</g>
</g>
<!-- Node1&#45;&gt;Node10 -->
<g id="edge19" class="edge">
<title>Node1&#45;&gt;Node10</title>
<path fill="none" stroke="midnightblue" d="M867.23,-224.17C862.23,-197.66 847.7,-141.01 811.5,-112 783.18,-89.31 676.83,-75.19 626.81,-69.66"/>
<polygon fill="midnightblue" stroke="midnightblue" points="627.08,-66.17 616.77,-68.58 626.34,-73.13 627.08,-66.17"/>
</g>
<!-- Node11 -->
<g id="node11" class="node">
<title>Node11</title>
<g id="a_node11"><a xlink:title=" ">
<polygon fill="none" stroke="#bfbfbf" points="741.5,-56.5 741.5,-75.5 779.5,-75.5 779.5,-56.5 741.5,-56.5"/>
<text text-anchor="middle" x="760.5" y="-63.5" font-family="Helvetica,sans-Serif" font-size="10.00">map</text>
</a>
</g>
</g>
<!-- Node1&#45;&gt;Node11 -->
<g id="edge20" class="edge">
<title>Node1&#45;&gt;Node11</title>
<path fill="none" stroke="midnightblue" d="M870.57,-224.43C871.72,-199.3 870.72,-146.18 845.5,-112 831.8,-93.44 808.13,-81.8 789.24,-75.03"/>
<polygon fill="midnightblue" stroke="midnightblue" points="790.2,-71.66 779.6,-71.83 788,-78.3 790.2,-71.66"/>
</g>
<!-- Node17 -->
<g id="node17" class="node">
<title>Node17</title>
<g id="a_node17"><a xlink:title=" ">
<polygon fill="none" stroke="#bfbfbf" points="897.5,-168.5 897.5,-187.5 953.5,-187.5 953.5,-168.5 897.5,-168.5"/>
<text text-anchor="middle" x="925.5" y="-175.5" font-family="Helvetica,sans-Serif" font-size="10.00">sstream</text>
</a>
</g>
</g>
<!-- Node1&#45;&gt;Node17 -->
<g id="edge21" class="edge">
<title>Node1&#45;&gt;Node17</title>
<path fill="none" stroke="midnightblue" d="M882.77,-224.4C891.08,-215.58 901.8,-204.18 910.42,-195.02"/>
<polygon fill="midnightblue" stroke="midnightblue" points="913.05,-197.34 917.35,-187.66 907.95,-192.54 913.05,-197.34"/>
</g>
<!-- Node18 -->
<g id="node18" class="node">
<title>Node18</title>
<g id="a_node18"><a xlink:title=" ">
<polygon fill="none" stroke="#bfbfbf" points="972,-168.5 972,-187.5 1025,-187.5 1025,-168.5 972,-168.5"/>
<text text-anchor="middle" x="998.5" y="-175.5" font-family="Helvetica,sans-Serif" font-size="10.00">string.h</text>
</a>
</g>
</g>
<!-- Node1&#45;&gt;Node18 -->
<g id="edge22" class="edge">
<title>Node1&#45;&gt;Node18</title>
<path fill="none" stroke="midnightblue" d="M900.07,-224.4C921.43,-214.55 949.72,-201.5 970.48,-191.92"/>
<polygon fill="midnightblue" stroke="midnightblue" points="972.11,-195.02 979.73,-187.66 969.18,-188.67 972.11,-195.02"/>
</g>
<!-- Node3 -->
<g id="node3" class="node">
<title>Node3</title>
<g id="a_node3"><a xlink:href="MVOptions_8h.html" target="_top" xlink:title=" ">
<polygon fill="none" stroke="black" points="114,-112.5 114,-131.5 231,-131.5 231,-112.5 114,-112.5"/>
<text text-anchor="middle" x="172.5" y="-119.5" font-family="Helvetica,sans-Serif" font-size="10.00">include/MVOptions.h</text>
</a>
</g>
</g>
<!-- Node2&#45;&gt;Node3 -->
<g id="edge2" class="edge">
<title>Node2&#45;&gt;Node3</title>
<path fill="none" stroke="midnightblue" d="M334.92,-168.44C301.89,-159.2 249.11,-144.44 212.73,-134.26"/>
<polygon fill="midnightblue" stroke="midnightblue" points="213.51,-130.84 202.94,-131.52 211.63,-137.58 213.51,-130.84"/>
</g>
<!-- Node6 -->
<g id="node6" class="node">
<title>Node6</title>
<g id="a_node6"><a xlink:title=" ">
<polygon fill="none" stroke="#bfbfbf" points="65.5,-0.5 65.5,-19.5 125.5,-19.5 125.5,-0.5 65.5,-0.5"/>
<text text-anchor="middle" x="95.5" y="-7.5" font-family="Helvetica,sans-Serif" font-size="10.00">iostream</text>
</a>
</g>
</g>
<!-- Node2&#45;&gt;Node6 -->
<g id="edge18" class="edge">
<title>Node2&#45;&gt;Node6</title>
<path fill="none" stroke="midnightblue" d="M322.47,-175.78C255.99,-172.92 133.01,-163.41 104.5,-132 79.1,-104.02 84.88,-55.85 90.61,-29.51"/>
<polygon fill="midnightblue" stroke="midnightblue" points="94.04,-30.23 92.97,-19.69 87.23,-28.59 94.04,-30.23"/>
</g>
<!-- Node12 -->
<g id="node12" class="node">
<title>Node12</title>
<g id="a_node12"><a xlink:title=" ">
<polygon fill="none" stroke="#bfbfbf" points="249,-112.5 249,-131.5 344,-131.5 344,-112.5 249,-112.5"/>
<text text-anchor="middle" x="296.5" y="-119.5" font-family="Helvetica,sans-Serif" font-size="10.00">clang/AST/AST.h</text>
</a>
</g>
</g>
<!-- Node2&#45;&gt;Node12 -->
<g id="edge13" class="edge">
<title>Node2&#45;&gt;Node12</title>
<path fill="none" stroke="midnightblue" d="M354.41,-168.32C344.01,-160.18 328.24,-147.84 315.78,-138.09"/>
<polygon fill="midnightblue" stroke="midnightblue" points="317.82,-135.24 307.79,-131.83 313.51,-140.75 317.82,-135.24"/>
</g>
<!-- Node13 -->
<g id="node13" class="node">
<title>Node13</title>
<g id="a_node13"><a xlink:title=" ">
<polygon fill="none" stroke="#bfbfbf" points="362,-112.5 362,-131.5 507,-131.5 507,-112.5 362,-112.5"/>
<text text-anchor="middle" x="434.5" y="-119.5" font-family="Helvetica,sans-Serif" font-size="10.00">clang/Basic/LangOptions.h</text>
</a>
</g>
</g>
<!-- Node2&#45;&gt;Node13 -->
<g id="edge14" class="edge">
<title>Node2&#45;&gt;Node13</title>
<path fill="none" stroke="midnightblue" d="M376.59,-168.32C386.99,-160.18 402.76,-147.84 415.22,-138.09"/>
<polygon fill="midnightblue" stroke="midnightblue" points="417.49,-140.75 423.21,-131.83 413.18,-135.24 417.49,-140.75"/>
</g>
<!-- Node14 -->
<g id="node14" class="node">
<title>Node14</title>
<g id="a_node14"><a xlink:title=" ">
<polygon fill="none" stroke="#bfbfbf" points="525,-112.5 525,-131.5 684,-131.5 684,-112.5 525,-112.5"/>
<text text-anchor="middle" x="604.5" y="-119.5" font-family="Helvetica,sans-Serif" font-size="10.00">clang/Basic/SourceManager.h</text>
</a>
</g>
</g>
<!-- Node2&#45;&gt;Node14 -->
<g id="edge15" class="edge">
<title>Node2&#45;&gt;Node14</title>
<path fill="none" stroke="midnightblue" d="M403.37,-168.44C444.98,-159.04 511.87,-143.93 556.97,-133.74"/>
<polygon fill="midnightblue" stroke="midnightblue" points="557.82,-137.13 566.81,-131.52 556.28,-130.31 557.82,-137.13"/>
</g>
<!-- Node15 -->
<g id="node15" class="node">
<title>Node15</title>
<g id="a_node15"><a xlink:title=" ">
<polygon fill="none" stroke="#bfbfbf" points="702,-112.5 702,-131.5 803,-131.5 803,-112.5 702,-112.5"/>
<text text-anchor="middle" x="752.5" y="-119.5" font-family="Helvetica,sans-Serif" font-size="10.00">clang/Lex/Lexer.h</text>
</a>
</g>
</g>
<!-- Node2&#45;&gt;Node15 -->
<g id="edge16" class="edge">
<title>Node2&#45;&gt;Node15</title>
<path fill="none" stroke="midnightblue" d="M408.64,-171.23C469.32,-163.08 583.64,-147.6 691.67,-132.1"/>
<polygon fill="midnightblue" stroke="midnightblue" points="692.37,-135.54 701.77,-130.65 691.37,-128.61 692.37,-135.54"/>
</g>
<!-- Node16 -->
<g id="node16" class="node">
<title>Node16</title>
<g id="a_node16"><a xlink:title=" ">
<polygon fill="none" stroke="#bfbfbf" points="0,-112.5 0,-131.5 55,-131.5 55,-112.5 0,-112.5"/>
<text text-anchor="middle" x="27.5" y="-119.5" font-family="Helvetica,sans-Serif" font-size="10.00">fstream</text>
</a>
</g>
</g>
<!-- Node2&#45;&gt;Node16 -->
<g id="edge17" class="edge">
<title>Node2&#45;&gt;Node16</title>
<path fill="none" stroke="midnightblue" d="M322.23,-171.25C264.44,-163.39 158.98,-148.37 69.5,-132 68.03,-131.73 66.54,-131.45 65.03,-131.16"/>
<polygon fill="midnightblue" stroke="midnightblue" points="65.51,-127.69 55.02,-129.14 64.13,-134.55 65.51,-127.69"/>
</g>
<!-- Node4 -->
<g id="node4" class="node">
<title>Node4</title>
<g id="a_node4"><a xlink:href="CPUID_8h.html" target="_top" xlink:title=" ">
<polygon fill="none" stroke="black" points="220,-56.5 220,-75.5 315,-75.5 315,-56.5 220,-56.5"/>
<text text-anchor="middle" x="267.5" y="-63.5" font-family="Helvetica,sans-Serif" font-size="10.00">include/CPUID.h</text>
</a>
</g>
</g>
<!-- Node3&#45;&gt;Node4 -->
<g id="edge3" class="edge">
<title>Node3&#45;&gt;Node4</title>
<path fill="none" stroke="midnightblue" d="M187.76,-112.32C202.72,-103.82 225.75,-90.73 243.23,-80.8"/>
<polygon fill="midnightblue" stroke="midnightblue" points="245.31,-83.64 252.27,-75.65 241.85,-77.55 245.31,-83.64"/>
</g>
<!-- Node5 -->
<g id="node5" class="node">
<title>Node5</title>
<g id="a_node5"><a xlink:title=" ">
<polygon fill="none" stroke="#bfbfbf" points="311.5,-0.5 311.5,-19.5 375.5,-19.5 375.5,-0.5 311.5,-0.5"/>
<text text-anchor="middle" x="343.5" y="-7.5" font-family="Helvetica,sans-Serif" font-size="10.00">algorithm</text>
</a>
</g>
</g>
<!-- Node3&#45;&gt;Node5 -->
<g id="edge8" class="edge">
<title>Node3&#45;&gt;Node5</title>
<path fill="none" stroke="midnightblue" d="M217.43,-112.48C256.26,-104.27 308.44,-90.92 323.5,-76 335.67,-63.93 340.47,-44.65 342.35,-30.21"/>
<polygon fill="midnightblue" stroke="midnightblue" points="345.86,-30.18 343.31,-19.9 338.89,-29.54 345.86,-30.18"/>
</g>
<!-- Node7 -->
<g id="node7" class="node">
<title>Node7</title>
<g id="a_node7"><a xlink:title=" ">
<polygon fill="none" stroke="#bfbfbf" points="166.5,-0.5 166.5,-19.5 210.5,-19.5 210.5,-0.5 166.5,-0.5"/>
<text text-anchor="middle" x="188.5" y="-7.5" font-family="Helvetica,sans-Serif" font-size="10.00">string</text>
</a>
</g>
</g>
<!-- Node3&#45;&gt;Node7 -->
<g id="edge12" class="edge">
<title>Node3&#45;&gt;Node7</title>
<path fill="none" stroke="midnightblue" d="M162.92,-112.3C150.55,-99.94 131.6,-76.54 140.5,-56 145.77,-43.84 156.12,-33.46 165.86,-25.74"/>
<polygon fill="midnightblue" stroke="midnightblue" points="168.14,-28.41 174.13,-19.67 164,-22.77 168.14,-28.41"/>
</g>
<!-- Node9 -->
<g id="node9" class="node">
<title>Node9</title>
<g id="a_node9"><a xlink:title=" ">
<polygon fill="none" stroke="#bfbfbf" points="149.5,-56.5 149.5,-75.5 201.5,-75.5 201.5,-56.5 149.5,-56.5"/>
<text text-anchor="middle" x="175.5" y="-63.5" font-family="Helvetica,sans-Serif" font-size="10.00">cassert</text>
</a>
</g>
</g>
<!-- Node3&#45;&gt;Node9 -->
<g id="edge9" class="edge">
<title>Node3&#45;&gt;Node9</title>
<path fill="none" stroke="midnightblue" d="M173,-112.08C173.39,-105.01 173.95,-94.86 174.45,-85.99"/>
<polygon fill="midnightblue" stroke="midnightblue" points="177.95,-85.93 175.01,-75.75 170.96,-85.54 177.95,-85.93"/>
</g>
<!-- Node3&#45;&gt;Node10 -->
<g id="edge10" class="edge">
<title>Node3&#45;&gt;Node10</title>
<path fill="none" stroke="midnightblue" d="M231.32,-113.07C234.09,-112.7 236.82,-112.35 239.5,-112 364.8,-95.77 514.72,-77.43 574.26,-70.18"/>
<polygon fill="midnightblue" stroke="midnightblue" points="574.8,-73.64 584.3,-68.96 573.95,-66.7 574.8,-73.64"/>
</g>
<!-- Node3&#45;&gt;Node11 -->
<g id="edge11" class="edge">
<title>Node3&#45;&gt;Node11</title>
<path fill="none" stroke="midnightblue" d="M231.31,-112.94C234.08,-112.61 236.82,-112.3 239.5,-112 426.1,-91.42 651.16,-74.73 730.82,-69.07"/>
<polygon fill="midnightblue" stroke="midnightblue" points="731.34,-72.54 741.07,-68.34 730.85,-65.56 731.34,-72.54"/>
</g>
<!-- Node4&#45;&gt;Node5 -->
<g id="edge4" class="edge">
<title>Node4&#45;&gt;Node5</title>
<path fill="none" stroke="midnightblue" d="M279.71,-56.32C291.28,-48.11 308.88,-35.6 322.66,-25.81"/>
<polygon fill="midnightblue" stroke="midnightblue" points="324.94,-28.48 331.07,-19.83 320.89,-22.77 324.94,-28.48"/>
</g>
<!-- Node4&#45;&gt;Node6 -->
<g id="edge5" class="edge">
<title>Node4&#45;&gt;Node6</title>
<path fill="none" stroke="midnightblue" d="M240.25,-56.44C211.06,-47.28 164.58,-32.69 132.19,-22.52"/>
<polygon fill="midnightblue" stroke="midnightblue" points="133.22,-19.17 122.63,-19.52 131.12,-25.85 133.22,-19.17"/>
</g>
<!-- Node4&#45;&gt;Node7 -->
<g id="edge6" class="edge">
<title>Node4&#45;&gt;Node7</title>
<path fill="none" stroke="midnightblue" d="M254.81,-56.32C242.6,-47.98 223.92,-35.21 209.5,-25.35"/>
<polygon fill="midnightblue" stroke="midnightblue" points="211.39,-22.41 201.16,-19.65 207.44,-28.19 211.39,-22.41"/>
</g>
<!-- Node8 -->
<g id="node8" class="node">
<title>Node8</title>
<g id="a_node8"><a xlink:title=" ">
<polygon fill="none" stroke="#bfbfbf" points="240,-0.5 240,-19.5 293,-19.5 293,-0.5 240,-0.5"/>
<text text-anchor="middle" x="266.5" y="-7.5" font-family="Helvetica,sans-Serif" font-size="10.00">stdint.h</text>
</a>
</g>
</g>
<!-- Node4&#45;&gt;Node8 -->
<g id="edge7" class="edge">
<title>Node4&#45;&gt;Node8</title>
<path fill="none" stroke="midnightblue" d="M267.33,-56.08C267.2,-49.01 267.02,-38.86 266.85,-29.99"/>
<polygon fill="midnightblue" stroke="midnightblue" points="270.35,-29.68 266.66,-19.75 263.35,-29.81 270.35,-29.68"/>
</g>
</g>
</svg>
        <g id="navigator" transform="translate(0 0)" fill="#404254">
                <rect fill="#f2f5e9" fill-opacity="0.5" stroke="#606060" stroke-width=".5" x="0" y="0" width="60" height="60"/>
                <use id="zoomplus" xlink:href="#zoomPlus" x="17" y="9" onmousedown="handleZoom(evt,'in')"/>
                <use id="zoomminus" xlink:href="#zoomMin" x="42" y="9" onmousedown="handleZoom(evt,'out')"/>
                <use id="reset" xlink:href="#resetDef" x="30" y="36" onmousedown="handleReset()"/>
                <g id="arrowUp" xlink:href="#dirArrow" transform="translate(30 24)" onmousedown="handlePan(0,-1)">
                  <use xlink:href="#rim" fill="#404040">
                        <set attributeName="fill" to="#808080" begin="arrowUp.mouseover" end="arrowUp.mouseout"/>
                  </use>
                  <path fill="none" stroke="white" stroke-width="1.5" d="M0,-3.0v7 M-2.5,-0.5L0,-3.0L2.5,-0.5"/>
                </g>
                <g id="arrowRight" xlink:href="#dirArrow" transform="rotate(90) translate(36 -43)" onmousedown="handlePan(1,0)">
                  <use xlink:href="#rim" fill="#404040">
                        <set attributeName="fill" to="#808080" begin="arrowRight.mouseover" end="arrowRight.mouseout"/>
                  </use>
                  <path fill="none" stroke="white" stroke-width="1.5" d="M0,-3.0v7 M-2.5,-0.5L0,-3.0L2.5,-0.5"/>
                </g>
                <g id="arrowDown" xlink:href="#dirArrow" transform="rotate(180) translate(-30 -48)" onmousedown="handlePan(0,1)">
                  <use xlink:href="#rim" fill="#404040">
                        <set attributeName="fill" to="#808080" begin="arrowDown.mouseover" end="arrowDown.mouseout"/>
                  </use>
                  <path fill="none" stroke="white" stroke-width="1.5" d="M0,-3.0v7 M-2.5,-0.5L0,-3.0L2.5,-0.5"/>
                </g>
                <g id="arrowLeft" xlink:href="#dirArrow" transform="rotate(270) translate(-36 17)" onmousedown="handlePan(-1,0)">
                  <use xlink:href="#rim" fill="#404040">
                        <set attributeName="fill" to="#808080" begin="arrowLeft.mouseover" end="arrowLeft.mouseout"/>
                  </use>
                  <path fill="none" stroke="white" stroke-width="1.5" d="M0,-3.0v7 M-2.5,-0.5L0,-3.0L2.5,-0.5"/>
                </g>
        </g>
        <svg viewBox="0 0 15 15" width="100%" height="30px" preserveAspectRatio="xMaxYMin meet">
         <g id="arrow_out" transform="scale(0.3 0.3)">
          <a xlink:href="CostTable_8h__incl_org.svg" target="_base">
           <rect id="button" ry="5" rx="5" y="6" x="6" height="38" width="38"
                fill="#f2f5e9" fill-opacity="0.5" stroke="#606060" stroke-width="1.0"/>
           <path id="arrow"
             d="M 11.500037,31.436501 C 11.940474,20.09759 22.043105,11.32322 32.158766,21.979434 L 37.068811,17.246167 C 37.068811,17.246167 37.088388,32 37.088388,32 L 22.160133,31.978069 C 22.160133,31.978069 26.997745,27.140456 26.997745,27.140456 C 18.528582,18.264221 13.291696,25.230495 11.500037,31.436501 z"
             style="fill:#404040;"/>
          </a>
         </g>
        </svg>
</svg>
