<?xml version="1.0" encoding="UTF-8" standalone="no"?>
<!DOCTYPE svg PUBLIC "-//W3C//DTD SVG 1.1//EN"
 "http://www.w3.org/Graphics/SVG/1.1/DTD/svg11.dtd">
<!-- Generated by graphviz version 2.43.0 (0)
 -->
<!-- Title: MACVETH/include/CostModel/CostTable.h Pages: 1 -->
<svg width="636pt" height="296pt"
 viewBox="0.00 0.00 635.50 296.00" xmlns="http://www.w3.org/2000/svg" xmlns:xlink="http://www.w3.org/1999/xlink">
<g id="graph0" class="graph" transform="scale(1 1) rotate(0) translate(4 292)">
<title>MACVETH/include/CostModel/CostTable.h</title>
<!-- Node1 -->
<g id="node1" class="node">
<title>Node1</title>
<g id="a_node1"><a xlink:title=" ">
<polygon fill="#bfbfbf" stroke="black" points="72,-257.5 72,-287.5 230,-287.5 230,-257.5 72,-257.5"/>
<text text-anchor="start" x="80" y="-275.5" font-family="Helvetica,sans-Serif" font-size="10.00">MACVETH/include/CostModel</text>
<text text-anchor="middle" x="151" y="-264.5" font-family="Helvetica,sans-Serif" font-size="10.00">/CostTable.h</text>
</a>
</g>
</g>
<!-- Node2 -->
<g id="node2" class="node">
<title>Node2</title>
<g id="a_node2"><a xlink:href="SIMDCostInfo_8h.html" target="_top" xlink:title=" ">
<polygon fill="none" stroke="black" points="0,-123.5 0,-153.5 158,-153.5 158,-123.5 0,-123.5"/>
<text text-anchor="start" x="8" y="-141.5" font-family="Helvetica,sans-Serif" font-size="10.00">MACVETH/include/CostModel</text>
<text text-anchor="middle" x="79" y="-130.5" font-family="Helvetica,sans-Serif" font-size="10.00">/SIMDCostInfo.h</text>
</a>
</g>
</g>
<!-- Node1&#45;&gt;Node2 -->
<g id="edge1" class="edge">
<title>Node1&#45;&gt;Node2</title>
<path fill="none" stroke="midnightblue" d="M138.44,-248.48C123.49,-221.07 99.01,-176.19 86.65,-153.52"/>
<polygon fill="midnightblue" stroke="midnightblue" points="135.43,-250.27 143.29,-257.37 141.58,-246.92 135.43,-250.27"/>
</g>
<!-- Node4 -->
<g id="node4" class="node">
<title>Node4</title>
<g id="a_node4"><a xlink:href="SIMDBackEnd_8h.html" target="_top" xlink:title=" ">
<polygon fill="none" stroke="black" points="139,-190.5 139,-220.5 309,-220.5 309,-190.5 139,-190.5"/>
<text text-anchor="start" x="147" y="-208.5" font-family="Helvetica,sans-Serif" font-size="10.00">MACVETH/include/Vectorization</text>
<text text-anchor="middle" x="224" y="-197.5" font-family="Helvetica,sans-Serif" font-size="10.00">/SIMD/SIMDBackEnd.h</text>
</a>
</g>
</g>
<!-- Node1&#45;&gt;Node4 -->
<g id="edge3" class="edge">
<title>Node1&#45;&gt;Node4</title>
<path fill="none" stroke="midnightblue" d="M174.47,-250.6C185.5,-240.78 198.34,-229.34 208.19,-220.58"/>
<polygon fill="midnightblue" stroke="midnightblue" points="171.98,-248.13 166.84,-257.4 176.64,-253.36 171.98,-248.13"/>
</g>
<!-- Node3 -->
<g id="node3" class="node">
<title>Node3</title>
<g id="a_node3"><a xlink:href="MVCostModel_8h.html" target="_top" xlink:title=" ">
<polygon fill="none" stroke="black" points="28,-56.5 28,-86.5 186,-86.5 186,-56.5 28,-56.5"/>
<text text-anchor="start" x="36" y="-74.5" font-family="Helvetica,sans-Serif" font-size="10.00">MACVETH/include/CostModel</text>
<text text-anchor="middle" x="107" y="-63.5" font-family="Helvetica,sans-Serif" font-size="10.00">/MVCostModel.h</text>
</a>
</g>
</g>
<!-- Node2&#45;&gt;Node3 -->
<g id="edge2" class="edge">
<title>Node2&#45;&gt;Node3</title>
<path fill="none" stroke="midnightblue" d="M89.13,-113.99C93.08,-104.8 97.49,-94.58 100.94,-86.58"/>
<polygon fill="midnightblue" stroke="midnightblue" points="85.82,-112.83 85.08,-123.4 92.25,-115.6 85.82,-112.83"/>
</g>
<!-- Node4&#45;&gt;Node2 -->
<g id="edge5" class="edge">
<title>Node4&#45;&gt;Node2</title>
<path fill="none" stroke="midnightblue" d="M183.33,-186.27C160.24,-175.92 131.76,-163.15 110.4,-153.58"/>
<polygon fill="midnightblue" stroke="midnightblue" points="181.98,-189.5 192.54,-190.4 184.84,-183.11 181.98,-189.5"/>
</g>
<!-- Node4&#45;&gt;Node3 -->
<g id="edge4" class="edge">
<title>Node4&#45;&gt;Node3</title>
<path fill="none" stroke="midnightblue" d="M210.32,-181.69C199.59,-164.66 183.71,-141.28 167,-123 154.6,-109.44 138.59,-96.13 126.23,-86.59"/>
<polygon fill="midnightblue" stroke="midnightblue" points="207.49,-183.76 215.73,-190.42 213.44,-180.08 207.49,-183.76"/>
</g>
<!-- Node5 -->
<g id="node5" class="node">
<title>Node5</title>
<g id="a_node5"><a xlink:href="MVFrontend_8h.html" target="_top" xlink:title=" ">
<polygon fill="none" stroke="black" points="241,-62 241,-81 415,-81 415,-62 241,-62"/>
<text text-anchor="middle" x="328" y="-69" font-family="Helvetica,sans-Serif" font-size="10.00">MACVETH/include/MVFrontend.h</text>
</a>
</g>
</g>
<!-- Node4&#45;&gt;Node5 -->
<g id="edge6" class="edge">
<title>Node4&#45;&gt;Node5</title>
<path fill="none" stroke="midnightblue" d="M224.73,-179.98C226.36,-162.61 230.89,-139.54 243,-123 257.9,-102.64 283.72,-89.01 303,-81.1"/>
<polygon fill="midnightblue" stroke="midnightblue" points="221.2,-180.24 224.03,-190.45 228.19,-180.7 221.2,-180.24"/>
</g>
<!-- Node7 -->
<g id="node7" class="node">
<title>Node7</title>
<g id="a_node7"><a xlink:href="MVRewriter_8h.html" target="_top" xlink:title=" ">
<polygon fill="none" stroke="black" points="252,-129 252,-148 424,-148 424,-129 252,-129"/>
<text text-anchor="middle" x="338" y="-136" font-family="Helvetica,sans-Serif" font-size="10.00">MACVETH/include/MVRewriter.h</text>
</a>
</g>
</g>
<!-- Node4&#45;&gt;Node7 -->
<g id="edge8" class="edge">
<title>Node4&#45;&gt;Node7</title>
<path fill="none" stroke="midnightblue" d="M257.66,-185.31C279.38,-172.93 306.55,-157.43 323.08,-148.01"/>
<polygon fill="midnightblue" stroke="midnightblue" points="255.69,-182.4 248.74,-190.4 259.16,-188.48 255.69,-182.4"/>
</g>
<!-- Node8 -->
<g id="node8" class="node">
<title>Node8</title>
<g id="a_node8"><a xlink:href="AVX2BackEnd_8h.html" target="_top" xlink:title=" ">
<polygon fill="none" stroke="black" points="442,-123.5 442,-153.5 612,-153.5 612,-123.5 442,-123.5"/>
<text text-anchor="start" x="450" y="-141.5" font-family="Helvetica,sans-Serif" font-size="10.00">MACVETH/include/Vectorization</text>
<text text-anchor="middle" x="527" y="-130.5" font-family="Helvetica,sans-Serif" font-size="10.00">/SIMD/AVX2/AVX2BackEnd.h</text>
</a>
</g>
</g>
<!-- Node4&#45;&gt;Node8 -->
<g id="edge10" class="edge">
<title>Node4&#45;&gt;Node8</title>
<path fill="none" stroke="midnightblue" d="M299.44,-188.32C349.24,-177.63 413.84,-163.77 461.48,-153.55"/>
<polygon fill="midnightblue" stroke="midnightblue" points="298.42,-184.96 289.37,-190.48 299.89,-191.8 298.42,-184.96"/>
</g>
<!-- Node9 -->
<g id="node9" class="node">
<title>Node9</title>
<g id="a_node9"><a xlink:href="SIMDBackEndFactory_8h.html" target="_top" xlink:title=" ">
<polygon fill="none" stroke="black" points="451,-56.5 451,-86.5 621,-86.5 621,-56.5 451,-56.5"/>
<text text-anchor="start" x="459" y="-74.5" font-family="Helvetica,sans-Serif" font-size="10.00">MACVETH/include/Vectorization</text>
<text text-anchor="middle" x="536" y="-63.5" font-family="Helvetica,sans-Serif" font-size="10.00">/SIMD/SIMDBackEndFactory.h</text>
</a>
</g>
</g>
<!-- Node4&#45;&gt;Node9 -->
<g id="edge12" class="edge">
<title>Node4&#45;&gt;Node9</title>
<path fill="none" stroke="midnightblue" d="M319.44,-198.89C430.52,-191.36 601.35,-176.31 621,-154 643.23,-128.76 601.79,-102.31 569.33,-86.62"/>
<polygon fill="midnightblue" stroke="midnightblue" points="318.96,-195.41 309.22,-199.57 319.43,-202.4 318.96,-195.41"/>
</g>
<!-- Node6 -->
<g id="node6" class="node">
<title>Node6</title>
<g id="a_node6"><a xlink:href="macveth_8cpp.html" target="_top" xlink:title=" ">
<polygon fill="none" stroke="black" points="255,-0.5 255,-19.5 401,-19.5 401,-0.5 255,-0.5"/>
<text text-anchor="middle" x="328" y="-7.5" font-family="Helvetica,sans-Serif" font-size="10.00">MACVETH/lib/macveth.cpp</text>
</a>
</g>
</g>
<!-- Node5&#45;&gt;Node6 -->
<g id="edge7" class="edge">
<title>Node5&#45;&gt;Node6</title>
<path fill="none" stroke="midnightblue" d="M328,-51.82C328,-41 328,-27.9 328,-19.51"/>
<polygon fill="midnightblue" stroke="midnightblue" points="324.5,-51.98 328,-61.98 331.5,-51.98 324.5,-51.98"/>
</g>
<!-- Node7&#45;&gt;Node5 -->
<g id="edge9" class="edge">
<title>Node7&#45;&gt;Node5</title>
<path fill="none" stroke="midnightblue" d="M335.08,-118.54C333.18,-106.17 330.79,-90.62 329.33,-81.13"/>
<polygon fill="midnightblue" stroke="midnightblue" points="331.67,-119.38 336.65,-128.73 338.59,-118.32 331.67,-119.38"/>
</g>
<!-- Node8&#45;&gt;Node9 -->
<g id="edge11" class="edge">
<title>Node8&#45;&gt;Node9</title>
<path fill="none" stroke="midnightblue" d="M530.34,-113.4C531.59,-104.37 532.97,-94.41 534.05,-86.58"/>
<polygon fill="midnightblue" stroke="midnightblue" points="526.86,-113.01 528.95,-123.4 533.79,-113.97 526.86,-113.01"/>
</g>
</g>
</svg>
