<?xml version="1.0" encoding="UTF-8" standalone="no"?>
<!DOCTYPE svg PUBLIC "-//W3C//DTD SVG 1.1//EN"
 "http://www.w3.org/Graphics/SVG/1.1/DTD/svg11.dtd">
<!-- Generated by graphviz version 2.43.0 (0)
 -->
<!-- Title: MACVETH/include/CPUID.h Pages: 1 -->
<!--zoomable 777 -->
<svg id="main" version="1.1" xmlns="http://www.w3.org/2000/svg" xmlns:xlink="http://www.w3.org/1999/xlink" xml:space="preserve" onload="init(evt)">
<style type="text/css"><![CDATA[
.edge:hover path { stroke: red; }
.edge:hover polygon { stroke: red; fill: red; }
]]></style>
<script type="text/javascript"><![CDATA[
var edges = document.getElementsByTagName('g');
if (edges && edges.length) {
  for (var i=0;i<edges.length;i++) {
    if (edges[i].id.substr(0,4)=='edge') {
      edges[i].setAttribute('class','edge');
    }
  }
}
]]></script>
        <defs>
                <circle id="rim" cx="0" cy="0" r="7"/>
                <circle id="rim2" cx="0" cy="0" r="3.5"/>
                <g id="zoomPlus">
                        <use xlink:href="#rim" fill="#404040">
                                <set attributeName="fill" to="#808080" begin="zoomplus.mouseover" end="zoomplus.mouseout"/>
                        </use>
                        <path d="M-4,0h8M0,-4v8" fill="none" stroke="white" stroke-width="1.5" pointer-events="none"/>
                </g>
                <g id="zoomMin">
                        <use xlink:href="#rim" fill="#404040">
                                <set attributeName="fill" to="#808080" begin="zoomminus.mouseover" end="zoomminus.mouseout"/>
                        </use>
                        <path d="M-4,0h8" fill="none" stroke="white" stroke-width="1.5" pointer-events="none"/>
                </g>
                <g id="dirArrow">
                        <path fill="none" stroke="white" stroke-width="1.5" d="M0,-3.0v7 M-2.5,-0.5L0,-3.0L2.5,-0.5"/>
                </g>
               <g id="resetDef">
                       <use xlink:href="#rim2" fill="#404040">
                               <set attributeName="fill" to="#808080" begin="reset.mouseover" end="reset.mouseout"/>
                       </use>
               </g>
        </defs>

<script type="text/javascript">
var viewWidth = 1088;
var viewHeight = 777;
var sectionId = 'dynsection-1';
</script>
<script xlink:href="svgpan.js"/>
<svg id="graph" class="graph">
<g id="viewport">
<title>MACVETH/include/CPUID.h</title>
<!-- Node1 -->
<g id="node1" class="node">
<title>Node1</title>
<g id="a_node1"><a xlink:title=" ">
<polygon fill="#bfbfbf" stroke="black" points="688,-749.5 688,-768.5 834,-768.5 834,-749.5 688,-749.5"/>
<text text-anchor="middle" x="761" y="-756.5" font-family="Helvetica,sans-Serif" font-size="10.00">MACVETH/include/CPUID.h</text>
</a>
</g>
</g>
<!-- Node2 -->
<g id="node2" class="node">
<title>Node2</title>
<g id="a_node2"><a xlink:href="MVOptions_8h.html" target="_top" xlink:title=" ">
<polygon fill="none" stroke="black" points="676.5,-693.5 676.5,-712.5 845.5,-712.5 845.5,-693.5 676.5,-693.5"/>
<text text-anchor="middle" x="761" y="-700.5" font-family="Helvetica,sans-Serif" font-size="10.00">MACVETH/include/MVOptions.h</text>
</a>
</g>
</g>
<!-- Node1&#45;&gt;Node2 -->
<g id="edge1" class="edge">
<title>Node1&#45;&gt;Node2</title>
<path fill="none" stroke="midnightblue" d="M761,-738.8C761,-729.91 761,-719.78 761,-712.75"/>
<polygon fill="midnightblue" stroke="midnightblue" points="757.5,-739.08 761,-749.08 764.5,-739.08 757.5,-739.08"/>
</g>
<!-- Node3 -->
<g id="node3" class="node">
<title>Node3</title>
<g id="a_node3"><a xlink:href="MVCostModel_8h.html" target="_top" xlink:title=" ">
<polygon fill="none" stroke="black" points="909,-56.5 909,-86.5 1067,-86.5 1067,-56.5 909,-56.5"/>
<text text-anchor="start" x="917" y="-74.5" font-family="Helvetica,sans-Serif" font-size="10.00">MACVETH/include/CostModel</text>
<text text-anchor="middle" x="988" y="-63.5" font-family="Helvetica,sans-Serif" font-size="10.00">/MVCostModel.h</text>
</a>
</g>
</g>
<!-- Node2&#45;&gt;Node3 -->
<g id="edge2" class="edge">
<title>Node2&#45;&gt;Node3</title>
<path fill="none" stroke="midnightblue" d="M833.31,-691.86C927.42,-676.6 1080,-643.86 1080,-592 1080,-592 1080,-592 1080,-204.5 1080,-153.94 1034.01,-108.89 1007.06,-86.83"/>
<polygon fill="midnightblue" stroke="midnightblue" points="832.59,-688.43 823.26,-693.46 833.69,-695.35 832.59,-688.43"/>
</g>
<!-- Node4 -->
<g id="node4" class="node">
<title>Node4</title>
<g id="a_node4"><a xlink:href="Utils_8h.html" target="_top" xlink:title=" ">
<polygon fill="none" stroke="black" points="411,-637.5 411,-656.5 549,-656.5 549,-637.5 411,-637.5"/>
<text text-anchor="middle" x="480" y="-644.5" font-family="Helvetica,sans-Serif" font-size="10.00">MACVETH/include/Utils.h</text>
</a>
</g>
</g>
<!-- Node2&#45;&gt;Node4 -->
<g id="edge3" class="edge">
<title>Node2&#45;&gt;Node4</title>
<path fill="none" stroke="midnightblue" d="M706.55,-691.54C653.45,-681.33 573.66,-666 524.32,-656.52"/>
<polygon fill="midnightblue" stroke="midnightblue" points="705.99,-694.99 716.47,-693.44 707.31,-688.12 705.99,-694.99"/>
</g>
<!-- Node9 -->
<g id="node9" class="node">
<title>Node9</title>
<g id="a_node9"><a xlink:href="macveth_8cpp.html" target="_top" xlink:title=" ">
<polygon fill="none" stroke="black" points="0,-0.5 0,-19.5 146,-19.5 146,-0.5 0,-0.5"/>
<text text-anchor="middle" x="73" y="-7.5" font-family="Helvetica,sans-Serif" font-size="10.00">MACVETH/lib/macveth.cpp</text>
</a>
</g>
</g>
<!-- Node2&#45;&gt;Node9 -->
<g id="edge56" class="edge">
<title>Node2&#45;&gt;Node9</title>
<path fill="none" stroke="midnightblue" d="M666.02,-697.71C465.24,-687.37 16,-656.98 16,-592 16,-592 16,-592 16,-137.5 16,-89.32 50.79,-39.21 66.01,-19.6"/>
<polygon fill="midnightblue" stroke="midnightblue" points="666.1,-701.22 676.26,-698.23 666.46,-694.23 666.1,-701.22"/>
</g>
<!-- Node12 -->
<g id="node12" class="node">
<title>Node12</title>
<g id="a_node12"><a xlink:href="SIMDBackEndFactory_8h.html" target="_top" xlink:title=" ">
<polygon fill="none" stroke="black" points="667,-56.5 667,-86.5 837,-86.5 837,-56.5 667,-56.5"/>
<text text-anchor="start" x="675" y="-74.5" font-family="Helvetica,sans-Serif" font-size="10.00">MACVETH/include/Vectorization</text>
<text text-anchor="middle" x="752" y="-63.5" font-family="Helvetica,sans-Serif" font-size="10.00">/SIMD/SIMDBackEndFactory.h</text>
</a>
</g>
</g>
<!-- Node2&#45;&gt;Node12 -->
<g id="edge55" class="edge">
<title>Node2&#45;&gt;Node12</title>
<path fill="none" stroke="midnightblue" d="M818.96,-691.47C901.23,-674.84 1042,-639.46 1042,-592 1042,-592 1042,-592 1042,-333 1042,-236.29 1055.13,-189.6 985,-123 963.73,-102.8 894.58,-89.49 837.09,-81.63"/>
<polygon fill="midnightblue" stroke="midnightblue" points="818.11,-688.07 808.99,-693.45 819.48,-694.94 818.11,-688.07"/>
</g>
<!-- Node5 -->
<g id="node5" class="node">
<title>Node5</title>
<g id="a_node5"><a xlink:href="CostTable_8h.html" target="_top" xlink:title=" ">
<polygon fill="none" stroke="black" points="818,-257.5 818,-287.5 976,-287.5 976,-257.5 818,-257.5"/>
<text text-anchor="start" x="826" y="-275.5" font-family="Helvetica,sans-Serif" font-size="10.00">MACVETH/include/CostModel</text>
<text text-anchor="middle" x="897" y="-264.5" font-family="Helvetica,sans-Serif" font-size="10.00">/CostTable.h</text>
</a>
</g>
</g>
<!-- Node4&#45;&gt;Node5 -->
<g id="edge4" class="edge">
<title>Node4&#45;&gt;Node5</title>
<path fill="none" stroke="midnightblue" d="M559.32,-644.8C705.82,-640.42 1004,-620.45 1004,-530.5 1004,-530.5 1004,-530.5 1004,-394.5 1004,-345.57 954.28,-307.12 922.63,-287.6"/>
<polygon fill="midnightblue" stroke="midnightblue" points="558.94,-641.31 549.04,-645.09 559.14,-648.31 558.94,-641.31"/>
</g>
<!-- Node4&#45;&gt;Node9 -->
<g id="edge54" class="edge">
<title>Node4&#45;&gt;Node9</title>
<path fill="none" stroke="midnightblue" d="M400.45,-640.68C277.17,-630.23 54,-601.49 54,-530.5 54,-530.5 54,-530.5 54,-137.5 54,-92.64 65.83,-39.81 70.82,-19.52"/>
<polygon fill="midnightblue" stroke="midnightblue" points="400.35,-644.18 410.61,-641.52 400.93,-637.21 400.35,-644.18"/>
</g>
<!-- Node13 -->
<g id="node13" class="node">
<title>Node13</title>
<g id="a_node13"><a xlink:href="Debug_8h.html" target="_top" xlink:title=" ">
<polygon fill="none" stroke="black" points="304.5,-581.5 304.5,-600.5 451.5,-600.5 451.5,-581.5 304.5,-581.5"/>
<text text-anchor="middle" x="378" y="-588.5" font-family="Helvetica,sans-Serif" font-size="10.00">MACVETH/include/Debug.h</text>
</a>
</g>
</g>
<!-- Node4&#45;&gt;Node13 -->
<g id="edge17" class="edge">
<title>Node4&#45;&gt;Node13</title>
<path fill="none" stroke="midnightblue" d="M454.67,-632.59C435.81,-622.61 410.62,-609.27 394.35,-600.65"/>
<polygon fill="midnightblue" stroke="midnightblue" points="453.14,-635.74 463.61,-637.32 456.41,-629.55 453.14,-635.74"/>
</g>
<!-- Node14 -->
<g id="node14" class="node">
<title>Node14</title>
<g id="a_node14"><a xlink:href="MVExpr_8h.html" target="_top" xlink:title=" ">
<polygon fill="none" stroke="black" points="508,-514.5 508,-544.5 652,-544.5 652,-514.5 508,-514.5"/>
<text text-anchor="start" x="516" y="-532.5" font-family="Helvetica,sans-Serif" font-size="10.00">MACVETH/include/MVExpr</text>
<text text-anchor="middle" x="580" y="-521.5" font-family="Helvetica,sans-Serif" font-size="10.00">/MVExpr.h</text>
</a>
</g>
</g>
<!-- Node4&#45;&gt;Node14 -->
<g id="edge51" class="edge">
<title>Node4&#45;&gt;Node14</title>
<path fill="none" stroke="midnightblue" d="M494.25,-629.54C513.98,-606.75 549.28,-565.98 567.84,-544.55"/>
<polygon fill="midnightblue" stroke="midnightblue" points="491.42,-627.47 487.52,-637.32 496.71,-632.05 491.42,-627.47"/>
</g>
<!-- Node23 -->
<g id="node23" class="node">
<title>Node23</title>
<g id="a_node23"><a xlink:href="StmtWrapper_8h.html" target="_top" xlink:title=" ">
<polygon fill="none" stroke="black" points="196.5,-386 196.5,-405 375.5,-405 375.5,-386 196.5,-386"/>
<text text-anchor="middle" x="286" y="-393" font-family="Helvetica,sans-Serif" font-size="10.00">MACVETH/include/StmtWrapper.h</text>
</a>
</g>
</g>
<!-- Node4&#45;&gt;Node23 -->
<g id="edge52" class="edge">
<title>Node4&#45;&gt;Node23</title>
<path fill="none" stroke="midnightblue" d="M400.86,-636.3C357.07,-629.16 308.78,-617.76 295,-601 246.03,-541.43 273.61,-435.91 283.15,-405.14"/>
<polygon fill="midnightblue" stroke="midnightblue" points="400.57,-639.8 410.99,-637.89 401.66,-632.88 400.57,-639.8"/>
</g>
<!-- Node24 -->
<g id="node24" class="node">
<title>Node24</title>
<g id="a_node24"><a xlink:href="TAC_8h.html" target="_top" xlink:title=" ">
<polygon fill="none" stroke="black" points="304,-453 304,-472 438,-472 438,-453 304,-453"/>
<text text-anchor="middle" x="371" y="-460" font-family="Helvetica,sans-Serif" font-size="10.00">MACVETH/include/TAC.h</text>
</a>
</g>
</g>
<!-- Node4&#45;&gt;Node24 -->
<g id="edge53" class="edge">
<title>Node4&#45;&gt;Node24</title>
<path fill="none" stroke="midnightblue" d="M476.09,-627.3C472.86,-613.93 467.57,-595.78 460,-581 437.02,-536.13 396.7,-490.74 379.34,-472.2"/>
<polygon fill="midnightblue" stroke="midnightblue" points="472.71,-628.23 478.32,-637.22 479.54,-626.69 472.71,-628.23"/>
</g>
<!-- Node6 -->
<g id="node6" class="node">
<title>Node6</title>
<g id="a_node6"><a xlink:href="SIMDCostInfo_8h.html" target="_top" xlink:title=" ">
<polygon fill="none" stroke="black" points="818,-123.5 818,-153.5 976,-153.5 976,-123.5 818,-123.5"/>
<text text-anchor="start" x="826" y="-141.5" font-family="Helvetica,sans-Serif" font-size="10.00">MACVETH/include/CostModel</text>
<text text-anchor="middle" x="897" y="-130.5" font-family="Helvetica,sans-Serif" font-size="10.00">/SIMDCostInfo.h</text>
</a>
</g>
</g>
<!-- Node5&#45;&gt;Node6 -->
<g id="edge5" class="edge">
<title>Node5&#45;&gt;Node6</title>
<path fill="none" stroke="midnightblue" d="M897,-247.02C897,-219.51 897,-175.79 897,-153.52"/>
<polygon fill="midnightblue" stroke="midnightblue" points="893.5,-247.37 897,-257.37 900.5,-247.37 893.5,-247.37"/>
</g>
<!-- Node7 -->
<g id="node7" class="node">
<title>Node7</title>
<g id="a_node7"><a xlink:href="SIMDBackEnd_8h.html" target="_top" xlink:title=" ">
<polygon fill="none" stroke="black" points="664,-190.5 664,-220.5 834,-220.5 834,-190.5 664,-190.5"/>
<text text-anchor="start" x="672" y="-208.5" font-family="Helvetica,sans-Serif" font-size="10.00">MACVETH/include/Vectorization</text>
<text text-anchor="middle" x="749" y="-197.5" font-family="Helvetica,sans-Serif" font-size="10.00">/SIMD/SIMDBackEnd.h</text>
</a>
</g>
</g>
<!-- Node5&#45;&gt;Node7 -->
<g id="edge7" class="edge">
<title>Node5&#45;&gt;Node7</title>
<path fill="none" stroke="midnightblue" d="M855.49,-253.27C831.92,-242.92 802.86,-230.15 781.05,-220.58"/>
<polygon fill="midnightblue" stroke="midnightblue" points="854.32,-256.58 864.89,-257.4 857.14,-250.17 854.32,-256.58"/>
</g>
<!-- Node6&#45;&gt;Node3 -->
<g id="edge6" class="edge">
<title>Node6&#45;&gt;Node3</title>
<path fill="none" stroke="midnightblue" d="M925.07,-117.45C939.07,-107.45 955.66,-95.6 968.29,-86.58"/>
<polygon fill="midnightblue" stroke="midnightblue" points="922.85,-114.74 916.75,-123.4 926.92,-120.43 922.85,-114.74"/>
</g>
<!-- Node7&#45;&gt;Node3 -->
<g id="edge8" class="edge">
<title>Node7&#45;&gt;Node3</title>
<path fill="none" stroke="midnightblue" d="M760.4,-181.51C770.68,-163.07 787.47,-137.9 809,-123 838.33,-102.69 875.7,-90.5 908.69,-83.21"/>
<polygon fill="midnightblue" stroke="midnightblue" points="757.25,-179.97 755.63,-190.44 763.42,-183.27 757.25,-179.97"/>
</g>
<!-- Node7&#45;&gt;Node6 -->
<g id="edge9" class="edge">
<title>Node7&#45;&gt;Node6</title>
<path fill="none" stroke="midnightblue" d="M790.51,-186.27C814.08,-175.92 843.14,-163.15 864.95,-153.58"/>
<polygon fill="midnightblue" stroke="midnightblue" points="788.86,-183.17 781.11,-190.4 791.68,-189.58 788.86,-183.17"/>
</g>
<!-- Node8 -->
<g id="node8" class="node">
<title>Node8</title>
<g id="a_node8"><a xlink:href="MVFrontend_8h.html" target="_top" xlink:title=" ">
<polygon fill="none" stroke="black" points="162,-62 162,-81 336,-81 336,-62 162,-62"/>
<text text-anchor="middle" x="249" y="-69" font-family="Helvetica,sans-Serif" font-size="10.00">MACVETH/include/MVFrontend.h</text>
</a>
</g>
</g>
<!-- Node7&#45;&gt;Node8 -->
<g id="edge10" class="edge">
<title>Node7&#45;&gt;Node8</title>
<path fill="none" stroke="midnightblue" d="M740.19,-181.26C731.67,-162.24 716.82,-136.35 695,-123 636.68,-87.31 448.71,-76.82 336.27,-73.75"/>
<polygon fill="midnightblue" stroke="midnightblue" points="736.96,-182.63 744.07,-190.49 743.41,-179.91 736.96,-182.63"/>
</g>
<!-- Node10 -->
<g id="node10" class="node">
<title>Node10</title>
<g id="a_node10"><a xlink:href="MVRewriter_8h.html" target="_top" xlink:title=" ">
<polygon fill="none" stroke="black" points="208,-129 208,-148 380,-148 380,-129 208,-129"/>
<text text-anchor="middle" x="294" y="-136" font-family="Helvetica,sans-Serif" font-size="10.00">MACVETH/include/MVRewriter.h</text>
</a>
</g>
</g>
<!-- Node7&#45;&gt;Node10 -->
<g id="edge12" class="edge">
<title>Node7&#45;&gt;Node10</title>
<path fill="none" stroke="midnightblue" d="M653.96,-190.92C563.46,-177.99 430.04,-158.93 353.62,-148.02"/>
<polygon fill="midnightblue" stroke="midnightblue" points="653.56,-194.4 663.95,-192.35 654.55,-187.47 653.56,-194.4"/>
</g>
<!-- Node11 -->
<g id="node11" class="node">
<title>Node11</title>
<g id="a_node11"><a xlink:href="AVX2BackEnd_8h.html" target="_top" xlink:title=" ">
<polygon fill="none" stroke="black" points="516,-123.5 516,-153.5 686,-153.5 686,-123.5 516,-123.5"/>
<text text-anchor="start" x="524" y="-141.5" font-family="Helvetica,sans-Serif" font-size="10.00">MACVETH/include/Vectorization</text>
<text text-anchor="middle" x="601" y="-130.5" font-family="Helvetica,sans-Serif" font-size="10.00">/SIMD/AVX2/AVX2BackEnd.h</text>
</a>
</g>
</g>
<!-- Node7&#45;&gt;Node11 -->
<g id="edge14" class="edge">
<title>Node7&#45;&gt;Node11</title>
<path fill="none" stroke="midnightblue" d="M707.49,-186.27C683.92,-175.92 654.86,-163.15 633.05,-153.58"/>
<polygon fill="midnightblue" stroke="midnightblue" points="706.32,-189.58 716.89,-190.4 709.14,-183.17 706.32,-189.58"/>
</g>
<!-- Node7&#45;&gt;Node12 -->
<g id="edge16" class="edge">
<title>Node7&#45;&gt;Node12</title>
<path fill="none" stroke="midnightblue" d="M749.56,-180.02C750.18,-152.51 751.18,-108.79 751.68,-86.52"/>
<polygon fill="midnightblue" stroke="midnightblue" points="746.05,-180.3 749.32,-190.37 753.05,-180.46 746.05,-180.3"/>
</g>
<!-- Node8&#45;&gt;Node9 -->
<g id="edge11" class="edge">
<title>Node8&#45;&gt;Node9</title>
<path fill="none" stroke="midnightblue" d="M214.19,-58.73C179.98,-47.17 128.6,-29.8 98.17,-19.51"/>
<polygon fill="midnightblue" stroke="midnightblue" points="213.19,-62.09 223.78,-61.98 215.43,-55.46 213.19,-62.09"/>
</g>
<!-- Node10&#45;&gt;Node8 -->
<g id="edge13" class="edge">
<title>Node10&#45;&gt;Node8</title>
<path fill="none" stroke="midnightblue" d="M282.16,-120.4C273.42,-107.77 261.88,-91.1 254.97,-81.13"/>
<polygon fill="midnightblue" stroke="midnightblue" points="279.36,-122.5 287.93,-128.73 285.12,-118.52 279.36,-122.5"/>
</g>
<!-- Node11&#45;&gt;Node12 -->
<g id="edge15" class="edge">
<title>Node11&#45;&gt;Node12</title>
<path fill="none" stroke="midnightblue" d="M643.03,-119.41C667.14,-109.03 696.95,-96.2 719.3,-86.58"/>
<polygon fill="midnightblue" stroke="midnightblue" points="641.57,-116.23 633.76,-123.4 644.33,-122.66 641.57,-116.23"/>
</g>
<!-- Node13&#45;&gt;Node14 -->
<g id="edge18" class="edge">
<title>Node13&#45;&gt;Node14</title>
<path fill="none" stroke="midnightblue" d="M416.67,-578.61C449.62,-568.9 497.11,-554.92 532.39,-544.52"/>
<polygon fill="midnightblue" stroke="midnightblue" points="415.55,-575.29 406.94,-581.48 417.52,-582.01 415.55,-575.29"/>
</g>
<!-- Node13&#45;&gt;Node24 -->
<g id="edge50" class="edge">
<title>Node13&#45;&gt;Node24</title>
<path fill="none" stroke="midnightblue" d="M376.97,-571.31C375.43,-543.58 372.61,-492.63 371.48,-472.26"/>
<polygon fill="midnightblue" stroke="midnightblue" points="373.47,-571.51 377.52,-581.31 380.46,-571.13 373.47,-571.51"/>
</g>
<!-- Node25 -->
<g id="node25" class="node">
<title>Node25</title>
<g id="a_node25"><a xlink:href="MVPragmaHandler_8h.html" target="_top" xlink:title=" ">
<polygon fill="none" stroke="black" points="88,-447.5 88,-477.5 248,-477.5 248,-447.5 88,-447.5"/>
<text text-anchor="start" x="96" y="-465.5" font-family="Helvetica,sans-Serif" font-size="10.00">MACVETH/include/MVPragma</text>
<text text-anchor="middle" x="168" y="-454.5" font-family="Helvetica,sans-Serif" font-size="10.00">Handler.h</text>
</a>
</g>
</g>
<!-- Node13&#45;&gt;Node25 -->
<g id="edge45" class="edge">
<title>Node13&#45;&gt;Node25</title>
<path fill="none" stroke="midnightblue" d="M354.98,-576.13C314.76,-551.91 232.13,-502.13 191.54,-477.68"/>
<polygon fill="midnightblue" stroke="midnightblue" points="353.19,-579.14 363.57,-581.31 356.81,-573.15 353.19,-579.14"/>
</g>
<!-- Node15 -->
<g id="node15" class="node">
<title>Node15</title>
<g id="a_node15"><a xlink:href="MVExprArray_8h.html" target="_top" xlink:title=" ">
<polygon fill="none" stroke="black" points="832,-380.5 832,-410.5 976,-410.5 976,-380.5 832,-380.5"/>
<text text-anchor="start" x="840" y="-398.5" font-family="Helvetica,sans-Serif" font-size="10.00">MACVETH/include/MVExpr</text>
<text text-anchor="middle" x="904" y="-387.5" font-family="Helvetica,sans-Serif" font-size="10.00">/MVExprArray.h</text>
</a>
</g>
</g>
<!-- Node14&#45;&gt;Node15 -->
<g id="edge19" class="edge">
<title>Node14&#45;&gt;Node15</title>
<path fill="none" stroke="midnightblue" d="M642.21,-511.51C672.43,-502.62 709.03,-490.91 741,-478 791.31,-457.68 847.37,-428.01 878.89,-410.64"/>
<polygon fill="midnightblue" stroke="midnightblue" points="640.84,-508.26 632.22,-514.42 642.8,-514.98 640.84,-508.26"/>
</g>
<!-- Node17 -->
<g id="node17" class="node">
<title>Node17</title>
<g id="a_node17"><a xlink:href="MVExprFactory_8h.html" target="_top" xlink:title=" ">
<polygon fill="none" stroke="black" points="532,-447.5 532,-477.5 676,-477.5 676,-447.5 532,-447.5"/>
<text text-anchor="start" x="540" y="-465.5" font-family="Helvetica,sans-Serif" font-size="10.00">MACVETH/include/MVExpr</text>
<text text-anchor="middle" x="604" y="-454.5" font-family="Helvetica,sans-Serif" font-size="10.00">/MVExprFactory.h</text>
</a>
</g>
</g>
<!-- Node14&#45;&gt;Node17 -->
<g id="edge23" class="edge">
<title>Node14&#45;&gt;Node17</title>
<path fill="none" stroke="midnightblue" d="M588.68,-504.99C592.07,-495.8 595.85,-485.58 598.8,-477.58"/>
<polygon fill="midnightblue" stroke="midnightblue" points="585.39,-503.8 585.21,-514.4 591.95,-506.23 585.39,-503.8"/>
</g>
<!-- Node18 -->
<g id="node18" class="node">
<title>Node18</title>
<g id="a_node18"><a xlink:href="MVExprLiteral_8h.html" target="_top" xlink:title=" ">
<polygon fill="none" stroke="black" points="670,-380.5 670,-410.5 814,-410.5 814,-380.5 670,-380.5"/>
<text text-anchor="start" x="678" y="-398.5" font-family="Helvetica,sans-Serif" font-size="10.00">MACVETH/include/MVExpr</text>
<text text-anchor="middle" x="742" y="-387.5" font-family="Helvetica,sans-Serif" font-size="10.00">/MVExprLiteral.h</text>
</a>
</g>
</g>
<!-- Node14&#45;&gt;Node18 -->
<g id="edge24" class="edge">
<title>Node14&#45;&gt;Node18</title>
<path fill="none" stroke="midnightblue" d="M661.68,-512.52C682.36,-505.03 702.94,-494.06 718,-478 735.45,-459.38 740.28,-428.71 741.57,-410.78"/>
<polygon fill="midnightblue" stroke="midnightblue" points="660.55,-509.2 652.2,-515.72 662.79,-515.84 660.55,-509.2"/>
</g>
<!-- Node19 -->
<g id="node19" class="node">
<title>Node19</title>
<g id="a_node19"><a xlink:href="Node_8h.html" target="_top" xlink:title=" ">
<polygon fill="none" stroke="black" points="571.5,-324.5 571.5,-343.5 712.5,-343.5 712.5,-324.5 571.5,-324.5"/>
<text text-anchor="middle" x="642" y="-331.5" font-family="Helvetica,sans-Serif" font-size="10.00">MACVETH/include/Node.h</text>
</a>
</g>
</g>
<!-- Node14&#45;&gt;Node19 -->
<g id="edge35" class="edge">
<title>Node14&#45;&gt;Node19</title>
<path fill="none" stroke="midnightblue" d="M646.45,-510.13C661.67,-502.68 676,-492.32 685,-478 692.33,-466.34 688.99,-460.19 685,-447 679.43,-428.6 668.78,-428.59 661,-411 650.77,-387.87 645.37,-358.23 643.19,-343.75"/>
<polygon fill="midnightblue" stroke="midnightblue" points="644.6,-507.12 636.91,-514.4 647.46,-513.51 644.6,-507.12"/>
</g>
<!-- Node22 -->
<g id="node22" class="node">
<title>Node22</title>
<g id="a_node22"><a xlink:href="MVExprVar_8h.html" target="_top" xlink:title=" ">
<polygon fill="none" stroke="black" points="470,-380.5 470,-410.5 614,-410.5 614,-380.5 470,-380.5"/>
<text text-anchor="start" x="478" y="-398.5" font-family="Helvetica,sans-Serif" font-size="10.00">MACVETH/include/MVExpr</text>
<text text-anchor="middle" x="542" y="-387.5" font-family="Helvetica,sans-Serif" font-size="10.00">/MVExprVar.h</text>
</a>
</g>
</g>
<!-- Node14&#45;&gt;Node22 -->
<g id="edge33" class="edge">
<title>Node14&#45;&gt;Node22</title>
<path fill="none" stroke="midnightblue" d="M547.87,-508.15C538,-500.08 528.34,-489.87 523,-478 512.92,-455.61 524.43,-427.26 533.42,-410.58"/>
<polygon fill="midnightblue" stroke="midnightblue" points="546.04,-511.15 556.12,-514.41 550.27,-505.57 546.04,-511.15"/>
</g>
<!-- Node14&#45;&gt;Node23 -->
<g id="edge36" class="edge">
<title>Node14&#45;&gt;Node23</title>
<path fill="none" stroke="midnightblue" d="M552.29,-508.72C526.13,-490.74 485.31,-464.43 447,-447 405.53,-428.14 355.04,-413.56 321.79,-405.02"/>
<polygon fill="midnightblue" stroke="midnightblue" points="550.36,-511.64 560.57,-514.47 554.36,-505.89 550.36,-511.64"/>
</g>
<!-- Node14&#45;&gt;Node24 -->
<g id="edge41" class="edge">
<title>Node14&#45;&gt;Node24</title>
<path fill="none" stroke="midnightblue" d="M525.11,-511.43C484.36,-498.75 430.49,-482 398.42,-472.03"/>
<polygon fill="midnightblue" stroke="midnightblue" points="524.32,-514.85 534.91,-514.48 526.4,-508.16 524.32,-514.85"/>
</g>
<!-- Node16 -->
<g id="node16" class="node">
<title>Node16</title>
<g id="a_node16"><a xlink:href="VectorIR_8h.html" target="_top" xlink:title=" ">
<polygon fill="none" stroke="black" points="619,-257.5 619,-287.5 789,-287.5 789,-257.5 619,-257.5"/>
<text text-anchor="start" x="627" y="-275.5" font-family="Helvetica,sans-Serif" font-size="10.00">MACVETH/include/Vectorization</text>
<text text-anchor="middle" x="704" y="-264.5" font-family="Helvetica,sans-Serif" font-size="10.00">/VectorIR.h</text>
</a>
</g>
</g>
<!-- Node15&#45;&gt;Node16 -->
<g id="edge20" class="edge">
<title>Node15&#45;&gt;Node16</title>
<path fill="none" stroke="midnightblue" d="M872,-375.14C831.56,-350.67 762.92,-309.15 727.19,-287.53"/>
<polygon fill="midnightblue" stroke="midnightblue" points="870.3,-378.2 880.67,-380.38 873.92,-372.21 870.3,-378.2"/>
</g>
<!-- Node16&#45;&gt;Node7 -->
<g id="edge22" class="edge">
<title>Node16&#45;&gt;Node7</title>
<path fill="none" stroke="midnightblue" d="M719.47,-249.16C726.03,-239.68 733.48,-228.92 739.25,-220.58"/>
<polygon fill="midnightblue" stroke="midnightblue" points="716.58,-247.18 713.76,-257.4 722.33,-251.17 716.58,-247.18"/>
</g>
<!-- Node16&#45;&gt;Node11 -->
<g id="edge21" class="edge">
<title>Node16&#45;&gt;Node11</title>
<path fill="none" stroke="midnightblue" d="M681.41,-249.99C672.77,-241.32 663.06,-231.01 655,-221 637.01,-198.65 619.24,-170.29 609.24,-153.6"/>
<polygon fill="midnightblue" stroke="midnightblue" points="679.08,-252.62 688.66,-257.15 684,-247.63 679.08,-252.62"/>
</g>
<!-- Node18&#45;&gt;Node19 -->
<g id="edge25" class="edge">
<title>Node18&#45;&gt;Node19</title>
<path fill="none" stroke="midnightblue" d="M709.34,-375.07C691.52,-364.46 670.33,-351.86 656.55,-343.66"/>
<polygon fill="midnightblue" stroke="midnightblue" points="707.92,-378.29 718.3,-380.4 711.5,-372.28 707.92,-378.29"/>
</g>
<!-- Node19&#45;&gt;Node16 -->
<g id="edge32" class="edge">
<title>Node19&#45;&gt;Node16</title>
<path fill="none" stroke="midnightblue" d="M658.29,-317.37C667.93,-308.11 680.05,-296.48 689.39,-287.52"/>
<polygon fill="midnightblue" stroke="midnightblue" points="655.67,-315.03 650.88,-324.48 660.52,-320.08 655.67,-315.03"/>
</g>
<!-- Node20 -->
<g id="node20" class="node">
<title>Node20</title>
<g id="a_node20"><a xlink:href="CDAG_8h.html" target="_top" xlink:title=" ">
<polygon fill="none" stroke="black" points="351,-263 351,-282 495,-282 495,-263 351,-263"/>
<text text-anchor="middle" x="423" y="-270" font-family="Helvetica,sans-Serif" font-size="10.00">MACVETH/include/CDAG.h</text>
</a>
</g>
</g>
<!-- Node19&#45;&gt;Node20 -->
<g id="edge26" class="edge">
<title>Node19&#45;&gt;Node20</title>
<path fill="none" stroke="midnightblue" d="M600.86,-321.82C558.32,-310.26 492.83,-292.47 454.32,-282.01"/>
<polygon fill="midnightblue" stroke="midnightblue" points="600.05,-325.23 610.62,-324.48 601.89,-318.48 600.05,-325.23"/>
</g>
<!-- Node21 -->
<g id="node21" class="node">
<title>Node21</title>
<g id="a_node21"><a xlink:href="PlcmntAlgo_8h.html" target="_top" xlink:title=" ">
<polygon fill="none" stroke="black" points="436.5,-196 436.5,-215 607.5,-215 607.5,-196 436.5,-196"/>
<text text-anchor="middle" x="522" y="-203" font-family="Helvetica,sans-Serif" font-size="10.00">MACVETH/include/PlcmntAlgo.h</text>
</a>
</g>
</g>
<!-- Node19&#45;&gt;Node21 -->
<g id="edge31" class="edge">
<title>Node19&#45;&gt;Node21</title>
<path fill="none" stroke="midnightblue" d="M626.66,-316.83C601,-289.78 550.23,-236.26 530.31,-215.26"/>
<polygon fill="midnightblue" stroke="midnightblue" points="624.33,-319.46 633.75,-324.31 629.41,-314.64 624.33,-319.46"/>
</g>
<!-- Node20&#45;&gt;Node7 -->
<g id="edge30" class="edge">
<title>Node20&#45;&gt;Node7</title>
<path fill="none" stroke="midnightblue" d="M475.86,-260.96C530.96,-249.98 617.59,-232.7 678.49,-220.56"/>
<polygon fill="midnightblue" stroke="midnightblue" points="475.08,-257.55 465.95,-262.94 476.45,-264.41 475.08,-257.55"/>
</g>
<!-- Node20&#45;&gt;Node8 -->
<g id="edge27" class="edge">
<title>Node20&#45;&gt;Node8</title>
<path fill="none" stroke="midnightblue" d="M424.08,-252.63C424.79,-221.67 421.65,-159.87 389,-123 369.04,-100.47 338.26,-87.98 310.63,-81.07"/>
<polygon fill="midnightblue" stroke="midnightblue" points="420.57,-252.73 423.67,-262.87 427.56,-253.01 420.57,-252.73"/>
</g>
<!-- Node20&#45;&gt;Node10 -->
<g id="edge28" class="edge">
<title>Node20&#45;&gt;Node10</title>
<path fill="none" stroke="midnightblue" d="M407.26,-255.4C379.68,-227.17 323.5,-169.69 302.33,-148.02"/>
<polygon fill="midnightblue" stroke="midnightblue" points="405.04,-258.13 414.54,-262.84 410.05,-253.24 405.04,-258.13"/>
</g>
<!-- Node20&#45;&gt;Node21 -->
<g id="edge29" class="edge">
<title>Node20&#45;&gt;Node21</title>
<path fill="none" stroke="midnightblue" d="M444.94,-257.09C464.53,-244.24 492.56,-225.83 508.86,-215.13"/>
<polygon fill="midnightblue" stroke="midnightblue" points="442.79,-254.32 436.35,-262.73 446.63,-260.17 442.79,-254.32"/>
</g>
<!-- Node22&#45;&gt;Node19 -->
<g id="edge34" class="edge">
<title>Node22&#45;&gt;Node19</title>
<path fill="none" stroke="midnightblue" d="M574.66,-375.07C592.48,-364.46 613.67,-351.86 627.45,-343.66"/>
<polygon fill="midnightblue" stroke="midnightblue" points="572.5,-372.28 565.7,-380.4 576.08,-378.29 572.5,-372.28"/>
</g>
<!-- Node23&#45;&gt;Node3 -->
<g id="edge37" class="edge">
<title>Node23&#45;&gt;Node3</title>
<path fill="none" stroke="midnightblue" d="M322.97,-382.97C375.53,-367.07 475.14,-338.69 562,-324 608.51,-316.14 952.85,-322.52 985,-288 1037.92,-231.19 1007.02,-124.89 993.42,-86.66"/>
<polygon fill="midnightblue" stroke="midnightblue" points="321.65,-379.72 313.1,-385.98 323.69,-386.41 321.65,-379.72"/>
</g>
<!-- Node23&#45;&gt;Node8 -->
<g id="edge38" class="edge">
<title>Node23&#45;&gt;Node8</title>
<path fill="none" stroke="midnightblue" d="M277.05,-376.56C258.05,-337.38 214.2,-240.72 199,-154 196.62,-140.43 193.76,-135.74 199,-123 206.42,-104.97 223.72,-89.96 235.89,-81.11"/>
<polygon fill="midnightblue" stroke="midnightblue" points="273.95,-378.21 281.5,-385.64 280.24,-375.12 273.95,-378.21"/>
</g>
<!-- Node23&#45;&gt;Node10 -->
<g id="edge39" class="edge">
<title>Node23&#45;&gt;Node10</title>
<path fill="none" stroke="midnightblue" d="M286.6,-375.43C288.21,-324.12 292.59,-184.57 293.73,-148.24"/>
<polygon fill="midnightblue" stroke="midnightblue" points="283.09,-375.62 286.28,-385.72 290.09,-375.84 283.09,-375.62"/>
</g>
<!-- Node23&#45;&gt;Node19 -->
<g id="edge40" class="edge">
<title>Node23&#45;&gt;Node19</title>
<path fill="none" stroke="midnightblue" d="M347.27,-384.26C416.16,-372.75 526.76,-354.26 591.09,-343.51"/>
<polygon fill="midnightblue" stroke="midnightblue" points="346.29,-380.87 337.01,-385.98 347.45,-387.78 346.29,-380.87"/>
</g>
<!-- Node24&#45;&gt;Node19 -->
<g id="edge43" class="edge">
<title>Node24&#45;&gt;Node19</title>
<path fill="none" stroke="midnightblue" d="M384.45,-445.21C400.67,-426.64 429.71,-396.68 461,-380 496.29,-361.19 539.65,-350.05 575.09,-343.57"/>
<polygon fill="midnightblue" stroke="midnightblue" points="381.75,-442.98 377.93,-452.86 387.08,-447.52 381.75,-442.98"/>
</g>
<!-- Node24&#45;&gt;Node20 -->
<g id="edge42" class="edge">
<title>Node24&#45;&gt;Node20</title>
<path fill="none" stroke="midnightblue" d="M376.05,-443.26C387.01,-403.6 412.68,-310.82 420.62,-282.12"/>
<polygon fill="midnightblue" stroke="midnightblue" points="372.66,-442.36 373.37,-452.93 379.41,-444.23 372.66,-442.36"/>
</g>
<!-- Node24&#45;&gt;Node23 -->
<g id="edge44" class="edge">
<title>Node24&#45;&gt;Node23</title>
<path fill="none" stroke="midnightblue" d="M351.47,-446.57C334.7,-433.74 311.09,-415.69 297.28,-405.13"/>
<polygon fill="midnightblue" stroke="midnightblue" points="349.47,-449.44 359.54,-452.73 353.72,-443.88 349.47,-449.44"/>
</g>
<!-- Node25&#45;&gt;Node8 -->
<g id="edge46" class="edge">
<title>Node25&#45;&gt;Node8</title>
<path fill="none" stroke="midnightblue" d="M156.52,-438.16C145.33,-413.24 130,-372.29 130,-335 130,-335 130,-335 130,-204.5 130,-144.18 199.4,-99.01 232.2,-81.03"/>
<polygon fill="midnightblue" stroke="midnightblue" points="153.47,-439.9 160.85,-447.5 159.81,-436.95 153.47,-439.9"/>
</g>
<!-- Node25&#45;&gt;Node9 -->
<g id="edge49" class="edge">
<title>Node25&#45;&gt;Node9</title>
<path fill="none" stroke="midnightblue" d="M145.04,-439.91C122.67,-416.44 92,-376.66 92,-335 92,-335 92,-335 92,-137.5 92,-92.64 80.17,-39.81 75.18,-19.52"/>
<polygon fill="midnightblue" stroke="midnightblue" points="142.74,-442.57 152.25,-447.23 147.72,-437.65 142.74,-442.57"/>
</g>
<!-- Node25&#45;&gt;Node10 -->
<g id="edge47" class="edge">
<title>Node25&#45;&gt;Node10</title>
<path fill="none" stroke="midnightblue" d="M172.34,-437.56C175.61,-421.15 180.63,-398.98 187,-380 218.41,-286.42 272.99,-179.54 289.28,-148.43"/>
<polygon fill="midnightblue" stroke="midnightblue" points="168.89,-436.95 170.44,-447.43 175.76,-438.27 168.89,-436.95"/>
</g>
<!-- Node25&#45;&gt;Node23 -->
<g id="edge48" class="edge">
<title>Node25&#45;&gt;Node23</title>
<path fill="none" stroke="midnightblue" d="M202.54,-442.47C225.07,-430.06 253.37,-414.47 270.56,-405.01"/>
<polygon fill="midnightblue" stroke="midnightblue" points="200.67,-439.51 193.6,-447.4 204.05,-445.64 200.67,-439.51"/>
</g>
</g>
</svg>
        <g id="navigator" transform="translate(0 0)" fill="#404254">
                <rect fill="#f2f5e9" fill-opacity="0.5" stroke="#606060" stroke-width=".5" x="0" y="0" width="60" height="60"/>
                <use id="zoomplus" xlink:href="#zoomPlus" x="17" y="9" onmousedown="handleZoom(evt,'in')"/>
                <use id="zoomminus" xlink:href="#zoomMin" x="42" y="9" onmousedown="handleZoom(evt,'out')"/>
                <use id="reset" xlink:href="#resetDef" x="30" y="36" onmousedown="handleReset()"/>
                <g id="arrowUp" xlink:href="#dirArrow" transform="translate(30 24)" onmousedown="handlePan(0,-1)">
                  <use xlink:href="#rim" fill="#404040">
                        <set attributeName="fill" to="#808080" begin="arrowUp.mouseover" end="arrowUp.mouseout"/>
                  </use>
                  <path fill="none" stroke="white" stroke-width="1.5" d="M0,-3.0v7 M-2.5,-0.5L0,-3.0L2.5,-0.5"/>
                </g>
                <g id="arrowRight" xlink:href="#dirArrow" transform="rotate(90) translate(36 -43)" onmousedown="handlePan(1,0)">
                  <use xlink:href="#rim" fill="#404040">
                        <set attributeName="fill" to="#808080" begin="arrowRight.mouseover" end="arrowRight.mouseout"/>
                  </use>
                  <path fill="none" stroke="white" stroke-width="1.5" d="M0,-3.0v7 M-2.5,-0.5L0,-3.0L2.5,-0.5"/>
                </g>
                <g id="arrowDown" xlink:href="#dirArrow" transform="rotate(180) translate(-30 -48)" onmousedown="handlePan(0,1)">
                  <use xlink:href="#rim" fill="#404040">
                        <set attributeName="fill" to="#808080" begin="arrowDown.mouseover" end="arrowDown.mouseout"/>
                  </use>
                  <path fill="none" stroke="white" stroke-width="1.5" d="M0,-3.0v7 M-2.5,-0.5L0,-3.0L2.5,-0.5"/>
                </g>
                <g id="arrowLeft" xlink:href="#dirArrow" transform="rotate(270) translate(-36 17)" onmousedown="handlePan(-1,0)">
                  <use xlink:href="#rim" fill="#404040">
                        <set attributeName="fill" to="#808080" begin="arrowLeft.mouseover" end="arrowLeft.mouseout"/>
                  </use>
                  <path fill="none" stroke="white" stroke-width="1.5" d="M0,-3.0v7 M-2.5,-0.5L0,-3.0L2.5,-0.5"/>
                </g>
        </g>
        <svg viewBox="0 0 15 15" width="100%" height="30px" preserveAspectRatio="xMaxYMin meet">
         <g id="arrow_out" transform="scale(0.3 0.3)">
          <a xlink:href="CPUID_8h__dep__incl_org.svg" target="_base">
           <rect id="button" ry="5" rx="5" y="6" x="6" height="38" width="38"
                fill="#f2f5e9" fill-opacity="0.5" stroke="#606060" stroke-width="1.0"/>
           <path id="arrow"
             d="M 11.500037,31.436501 C 11.940474,20.09759 22.043105,11.32322 32.158766,21.979434 L 37.068811,17.246167 C 37.068811,17.246167 37.088388,32 37.088388,32 L 22.160133,31.978069 C 22.160133,31.978069 26.997745,27.140456 26.997745,27.140456 C 18.528582,18.264221 13.291696,25.230495 11.500037,31.436501 z"
             style="fill:#404040;"/>
          </a>
         </g>
        </svg>
</svg>
