<?xml version="1.0" encoding="UTF-8" standalone="no"?>
<!DOCTYPE svg PUBLIC "-//W3C//DTD SVG 1.1//EN"
 "http://www.w3.org/Graphics/SVG/1.1/DTD/svg11.dtd">
<!-- Generated by graphviz version 2.43.0 (0)
 -->
<!-- Title: MACVETH/include/Debug.h Pages: 1 -->
<svg width="907pt" height="609pt"
 viewBox="0.00 0.00 907.00 609.00" xmlns="http://www.w3.org/2000/svg" xmlns:xlink="http://www.w3.org/1999/xlink">
<g id="graph0" class="graph" transform="scale(1 1) rotate(0) translate(4 605)">
<title>MACVETH/include/Debug.h</title>
<!-- Node1 -->
<g id="node1" class="node">
<title>Node1</title>
<g id="a_node1"><a xlink:title=" ">
<polygon fill="#bfbfbf" stroke="black" points="517.5,-581.5 517.5,-600.5 664.5,-600.5 664.5,-581.5 517.5,-581.5"/>
<text text-anchor="middle" x="591" y="-588.5" font-family="Helvetica,sans-Serif" font-size="10.00">MACVETH/include/Debug.h</text>
</a>
</g>
</g>
<!-- Node2 -->
<g id="node2" class="node">
<title>Node2</title>
<g id="a_node2"><a xlink:href="MVExpr_8h.html" target="_top" xlink:title=" ">
<polygon fill="none" stroke="black" points="403,-514.5 403,-544.5 547,-544.5 547,-514.5 403,-514.5"/>
<text text-anchor="start" x="411" y="-532.5" font-family="Helvetica,sans-Serif" font-size="10.00">MACVETH/include/MVExpr</text>
<text text-anchor="middle" x="475" y="-521.5" font-family="Helvetica,sans-Serif" font-size="10.00">/MVExpr.h</text>
</a>
</g>
</g>
<!-- Node1&#45;&gt;Node2 -->
<g id="edge1" class="edge">
<title>Node1&#45;&gt;Node2</title>
<path fill="none" stroke="midnightblue" d="M565.28,-576.81C546.6,-567.23 521.38,-554.29 502.34,-544.52"/>
<polygon fill="midnightblue" stroke="midnightblue" points="563.88,-580.03 574.38,-581.48 567.08,-573.8 563.88,-580.03"/>
</g>
<!-- Node20 -->
<g id="node20" class="node">
<title>Node20</title>
<g id="a_node20"><a xlink:href="TAC_8h.html" target="_top" xlink:title=" ">
<polygon fill="none" stroke="black" points="524,-453 524,-472 658,-472 658,-453 524,-453"/>
<text text-anchor="middle" x="591" y="-460" font-family="Helvetica,sans-Serif" font-size="10.00">MACVETH/include/TAC.h</text>
</a>
</g>
</g>
<!-- Node1&#45;&gt;Node20 -->
<g id="edge43" class="edge">
<title>Node1&#45;&gt;Node20</title>
<path fill="none" stroke="midnightblue" d="M591,-570.94C591,-543.12 591,-492.54 591,-472.26"/>
<polygon fill="midnightblue" stroke="midnightblue" points="587.5,-571.31 591,-581.31 594.5,-571.31 587.5,-571.31"/>
</g>
<!-- Node21 -->
<g id="node21" class="node">
<title>Node21</title>
<g id="a_node21"><a xlink:href="MVPragmaHandler_8h.html" target="_top" xlink:title=" ">
<polygon fill="none" stroke="black" points="728,-447.5 728,-477.5 888,-477.5 888,-447.5 728,-447.5"/>
<text text-anchor="start" x="736" y="-465.5" font-family="Helvetica,sans-Serif" font-size="10.00">MACVETH/include/MVPragma</text>
<text text-anchor="middle" x="808" y="-454.5" font-family="Helvetica,sans-Serif" font-size="10.00">Handler.h</text>
</a>
</g>
</g>
<!-- Node1&#45;&gt;Node21 -->
<g id="edge38" class="edge">
<title>Node1&#45;&gt;Node21</title>
<path fill="none" stroke="midnightblue" d="M614.79,-576.13C656.35,-551.91 741.74,-502.13 783.67,-477.68"/>
<polygon fill="midnightblue" stroke="midnightblue" points="612.79,-573.25 605.92,-581.31 616.32,-579.29 612.79,-573.25"/>
</g>
<!-- Node3 -->
<g id="node3" class="node">
<title>Node3</title>
<g id="a_node3"><a xlink:href="MVExprArray_8h.html" target="_top" xlink:title=" ">
<polygon fill="none" stroke="black" points="0,-380.5 0,-410.5 144,-410.5 144,-380.5 0,-380.5"/>
<text text-anchor="start" x="8" y="-398.5" font-family="Helvetica,sans-Serif" font-size="10.00">MACVETH/include/MVExpr</text>
<text text-anchor="middle" x="72" y="-387.5" font-family="Helvetica,sans-Serif" font-size="10.00">/MVExprArray.h</text>
</a>
</g>
</g>
<!-- Node2&#45;&gt;Node3 -->
<g id="edge2" class="edge">
<title>Node2&#45;&gt;Node3</title>
<path fill="none" stroke="midnightblue" d="M441.71,-509.12C427.24,-500.22 410.36,-489.18 396,-478 380.12,-465.64 381.01,-455.97 363,-447 278.23,-404.79 246.27,-427.34 153,-411 150.19,-410.51 147.32,-410 144.42,-409.49"/>
<polygon fill="midnightblue" stroke="midnightblue" points="439.99,-512.17 450.36,-514.37 443.62,-506.19 439.99,-512.17"/>
</g>
<!-- Node13 -->
<g id="node13" class="node">
<title>Node13</title>
<g id="a_node13"><a xlink:href="MVExprFactory_8h.html" target="_top" xlink:title=" ">
<polygon fill="none" stroke="black" points="210,-447.5 210,-477.5 354,-477.5 354,-447.5 210,-447.5"/>
<text text-anchor="start" x="218" y="-465.5" font-family="Helvetica,sans-Serif" font-size="10.00">MACVETH/include/MVExpr</text>
<text text-anchor="middle" x="282" y="-454.5" font-family="Helvetica,sans-Serif" font-size="10.00">/MVExprFactory.h</text>
</a>
</g>
</g>
<!-- Node2&#45;&gt;Node13 -->
<g id="edge16" class="edge">
<title>Node2&#45;&gt;Node13</title>
<path fill="none" stroke="midnightblue" d="M423.31,-511.09C392.16,-500.6 352.99,-487.41 323.8,-477.58"/>
<polygon fill="midnightblue" stroke="midnightblue" points="422.53,-514.52 433.12,-514.4 424.76,-507.89 422.53,-514.52"/>
</g>
<!-- Node14 -->
<g id="node14" class="node">
<title>Node14</title>
<g id="a_node14"><a xlink:href="MVExprLiteral_8h.html" target="_top" xlink:title=" ">
<polygon fill="none" stroke="black" points="324,-380.5 324,-410.5 468,-410.5 468,-380.5 324,-380.5"/>
<text text-anchor="start" x="332" y="-398.5" font-family="Helvetica,sans-Serif" font-size="10.00">MACVETH/include/MVExpr</text>
<text text-anchor="middle" x="396" y="-387.5" font-family="Helvetica,sans-Serif" font-size="10.00">/MVExprLiteral.h</text>
</a>
</g>
</g>
<!-- Node2&#45;&gt;Node14 -->
<g id="edge17" class="edge">
<title>Node2&#45;&gt;Node14</title>
<path fill="none" stroke="midnightblue" d="M464.43,-504.76C456.72,-488.16 445.62,-465.72 434,-447 426.01,-434.14 415.6,-420.47 407.69,-410.6"/>
<polygon fill="midnightblue" stroke="midnightblue" points="461.43,-506.6 468.77,-514.24 467.8,-503.69 461.43,-506.6"/>
</g>
<!-- Node15 -->
<g id="node15" class="node">
<title>Node15</title>
<g id="a_node15"><a xlink:href="Node_8h.html" target="_top" xlink:title=" ">
<polygon fill="none" stroke="black" points="375.5,-324.5 375.5,-343.5 516.5,-343.5 516.5,-324.5 375.5,-324.5"/>
<text text-anchor="middle" x="446" y="-331.5" font-family="Helvetica,sans-Serif" font-size="10.00">MACVETH/include/Node.h</text>
</a>
</g>
</g>
<!-- Node2&#45;&gt;Node15 -->
<g id="edge28" class="edge">
<title>Node2&#45;&gt;Node15</title>
<path fill="none" stroke="midnightblue" d="M479.85,-504.18C484.81,-474.21 490.1,-422.1 477,-380 472.6,-365.87 462.05,-352.25 454.48,-343.77"/>
<polygon fill="midnightblue" stroke="midnightblue" points="476.38,-503.7 478.07,-514.16 483.27,-504.93 476.38,-503.7"/>
</g>
<!-- Node18 -->
<g id="node18" class="node">
<title>Node18</title>
<g id="a_node18"><a xlink:href="MVExprVar_8h.html" target="_top" xlink:title=" ">
<polygon fill="none" stroke="black" points="162,-380.5 162,-410.5 306,-410.5 306,-380.5 162,-380.5"/>
<text text-anchor="start" x="170" y="-398.5" font-family="Helvetica,sans-Serif" font-size="10.00">MACVETH/include/MVExpr</text>
<text text-anchor="middle" x="234" y="-387.5" font-family="Helvetica,sans-Serif" font-size="10.00">/MVExprVar.h</text>
</a>
</g>
</g>
<!-- Node2&#45;&gt;Node18 -->
<g id="edge26" class="edge">
<title>Node2&#45;&gt;Node18</title>
<path fill="none" stroke="midnightblue" d="M458.4,-505.95C443.83,-487.65 421.1,-462.44 396,-447 368.53,-430.1 334.92,-418.41 305.45,-410.58"/>
<polygon fill="midnightblue" stroke="midnightblue" points="455.97,-508.54 464.86,-514.3 461.51,-504.25 455.97,-508.54"/>
</g>
<!-- Node19 -->
<g id="node19" class="node">
<title>Node19</title>
<g id="a_node19"><a xlink:href="StmtWrapper_8h.html" target="_top" xlink:title=" ">
<polygon fill="none" stroke="black" points="600.5,-386 600.5,-405 779.5,-405 779.5,-386 600.5,-386"/>
<text text-anchor="middle" x="690" y="-393" font-family="Helvetica,sans-Serif" font-size="10.00">MACVETH/include/StmtWrapper.h</text>
</a>
</g>
</g>
<!-- Node2&#45;&gt;Node19 -->
<g id="edge29" class="edge">
<title>Node2&#45;&gt;Node19</title>
<path fill="none" stroke="midnightblue" d="M557.42,-525.07C595.29,-519.35 638.11,-506.38 667,-478 687.35,-458.01 690.06,-421.51 690.19,-405.01"/>
<polygon fill="midnightblue" stroke="midnightblue" points="556.83,-521.62 547.39,-526.44 557.78,-528.55 556.83,-521.62"/>
</g>
<!-- Node2&#45;&gt;Node20 -->
<g id="edge34" class="edge">
<title>Node2&#45;&gt;Node20</title>
<path fill="none" stroke="midnightblue" d="M508.96,-509.47C531.1,-497.06 558.93,-481.47 575.82,-472.01"/>
<polygon fill="midnightblue" stroke="midnightblue" points="507.18,-506.45 500.17,-514.4 510.6,-512.56 507.18,-506.45"/>
</g>
<!-- Node4 -->
<g id="node4" class="node">
<title>Node4</title>
<g id="a_node4"><a xlink:href="VectorIR_8h.html" target="_top" xlink:title=" ">
<polygon fill="none" stroke="black" points="95,-257.5 95,-287.5 265,-287.5 265,-257.5 95,-257.5"/>
<text text-anchor="start" x="103" y="-275.5" font-family="Helvetica,sans-Serif" font-size="10.00">MACVETH/include/Vectorization</text>
<text text-anchor="middle" x="180" y="-264.5" font-family="Helvetica,sans-Serif" font-size="10.00">/VectorIR.h</text>
</a>
</g>
</g>
<!-- Node3&#45;&gt;Node4 -->
<g id="edge3" class="edge">
<title>Node3&#45;&gt;Node4</title>
<path fill="none" stroke="midnightblue" d="M91.72,-372.4C113.69,-347.8 148.54,-308.75 167.2,-287.84"/>
<polygon fill="midnightblue" stroke="midnightblue" points="88.86,-370.35 84.81,-380.14 94.08,-375.01 88.86,-370.35"/>
</g>
<!-- Node5 -->
<g id="node5" class="node">
<title>Node5</title>
<g id="a_node5"><a xlink:href="AVX2BackEnd_8h.html" target="_top" xlink:title=" ">
<polygon fill="none" stroke="black" points="39,-123.5 39,-153.5 209,-153.5 209,-123.5 39,-123.5"/>
<text text-anchor="start" x="47" y="-141.5" font-family="Helvetica,sans-Serif" font-size="10.00">MACVETH/include/Vectorization</text>
<text text-anchor="middle" x="124" y="-130.5" font-family="Helvetica,sans-Serif" font-size="10.00">/SIMD/AVX2/AVX2BackEnd.h</text>
</a>
</g>
</g>
<!-- Node4&#45;&gt;Node5 -->
<g id="edge4" class="edge">
<title>Node4&#45;&gt;Node5</title>
<path fill="none" stroke="midnightblue" d="M160.97,-249.6C154.44,-241.14 147.63,-231.07 143,-221 132.75,-198.69 127.75,-170.32 125.54,-153.61"/>
<polygon fill="midnightblue" stroke="midnightblue" points="158.3,-251.87 167.3,-257.47 163.76,-247.48 158.3,-251.87"/>
</g>
<!-- Node7 -->
<g id="node7" class="node">
<title>Node7</title>
<g id="a_node7"><a xlink:href="SIMDBackEnd_8h.html" target="_top" xlink:title=" ">
<polygon fill="none" stroke="black" points="152,-190.5 152,-220.5 322,-220.5 322,-190.5 152,-190.5"/>
<text text-anchor="start" x="160" y="-208.5" font-family="Helvetica,sans-Serif" font-size="10.00">MACVETH/include/Vectorization</text>
<text text-anchor="middle" x="237" y="-197.5" font-family="Helvetica,sans-Serif" font-size="10.00">/SIMD/SIMDBackEnd.h</text>
</a>
</g>
</g>
<!-- Node4&#45;&gt;Node7 -->
<g id="edge6" class="edge">
<title>Node4&#45;&gt;Node7</title>
<path fill="none" stroke="midnightblue" d="M199.09,-249.74C207.52,-240.12 217.19,-229.09 224.66,-220.58"/>
<polygon fill="midnightblue" stroke="midnightblue" points="196.33,-247.57 192.37,-257.4 201.59,-252.18 196.33,-247.57"/>
</g>
<!-- Node6 -->
<g id="node6" class="node">
<title>Node6</title>
<g id="a_node6"><a xlink:href="SIMDBackEndFactory_8h.html" target="_top" xlink:title=" ">
<polygon fill="none" stroke="black" points="96,-56.5 96,-86.5 266,-86.5 266,-56.5 96,-56.5"/>
<text text-anchor="start" x="104" y="-74.5" font-family="Helvetica,sans-Serif" font-size="10.00">MACVETH/include/Vectorization</text>
<text text-anchor="middle" x="181" y="-63.5" font-family="Helvetica,sans-Serif" font-size="10.00">/SIMD/SIMDBackEndFactory.h</text>
</a>
</g>
</g>
<!-- Node5&#45;&gt;Node6 -->
<g id="edge5" class="edge">
<title>Node5&#45;&gt;Node6</title>
<path fill="none" stroke="midnightblue" d="M143.09,-115.74C151.52,-106.12 161.19,-95.09 168.66,-86.58"/>
<polygon fill="midnightblue" stroke="midnightblue" points="140.33,-113.57 136.37,-123.4 145.59,-118.18 140.33,-113.57"/>
</g>
<!-- Node7&#45;&gt;Node5 -->
<g id="edge14" class="edge">
<title>Node7&#45;&gt;Node5</title>
<path fill="none" stroke="midnightblue" d="M203.61,-185.3C185.93,-175.12 164.6,-162.85 148.47,-153.58"/>
<polygon fill="midnightblue" stroke="midnightblue" points="202.07,-188.44 212.48,-190.4 205.56,-182.38 202.07,-188.44"/>
</g>
<!-- Node7&#45;&gt;Node6 -->
<g id="edge15" class="edge">
<title>Node7&#45;&gt;Node6</title>
<path fill="none" stroke="midnightblue" d="M233.98,-180.36C231.28,-163.68 226.41,-141.3 218,-123 211.83,-109.57 201.77,-96.16 193.7,-86.53"/>
<polygon fill="midnightblue" stroke="midnightblue" points="230.54,-181.01 235.46,-190.39 237.47,-179.99 230.54,-181.01"/>
</g>
<!-- Node8 -->
<g id="node8" class="node">
<title>Node8</title>
<g id="a_node8"><a xlink:href="MVCostModel_8h.html" target="_top" xlink:title=" ">
<polygon fill="none" stroke="black" points="372,-56.5 372,-86.5 530,-86.5 530,-56.5 372,-56.5"/>
<text text-anchor="start" x="380" y="-74.5" font-family="Helvetica,sans-Serif" font-size="10.00">MACVETH/include/CostModel</text>
<text text-anchor="middle" x="451" y="-63.5" font-family="Helvetica,sans-Serif" font-size="10.00">/MVCostModel.h</text>
</a>
</g>
</g>
<!-- Node7&#45;&gt;Node8 -->
<g id="edge7" class="edge">
<title>Node7&#45;&gt;Node8</title>
<path fill="none" stroke="midnightblue" d="M332.32,-189.38C374.34,-180.84 417.47,-168.89 432,-154 449.66,-135.91 452.09,-104.76 451.84,-86.66"/>
<polygon fill="midnightblue" stroke="midnightblue" points="331.38,-185.99 322.25,-191.36 332.74,-192.86 331.38,-185.99"/>
</g>
<!-- Node9 -->
<g id="node9" class="node">
<title>Node9</title>
<g id="a_node9"><a xlink:href="SIMDCostInfo_8h.html" target="_top" xlink:title=" ">
<polygon fill="none" stroke="black" points="265,-123.5 265,-153.5 423,-153.5 423,-123.5 265,-123.5"/>
<text text-anchor="start" x="273" y="-141.5" font-family="Helvetica,sans-Serif" font-size="10.00">MACVETH/include/CostModel</text>
<text text-anchor="middle" x="344" y="-130.5" font-family="Helvetica,sans-Serif" font-size="10.00">/SIMDCostInfo.h</text>
</a>
</g>
</g>
<!-- Node7&#45;&gt;Node9 -->
<g id="edge8" class="edge">
<title>Node7&#45;&gt;Node9</title>
<path fill="none" stroke="midnightblue" d="M269.08,-185.02C285.73,-174.9 305.69,-162.77 320.83,-153.58"/>
<polygon fill="midnightblue" stroke="midnightblue" points="266.95,-182.21 260.22,-190.4 270.58,-188.2 266.95,-182.21"/>
</g>
<!-- Node10 -->
<g id="node10" class="node">
<title>Node10</title>
<g id="a_node10"><a xlink:href="MVFrontend_8h.html" target="_top" xlink:title=" ">
<polygon fill="none" stroke="black" points="643,-62 643,-81 817,-81 817,-62 643,-62"/>
<text text-anchor="middle" x="730" y="-69" font-family="Helvetica,sans-Serif" font-size="10.00">MACVETH/include/MVFrontend.h</text>
</a>
</g>
</g>
<!-- Node7&#45;&gt;Node10 -->
<g id="edge10" class="edge">
<title>Node7&#45;&gt;Node10</title>
<path fill="none" stroke="midnightblue" d="M321.81,-188.42C362.29,-179.82 411.14,-168.09 454,-154 487.1,-143.12 492.98,-134.11 526,-123 580.46,-104.67 645.13,-89.78 686.83,-81.04"/>
<polygon fill="midnightblue" stroke="midnightblue" points="321.04,-185.01 311.97,-190.49 322.48,-191.86 321.04,-185.01"/>
</g>
<!-- Node12 -->
<g id="node12" class="node">
<title>Node12</title>
<g id="a_node12"><a xlink:href="MVRewriter_8h.html" target="_top" xlink:title=" ">
<polygon fill="none" stroke="black" points="606,-129 606,-148 778,-148 778,-129 606,-129"/>
<text text-anchor="middle" x="692" y="-136" font-family="Helvetica,sans-Serif" font-size="10.00">MACVETH/include/MVRewriter.h</text>
</a>
</g>
</g>
<!-- Node7&#45;&gt;Node12 -->
<g id="edge12" class="edge">
<title>Node7&#45;&gt;Node12</title>
<path fill="none" stroke="midnightblue" d="M332.03,-189.86C442.48,-173.67 559.07,-157.58 629.03,-148.04"/>
<polygon fill="midnightblue" stroke="midnightblue" points="331.43,-186.41 322.05,-191.33 332.45,-193.34 331.43,-186.41"/>
</g>
<!-- Node9&#45;&gt;Node8 -->
<g id="edge9" class="edge">
<title>Node9&#45;&gt;Node8</title>
<path fill="none" stroke="midnightblue" d="M376.08,-118.02C392.73,-107.9 412.69,-95.77 427.83,-86.58"/>
<polygon fill="midnightblue" stroke="midnightblue" points="373.95,-115.21 367.22,-123.4 377.58,-121.2 373.95,-115.21"/>
</g>
<!-- Node11 -->
<g id="node11" class="node">
<title>Node11</title>
<g id="a_node11"><a xlink:href="macveth_8cpp.html" target="_top" xlink:title=" ">
<polygon fill="none" stroke="black" points="753,-0.5 753,-19.5 899,-19.5 899,-0.5 753,-0.5"/>
<text text-anchor="middle" x="826" y="-7.5" font-family="Helvetica,sans-Serif" font-size="10.00">MACVETH/lib/macveth.cpp</text>
</a>
</g>
</g>
<!-- Node10&#45;&gt;Node11 -->
<g id="edge11" class="edge">
<title>Node10&#45;&gt;Node11</title>
<path fill="none" stroke="midnightblue" d="M752.45,-56.59C770.97,-45.1 796.67,-29.18 812.27,-19.51"/>
<polygon fill="midnightblue" stroke="midnightblue" points="750.41,-53.73 743.75,-61.98 754.1,-59.68 750.41,-53.73"/>
</g>
<!-- Node12&#45;&gt;Node10 -->
<g id="edge13" class="edge">
<title>Node12&#45;&gt;Node10</title>
<path fill="none" stroke="midnightblue" d="M702.21,-120.03C709.57,-107.45 719.18,-91.01 724.96,-81.13"/>
<polygon fill="midnightblue" stroke="midnightblue" points="699.15,-118.33 697.12,-128.73 705.19,-121.87 699.15,-118.33"/>
</g>
<!-- Node14&#45;&gt;Node15 -->
<g id="edge18" class="edge">
<title>Node14&#45;&gt;Node15</title>
<path fill="none" stroke="midnightblue" d="M414.32,-372.7C422.78,-362.64 432.34,-351.26 438.72,-343.66"/>
<polygon fill="midnightblue" stroke="midnightblue" points="411.6,-370.49 407.85,-380.4 416.96,-375 411.6,-370.49"/>
</g>
<!-- Node15&#45;&gt;Node4 -->
<g id="edge25" class="edge">
<title>Node15&#45;&gt;Node4</title>
<path fill="none" stroke="midnightblue" d="M398.13,-322.29C354.66,-312.57 290.26,-298.16 242.69,-287.52"/>
<polygon fill="midnightblue" stroke="midnightblue" points="397.37,-325.71 407.89,-324.48 398.89,-318.88 397.37,-325.71"/>
</g>
<!-- Node16 -->
<g id="node16" class="node">
<title>Node16</title>
<g id="a_node16"><a xlink:href="CDAG_8h.html" target="_top" xlink:title=" ">
<polygon fill="none" stroke="black" points="444,-263 444,-282 588,-282 588,-263 444,-263"/>
<text text-anchor="middle" x="516" y="-270" font-family="Helvetica,sans-Serif" font-size="10.00">MACVETH/include/CDAG.h</text>
</a>
</g>
</g>
<!-- Node15&#45;&gt;Node16 -->
<g id="edge19" class="edge">
<title>Node15&#45;&gt;Node16</title>
<path fill="none" stroke="midnightblue" d="M463.68,-317.97C477.07,-306.59 494.98,-291.37 505.99,-282.01"/>
<polygon fill="midnightblue" stroke="midnightblue" points="461.38,-315.33 456.03,-324.48 465.92,-320.67 461.38,-315.33"/>
</g>
<!-- Node17 -->
<g id="node17" class="node">
<title>Node17</title>
<g id="a_node17"><a xlink:href="PlcmntAlgo_8h.html" target="_top" xlink:title=" ">
<polygon fill="none" stroke="black" points="340.5,-196 340.5,-215 511.5,-215 511.5,-196 340.5,-196"/>
<text text-anchor="middle" x="426" y="-203" font-family="Helvetica,sans-Serif" font-size="10.00">MACVETH/include/PlcmntAlgo.h</text>
</a>
</g>
</g>
<!-- Node15&#45;&gt;Node17 -->
<g id="edge24" class="edge">
<title>Node15&#45;&gt;Node17</title>
<path fill="none" stroke="midnightblue" d="M440.93,-314.59C438.84,-306.48 436.56,-296.82 435,-288 430.34,-261.65 427.67,-230.05 426.58,-215.12"/>
<polygon fill="midnightblue" stroke="midnightblue" points="437.6,-315.68 443.56,-324.44 444.36,-313.88 437.6,-315.68"/>
</g>
<!-- Node16&#45;&gt;Node7 -->
<g id="edge23" class="edge">
<title>Node16&#45;&gt;Node7</title>
<path fill="none" stroke="midnightblue" d="M469.28,-260.62C422.07,-249.62 348.92,-232.58 297.35,-220.56"/>
<polygon fill="midnightblue" stroke="midnightblue" points="468.71,-264.08 479.24,-262.94 470.29,-257.26 468.71,-264.08"/>
</g>
<!-- Node16&#45;&gt;Node10 -->
<g id="edge20" class="edge">
<title>Node16&#45;&gt;Node10</title>
<path fill="none" stroke="midnightblue" d="M521.46,-252.83C531.46,-221.72 555.6,-159.1 597,-123 622.04,-101.17 657.48,-88.34 685.48,-81.07"/>
<polygon fill="midnightblue" stroke="midnightblue" points="518,-252.18 518.4,-262.77 524.69,-254.23 518,-252.18"/>
</g>
<!-- Node16&#45;&gt;Node12 -->
<g id="edge21" class="edge">
<title>Node16&#45;&gt;Node12</title>
<path fill="none" stroke="midnightblue" d="M535.57,-256.82C572.46,-229.15 651.25,-170.06 680.64,-148.02"/>
<polygon fill="midnightblue" stroke="midnightblue" points="533.45,-254.04 527.55,-262.84 537.65,-259.64 533.45,-254.04"/>
</g>
<!-- Node16&#45;&gt;Node17 -->
<g id="edge22" class="edge">
<title>Node16&#45;&gt;Node17</title>
<path fill="none" stroke="midnightblue" d="M495.32,-256.57C477.56,-243.74 452.56,-225.69 437.95,-215.13"/>
<polygon fill="midnightblue" stroke="midnightblue" points="493.71,-259.72 503.86,-262.73 497.8,-254.04 493.71,-259.72"/>
</g>
<!-- Node18&#45;&gt;Node15 -->
<g id="edge27" class="edge">
<title>Node18&#45;&gt;Node15</title>
<path fill="none" stroke="midnightblue" d="M293.82,-377.71C333.55,-366.56 384.04,-352.39 415.69,-343.51"/>
<polygon fill="midnightblue" stroke="midnightblue" points="292.65,-374.4 283.97,-380.47 294.55,-381.14 292.65,-374.4"/>
</g>
<!-- Node19&#45;&gt;Node8 -->
<g id="edge30" class="edge">
<title>Node19&#45;&gt;Node8</title>
<path fill="none" stroke="midnightblue" d="M679.11,-377.53C662.14,-351.29 628.09,-299.45 597,-257 549.22,-191.75 488.01,-117.06 462.73,-86.57"/>
<polygon fill="midnightblue" stroke="midnightblue" points="676.19,-379.47 684.55,-385.98 682.08,-375.68 676.19,-379.47"/>
</g>
<!-- Node19&#45;&gt;Node10 -->
<g id="edge31" class="edge">
<title>Node19&#45;&gt;Node10</title>
<path fill="none" stroke="midnightblue" d="M699.98,-376.7C721.14,-337.79 769.99,-241.63 787,-154 789.62,-140.47 792.65,-135.56 787,-123 778.59,-104.31 759.47,-89.74 745.69,-81.15"/>
<polygon fill="midnightblue" stroke="midnightblue" points="696.77,-375.27 695.01,-385.71 702.9,-378.64 696.77,-375.27"/>
</g>
<!-- Node19&#45;&gt;Node12 -->
<g id="edge32" class="edge">
<title>Node19&#45;&gt;Node12</title>
<path fill="none" stroke="midnightblue" d="M690.15,-375.43C690.55,-324.12 691.65,-184.57 691.93,-148.24"/>
<polygon fill="midnightblue" stroke="midnightblue" points="686.65,-375.7 690.07,-385.72 693.65,-375.75 686.65,-375.7"/>
</g>
<!-- Node19&#45;&gt;Node15 -->
<g id="edge33" class="edge">
<title>Node19&#45;&gt;Node15</title>
<path fill="none" stroke="midnightblue" d="M645.06,-383.54C597.69,-371.99 524.08,-354.04 480.89,-343.51"/>
<polygon fill="midnightblue" stroke="midnightblue" points="644.5,-387.01 655.04,-385.98 646.15,-380.21 644.5,-387.01"/>
</g>
<!-- Node20&#45;&gt;Node15 -->
<g id="edge36" class="edge">
<title>Node20&#45;&gt;Node15</title>
<path fill="none" stroke="midnightblue" d="M576.62,-445.44C560.99,-428.37 534.9,-401 510,-380 493.59,-366.16 473.06,-352.27 459.74,-343.65"/>
<polygon fill="midnightblue" stroke="midnightblue" points="574.09,-447.86 583.4,-452.91 579.28,-443.16 574.09,-447.86"/>
</g>
<!-- Node20&#45;&gt;Node16 -->
<g id="edge35" class="edge">
<title>Node20&#45;&gt;Node16</title>
<path fill="none" stroke="midnightblue" d="M583.82,-443.51C568.06,-404 530.91,-310.88 519.44,-282.12"/>
<polygon fill="midnightblue" stroke="midnightblue" points="580.63,-444.94 587.58,-452.93 587.13,-442.35 580.63,-444.94"/>
</g>
<!-- Node20&#45;&gt;Node19 -->
<g id="edge37" class="edge">
<title>Node20&#45;&gt;Node19</title>
<path fill="none" stroke="midnightblue" d="M612.94,-447.09C632.53,-434.24 660.56,-415.83 676.86,-405.13"/>
<polygon fill="midnightblue" stroke="midnightblue" points="610.79,-444.32 604.35,-452.73 614.63,-450.17 610.79,-444.32"/>
</g>
<!-- Node21&#45;&gt;Node10 -->
<g id="edge39" class="edge">
<title>Node21&#45;&gt;Node10</title>
<path fill="none" stroke="midnightblue" d="M819.48,-438.16C830.67,-413.24 846,-372.29 846,-335 846,-335 846,-335 846,-204.5 846,-145.01 778.7,-99.56 746.62,-81.28"/>
<polygon fill="midnightblue" stroke="midnightblue" points="816.19,-436.95 815.15,-447.5 822.53,-439.9 816.19,-436.95"/>
</g>
<!-- Node21&#45;&gt;Node11 -->
<g id="edge42" class="edge">
<title>Node21&#45;&gt;Node11</title>
<path fill="none" stroke="midnightblue" d="M830.96,-439.91C853.33,-416.44 884,-376.66 884,-335 884,-335 884,-335 884,-137.5 884,-89.18 848.6,-39.15 833.11,-19.57"/>
<polygon fill="midnightblue" stroke="midnightblue" points="828.28,-437.65 823.75,-447.23 833.26,-442.57 828.28,-437.65"/>
</g>
<!-- Node21&#45;&gt;Node12 -->
<g id="edge40" class="edge">
<title>Node21&#45;&gt;Node12</title>
<path fill="none" stroke="midnightblue" d="M808,-437.26C808,-411.8 808,-370.58 808,-335 808,-335 808,-335 808,-271.5 808,-212.01 740.7,-166.56 708.62,-148.28"/>
<polygon fill="midnightblue" stroke="midnightblue" points="804.5,-437.46 808,-447.46 811.5,-437.46 804.5,-437.46"/>
</g>
<!-- Node21&#45;&gt;Node19 -->
<g id="edge41" class="edge">
<title>Node21&#45;&gt;Node19</title>
<path fill="none" stroke="midnightblue" d="M773.46,-442.47C750.93,-430.06 722.63,-414.47 705.44,-405.01"/>
<polygon fill="midnightblue" stroke="midnightblue" points="771.95,-445.64 782.4,-447.4 775.33,-439.51 771.95,-445.64"/>
</g>
</g>
</svg>
