<?xml version="1.0" encoding="UTF-8" standalone="no"?>
<!DOCTYPE svg PUBLIC "-//W3C//DTD SVG 1.1//EN"
 "http://www.w3.org/Graphics/SVG/1.1/DTD/svg11.dtd">
<!-- Generated by graphviz version 2.43.0 (0)
 -->
<!-- Title: MACVETH/include/Debug.h Pages: 1 -->
<svg width="863pt" height="252pt"
 viewBox="0.00 0.00 862.66 252.00" xmlns="http://www.w3.org/2000/svg" xmlns:xlink="http://www.w3.org/1999/xlink">
<g id="graph0" class="graph" transform="scale(1 1) rotate(0) translate(4 248)">
<title>MACVETH/include/Debug.h</title>
<!-- Node1 -->
<g id="node1" class="node">
<title>Node1</title>
<g id="a_node1"><a xlink:title=" ">
<polygon fill="#bfbfbf" stroke="black" points="339.66,-224.5 339.66,-243.5 486.66,-243.5 486.66,-224.5 339.66,-224.5"/>
<text text-anchor="middle" x="413.16" y="-231.5" font-family="Helvetica,sans-Serif" font-size="10.00">MACVETH/include/Debug.h</text>
</a>
</g>
</g>
<!-- Node2 -->
<g id="node2" class="node">
<title>Node2</title>
<g id="a_node2"><a xlink:href="Utils_8h.html" target="_top" xlink:title=" ">
<polygon fill="none" stroke="black" points="370.16,-168.5 370.16,-187.5 456.16,-187.5 456.16,-168.5 370.16,-168.5"/>
<text text-anchor="middle" x="413.16" y="-175.5" font-family="Helvetica,sans-Serif" font-size="10.00">include/Utils.h</text>
</a>
</g>
</g>
<!-- Node1&#45;&gt;Node2 -->
<g id="edge1" class="edge">
<title>Node1&#45;&gt;Node2</title>
<path fill="none" stroke="midnightblue" d="M413.16,-224.08C413.16,-217.01 413.16,-206.86 413.16,-197.99"/>
<polygon fill="midnightblue" stroke="midnightblue" points="416.66,-197.75 413.16,-187.75 409.66,-197.75 416.66,-197.75"/>
</g>
<!-- Node3 -->
<g id="node3" class="node">
<title>Node3</title>
<g id="a_node3"><a xlink:href="MVOptions_8h.html" target="_top" xlink:title=" ">
<polygon fill="none" stroke="black" points="92.66,-112.5 92.66,-131.5 209.66,-131.5 209.66,-112.5 92.66,-112.5"/>
<text text-anchor="middle" x="151.16" y="-119.5" font-family="Helvetica,sans-Serif" font-size="10.00">include/MVOptions.h</text>
</a>
</g>
</g>
<!-- Node2&#45;&gt;Node3 -->
<g id="edge2" class="edge">
<title>Node2&#45;&gt;Node3</title>
<path fill="none" stroke="midnightblue" d="M371.65,-168.44C325.75,-158.98 251.78,-143.74 202.33,-133.55"/>
<polygon fill="midnightblue" stroke="midnightblue" points="202.98,-130.11 192.48,-131.52 201.57,-136.96 202.98,-130.11"/>
</g>
<!-- Node6 -->
<g id="node6" class="node">
<title>Node6</title>
<g id="a_node6"><a xlink:title=" ">
<polygon fill="none" stroke="#bfbfbf" points="25.16,-0.5 25.16,-19.5 85.16,-19.5 85.16,-0.5 25.16,-0.5"/>
<text text-anchor="middle" x="55.16" y="-7.5" font-family="Helvetica,sans-Serif" font-size="10.00">iostream</text>
</a>
</g>
</g>
<!-- Node2&#45;&gt;Node6 -->
<g id="edge18" class="edge">
<title>Node2&#45;&gt;Node6</title>
<path fill="none" stroke="midnightblue" d="M370.15,-177.5C305.57,-176.87 180.75,-170.2 83.16,-132 42.75,-116.18 23.2,-114.5 3.16,-76 -6.88,-56.72 12.82,-37.66 30.79,-25.22"/>
<polygon fill="midnightblue" stroke="midnightblue" points="32.85,-28.05 39.33,-19.67 29.04,-22.18 32.85,-28.05"/>
</g>
<!-- Node12 -->
<g id="node12" class="node">
<title>Node12</title>
<g id="a_node12"><a xlink:title=" ">
<polygon fill="none" stroke="#bfbfbf" points="227.66,-112.5 227.66,-131.5 322.66,-131.5 322.66,-112.5 227.66,-112.5"/>
<text text-anchor="middle" x="275.16" y="-119.5" font-family="Helvetica,sans-Serif" font-size="10.00">clang/AST/AST.h</text>
</a>
</g>
</g>
<!-- Node2&#45;&gt;Node12 -->
<g id="edge13" class="edge">
<title>Node2&#45;&gt;Node12</title>
<path fill="none" stroke="midnightblue" d="M391.29,-168.44C368.38,-159.48 332.18,-145.31 306.29,-135.18"/>
<polygon fill="midnightblue" stroke="midnightblue" points="307.51,-131.9 296.92,-131.52 304.96,-138.42 307.51,-131.9"/>
</g>
<!-- Node13 -->
<g id="node13" class="node">
<title>Node13</title>
<g id="a_node13"><a xlink:title=" ">
<polygon fill="none" stroke="#bfbfbf" points="340.66,-112.5 340.66,-131.5 485.66,-131.5 485.66,-112.5 340.66,-112.5"/>
<text text-anchor="middle" x="413.16" y="-119.5" font-family="Helvetica,sans-Serif" font-size="10.00">clang/Basic/LangOptions.h</text>
</a>
</g>
</g>
<!-- Node2&#45;&gt;Node13 -->
<g id="edge14" class="edge">
<title>Node2&#45;&gt;Node13</title>
<path fill="none" stroke="midnightblue" d="M413.16,-168.08C413.16,-161.01 413.16,-150.86 413.16,-141.99"/>
<polygon fill="midnightblue" stroke="midnightblue" points="416.66,-141.75 413.16,-131.75 409.66,-141.75 416.66,-141.75"/>
</g>
<!-- Node14 -->
<g id="node14" class="node">
<title>Node14</title>
<g id="a_node14"><a xlink:title=" ">
<polygon fill="none" stroke="#bfbfbf" points="503.66,-112.5 503.66,-131.5 662.66,-131.5 662.66,-112.5 503.66,-112.5"/>
<text text-anchor="middle" x="583.16" y="-119.5" font-family="Helvetica,sans-Serif" font-size="10.00">clang/Basic/SourceManager.h</text>
</a>
</g>
</g>
<!-- Node2&#45;&gt;Node14 -->
<g id="edge15" class="edge">
<title>Node2&#45;&gt;Node14</title>
<path fill="none" stroke="midnightblue" d="M440.1,-168.44C468.82,-159.32 514.49,-144.81 546.48,-134.65"/>
<polygon fill="midnightblue" stroke="midnightblue" points="547.88,-137.88 556.35,-131.52 545.76,-131.21 547.88,-137.88"/>
</g>
<!-- Node15 -->
<g id="node15" class="node">
<title>Node15</title>
<g id="a_node15"><a xlink:title=" ">
<polygon fill="none" stroke="#bfbfbf" points="680.66,-112.5 680.66,-131.5 781.66,-131.5 781.66,-112.5 680.66,-112.5"/>
<text text-anchor="middle" x="731.16" y="-119.5" font-family="Helvetica,sans-Serif" font-size="10.00">clang/Lex/Lexer.h</text>
</a>
</g>
</g>
<!-- Node2&#45;&gt;Node15 -->
<g id="edge16" class="edge">
<title>Node2&#45;&gt;Node15</title>
<path fill="none" stroke="midnightblue" d="M456.38,-169.66C511.8,-160.25 608.2,-143.88 670.83,-133.25"/>
<polygon fill="midnightblue" stroke="midnightblue" points="671.69,-136.65 680.96,-131.52 670.51,-129.75 671.69,-136.65"/>
</g>
<!-- Node16 -->
<g id="node16" class="node">
<title>Node16</title>
<g id="a_node16"><a xlink:title=" ">
<polygon fill="none" stroke="#bfbfbf" points="799.66,-112.5 799.66,-131.5 854.66,-131.5 854.66,-112.5 799.66,-112.5"/>
<text text-anchor="middle" x="827.16" y="-119.5" font-family="Helvetica,sans-Serif" font-size="10.00">fstream</text>
</a>
</g>
</g>
<!-- Node2&#45;&gt;Node16 -->
<g id="edge17" class="edge">
<title>Node2&#45;&gt;Node16</title>
<path fill="none" stroke="midnightblue" d="M456.22,-173.66C524.81,-167.95 663.2,-154.84 789.13,-132.19"/>
<polygon fill="midnightblue" stroke="midnightblue" points="790.12,-135.57 799.33,-130.33 788.86,-128.68 790.12,-135.57"/>
</g>
<!-- Node4 -->
<g id="node4" class="node">
<title>Node4</title>
<g id="a_node4"><a xlink:href="CPUID_8h.html" target="_top" xlink:title=" ">
<polygon fill="none" stroke="black" points="188.66,-56.5 188.66,-75.5 283.66,-75.5 283.66,-56.5 188.66,-56.5"/>
<text text-anchor="middle" x="236.16" y="-63.5" font-family="Helvetica,sans-Serif" font-size="10.00">include/CPUID.h</text>
</a>
</g>
</g>
<!-- Node3&#45;&gt;Node4 -->
<g id="edge3" class="edge">
<title>Node3&#45;&gt;Node4</title>
<path fill="none" stroke="midnightblue" d="M164.82,-112.32C178.08,-103.9 198.43,-90.97 214.01,-81.07"/>
<polygon fill="midnightblue" stroke="midnightblue" points="215.97,-83.97 222.54,-75.65 212.22,-78.06 215.97,-83.97"/>
</g>
<!-- Node5 -->
<g id="node5" class="node">
<title>Node5</title>
<g id="a_node5"><a xlink:title=" ">
<polygon fill="none" stroke="#bfbfbf" points="246.16,-0.5 246.16,-19.5 310.16,-19.5 310.16,-0.5 246.16,-0.5"/>
<text text-anchor="middle" x="278.16" y="-7.5" font-family="Helvetica,sans-Serif" font-size="10.00">algorithm</text>
</a>
</g>
</g>
<!-- Node3&#45;&gt;Node5 -->
<g id="edge8" class="edge">
<title>Node3&#45;&gt;Node5</title>
<path fill="none" stroke="midnightblue" d="M197.41,-112.45C234.29,-104.58 281.63,-91.75 293.16,-76 303.28,-62.18 296.7,-42.64 289.34,-28.6"/>
<polygon fill="midnightblue" stroke="midnightblue" points="292.35,-26.8 284.32,-19.89 286.28,-30.3 292.35,-26.8"/>
</g>
<!-- Node7 -->
<g id="node7" class="node">
<title>Node7</title>
<g id="a_node7"><a xlink:title=" ">
<polygon fill="none" stroke="#bfbfbf" points="328.16,-0.5 328.16,-19.5 372.16,-19.5 372.16,-0.5 328.16,-0.5"/>
<text text-anchor="middle" x="350.16" y="-7.5" font-family="Helvetica,sans-Serif" font-size="10.00">string</text>
</a>
</g>
</g>
<!-- Node3&#45;&gt;Node7 -->
<g id="edge12" class="edge">
<title>Node3&#45;&gt;Node7</title>
<path fill="none" stroke="midnightblue" d="M193.83,-112.45C234.1,-103.75 290.95,-89.63 309.16,-76 325.14,-64.03 336.45,-43.84 343.09,-29.13"/>
<polygon fill="midnightblue" stroke="midnightblue" points="346.45,-30.16 347.1,-19.59 340,-27.45 346.45,-30.16"/>
</g>
<!-- Node9 -->
<g id="node9" class="node">
<title>Node9</title>
<g id="a_node9"><a xlink:title=" ">
<polygon fill="none" stroke="#bfbfbf" points="12.16,-56.5 12.16,-75.5 64.16,-75.5 64.16,-56.5 12.16,-56.5"/>
<text text-anchor="middle" x="38.16" y="-63.5" font-family="Helvetica,sans-Serif" font-size="10.00">cassert</text>
</a>
</g>
</g>
<!-- Node3&#45;&gt;Node9 -->
<g id="edge9" class="edge">
<title>Node3&#45;&gt;Node9</title>
<path fill="none" stroke="midnightblue" d="M133.25,-112.44C114.91,-103.68 86.15,-89.94 65.07,-79.86"/>
<polygon fill="midnightblue" stroke="midnightblue" points="66.51,-76.67 55.98,-75.52 63.49,-82.99 66.51,-76.67"/>
</g>
<!-- Node10 -->
<g id="node10" class="node">
<title>Node10</title>
<g id="a_node10"><a xlink:title=" ">
<polygon fill="none" stroke="#bfbfbf" points="82.16,-56.5 82.16,-75.5 114.16,-75.5 114.16,-56.5 82.16,-56.5"/>
<text text-anchor="middle" x="98.16" y="-63.5" font-family="Helvetica,sans-Serif" font-size="10.00">list</text>
</a>
</g>
</g>
<!-- Node3&#45;&gt;Node10 -->
<g id="edge10" class="edge">
<title>Node3&#45;&gt;Node10</title>
<path fill="none" stroke="midnightblue" d="M142.41,-112.08C134.69,-104.22 123.26,-92.57 113.94,-83.08"/>
<polygon fill="midnightblue" stroke="midnightblue" points="116.25,-80.44 106.75,-75.75 111.26,-85.34 116.25,-80.44"/>
</g>
<!-- Node11 -->
<g id="node11" class="node">
<title>Node11</title>
<g id="a_node11"><a xlink:title=" ">
<polygon fill="none" stroke="#bfbfbf" points="132.16,-56.5 132.16,-75.5 170.16,-75.5 170.16,-56.5 132.16,-56.5"/>
<text text-anchor="middle" x="151.16" y="-63.5" font-family="Helvetica,sans-Serif" font-size="10.00">map</text>
</a>
</g>
</g>
<!-- Node3&#45;&gt;Node11 -->
<g id="edge11" class="edge">
<title>Node3&#45;&gt;Node11</title>
<path fill="none" stroke="midnightblue" d="M151.16,-112.08C151.16,-105.01 151.16,-94.86 151.16,-85.99"/>
<polygon fill="midnightblue" stroke="midnightblue" points="154.66,-85.75 151.16,-75.75 147.66,-85.75 154.66,-85.75"/>
</g>
<!-- Node4&#45;&gt;Node5 -->
<g id="edge4" class="edge">
<title>Node4&#45;&gt;Node5</title>
<path fill="none" stroke="midnightblue" d="M243.1,-56.08C249.09,-48.38 257.91,-37.03 265.21,-27.65"/>
<polygon fill="midnightblue" stroke="midnightblue" points="267.98,-29.79 271.35,-19.75 262.45,-25.5 267.98,-29.79"/>
</g>
<!-- Node4&#45;&gt;Node6 -->
<g id="edge5" class="edge">
<title>Node4&#45;&gt;Node6</title>
<path fill="none" stroke="midnightblue" d="M207.48,-56.44C176.63,-47.24 127.43,-32.56 93.33,-22.39"/>
<polygon fill="midnightblue" stroke="midnightblue" points="94.29,-19.02 83.71,-19.52 92.29,-25.73 94.29,-19.02"/>
</g>
<!-- Node4&#45;&gt;Node7 -->
<g id="edge6" class="edge">
<title>Node4&#45;&gt;Node7</title>
<path fill="none" stroke="midnightblue" d="M254.22,-56.44C272.73,-47.68 301.74,-33.94 323.02,-23.86"/>
<polygon fill="midnightblue" stroke="midnightblue" points="324.64,-26.96 332.18,-19.52 321.64,-20.63 324.64,-26.96"/>
</g>
<!-- Node8 -->
<g id="node8" class="node">
<title>Node8</title>
<g id="a_node8"><a xlink:title=" ">
<polygon fill="none" stroke="#bfbfbf" points="174.66,-0.5 174.66,-19.5 227.66,-19.5 227.66,-0.5 174.66,-0.5"/>
<text text-anchor="middle" x="201.16" y="-7.5" font-family="Helvetica,sans-Serif" font-size="10.00">stdint.h</text>
</a>
</g>
</g>
<!-- Node4&#45;&gt;Node8 -->
<g id="edge7" class="edge">
<title>Node4&#45;&gt;Node8</title>
<path fill="none" stroke="midnightblue" d="M230.38,-56.08C225.49,-48.53 218.33,-37.49 212.33,-28.23"/>
<polygon fill="midnightblue" stroke="midnightblue" points="215.21,-26.24 206.83,-19.75 209.33,-30.05 215.21,-26.24"/>
</g>
</g>
</svg>
