<?xml version="1.0" encoding="UTF-8" standalone="no"?>
<!DOCTYPE svg PUBLIC "-//W3C//DTD SVG 1.1//EN"
 "http://www.w3.org/Graphics/SVG/1.1/DTD/svg11.dtd">
<!-- Generated by graphviz version 2.43.0 (0)
 -->
<!-- Title: MACVETH/include/Vectorization Pages: 1 -->
<svg width="208pt" height="195pt"
 viewBox="0.00 0.00 208.00 195.00" xmlns="http://www.w3.org/2000/svg" xmlns:xlink="http://www.w3.org/1999/xlink">
<g id="graph0" class="graph" transform="scale(1 1) rotate(0) translate(4 191)">
<title>MACVETH/include/Vectorization</title>
<g id="clust1" class="cluster">
<title>clusterdir_550d401d06dc450da6de6df2384e47d8</title>
<g id="a_clust1"><a xlink:href="dir_550d401d06dc450da6de6df2384e47d8.html" target="_top" xlink:title="include">
<polygon fill="#ddddee" stroke="black" points="8,-56 8,-143 192,-143 192,-56 8,-56"/>
<text text-anchor="middle" x="100" y="-131" font-family="Helvetica,sans-Serif" font-size="10.00">include</text>
</a>
</g>
</g>
<g id="clust2" class="cluster">
<title>clusterdir_f0ee617dfaf2f2481a3f39747eac13f5</title>
<g id="a_clust2"><a xlink:href="dir_f0ee617dfaf2f2481a3f39747eac13f5.html" target="_top">
<polygon fill="#eeeeff" stroke="black" points="16,-64 16,-116 184,-116 184,-64 16,-64"/>
</a>
</g>
</g>
<!-- dir_f0ee617dfaf2f2481a3f39747eac13f5 -->
<g id="node1" class="node">
<title>dir_f0ee617dfaf2f2481a3f39747eac13f5</title>
<text text-anchor="middle" x="136" y="-87.5" font-family="Helvetica,sans-Serif" font-size="10.00">Vectorization</text>
</g>
<!-- dir_52c828c0635e9a32a60219a125b09e40 -->
<g id="node2" class="node">
<title>dir_52c828c0635e9a32a60219a125b09e40</title>
<g id="a_node2"><a xlink:href="dir_52c828c0635e9a32a60219a125b09e40.html" target="_top" xlink:title="SIMD">
<polygon fill="white" stroke="red" points="78,-108 24,-108 24,-72 78,-72 78,-108"/>
<text text-anchor="middle" x="51" y="-87.5" font-family="Helvetica,sans-Serif" font-size="10.00">SIMD</text>
</a>
</g>
</g>
<!-- dir_f2f5577fbaaed4d1a62e09f03dde04a8 -->
<g id="node3" class="node">
<title>dir_f2f5577fbaaed4d1a62e09f03dde04a8</title>
<g id="a_node3"><a xlink:href="dir_f2f5577fbaaed4d1a62e09f03dde04a8.html" target="_top" xlink:title="CostModel">
<polygon fill="none" stroke="black" points="127,-187 59,-187 59,-151 127,-151 127,-187"/>
<text text-anchor="middle" x="93" y="-166.5" font-family="Helvetica,sans-Serif" font-size="10.00">CostModel</text>
</a>
</g>
</g>
<!-- dir_52c828c0635e9a32a60219a125b09e40&#45;&gt;dir_f2f5577fbaaed4d1a62e09f03dde04a8 -->
<g id="edge3" class="edge">
<title>dir_52c828c0635e9a32a60219a125b09e40&#45;&gt;dir_f2f5577fbaaed4d1a62e09f03dde04a8</title>
<path fill="none" stroke="black" d="M54.58,-108.04C58.98,-118.1 65.8,-131.03 72.58,-142.31"/>
<polygon fill="black" stroke="black" points="69.69,-144.29 77.96,-150.91 75.62,-140.58 69.69,-144.29"/>
<g id="a_edge3&#45;headlabel"><a xlink:href="dir_000005_000002.html" target="_top" xlink:title="1">
<text text-anchor="middle" x="65.38" y="-140.24" font-family="Helvetica,sans-Serif" font-size="10.00">1</text>
</a>
</g>
</g>
<!-- dir_0d2cd096194b10838e1cdacbaf784a6e -->
<g id="node4" class="node">
<title>dir_0d2cd096194b10838e1cdacbaf784a6e</title>
<g id="a_node4"><a xlink:href="dir_0d2cd096194b10838e1cdacbaf784a6e.html" target="_top" xlink:title="MVExpr">
<polygon fill="none" stroke="black" points="78,-36 24,-36 24,0 78,0 78,-36"/>
<text text-anchor="middle" x="51" y="-15.5" font-family="Helvetica,sans-Serif" font-size="10.00">MVExpr</text>
</a>
</g>
</g>
<!-- dir_52c828c0635e9a32a60219a125b09e40&#45;&gt;dir_0d2cd096194b10838e1cdacbaf784a6e -->
<g id="edge4" class="edge">
<title>dir_52c828c0635e9a32a60219a125b09e40&#45;&gt;dir_0d2cd096194b10838e1cdacbaf784a6e</title>
<path fill="none" stroke="black" d="M51,-71.7C51,-63.98 51,-54.71 51,-46.11"/>
<polygon fill="black" stroke="black" points="54.5,-46.1 51,-36.1 47.5,-46.1 54.5,-46.1"/>
<g id="a_edge4&#45;headlabel"><a xlink:href="dir_000005_000003.html" target="_top" xlink:title="2">
<text text-anchor="middle" x="57.34" y="-47.2" font-family="Helvetica,sans-Serif" font-size="10.00">2</text>
</a>
</g>
</g>
<!-- dir_f2f5577fbaaed4d1a62e09f03dde04a8&#45;&gt;dir_f0ee617dfaf2f2481a3f39747eac13f5 -->
<g id="edge1" class="edge">
<title>dir_f2f5577fbaaed4d1a62e09f03dde04a8&#45;&gt;dir_f0ee617dfaf2f2481a3f39747eac13f5</title>
<path fill="none" stroke="black" d="M102.54,-150.91C108.11,-140.94 115.25,-128.17 121.5,-116.97"/>
<polygon fill="black" stroke="black" points="124.66,-118.48 126.48,-108.04 118.55,-115.07 124.66,-118.48"/>
<g id="a_edge1&#45;headlabel"><a xlink:href="dir_000002_000004.html" target="_top" xlink:title="2">
<text text-anchor="middle" x="125.39" y="-120.5" font-family="Helvetica,sans-Serif" font-size="10.00">2</text>
</a>
</g>
</g>
<!-- dir_f2f5577fbaaed4d1a62e09f03dde04a8&#45;&gt;dir_52c828c0635e9a32a60219a125b09e40 -->
<g id="edge2" class="edge">
<title>dir_f2f5577fbaaed4d1a62e09f03dde04a8&#45;&gt;dir_52c828c0635e9a32a60219a125b09e40</title>
<path fill="none" stroke="black" d="M89.4,-150.91C84.99,-140.84 78.17,-127.91 71.39,-116.64"/>
<polygon fill="black" stroke="black" points="74.28,-114.66 66.01,-108.04 68.35,-118.38 74.28,-114.66"/>
<g id="a_edge2&#45;headlabel"><a xlink:href="dir_000002_000005.html" target="_top" xlink:title="2">
<text text-anchor="middle" x="78.59" y="-113.7" font-family="Helvetica,sans-Serif" font-size="10.00">2</text>
</a>
</g>
</g>
</g>
</svg>
