<?xml version="1.0" encoding="UTF-8" standalone="no"?>
<!DOCTYPE svg PUBLIC "-//W3C//DTD SVG 1.1//EN"
 "http://www.w3.org/Graphics/SVG/1.1/DTD/svg11.dtd">
<!-- Generated by graphviz version 2.43.0 (0)
 -->
<!-- Title: MACVETH/include Pages: 1 -->
<svg width="208pt" height="183pt"
 viewBox="0.00 0.00 208.00 183.00" xmlns="http://www.w3.org/2000/svg" xmlns:xlink="http://www.w3.org/1999/xlink">
<g id="graph0" class="graph" transform="scale(1 1) rotate(0) translate(4 179)">
<title>MACVETH/include</title>
<g id="clust1" class="cluster">
<title>clusterdir_6106642902fae932d25e52912ce84eea</title>
<g id="a_clust1"><a xlink:href="dir_6106642902fae932d25e52912ce84eea.html" target="_top" xlink:title="MACVETH">
<polygon fill="#ddddee" stroke="black" points="8,-8 8,-167 192,-167 192,-8 8,-8"/>
<text text-anchor="middle" x="100" y="-155" font-family="Helvetica,sans-Serif" font-size="10.00">MACVETH</text>
</a>
</g>
</g>
<g id="clust2" class="cluster">
<title>clusterdir_550d401d06dc450da6de6df2384e47d8</title>
<g id="a_clust2"><a xlink:href="dir_550d401d06dc450da6de6df2384e47d8.html" target="_top">
<polygon fill="#eeeeff" stroke="black" points="16,-16 16,-140 184,-140 184,-16 16,-16"/>
</a>
</g>
</g>
<!-- dir_550d401d06dc450da6de6df2384e47d8 -->
<g id="node1" class="node">
<title>dir_550d401d06dc450da6de6df2384e47d8</title>
<text text-anchor="middle" x="149" y="-111.5" font-family="Helvetica,sans-Serif" font-size="10.00">include</text>
</g>
<!-- dir_0d2cd096194b10838e1cdacbaf784a6e -->
<g id="node3" class="node">
<title>dir_0d2cd096194b10838e1cdacbaf784a6e</title>
<g id="a_node3"><a xlink:href="dir_0d2cd096194b10838e1cdacbaf784a6e.html" target="_top" xlink:title="MVExpr">
<polygon fill="white" stroke="black" points="173,-60 119,-60 119,-24 173,-24 173,-60"/>
<text text-anchor="middle" x="146" y="-39.5" font-family="Helvetica,sans-Serif" font-size="10.00">MVExpr</text>
</a>
</g>
</g>
<!-- dir_550d401d06dc450da6de6df2384e47d8&#45;&gt;dir_0d2cd096194b10838e1cdacbaf784a6e -->
<g id="edge2" class="edge">
<title>dir_550d401d06dc450da6de6df2384e47d8&#45;&gt;dir_0d2cd096194b10838e1cdacbaf784a6e</title>
<path fill="none" stroke="black" d="M148.26,-95.7C147.93,-87.98 147.53,-78.71 147.16,-70.11"/>
<polygon fill="black" stroke="black" points="150.66,-69.95 146.73,-60.1 143.66,-70.25 150.66,-69.95"/>
<g id="a_edge2&#45;headlabel"><a xlink:href="dir_000001_000003.html" target="_top" xlink:title="9">
<text text-anchor="middle" x="153.65" y="-70.92" font-family="Helvetica,sans-Serif" font-size="10.00">9</text>
</a>
</g>
</g>
<!-- dir_f2f5577fbaaed4d1a62e09f03dde04a8 -->
<g id="node2" class="node">
<title>dir_f2f5577fbaaed4d1a62e09f03dde04a8</title>
<g id="a_node2"><a xlink:href="dir_f2f5577fbaaed4d1a62e09f03dde04a8.html" target="_top" xlink:title="CostModel">
<polygon fill="white" stroke="black" points="98,-60 30,-60 30,-24 98,-24 98,-60"/>
<text text-anchor="middle" x="64" y="-39.5" font-family="Helvetica,sans-Serif" font-size="10.00">CostModel</text>
</a>
</g>
</g>
<!-- dir_f0ee617dfaf2f2481a3f39747eac13f5 -->
<g id="node4" class="node">
<title>dir_f0ee617dfaf2f2481a3f39747eac13f5</title>
<g id="a_node4"><a xlink:href="dir_f0ee617dfaf2f2481a3f39747eac13f5.html" target="_top" xlink:title="Vectorization">
<polygon fill="white" stroke="red" points="104,-132 24,-132 24,-96 104,-96 104,-132"/>
<text text-anchor="middle" x="64" y="-111.5" font-family="Helvetica,sans-Serif" font-size="10.00">Vectorization</text>
</a>
</g>
</g>
<!-- dir_f2f5577fbaaed4d1a62e09f03dde04a8&#45;&gt;dir_f0ee617dfaf2f2481a3f39747eac13f5 -->
<g id="edge1" class="edge">
<title>dir_f2f5577fbaaed4d1a62e09f03dde04a8&#45;&gt;dir_f0ee617dfaf2f2481a3f39747eac13f5</title>
<path fill="none" stroke="black" d="M69.9,-60.1C70.7,-67.79 70.94,-77.05 70.6,-85.67"/>
<polygon fill="black" stroke="black" points="67.11,-85.48 69.92,-95.7 74.09,-85.96 67.11,-85.48"/>
<g id="a_edge1&#45;headlabel"><a xlink:href="dir_000002_000004.html" target="_top" xlink:title="2">
<text text-anchor="middle" x="64.52" y="-79.2" font-family="Helvetica,sans-Serif" font-size="10.00">2</text>
</a>
</g>
</g>
<!-- dir_f0ee617dfaf2f2481a3f39747eac13f5&#45;&gt;dir_f2f5577fbaaed4d1a62e09f03dde04a8 -->
<g id="edge3" class="edge">
<title>dir_f0ee617dfaf2f2481a3f39747eac13f5&#45;&gt;dir_f2f5577fbaaed4d1a62e09f03dde04a8</title>
<path fill="none" stroke="black" d="M58.08,-95.7C57.29,-87.98 57.06,-78.71 57.4,-70.11"/>
<polygon fill="black" stroke="black" points="60.9,-70.32 58.1,-60.1 53.92,-69.84 60.9,-70.32"/>
<g id="a_edge3&#45;headlabel"><a xlink:href="dir_000004_000002.html" target="_top" xlink:title="1">
<text text-anchor="middle" x="63.48" y="-71.61" font-family="Helvetica,sans-Serif" font-size="10.00">1</text>
</a>
</g>
</g>
<!-- dir_f0ee617dfaf2f2481a3f39747eac13f5&#45;&gt;dir_0d2cd096194b10838e1cdacbaf784a6e -->
<g id="edge4" class="edge">
<title>dir_f0ee617dfaf2f2481a3f39747eac13f5&#45;&gt;dir_0d2cd096194b10838e1cdacbaf784a6e</title>
<path fill="none" stroke="black" d="M84.27,-95.7C94.5,-86.97 107.06,-76.24 118.18,-66.75"/>
<polygon fill="black" stroke="black" points="120.63,-69.26 125.96,-60.1 116.09,-63.94 120.63,-69.26"/>
<g id="a_edge4&#45;headlabel"><a xlink:href="dir_000004_000003.html" target="_top" xlink:title="4">
<text text-anchor="middle" x="119.74" y="-71.25" font-family="Helvetica,sans-Serif" font-size="10.00">4</text>
</a>
</g>
</g>
</g>
</svg>
