<?xml version="1.0" encoding="UTF-8" standalone="no"?>
<!DOCTYPE svg PUBLIC "-//W3C//DTD SVG 1.1//EN"
 "http://www.w3.org/Graphics/SVG/1.1/DTD/svg11.dtd">
<!-- Generated by graphviz version 2.43.0 (0)
 -->
<!-- Title: Graphical Class Hierarchy Pages: 1 -->
<svg width="310pt" height="66pt"
 viewBox="0.00 0.00 310.00 66.00" xmlns="http://www.w3.org/2000/svg" xmlns:xlink="http://www.w3.org/1999/xlink">
<g id="graph0" class="graph" transform="scale(1 1) rotate(0) translate(4 62)">
<title>Graphical Class Hierarchy</title>
<!-- Node41 -->
<g id="node1" class="node">
<title>Node41</title>
<g id="a_node1"><a xlink:href="classmacveth_1_1IntelIntrinsics.html" target="_top" xlink:title=" ">
<polygon fill="none" stroke="black" points="1,-38.5 1,-57.5 132,-57.5 132,-38.5 1,-38.5"/>
<text text-anchor="middle" x="66.5" y="-45.5" font-family="Helvetica,sans-Serif" font-size="10.00">macveth::IntelIntrinsics</text>
</a>
</g>
</g>
<!-- Node1 -->
<g id="node2" class="node">
<title>Node1</title>
<g id="a_node2"><a xlink:href="classmacveth_1_1AVX2BackEnd.html" target="_top" xlink:title="SIMD generator for AVX2 architectures.">
<polygon fill="none" stroke="black" points="169,-19.5 169,-38.5 302,-38.5 302,-19.5 169,-19.5"/>
<text text-anchor="middle" x="235.5" y="-26.5" font-family="Helvetica,sans-Serif" font-size="10.00">macveth::AVX2BackEnd</text>
</a>
</g>
</g>
<!-- Node41&#45;&gt;Node1 -->
<g id="edge1" class="edge">
<title>Node41&#45;&gt;Node1</title>
<path fill="none" stroke="midnightblue" d="M142.03,-39.52C150.93,-38.51 159.96,-37.48 168.73,-36.48"/>
<polygon fill="midnightblue" stroke="midnightblue" points="141.61,-36.05 132.07,-40.65 142.4,-43 141.61,-36.05"/>
</g>
<!-- Node0 -->
<g id="node3" class="node">
<title>Node0</title>
<g id="a_node3"><a xlink:href="classmacveth_1_1SIMDBackEnd.html" target="_top" xlink:title="Abstract class implemented by each architecture (AVX, AVX2, AVX512, etc.) to generate specific intrin...">
<polygon fill="none" stroke="black" points="0,-0.5 0,-19.5 133,-19.5 133,-0.5 0,-0.5"/>
<text text-anchor="middle" x="66.5" y="-7.5" font-family="Helvetica,sans-Serif" font-size="10.00">macveth::SIMDBackEnd</text>
</a>
</g>
</g>
<!-- Node0&#45;&gt;Node1 -->
<g id="edge2" class="edge">
<title>Node0&#45;&gt;Node1</title>
<path fill="none" stroke="midnightblue" d="M143.07,-18.6C151.68,-19.58 160.42,-20.57 168.89,-21.54"/>
<polygon fill="midnightblue" stroke="midnightblue" points="143.36,-15.11 133.02,-17.45 142.56,-22.06 143.36,-15.11"/>
</g>
</g>
</svg>
