<?xml version="1.0" encoding="UTF-8" standalone="no"?>
<!DOCTYPE svg PUBLIC "-//W3C//DTD SVG 1.1//EN"
 "http://www.w3.org/Graphics/SVG/1.1/DTD/svg11.dtd">
<!-- Generated by graphviz version 2.43.0 (0)
 -->
<!-- Title: MACVETH/include/Vectorization/SIMD/IntelIntrinsics.h Pages: 1 -->
<svg width="232pt" height="151pt"
 viewBox="0.00 0.00 232.00 151.00" xmlns="http://www.w3.org/2000/svg" xmlns:xlink="http://www.w3.org/1999/xlink">
<g id="graph0" class="graph" transform="scale(1 1) rotate(0) translate(4 147)">
<title>MACVETH/include/Vectorization/SIMD/IntelIntrinsics.h</title>
<!-- Node1 -->
<g id="node1" class="node">
<title>Node1</title>
<g id="a_node1"><a xlink:title=" ">
<polygon fill="#bfbfbf" stroke="black" points="0,-112.5 0,-142.5 170,-142.5 170,-112.5 0,-112.5"/>
<text text-anchor="start" x="8" y="-130.5" font-family="Helvetica,sans-Serif" font-size="10.00">MACVETH/include/Vectorization</text>
<text text-anchor="middle" x="85" y="-119.5" font-family="Helvetica,sans-Serif" font-size="10.00">/SIMD/IntelIntrinsics.h</text>
</a>
</g>
</g>
<!-- Node2 -->
<g id="node2" class="node">
<title>Node2</title>
<g id="a_node2"><a xlink:href="MVDataType_8h.html" target="_top" xlink:title=" ">
<polygon fill="none" stroke="black" points="58,-56.5 58,-75.5 224,-75.5 224,-56.5 58,-56.5"/>
<text text-anchor="middle" x="141" y="-63.5" font-family="Helvetica,sans-Serif" font-size="10.00">include/MVExpr/MVDataType.h</text>
</a>
</g>
</g>
<!-- Node1&#45;&gt;Node2 -->
<g id="edge1" class="edge">
<title>Node1&#45;&gt;Node2</title>
<path fill="none" stroke="midnightblue" d="M98.27,-112.4C106.58,-103.58 117.3,-92.18 125.92,-83.02"/>
<polygon fill="midnightblue" stroke="midnightblue" points="128.55,-85.34 132.85,-75.66 123.45,-80.54 128.55,-85.34"/>
</g>
<!-- Node3 -->
<g id="node3" class="node">
<title>Node3</title>
<g id="a_node3"><a xlink:title=" ">
<polygon fill="none" stroke="#bfbfbf" points="37,-0.5 37,-19.5 75,-19.5 75,-0.5 37,-0.5"/>
<text text-anchor="middle" x="56" y="-7.5" font-family="Helvetica,sans-Serif" font-size="10.00">map</text>
</a>
</g>
</g>
<!-- Node1&#45;&gt;Node3 -->
<g id="edge4" class="edge">
<title>Node1&#45;&gt;Node3</title>
<path fill="none" stroke="midnightblue" d="M71.26,-112.39C63.05,-102.93 53.4,-89.74 49,-76 44.14,-60.8 46.73,-42.68 50.05,-29.44"/>
<polygon fill="midnightblue" stroke="midnightblue" points="53.47,-30.22 52.87,-19.64 46.74,-28.28 53.47,-30.22"/>
</g>
<!-- Node2&#45;&gt;Node3 -->
<g id="edge2" class="edge">
<title>Node2&#45;&gt;Node3</title>
<path fill="none" stroke="midnightblue" d="M127.34,-56.32C114.08,-47.9 93.73,-34.97 78.15,-25.07"/>
<polygon fill="midnightblue" stroke="midnightblue" points="79.94,-22.06 69.62,-19.65 76.19,-27.97 79.94,-22.06"/>
</g>
<!-- Node4 -->
<g id="node4" class="node">
<title>Node4</title>
<g id="a_node4"><a xlink:title=" ">
<polygon fill="none" stroke="#bfbfbf" points="119,-0.5 119,-19.5 163,-19.5 163,-0.5 119,-0.5"/>
<text text-anchor="middle" x="141" y="-7.5" font-family="Helvetica,sans-Serif" font-size="10.00">string</text>
</a>
</g>
</g>
<!-- Node2&#45;&gt;Node4 -->
<g id="edge3" class="edge">
<title>Node2&#45;&gt;Node4</title>
<path fill="none" stroke="midnightblue" d="M141,-56.08C141,-49.01 141,-38.86 141,-29.99"/>
<polygon fill="midnightblue" stroke="midnightblue" points="144.5,-29.75 141,-19.75 137.5,-29.75 144.5,-29.75"/>
</g>
</g>
</svg>
