<?xml version="1.0" encoding="UTF-8" standalone="no"?>
<!DOCTYPE svg PUBLIC "-//W3C//DTD SVG 1.1//EN"
 "http://www.w3.org/Graphics/SVG/1.1/DTD/svg11.dtd">
<!-- Generated by graphviz version 2.43.0 (0)
 -->
<!-- Title: MACVETH/include/MVAssert.h Pages: 1 -->
<svg width="866pt" height="587pt"
 viewBox="0.00 0.00 866.00 587.00" xmlns="http://www.w3.org/2000/svg" xmlns:xlink="http://www.w3.org/1999/xlink">
<g id="graph0" class="graph" transform="scale(1 1) rotate(0) translate(4 583)">
<title>MACVETH/include/MVAssert.h</title>
<!-- Node1 -->
<g id="node1" class="node">
<title>Node1</title>
<g id="a_node1"><a xlink:title=" ">
<polygon fill="#bfbfbf" stroke="black" points="568.5,-559.5 568.5,-578.5 729.5,-578.5 729.5,-559.5 568.5,-559.5"/>
<text text-anchor="middle" x="649" y="-566.5" font-family="Helvetica,sans-Serif" font-size="10.00">MACVETH/include/MVAssert.h</text>
</a>
</g>
</g>
<!-- Node2 -->
<g id="node2" class="node">
<title>Node2</title>
<g id="a_node2"><a xlink:href="MVOps_8h.html" target="_top" xlink:title=" ">
<polygon fill="none" stroke="black" points="523,-503.5 523,-522.5 673,-522.5 673,-503.5 523,-503.5"/>
<text text-anchor="middle" x="598" y="-510.5" font-family="Helvetica,sans-Serif" font-size="10.00">MACVETH/include/MVOps.h</text>
</a>
</g>
</g>
<!-- Node1&#45;&gt;Node2 -->
<g id="edge1" class="edge">
<title>Node1&#45;&gt;Node2</title>
<path fill="none" stroke="midnightblue" d="M633.62,-551.72C624.63,-542.2 613.64,-530.56 606.26,-522.75"/>
<polygon fill="midnightblue" stroke="midnightblue" points="631.17,-554.22 640.58,-559.08 636.26,-549.41 631.17,-554.22"/>
</g>
<!-- Node17 -->
<g id="node17" class="node">
<title>Node17</title>
<g id="a_node17"><a xlink:href="MVPragmaHandler_8h.html" target="_top" xlink:title=" ">
<polygon fill="none" stroke="black" points="687,-436.5 687,-466.5 847,-466.5 847,-436.5 687,-436.5"/>
<text text-anchor="start" x="695" y="-454.5" font-family="Helvetica,sans-Serif" font-size="10.00">MACVETH/include/MVPragma</text>
<text text-anchor="middle" x="767" y="-443.5" font-family="Helvetica,sans-Serif" font-size="10.00">Handler.h</text>
</a>
</g>
</g>
<!-- Node1&#45;&gt;Node17 -->
<g id="edge29" class="edge">
<title>Node1&#45;&gt;Node17</title>
<path fill="none" stroke="midnightblue" d="M665.2,-552.14C688.36,-529.47 730.56,-488.17 752.65,-466.55"/>
<polygon fill="midnightblue" stroke="midnightblue" points="662.57,-549.82 657.87,-559.32 667.46,-554.82 662.57,-549.82"/>
</g>
<!-- Node3 -->
<g id="node3" class="node">
<title>Node3</title>
<g id="a_node3"><a xlink:href="TAC_8h.html" target="_top" xlink:title=" ">
<polygon fill="none" stroke="black" points="500,-442 500,-461 634,-461 634,-442 500,-442"/>
<text text-anchor="middle" x="567" y="-449" font-family="Helvetica,sans-Serif" font-size="10.00">MACVETH/include/TAC.h</text>
</a>
</g>
</g>
<!-- Node2&#45;&gt;Node3 -->
<g id="edge2" class="edge">
<title>Node2&#45;&gt;Node3</title>
<path fill="none" stroke="midnightblue" d="M588.8,-494.33C583.06,-483.33 575.94,-469.66 571.43,-461.01"/>
<polygon fill="midnightblue" stroke="midnightblue" points="585.83,-496.22 593.56,-503.48 592.04,-492.99 585.83,-496.22"/>
</g>
<!-- Node4 -->
<g id="node4" class="node">
<title>Node4</title>
<g id="a_node4"><a xlink:href="CDAG_8h.html" target="_top" xlink:title=" ">
<polygon fill="none" stroke="black" points="405,-263 405,-282 549,-282 549,-263 405,-263"/>
<text text-anchor="middle" x="477" y="-270" font-family="Helvetica,sans-Serif" font-size="10.00">MACVETH/include/CDAG.h</text>
</a>
</g>
</g>
<!-- Node3&#45;&gt;Node4 -->
<g id="edge3" class="edge">
<title>Node3&#45;&gt;Node4</title>
<path fill="none" stroke="midnightblue" d="M560.14,-432.36C550.42,-407.35 531.53,-361.18 511,-324 502.52,-308.64 490.74,-291.97 483.51,-282.14"/>
<polygon fill="midnightblue" stroke="midnightblue" points="556.97,-433.88 563.82,-441.97 563.51,-431.38 556.97,-433.88"/>
</g>
<!-- Node14 -->
<g id="node14" class="node">
<title>Node14</title>
<g id="a_node14"><a xlink:href="Node_8h.html" target="_top" xlink:title=" ">
<polygon fill="none" stroke="black" points="361.5,-324.5 361.5,-343.5 502.5,-343.5 502.5,-324.5 361.5,-324.5"/>
<text text-anchor="middle" x="432" y="-331.5" font-family="Helvetica,sans-Serif" font-size="10.00">MACVETH/include/Node.h</text>
</a>
</g>
</g>
<!-- Node3&#45;&gt;Node14 -->
<g id="edge18" class="edge">
<title>Node3&#45;&gt;Node14</title>
<path fill="none" stroke="midnightblue" d="M549.21,-435.28C520.57,-410.78 465.15,-363.36 442.26,-343.78"/>
<polygon fill="midnightblue" stroke="midnightblue" points="546.98,-437.98 556.85,-441.82 551.53,-432.66 546.98,-437.98"/>
</g>
<!-- Node16 -->
<g id="node16" class="node">
<title>Node16</title>
<g id="a_node16"><a xlink:href="StmtWrapper_8h.html" target="_top" xlink:title=" ">
<polygon fill="none" stroke="black" points="559.5,-380.5 559.5,-399.5 738.5,-399.5 738.5,-380.5 559.5,-380.5"/>
<text text-anchor="middle" x="649" y="-387.5" font-family="Helvetica,sans-Serif" font-size="10.00">MACVETH/include/StmtWrapper.h</text>
</a>
</g>
</g>
<!-- Node3&#45;&gt;Node16 -->
<g id="edge24" class="edge">
<title>Node3&#45;&gt;Node16</title>
<path fill="none" stroke="midnightblue" d="M587.27,-435.79C603,-424.38 624.25,-408.96 637.27,-399.51"/>
<polygon fill="midnightblue" stroke="midnightblue" points="584.79,-433.27 578.75,-441.98 588.9,-438.93 584.79,-433.27"/>
</g>
<!-- Node5 -->
<g id="node5" class="node">
<title>Node5</title>
<g id="a_node5"><a xlink:href="MVFrontend_8h.html" target="_top" xlink:title=" ">
<polygon fill="none" stroke="black" points="603,-62 603,-81 777,-81 777,-62 603,-62"/>
<text text-anchor="middle" x="690" y="-69" font-family="Helvetica,sans-Serif" font-size="10.00">MACVETH/include/MVFrontend.h</text>
</a>
</g>
</g>
<!-- Node4&#45;&gt;Node5 -->
<g id="edge4" class="edge">
<title>Node4&#45;&gt;Node5</title>
<path fill="none" stroke="midnightblue" d="M482.47,-252.84C492.48,-221.74 516.65,-159.15 558,-123 582.94,-101.2 618.28,-88.35 646.12,-81.07"/>
<polygon fill="midnightblue" stroke="midnightblue" points="479.01,-252.18 479.41,-262.77 485.7,-254.24 479.01,-252.18"/>
</g>
<!-- Node7 -->
<g id="node7" class="node">
<title>Node7</title>
<g id="a_node7"><a xlink:href="MVRewriter_8h.html" target="_top" xlink:title=" ">
<polygon fill="none" stroke="black" points="567,-129 567,-148 739,-148 739,-129 567,-129"/>
<text text-anchor="middle" x="653" y="-136" font-family="Helvetica,sans-Serif" font-size="10.00">MACVETH/include/MVRewriter.h</text>
</a>
</g>
</g>
<!-- Node4&#45;&gt;Node7 -->
<g id="edge6" class="edge">
<title>Node4&#45;&gt;Node7</title>
<path fill="none" stroke="midnightblue" d="M496.57,-256.82C533.46,-229.15 612.25,-170.06 641.64,-148.02"/>
<polygon fill="midnightblue" stroke="midnightblue" points="494.45,-254.04 488.55,-262.84 498.65,-259.64 494.45,-254.04"/>
</g>
<!-- Node8 -->
<g id="node8" class="node">
<title>Node8</title>
<g id="a_node8"><a xlink:href="PlcmntAlgo_8h.html" target="_top" xlink:title=" ">
<polygon fill="none" stroke="black" points="301.5,-196 301.5,-215 472.5,-215 472.5,-196 301.5,-196"/>
<text text-anchor="middle" x="387" y="-203" font-family="Helvetica,sans-Serif" font-size="10.00">MACVETH/include/PlcmntAlgo.h</text>
</a>
</g>
</g>
<!-- Node4&#45;&gt;Node8 -->
<g id="edge8" class="edge">
<title>Node4&#45;&gt;Node8</title>
<path fill="none" stroke="midnightblue" d="M456.32,-256.57C438.56,-243.74 413.56,-225.69 398.95,-215.13"/>
<polygon fill="midnightblue" stroke="midnightblue" points="454.71,-259.72 464.86,-262.73 458.8,-254.04 454.71,-259.72"/>
</g>
<!-- Node9 -->
<g id="node9" class="node">
<title>Node9</title>
<g id="a_node9"><a xlink:href="SIMDBackEnd_8h.html" target="_top" xlink:title=" ">
<polygon fill="none" stroke="black" points="113,-190.5 113,-220.5 283,-220.5 283,-190.5 113,-190.5"/>
<text text-anchor="start" x="121" y="-208.5" font-family="Helvetica,sans-Serif" font-size="10.00">MACVETH/include/Vectorization</text>
<text text-anchor="middle" x="198" y="-197.5" font-family="Helvetica,sans-Serif" font-size="10.00">/SIMD/SIMDBackEnd.h</text>
</a>
</g>
</g>
<!-- Node4&#45;&gt;Node9 -->
<g id="edge9" class="edge">
<title>Node4&#45;&gt;Node9</title>
<path fill="none" stroke="midnightblue" d="M430.28,-260.62C383.07,-249.62 309.92,-232.58 258.35,-220.56"/>
<polygon fill="midnightblue" stroke="midnightblue" points="429.71,-264.08 440.24,-262.94 431.29,-257.26 429.71,-264.08"/>
</g>
<!-- Node6 -->
<g id="node6" class="node">
<title>Node6</title>
<g id="a_node6"><a xlink:href="macveth_8cpp.html" target="_top" xlink:title=" ">
<polygon fill="none" stroke="black" points="712,-0.5 712,-19.5 858,-19.5 858,-0.5 712,-0.5"/>
<text text-anchor="middle" x="785" y="-7.5" font-family="Helvetica,sans-Serif" font-size="10.00">MACVETH/lib/macveth.cpp</text>
</a>
</g>
</g>
<!-- Node5&#45;&gt;Node6 -->
<g id="edge5" class="edge">
<title>Node5&#45;&gt;Node6</title>
<path fill="none" stroke="midnightblue" d="M712.21,-56.59C730.55,-45.1 755.98,-29.18 771.41,-19.51"/>
<polygon fill="midnightblue" stroke="midnightblue" points="710.23,-53.7 703.61,-61.98 713.94,-59.63 710.23,-53.7"/>
</g>
<!-- Node7&#45;&gt;Node5 -->
<g id="edge7" class="edge">
<title>Node7&#45;&gt;Node5</title>
<path fill="none" stroke="midnightblue" d="M662.94,-120.03C670.11,-107.45 679.47,-91.01 685.09,-81.13"/>
<polygon fill="midnightblue" stroke="midnightblue" points="659.9,-118.31 657.99,-128.73 665.98,-121.77 659.9,-118.31"/>
</g>
<!-- Node9&#45;&gt;Node5 -->
<g id="edge13" class="edge">
<title>Node9&#45;&gt;Node5</title>
<path fill="none" stroke="midnightblue" d="M282.81,-188.42C323.29,-179.82 372.14,-168.09 415,-154 448.1,-143.12 453.99,-134.13 487,-123 541.2,-104.73 605.55,-89.82 647.04,-81.06"/>
<polygon fill="midnightblue" stroke="midnightblue" points="282.04,-185.01 272.97,-190.49 283.48,-191.86 282.04,-185.01"/>
</g>
<!-- Node9&#45;&gt;Node7 -->
<g id="edge14" class="edge">
<title>Node9&#45;&gt;Node7</title>
<path fill="none" stroke="midnightblue" d="M293.03,-189.86C403.48,-173.67 520.07,-157.58 590.03,-148.04"/>
<polygon fill="midnightblue" stroke="midnightblue" points="292.43,-186.41 283.05,-191.33 293.45,-193.34 292.43,-186.41"/>
</g>
<!-- Node10 -->
<g id="node10" class="node">
<title>Node10</title>
<g id="a_node10"><a xlink:href="MVCostModel_8h.html" target="_top" xlink:title=" ">
<polygon fill="none" stroke="black" points="333,-56.5 333,-86.5 491,-86.5 491,-56.5 333,-56.5"/>
<text text-anchor="start" x="341" y="-74.5" font-family="Helvetica,sans-Serif" font-size="10.00">MACVETH/include/CostModel</text>
<text text-anchor="middle" x="412" y="-63.5" font-family="Helvetica,sans-Serif" font-size="10.00">/MVCostModel.h</text>
</a>
</g>
</g>
<!-- Node9&#45;&gt;Node10 -->
<g id="edge10" class="edge">
<title>Node9&#45;&gt;Node10</title>
<path fill="none" stroke="midnightblue" d="M293.32,-189.38C335.34,-180.84 378.47,-168.89 393,-154 410.66,-135.91 413.09,-104.76 412.84,-86.66"/>
<polygon fill="midnightblue" stroke="midnightblue" points="292.38,-185.99 283.25,-191.36 293.74,-192.86 292.38,-185.99"/>
</g>
<!-- Node11 -->
<g id="node11" class="node">
<title>Node11</title>
<g id="a_node11"><a xlink:href="SIMDCostInfo_8h.html" target="_top" xlink:title=" ">
<polygon fill="none" stroke="black" points="226,-123.5 226,-153.5 384,-153.5 384,-123.5 226,-123.5"/>
<text text-anchor="start" x="234" y="-141.5" font-family="Helvetica,sans-Serif" font-size="10.00">MACVETH/include/CostModel</text>
<text text-anchor="middle" x="305" y="-130.5" font-family="Helvetica,sans-Serif" font-size="10.00">/SIMDCostInfo.h</text>
</a>
</g>
</g>
<!-- Node9&#45;&gt;Node11 -->
<g id="edge11" class="edge">
<title>Node9&#45;&gt;Node11</title>
<path fill="none" stroke="midnightblue" d="M230.08,-185.02C246.73,-174.9 266.69,-162.77 281.83,-153.58"/>
<polygon fill="midnightblue" stroke="midnightblue" points="227.95,-182.21 221.22,-190.4 231.58,-188.2 227.95,-182.21"/>
</g>
<!-- Node12 -->
<g id="node12" class="node">
<title>Node12</title>
<g id="a_node12"><a xlink:href="AVX2BackEnd_8h.html" target="_top" xlink:title=" ">
<polygon fill="none" stroke="black" points="0,-123.5 0,-153.5 170,-153.5 170,-123.5 0,-123.5"/>
<text text-anchor="start" x="8" y="-141.5" font-family="Helvetica,sans-Serif" font-size="10.00">MACVETH/include/Vectorization</text>
<text text-anchor="middle" x="85" y="-130.5" font-family="Helvetica,sans-Serif" font-size="10.00">/SIMD/AVX2/AVX2BackEnd.h</text>
</a>
</g>
</g>
<!-- Node9&#45;&gt;Node12 -->
<g id="edge15" class="edge">
<title>Node9&#45;&gt;Node12</title>
<path fill="none" stroke="midnightblue" d="M164.61,-185.3C146.93,-175.12 125.6,-162.85 109.47,-153.58"/>
<polygon fill="midnightblue" stroke="midnightblue" points="163.07,-188.44 173.48,-190.4 166.56,-182.38 163.07,-188.44"/>
</g>
<!-- Node13 -->
<g id="node13" class="node">
<title>Node13</title>
<g id="a_node13"><a xlink:href="SIMDBackEndFactory_8h.html" target="_top" xlink:title=" ">
<polygon fill="none" stroke="black" points="57,-56.5 57,-86.5 227,-86.5 227,-56.5 57,-56.5"/>
<text text-anchor="start" x="65" y="-74.5" font-family="Helvetica,sans-Serif" font-size="10.00">MACVETH/include/Vectorization</text>
<text text-anchor="middle" x="142" y="-63.5" font-family="Helvetica,sans-Serif" font-size="10.00">/SIMD/SIMDBackEndFactory.h</text>
</a>
</g>
</g>
<!-- Node9&#45;&gt;Node13 -->
<g id="edge17" class="edge">
<title>Node9&#45;&gt;Node13</title>
<path fill="none" stroke="midnightblue" d="M194.98,-180.36C192.28,-163.68 187.41,-141.3 179,-123 172.83,-109.57 162.77,-96.16 154.7,-86.53"/>
<polygon fill="midnightblue" stroke="midnightblue" points="191.54,-181.01 196.46,-190.39 198.47,-179.99 191.54,-181.01"/>
</g>
<!-- Node11&#45;&gt;Node10 -->
<g id="edge12" class="edge">
<title>Node11&#45;&gt;Node10</title>
<path fill="none" stroke="midnightblue" d="M337.08,-118.02C353.73,-107.9 373.69,-95.77 388.83,-86.58"/>
<polygon fill="midnightblue" stroke="midnightblue" points="334.95,-115.21 328.22,-123.4 338.58,-121.2 334.95,-115.21"/>
</g>
<!-- Node12&#45;&gt;Node13 -->
<g id="edge16" class="edge">
<title>Node12&#45;&gt;Node13</title>
<path fill="none" stroke="midnightblue" d="M104.09,-115.74C112.52,-106.12 122.19,-95.09 129.66,-86.58"/>
<polygon fill="midnightblue" stroke="midnightblue" points="101.33,-113.57 97.37,-123.4 106.59,-118.18 101.33,-113.57"/>
</g>
<!-- Node14&#45;&gt;Node4 -->
<g id="edge19" class="edge">
<title>Node14&#45;&gt;Node4</title>
<path fill="none" stroke="midnightblue" d="M444.6,-316.34C453.05,-305.17 463.82,-290.93 470.56,-282.01"/>
<polygon fill="midnightblue" stroke="midnightblue" points="441.69,-314.39 438.45,-324.48 447.27,-318.61 441.69,-314.39"/>
</g>
<!-- Node14&#45;&gt;Node8 -->
<g id="edge20" class="edge">
<title>Node14&#45;&gt;Node8</title>
<path fill="none" stroke="midnightblue" d="M415.42,-316.92C408.22,-308.93 400.43,-298.7 396,-288 385.77,-263.27 385.71,-230.91 386.4,-215.46"/>
<polygon fill="midnightblue" stroke="midnightblue" points="413.1,-319.56 422.54,-324.37 418.16,-314.72 413.1,-319.56"/>
</g>
<!-- Node15 -->
<g id="node15" class="node">
<title>Node15</title>
<g id="a_node15"><a xlink:href="VectorIR_8h.html" target="_top" xlink:title=" ">
<polygon fill="none" stroke="black" points="113,-257.5 113,-287.5 283,-287.5 283,-257.5 113,-257.5"/>
<text text-anchor="start" x="121" y="-275.5" font-family="Helvetica,sans-Serif" font-size="10.00">MACVETH/include/Vectorization</text>
<text text-anchor="middle" x="198" y="-264.5" font-family="Helvetica,sans-Serif" font-size="10.00">/VectorIR.h</text>
</a>
</g>
</g>
<!-- Node14&#45;&gt;Node15 -->
<g id="edge21" class="edge">
<title>Node14&#45;&gt;Node15</title>
<path fill="none" stroke="midnightblue" d="M388.67,-321.98C350.45,-312.27 294.55,-298.05 253.15,-287.52"/>
<polygon fill="midnightblue" stroke="midnightblue" points="387.92,-325.4 398.47,-324.48 389.64,-318.62 387.92,-325.4"/>
</g>
<!-- Node15&#45;&gt;Node9 -->
<g id="edge23" class="edge">
<title>Node15&#45;&gt;Node9</title>
<path fill="none" stroke="midnightblue" d="M198,-247.11C198,-238.15 198,-228.32 198,-220.58"/>
<polygon fill="midnightblue" stroke="midnightblue" points="194.5,-247.4 198,-257.4 201.5,-247.4 194.5,-247.4"/>
</g>
<!-- Node15&#45;&gt;Node12 -->
<g id="edge22" class="edge">
<title>Node15&#45;&gt;Node12</title>
<path fill="none" stroke="midnightblue" d="M145.22,-252.93C129.93,-245.21 114.54,-234.76 104,-221 88.81,-201.16 85.45,-171.19 84.89,-153.66"/>
<polygon fill="midnightblue" stroke="midnightblue" points="144.15,-256.3 154.69,-257.39 147.13,-249.96 144.15,-256.3"/>
</g>
<!-- Node16&#45;&gt;Node5 -->
<g id="edge26" class="edge">
<title>Node16&#45;&gt;Node5</title>
<path fill="none" stroke="midnightblue" d="M659.18,-371.67C680.77,-333.78 730.62,-240.04 748,-154 750.73,-140.5 753.71,-135.54 748,-123 739.43,-104.17 719.97,-89.63 705.96,-81.08"/>
<polygon fill="midnightblue" stroke="midnightblue" points="656.08,-370.04 654.11,-380.45 662.14,-373.54 656.08,-370.04"/>
</g>
<!-- Node16&#45;&gt;Node7 -->
<g id="edge27" class="edge">
<title>Node16&#45;&gt;Node7</title>
<path fill="none" stroke="midnightblue" d="M649.3,-370.34C650.1,-320.14 652.29,-183.6 652.86,-148.05"/>
<polygon fill="midnightblue" stroke="midnightblue" points="645.8,-370.36 649.14,-380.41 652.8,-370.47 645.8,-370.36"/>
</g>
<!-- Node16&#45;&gt;Node10 -->
<g id="edge25" class="edge">
<title>Node16&#45;&gt;Node10</title>
<path fill="none" stroke="midnightblue" d="M637.58,-371.66C620.67,-346.18 587.78,-297.29 558,-257 509.93,-191.96 448.88,-117.16 423.68,-86.6"/>
<polygon fill="midnightblue" stroke="midnightblue" points="634.8,-373.8 643.23,-380.21 640.63,-369.94 634.8,-373.8"/>
</g>
<!-- Node16&#45;&gt;Node14 -->
<g id="edge28" class="edge">
<title>Node16&#45;&gt;Node14</title>
<path fill="none" stroke="midnightblue" d="M604.89,-378.02C563.9,-367.82 503.7,-352.84 466.22,-343.52"/>
<polygon fill="midnightblue" stroke="midnightblue" points="604.07,-381.43 614.62,-380.44 605.76,-374.63 604.07,-381.43"/>
</g>
<!-- Node17&#45;&gt;Node5 -->
<g id="edge30" class="edge">
<title>Node17&#45;&gt;Node5</title>
<path fill="none" stroke="midnightblue" d="M779.51,-427.2C790.59,-404.38 805,-368.28 805,-335 805,-335 805,-335 805,-204.5 805,-144.93 737.59,-99.2 705.99,-81.04"/>
<polygon fill="midnightblue" stroke="midnightblue" points="776.25,-425.9 774.87,-436.41 782.5,-429.05 776.25,-425.9"/>
</g>
<!-- Node17&#45;&gt;Node6 -->
<g id="edge33" class="edge">
<title>Node17&#45;&gt;Node6</title>
<path fill="none" stroke="midnightblue" d="M791.75,-429.49C813.93,-408.18 843,-373.01 843,-335 843,-335 843,-335 843,-137.5 843,-89.18 807.6,-39.15 792.11,-19.57"/>
<polygon fill="midnightblue" stroke="midnightblue" points="789.21,-427.07 784.25,-436.43 793.96,-432.21 789.21,-427.07"/>
</g>
<!-- Node17&#45;&gt;Node7 -->
<g id="edge31" class="edge">
<title>Node17&#45;&gt;Node7</title>
<path fill="none" stroke="midnightblue" d="M767,-426.22C767,-402.84 767,-366.51 767,-335 767,-335 767,-335 767,-271.5 767,-212.15 700.18,-166.3 668.85,-148.07"/>
<polygon fill="midnightblue" stroke="midnightblue" points="763.5,-426.28 767,-436.28 770.5,-426.28 763.5,-426.28"/>
</g>
<!-- Node17&#45;&gt;Node16 -->
<g id="edge32" class="edge">
<title>Node17&#45;&gt;Node16</title>
<path fill="none" stroke="midnightblue" d="M729.91,-431.8C708.58,-421.04 682.81,-408.05 666.17,-399.66"/>
<polygon fill="midnightblue" stroke="midnightblue" points="728.53,-435.02 739.04,-436.4 731.68,-428.77 728.53,-435.02"/>
</g>
</g>
</svg>
