<?xml version="1.0" encoding="UTF-8" standalone="no"?>
<!DOCTYPE svg PUBLIC "-//W3C//DTD SVG 1.1//EN"
 "http://www.w3.org/Graphics/SVG/1.1/DTD/svg11.dtd">
<!-- Generated by graphviz version 2.43.0 (0)
 -->
<!-- Title: MACVETH/include/MVExpr/MVDataType.h Pages: 1 -->
<svg width="1016pt" height="631pt"
 viewBox="0.00 0.00 1016.00 631.00" xmlns="http://www.w3.org/2000/svg" xmlns:xlink="http://www.w3.org/1999/xlink">
<g id="graph0" class="graph" transform="scale(1 1) rotate(0) translate(4 627)">
<title>MACVETH/include/MVExpr/MVDataType.h</title>
<!-- Node1 -->
<g id="node1" class="node">
<title>Node1</title>
<g id="a_node1"><a xlink:title=" ">
<polygon fill="#bfbfbf" stroke="black" points="687,-592.5 687,-622.5 831,-622.5 831,-592.5 687,-592.5"/>
<text text-anchor="start" x="695" y="-610.5" font-family="Helvetica,sans-Serif" font-size="10.00">MACVETH/include/MVExpr</text>
<text text-anchor="middle" x="759" y="-599.5" font-family="Helvetica,sans-Serif" font-size="10.00">/MVDataType.h</text>
</a>
</g>
</g>
<!-- Node2 -->
<g id="node2" class="node">
<title>Node2</title>
<g id="a_node2"><a xlink:href="MVExpr_8h.html" target="_top" xlink:title=" ">
<polygon fill="none" stroke="black" points="380,-525.5 380,-555.5 524,-555.5 524,-525.5 380,-525.5"/>
<text text-anchor="start" x="388" y="-543.5" font-family="Helvetica,sans-Serif" font-size="10.00">MACVETH/include/MVExpr</text>
<text text-anchor="middle" x="452" y="-532.5" font-family="Helvetica,sans-Serif" font-size="10.00">/MVExpr.h</text>
</a>
</g>
</g>
<!-- Node1&#45;&gt;Node2 -->
<g id="edge1" class="edge">
<title>Node1&#45;&gt;Node2</title>
<path fill="none" stroke="midnightblue" d="M682.88,-590.38C632.38,-579.69 566.75,-565.8 518.38,-555.55"/>
<polygon fill="midnightblue" stroke="midnightblue" points="682.26,-593.83 692.76,-592.48 683.71,-586.98 682.26,-593.83"/>
</g>
<!-- Node4 -->
<g id="node4" class="node">
<title>Node4</title>
<g id="a_node4"><a xlink:href="VectorIR_8h.html" target="_top" xlink:title=" ">
<polygon fill="none" stroke="black" points="580,-257.5 580,-287.5 750,-287.5 750,-257.5 580,-257.5"/>
<text text-anchor="start" x="588" y="-275.5" font-family="Helvetica,sans-Serif" font-size="10.00">MACVETH/include/Vectorization</text>
<text text-anchor="middle" x="665" y="-264.5" font-family="Helvetica,sans-Serif" font-size="10.00">/VectorIR.h</text>
</a>
</g>
</g>
<!-- Node1&#45;&gt;Node4 -->
<g id="edge41" class="edge">
<title>Node1&#45;&gt;Node4</title>
<path fill="none" stroke="midnightblue" d="M761.12,-582.17C764.47,-531.09 766.49,-410.25 721,-324 713.18,-309.18 699.18,-296.55 687.14,-287.63"/>
<polygon fill="midnightblue" stroke="midnightblue" points="757.62,-582.02 760.38,-592.25 764.6,-582.53 757.62,-582.02"/>
</g>
<!-- Node7 -->
<g id="node7" class="node">
<title>Node7</title>
<g id="a_node7"><a xlink:href="SIMDBackEnd_8h.html" target="_top" xlink:title=" ">
<polygon fill="none" stroke="black" points="580,-190.5 580,-220.5 750,-220.5 750,-190.5 580,-190.5"/>
<text text-anchor="start" x="588" y="-208.5" font-family="Helvetica,sans-Serif" font-size="10.00">MACVETH/include/Vectorization</text>
<text text-anchor="middle" x="665" y="-197.5" font-family="Helvetica,sans-Serif" font-size="10.00">/SIMD/SIMDBackEnd.h</text>
</a>
</g>
</g>
<!-- Node1&#45;&gt;Node7 -->
<g id="edge40" class="edge">
<title>Node1&#45;&gt;Node7</title>
<path fill="none" stroke="midnightblue" d="M766.8,-582.46C784.72,-522.46 822.6,-363.36 759,-257 748.83,-239.99 730.74,-228.37 713.12,-220.62"/>
<polygon fill="midnightblue" stroke="midnightblue" points="763.41,-581.57 763.82,-592.16 770.1,-583.63 763.41,-581.57"/>
</g>
<!-- Node21 -->
<g id="node21" class="node">
<title>Node21</title>
<g id="a_node21"><a xlink:href="IntelIntrinsics_8h.html" target="_top" xlink:title=" ">
<polygon fill="none" stroke="black" points="822,-391.5 822,-421.5 992,-421.5 992,-391.5 822,-391.5"/>
<text text-anchor="start" x="830" y="-409.5" font-family="Helvetica,sans-Serif" font-size="10.00">MACVETH/include/Vectorization</text>
<text text-anchor="middle" x="907" y="-398.5" font-family="Helvetica,sans-Serif" font-size="10.00">/SIMD/IntelIntrinsics.h</text>
</a>
</g>
</g>
<!-- Node1&#45;&gt;Node21 -->
<g id="edge38" class="edge">
<title>Node1&#45;&gt;Node21</title>
<path fill="none" stroke="midnightblue" d="M775.65,-584.11C806.35,-542.83 871.06,-455.83 896.45,-421.68"/>
<polygon fill="midnightblue" stroke="midnightblue" points="772.8,-582.08 769.64,-592.19 778.42,-586.25 772.8,-582.08"/>
</g>
<!-- Node3 -->
<g id="node3" class="node">
<title>Node3</title>
<g id="a_node3"><a xlink:href="MVExprArray_8h.html" target="_top" xlink:title=" ">
<polygon fill="none" stroke="black" points="568,-324.5 568,-354.5 712,-354.5 712,-324.5 568,-324.5"/>
<text text-anchor="start" x="576" y="-342.5" font-family="Helvetica,sans-Serif" font-size="10.00">MACVETH/include/MVExpr</text>
<text text-anchor="middle" x="640" y="-331.5" font-family="Helvetica,sans-Serif" font-size="10.00">/MVExprArray.h</text>
</a>
</g>
</g>
<!-- Node2&#45;&gt;Node3 -->
<g id="edge2" class="edge">
<title>Node2&#45;&gt;Node3</title>
<path fill="none" stroke="midnightblue" d="M534.14,-526.71C558.18,-519.29 582.63,-507.55 600,-489 635.77,-450.8 640.21,-384.05 640.33,-354.85"/>
<polygon fill="midnightblue" stroke="midnightblue" points="532.9,-523.43 524.25,-529.54 534.83,-530.16 532.9,-523.43"/>
</g>
<!-- Node13 -->
<g id="node13" class="node">
<title>Node13</title>
<g id="a_node13"><a xlink:href="MVExprFactory_8h.html" target="_top" xlink:title=" ">
<polygon fill="none" stroke="black" points="430,-458.5 430,-488.5 574,-488.5 574,-458.5 430,-458.5"/>
<text text-anchor="start" x="438" y="-476.5" font-family="Helvetica,sans-Serif" font-size="10.00">MACVETH/include/MVExpr</text>
<text text-anchor="middle" x="502" y="-465.5" font-family="Helvetica,sans-Serif" font-size="10.00">/MVExprFactory.h</text>
</a>
</g>
</g>
<!-- Node2&#45;&gt;Node13 -->
<g id="edge16" class="edge">
<title>Node2&#45;&gt;Node13</title>
<path fill="none" stroke="midnightblue" d="M468.96,-517.45C476.31,-507.9 484.69,-497 491.17,-488.58"/>
<polygon fill="midnightblue" stroke="midnightblue" points="466.17,-515.34 462.85,-525.4 471.72,-519.6 466.17,-515.34"/>
</g>
<!-- Node14 -->
<g id="node14" class="node">
<title>Node14</title>
<g id="a_node14"><a xlink:href="MVExprLiteral_8h.html" target="_top" xlink:title=" ">
<polygon fill="none" stroke="black" points="0,-391.5 0,-421.5 144,-421.5 144,-391.5 0,-391.5"/>
<text text-anchor="start" x="8" y="-409.5" font-family="Helvetica,sans-Serif" font-size="10.00">MACVETH/include/MVExpr</text>
<text text-anchor="middle" x="72" y="-398.5" font-family="Helvetica,sans-Serif" font-size="10.00">/MVExprLiteral.h</text>
</a>
</g>
</g>
<!-- Node2&#45;&gt;Node14 -->
<g id="edge17" class="edge">
<title>Node2&#45;&gt;Node14</title>
<path fill="none" stroke="midnightblue" d="M369.88,-534.36C263.28,-526.84 88.52,-511.26 69,-489 52.76,-470.48 59.98,-439.48 66.27,-421.53"/>
<polygon fill="midnightblue" stroke="midnightblue" points="369.75,-537.86 379.97,-535.06 370.24,-530.88 369.75,-537.86"/>
</g>
<!-- Node15 -->
<g id="node15" class="node">
<title>Node15</title>
<g id="a_node15"><a xlink:href="Node_8h.html" target="_top" xlink:title=" ">
<polygon fill="none" stroke="black" points="231.5,-330 231.5,-349 372.5,-349 372.5,-330 231.5,-330"/>
<text text-anchor="middle" x="302" y="-337" font-family="Helvetica,sans-Serif" font-size="10.00">MACVETH/include/Node.h</text>
</a>
</g>
</g>
<!-- Node2&#45;&gt;Node15 -->
<g id="edge28" class="edge">
<title>Node2&#45;&gt;Node15</title>
<path fill="none" stroke="midnightblue" d="M435.18,-517.18C402.31,-473.58 330.83,-378.74 308.68,-349.36"/>
<polygon fill="midnightblue" stroke="midnightblue" points="432.4,-519.31 441.21,-525.19 437.99,-515.1 432.4,-519.31"/>
</g>
<!-- Node18 -->
<g id="node18" class="node">
<title>Node18</title>
<g id="a_node18"><a xlink:href="MVExprVar_8h.html" target="_top" xlink:title=" ">
<polygon fill="none" stroke="black" points="230,-458.5 230,-488.5 374,-488.5 374,-458.5 230,-458.5"/>
<text text-anchor="start" x="238" y="-476.5" font-family="Helvetica,sans-Serif" font-size="10.00">MACVETH/include/MVExpr</text>
<text text-anchor="middle" x="302" y="-465.5" font-family="Helvetica,sans-Serif" font-size="10.00">/MVExprVar.h</text>
</a>
</g>
</g>
<!-- Node2&#45;&gt;Node18 -->
<g id="edge26" class="edge">
<title>Node2&#45;&gt;Node18</title>
<path fill="none" stroke="midnightblue" d="M410.25,-521.41C386.3,-511.03 356.68,-498.2 334.48,-488.58"/>
<polygon fill="midnightblue" stroke="midnightblue" points="408.89,-524.63 419.45,-525.4 411.67,-518.21 408.89,-524.63"/>
</g>
<!-- Node19 -->
<g id="node19" class="node">
<title>Node19</title>
<g id="a_node19"><a xlink:href="StmtWrapper_8h.html" target="_top" xlink:title=" ">
<polygon fill="none" stroke="black" points="430.5,-397 430.5,-416 609.5,-416 609.5,-397 430.5,-397"/>
<text text-anchor="middle" x="520" y="-404" font-family="Helvetica,sans-Serif" font-size="10.00">MACVETH/include/StmtWrapper.h</text>
</a>
</g>
</g>
<!-- Node2&#45;&gt;Node19 -->
<g id="edge29" class="edge">
<title>Node2&#45;&gt;Node19</title>
<path fill="none" stroke="midnightblue" d="M533.81,-524.78C553.05,-517.3 571.33,-506.01 583,-489 590.8,-477.64 588.96,-470.42 583,-458 573.72,-438.67 553.03,-424.4 537.88,-416.06"/>
<polygon fill="midnightblue" stroke="midnightblue" points="532.57,-521.51 524.32,-528.15 534.91,-528.1 532.57,-521.51"/>
</g>
<!-- Node20 -->
<g id="node20" class="node">
<title>Node20</title>
<g id="a_node20"><a xlink:href="TAC_8h.html" target="_top" xlink:title=" ">
<polygon fill="none" stroke="black" points="78,-464 78,-483 212,-483 212,-464 78,-464"/>
<text text-anchor="middle" x="145" y="-471" font-family="Helvetica,sans-Serif" font-size="10.00">MACVETH/include/TAC.h</text>
</a>
</g>
</g>
<!-- Node2&#45;&gt;Node20 -->
<g id="edge34" class="edge">
<title>Node2&#45;&gt;Node20</title>
<path fill="none" stroke="midnightblue" d="M375.89,-523.39C315.54,-510.61 233.58,-493.25 185.28,-483.03"/>
<polygon fill="midnightblue" stroke="midnightblue" points="375.26,-526.83 385.76,-525.48 376.71,-519.98 375.26,-526.83"/>
</g>
<!-- Node3&#45;&gt;Node4 -->
<g id="edge3" class="edge">
<title>Node3&#45;&gt;Node4</title>
<path fill="none" stroke="midnightblue" d="M649.04,-314.99C652.58,-305.8 656.51,-295.58 659.59,-287.58"/>
<polygon fill="midnightblue" stroke="midnightblue" points="645.75,-313.81 645.42,-324.4 652.28,-316.32 645.75,-313.81"/>
</g>
<!-- Node5 -->
<g id="node5" class="node">
<title>Node5</title>
<g id="a_node5"><a xlink:href="AVX2BackEnd_8h.html" target="_top" xlink:title=" ">
<polygon fill="none" stroke="black" points="838,-123.5 838,-153.5 1008,-153.5 1008,-123.5 838,-123.5"/>
<text text-anchor="start" x="846" y="-141.5" font-family="Helvetica,sans-Serif" font-size="10.00">MACVETH/include/Vectorization</text>
<text text-anchor="middle" x="923" y="-130.5" font-family="Helvetica,sans-Serif" font-size="10.00">/SIMD/AVX2/AVX2BackEnd.h</text>
</a>
</g>
</g>
<!-- Node4&#45;&gt;Node5 -->
<g id="edge4" class="edge">
<title>Node4&#45;&gt;Node5</title>
<path fill="none" stroke="midnightblue" d="M701.55,-252.8C753.85,-226.04 848.88,-177.42 895.59,-153.52"/>
<polygon fill="midnightblue" stroke="midnightblue" points="699.92,-249.7 692.61,-257.37 703.11,-255.93 699.92,-249.7"/>
</g>
<!-- Node4&#45;&gt;Node7 -->
<g id="edge6" class="edge">
<title>Node4&#45;&gt;Node7</title>
<path fill="none" stroke="midnightblue" d="M665,-247.11C665,-238.15 665,-228.32 665,-220.58"/>
<polygon fill="midnightblue" stroke="midnightblue" points="661.5,-247.4 665,-257.4 668.5,-247.4 661.5,-247.4"/>
</g>
<!-- Node6 -->
<g id="node6" class="node">
<title>Node6</title>
<g id="a_node6"><a xlink:href="SIMDBackEndFactory_8h.html" target="_top" xlink:title=" ">
<polygon fill="none" stroke="black" points="800,-56.5 800,-86.5 970,-86.5 970,-56.5 800,-56.5"/>
<text text-anchor="start" x="808" y="-74.5" font-family="Helvetica,sans-Serif" font-size="10.00">MACVETH/include/Vectorization</text>
<text text-anchor="middle" x="885" y="-63.5" font-family="Helvetica,sans-Serif" font-size="10.00">/SIMD/SIMDBackEndFactory.h</text>
</a>
</g>
</g>
<!-- Node5&#45;&gt;Node6 -->
<g id="edge5" class="edge">
<title>Node5&#45;&gt;Node6</title>
<path fill="none" stroke="midnightblue" d="M909.6,-114.58C904.14,-105.24 898.01,-94.75 893.23,-86.58"/>
<polygon fill="midnightblue" stroke="midnightblue" points="906.69,-116.53 914.75,-123.4 912.73,-113 906.69,-116.53"/>
</g>
<!-- Node7&#45;&gt;Node5 -->
<g id="edge14" class="edge">
<title>Node7&#45;&gt;Node5</title>
<path fill="none" stroke="midnightblue" d="M730.55,-187.98C772.7,-177.37 826.86,-163.72 866.99,-153.61"/>
<polygon fill="midnightblue" stroke="midnightblue" points="729.51,-184.64 720.66,-190.48 731.22,-191.43 729.51,-184.64"/>
</g>
<!-- Node7&#45;&gt;Node6 -->
<g id="edge15" class="edge">
<title>Node7&#45;&gt;Node6</title>
<path fill="none" stroke="midnightblue" d="M707.15,-186.2C726.67,-177.23 749.93,-165.82 770,-154 805.84,-132.88 844.79,-103.87 866.92,-86.76"/>
<polygon fill="midnightblue" stroke="midnightblue" points="705.56,-183.08 697.9,-190.4 708.45,-189.45 705.56,-183.08"/>
</g>
<!-- Node8 -->
<g id="node8" class="node">
<title>Node8</title>
<g id="a_node8"><a xlink:href="MVCostModel_8h.html" target="_top" xlink:title=" ">
<polygon fill="none" stroke="black" points="586,-56.5 586,-86.5 744,-86.5 744,-56.5 586,-56.5"/>
<text text-anchor="start" x="594" y="-74.5" font-family="Helvetica,sans-Serif" font-size="10.00">MACVETH/include/CostModel</text>
<text text-anchor="middle" x="665" y="-63.5" font-family="Helvetica,sans-Serif" font-size="10.00">/MVCostModel.h</text>
</a>
</g>
</g>
<!-- Node7&#45;&gt;Node8 -->
<g id="edge7" class="edge">
<title>Node7&#45;&gt;Node8</title>
<path fill="none" stroke="midnightblue" d="M717.89,-185.7C731.75,-178.09 745.03,-167.75 753,-154 759.9,-142.08 759.9,-134.92 753,-123 743.29,-106.23 725.68,-94.55 708.75,-86.68"/>
<polygon fill="midnightblue" stroke="midnightblue" points="716.09,-182.69 708.75,-190.32 719.25,-188.93 716.09,-182.69"/>
</g>
<!-- Node9 -->
<g id="node9" class="node">
<title>Node9</title>
<g id="a_node9"><a xlink:href="SIMDCostInfo_8h.html" target="_top" xlink:title=" ">
<polygon fill="none" stroke="black" points="586,-123.5 586,-153.5 744,-153.5 744,-123.5 586,-123.5"/>
<text text-anchor="start" x="594" y="-141.5" font-family="Helvetica,sans-Serif" font-size="10.00">MACVETH/include/CostModel</text>
<text text-anchor="middle" x="665" y="-130.5" font-family="Helvetica,sans-Serif" font-size="10.00">/SIMDCostInfo.h</text>
</a>
</g>
</g>
<!-- Node7&#45;&gt;Node9 -->
<g id="edge8" class="edge">
<title>Node7&#45;&gt;Node9</title>
<path fill="none" stroke="midnightblue" d="M665,-180.11C665,-171.15 665,-161.32 665,-153.58"/>
<polygon fill="midnightblue" stroke="midnightblue" points="661.5,-180.4 665,-190.4 668.5,-180.4 661.5,-180.4"/>
</g>
<!-- Node10 -->
<g id="node10" class="node">
<title>Node10</title>
<g id="a_node10"><a xlink:href="MVFrontend_8h.html" target="_top" xlink:title=" ">
<polygon fill="none" stroke="black" points="262,-62 262,-81 436,-81 436,-62 262,-62"/>
<text text-anchor="middle" x="349" y="-69" font-family="Helvetica,sans-Serif" font-size="10.00">MACVETH/include/MVFrontend.h</text>
</a>
</g>
</g>
<!-- Node7&#45;&gt;Node10 -->
<g id="edge10" class="edge">
<title>Node7&#45;&gt;Node10</title>
<path fill="none" stroke="midnightblue" d="M630.24,-185.44C597.49,-167.91 546.75,-141.86 501,-123 459.48,-105.89 409.85,-90.27 378.87,-81.07"/>
<polygon fill="midnightblue" stroke="midnightblue" points="628.93,-188.71 639.39,-190.36 632.24,-182.54 628.93,-188.71"/>
</g>
<!-- Node12 -->
<g id="node12" class="node">
<title>Node12</title>
<g id="a_node12"><a xlink:href="MVRewriter_8h.html" target="_top" xlink:title=" ">
<polygon fill="none" stroke="black" points="320,-129 320,-148 492,-148 492,-129 320,-129"/>
<text text-anchor="middle" x="406" y="-136" font-family="Helvetica,sans-Serif" font-size="10.00">MACVETH/include/MVRewriter.h</text>
</a>
</g>
</g>
<!-- Node7&#45;&gt;Node12 -->
<g id="edge12" class="edge">
<title>Node7&#45;&gt;Node12</title>
<path fill="none" stroke="midnightblue" d="M599.21,-187.99C548.46,-175.25 480.31,-158.15 439.98,-148.03"/>
<polygon fill="midnightblue" stroke="midnightblue" points="598.57,-191.44 609.12,-190.48 600.27,-184.65 598.57,-191.44"/>
</g>
<!-- Node9&#45;&gt;Node8 -->
<g id="edge9" class="edge">
<title>Node9&#45;&gt;Node8</title>
<path fill="none" stroke="midnightblue" d="M665,-113.11C665,-104.15 665,-94.32 665,-86.58"/>
<polygon fill="midnightblue" stroke="midnightblue" points="661.5,-113.4 665,-123.4 668.5,-113.4 661.5,-113.4"/>
</g>
<!-- Node11 -->
<g id="node11" class="node">
<title>Node11</title>
<g id="a_node11"><a xlink:href="macveth_8cpp.html" target="_top" xlink:title=" ">
<polygon fill="none" stroke="black" points="276,-0.5 276,-19.5 422,-19.5 422,-0.5 276,-0.5"/>
<text text-anchor="middle" x="349" y="-7.5" font-family="Helvetica,sans-Serif" font-size="10.00">MACVETH/lib/macveth.cpp</text>
</a>
</g>
</g>
<!-- Node10&#45;&gt;Node11 -->
<g id="edge11" class="edge">
<title>Node10&#45;&gt;Node11</title>
<path fill="none" stroke="midnightblue" d="M349,-51.82C349,-41 349,-27.9 349,-19.51"/>
<polygon fill="midnightblue" stroke="midnightblue" points="345.5,-51.98 349,-61.98 352.5,-51.98 345.5,-51.98"/>
</g>
<!-- Node12&#45;&gt;Node10 -->
<g id="edge13" class="edge">
<title>Node12&#45;&gt;Node10</title>
<path fill="none" stroke="midnightblue" d="M391.65,-121.13C380.5,-108.42 365.48,-91.3 356.57,-81.13"/>
<polygon fill="midnightblue" stroke="midnightblue" points="389.09,-123.52 398.31,-128.73 394.35,-118.91 389.09,-123.52"/>
</g>
<!-- Node14&#45;&gt;Node15 -->
<g id="edge18" class="edge">
<title>Node14&#45;&gt;Node15</title>
<path fill="none" stroke="midnightblue" d="M131.27,-388.75C176.25,-376.04 236.24,-359.09 271.82,-349.03"/>
<polygon fill="midnightblue" stroke="midnightblue" points="130.29,-385.39 121.62,-391.48 132.2,-392.12 130.29,-385.39"/>
</g>
<!-- Node15&#45;&gt;Node4 -->
<g id="edge25" class="edge">
<title>Node15&#45;&gt;Node4</title>
<path fill="none" stroke="midnightblue" d="M359.72,-328.16C421.01,-317.19 518.26,-299.78 586.49,-287.56"/>
<polygon fill="midnightblue" stroke="midnightblue" points="359.06,-324.73 349.83,-329.94 360.29,-331.62 359.06,-324.73"/>
</g>
<!-- Node16 -->
<g id="node16" class="node">
<title>Node16</title>
<g id="a_node16"><a xlink:href="CDAG_8h.html" target="_top" xlink:title=" ">
<polygon fill="none" stroke="black" points="123,-263 123,-282 267,-282 267,-263 123,-263"/>
<text text-anchor="middle" x="195" y="-270" font-family="Helvetica,sans-Serif" font-size="10.00">MACVETH/include/CDAG.h</text>
</a>
</g>
</g>
<!-- Node15&#45;&gt;Node16 -->
<g id="edge19" class="edge">
<title>Node15&#45;&gt;Node16</title>
<path fill="none" stroke="midnightblue" d="M278.86,-324.44C257.67,-311.57 226.98,-292.93 209.2,-282.13"/>
<polygon fill="midnightblue" stroke="midnightblue" points="277.21,-327.53 287.57,-329.73 280.84,-321.55 277.21,-327.53"/>
</g>
<!-- Node17 -->
<g id="node17" class="node">
<title>Node17</title>
<g id="a_node17"><a xlink:href="PlcmntAlgo_8h.html" target="_top" xlink:title=" ">
<polygon fill="none" stroke="black" points="216.5,-196 216.5,-215 387.5,-215 387.5,-196 216.5,-196"/>
<text text-anchor="middle" x="302" y="-203" font-family="Helvetica,sans-Serif" font-size="10.00">MACVETH/include/PlcmntAlgo.h</text>
</a>
</g>
</g>
<!-- Node15&#45;&gt;Node17 -->
<g id="edge24" class="edge">
<title>Node15&#45;&gt;Node17</title>
<path fill="none" stroke="midnightblue" d="M302,-319.78C302,-290.75 302,-236.04 302,-215.02"/>
<polygon fill="midnightblue" stroke="midnightblue" points="298.5,-319.84 302,-329.84 305.5,-319.84 298.5,-319.84"/>
</g>
<!-- Node16&#45;&gt;Node7 -->
<g id="edge23" class="edge">
<title>Node16&#45;&gt;Node7</title>
<path fill="none" stroke="midnightblue" d="M266.91,-261.55C351.09,-249.91 490.34,-230.66 579.84,-218.28"/>
<polygon fill="midnightblue" stroke="midnightblue" points="266.35,-258.1 256.93,-262.94 267.31,-265.03 266.35,-258.1"/>
</g>
<!-- Node16&#45;&gt;Node10 -->
<g id="edge20" class="edge">
<title>Node16&#45;&gt;Node10</title>
<path fill="none" stroke="midnightblue" d="M188.8,-252.93C184.18,-235.7 180.19,-209.8 190,-190 218.42,-132.64 289.82,-96.49 326.49,-81.1"/>
<polygon fill="midnightblue" stroke="midnightblue" points="185.55,-254.29 191.79,-262.85 192.26,-252.27 185.55,-254.29"/>
</g>
<!-- Node16&#45;&gt;Node12 -->
<g id="edge21" class="edge">
<title>Node16&#45;&gt;Node12</title>
<path fill="none" stroke="midnightblue" d="M192.3,-252.54C190.82,-234.23 191.76,-206.88 207,-190 224.97,-170.09 290.59,-156.14 341.62,-148.02"/>
<polygon fill="midnightblue" stroke="midnightblue" points="188.84,-253.04 193.43,-262.59 195.79,-252.26 188.84,-253.04"/>
</g>
<!-- Node16&#45;&gt;Node17 -->
<g id="edge22" class="edge">
<title>Node16&#45;&gt;Node17</title>
<path fill="none" stroke="midnightblue" d="M218.14,-257.44C239.33,-244.57 270.02,-225.93 287.8,-215.13"/>
<polygon fill="midnightblue" stroke="midnightblue" points="216.16,-254.55 209.43,-262.73 219.79,-260.53 216.16,-254.55"/>
</g>
<!-- Node18&#45;&gt;Node15 -->
<g id="edge27" class="edge">
<title>Node18&#45;&gt;Node15</title>
<path fill="none" stroke="midnightblue" d="M302,-448.32C302,-418.38 302,-368.91 302,-349.1"/>
<polygon fill="midnightblue" stroke="midnightblue" points="298.5,-448.37 302,-458.37 305.5,-448.37 298.5,-448.37"/>
</g>
<!-- Node19&#45;&gt;Node8 -->
<g id="edge30" class="edge">
<title>Node19&#45;&gt;Node8</title>
<path fill="none" stroke="midnightblue" d="M520,-386.72C520,-361.12 520,-313.84 520,-273.5 520,-273.5 520,-273.5 520,-204.5 520,-145.61 586.22,-106.03 629.16,-86.56"/>
<polygon fill="midnightblue" stroke="midnightblue" points="516.5,-386.85 520,-396.85 523.5,-386.85 516.5,-386.85"/>
</g>
<!-- Node19&#45;&gt;Node10 -->
<g id="edge31" class="edge">
<title>Node19&#45;&gt;Node10</title>
<path fill="none" stroke="midnightblue" d="M507.07,-388.53C499.95,-378.91 491.13,-366.51 484,-355 440.23,-284.35 457.33,-246.09 396,-190 365.72,-162.31 333.66,-188.2 311,-154 294.62,-129.27 323.49,-96.36 339.46,-81.03"/>
<polygon fill="midnightblue" stroke="midnightblue" points="504.47,-390.9 513.27,-396.8 510.07,-386.7 504.47,-390.9"/>
</g>
<!-- Node19&#45;&gt;Node12 -->
<g id="edge32" class="edge">
<title>Node19&#45;&gt;Node12</title>
<path fill="none" stroke="midnightblue" d="M512.75,-387.32C497.82,-350.06 462.32,-262.46 430,-190 423.36,-175.11 415.1,-158.01 410.2,-148.02"/>
<polygon fill="midnightblue" stroke="midnightblue" points="509.58,-388.83 516.55,-396.81 516.08,-386.23 509.58,-388.83"/>
</g>
<!-- Node19&#45;&gt;Node15 -->
<g id="edge33" class="edge">
<title>Node19&#45;&gt;Node15</title>
<path fill="none" stroke="midnightblue" d="M481.46,-394.01C438.32,-381.15 369.39,-360.59 330.72,-349.06"/>
<polygon fill="midnightblue" stroke="midnightblue" points="480.47,-397.37 491.05,-396.87 482.47,-390.66 480.47,-397.37"/>
</g>
<!-- Node20&#45;&gt;Node15 -->
<g id="edge36" class="edge">
<title>Node20&#45;&gt;Node15</title>
<path fill="none" stroke="midnightblue" d="M163.3,-457.12C196.55,-429.16 265.87,-370.88 291.86,-349.02"/>
<polygon fill="midnightblue" stroke="midnightblue" points="160.7,-454.72 155.3,-463.84 165.21,-460.08 160.7,-454.72"/>
</g>
<!-- Node20&#45;&gt;Node16 -->
<g id="edge35" class="edge">
<title>Node20&#45;&gt;Node16</title>
<path fill="none" stroke="midnightblue" d="M149.63,-454.07C160.09,-412.43 185.23,-312.39 192.8,-282.24"/>
<polygon fill="midnightblue" stroke="midnightblue" points="146.19,-453.4 147.15,-463.95 152.98,-455.1 146.19,-453.4"/>
</g>
<!-- Node20&#45;&gt;Node19 -->
<g id="edge37" class="edge">
<title>Node20&#45;&gt;Node19</title>
<path fill="none" stroke="midnightblue" d="M198.82,-462.09C206.27,-460.69 213.82,-459.29 221,-458 307.27,-442.49 407.8,-425.79 467.55,-416.01"/>
<polygon fill="midnightblue" stroke="midnightblue" points="197.95,-458.69 188.78,-463.98 199.25,-465.57 197.95,-458.69"/>
</g>
<!-- Node21&#45;&gt;Node5 -->
<g id="edge39" class="edge">
<title>Node21&#45;&gt;Node5</title>
<path fill="none" stroke="midnightblue" d="M908.47,-381.07C911.75,-326.57 919.57,-196.52 922.15,-153.55"/>
<polygon fill="midnightblue" stroke="midnightblue" points="904.97,-381.01 907.86,-391.2 911.95,-381.43 904.97,-381.01"/>
</g>
</g>
</svg>
