<?xml version="1.0" encoding="UTF-8" standalone="no"?>
<!DOCTYPE svg PUBLIC "-//W3C//DTD SVG 1.1//EN"
 "http://www.w3.org/Graphics/SVG/1.1/DTD/svg11.dtd">
<!-- Generated by graphviz version 2.43.0 (0)
 -->
<!-- Title: MACVETH/include/MVExpr/MVDataType.h Pages: 1 -->
<svg width="152pt" height="95pt"
 viewBox="0.00 0.00 152.00 95.00" xmlns="http://www.w3.org/2000/svg" xmlns:xlink="http://www.w3.org/1999/xlink">
<g id="graph0" class="graph" transform="scale(1 1) rotate(0) translate(4 91)">
<title>MACVETH/include/MVExpr/MVDataType.h</title>
<!-- Node1 -->
<g id="node1" class="node">
<title>Node1</title>
<g id="a_node1"><a xlink:title=" ">
<polygon fill="#bfbfbf" stroke="black" points="0,-56.5 0,-86.5 144,-86.5 144,-56.5 0,-56.5"/>
<text text-anchor="start" x="8" y="-74.5" font-family="Helvetica,sans-Serif" font-size="10.00">MACVETH/include/MVExpr</text>
<text text-anchor="middle" x="72" y="-63.5" font-family="Helvetica,sans-Serif" font-size="10.00">/MVDataType.h</text>
</a>
</g>
</g>
<!-- Node2 -->
<g id="node2" class="node">
<title>Node2</title>
<g id="a_node2"><a xlink:title=" ">
<polygon fill="none" stroke="#bfbfbf" points="24,-0.5 24,-19.5 62,-19.5 62,-0.5 24,-0.5"/>
<text text-anchor="middle" x="43" y="-7.5" font-family="Helvetica,sans-Serif" font-size="10.00">map</text>
</a>
</g>
</g>
<!-- Node1&#45;&gt;Node2 -->
<g id="edge1" class="edge">
<title>Node1&#45;&gt;Node2</title>
<path fill="none" stroke="midnightblue" d="M65.13,-56.4C61.09,-48.11 55.94,-37.55 51.63,-28.71"/>
<polygon fill="midnightblue" stroke="midnightblue" points="54.75,-27.11 47.22,-19.66 48.45,-30.18 54.75,-27.11"/>
</g>
<!-- Node3 -->
<g id="node3" class="node">
<title>Node3</title>
<g id="a_node3"><a xlink:title=" ">
<polygon fill="none" stroke="#bfbfbf" points="80,-0.5 80,-19.5 124,-19.5 124,-0.5 80,-0.5"/>
<text text-anchor="middle" x="102" y="-7.5" font-family="Helvetica,sans-Serif" font-size="10.00">string</text>
</a>
</g>
</g>
<!-- Node1&#45;&gt;Node3 -->
<g id="edge2" class="edge">
<title>Node1&#45;&gt;Node3</title>
<path fill="none" stroke="midnightblue" d="M79.11,-56.4C83.29,-48.11 88.61,-37.55 93.07,-28.71"/>
<polygon fill="midnightblue" stroke="midnightblue" points="96.26,-30.16 97.63,-19.66 90.01,-27.01 96.26,-30.16"/>
</g>
</g>
</svg>
