<?xml version="1.0" encoding="UTF-8" standalone="no"?>
<!DOCTYPE svg PUBLIC "-//W3C//DTD SVG 1.1//EN"
 "http://www.w3.org/Graphics/SVG/1.1/DTD/svg11.dtd">
<!-- Generated by graphviz version 2.43.0 (0)
 -->
<!-- Title: MACVETH/include/MVExpr/MVExprLiteral.h Pages: 1 -->
<svg width="672pt" height="419pt"
 viewBox="0.00 0.00 672.04 419.00" xmlns="http://www.w3.org/2000/svg" xmlns:xlink="http://www.w3.org/1999/xlink">
<g id="graph0" class="graph" transform="scale(1 1) rotate(0) translate(4 415)">
<title>MACVETH/include/MVExpr/MVExprLiteral.h</title>
<!-- Node1 -->
<g id="node1" class="node">
<title>Node1</title>
<g id="a_node1"><a xlink:title=" ">
<polygon fill="#bfbfbf" stroke="black" points="180.04,-380.5 180.04,-410.5 324.04,-410.5 324.04,-380.5 180.04,-380.5"/>
<text text-anchor="start" x="188.04" y="-398.5" font-family="Helvetica,sans-Serif" font-size="10.00">MACVETH/include/MVExpr</text>
<text text-anchor="middle" x="252.04" y="-387.5" font-family="Helvetica,sans-Serif" font-size="10.00">/MVExprLiteral.h</text>
</a>
</g>
</g>
<!-- Node2 -->
<g id="node2" class="node">
<title>Node2</title>
<g id="a_node2"><a xlink:href="Node_8h.html" target="_top" xlink:title=" ">
<polygon fill="none" stroke="black" points="181.54,-324.5 181.54,-343.5 322.54,-343.5 322.54,-324.5 181.54,-324.5"/>
<text text-anchor="middle" x="252.04" y="-331.5" font-family="Helvetica,sans-Serif" font-size="10.00">MACVETH/include/Node.h</text>
</a>
</g>
</g>
<!-- Node1&#45;&gt;Node2 -->
<g id="edge1" class="edge">
<title>Node1&#45;&gt;Node2</title>
<path fill="none" stroke="midnightblue" d="M252.04,-370.29C252.04,-360.86 252.04,-350.65 252.04,-343.66"/>
<polygon fill="midnightblue" stroke="midnightblue" points="248.54,-370.4 252.04,-380.4 255.54,-370.4 248.54,-370.4"/>
</g>
<!-- Node3 -->
<g id="node3" class="node">
<title>Node3</title>
<g id="a_node3"><a xlink:href="CDAG_8h.html" target="_top" xlink:title=" ">
<polygon fill="none" stroke="black" points="80.04,-263 80.04,-282 224.04,-282 224.04,-263 80.04,-263"/>
<text text-anchor="middle" x="152.04" y="-270" font-family="Helvetica,sans-Serif" font-size="10.00">MACVETH/include/CDAG.h</text>
</a>
</g>
</g>
<!-- Node2&#45;&gt;Node3 -->
<g id="edge2" class="edge">
<title>Node2&#45;&gt;Node3</title>
<path fill="none" stroke="midnightblue" d="M228.92,-319.24C209.6,-307.75 182.67,-291.72 166.34,-282.01"/>
<polygon fill="midnightblue" stroke="midnightblue" points="227.33,-322.37 237.71,-324.48 230.91,-316.35 227.33,-322.37"/>
</g>
<!-- Node7 -->
<g id="node7" class="node">
<title>Node7</title>
<g id="a_node7"><a xlink:href="PlcmntAlgo_8h.html" target="_top" xlink:title=" ">
<polygon fill="none" stroke="black" points="128.54,-196 128.54,-215 299.54,-215 299.54,-196 128.54,-196"/>
<text text-anchor="middle" x="214.04" y="-203" font-family="Helvetica,sans-Serif" font-size="10.00">MACVETH/include/PlcmntAlgo.h</text>
</a>
</g>
</g>
<!-- Node2&#45;&gt;Node7 -->
<g id="edge17" class="edge">
<title>Node2&#45;&gt;Node7</title>
<path fill="none" stroke="midnightblue" d="M248.07,-314.62C244.57,-299.12 239.1,-276.43 233.04,-257 228.41,-242.16 221.8,-225.33 217.72,-215.33"/>
<polygon fill="midnightblue" stroke="midnightblue" points="244.67,-315.47 250.25,-324.48 251.51,-313.96 244.67,-315.47"/>
</g>
<!-- Node13 -->
<g id="node13" class="node">
<title>Node13</title>
<g id="a_node13"><a xlink:href="VectorIR_8h.html" target="_top" xlink:title=" ">
<polygon fill="none" stroke="black" points="318.04,-257.5 318.04,-287.5 488.04,-287.5 488.04,-257.5 318.04,-257.5"/>
<text text-anchor="start" x="326.04" y="-275.5" font-family="Helvetica,sans-Serif" font-size="10.00">MACVETH/include/Vectorization</text>
<text text-anchor="middle" x="403.04" y="-264.5" font-family="Helvetica,sans-Serif" font-size="10.00">/VectorIR.h</text>
</a>
</g>
</g>
<!-- Node2&#45;&gt;Node13 -->
<g id="edge18" class="edge">
<title>Node2&#45;&gt;Node13</title>
<path fill="none" stroke="midnightblue" d="M283.21,-320.72C307.72,-311.06 341.87,-297.6 367.45,-287.52"/>
<polygon fill="midnightblue" stroke="midnightblue" points="281.7,-317.55 273.68,-324.48 284.26,-324.07 281.7,-317.55"/>
</g>
<!-- Node4 -->
<g id="node4" class="node">
<title>Node4</title>
<g id="a_node4"><a xlink:href="MVFrontend_8h.html" target="_top" xlink:title=" ">
<polygon fill="none" stroke="black" points="13.04,-62 13.04,-81 187.04,-81 187.04,-62 13.04,-62"/>
<text text-anchor="middle" x="100.04" y="-69" font-family="Helvetica,sans-Serif" font-size="10.00">MACVETH/include/MVFrontend.h</text>
</a>
</g>
</g>
<!-- Node3&#45;&gt;Node4 -->
<g id="edge3" class="edge">
<title>Node3&#45;&gt;Node4</title>
<path fill="none" stroke="midnightblue" d="M123,-258.3C87.58,-240.4 29.44,-204.73 5.04,-154 -0.93,-141.58 -2.06,-134.81 5.04,-123 18.13,-101.23 44.12,-88.33 65.61,-81.03"/>
<polygon fill="midnightblue" stroke="midnightblue" points="121.82,-261.62 132.34,-262.88 124.9,-255.33 121.82,-261.62"/>
</g>
<!-- Node6 -->
<g id="node6" class="node">
<title>Node6</title>
<g id="a_node6"><a xlink:href="MVRewriter_8h.html" target="_top" xlink:title=" ">
<polygon fill="none" stroke="black" points="14.04,-129 14.04,-148 186.04,-148 186.04,-129 14.04,-129"/>
<text text-anchor="middle" x="100.04" y="-136" font-family="Helvetica,sans-Serif" font-size="10.00">MACVETH/include/MVRewriter.h</text>
</a>
</g>
</g>
<!-- Node3&#45;&gt;Node6 -->
<g id="edge5" class="edge">
<title>Node3&#45;&gt;Node6</title>
<path fill="none" stroke="midnightblue" d="M138.89,-254.66C132.08,-245.22 124.16,-232.97 119.04,-221 108.31,-195.88 103.09,-163.7 101.08,-148.38"/>
<polygon fill="midnightblue" stroke="midnightblue" points="136.14,-256.83 144.93,-262.74 141.75,-252.64 136.14,-256.83"/>
</g>
<!-- Node3&#45;&gt;Node7 -->
<g id="edge7" class="edge">
<title>Node3&#45;&gt;Node7</title>
<path fill="none" stroke="midnightblue" d="M167.31,-255.5C179.46,-242.75 196.02,-225.39 205.81,-215.13"/>
<polygon fill="midnightblue" stroke="midnightblue" points="164.77,-253.08 160.4,-262.73 169.84,-257.91 164.77,-253.08"/>
</g>
<!-- Node8 -->
<g id="node8" class="node">
<title>Node8</title>
<g id="a_node8"><a xlink:href="SIMDBackEnd_8h.html" target="_top" xlink:title=" ">
<polygon fill="none" stroke="black" points="318.04,-190.5 318.04,-220.5 488.04,-220.5 488.04,-190.5 318.04,-190.5"/>
<text text-anchor="start" x="326.04" y="-208.5" font-family="Helvetica,sans-Serif" font-size="10.00">MACVETH/include/Vectorization</text>
<text text-anchor="middle" x="403.04" y="-197.5" font-family="Helvetica,sans-Serif" font-size="10.00">/SIMD/SIMDBackEnd.h</text>
</a>
</g>
</g>
<!-- Node3&#45;&gt;Node8 -->
<g id="edge8" class="edge">
<title>Node3&#45;&gt;Node8</title>
<path fill="none" stroke="midnightblue" d="M194.87,-260.41C237.37,-249.4 302.64,-232.5 348.75,-220.56"/>
<polygon fill="midnightblue" stroke="midnightblue" points="193.92,-257.04 185.11,-262.94 195.67,-263.82 193.92,-257.04"/>
</g>
<!-- Node5 -->
<g id="node5" class="node">
<title>Node5</title>
<g id="a_node5"><a xlink:href="macveth_8cpp.html" target="_top" xlink:title=" ">
<polygon fill="none" stroke="black" points="27.04,-0.5 27.04,-19.5 173.04,-19.5 173.04,-0.5 27.04,-0.5"/>
<text text-anchor="middle" x="100.04" y="-7.5" font-family="Helvetica,sans-Serif" font-size="10.00">MACVETH/lib/macveth.cpp</text>
</a>
</g>
</g>
<!-- Node4&#45;&gt;Node5 -->
<g id="edge4" class="edge">
<title>Node4&#45;&gt;Node5</title>
<path fill="none" stroke="midnightblue" d="M100.04,-51.82C100.04,-41 100.04,-27.9 100.04,-19.51"/>
<polygon fill="midnightblue" stroke="midnightblue" points="96.54,-51.98 100.04,-61.98 103.54,-51.98 96.54,-51.98"/>
</g>
<!-- Node6&#45;&gt;Node4 -->
<g id="edge6" class="edge">
<title>Node6&#45;&gt;Node4</title>
<path fill="none" stroke="midnightblue" d="M100.04,-118.54C100.04,-106.17 100.04,-90.62 100.04,-81.13"/>
<polygon fill="midnightblue" stroke="midnightblue" points="96.54,-118.73 100.04,-128.73 103.54,-118.73 96.54,-118.73"/>
</g>
<!-- Node8&#45;&gt;Node4 -->
<g id="edge12" class="edge">
<title>Node8&#45;&gt;Node4</title>
<path fill="none" stroke="midnightblue" d="M323.77,-187.91C294.27,-179.97 261.16,-168.87 233.04,-154 213.77,-143.81 213.2,-135.06 195.04,-123 169.84,-106.25 138.49,-90.48 118.87,-81.15"/>
<polygon fill="midnightblue" stroke="midnightblue" points="323.06,-191.34 333.62,-190.48 324.83,-184.57 323.06,-191.34"/>
</g>
<!-- Node8&#45;&gt;Node6 -->
<g id="edge13" class="edge">
<title>Node8&#45;&gt;Node6</title>
<path fill="none" stroke="midnightblue" d="M327.56,-188.31C268.03,-175.54 187.36,-158.23 139.8,-148.03"/>
<polygon fill="midnightblue" stroke="midnightblue" points="327.16,-191.8 337.67,-190.48 328.62,-184.96 327.16,-191.8"/>
</g>
<!-- Node9 -->
<g id="node9" class="node">
<title>Node9</title>
<g id="a_node9"><a xlink:href="MVCostModel_8h.html" target="_top" xlink:title=" ">
<polygon fill="none" stroke="black" points="261.04,-56.5 261.04,-86.5 419.04,-86.5 419.04,-56.5 261.04,-56.5"/>
<text text-anchor="start" x="269.04" y="-74.5" font-family="Helvetica,sans-Serif" font-size="10.00">MACVETH/include/CostModel</text>
<text text-anchor="middle" x="340.04" y="-63.5" font-family="Helvetica,sans-Serif" font-size="10.00">/MVCostModel.h</text>
</a>
</g>
</g>
<!-- Node8&#45;&gt;Node9 -->
<g id="edge9" class="edge">
<title>Node8&#45;&gt;Node9</title>
<path fill="none" stroke="midnightblue" d="M411.08,-180.66C415.36,-163.68 418.08,-140.81 409.04,-123 400.98,-107.11 385.32,-95.02 370.95,-86.66"/>
<polygon fill="midnightblue" stroke="midnightblue" points="407.69,-179.79 408.31,-190.37 414.42,-181.71 407.69,-179.79"/>
</g>
<!-- Node10 -->
<g id="node10" class="node">
<title>Node10</title>
<g id="a_node10"><a xlink:href="SIMDCostInfo_8h.html" target="_top" xlink:title=" ">
<polygon fill="none" stroke="black" points="242.04,-123.5 242.04,-153.5 400.04,-153.5 400.04,-123.5 242.04,-123.5"/>
<text text-anchor="start" x="250.04" y="-141.5" font-family="Helvetica,sans-Serif" font-size="10.00">MACVETH/include/CostModel</text>
<text text-anchor="middle" x="321.04" y="-130.5" font-family="Helvetica,sans-Serif" font-size="10.00">/SIMDCostInfo.h</text>
</a>
</g>
</g>
<!-- Node8&#45;&gt;Node10 -->
<g id="edge10" class="edge">
<title>Node8&#45;&gt;Node10</title>
<path fill="none" stroke="midnightblue" d="M377.39,-184.17C364.85,-174.23 350.07,-162.51 338.8,-153.58"/>
<polygon fill="midnightblue" stroke="midnightblue" points="375.24,-186.93 385.25,-190.4 379.59,-181.44 375.24,-186.93"/>
</g>
<!-- Node11 -->
<g id="node11" class="node">
<title>Node11</title>
<g id="a_node11"><a xlink:href="AVX2BackEnd_8h.html" target="_top" xlink:title=" ">
<polygon fill="none" stroke="black" points="494.04,-123.5 494.04,-153.5 664.04,-153.5 664.04,-123.5 494.04,-123.5"/>
<text text-anchor="start" x="502.04" y="-141.5" font-family="Helvetica,sans-Serif" font-size="10.00">MACVETH/include/Vectorization</text>
<text text-anchor="middle" x="579.04" y="-130.5" font-family="Helvetica,sans-Serif" font-size="10.00">/SIMD/AVX2/AVX2BackEnd.h</text>
</a>
</g>
</g>
<!-- Node8&#45;&gt;Node11 -->
<g id="edge14" class="edge">
<title>Node8&#45;&gt;Node11</title>
<path fill="none" stroke="midnightblue" d="M450.92,-186.82C479.21,-176.37 514.54,-163.32 540.93,-153.58"/>
<polygon fill="midnightblue" stroke="midnightblue" points="449.4,-183.65 441.23,-190.4 451.82,-190.21 449.4,-183.65"/>
</g>
<!-- Node12 -->
<g id="node12" class="node">
<title>Node12</title>
<g id="a_node12"><a xlink:href="SIMDBackEndFactory_8h.html" target="_top" xlink:title=" ">
<polygon fill="none" stroke="black" points="475.04,-56.5 475.04,-86.5 645.04,-86.5 645.04,-56.5 475.04,-56.5"/>
<text text-anchor="start" x="483.04" y="-74.5" font-family="Helvetica,sans-Serif" font-size="10.00">MACVETH/include/Vectorization</text>
<text text-anchor="middle" x="560.04" y="-63.5" font-family="Helvetica,sans-Serif" font-size="10.00">/SIMD/SIMDBackEndFactory.h</text>
</a>
</g>
</g>
<!-- Node8&#45;&gt;Node12 -->
<g id="edge16" class="edge">
<title>Node8&#45;&gt;Node12</title>
<path fill="none" stroke="midnightblue" d="M422.87,-182.62C438.88,-165.52 462.38,-141.61 485.04,-123 501.42,-109.55 521.38,-96.24 536.59,-86.67"/>
<polygon fill="midnightblue" stroke="midnightblue" points="419.88,-180.7 415.66,-190.42 425.02,-185.46 419.88,-180.7"/>
</g>
<!-- Node10&#45;&gt;Node9 -->
<g id="edge11" class="edge">
<title>Node10&#45;&gt;Node9</title>
<path fill="none" stroke="midnightblue" d="M328,-113.7C330.66,-104.59 333.61,-94.49 335.93,-86.58"/>
<polygon fill="midnightblue" stroke="midnightblue" points="324.61,-112.82 325.16,-123.4 331.33,-114.78 324.61,-112.82"/>
</g>
<!-- Node11&#45;&gt;Node12 -->
<g id="edge15" class="edge">
<title>Node11&#45;&gt;Node12</title>
<path fill="none" stroke="midnightblue" d="M572.08,-113.7C569.42,-104.59 566.47,-94.49 564.16,-86.58"/>
<polygon fill="midnightblue" stroke="midnightblue" points="568.75,-114.78 574.92,-123.4 575.47,-112.82 568.75,-114.78"/>
</g>
<!-- Node13&#45;&gt;Node8 -->
<g id="edge20" class="edge">
<title>Node13&#45;&gt;Node8</title>
<path fill="none" stroke="midnightblue" d="M403.04,-247.11C403.04,-238.15 403.04,-228.32 403.04,-220.58"/>
<polygon fill="midnightblue" stroke="midnightblue" points="399.54,-247.4 403.04,-257.4 406.54,-247.4 399.54,-247.4"/>
</g>
<!-- Node13&#45;&gt;Node11 -->
<g id="edge19" class="edge">
<title>Node13&#45;&gt;Node11</title>
<path fill="none" stroke="midnightblue" d="M443.67,-252.92C460.82,-244.27 480.59,-233.19 497.04,-221 524.62,-200.57 551.94,-171.07 567.04,-153.73"/>
<polygon fill="midnightblue" stroke="midnightblue" points="441.86,-249.91 434.44,-257.47 444.96,-256.19 441.86,-249.91"/>
</g>
</g>
</svg>
