<?xml version="1.0" encoding="UTF-8" standalone="no"?>
<!DOCTYPE svg PUBLIC "-//W3C//DTD SVG 1.1//EN"
 "http://www.w3.org/Graphics/SVG/1.1/DTD/svg11.dtd">
<!-- Generated by graphviz version 2.43.0 (0)
 -->
<!-- Title: MACVETH/include/MVExpr/MVExpr.h Pages: 1 -->
<!--zoomable 553 -->
<svg id="main" version="1.1" xmlns="http://www.w3.org/2000/svg" xmlns:xlink="http://www.w3.org/1999/xlink" xml:space="preserve" onload="init(evt)">
<style type="text/css"><![CDATA[
.edge:hover path { stroke: red; }
.edge:hover polygon { stroke: red; fill: red; }
]]></style>
<script type="text/javascript"><![CDATA[
var edges = document.getElementsByTagName('g');
if (edges && edges.length) {
  for (var i=0;i<edges.length;i++) {
    if (edges[i].id.substr(0,4)=='edge') {
      edges[i].setAttribute('class','edge');
    }
  }
}
]]></script>
        <defs>
                <circle id="rim" cx="0" cy="0" r="7"/>
                <circle id="rim2" cx="0" cy="0" r="3.5"/>
                <g id="zoomPlus">
                        <use xlink:href="#rim" fill="#404040">
                                <set attributeName="fill" to="#808080" begin="zoomplus.mouseover" end="zoomplus.mouseout"/>
                        </use>
                        <path d="M-4,0h8M0,-4v8" fill="none" stroke="white" stroke-width="1.5" pointer-events="none"/>
                </g>
                <g id="zoomMin">
                        <use xlink:href="#rim" fill="#404040">
                                <set attributeName="fill" to="#808080" begin="zoomminus.mouseover" end="zoomminus.mouseout"/>
                        </use>
                        <path d="M-4,0h8" fill="none" stroke="white" stroke-width="1.5" pointer-events="none"/>
                </g>
                <g id="dirArrow">
                        <path fill="none" stroke="white" stroke-width="1.5" d="M0,-3.0v7 M-2.5,-0.5L0,-3.0L2.5,-0.5"/>
                </g>
               <g id="resetDef">
                       <use xlink:href="#rim2" fill="#404040">
                               <set attributeName="fill" to="#808080" begin="reset.mouseover" end="reset.mouseout"/>
                       </use>
               </g>
        </defs>

<script type="text/javascript">
var viewWidth = 882;
var viewHeight = 553;
var sectionId = 'dynsection-1';
</script>
<script xlink:href="svgpan.js"/>
<svg id="graph" class="graph">
<g id="viewport">
<title>MACVETH/include/MVExpr/MVExpr.h</title>
<!-- Node1 -->
<g id="node1" class="node">
<title>Node1</title>
<g id="a_node1"><a xlink:title=" ">
<polygon fill="#bfbfbf" stroke="black" points="378,-514.5 378,-544.5 522,-544.5 522,-514.5 378,-514.5"/>
<text text-anchor="start" x="386" y="-532.5" font-family="Helvetica,sans-Serif" font-size="10.00">MACVETH/include/MVExpr</text>
<text text-anchor="middle" x="450" y="-521.5" font-family="Helvetica,sans-Serif" font-size="10.00">/MVExpr.h</text>
</a>
</g>
</g>
<!-- Node2 -->
<g id="node2" class="node">
<title>Node2</title>
<g id="a_node2"><a xlink:href="MVExprArray_8h.html" target="_top" xlink:title=" ">
<polygon fill="none" stroke="black" points="138,-380.5 138,-410.5 282,-410.5 282,-380.5 138,-380.5"/>
<text text-anchor="start" x="146" y="-398.5" font-family="Helvetica,sans-Serif" font-size="10.00">MACVETH/include/MVExpr</text>
<text text-anchor="middle" x="210" y="-387.5" font-family="Helvetica,sans-Serif" font-size="10.00">/MVExprArray.h</text>
</a>
</g>
</g>
<!-- Node1&#45;&gt;Node2 -->
<g id="edge1" class="edge">
<title>Node1&#45;&gt;Node2</title>
<path fill="none" stroke="midnightblue" d="M376.95,-511.72C350.35,-503.79 320.75,-492.76 296,-478 265.26,-459.67 236.58,-428.61 221.36,-410.59"/>
<polygon fill="midnightblue" stroke="midnightblue" points="376.02,-515.09 386.6,-514.5 377.96,-508.37 376.02,-515.09"/>
</g>
<!-- Node12 -->
<g id="node12" class="node">
<title>Node12</title>
<g id="a_node12"><a xlink:href="MVExprFactory_8h.html" target="_top" xlink:title=" ">
<polygon fill="none" stroke="black" points="730,-447.5 730,-477.5 874,-477.5 874,-447.5 730,-447.5"/>
<text text-anchor="start" x="738" y="-465.5" font-family="Helvetica,sans-Serif" font-size="10.00">MACVETH/include/MVExpr</text>
<text text-anchor="middle" x="802" y="-454.5" font-family="Helvetica,sans-Serif" font-size="10.00">/MVExprFactory.h</text>
</a>
</g>
</g>
<!-- Node1&#45;&gt;Node12 -->
<g id="edge15" class="edge">
<title>Node1&#45;&gt;Node12</title>
<path fill="none" stroke="midnightblue" d="M532.25,-513.31C592.09,-502.26 672.33,-487.44 729.71,-476.85"/>
<polygon fill="midnightblue" stroke="midnightblue" points="531.28,-509.93 522.08,-515.19 532.55,-516.82 531.28,-509.93"/>
</g>
<!-- Node13 -->
<g id="node13" class="node">
<title>Node13</title>
<g id="a_node13"><a xlink:href="MVExprLiteral_8h.html" target="_top" xlink:title=" ">
<polygon fill="none" stroke="black" points="338,-380.5 338,-410.5 482,-410.5 482,-380.5 338,-380.5"/>
<text text-anchor="start" x="346" y="-398.5" font-family="Helvetica,sans-Serif" font-size="10.00">MACVETH/include/MVExpr</text>
<text text-anchor="middle" x="410" y="-387.5" font-family="Helvetica,sans-Serif" font-size="10.00">/MVExprLiteral.h</text>
</a>
</g>
</g>
<!-- Node1&#45;&gt;Node13 -->
<g id="edge16" class="edge">
<title>Node1&#45;&gt;Node13</title>
<path fill="none" stroke="midnightblue" d="M402.24,-509.45C389.11,-501.74 376.45,-491.42 369,-478 356.09,-454.73 377.78,-426.91 394.22,-410.52"/>
<polygon fill="midnightblue" stroke="midnightblue" points="400.88,-512.69 411.34,-514.37 404.21,-506.54 400.88,-512.69"/>
</g>
<!-- Node14 -->
<g id="node14" class="node">
<title>Node14</title>
<g id="a_node14"><a xlink:href="Node_8h.html" target="_top" xlink:title=" ">
<polygon fill="none" stroke="black" points="340.5,-324.5 340.5,-343.5 481.5,-343.5 481.5,-324.5 340.5,-324.5"/>
<text text-anchor="middle" x="411" y="-331.5" font-family="Helvetica,sans-Serif" font-size="10.00">MACVETH/include/Node.h</text>
</a>
</g>
</g>
<!-- Node1&#45;&gt;Node14 -->
<g id="edge27" class="edge">
<title>Node1&#45;&gt;Node14</title>
<path fill="none" stroke="midnightblue" d="M405.69,-509.65C390.45,-501.58 374.18,-490.98 362,-478 339.28,-453.8 336.53,-443.33 329,-411 325.87,-397.58 321.98,-391.86 329,-380 339.84,-361.69 361.05,-350.34 379.19,-343.62"/>
<polygon fill="midnightblue" stroke="midnightblue" points="404.49,-512.97 415,-514.36 407.65,-506.72 404.49,-512.97"/>
</g>
<!-- Node17 -->
<g id="node17" class="node">
<title>Node17</title>
<g id="a_node17"><a xlink:href="MVExprVar_8h.html" target="_top" xlink:title=" ">
<polygon fill="none" stroke="black" points="378,-447.5 378,-477.5 522,-477.5 522,-447.5 378,-447.5"/>
<text text-anchor="start" x="386" y="-465.5" font-family="Helvetica,sans-Serif" font-size="10.00">MACVETH/include/MVExpr</text>
<text text-anchor="middle" x="450" y="-454.5" font-family="Helvetica,sans-Serif" font-size="10.00">/MVExprVar.h</text>
</a>
</g>
</g>
<!-- Node1&#45;&gt;Node17 -->
<g id="edge25" class="edge">
<title>Node1&#45;&gt;Node17</title>
<path fill="none" stroke="midnightblue" d="M450,-504.11C450,-495.15 450,-485.32 450,-477.58"/>
<polygon fill="midnightblue" stroke="midnightblue" points="446.5,-504.4 450,-514.4 453.5,-504.4 446.5,-504.4"/>
</g>
<!-- Node18 -->
<g id="node18" class="node">
<title>Node18</title>
<g id="a_node18"><a xlink:href="StmtWrapper_8h.html" target="_top" xlink:title=" ">
<polygon fill="none" stroke="black" points="614.5,-386 614.5,-405 793.5,-405 793.5,-386 614.5,-386"/>
<text text-anchor="middle" x="704" y="-393" font-family="Helvetica,sans-Serif" font-size="10.00">MACVETH/include/StmtWrapper.h</text>
</a>
</g>
</g>
<!-- Node1&#45;&gt;Node18 -->
<g id="edge28" class="edge">
<title>Node1&#45;&gt;Node18</title>
<path fill="none" stroke="midnightblue" d="M531.96,-519.89C590.09,-512.13 661.46,-498.72 683,-478 703.43,-458.35 704.95,-421.68 704.5,-405.07"/>
<polygon fill="midnightblue" stroke="midnightblue" points="531.48,-516.42 522.01,-521.18 532.38,-523.36 531.48,-516.42"/>
</g>
<!-- Node19 -->
<g id="node19" class="node">
<title>Node19</title>
<g id="a_node19"><a xlink:href="TAC_8h.html" target="_top" xlink:title=" ">
<polygon fill="none" stroke="black" points="540,-453 540,-472 674,-472 674,-453 540,-453"/>
<text text-anchor="middle" x="607" y="-460" font-family="Helvetica,sans-Serif" font-size="10.00">MACVETH/include/TAC.h</text>
</a>
</g>
</g>
<!-- Node1&#45;&gt;Node19 -->
<g id="edge33" class="edge">
<title>Node1&#45;&gt;Node19</title>
<path fill="none" stroke="midnightblue" d="M493.58,-510.46C523.91,-497.9 562.98,-481.72 586.45,-472.01"/>
<polygon fill="midnightblue" stroke="midnightblue" points="491.97,-507.34 484.07,-514.4 494.64,-513.8 491.97,-507.34"/>
</g>
<!-- Node3 -->
<g id="node3" class="node">
<title>Node3</title>
<g id="a_node3"><a xlink:href="VectorIR_8h.html" target="_top" xlink:title=" ">
<polygon fill="none" stroke="black" points="125,-257.5 125,-287.5 295,-287.5 295,-257.5 125,-257.5"/>
<text text-anchor="start" x="133" y="-275.5" font-family="Helvetica,sans-Serif" font-size="10.00">MACVETH/include/Vectorization</text>
<text text-anchor="middle" x="210" y="-264.5" font-family="Helvetica,sans-Serif" font-size="10.00">/VectorIR.h</text>
</a>
</g>
</g>
<!-- Node2&#45;&gt;Node3 -->
<g id="edge2" class="edge">
<title>Node2&#45;&gt;Node3</title>
<path fill="none" stroke="midnightblue" d="M210,-370.12C210,-345.44 210,-308.11 210,-287.84"/>
<polygon fill="midnightblue" stroke="midnightblue" points="206.5,-370.14 210,-380.14 213.5,-370.14 206.5,-370.14"/>
</g>
<!-- Node4 -->
<g id="node4" class="node">
<title>Node4</title>
<g id="a_node4"><a xlink:href="AVX2BackEnd_8h.html" target="_top" xlink:title=" ">
<polygon fill="none" stroke="black" points="0,-123.5 0,-153.5 170,-153.5 170,-123.5 0,-123.5"/>
<text text-anchor="start" x="8" y="-141.5" font-family="Helvetica,sans-Serif" font-size="10.00">MACVETH/include/Vectorization</text>
<text text-anchor="middle" x="85" y="-130.5" font-family="Helvetica,sans-Serif" font-size="10.00">/SIMD/AVX2/AVX2BackEnd.h</text>
</a>
</g>
</g>
<!-- Node3&#45;&gt;Node4 -->
<g id="edge3" class="edge">
<title>Node3&#45;&gt;Node4</title>
<path fill="none" stroke="midnightblue" d="M160.37,-253.08C144.5,-245.2 127.96,-234.61 116,-221 98.82,-201.44 90.73,-171.37 87.27,-153.75"/>
<polygon fill="midnightblue" stroke="midnightblue" points="159.07,-256.33 169.61,-257.41 162.04,-249.99 159.07,-256.33"/>
</g>
<!-- Node6 -->
<g id="node6" class="node">
<title>Node6</title>
<g id="a_node6"><a xlink:href="SIMDBackEnd_8h.html" target="_top" xlink:title=" ">
<polygon fill="none" stroke="black" points="125,-190.5 125,-220.5 295,-220.5 295,-190.5 125,-190.5"/>
<text text-anchor="start" x="133" y="-208.5" font-family="Helvetica,sans-Serif" font-size="10.00">MACVETH/include/Vectorization</text>
<text text-anchor="middle" x="210" y="-197.5" font-family="Helvetica,sans-Serif" font-size="10.00">/SIMD/SIMDBackEnd.h</text>
</a>
</g>
</g>
<!-- Node3&#45;&gt;Node6 -->
<g id="edge5" class="edge">
<title>Node3&#45;&gt;Node6</title>
<path fill="none" stroke="midnightblue" d="M210,-247.11C210,-238.15 210,-228.32 210,-220.58"/>
<polygon fill="midnightblue" stroke="midnightblue" points="206.5,-247.4 210,-257.4 213.5,-247.4 206.5,-247.4"/>
</g>
<!-- Node5 -->
<g id="node5" class="node">
<title>Node5</title>
<g id="a_node5"><a xlink:href="SIMDBackEndFactory_8h.html" target="_top" xlink:title=" ">
<polygon fill="none" stroke="black" points="57,-56.5 57,-86.5 227,-86.5 227,-56.5 57,-56.5"/>
<text text-anchor="start" x="65" y="-74.5" font-family="Helvetica,sans-Serif" font-size="10.00">MACVETH/include/Vectorization</text>
<text text-anchor="middle" x="142" y="-63.5" font-family="Helvetica,sans-Serif" font-size="10.00">/SIMD/SIMDBackEndFactory.h</text>
</a>
</g>
</g>
<!-- Node4&#45;&gt;Node5 -->
<g id="edge4" class="edge">
<title>Node4&#45;&gt;Node5</title>
<path fill="none" stroke="midnightblue" d="M104.09,-115.74C112.52,-106.12 122.19,-95.09 129.66,-86.58"/>
<polygon fill="midnightblue" stroke="midnightblue" points="101.33,-113.57 97.37,-123.4 106.59,-118.18 101.33,-113.57"/>
</g>
<!-- Node6&#45;&gt;Node4 -->
<g id="edge13" class="edge">
<title>Node6&#45;&gt;Node4</title>
<path fill="none" stroke="midnightblue" d="M173.87,-185.71C154.16,-175.46 130.16,-162.98 112.07,-153.58"/>
<polygon fill="midnightblue" stroke="midnightblue" points="172.39,-188.89 182.88,-190.4 175.62,-182.68 172.39,-188.89"/>
</g>
<!-- Node6&#45;&gt;Node5 -->
<g id="edge14" class="edge">
<title>Node6&#45;&gt;Node5</title>
<path fill="none" stroke="midnightblue" d="M202.75,-180.44C197.28,-163.81 189.02,-141.44 179,-123 171.94,-110.01 161.94,-96.57 154.11,-86.83"/>
<polygon fill="midnightblue" stroke="midnightblue" points="199.56,-181.98 205.93,-190.45 206.23,-179.86 199.56,-181.98"/>
</g>
<!-- Node7 -->
<g id="node7" class="node">
<title>Node7</title>
<g id="a_node7"><a xlink:href="MVCostModel_8h.html" target="_top" xlink:title=" ">
<polygon fill="none" stroke="black" points="333,-56.5 333,-86.5 491,-86.5 491,-56.5 333,-56.5"/>
<text text-anchor="start" x="341" y="-74.5" font-family="Helvetica,sans-Serif" font-size="10.00">MACVETH/include/CostModel</text>
<text text-anchor="middle" x="412" y="-63.5" font-family="Helvetica,sans-Serif" font-size="10.00">/MVCostModel.h</text>
</a>
</g>
</g>
<!-- Node6&#45;&gt;Node7 -->
<g id="edge6" class="edge">
<title>Node6&#45;&gt;Node7</title>
<path fill="none" stroke="midnightblue" d="M301.37,-188.32C340.22,-179.66 379.63,-167.91 393,-154 410.51,-135.77 413,-104.67 412.79,-86.62"/>
<polygon fill="midnightblue" stroke="midnightblue" points="300.56,-184.91 291.53,-190.45 302.04,-191.76 300.56,-184.91"/>
</g>
<!-- Node8 -->
<g id="node8" class="node">
<title>Node8</title>
<g id="a_node8"><a xlink:href="SIMDCostInfo_8h.html" target="_top" xlink:title=" ">
<polygon fill="none" stroke="black" points="226,-123.5 226,-153.5 384,-153.5 384,-123.5 226,-123.5"/>
<text text-anchor="start" x="234" y="-141.5" font-family="Helvetica,sans-Serif" font-size="10.00">MACVETH/include/CostModel</text>
<text text-anchor="middle" x="305" y="-130.5" font-family="Helvetica,sans-Serif" font-size="10.00">/SIMDCostInfo.h</text>
</a>
</g>
</g>
<!-- Node6&#45;&gt;Node8 -->
<g id="edge7" class="edge">
<title>Node6&#45;&gt;Node8</title>
<path fill="none" stroke="midnightblue" d="M238.89,-184.73C253.59,-174.68 271.11,-162.68 284.43,-153.58"/>
<polygon fill="midnightblue" stroke="midnightblue" points="236.89,-181.86 230.61,-190.4 240.84,-187.64 236.89,-181.86"/>
</g>
<!-- Node9 -->
<g id="node9" class="node">
<title>Node9</title>
<g id="a_node9"><a xlink:href="MVFrontend_8h.html" target="_top" xlink:title=" ">
<polygon fill="none" stroke="black" points="512,-62 512,-81 686,-81 686,-62 512,-62"/>
<text text-anchor="middle" x="599" y="-69" font-family="Helvetica,sans-Serif" font-size="10.00">MACVETH/include/MVFrontend.h</text>
</a>
</g>
</g>
<!-- Node6&#45;&gt;Node9 -->
<g id="edge9" class="edge">
<title>Node6&#45;&gt;Node9</title>
<path fill="none" stroke="midnightblue" d="M295.65,-188.26C332.95,-179.95 376.78,-168.5 415,-154 442.69,-143.49 447.12,-135.45 474,-123 508.83,-106.86 550.33,-90.68 575.67,-81.13"/>
<polygon fill="midnightblue" stroke="midnightblue" points="294.84,-184.86 285.82,-190.41 296.34,-191.69 294.84,-184.86"/>
</g>
<!-- Node11 -->
<g id="node11" class="node">
<title>Node11</title>
<g id="a_node11"><a xlink:href="MVRewriter_8h.html" target="_top" xlink:title=" ">
<polygon fill="none" stroke="black" points="516,-129 516,-148 688,-148 688,-129 516,-129"/>
<text text-anchor="middle" x="602" y="-136" font-family="Helvetica,sans-Serif" font-size="10.00">MACVETH/include/MVRewriter.h</text>
</a>
</g>
</g>
<!-- Node6&#45;&gt;Node11 -->
<g id="edge11" class="edge">
<title>Node6&#45;&gt;Node11</title>
<path fill="none" stroke="midnightblue" d="M304.8,-188.78C382.07,-175.97 488.26,-158.36 550.57,-148.03"/>
<polygon fill="midnightblue" stroke="midnightblue" points="303.87,-185.39 294.58,-190.48 305.01,-192.29 303.87,-185.39"/>
</g>
<!-- Node8&#45;&gt;Node7 -->
<g id="edge8" class="edge">
<title>Node8&#45;&gt;Node7</title>
<path fill="none" stroke="midnightblue" d="M337.08,-118.02C353.73,-107.9 373.69,-95.77 388.83,-86.58"/>
<polygon fill="midnightblue" stroke="midnightblue" points="334.95,-115.21 328.22,-123.4 338.58,-121.2 334.95,-115.21"/>
</g>
<!-- Node10 -->
<g id="node10" class="node">
<title>Node10</title>
<g id="a_node10"><a xlink:href="macveth_8cpp.html" target="_top" xlink:title=" ">
<polygon fill="none" stroke="black" points="526,-0.5 526,-19.5 672,-19.5 672,-0.5 526,-0.5"/>
<text text-anchor="middle" x="599" y="-7.5" font-family="Helvetica,sans-Serif" font-size="10.00">MACVETH/lib/macveth.cpp</text>
</a>
</g>
</g>
<!-- Node9&#45;&gt;Node10 -->
<g id="edge10" class="edge">
<title>Node9&#45;&gt;Node10</title>
<path fill="none" stroke="midnightblue" d="M599,-51.82C599,-41 599,-27.9 599,-19.51"/>
<polygon fill="midnightblue" stroke="midnightblue" points="595.5,-51.98 599,-61.98 602.5,-51.98 595.5,-51.98"/>
</g>
<!-- Node11&#45;&gt;Node9 -->
<g id="edge12" class="edge">
<title>Node11&#45;&gt;Node9</title>
<path fill="none" stroke="midnightblue" d="M601.12,-118.54C600.55,-106.17 599.84,-90.62 599.4,-81.13"/>
<polygon fill="midnightblue" stroke="midnightblue" points="597.64,-118.91 601.6,-128.73 604.63,-118.58 597.64,-118.91"/>
</g>
<!-- Node13&#45;&gt;Node14 -->
<g id="edge17" class="edge">
<title>Node13&#45;&gt;Node14</title>
<path fill="none" stroke="midnightblue" d="M410.41,-370.29C410.57,-360.86 410.74,-350.65 410.85,-343.66"/>
<polygon fill="midnightblue" stroke="midnightblue" points="406.91,-370.34 410.24,-380.4 413.9,-370.46 406.91,-370.34"/>
</g>
<!-- Node14&#45;&gt;Node3 -->
<g id="edge24" class="edge">
<title>Node14&#45;&gt;Node3</title>
<path fill="none" stroke="midnightblue" d="M372.52,-321.61C339.73,-311.9 292.48,-297.92 257.37,-287.52"/>
<polygon fill="midnightblue" stroke="midnightblue" points="371.62,-324.99 382.2,-324.48 373.61,-318.28 371.62,-324.99"/>
</g>
<!-- Node15 -->
<g id="node15" class="node">
<title>Node15</title>
<g id="a_node15"><a xlink:href="CDAG_8h.html" target="_top" xlink:title=" ">
<polygon fill="none" stroke="black" points="440,-263 440,-282 584,-282 584,-263 440,-263"/>
<text text-anchor="middle" x="512" y="-270" font-family="Helvetica,sans-Serif" font-size="10.00">MACVETH/include/CDAG.h</text>
</a>
</g>
</g>
<!-- Node14&#45;&gt;Node15 -->
<g id="edge18" class="edge">
<title>Node14&#45;&gt;Node15</title>
<path fill="none" stroke="midnightblue" d="M434.35,-319.24C453.86,-307.75 481.07,-291.72 497.56,-282.01"/>
<polygon fill="midnightblue" stroke="midnightblue" points="432.31,-316.38 425.47,-324.48 435.86,-322.41 432.31,-316.38"/>
</g>
<!-- Node16 -->
<g id="node16" class="node">
<title>Node16</title>
<g id="a_node16"><a xlink:href="PlcmntAlgo_8h.html" target="_top" xlink:title=" ">
<polygon fill="none" stroke="black" points="313.5,-196 313.5,-215 484.5,-215 484.5,-196 313.5,-196"/>
<text text-anchor="middle" x="399" y="-203" font-family="Helvetica,sans-Serif" font-size="10.00">MACVETH/include/PlcmntAlgo.h</text>
</a>
</g>
</g>
<!-- Node14&#45;&gt;Node16 -->
<g id="edge23" class="edge">
<title>Node14&#45;&gt;Node16</title>
<path fill="none" stroke="midnightblue" d="M409.23,-314.31C406.6,-286.58 401.76,-235.63 399.83,-215.26"/>
<polygon fill="midnightblue" stroke="midnightblue" points="405.75,-314.68 410.18,-324.31 412.72,-314.02 405.75,-314.68"/>
</g>
<!-- Node15&#45;&gt;Node6 -->
<g id="edge22" class="edge">
<title>Node15&#45;&gt;Node6</title>
<path fill="none" stroke="midnightblue" d="M462.39,-260.82C411.33,-249.83 331.5,-232.65 275.32,-220.56"/>
<polygon fill="midnightblue" stroke="midnightblue" points="461.7,-264.25 472.21,-262.94 463.17,-257.41 461.7,-264.25"/>
</g>
<!-- Node15&#45;&gt;Node9 -->
<g id="edge19" class="edge">
<title>Node15&#45;&gt;Node9</title>
<path fill="none" stroke="midnightblue" d="M505.49,-253.17C496.17,-223.49 482.66,-164.12 507,-123 519.81,-101.36 545.54,-88.38 566.54,-81"/>
<polygon fill="midnightblue" stroke="midnightblue" points="502.17,-254.29 508.66,-262.67 508.81,-252.07 502.17,-254.29"/>
</g>
<!-- Node15&#45;&gt;Node11 -->
<g id="edge20" class="edge">
<title>Node15&#45;&gt;Node11</title>
<path fill="none" stroke="midnightblue" d="M523.73,-254.29C543.23,-225.69 581.61,-169.41 596.19,-148.02"/>
<polygon fill="midnightblue" stroke="midnightblue" points="520.65,-252.61 517.91,-262.84 526.43,-256.55 520.65,-252.61"/>
</g>
<!-- Node15&#45;&gt;Node16 -->
<g id="edge21" class="edge">
<title>Node15&#45;&gt;Node16</title>
<path fill="none" stroke="midnightblue" d="M487.86,-257.62C465.47,-244.74 432.86,-225.98 414,-215.13"/>
<polygon fill="midnightblue" stroke="midnightblue" points="486.35,-260.78 496.76,-262.73 489.84,-254.71 486.35,-260.78"/>
</g>
<!-- Node17&#45;&gt;Node14 -->
<g id="edge26" class="edge">
<title>Node17&#45;&gt;Node14</title>
<path fill="none" stroke="midnightblue" d="M473.17,-439.79C488.03,-423.14 502.54,-399.74 491,-380 480.3,-361.71 459.13,-350.27 441.25,-343.51"/>
<polygon fill="midnightblue" stroke="midnightblue" points="470.32,-437.71 465.97,-447.37 475.39,-442.53 470.32,-437.71"/>
</g>
<!-- Node18&#45;&gt;Node7 -->
<g id="edge29" class="edge">
<title>Node18&#45;&gt;Node7</title>
<path fill="none" stroke="midnightblue" d="M706.44,-375.77C713.16,-320.68 729.45,-160.7 697,-123 693.59,-119.04 574.42,-98.93 491.27,-85.31"/>
<polygon fill="midnightblue" stroke="midnightblue" points="702.94,-375.49 705.17,-385.85 709.89,-376.37 702.94,-375.49"/>
</g>
<!-- Node18&#45;&gt;Node9 -->
<g id="edge30" class="edge">
<title>Node18&#45;&gt;Node9</title>
<path fill="none" stroke="midnightblue" d="M721.84,-379.03C744.3,-357.73 780,-317.02 780,-273.5 780,-273.5 780,-273.5 780,-204.5 780,-162 762.66,-150.19 730,-123 704.15,-101.48 668.1,-88.49 640.36,-81.08"/>
<polygon fill="midnightblue" stroke="midnightblue" points="719.27,-376.64 714.25,-385.97 723.99,-381.8 719.27,-376.64"/>
</g>
<!-- Node18&#45;&gt;Node11 -->
<g id="edge31" class="edge">
<title>Node18&#45;&gt;Node11</title>
<path fill="none" stroke="midnightblue" d="M712.28,-376.47C717.75,-362.1 723.06,-341.56 718,-324 696.1,-248.02 632.64,-173.13 610.08,-148.19"/>
<polygon fill="midnightblue" stroke="midnightblue" points="709.04,-375.13 708.41,-385.7 715.5,-377.83 709.04,-375.13"/>
</g>
<!-- Node18&#45;&gt;Node14 -->
<g id="edge32" class="edge">
<title>Node18&#45;&gt;Node14</title>
<path fill="none" stroke="midnightblue" d="M652.17,-383.97C595.38,-372.44 505.41,-354.17 452.9,-343.51"/>
<polygon fill="midnightblue" stroke="midnightblue" points="651.52,-387.41 662.02,-385.98 652.92,-380.55 651.52,-387.41"/>
</g>
<!-- Node19&#45;&gt;Node14 -->
<g id="edge35" class="edge">
<title>Node19&#45;&gt;Node14</title>
<path fill="none" stroke="midnightblue" d="M590.62,-445.78C571.77,-428.24 539.35,-399.72 508,-380 483.96,-364.88 454.01,-351.76 433.8,-343.65"/>
<polygon fill="midnightblue" stroke="midnightblue" points="588.38,-448.47 598.05,-452.78 593.18,-443.38 588.38,-448.47"/>
</g>
<!-- Node19&#45;&gt;Node15 -->
<g id="edge34" class="edge">
<title>Node19&#45;&gt;Node15</title>
<path fill="none" stroke="midnightblue" d="M598.04,-443.76C578.14,-404.4 530.92,-310.94 516.35,-282.12"/>
<polygon fill="midnightblue" stroke="midnightblue" points="595.04,-445.59 602.67,-452.93 601.28,-442.43 595.04,-445.59"/>
</g>
<!-- Node19&#45;&gt;Node18 -->
<g id="edge36" class="edge">
<title>Node19&#45;&gt;Node18</title>
<path fill="none" stroke="midnightblue" d="M628.5,-447.09C647.69,-434.24 675.15,-415.83 691.13,-405.13"/>
<polygon fill="midnightblue" stroke="midnightblue" points="626.44,-444.26 620.08,-452.73 630.34,-450.07 626.44,-444.26"/>
</g>
</g>
</svg>
        <g id="navigator" transform="translate(0 0)" fill="#404254">
                <rect fill="#f2f5e9" fill-opacity="0.5" stroke="#606060" stroke-width=".5" x="0" y="0" width="60" height="60"/>
                <use id="zoomplus" xlink:href="#zoomPlus" x="17" y="9" onmousedown="handleZoom(evt,'in')"/>
                <use id="zoomminus" xlink:href="#zoomMin" x="42" y="9" onmousedown="handleZoom(evt,'out')"/>
                <use id="reset" xlink:href="#resetDef" x="30" y="36" onmousedown="handleReset()"/>
                <g id="arrowUp" xlink:href="#dirArrow" transform="translate(30 24)" onmousedown="handlePan(0,-1)">
                  <use xlink:href="#rim" fill="#404040">
                        <set attributeName="fill" to="#808080" begin="arrowUp.mouseover" end="arrowUp.mouseout"/>
                  </use>
                  <path fill="none" stroke="white" stroke-width="1.5" d="M0,-3.0v7 M-2.5,-0.5L0,-3.0L2.5,-0.5"/>
                </g>
                <g id="arrowRight" xlink:href="#dirArrow" transform="rotate(90) translate(36 -43)" onmousedown="handlePan(1,0)">
                  <use xlink:href="#rim" fill="#404040">
                        <set attributeName="fill" to="#808080" begin="arrowRight.mouseover" end="arrowRight.mouseout"/>
                  </use>
                  <path fill="none" stroke="white" stroke-width="1.5" d="M0,-3.0v7 M-2.5,-0.5L0,-3.0L2.5,-0.5"/>
                </g>
                <g id="arrowDown" xlink:href="#dirArrow" transform="rotate(180) translate(-30 -48)" onmousedown="handlePan(0,1)">
                  <use xlink:href="#rim" fill="#404040">
                        <set attributeName="fill" to="#808080" begin="arrowDown.mouseover" end="arrowDown.mouseout"/>
                  </use>
                  <path fill="none" stroke="white" stroke-width="1.5" d="M0,-3.0v7 M-2.5,-0.5L0,-3.0L2.5,-0.5"/>
                </g>
                <g id="arrowLeft" xlink:href="#dirArrow" transform="rotate(270) translate(-36 17)" onmousedown="handlePan(-1,0)">
                  <use xlink:href="#rim" fill="#404040">
                        <set attributeName="fill" to="#808080" begin="arrowLeft.mouseover" end="arrowLeft.mouseout"/>
                  </use>
                  <path fill="none" stroke="white" stroke-width="1.5" d="M0,-3.0v7 M-2.5,-0.5L0,-3.0L2.5,-0.5"/>
                </g>
        </g>
        <svg viewBox="0 0 15 15" width="100%" height="30px" preserveAspectRatio="xMaxYMin meet">
         <g id="arrow_out" transform="scale(0.3 0.3)">
          <a xlink:href="MVExpr_8h__dep__incl_org.svg" target="_base">
           <rect id="button" ry="5" rx="5" y="6" x="6" height="38" width="38"
                fill="#f2f5e9" fill-opacity="0.5" stroke="#606060" stroke-width="1.0"/>
           <path id="arrow"
             d="M 11.500037,31.436501 C 11.940474,20.09759 22.043105,11.32322 32.158766,21.979434 L 37.068811,17.246167 C 37.068811,17.246167 37.088388,32 37.088388,32 L 22.160133,31.978069 C 22.160133,31.978069 26.997745,27.140456 26.997745,27.140456 C 18.528582,18.264221 13.291696,25.230495 11.500037,31.436501 z"
             style="fill:#404040;"/>
          </a>
         </g>
        </svg>
</svg>
