<?xml version="1.0" encoding="UTF-8" standalone="no"?>
<!DOCTYPE svg PUBLIC "-//W3C//DTD SVG 1.1//EN"
 "http://www.w3.org/Graphics/SVG/1.1/DTD/svg11.dtd">
<!-- Generated by graphviz version 2.43.0 (0)
 -->
<!-- Title: MACVETH/include/MVPragmaHandler.h Pages: 1 -->
<svg width="962pt" height="475pt"
 viewBox="0.00 0.00 962.05 475.00" xmlns="http://www.w3.org/2000/svg" xmlns:xlink="http://www.w3.org/1999/xlink">
<g id="graph0" class="graph" transform="scale(1 1) rotate(0) translate(4 471)">
<title>MACVETH/include/MVPragmaHandler.h</title>
<!-- Node1 -->
<g id="node1" class="node">
<title>Node1</title>
<g id="a_node1"><a xlink:title=" ">
<polygon fill="#bfbfbf" stroke="black" points="79,-436.5 79,-466.5 239,-466.5 239,-436.5 79,-436.5"/>
<text text-anchor="start" x="87" y="-454.5" font-family="Helvetica,sans-Serif" font-size="10.00">MACVETH/include/MVPragma</text>
<text text-anchor="middle" x="159" y="-443.5" font-family="Helvetica,sans-Serif" font-size="10.00">Handler.h</text>
</a>
</g>
</g>
<!-- Node2 -->
<g id="node2" class="node">
<title>Node2</title>
<g id="a_node2"><a xlink:href="MVFrontend_8h.html" target="_top" xlink:title=" ">
<polygon fill="none" stroke="black" points="103,-62 103,-81 277,-81 277,-62 103,-62"/>
<text text-anchor="middle" x="190" y="-69" font-family="Helvetica,sans-Serif" font-size="10.00">MACVETH/include/MVFrontend.h</text>
</a>
</g>
</g>
<!-- Node1&#45;&gt;Node2 -->
<g id="edge1" class="edge">
<title>Node1&#45;&gt;Node2</title>
<path fill="none" stroke="midnightblue" d="M117.14,-431.65C82.17,-412.72 38,-379.92 38,-335 38,-335 38,-335 38,-204.5 38,-138.09 121.73,-97.55 164.9,-81.06"/>
<polygon fill="midnightblue" stroke="midnightblue" points="115.77,-434.88 126.26,-436.39 119,-428.67 115.77,-434.88"/>
</g>
<!-- Node3 -->
<g id="node3" class="node">
<title>Node3</title>
<g id="a_node3"><a xlink:href="macveth_8cpp.html" target="_top" xlink:title=" ">
<polygon fill="none" stroke="black" points="41,-0.5 41,-19.5 187,-19.5 187,-0.5 41,-0.5"/>
<text text-anchor="middle" x="114" y="-7.5" font-family="Helvetica,sans-Serif" font-size="10.00">MACVETH/lib/macveth.cpp</text>
</a>
</g>
</g>
<!-- Node1&#45;&gt;Node3 -->
<g id="edge27" class="edge">
<title>Node1&#45;&gt;Node3</title>
<path fill="none" stroke="midnightblue" d="M97.53,-432.97C52.79,-416 0,-385.33 0,-335 0,-335 0,-335 0,-137.5 0,-80.15 65.47,-37.07 97.18,-19.57"/>
<polygon fill="midnightblue" stroke="midnightblue" points="96.34,-436.26 106.94,-436.38 98.73,-429.68 96.34,-436.26"/>
</g>
<!-- Node4 -->
<g id="node4" class="node">
<title>Node4</title>
<g id="a_node4"><a xlink:href="MVRewriter_8h.html" target="_top" xlink:title=" ">
<polygon fill="none" stroke="black" points="274,-129 274,-148 446,-148 446,-129 274,-129"/>
<text text-anchor="middle" x="360" y="-136" font-family="Helvetica,sans-Serif" font-size="10.00">MACVETH/include/MVRewriter.h</text>
</a>
</g>
</g>
<!-- Node1&#45;&gt;Node4 -->
<g id="edge3" class="edge">
<title>Node1&#45;&gt;Node4</title>
<path fill="none" stroke="midnightblue" d="M249.12,-446.27C323.88,-437.33 418,-410.98 418,-335 418,-335 418,-335 418,-271.5 418,-221.19 382.24,-168.51 366.88,-148.19"/>
<polygon fill="midnightblue" stroke="midnightblue" points="248.73,-442.79 239.18,-447.37 249.5,-449.75 248.73,-442.79"/>
</g>
<!-- Node5 -->
<g id="node5" class="node">
<title>Node5</title>
<g id="a_node5"><a xlink:href="StmtWrapper_8h.html" target="_top" xlink:title=" ">
<polygon fill="none" stroke="black" points="190.5,-380.5 190.5,-399.5 369.5,-399.5 369.5,-380.5 190.5,-380.5"/>
<text text-anchor="middle" x="280" y="-387.5" font-family="Helvetica,sans-Serif" font-size="10.00">MACVETH/include/StmtWrapper.h</text>
</a>
</g>
</g>
<!-- Node1&#45;&gt;Node5 -->
<g id="edge5" class="edge">
<title>Node1&#45;&gt;Node5</title>
<path fill="none" stroke="midnightblue" d="M196.74,-431.94C218.67,-421.16 245.26,-408.08 262.39,-399.66"/>
<polygon fill="midnightblue" stroke="midnightblue" points="195.1,-428.85 187.68,-436.4 198.19,-435.13 195.1,-428.85"/>
</g>
<!-- Node2&#45;&gt;Node3 -->
<g id="edge2" class="edge">
<title>Node2&#45;&gt;Node3</title>
<path fill="none" stroke="midnightblue" d="M171.22,-55.79C156.64,-44.38 136.94,-28.96 124.87,-19.51"/>
<polygon fill="midnightblue" stroke="midnightblue" points="169.08,-58.57 179.11,-61.98 173.39,-53.05 169.08,-58.57"/>
</g>
<!-- Node4&#45;&gt;Node2 -->
<g id="edge4" class="edge">
<title>Node4&#45;&gt;Node2</title>
<path fill="none" stroke="midnightblue" d="M328.02,-125.27C294.28,-112.37 241.98,-92.38 212.4,-81.06"/>
<polygon fill="midnightblue" stroke="midnightblue" points="326.83,-128.57 337.43,-128.87 329.33,-122.03 326.83,-128.57"/>
</g>
<!-- Node5&#45;&gt;Node2 -->
<g id="edge7" class="edge">
<title>Node5&#45;&gt;Node2</title>
<path fill="none" stroke="midnightblue" d="M208.21,-378.35C149.45,-365.1 76,-336.02 76,-273.5 76,-273.5 76,-273.5 76,-204.5 76,-145.15 142.82,-99.3 174.15,-81.07"/>
<polygon fill="midnightblue" stroke="midnightblue" points="207.73,-381.83 218.24,-380.5 209.19,-374.99 207.73,-381.83"/>
</g>
<!-- Node5&#45;&gt;Node4 -->
<g id="edge8" class="edge">
<title>Node5&#45;&gt;Node4</title>
<path fill="none" stroke="midnightblue" d="M319.56,-376.5C334.94,-369.5 351,-359.07 360,-344 399.3,-278.15 372.28,-177.84 362.88,-148.09"/>
<polygon fill="midnightblue" stroke="midnightblue" points="318.02,-373.35 310.13,-380.42 320.71,-379.81 318.02,-373.35"/>
</g>
<!-- Node6 -->
<g id="node6" class="node">
<title>Node6</title>
<g id="a_node6"><a xlink:href="MVCostModel_8h.html" target="_top" xlink:title=" ">
<polygon fill="none" stroke="black" points="540,-56.5 540,-86.5 698,-86.5 698,-56.5 540,-56.5"/>
<text text-anchor="start" x="548" y="-74.5" font-family="Helvetica,sans-Serif" font-size="10.00">MACVETH/include/CostModel</text>
<text text-anchor="middle" x="619" y="-63.5" font-family="Helvetica,sans-Serif" font-size="10.00">/MVCostModel.h</text>
</a>
</g>
</g>
<!-- Node5&#45;&gt;Node6 -->
<g id="edge6" class="edge">
<title>Node5&#45;&gt;Node6</title>
<path fill="none" stroke="midnightblue" d="M379.71,-382.02C566.84,-367.57 952,-330.86 952,-273.5 952,-273.5 952,-273.5 952,-204.5 952,-167.31 960.2,-148.37 933,-123 928.68,-118.97 789.63,-97.73 698.03,-84.11"/>
<polygon fill="midnightblue" stroke="midnightblue" points="379.29,-378.54 369.58,-382.79 379.82,-385.52 379.29,-378.54"/>
</g>
<!-- Node7 -->
<g id="node7" class="node">
<title>Node7</title>
<g id="a_node7"><a xlink:href="Node_8h.html" target="_top" xlink:title=" ">
<polygon fill="none" stroke="black" points="209.5,-324.5 209.5,-343.5 350.5,-343.5 350.5,-324.5 209.5,-324.5"/>
<text text-anchor="middle" x="280" y="-331.5" font-family="Helvetica,sans-Serif" font-size="10.00">MACVETH/include/Node.h</text>
</a>
</g>
</g>
<!-- Node5&#45;&gt;Node7 -->
<g id="edge9" class="edge">
<title>Node5&#45;&gt;Node7</title>
<path fill="none" stroke="midnightblue" d="M280,-369.8C280,-360.91 280,-350.78 280,-343.75"/>
<polygon fill="midnightblue" stroke="midnightblue" points="276.5,-370.08 280,-380.08 283.5,-370.08 276.5,-370.08"/>
</g>
<!-- Node8 -->
<g id="node8" class="node">
<title>Node8</title>
<g id="a_node8"><a xlink:href="CDAG_8h.html" target="_top" xlink:title=" ">
<polygon fill="none" stroke="black" points="208,-263 208,-282 352,-282 352,-263 208,-263"/>
<text text-anchor="middle" x="280" y="-270" font-family="Helvetica,sans-Serif" font-size="10.00">MACVETH/include/CDAG.h</text>
</a>
</g>
</g>
<!-- Node7&#45;&gt;Node8 -->
<g id="edge10" class="edge">
<title>Node7&#45;&gt;Node8</title>
<path fill="none" stroke="midnightblue" d="M280,-314.32C280,-303.5 280,-290.4 280,-282.01"/>
<polygon fill="midnightblue" stroke="midnightblue" points="276.5,-314.48 280,-324.48 283.5,-314.48 276.5,-314.48"/>
</g>
<!-- Node9 -->
<g id="node9" class="node">
<title>Node9</title>
<g id="a_node9"><a xlink:href="PlcmntAlgo_8h.html" target="_top" xlink:title=" ">
<polygon fill="none" stroke="black" points="104.5,-196 104.5,-215 275.5,-215 275.5,-196 104.5,-196"/>
<text text-anchor="middle" x="190" y="-203" font-family="Helvetica,sans-Serif" font-size="10.00">MACVETH/include/PlcmntAlgo.h</text>
</a>
</g>
</g>
<!-- Node7&#45;&gt;Node9 -->
<g id="edge23" class="edge">
<title>Node7&#45;&gt;Node9</title>
<path fill="none" stroke="midnightblue" d="M241.33,-320.51C225.67,-313.45 208.96,-302.98 199,-288 183.94,-265.36 186.34,-231.14 188.53,-215.22"/>
<polygon fill="midnightblue" stroke="midnightblue" points="240.3,-323.87 250.88,-324.46 242.98,-317.4 240.3,-323.87"/>
</g>
<!-- Node14 -->
<g id="node14" class="node">
<title>Node14</title>
<g id="a_node14"><a xlink:href="VectorIR_8h.html" target="_top" xlink:title=" ">
<polygon fill="none" stroke="black" points="446,-257.5 446,-287.5 616,-287.5 616,-257.5 446,-257.5"/>
<text text-anchor="start" x="454" y="-275.5" font-family="Helvetica,sans-Serif" font-size="10.00">MACVETH/include/Vectorization</text>
<text text-anchor="middle" x="531" y="-264.5" font-family="Helvetica,sans-Serif" font-size="10.00">/VectorIR.h</text>
</a>
</g>
</g>
<!-- Node7&#45;&gt;Node14 -->
<g id="edge24" class="edge">
<title>Node7&#45;&gt;Node14</title>
<path fill="none" stroke="midnightblue" d="M325.95,-322.11C366.96,-312.39 427.25,-298.1 471.84,-287.52"/>
<polygon fill="midnightblue" stroke="midnightblue" points="324.89,-318.76 315.96,-324.48 326.5,-325.57 324.89,-318.76"/>
</g>
<!-- Node8&#45;&gt;Node2 -->
<g id="edge11" class="edge">
<title>Node8&#45;&gt;Node2</title>
<path fill="none" stroke="midnightblue" d="M284.82,-252.87C288.3,-235.97 291.23,-210.62 284,-190 275.09,-164.61 219.65,-104 198.34,-81.29"/>
<polygon fill="midnightblue" stroke="midnightblue" points="281.41,-252.09 282.56,-262.62 288.23,-253.67 281.41,-252.09"/>
</g>
<!-- Node8&#45;&gt;Node4 -->
<g id="edge12" class="edge">
<title>Node8&#45;&gt;Node4</title>
<path fill="none" stroke="midnightblue" d="M293.56,-254.97C301.17,-245.34 310.59,-232.81 318,-221 333.91,-195.65 349.1,-163.58 356.05,-148.33"/>
<polygon fill="midnightblue" stroke="midnightblue" points="290.74,-252.9 287.2,-262.88 296.19,-257.28 290.74,-252.9"/>
</g>
<!-- Node8&#45;&gt;Node9 -->
<g id="edge13" class="edge">
<title>Node8&#45;&gt;Node9</title>
<path fill="none" stroke="midnightblue" d="M259.32,-256.57C241.56,-243.74 216.56,-225.69 201.95,-215.13"/>
<polygon fill="midnightblue" stroke="midnightblue" points="257.71,-259.72 267.86,-262.73 261.8,-254.04 257.71,-259.72"/>
</g>
<!-- Node10 -->
<g id="node10" class="node">
<title>Node10</title>
<g id="a_node10"><a xlink:href="SIMDBackEnd_8h.html" target="_top" xlink:title=" ">
<polygon fill="none" stroke="black" points="446,-190.5 446,-220.5 616,-220.5 616,-190.5 446,-190.5"/>
<text text-anchor="start" x="454" y="-208.5" font-family="Helvetica,sans-Serif" font-size="10.00">MACVETH/include/Vectorization</text>
<text text-anchor="middle" x="531" y="-197.5" font-family="Helvetica,sans-Serif" font-size="10.00">/SIMD/SIMDBackEnd.h</text>
</a>
</g>
</g>
<!-- Node8&#45;&gt;Node10 -->
<g id="edge14" class="edge">
<title>Node8&#45;&gt;Node10</title>
<path fill="none" stroke="midnightblue" d="M322.83,-260.41C365.33,-249.4 430.6,-232.5 476.71,-220.56"/>
<polygon fill="midnightblue" stroke="midnightblue" points="321.88,-257.04 313.07,-262.94 323.63,-263.82 321.88,-257.04"/>
</g>
<!-- Node10&#45;&gt;Node2 -->
<g id="edge18" class="edge">
<title>Node10&#45;&gt;Node2</title>
<path fill="none" stroke="midnightblue" d="M516.29,-182.09C502.69,-163.26 480.74,-137.2 455,-123 400.57,-92.96 331.33,-80.49 277.28,-75.45"/>
<polygon fill="midnightblue" stroke="midnightblue" points="513.51,-184.22 522.11,-190.42 519.25,-180.21 513.51,-184.22"/>
</g>
<!-- Node10&#45;&gt;Node4 -->
<g id="edge19" class="edge">
<title>Node10&#45;&gt;Node4</title>
<path fill="none" stroke="midnightblue" d="M484.39,-186.78C451.24,-174.18 408.16,-157.81 382.38,-148.01"/>
<polygon fill="midnightblue" stroke="midnightblue" points="483.3,-190.11 493.9,-190.4 485.79,-183.57 483.3,-190.11"/>
</g>
<!-- Node10&#45;&gt;Node6 -->
<g id="edge15" class="edge">
<title>Node10&#45;&gt;Node6</title>
<path fill="none" stroke="midnightblue" d="M524.99,-180.61C522.03,-163.43 520.96,-140.34 531,-123 540.71,-106.23 558.32,-94.55 575.25,-86.68"/>
<polygon fill="midnightblue" stroke="midnightblue" points="521.56,-181.34 526.99,-190.44 528.42,-179.94 521.56,-181.34"/>
</g>
<!-- Node11 -->
<g id="node11" class="node">
<title>Node11</title>
<g id="a_node11"><a xlink:href="SIMDCostInfo_8h.html" target="_top" xlink:title=" ">
<polygon fill="none" stroke="black" points="540,-123.5 540,-153.5 698,-153.5 698,-123.5 540,-123.5"/>
<text text-anchor="start" x="548" y="-141.5" font-family="Helvetica,sans-Serif" font-size="10.00">MACVETH/include/CostModel</text>
<text text-anchor="middle" x="619" y="-130.5" font-family="Helvetica,sans-Serif" font-size="10.00">/SIMDCostInfo.h</text>
</a>
</g>
</g>
<!-- Node10&#45;&gt;Node11 -->
<g id="edge16" class="edge">
<title>Node10&#45;&gt;Node11</title>
<path fill="none" stroke="midnightblue" d="M558.14,-184.45C571.68,-174.45 587.73,-162.6 599.94,-153.58"/>
<polygon fill="midnightblue" stroke="midnightblue" points="556.06,-181.64 550.09,-190.4 560.22,-187.27 556.06,-181.64"/>
</g>
<!-- Node12 -->
<g id="node12" class="node">
<title>Node12</title>
<g id="a_node12"><a xlink:href="AVX2BackEnd_8h.html" target="_top" xlink:title=" ">
<polygon fill="none" stroke="black" points="754,-123.5 754,-153.5 924,-153.5 924,-123.5 754,-123.5"/>
<text text-anchor="start" x="762" y="-141.5" font-family="Helvetica,sans-Serif" font-size="10.00">MACVETH/include/Vectorization</text>
<text text-anchor="middle" x="839" y="-130.5" font-family="Helvetica,sans-Serif" font-size="10.00">/SIMD/AVX2/AVX2BackEnd.h</text>
</a>
</g>
</g>
<!-- Node10&#45;&gt;Node12 -->
<g id="edge20" class="edge">
<title>Node10&#45;&gt;Node12</title>
<path fill="none" stroke="midnightblue" d="M607.37,-188.38C658.03,-177.69 723.87,-163.8 772.4,-153.55"/>
<polygon fill="midnightblue" stroke="midnightblue" points="606.51,-184.99 597.45,-190.48 607.96,-191.84 606.51,-184.99"/>
</g>
<!-- Node13 -->
<g id="node13" class="node">
<title>Node13</title>
<g id="a_node13"><a xlink:href="SIMDBackEndFactory_8h.html" target="_top" xlink:title=" ">
<polygon fill="none" stroke="black" points="735,-56.5 735,-86.5 905,-86.5 905,-56.5 735,-56.5"/>
<text text-anchor="start" x="743" y="-74.5" font-family="Helvetica,sans-Serif" font-size="10.00">MACVETH/include/Vectorization</text>
<text text-anchor="middle" x="820" y="-63.5" font-family="Helvetica,sans-Serif" font-size="10.00">/SIMD/SIMDBackEndFactory.h</text>
</a>
</g>
</g>
<!-- Node10&#45;&gt;Node13 -->
<g id="edge22" class="edge">
<title>Node10&#45;&gt;Node13</title>
<path fill="none" stroke="midnightblue" d="M614.68,-187.86C644.81,-179.99 678.4,-168.96 707,-154 726.31,-143.9 727.5,-135.99 745,-123 762.4,-110.09 782.83,-96.42 797.97,-86.57"/>
<polygon fill="midnightblue" stroke="midnightblue" points="613.44,-184.57 604.6,-190.41 615.15,-191.35 613.44,-184.57"/>
</g>
<!-- Node11&#45;&gt;Node6 -->
<g id="edge17" class="edge">
<title>Node11&#45;&gt;Node6</title>
<path fill="none" stroke="midnightblue" d="M619,-113.11C619,-104.15 619,-94.32 619,-86.58"/>
<polygon fill="midnightblue" stroke="midnightblue" points="615.5,-113.4 619,-123.4 622.5,-113.4 615.5,-113.4"/>
</g>
<!-- Node12&#45;&gt;Node13 -->
<g id="edge21" class="edge">
<title>Node12&#45;&gt;Node13</title>
<path fill="none" stroke="midnightblue" d="M832.04,-113.7C829.38,-104.59 826.43,-94.49 824.11,-86.58"/>
<polygon fill="midnightblue" stroke="midnightblue" points="828.71,-114.78 834.88,-123.4 835.43,-112.82 828.71,-114.78"/>
</g>
<!-- Node14&#45;&gt;Node10 -->
<g id="edge26" class="edge">
<title>Node14&#45;&gt;Node10</title>
<path fill="none" stroke="midnightblue" d="M531,-247.11C531,-238.15 531,-228.32 531,-220.58"/>
<polygon fill="midnightblue" stroke="midnightblue" points="527.5,-247.4 531,-257.4 534.5,-247.4 527.5,-247.4"/>
</g>
<!-- Node14&#45;&gt;Node12 -->
<g id="edge25" class="edge">
<title>Node14&#45;&gt;Node12</title>
<path fill="none" stroke="midnightblue" d="M573.17,-253.43C635.25,-226.82 749.97,-177.65 806.2,-153.56"/>
<polygon fill="midnightblue" stroke="midnightblue" points="571.48,-250.34 563.67,-257.5 574.24,-256.78 571.48,-250.34"/>
</g>
</g>
</svg>
