<?xml version="1.0" encoding="UTF-8" standalone="no"?>
<!DOCTYPE svg PUBLIC "-//W3C//DTD SVG 1.1//EN"
 "http://www.w3.org/Graphics/SVG/1.1/DTD/svg11.dtd">
<!-- Generated by graphviz version 2.43.0 (0)
 -->
<!-- Title: MACVETH/include/MVPragmaHandler.h Pages: 1 -->
<svg width="1252pt" height="319pt"
 viewBox="0.00 0.00 1252.00 319.00" xmlns="http://www.w3.org/2000/svg" xmlns:xlink="http://www.w3.org/1999/xlink">
<g id="graph0" class="graph" transform="scale(1 1) rotate(0) translate(4 315)">
<title>MACVETH/include/MVPragmaHandler.h</title>
<!-- Node1 -->
<g id="node1" class="node">
<title>Node1</title>
<g id="a_node1"><a xlink:title=" ">
<polygon fill="#bfbfbf" stroke="black" points="786.5,-280.5 786.5,-310.5 946.5,-310.5 946.5,-280.5 786.5,-280.5"/>
<text text-anchor="start" x="794.5" y="-298.5" font-family="Helvetica,sans-Serif" font-size="10.00">MACVETH/include/MVPragma</text>
<text text-anchor="middle" x="866.5" y="-287.5" font-family="Helvetica,sans-Serif" font-size="10.00">Handler.h</text>
</a>
</g>
</g>
<!-- Node2 -->
<g id="node2" class="node">
<title>Node2</title>
<g id="a_node2"><a xlink:href="Debug_8h.html" target="_top" xlink:title=" ">
<polygon fill="none" stroke="black" points="483,-224.5 483,-243.5 578,-243.5 578,-224.5 483,-224.5"/>
<text text-anchor="middle" x="530.5" y="-231.5" font-family="Helvetica,sans-Serif" font-size="10.00">include/Debug.h</text>
</a>
</g>
</g>
<!-- Node1&#45;&gt;Node2 -->
<g id="edge1" class="edge">
<title>Node1&#45;&gt;Node2</title>
<path fill="none" stroke="midnightblue" d="M787.3,-280.47C726.11,-269.64 642.87,-254.9 587.96,-245.18"/>
<polygon fill="midnightblue" stroke="midnightblue" points="588.51,-241.72 578.05,-243.42 587.28,-248.61 588.51,-241.72"/>
</g>
<!-- Node7 -->
<g id="node7" class="node">
<title>Node7</title>
<g id="a_node7"><a xlink:title=" ">
<polygon fill="none" stroke="#bfbfbf" points="701.5,-0.5 701.5,-19.5 761.5,-19.5 761.5,-0.5 701.5,-0.5"/>
<text text-anchor="middle" x="731.5" y="-7.5" font-family="Helvetica,sans-Serif" font-size="10.00">iostream</text>
</a>
</g>
</g>
<!-- Node1&#45;&gt;Node7 -->
<g id="edge27" class="edge">
<title>Node1&#45;&gt;Node7</title>
<path fill="none" stroke="midnightblue" d="M863.82,-280.1C857.53,-248.37 840.01,-170.59 809.5,-112 792.38,-79.14 764.34,-46.1 746.95,-27.15"/>
<polygon fill="midnightblue" stroke="midnightblue" points="749.39,-24.63 740,-19.71 744.27,-29.41 749.39,-24.63"/>
</g>
<!-- Node15 -->
<g id="node15" class="node">
<title>Node15</title>
<g id="a_node15"><a xlink:title=" ">
<polygon fill="none" stroke="#bfbfbf" points="642,-112.5 642,-131.5 801,-131.5 801,-112.5 642,-112.5"/>
<text text-anchor="middle" x="721.5" y="-119.5" font-family="Helvetica,sans-Serif" font-size="10.00">clang/Basic/SourceManager.h</text>
</a>
</g>
</g>
<!-- Node1&#45;&gt;Node15 -->
<g id="edge25" class="edge">
<title>Node1&#45;&gt;Node15</title>
<path fill="none" stroke="midnightblue" d="M850.9,-280.47C840.26,-270.63 826.05,-256.97 814.5,-244 783.07,-208.72 750.3,-163.88 733.31,-139.91"/>
<polygon fill="midnightblue" stroke="midnightblue" points="736.04,-137.71 727.42,-131.55 730.31,-141.74 736.04,-137.71"/>
</g>
<!-- Node18 -->
<g id="node18" class="node">
<title>Node18</title>
<g id="a_node18"><a xlink:href="MVAssert_8h.html" target="_top" xlink:title=" ">
<polygon fill="none" stroke="black" points="833.5,-56.5 833.5,-75.5 943.5,-75.5 943.5,-56.5 833.5,-56.5"/>
<text text-anchor="middle" x="888.5" y="-63.5" font-family="Helvetica,sans-Serif" font-size="10.00">include/MVAssert.h</text>
</a>
</g>
</g>
<!-- Node1&#45;&gt;Node18 -->
<g id="edge20" class="edge">
<title>Node1&#45;&gt;Node18</title>
<path fill="none" stroke="midnightblue" d="M867.88,-280.27C871.68,-240.89 882.36,-130.49 886.67,-85.97"/>
<polygon fill="midnightblue" stroke="midnightblue" points="890.16,-86.22 887.64,-75.93 883.19,-85.54 890.16,-86.22"/>
</g>
<!-- Node20 -->
<g id="node20" class="node">
<title>Node20</title>
<g id="a_node20"><a xlink:title=" ">
<polygon fill="none" stroke="#bfbfbf" points="895,-224.5 895,-243.5 1048,-243.5 1048,-224.5 895,-224.5"/>
<text text-anchor="middle" x="971.5" y="-231.5" font-family="Helvetica,sans-Serif" font-size="10.00">clang/Basic/IdentifierTable.h</text>
</a>
</g>
</g>
<!-- Node1&#45;&gt;Node20 -->
<g id="edge24" class="edge">
<title>Node1&#45;&gt;Node20</title>
<path fill="none" stroke="midnightblue" d="M891.38,-280.4C908.21,-270.86 930.34,-258.32 947.07,-248.84"/>
<polygon fill="midnightblue" stroke="midnightblue" points="949.25,-251.63 956.22,-243.66 945.8,-245.54 949.25,-251.63"/>
</g>
<!-- Node21 -->
<g id="node21" class="node">
<title>Node21</title>
<g id="a_node21"><a xlink:title=" ">
<polygon fill="none" stroke="#bfbfbf" points="1066,-224.5 1066,-243.5 1179,-243.5 1179,-224.5 1066,-224.5"/>
<text text-anchor="middle" x="1122.5" y="-231.5" font-family="Helvetica,sans-Serif" font-size="10.00">clang/Parse/Parser.h</text>
</a>
</g>
</g>
<!-- Node1&#45;&gt;Node21 -->
<g id="edge26" class="edge">
<title>Node1&#45;&gt;Node21</title>
<path fill="none" stroke="midnightblue" d="M926.84,-280.47C972.46,-269.87 1034.15,-255.53 1075.98,-245.81"/>
<polygon fill="midnightblue" stroke="midnightblue" points="1076.95,-249.18 1085.9,-243.51 1075.37,-242.36 1076.95,-249.18"/>
</g>
<!-- Node22 -->
<g id="node22" class="node">
<title>Node22</title>
<g id="a_node22"><a xlink:title=" ">
<polygon fill="none" stroke="#bfbfbf" points="1197,-224.5 1197,-243.5 1244,-243.5 1244,-224.5 1197,-224.5"/>
<text text-anchor="middle" x="1220.5" y="-231.5" font-family="Helvetica,sans-Serif" font-size="10.00">vector</text>
</a>
</g>
</g>
<!-- Node1&#45;&gt;Node22 -->
<g id="edge28" class="edge">
<title>Node1&#45;&gt;Node22</title>
<path fill="none" stroke="midnightblue" d="M946.72,-284.61C1009.8,-276.21 1100.01,-262.84 1187.04,-244.13"/>
<polygon fill="midnightblue" stroke="midnightblue" points="1187.79,-247.55 1196.81,-242 1186.3,-240.71 1187.79,-247.55"/>
</g>
<!-- Node3 -->
<g id="node3" class="node">
<title>Node3</title>
<g id="a_node3"><a xlink:href="Utils_8h.html" target="_top" xlink:title=" ">
<polygon fill="none" stroke="black" points="413.5,-168.5 413.5,-187.5 499.5,-187.5 499.5,-168.5 413.5,-168.5"/>
<text text-anchor="middle" x="456.5" y="-175.5" font-family="Helvetica,sans-Serif" font-size="10.00">include/Utils.h</text>
</a>
</g>
</g>
<!-- Node2&#45;&gt;Node3 -->
<g id="edge2" class="edge">
<title>Node2&#45;&gt;Node3</title>
<path fill="none" stroke="midnightblue" d="M518.61,-224.32C507.35,-216.11 490.21,-203.6 476.79,-193.81"/>
<polygon fill="midnightblue" stroke="midnightblue" points="478.75,-190.9 468.61,-187.83 474.62,-196.56 478.75,-190.9"/>
</g>
<!-- Node4 -->
<g id="node4" class="node">
<title>Node4</title>
<g id="a_node4"><a xlink:href="MVOptions_8h.html" target="_top" xlink:title=" ">
<polygon fill="none" stroke="black" points="355,-112.5 355,-131.5 472,-131.5 472,-112.5 355,-112.5"/>
<text text-anchor="middle" x="413.5" y="-119.5" font-family="Helvetica,sans-Serif" font-size="10.00">include/MVOptions.h</text>
</a>
</g>
</g>
<!-- Node3&#45;&gt;Node4 -->
<g id="edge3" class="edge">
<title>Node3&#45;&gt;Node4</title>
<path fill="none" stroke="midnightblue" d="M449.4,-168.08C443.26,-160.38 434.23,-149.03 426.76,-139.65"/>
<polygon fill="midnightblue" stroke="midnightblue" points="429.44,-137.39 420.47,-131.75 423.96,-141.75 429.44,-137.39"/>
</g>
<!-- Node3&#45;&gt;Node7 -->
<g id="edge19" class="edge">
<title>Node3&#45;&gt;Node7</title>
<path fill="none" stroke="midnightblue" d="M463.07,-168.47C473.74,-155.07 496.01,-128.87 519.5,-112 576.64,-70.96 653.07,-39.36 696.83,-23.12"/>
<polygon fill="midnightblue" stroke="midnightblue" points="698.24,-26.33 706.43,-19.6 695.84,-19.75 698.24,-26.33"/>
</g>
<!-- Node13 -->
<g id="node13" class="node">
<title>Node13</title>
<g id="a_node13"><a xlink:title=" ">
<polygon fill="none" stroke="#bfbfbf" points="529,-112.5 529,-131.5 624,-131.5 624,-112.5 529,-112.5"/>
<text text-anchor="middle" x="576.5" y="-119.5" font-family="Helvetica,sans-Serif" font-size="10.00">clang/AST/AST.h</text>
</a>
</g>
</g>
<!-- Node3&#45;&gt;Node13 -->
<g id="edge14" class="edge">
<title>Node3&#45;&gt;Node13</title>
<path fill="none" stroke="midnightblue" d="M475.51,-168.44C495.09,-159.64 525.81,-145.81 548.23,-135.72"/>
<polygon fill="midnightblue" stroke="midnightblue" points="549.89,-138.81 557.57,-131.52 547.02,-132.43 549.89,-138.81"/>
</g>
<!-- Node14 -->
<g id="node14" class="node">
<title>Node14</title>
<g id="a_node14"><a xlink:title=" ">
<polygon fill="none" stroke="#bfbfbf" points="0,-112.5 0,-131.5 145,-131.5 145,-112.5 0,-112.5"/>
<text text-anchor="middle" x="72.5" y="-119.5" font-family="Helvetica,sans-Serif" font-size="10.00">clang/Basic/LangOptions.h</text>
</a>
</g>
</g>
<!-- Node3&#45;&gt;Node14 -->
<g id="edge15" class="edge">
<title>Node3&#45;&gt;Node14</title>
<path fill="none" stroke="midnightblue" d="M413.2,-170.91C347.59,-161.68 222.3,-144.07 143.31,-132.96"/>
<polygon fill="midnightblue" stroke="midnightblue" points="143.35,-129.43 132.96,-131.5 142.37,-136.36 143.35,-129.43"/>
</g>
<!-- Node3&#45;&gt;Node15 -->
<g id="edge16" class="edge">
<title>Node3&#45;&gt;Node15</title>
<path fill="none" stroke="midnightblue" d="M498.49,-168.44C544.91,-158.98 619.73,-143.74 669.74,-133.55"/>
<polygon fill="midnightblue" stroke="midnightblue" points="670.61,-136.94 679.71,-131.52 669.21,-130.08 670.61,-136.94"/>
</g>
<!-- Node16 -->
<g id="node16" class="node">
<title>Node16</title>
<g id="a_node16"><a xlink:title=" ">
<polygon fill="none" stroke="#bfbfbf" points="163,-112.5 163,-131.5 264,-131.5 264,-112.5 163,-112.5"/>
<text text-anchor="middle" x="213.5" y="-119.5" font-family="Helvetica,sans-Serif" font-size="10.00">clang/Lex/Lexer.h</text>
</a>
</g>
</g>
<!-- Node3&#45;&gt;Node16 -->
<g id="edge17" class="edge">
<title>Node3&#45;&gt;Node16</title>
<path fill="none" stroke="midnightblue" d="M418,-168.44C375.69,-159.04 307.68,-143.93 261.83,-133.74"/>
<polygon fill="midnightblue" stroke="midnightblue" points="262.35,-130.27 251.82,-131.52 260.83,-137.1 262.35,-130.27"/>
</g>
<!-- Node17 -->
<g id="node17" class="node">
<title>Node17</title>
<g id="a_node17"><a xlink:title=" ">
<polygon fill="none" stroke="#bfbfbf" points="282,-112.5 282,-131.5 337,-131.5 337,-112.5 282,-112.5"/>
<text text-anchor="middle" x="309.5" y="-119.5" font-family="Helvetica,sans-Serif" font-size="10.00">fstream</text>
</a>
</g>
</g>
<!-- Node3&#45;&gt;Node17 -->
<g id="edge18" class="edge">
<title>Node3&#45;&gt;Node17</title>
<path fill="none" stroke="midnightblue" d="M433.21,-168.44C408.69,-159.44 369.9,-145.19 342.3,-135.05"/>
<polygon fill="midnightblue" stroke="midnightblue" points="343.28,-131.68 332.68,-131.52 340.86,-138.25 343.28,-131.68"/>
</g>
<!-- Node5 -->
<g id="node5" class="node">
<title>Node5</title>
<g id="a_node5"><a xlink:href="CPUID_8h.html" target="_top" xlink:title=" ">
<polygon fill="none" stroke="black" points="442,-56.5 442,-75.5 537,-75.5 537,-56.5 442,-56.5"/>
<text text-anchor="middle" x="489.5" y="-63.5" font-family="Helvetica,sans-Serif" font-size="10.00">include/CPUID.h</text>
</a>
</g>
</g>
<!-- Node4&#45;&gt;Node5 -->
<g id="edge4" class="edge">
<title>Node4&#45;&gt;Node5</title>
<path fill="none" stroke="midnightblue" d="M425.71,-112.32C437.28,-104.11 454.88,-91.6 468.66,-81.81"/>
<polygon fill="midnightblue" stroke="midnightblue" points="470.94,-84.48 477.07,-75.83 466.89,-78.77 470.94,-84.48"/>
</g>
<!-- Node6 -->
<g id="node6" class="node">
<title>Node6</title>
<g id="a_node6"><a xlink:title=" ">
<polygon fill="none" stroke="#bfbfbf" points="381.5,-0.5 381.5,-19.5 445.5,-19.5 445.5,-0.5 381.5,-0.5"/>
<text text-anchor="middle" x="413.5" y="-7.5" font-family="Helvetica,sans-Serif" font-size="10.00">algorithm</text>
</a>
</g>
</g>
<!-- Node4&#45;&gt;Node6 -->
<g id="edge9" class="edge">
<title>Node4&#45;&gt;Node6</title>
<path fill="none" stroke="midnightblue" d="M413.5,-112.37C413.5,-94.62 413.5,-53.67 413.5,-29.6"/>
<polygon fill="midnightblue" stroke="midnightblue" points="417,-29.59 413.5,-19.59 410,-29.59 417,-29.59"/>
</g>
<!-- Node8 -->
<g id="node8" class="node">
<title>Node8</title>
<g id="a_node8"><a xlink:title=" ">
<polygon fill="none" stroke="#bfbfbf" points="543.5,-0.5 543.5,-19.5 587.5,-19.5 587.5,-0.5 543.5,-0.5"/>
<text text-anchor="middle" x="565.5" y="-7.5" font-family="Helvetica,sans-Serif" font-size="10.00">string</text>
</a>
</g>
</g>
<!-- Node4&#45;&gt;Node8 -->
<g id="edge13" class="edge">
<title>Node4&#45;&gt;Node8</title>
<path fill="none" stroke="midnightblue" d="M472.21,-113.19C497.75,-107 526.19,-95.9 545.5,-76 557.44,-63.7 562.27,-44.44 564.21,-30.08"/>
<polygon fill="midnightblue" stroke="midnightblue" points="567.72,-30.13 565.23,-19.83 560.76,-29.44 567.72,-30.13"/>
</g>
<!-- Node10 -->
<g id="node10" class="node">
<title>Node10</title>
<g id="a_node10"><a xlink:title=" ">
<polygon fill="none" stroke="#bfbfbf" points="227.5,-56.5 227.5,-75.5 279.5,-75.5 279.5,-56.5 227.5,-56.5"/>
<text text-anchor="middle" x="253.5" y="-63.5" font-family="Helvetica,sans-Serif" font-size="10.00">cassert</text>
</a>
</g>
</g>
<!-- Node4&#45;&gt;Node10 -->
<g id="edge10" class="edge">
<title>Node4&#45;&gt;Node10</title>
<path fill="none" stroke="midnightblue" d="M388.15,-112.44C361.23,-103.36 318.5,-88.94 288.41,-78.78"/>
<polygon fill="midnightblue" stroke="midnightblue" points="289.33,-75.4 278.73,-75.52 287.09,-82.03 289.33,-75.4"/>
</g>
<!-- Node11 -->
<g id="node11" class="node">
<title>Node11</title>
<g id="a_node11"><a xlink:title=" ">
<polygon fill="none" stroke="#bfbfbf" points="297.5,-56.5 297.5,-75.5 329.5,-75.5 329.5,-56.5 297.5,-56.5"/>
<text text-anchor="middle" x="313.5" y="-63.5" font-family="Helvetica,sans-Serif" font-size="10.00">list</text>
</a>
</g>
</g>
<!-- Node4&#45;&gt;Node11 -->
<g id="edge11" class="edge">
<title>Node4&#45;&gt;Node11</title>
<path fill="none" stroke="midnightblue" d="M397.43,-112.32C381.54,-103.74 356.99,-90.49 338.54,-80.52"/>
<polygon fill="midnightblue" stroke="midnightblue" points="339.99,-77.33 329.53,-75.65 336.66,-83.49 339.99,-77.33"/>
</g>
<!-- Node12 -->
<g id="node12" class="node">
<title>Node12</title>
<g id="a_node12"><a xlink:title=" ">
<polygon fill="none" stroke="#bfbfbf" points="347.5,-56.5 347.5,-75.5 385.5,-75.5 385.5,-56.5 347.5,-56.5"/>
<text text-anchor="middle" x="366.5" y="-63.5" font-family="Helvetica,sans-Serif" font-size="10.00">map</text>
</a>
</g>
</g>
<!-- Node4&#45;&gt;Node12 -->
<g id="edge12" class="edge">
<title>Node4&#45;&gt;Node12</title>
<path fill="none" stroke="midnightblue" d="M405.74,-112.08C398.96,-104.3 388.96,-92.8 380.74,-83.37"/>
<polygon fill="midnightblue" stroke="midnightblue" points="383.32,-81 374.12,-75.75 378.04,-85.59 383.32,-81"/>
</g>
<!-- Node5&#45;&gt;Node6 -->
<g id="edge5" class="edge">
<title>Node5&#45;&gt;Node6</title>
<path fill="none" stroke="midnightblue" d="M477.29,-56.32C465.72,-48.11 448.12,-35.6 434.34,-25.81"/>
<polygon fill="midnightblue" stroke="midnightblue" points="436.11,-22.77 425.93,-19.83 432.06,-28.48 436.11,-22.77"/>
</g>
<!-- Node5&#45;&gt;Node7 -->
<g id="edge6" class="edge">
<title>Node5&#45;&gt;Node7</title>
<path fill="none" stroke="midnightblue" d="M527.85,-56.44C572.58,-46.46 646.17,-30.04 691.57,-19.91"/>
<polygon fill="midnightblue" stroke="midnightblue" points="692.36,-23.32 701.36,-17.73 690.84,-16.49 692.36,-23.32"/>
</g>
<!-- Node5&#45;&gt;Node8 -->
<g id="edge7" class="edge">
<title>Node5&#45;&gt;Node8</title>
<path fill="none" stroke="midnightblue" d="M501.71,-56.32C513.28,-48.11 530.88,-35.6 544.66,-25.81"/>
<polygon fill="midnightblue" stroke="midnightblue" points="546.94,-28.48 553.07,-19.83 542.89,-22.77 546.94,-28.48"/>
</g>
<!-- Node9 -->
<g id="node9" class="node">
<title>Node9</title>
<g id="a_node9"><a xlink:title=" ">
<polygon fill="none" stroke="#bfbfbf" points="464,-0.5 464,-19.5 517,-19.5 517,-0.5 464,-0.5"/>
<text text-anchor="middle" x="490.5" y="-7.5" font-family="Helvetica,sans-Serif" font-size="10.00">stdint.h</text>
</a>
</g>
</g>
<!-- Node5&#45;&gt;Node9 -->
<g id="edge8" class="edge">
<title>Node5&#45;&gt;Node9</title>
<path fill="none" stroke="midnightblue" d="M489.67,-56.08C489.8,-49.01 489.98,-38.86 490.15,-29.99"/>
<polygon fill="midnightblue" stroke="midnightblue" points="493.65,-29.81 490.34,-19.75 486.65,-29.68 493.65,-29.81"/>
</g>
<!-- Node18&#45;&gt;Node7 -->
<g id="edge21" class="edge">
<title>Node18&#45;&gt;Node7</title>
<path fill="none" stroke="midnightblue" d="M863.62,-56.44C837.21,-47.36 795.28,-32.94 765.76,-22.78"/>
<polygon fill="midnightblue" stroke="midnightblue" points="766.86,-19.46 756.26,-19.52 764.58,-26.08 766.86,-19.46"/>
</g>
<!-- Node18&#45;&gt;Node8 -->
<g id="edge23" class="edge">
<title>Node18&#45;&gt;Node8</title>
<path fill="none" stroke="midnightblue" d="M837.32,-56.44C770.14,-45.21 654.17,-25.82 597.94,-16.42"/>
<polygon fill="midnightblue" stroke="midnightblue" points="598.29,-12.93 587.85,-14.74 597.13,-19.84 598.29,-12.93"/>
</g>
<!-- Node19 -->
<g id="node19" class="node">
<title>Node19</title>
<g id="a_node19"><a xlink:title=" ">
<polygon fill="none" stroke="#bfbfbf" points="859,-0.5 859,-19.5 918,-19.5 918,-0.5 859,-0.5"/>
<text text-anchor="middle" x="888.5" y="-7.5" font-family="Helvetica,sans-Serif" font-size="10.00">setjmp.h</text>
</a>
</g>
</g>
<!-- Node18&#45;&gt;Node19 -->
<g id="edge22" class="edge">
<title>Node18&#45;&gt;Node19</title>
<path fill="none" stroke="midnightblue" d="M888.5,-56.08C888.5,-49.01 888.5,-38.86 888.5,-29.99"/>
<polygon fill="midnightblue" stroke="midnightblue" points="892,-29.75 888.5,-19.75 885,-29.75 892,-29.75"/>
</g>
</g>
</svg>
