<?xml version="1.0" encoding="UTF-8" standalone="no"?>
<!DOCTYPE svg PUBLIC "-//W3C//DTD SVG 1.1//EN"
 "http://www.w3.org/Graphics/SVG/1.1/DTD/svg11.dtd">
<!-- Generated by graphviz version 2.43.0 (0)
 -->
<!-- Title: MACVETH/include/PlcmntAlgo.h Pages: 1 -->
<svg width="1647pt" height="599pt"
 viewBox="0.00 0.00 1647.26 599.00" xmlns="http://www.w3.org/2000/svg" xmlns:xlink="http://www.w3.org/1999/xlink">
<g id="graph0" class="graph" transform="scale(1 1) rotate(0) translate(4 595)">
<title>MACVETH/include/PlcmntAlgo.h</title>
<!-- Node1 -->
<g id="node1" class="node">
<title>Node1</title>
<g id="a_node1"><a xlink:title=" ">
<polygon fill="#bfbfbf" stroke="black" points="607.76,-571.5 607.76,-590.5 778.76,-590.5 778.76,-571.5 607.76,-571.5"/>
<text text-anchor="middle" x="693.26" y="-578.5" font-family="Helvetica,sans-Serif" font-size="10.00">MACVETH/include/PlcmntAlgo.h</text>
</a>
</g>
</g>
<!-- Node2 -->
<g id="node2" class="node">
<title>Node2</title>
<g id="a_node2"><a xlink:href="CDAG_8h.html" target="_top" xlink:title=" ">
<polygon fill="none" stroke="black" points="684.26,-515.5 684.26,-534.5 776.26,-534.5 776.26,-515.5 684.26,-515.5"/>
<text text-anchor="middle" x="730.26" y="-522.5" font-family="Helvetica,sans-Serif" font-size="10.00">include/CDAG.h</text>
</a>
</g>
</g>
<!-- Node1&#45;&gt;Node2 -->
<g id="edge1" class="edge">
<title>Node1&#45;&gt;Node2</title>
<path fill="none" stroke="midnightblue" d="M699.37,-571.08C704.55,-563.53 712.11,-552.49 718.46,-543.23"/>
<polygon fill="midnightblue" stroke="midnightblue" points="721.5,-544.98 724.27,-534.75 715.73,-541.02 721.5,-544.98"/>
</g>
<!-- Node3 -->
<g id="node3" class="node">
<title>Node3</title>
<g id="a_node3"><a xlink:href="Node_8h.html" target="_top" xlink:title=" ">
<polygon fill="none" stroke="black" points="611.76,-459.5 611.76,-478.5 700.76,-478.5 700.76,-459.5 611.76,-459.5"/>
<text text-anchor="middle" x="656.26" y="-466.5" font-family="Helvetica,sans-Serif" font-size="10.00">include/Node.h</text>
</a>
</g>
</g>
<!-- Node1&#45;&gt;Node3 -->
<g id="edge71" class="edge">
<title>Node1&#45;&gt;Node3</title>
<path fill="none" stroke="midnightblue" d="M689.57,-571.47C685.74,-562.48 679.71,-547.88 675.26,-535 669.93,-519.55 664.78,-501.7 661.2,-488.62"/>
<polygon fill="midnightblue" stroke="midnightblue" points="664.56,-487.66 658.58,-478.92 657.8,-489.48 664.56,-487.66"/>
</g>
<!-- Node2&#45;&gt;Node3 -->
<g id="edge2" class="edge">
<title>Node2&#45;&gt;Node3</title>
<path fill="none" stroke="midnightblue" d="M718.37,-515.32C707.11,-507.11 689.98,-494.6 676.56,-484.81"/>
<polygon fill="midnightblue" stroke="midnightblue" points="678.51,-481.9 668.37,-478.83 674.38,-487.56 678.51,-481.9"/>
</g>
<!-- Node35 -->
<g id="node35" class="node">
<title>Node35</title>
<g id="a_node35"><a xlink:href="TAC_8h.html" target="_top" xlink:title=" ">
<polygon fill="none" stroke="black" points="905.76,-342 905.76,-361 988.76,-361 988.76,-342 905.76,-342"/>
<text text-anchor="middle" x="947.26" y="-349" font-family="Helvetica,sans-Serif" font-size="10.00">include/TAC.h</text>
</a>
</g>
</g>
<!-- Node2&#45;&gt;Node35 -->
<g id="edge70" class="edge">
<title>Node2&#45;&gt;Node35</title>
<path fill="none" stroke="midnightblue" d="M741.03,-515.5C775.66,-488.12 884.55,-402.07 928.54,-367.29"/>
<polygon fill="midnightblue" stroke="midnightblue" points="930.76,-370 936.44,-361.06 926.42,-364.51 930.76,-370"/>
</g>
<!-- Node4 -->
<g id="node4" class="node">
<title>Node4</title>
<g id="a_node4"><a xlink:href="MVExpr_8h.html" target="_top" xlink:title=" ">
<polygon fill="none" stroke="black" points="337.76,-280.5 337.76,-299.5 478.76,-299.5 478.76,-280.5 337.76,-280.5"/>
<text text-anchor="middle" x="408.26" y="-287.5" font-family="Helvetica,sans-Serif" font-size="10.00">include/MVExpr/MVExpr.h</text>
</a>
</g>
</g>
<!-- Node3&#45;&gt;Node4 -->
<g id="edge3" class="edge">
<title>Node3&#45;&gt;Node4</title>
<path fill="none" stroke="midnightblue" d="M611.3,-468.31C471.76,-468.82 52.97,-466.65 12.26,-423 -8.05,-401.22 -3.14,-367.06 35.26,-336 78.75,-300.83 231.38,-292.58 327.39,-290.98"/>
<polygon fill="midnightblue" stroke="midnightblue" points="327.71,-294.47 337.65,-290.82 327.6,-287.47 327.71,-294.47"/>
</g>
<!-- Node22 -->
<g id="node22" class="node">
<title>Node22</title>
<g id="a_node22"><a xlink:title=" ">
<polygon fill="none" stroke="#bfbfbf" points="637.26,-224.5 637.26,-243.5 735.26,-243.5 735.26,-224.5 637.26,-224.5"/>
<text text-anchor="middle" x="686.26" y="-231.5" font-family="Helvetica,sans-Serif" font-size="10.00">clang/AST/Expr.h</text>
</a>
</g>
</g>
<!-- Node3&#45;&gt;Node22 -->
<g id="edge69" class="edge">
<title>Node3&#45;&gt;Node22</title>
<path fill="none" stroke="midnightblue" d="M675.41,-459.45C691.26,-451.66 713.63,-438.95 729.26,-423 749.49,-402.37 754.66,-394.87 762.26,-367 772.57,-329.22 770.18,-312.46 748.26,-280 739.4,-266.87 725.36,-256.22 712.89,-248.58"/>
<polygon fill="midnightblue" stroke="midnightblue" points="714.59,-245.52 704.18,-243.56 711.09,-251.59 714.59,-245.52"/>
</g>
<!-- Node25 -->
<g id="node25" class="node">
<title>Node25</title>
<g id="a_node25"><a xlink:href="MVExprLiteral_8h.html" target="_top" xlink:title=" ">
<polygon fill="none" stroke="black" points="298.76,-403.5 298.76,-422.5 471.76,-422.5 471.76,-403.5 298.76,-403.5"/>
<text text-anchor="middle" x="385.26" y="-410.5" font-family="Helvetica,sans-Serif" font-size="10.00">include/MVExpr/MVExprLiteral.h</text>
</a>
</g>
</g>
<!-- Node3&#45;&gt;Node25 -->
<g id="edge33" class="edge">
<title>Node3&#45;&gt;Node25</title>
<path fill="none" stroke="midnightblue" d="M613.32,-459.44C565.75,-449.96 489.02,-434.67 437.88,-424.48"/>
<polygon fill="midnightblue" stroke="midnightblue" points="438.5,-421.04 428,-422.52 437.13,-427.9 438.5,-421.04"/>
</g>
<!-- Node26 -->
<g id="node26" class="node">
<title>Node26</title>
<g id="a_node26"><a xlink:href="MVExprVar_8h.html" target="_top" xlink:title=" ">
<polygon fill="none" stroke="black" points="21.76,-403.5 21.76,-422.5 178.76,-422.5 178.76,-403.5 21.76,-403.5"/>
<text text-anchor="middle" x="100.26" y="-410.5" font-family="Helvetica,sans-Serif" font-size="10.00">include/MVExpr/MVExprVar.h</text>
</a>
</g>
</g>
<!-- Node3&#45;&gt;Node26 -->
<g id="edge35" class="edge">
<title>Node3&#45;&gt;Node26</title>
<path fill="none" stroke="midnightblue" d="M611.7,-463.67C520.19,-454.78 309.55,-434.33 189.08,-422.63"/>
<polygon fill="midnightblue" stroke="midnightblue" points="189.08,-419.11 178.79,-421.63 188.4,-426.08 189.08,-419.11"/>
</g>
<!-- Node28 -->
<g id="node28" class="node">
<title>Node28</title>
<g id="a_node28"><a xlink:href="StmtWrapper_8h.html" target="_top" xlink:title=" ">
<polygon fill="none" stroke="black" points="592.26,-403.5 592.26,-422.5 720.26,-422.5 720.26,-403.5 592.26,-403.5"/>
<text text-anchor="middle" x="656.26" y="-410.5" font-family="Helvetica,sans-Serif" font-size="10.00">include/StmtWrapper.h</text>
</a>
</g>
</g>
<!-- Node3&#45;&gt;Node28 -->
<g id="edge38" class="edge">
<title>Node3&#45;&gt;Node28</title>
<path fill="none" stroke="midnightblue" d="M656.26,-459.08C656.26,-452.01 656.26,-441.86 656.26,-432.99"/>
<polygon fill="midnightblue" stroke="midnightblue" points="659.76,-432.75 656.26,-422.75 652.76,-432.75 659.76,-432.75"/>
</g>
<!-- Node3&#45;&gt;Node35 -->
<g id="edge68" class="edge">
<title>Node3&#45;&gt;Node35</title>
<path fill="none" stroke="midnightblue" d="M695.27,-459.44C727.94,-451.69 775.49,-439.03 815.26,-423 855.4,-406.82 899.18,-381.86 924.88,-366.38"/>
<polygon fill="midnightblue" stroke="midnightblue" points="926.76,-369.33 933.49,-361.15 923.12,-363.35 926.76,-369.33"/>
</g>
<!-- Node5 -->
<g id="node5" class="node">
<title>Node5</title>
<g id="a_node5"><a xlink:href="Debug_8h.html" target="_top" xlink:title=" ">
<polygon fill="none" stroke="black" points="867.76,-224.5 867.76,-243.5 962.76,-243.5 962.76,-224.5 867.76,-224.5"/>
<text text-anchor="middle" x="915.26" y="-231.5" font-family="Helvetica,sans-Serif" font-size="10.00">include/Debug.h</text>
</a>
</g>
</g>
<!-- Node4&#45;&gt;Node5 -->
<g id="edge4" class="edge">
<title>Node4&#45;&gt;Node5</title>
<path fill="none" stroke="midnightblue" d="M479.03,-281.46C580.21,-270.69 764.29,-251.08 857.65,-241.14"/>
<polygon fill="midnightblue" stroke="midnightblue" points="858.19,-244.6 867.76,-240.06 857.44,-237.64 858.19,-244.6"/>
</g>
<!-- Node6 -->
<g id="node6" class="node">
<title>Node6</title>
<g id="a_node6"><a xlink:href="Utils_8h.html" target="_top" xlink:title=" ">
<polygon fill="none" stroke="black" points="922.26,-168.5 922.26,-187.5 1008.26,-187.5 1008.26,-168.5 922.26,-168.5"/>
<text text-anchor="middle" x="965.26" y="-175.5" font-family="Helvetica,sans-Serif" font-size="10.00">include/Utils.h</text>
</a>
</g>
</g>
<!-- Node4&#45;&gt;Node6 -->
<g id="edge26" class="edge">
<title>Node4&#45;&gt;Node6</title>
<path fill="none" stroke="midnightblue" d="M451.13,-280.45C487.39,-272.66 540.46,-259.96 585.26,-244 605.12,-236.93 608.03,-229.91 628.26,-224 680.29,-208.81 831.1,-192.26 912.19,-184.11"/>
<polygon fill="midnightblue" stroke="midnightblue" points="912.59,-187.59 922.2,-183.11 911.9,-180.62 912.59,-187.59"/>
</g>
<!-- Node10 -->
<g id="node10" class="node">
<title>Node10</title>
<g id="a_node10"><a xlink:title=" ">
<polygon fill="none" stroke="#bfbfbf" points="1350.26,-0.5 1350.26,-19.5 1410.26,-19.5 1410.26,-0.5 1350.26,-0.5"/>
<text text-anchor="middle" x="1380.26" y="-7.5" font-family="Helvetica,sans-Serif" font-size="10.00">iostream</text>
</a>
</g>
</g>
<!-- Node4&#45;&gt;Node10 -->
<g id="edge30" class="edge">
<title>Node4&#45;&gt;Node10</title>
<path fill="none" stroke="midnightblue" d="M431.66,-280.45C488.5,-259.23 637.54,-200.86 751.26,-132 798.41,-103.45 797.92,-76.04 849.26,-56 938.72,-21.09 1232.25,-13.21 1340.07,-11.47"/>
<polygon fill="midnightblue" stroke="midnightblue" points="1340.27,-14.97 1350.21,-11.32 1340.16,-7.97 1340.27,-14.97"/>
</g>
<!-- Node11 -->
<g id="node11" class="node">
<title>Node11</title>
<g id="a_node11"><a xlink:title=" ">
<polygon fill="none" stroke="#bfbfbf" points="658.26,-0.5 658.26,-19.5 702.26,-19.5 702.26,-0.5 658.26,-0.5"/>
<text text-anchor="middle" x="680.26" y="-7.5" font-family="Helvetica,sans-Serif" font-size="10.00">string</text>
</a>
</g>
</g>
<!-- Node4&#45;&gt;Node11 -->
<g id="edge32" class="edge">
<title>Node4&#45;&gt;Node11</title>
<path fill="none" stroke="midnightblue" d="M415.08,-280.46C428.54,-262.69 457.26,-219.98 457.26,-179 457.26,-179 457.26,-179 457.26,-121 457.26,-78.97 586.3,-37.23 648.06,-19.66"/>
<polygon fill="midnightblue" stroke="midnightblue" points="649.38,-22.93 658.07,-16.86 647.49,-16.19 649.38,-22.93"/>
</g>
<!-- Node16 -->
<g id="node16" class="node">
<title>Node16</title>
<g id="a_node16"><a xlink:title=" ">
<polygon fill="none" stroke="#bfbfbf" points="494.76,-112.5 494.76,-131.5 589.76,-131.5 589.76,-112.5 494.76,-112.5"/>
<text text-anchor="middle" x="542.26" y="-119.5" font-family="Helvetica,sans-Serif" font-size="10.00">clang/AST/AST.h</text>
</a>
</g>
</g>
<!-- Node4&#45;&gt;Node16 -->
<g id="edge27" class="edge">
<title>Node4&#45;&gt;Node16</title>
<path fill="none" stroke="midnightblue" d="M423.91,-280.38C437.6,-272.29 457.39,-259.18 471.26,-244 486.63,-227.2 517.42,-170.4 532.91,-140.99"/>
<polygon fill="midnightblue" stroke="midnightblue" points="536.16,-142.32 537.7,-131.84 529.96,-139.07 536.16,-142.32"/>
</g>
<!-- Node21 -->
<g id="node21" class="node">
<title>Node21</title>
<g id="a_node21"><a xlink:href="MVDataType_8h.html" target="_top" xlink:title=" ">
<polygon fill="none" stroke="black" points="263.26,-112.5 263.26,-131.5 429.26,-131.5 429.26,-112.5 263.26,-112.5"/>
<text text-anchor="middle" x="346.26" y="-119.5" font-family="Helvetica,sans-Serif" font-size="10.00">include/MVExpr/MVDataType.h</text>
</a>
</g>
</g>
<!-- Node4&#45;&gt;Node21 -->
<g id="edge23" class="edge">
<title>Node4&#45;&gt;Node21</title>
<path fill="none" stroke="midnightblue" d="M337.7,-281.61C289.4,-274.93 231.44,-263.15 216.26,-244 180.8,-199.26 264.64,-155.94 313.76,-135.39"/>
<polygon fill="midnightblue" stroke="midnightblue" points="315.14,-138.61 323.08,-131.59 312.49,-132.13 315.14,-138.61"/>
</g>
<!-- Node4&#45;&gt;Node22 -->
<g id="edge28" class="edge">
<title>Node4&#45;&gt;Node22</title>
<path fill="none" stroke="midnightblue" d="M452.31,-280.44C501.12,-270.96 579.83,-255.67 632.29,-245.48"/>
<polygon fill="midnightblue" stroke="midnightblue" points="633.27,-248.86 642.42,-243.52 631.94,-241.99 633.27,-248.86"/>
</g>
<!-- Node23 -->
<g id="node23" class="node">
<title>Node23</title>
<g id="a_node23"><a xlink:title=" ">
<polygon fill="none" stroke="#bfbfbf" points="225.26,-224.5 225.26,-243.5 353.26,-243.5 353.26,-224.5 225.26,-224.5"/>
<text text-anchor="middle" x="289.26" y="-231.5" font-family="Helvetica,sans-Serif" font-size="10.00">llvm/Support/Casting.h</text>
</a>
</g>
</g>
<!-- Node4&#45;&gt;Node23 -->
<g id="edge29" class="edge">
<title>Node4&#45;&gt;Node23</title>
<path fill="none" stroke="midnightblue" d="M389.41,-280.44C370,-271.64 339.53,-257.81 317.3,-247.72"/>
<polygon fill="midnightblue" stroke="midnightblue" points="318.58,-244.46 308.03,-243.52 315.69,-250.84 318.58,-244.46"/>
</g>
<!-- Node24 -->
<g id="node24" class="node">
<title>Node24</title>
<g id="a_node24"><a xlink:title=" ">
<polygon fill="none" stroke="#bfbfbf" points="371.26,-224.5 371.26,-243.5 429.26,-243.5 429.26,-224.5 371.26,-224.5"/>
<text text-anchor="middle" x="400.26" y="-231.5" font-family="Helvetica,sans-Serif" font-size="10.00">memory</text>
</a>
</g>
</g>
<!-- Node4&#45;&gt;Node24 -->
<g id="edge31" class="edge">
<title>Node4&#45;&gt;Node24</title>
<path fill="none" stroke="midnightblue" d="M406.94,-280.08C405.88,-272.93 404.36,-262.64 403.03,-253.69"/>
<polygon fill="midnightblue" stroke="midnightblue" points="406.49,-253.13 401.56,-243.75 399.56,-254.16 406.49,-253.13"/>
</g>
<!-- Node5&#45;&gt;Node6 -->
<g id="edge5" class="edge">
<title>Node5&#45;&gt;Node6</title>
<path fill="none" stroke="midnightblue" d="M923.52,-224.08C930.73,-216.3 941.37,-204.8 950.11,-195.37"/>
<polygon fill="midnightblue" stroke="midnightblue" points="952.94,-197.47 957.16,-187.75 947.8,-192.71 952.94,-197.47"/>
</g>
<!-- Node7 -->
<g id="node7" class="node">
<title>Node7</title>
<g id="a_node7"><a xlink:href="MVOptions_8h.html" target="_top" xlink:title=" ">
<polygon fill="none" stroke="black" points="625.76,-112.5 625.76,-131.5 742.76,-131.5 742.76,-112.5 625.76,-112.5"/>
<text text-anchor="middle" x="684.26" y="-119.5" font-family="Helvetica,sans-Serif" font-size="10.00">include/MVOptions.h</text>
</a>
</g>
</g>
<!-- Node6&#45;&gt;Node7 -->
<g id="edge6" class="edge">
<title>Node6&#45;&gt;Node7</title>
<path fill="none" stroke="midnightblue" d="M921.97,-168.68C872.66,-159.2 791.99,-143.7 738.52,-133.43"/>
<polygon fill="midnightblue" stroke="midnightblue" points="739.01,-129.96 728.53,-131.51 737.69,-136.83 739.01,-129.96"/>
</g>
<!-- Node6&#45;&gt;Node10 -->
<g id="edge22" class="edge">
<title>Node6&#45;&gt;Node10</title>
<path fill="none" stroke="midnightblue" d="M1008.35,-169.62C1011.71,-169.07 1015.04,-168.52 1018.26,-168 1123.01,-151.12 1159.11,-178.94 1254.26,-132 1304.63,-107.16 1348.06,-54.95 1368.23,-27.96"/>
<polygon fill="midnightblue" stroke="midnightblue" points="1371.3,-29.69 1374.37,-19.55 1365.65,-25.56 1371.3,-29.69"/>
</g>
<!-- Node6&#45;&gt;Node16 -->
<g id="edge17" class="edge">
<title>Node6&#45;&gt;Node16</title>
<path fill="none" stroke="midnightblue" d="M921.98,-171.47C845.4,-161.7 686,-141.35 600.1,-130.38"/>
<polygon fill="midnightblue" stroke="midnightblue" points="600.36,-126.89 589.99,-129.09 599.47,-133.83 600.36,-126.89"/>
</g>
<!-- Node17 -->
<g id="node17" class="node">
<title>Node17</title>
<g id="a_node17"><a xlink:title=" ">
<polygon fill="none" stroke="#bfbfbf" points="907.76,-112.5 907.76,-131.5 1052.76,-131.5 1052.76,-112.5 907.76,-112.5"/>
<text text-anchor="middle" x="980.26" y="-119.5" font-family="Helvetica,sans-Serif" font-size="10.00">clang/Basic/LangOptions.h</text>
</a>
</g>
</g>
<!-- Node6&#45;&gt;Node17 -->
<g id="edge18" class="edge">
<title>Node6&#45;&gt;Node17</title>
<path fill="none" stroke="midnightblue" d="M967.74,-168.08C969.75,-160.85 972.65,-150.41 975.15,-141.4"/>
<polygon fill="midnightblue" stroke="midnightblue" points="978.53,-142.32 977.83,-131.75 971.78,-140.45 978.53,-142.32"/>
</g>
<!-- Node18 -->
<g id="node18" class="node">
<title>Node18</title>
<g id="a_node18"><a xlink:title=" ">
<polygon fill="none" stroke="#bfbfbf" points="1300.76,-112.5 1300.76,-131.5 1459.76,-131.5 1459.76,-112.5 1300.76,-112.5"/>
<text text-anchor="middle" x="1380.26" y="-119.5" font-family="Helvetica,sans-Serif" font-size="10.00">clang/Basic/SourceManager.h</text>
</a>
</g>
</g>
<!-- Node6&#45;&gt;Node18 -->
<g id="edge19" class="edge">
<title>Node6&#45;&gt;Node18</title>
<path fill="none" stroke="midnightblue" d="M1008.34,-169.52C1011.69,-168.99 1015.03,-168.48 1018.26,-168 1112.07,-154.21 1219.96,-141.16 1293.38,-132.7"/>
<polygon fill="midnightblue" stroke="midnightblue" points="1293.97,-136.16 1303.51,-131.54 1293.17,-129.2 1293.97,-136.16"/>
</g>
<!-- Node19 -->
<g id="node19" class="node">
<title>Node19</title>
<g id="a_node19"><a xlink:title=" ">
<polygon fill="none" stroke="#bfbfbf" points="1070.76,-112.5 1070.76,-131.5 1171.76,-131.5 1171.76,-112.5 1070.76,-112.5"/>
<text text-anchor="middle" x="1121.26" y="-119.5" font-family="Helvetica,sans-Serif" font-size="10.00">clang/Lex/Lexer.h</text>
</a>
</g>
</g>
<!-- Node6&#45;&gt;Node19 -->
<g id="edge20" class="edge">
<title>Node6&#45;&gt;Node19</title>
<path fill="none" stroke="midnightblue" d="M989.98,-168.44C1016.11,-159.4 1057.52,-145.06 1086.84,-134.92"/>
<polygon fill="midnightblue" stroke="midnightblue" points="1088.36,-138.1 1096.66,-131.52 1086.07,-131.48 1088.36,-138.1"/>
</g>
<!-- Node20 -->
<g id="node20" class="node">
<title>Node20</title>
<g id="a_node20"><a xlink:title=" ">
<polygon fill="none" stroke="#bfbfbf" points="1189.76,-112.5 1189.76,-131.5 1244.76,-131.5 1244.76,-112.5 1189.76,-112.5"/>
<text text-anchor="middle" x="1217.26" y="-119.5" font-family="Helvetica,sans-Serif" font-size="10.00">fstream</text>
</a>
</g>
</g>
<!-- Node6&#45;&gt;Node20 -->
<g id="edge21" class="edge">
<title>Node6&#45;&gt;Node20</title>
<path fill="none" stroke="midnightblue" d="M1008.4,-168.54C1049.95,-160.27 1114.8,-147.05 1179.43,-132.36"/>
<polygon fill="midnightblue" stroke="midnightblue" points="1180.41,-135.73 1189.38,-130.09 1178.85,-128.9 1180.41,-135.73"/>
</g>
<!-- Node8 -->
<g id="node8" class="node">
<title>Node8</title>
<g id="a_node8"><a xlink:href="CPUID_8h.html" target="_top" xlink:title=" ">
<polygon fill="none" stroke="black" points="560.76,-56.5 560.76,-75.5 655.76,-75.5 655.76,-56.5 560.76,-56.5"/>
<text text-anchor="middle" x="608.26" y="-63.5" font-family="Helvetica,sans-Serif" font-size="10.00">include/CPUID.h</text>
</a>
</g>
</g>
<!-- Node7&#45;&gt;Node8 -->
<g id="edge7" class="edge">
<title>Node7&#45;&gt;Node8</title>
<path fill="none" stroke="midnightblue" d="M672.05,-112.32C660.49,-104.11 642.89,-91.6 629.1,-81.81"/>
<polygon fill="midnightblue" stroke="midnightblue" points="630.88,-78.77 620.7,-75.83 626.82,-84.48 630.88,-78.77"/>
</g>
<!-- Node9 -->
<g id="node9" class="node">
<title>Node9</title>
<g id="a_node9"><a xlink:title=" ">
<polygon fill="none" stroke="#bfbfbf" points="500.26,-0.5 500.26,-19.5 564.26,-19.5 564.26,-0.5 500.26,-0.5"/>
<text text-anchor="middle" x="532.26" y="-7.5" font-family="Helvetica,sans-Serif" font-size="10.00">algorithm</text>
</a>
</g>
</g>
<!-- Node7&#45;&gt;Node9 -->
<g id="edge12" class="edge">
<title>Node7&#45;&gt;Node9</title>
<path fill="none" stroke="midnightblue" d="M625.66,-113.58C599.73,-107.47 570.75,-96.32 551.26,-76 539.45,-63.68 534.92,-44.43 533.22,-30.07"/>
<polygon fill="midnightblue" stroke="midnightblue" points="536.69,-29.51 532.37,-19.83 529.71,-30.08 536.69,-29.51"/>
</g>
<!-- Node7&#45;&gt;Node11 -->
<g id="edge16" class="edge">
<title>Node7&#45;&gt;Node11</title>
<path fill="none" stroke="midnightblue" d="M683.95,-112.37C683.3,-94.62 681.82,-53.67 680.94,-29.6"/>
<polygon fill="midnightblue" stroke="midnightblue" points="684.44,-29.46 680.58,-19.59 677.44,-29.71 684.44,-29.46"/>
</g>
<!-- Node13 -->
<g id="node13" class="node">
<title>Node13</title>
<g id="a_node13"><a xlink:title=" ">
<polygon fill="none" stroke="#bfbfbf" points="712.26,-56.5 712.26,-75.5 764.26,-75.5 764.26,-56.5 712.26,-56.5"/>
<text text-anchor="middle" x="738.26" y="-63.5" font-family="Helvetica,sans-Serif" font-size="10.00">cassert</text>
</a>
</g>
</g>
<!-- Node7&#45;&gt;Node13 -->
<g id="edge13" class="edge">
<title>Node7&#45;&gt;Node13</title>
<path fill="none" stroke="midnightblue" d="M693.18,-112.08C701.04,-104.22 712.7,-92.57 722.18,-83.08"/>
<polygon fill="midnightblue" stroke="midnightblue" points="724.92,-85.3 729.51,-75.75 719.97,-80.35 724.92,-85.3"/>
</g>
<!-- Node14 -->
<g id="node14" class="node">
<title>Node14</title>
<g id="a_node14"><a xlink:title=" ">
<polygon fill="none" stroke="#bfbfbf" points="858.26,-56.5 858.26,-75.5 890.26,-75.5 890.26,-56.5 858.26,-56.5"/>
<text text-anchor="middle" x="874.26" y="-63.5" font-family="Helvetica,sans-Serif" font-size="10.00">list</text>
</a>
</g>
</g>
<!-- Node7&#45;&gt;Node14 -->
<g id="edge14" class="edge">
<title>Node7&#45;&gt;Node14</title>
<path fill="none" stroke="midnightblue" d="M714.37,-112.44C751.16,-101.99 812.83,-84.46 847.86,-74.5"/>
<polygon fill="midnightblue" stroke="midnightblue" points="849.15,-77.78 857.82,-71.67 847.24,-71.04 849.15,-77.78"/>
</g>
<!-- Node15 -->
<g id="node15" class="node">
<title>Node15</title>
<g id="a_node15"><a xlink:title=" ">
<polygon fill="none" stroke="#bfbfbf" points="387.26,-56.5 387.26,-75.5 425.26,-75.5 425.26,-56.5 387.26,-56.5"/>
<text text-anchor="middle" x="406.26" y="-63.5" font-family="Helvetica,sans-Serif" font-size="10.00">map</text>
</a>
</g>
</g>
<!-- Node7&#45;&gt;Node15 -->
<g id="edge15" class="edge">
<title>Node7&#45;&gt;Node15</title>
<path fill="none" stroke="midnightblue" d="M640.21,-112.44C582.87,-101.31 484.24,-82.15 435.41,-72.66"/>
<polygon fill="midnightblue" stroke="midnightblue" points="435.98,-69.21 425.5,-70.74 434.65,-76.08 435.98,-69.21"/>
</g>
<!-- Node8&#45;&gt;Node9 -->
<g id="edge8" class="edge">
<title>Node8&#45;&gt;Node9</title>
<path fill="none" stroke="midnightblue" d="M596.05,-56.32C584.49,-48.11 566.89,-35.6 553.1,-25.81"/>
<polygon fill="midnightblue" stroke="midnightblue" points="554.88,-22.77 544.7,-19.83 550.82,-28.48 554.88,-22.77"/>
</g>
<!-- Node8&#45;&gt;Node10 -->
<g id="edge9" class="edge">
<title>Node8&#45;&gt;Node10</title>
<path fill="none" stroke="midnightblue" d="M656.08,-60.21C671.17,-58.76 687.91,-57.24 703.26,-56 944.77,-36.54 1235.23,-19.3 1340.08,-13.28"/>
<polygon fill="midnightblue" stroke="midnightblue" points="1340.43,-16.76 1350.21,-12.7 1340.03,-9.77 1340.43,-16.76"/>
</g>
<!-- Node8&#45;&gt;Node11 -->
<g id="edge10" class="edge">
<title>Node8&#45;&gt;Node11</title>
<path fill="none" stroke="midnightblue" d="M619.83,-56.32C630.68,-48.18 647.14,-35.84 660.15,-26.09"/>
<polygon fill="midnightblue" stroke="midnightblue" points="662.59,-28.63 668.49,-19.83 658.39,-23.03 662.59,-28.63"/>
</g>
<!-- Node12 -->
<g id="node12" class="node">
<title>Node12</title>
<g id="a_node12"><a xlink:title=" ">
<polygon fill="none" stroke="#bfbfbf" points="582.76,-0.5 582.76,-19.5 635.76,-19.5 635.76,-0.5 582.76,-0.5"/>
<text text-anchor="middle" x="609.26" y="-7.5" font-family="Helvetica,sans-Serif" font-size="10.00">stdint.h</text>
</a>
</g>
</g>
<!-- Node8&#45;&gt;Node12 -->
<g id="edge11" class="edge">
<title>Node8&#45;&gt;Node12</title>
<path fill="none" stroke="midnightblue" d="M608.43,-56.08C608.56,-49.01 608.75,-38.86 608.91,-29.99"/>
<polygon fill="midnightblue" stroke="midnightblue" points="612.42,-29.81 609.1,-19.75 605.42,-29.68 612.42,-29.81"/>
</g>
<!-- Node21&#45;&gt;Node11 -->
<g id="edge25" class="edge">
<title>Node21&#45;&gt;Node11</title>
<path fill="none" stroke="midnightblue" d="M347.87,-112.14C350.99,-97.79 359.28,-69.67 378.26,-56 426.68,-21.15 585.68,-31.25 644.26,-20 645.51,-19.76 646.78,-19.51 648.05,-19.24"/>
<polygon fill="midnightblue" stroke="midnightblue" points="648.91,-22.63 657.88,-17 647.35,-15.81 648.91,-22.63"/>
</g>
<!-- Node21&#45;&gt;Node15 -->
<g id="edge24" class="edge">
<title>Node21&#45;&gt;Node15</title>
<path fill="none" stroke="midnightblue" d="M355.9,-112.32C364.77,-104.34 378.14,-92.31 388.87,-82.65"/>
<polygon fill="midnightblue" stroke="midnightblue" points="391.36,-85.13 396.45,-75.83 386.67,-79.92 391.36,-85.13"/>
</g>
<!-- Node25&#45;&gt;Node4 -->
<g id="edge34" class="edge">
<title>Node25&#45;&gt;Node4</title>
<path fill="none" stroke="midnightblue" d="M298.46,-404.55C235.43,-395.68 166.5,-376.57 199.26,-336 215.47,-315.93 275.68,-304.39 327.34,-298.03"/>
<polygon fill="midnightblue" stroke="midnightblue" points="328.02,-301.48 337.54,-296.83 327.2,-294.53 328.02,-301.48"/>
</g>
<!-- Node26&#45;&gt;Node4 -->
<g id="edge36" class="edge">
<title>Node26&#45;&gt;Node4</title>
<path fill="none" stroke="midnightblue" d="M82.76,-403.46C69.48,-395.92 52.19,-383.53 44.26,-367 38.31,-354.58 35.14,-346.32 44.26,-336 62.71,-315.13 226.02,-301.76 327.53,-295.4"/>
<polygon fill="midnightblue" stroke="midnightblue" points="327.99,-298.87 337.76,-294.77 327.56,-291.89 327.99,-298.87"/>
</g>
<!-- Node27 -->
<g id="node27" class="node">
<title>Node27</title>
<g id="a_node27"><a xlink:title=" ">
<polygon fill="none" stroke="#bfbfbf" points="53.76,-342 53.76,-361 146.76,-361 146.76,-342 53.76,-342"/>
<text text-anchor="middle" x="100.26" y="-349" font-family="Helvetica,sans-Serif" font-size="10.00">unordered_map</text>
</a>
</g>
</g>
<!-- Node26&#45;&gt;Node27 -->
<g id="edge37" class="edge">
<title>Node26&#45;&gt;Node27</title>
<path fill="none" stroke="midnightblue" d="M100.26,-403.48C100.26,-395.08 100.26,-381.98 100.26,-371.16"/>
<polygon fill="midnightblue" stroke="midnightblue" points="103.76,-371.01 100.26,-361.01 96.76,-371.01 103.76,-371.01"/>
</g>
<!-- Node28&#45;&gt;Node4 -->
<g id="edge39" class="edge">
<title>Node28&#45;&gt;Node4</title>
<path fill="none" stroke="midnightblue" d="M592.1,-407.35C477.62,-398.75 248.97,-380.03 237.26,-367 204.79,-330.85 268.66,-310.99 327.36,-300.74"/>
<polygon fill="midnightblue" stroke="midnightblue" points="328.19,-304.15 337.48,-299.05 327.04,-297.24 328.19,-304.15"/>
</g>
<!-- Node28&#45;&gt;Node6 -->
<g id="edge62" class="edge">
<title>Node28&#45;&gt;Node6</title>
<path fill="none" stroke="midnightblue" d="M689,-403.45C711.39,-396.4 740.8,-384.65 762.26,-367 821.59,-318.23 799.94,-272.77 859.26,-224 877.8,-208.76 902.24,-197.92 922.99,-190.71"/>
<polygon fill="midnightblue" stroke="midnightblue" points="924.14,-194.01 932.53,-187.55 921.94,-187.37 924.14,-194.01"/>
</g>
<!-- Node28&#45;&gt;Node16 -->
<g id="edge63" class="edge">
<title>Node28&#45;&gt;Node16</title>
<path fill="none" stroke="midnightblue" d="M592.24,-409.11C488.06,-403.75 291.26,-390.59 270.26,-367 261.1,-356.71 261.35,-346.51 270.26,-336 333.48,-261.43 413.57,-364.24 487.26,-300 534.32,-258.98 541.64,-178.48 542.43,-141.9"/>
<polygon fill="midnightblue" stroke="midnightblue" points="545.93,-141.69 542.5,-131.67 538.93,-141.64 545.93,-141.69"/>
</g>
<!-- Node28&#45;&gt;Node22 -->
<g id="edge64" class="edge">
<title>Node28&#45;&gt;Node22</title>
<path fill="none" stroke="midnightblue" d="M692.12,-403.4C711.14,-396.81 732.89,-385.59 744.26,-367 768.31,-327.7 727.79,-276.67 703.12,-251.1"/>
<polygon fill="midnightblue" stroke="midnightblue" points="705.31,-248.34 695.77,-243.73 700.36,-253.28 705.31,-248.34"/>
</g>
<!-- Node29 -->
<g id="node29" class="node">
<title>Node29</title>
<g id="a_node29"><a xlink:href="MVPragmaHandler_8h.html" target="_top" xlink:title=" ">
<polygon fill="none" stroke="black" points="1142.76,-280.5 1142.76,-299.5 1297.76,-299.5 1297.76,-280.5 1142.76,-280.5"/>
<text text-anchor="middle" x="1220.26" y="-287.5" font-family="Helvetica,sans-Serif" font-size="10.00">include/MVPragmaHandler.h</text>
</a>
</g>
</g>
<!-- Node28&#45;&gt;Node29 -->
<g id="edge40" class="edge">
<title>Node28&#45;&gt;Node29</title>
<path fill="none" stroke="midnightblue" d="M720.38,-403.82C759.91,-397.22 810.96,-385.85 853.26,-367 875.11,-357.26 875.01,-344.79 897.26,-336 938.8,-319.6 1051.8,-306.32 1132.41,-298.55"/>
<polygon fill="midnightblue" stroke="midnightblue" points="1132.95,-302.01 1142.57,-297.58 1132.28,-295.05 1132.95,-302.01"/>
</g>
<!-- Node28&#45;&gt;Node35 -->
<g id="edge51" class="edge">
<title>Node28&#45;&gt;Node35</title>
<path fill="none" stroke="midnightblue" d="M705.97,-403.44C753.67,-395 827.64,-381.31 891.26,-367 895.98,-365.94 900.89,-364.77 905.77,-363.56"/>
<polygon fill="midnightblue" stroke="midnightblue" points="906.82,-366.9 915.66,-361.06 905.11,-360.12 906.82,-366.9"/>
</g>
<!-- Node37 -->
<g id="node37" class="node">
<title>Node37</title>
<g id="a_node37"><a xlink:title=" ">
<polygon fill="none" stroke="#bfbfbf" points="279.26,-342 279.26,-361 379.26,-361 379.26,-342 279.26,-342"/>
<text text-anchor="middle" x="329.26" y="-349" font-family="Helvetica,sans-Serif" font-size="10.00">clang/AST/Stmt.h</text>
</a>
</g>
</g>
<!-- Node28&#45;&gt;Node37 -->
<g id="edge65" class="edge">
<title>Node28&#45;&gt;Node37</title>
<path fill="none" stroke="midnightblue" d="M597.74,-403.46C543.29,-395.21 460,-381.82 388.26,-367 383.1,-365.93 377.71,-364.73 372.37,-363.49"/>
<polygon fill="midnightblue" stroke="midnightblue" points="372.78,-359.99 362.24,-361.07 371.15,-366.8 372.78,-359.99"/>
</g>
<!-- Node38 -->
<g id="node38" class="node">
<title>Node38</title>
<g id="a_node38"><a xlink:title=" ">
<polygon fill="none" stroke="#bfbfbf" points="397.76,-336.5 397.76,-366.5 558.76,-366.5 558.76,-336.5 397.76,-336.5"/>
<text text-anchor="start" x="405.76" y="-354.5" font-family="Helvetica,sans-Serif" font-size="10.00">clang/ASTMatchers/ASTMatch</text>
<text text-anchor="middle" x="478.26" y="-343.5" font-family="Helvetica,sans-Serif" font-size="10.00">Finder.h</text>
</a>
</g>
</g>
<!-- Node28&#45;&gt;Node38 -->
<g id="edge66" class="edge">
<title>Node28&#45;&gt;Node38</title>
<path fill="none" stroke="midnightblue" d="M630.76,-403.48C604.51,-394.7 562.89,-380.79 529.76,-369.71"/>
<polygon fill="midnightblue" stroke="midnightblue" points="530.81,-366.37 520.22,-366.52 528.59,-373.01 530.81,-366.37"/>
</g>
<!-- Node39 -->
<g id="node39" class="node">
<title>Node39</title>
<g id="a_node39"><a xlink:title=" ">
<polygon fill="none" stroke="#bfbfbf" points="577.26,-342 577.26,-361 735.26,-361 735.26,-342 577.26,-342"/>
<text text-anchor="middle" x="656.26" y="-349" font-family="Helvetica,sans-Serif" font-size="10.00">clang/Basic/SourceLocation.h</text>
</a>
</g>
</g>
<!-- Node28&#45;&gt;Node39 -->
<g id="edge67" class="edge">
<title>Node28&#45;&gt;Node39</title>
<path fill="none" stroke="midnightblue" d="M656.26,-403.48C656.26,-395.08 656.26,-381.98 656.26,-371.16"/>
<polygon fill="midnightblue" stroke="midnightblue" points="659.76,-371.01 656.26,-361.01 652.76,-371.01 659.76,-371.01"/>
</g>
<!-- Node29&#45;&gt;Node5 -->
<g id="edge41" class="edge">
<title>Node29&#45;&gt;Node5</title>
<path fill="none" stroke="midnightblue" d="M1171.94,-280.44C1117.9,-270.88 1030.44,-255.39 972.89,-245.2"/>
<polygon fill="midnightblue" stroke="midnightblue" points="973.32,-241.72 962.86,-243.43 972.1,-248.62 973.32,-241.72"/>
</g>
<!-- Node29&#45;&gt;Node10 -->
<g id="edge49" class="edge">
<title>Node29&#45;&gt;Node10</title>
<path fill="none" stroke="midnightblue" d="M1297.81,-283.07C1365.1,-276.64 1456.28,-264.47 1486.26,-244 1514.09,-225.01 1525.26,-212.69 1525.26,-179 1525.26,-179 1525.26,-179 1525.26,-121 1525.26,-67.94 1462.88,-37.16 1419.95,-22.26"/>
<polygon fill="midnightblue" stroke="midnightblue" points="1420.9,-18.89 1410.31,-19.07 1418.7,-25.53 1420.9,-18.89"/>
</g>
<!-- Node29&#45;&gt;Node18 -->
<g id="edge47" class="edge">
<title>Node29&#45;&gt;Node18</title>
<path fill="none" stroke="midnightblue" d="M1297.98,-285.49C1362.42,-280.75 1446.81,-269.7 1468.26,-244 1499.13,-207.03 1439.11,-160.13 1403.68,-137.09"/>
<polygon fill="midnightblue" stroke="midnightblue" points="1405.17,-133.89 1394.85,-131.5 1401.43,-139.81 1405.17,-133.89"/>
</g>
<!-- Node30 -->
<g id="node30" class="node">
<title>Node30</title>
<g id="a_node30"><a xlink:href="MVAssert_8h.html" target="_top" xlink:title=" ">
<polygon fill="none" stroke="black" points="981.26,-224.5 981.26,-243.5 1091.26,-243.5 1091.26,-224.5 981.26,-224.5"/>
<text text-anchor="middle" x="1036.26" y="-231.5" font-family="Helvetica,sans-Serif" font-size="10.00">include/MVAssert.h</text>
</a>
</g>
</g>
<!-- Node29&#45;&gt;Node30 -->
<g id="edge42" class="edge">
<title>Node29&#45;&gt;Node30</title>
<path fill="none" stroke="midnightblue" d="M1191.11,-280.44C1159.75,-271.24 1109.73,-256.56 1075.07,-246.39"/>
<polygon fill="midnightblue" stroke="midnightblue" points="1075.86,-242.97 1065.28,-243.52 1073.89,-249.69 1075.86,-242.97"/>
</g>
<!-- Node32 -->
<g id="node32" class="node">
<title>Node32</title>
<g id="a_node32"><a xlink:title=" ">
<polygon fill="none" stroke="#bfbfbf" points="1305.76,-224.5 1305.76,-243.5 1458.76,-243.5 1458.76,-224.5 1305.76,-224.5"/>
<text text-anchor="middle" x="1382.26" y="-231.5" font-family="Helvetica,sans-Serif" font-size="10.00">clang/Basic/IdentifierTable.h</text>
</a>
</g>
</g>
<!-- Node29&#45;&gt;Node32 -->
<g id="edge46" class="edge">
<title>Node29&#45;&gt;Node32</title>
<path fill="none" stroke="midnightblue" d="M1245.93,-280.44C1273.19,-271.36 1316.45,-256.94 1346.91,-246.78"/>
<polygon fill="midnightblue" stroke="midnightblue" points="1348.33,-250 1356.71,-243.52 1346.12,-243.36 1348.33,-250"/>
</g>
<!-- Node33 -->
<g id="node33" class="node">
<title>Node33</title>
<g id="a_node33"><a xlink:title=" ">
<polygon fill="none" stroke="#bfbfbf" points="1109.76,-224.5 1109.76,-243.5 1222.76,-243.5 1222.76,-224.5 1109.76,-224.5"/>
<text text-anchor="middle" x="1166.26" y="-231.5" font-family="Helvetica,sans-Serif" font-size="10.00">clang/Parse/Parser.h</text>
</a>
</g>
</g>
<!-- Node29&#45;&gt;Node33 -->
<g id="edge48" class="edge">
<title>Node29&#45;&gt;Node33</title>
<path fill="none" stroke="midnightblue" d="M1211.35,-280.08C1203.48,-272.22 1191.83,-260.57 1182.35,-251.08"/>
<polygon fill="midnightblue" stroke="midnightblue" points="1184.56,-248.35 1175.02,-243.75 1179.61,-253.3 1184.56,-248.35"/>
</g>
<!-- Node34 -->
<g id="node34" class="node">
<title>Node34</title>
<g id="a_node34"><a xlink:title=" ">
<polygon fill="none" stroke="#bfbfbf" points="1240.76,-224.5 1240.76,-243.5 1287.76,-243.5 1287.76,-224.5 1240.76,-224.5"/>
<text text-anchor="middle" x="1264.26" y="-231.5" font-family="Helvetica,sans-Serif" font-size="10.00">vector</text>
</a>
</g>
</g>
<!-- Node29&#45;&gt;Node34 -->
<g id="edge50" class="edge">
<title>Node29&#45;&gt;Node34</title>
<path fill="none" stroke="midnightblue" d="M1227.53,-280.08C1233.81,-272.38 1243.05,-261.03 1250.7,-251.65"/>
<polygon fill="midnightblue" stroke="midnightblue" points="1253.53,-253.71 1257.13,-243.75 1248.1,-249.29 1253.53,-253.71"/>
</g>
<!-- Node30&#45;&gt;Node10 -->
<g id="edge43" class="edge">
<title>Node30&#45;&gt;Node10</title>
<path fill="none" stroke="midnightblue" d="M1088.8,-224.47C1198.86,-206.09 1445.48,-161.97 1469.26,-132 1499.17,-94.31 1439.74,-48.09 1404.21,-25.22"/>
<polygon fill="midnightblue" stroke="midnightblue" points="1405.67,-22.01 1395.34,-19.67 1401.96,-27.94 1405.67,-22.01"/>
</g>
<!-- Node30&#45;&gt;Node11 -->
<g id="edge45" class="edge">
<title>Node30&#45;&gt;Node11</title>
<path fill="none" stroke="midnightblue" d="M981.03,-224.7C957.12,-218.4 930.68,-207.36 913.26,-188 896.11,-168.93 902.4,-157.46 899.26,-132 899.26,-132 899.26,-56 899.26,-56 876.1,-27.59 767.87,-16.6 712.73,-12.8"/>
<polygon fill="midnightblue" stroke="midnightblue" points="712.66,-9.29 702.45,-12.13 712.21,-16.27 712.66,-9.29"/>
</g>
<!-- Node31 -->
<g id="node31" class="node">
<title>Node31</title>
<g id="a_node31"><a xlink:title=" ">
<polygon fill="none" stroke="#bfbfbf" points="1026.76,-168.5 1026.76,-187.5 1085.76,-187.5 1085.76,-168.5 1026.76,-168.5"/>
<text text-anchor="middle" x="1056.26" y="-175.5" font-family="Helvetica,sans-Serif" font-size="10.00">setjmp.h</text>
</a>
</g>
</g>
<!-- Node30&#45;&gt;Node31 -->
<g id="edge44" class="edge">
<title>Node30&#45;&gt;Node31</title>
<path fill="none" stroke="midnightblue" d="M1039.57,-224.08C1042.25,-216.85 1046.11,-206.41 1049.45,-197.4"/>
<polygon fill="midnightblue" stroke="midnightblue" points="1052.83,-198.34 1053.02,-187.75 1046.27,-195.91 1052.83,-198.34"/>
</g>
<!-- Node35&#45;&gt;Node4 -->
<g id="edge53" class="edge">
<title>Node35&#45;&gt;Node4</title>
<path fill="none" stroke="midnightblue" d="M905.42,-345.88C816.1,-336.02 605.48,-312.77 489.09,-299.92"/>
<polygon fill="midnightblue" stroke="midnightblue" points="489.13,-296.41 478.81,-298.79 488.37,-303.36 489.13,-296.41"/>
</g>
<!-- Node35&#45;&gt;Node5 -->
<g id="edge52" class="edge">
<title>Node35&#45;&gt;Node5</title>
<path fill="none" stroke="midnightblue" d="M981.95,-342C1019.62,-331.04 1071.74,-309.8 1050.26,-280 1040.21,-266.05 1001.15,-253.96 967.61,-245.83"/>
<polygon fill="midnightblue" stroke="midnightblue" points="968.41,-242.43 957.87,-243.55 966.81,-249.24 968.41,-242.43"/>
</g>
<!-- Node35&#45;&gt;Node6 -->
<g id="edge57" class="edge">
<title>Node35&#45;&gt;Node6</title>
<path fill="none" stroke="midnightblue" d="M988.77,-347.43C1123.49,-336.68 1536.06,-297.43 1468.26,-224 1434.24,-187.14 1068.04,-194.2 1018.26,-188 1018.16,-187.99 1018.06,-187.97 1017.96,-187.96"/>
<polygon fill="midnightblue" stroke="midnightblue" points="1018.7,-184.53 1008.32,-186.64 1017.75,-191.47 1018.7,-184.53"/>
</g>
<!-- Node35&#45;&gt;Node10 -->
<g id="edge59" class="edge">
<title>Node35&#45;&gt;Node10</title>
<path fill="none" stroke="midnightblue" d="M989,-350.63C1079.61,-350.03 1300.62,-343.77 1479.26,-300 1553.81,-281.74 1639.26,-311.76 1639.26,-235 1639.26,-235 1639.26,-235 1639.26,-121 1639.26,-27.18 1493.49,-12.22 1420.67,-10.6"/>
<polygon fill="midnightblue" stroke="midnightblue" points="1420.53,-7.1 1410.48,-10.45 1420.43,-14.1 1420.53,-7.1"/>
</g>
<!-- Node35&#45;&gt;Node11 -->
<g id="edge61" class="edge">
<title>Node35&#45;&gt;Node11</title>
<path fill="none" stroke="midnightblue" d="M938.89,-341.99C922.16,-324.68 884.1,-283.63 859.26,-244 810.47,-166.14 837.53,-121.67 773.26,-56 756.41,-38.78 731.65,-27.24 711.91,-20.17"/>
<polygon fill="midnightblue" stroke="midnightblue" points="712.99,-16.84 702.4,-16.95 710.75,-23.47 712.99,-16.84"/>
</g>
<!-- Node35&#45;&gt;Node14 -->
<g id="edge60" class="edge">
<title>Node35&#45;&gt;Node14</title>
<path fill="none" stroke="midnightblue" d="M989.17,-347.56C1133.51,-336.87 1601.26,-297.41 1601.26,-235 1601.26,-235 1601.26,-235 1601.26,-177 1601.26,-111.61 1532.35,-129.22 1469.26,-112 1359.69,-82.08 1001.28,-70.4 900.71,-67.67"/>
<polygon fill="midnightblue" stroke="midnightblue" points="900.61,-64.16 890.52,-67.4 900.42,-71.16 900.61,-64.16"/>
</g>
<!-- Node35&#45;&gt;Node16 -->
<g id="edge58" class="edge">
<title>Node35&#45;&gt;Node16</title>
<path fill="none" stroke="midnightblue" d="M934.22,-341.77C902.37,-320.6 817.82,-265.19 744.26,-224 683.4,-189.92 609.56,-154.42 570.19,-135.94"/>
<polygon fill="midnightblue" stroke="midnightblue" points="571.49,-132.69 560.95,-131.62 568.52,-139.03 571.49,-132.69"/>
</g>
<!-- Node36 -->
<g id="node36" class="node">
<title>Node36</title>
<g id="a_node36"><a xlink:href="MVOps_8h.html" target="_top" xlink:title=" ">
<polygon fill="none" stroke="black" points="943.26,-280.5 943.26,-299.5 1041.26,-299.5 1041.26,-280.5 943.26,-280.5"/>
<text text-anchor="middle" x="992.26" y="-287.5" font-family="Helvetica,sans-Serif" font-size="10.00">include/MVOps.h</text>
</a>
</g>
</g>
<!-- Node35&#45;&gt;Node36 -->
<g id="edge54" class="edge">
<title>Node35&#45;&gt;Node36</title>
<path fill="none" stroke="midnightblue" d="M953.71,-341.98C960.46,-333.05 971.23,-318.81 979.68,-307.64"/>
<polygon fill="midnightblue" stroke="midnightblue" points="982.59,-309.6 985.83,-299.51 977.01,-305.37 982.59,-309.6"/>
</g>
<!-- Node36&#45;&gt;Node22 -->
<g id="edge56" class="edge">
<title>Node36&#45;&gt;Node22</title>
<path fill="none" stroke="midnightblue" d="M943.78,-280.44C889.73,-270.9 802.34,-255.48 744.59,-245.29"/>
<polygon fill="midnightblue" stroke="midnightblue" points="744.98,-241.81 734.52,-243.52 743.76,-248.7 744.98,-241.81"/>
</g>
<!-- Node36&#45;&gt;Node30 -->
<g id="edge55" class="edge">
<title>Node36&#45;&gt;Node30</title>
<path fill="none" stroke="midnightblue" d="M999.53,-280.08C1005.81,-272.38 1015.05,-261.03 1022.7,-251.65"/>
<polygon fill="midnightblue" stroke="midnightblue" points="1025.53,-253.71 1029.13,-243.75 1020.1,-249.29 1025.53,-253.71"/>
</g>
</g>
</svg>
