<?xml version="1.0" encoding="UTF-8" standalone="no"?>
<!DOCTYPE svg PUBLIC "-//W3C//DTD SVG 1.1//EN"
 "http://www.w3.org/Graphics/SVG/1.1/DTD/svg11.dtd">
<!-- Generated by graphviz version 2.43.0 (0)
 -->
<!-- Title: MACVETH/include/CostModel/SIMDCostInfo.h Pages: 1 -->
<svg width="1811pt" height="688pt"
 viewBox="0.00 0.00 1811.29 688.00" xmlns="http://www.w3.org/2000/svg" xmlns:xlink="http://www.w3.org/1999/xlink">
<g id="graph0" class="graph" transform="scale(1 1) rotate(0) translate(4 684)">
<title>MACVETH/include/CostModel/SIMDCostInfo.h</title>
<!-- Node1 -->
<g id="node1" class="node">
<title>Node1</title>
<g id="a_node1"><a xlink:title=" ">
<polygon fill="#bfbfbf" stroke="black" points="0,-649.5 0,-679.5 158,-679.5 158,-649.5 0,-649.5"/>
<text text-anchor="start" x="8" y="-667.5" font-family="Helvetica,sans-Serif" font-size="10.00">MACVETH/include/CostModel</text>
<text text-anchor="middle" x="79" y="-656.5" font-family="Helvetica,sans-Serif" font-size="10.00">/SIMDCostInfo.h</text>
</a>
</g>
</g>
<!-- Node2 -->
<g id="node2" class="node">
<title>Node2</title>
<g id="a_node2"><a xlink:href="CostTable_8h.html" target="_top" xlink:title=" ">
<polygon fill="none" stroke="black" points="69,-342 69,-361 235,-361 235,-342 69,-342"/>
<text text-anchor="middle" x="152" y="-349" font-family="Helvetica,sans-Serif" font-size="10.00">include/CostModel/CostTable.h</text>
</a>
</g>
</g>
<!-- Node1&#45;&gt;Node2 -->
<g id="edge1" class="edge">
<title>Node1&#45;&gt;Node2</title>
<path fill="none" stroke="midnightblue" d="M79,-649.24C79,-625.03 79,-574.35 79,-531.5 79,-531.5 79,-531.5 79,-468 79,-426.98 112.3,-388.68 133.92,-368.14"/>
<polygon fill="midnightblue" stroke="midnightblue" points="136.53,-370.5 141.54,-361.17 131.8,-365.34 136.53,-370.5"/>
</g>
<!-- Node12 -->
<g id="node12" class="node">
<title>Node12</title>
<g id="a_node12"><a xlink:title=" ">
<polygon fill="none" stroke="#bfbfbf" points="123,-56.5 123,-75.5 161,-75.5 161,-56.5 123,-56.5"/>
<text text-anchor="middle" x="142" y="-63.5" font-family="Helvetica,sans-Serif" font-size="10.00">map</text>
</a>
</g>
</g>
<!-- Node1&#45;&gt;Node12 -->
<g id="edge88" class="edge">
<title>Node1&#45;&gt;Node12</title>
<path fill="none" stroke="midnightblue" d="M63.98,-649.23C41.84,-626.55 3,-579.89 3,-531.5 3,-531.5 3,-531.5 3,-177 3,-121.25 72.6,-89.32 113.3,-75.42"/>
<polygon fill="midnightblue" stroke="midnightblue" points="114.54,-78.69 122.96,-72.26 112.37,-72.04 114.54,-78.69"/>
</g>
<!-- Node20 -->
<g id="node20" class="node">
<title>Node20</title>
<g id="a_node20"><a xlink:href="SIMDBackEnd_8h.html" target="_top" xlink:title=" ">
<polygon fill="none" stroke="black" points="153.5,-582.5 153.5,-612.5 278.5,-612.5 278.5,-582.5 153.5,-582.5"/>
<text text-anchor="start" x="161.5" y="-600.5" font-family="Helvetica,sans-Serif" font-size="10.00">include/Vectorization</text>
<text text-anchor="middle" x="216" y="-589.5" font-family="Helvetica,sans-Serif" font-size="10.00">/SIMD/SIMDBackEnd.h</text>
</a>
</g>
</g>
<!-- Node1&#45;&gt;Node20 -->
<g id="edge24" class="edge">
<title>Node1&#45;&gt;Node20</title>
<path fill="none" stroke="midnightblue" d="M108.73,-649.4C128.74,-639.9 155.35,-627.28 177.05,-616.98"/>
<polygon fill="midnightblue" stroke="midnightblue" points="178.8,-620.03 186.33,-612.58 175.8,-613.7 178.8,-620.03"/>
</g>
<!-- Node3 -->
<g id="node3" class="node">
<title>Node3</title>
<g id="a_node3"><a xlink:href="Utils_8h.html" target="_top" xlink:title=" ">
<polygon fill="none" stroke="black" points="930,-168.5 930,-187.5 1016,-187.5 1016,-168.5 930,-168.5"/>
<text text-anchor="middle" x="973" y="-175.5" font-family="Helvetica,sans-Serif" font-size="10.00">include/Utils.h</text>
</a>
</g>
</g>
<!-- Node2&#45;&gt;Node3 -->
<g id="edge2" class="edge">
<title>Node2&#45;&gt;Node3</title>
<path fill="none" stroke="midnightblue" d="M180.46,-341.93C207.31,-333.26 248.22,-318.5 281,-300 329.3,-272.73 328.19,-243.81 380,-224 477.79,-186.61 792.78,-180.22 919.48,-179.18"/>
<polygon fill="midnightblue" stroke="midnightblue" points="919.74,-182.68 929.71,-179.1 919.69,-175.68 919.74,-182.68"/>
</g>
<!-- Node11 -->
<g id="node11" class="node">
<title>Node11</title>
<g id="a_node11"><a xlink:title=" ">
<polygon fill="none" stroke="#bfbfbf" points="715,-56.5 715,-75.5 747,-75.5 747,-56.5 715,-56.5"/>
<text text-anchor="middle" x="731" y="-63.5" font-family="Helvetica,sans-Serif" font-size="10.00">list</text>
</a>
</g>
</g>
<!-- Node2&#45;&gt;Node11 -->
<g id="edge20" class="edge">
<title>Node2&#45;&gt;Node11</title>
<path fill="none" stroke="midnightblue" d="M163.46,-341.7C192.2,-319.89 270.14,-262.3 341,-224 453.12,-163.4 486.27,-158.34 605,-112 639.42,-98.56 679.72,-84.45 705.3,-75.69"/>
<polygon fill="midnightblue" stroke="midnightblue" points="706.64,-78.93 714.98,-72.39 704.38,-72.3 706.64,-78.93"/>
</g>
<!-- Node2&#45;&gt;Node12 -->
<g id="edge21" class="edge">
<title>Node2&#45;&gt;Node12</title>
<path fill="none" stroke="midnightblue" d="M142.96,-341.87C125.1,-323.84 87,-280.1 87,-235 87,-235 87,-235 87,-177 87,-140.57 111.43,-103.84 127.73,-83.39"/>
<polygon fill="midnightblue" stroke="midnightblue" points="130.44,-85.6 134.12,-75.67 125.05,-81.14 130.44,-85.6"/>
</g>
<!-- Node18 -->
<g id="node18" class="node">
<title>Node18</title>
<g id="a_node18"><a xlink:title=" ">
<polygon fill="none" stroke="#bfbfbf" points="124,-280.5 124,-299.5 180,-299.5 180,-280.5 124,-280.5"/>
<text text-anchor="middle" x="152" y="-287.5" font-family="Helvetica,sans-Serif" font-size="10.00">sstream</text>
</a>
</g>
</g>
<!-- Node2&#45;&gt;Node18 -->
<g id="edge22" class="edge">
<title>Node2&#45;&gt;Node18</title>
<path fill="none" stroke="midnightblue" d="M152,-341.98C152,-333.58 152,-320.48 152,-309.66"/>
<polygon fill="midnightblue" stroke="midnightblue" points="155.5,-309.51 152,-299.51 148.5,-309.51 155.5,-309.51"/>
</g>
<!-- Node19 -->
<g id="node19" class="node">
<title>Node19</title>
<g id="a_node19"><a xlink:title=" ">
<polygon fill="none" stroke="#bfbfbf" points="333.5,-280.5 333.5,-299.5 386.5,-299.5 386.5,-280.5 333.5,-280.5"/>
<text text-anchor="middle" x="360" y="-287.5" font-family="Helvetica,sans-Serif" font-size="10.00">string.h</text>
</a>
</g>
</g>
<!-- Node2&#45;&gt;Node19 -->
<g id="edge23" class="edge">
<title>Node2&#45;&gt;Node19</title>
<path fill="none" stroke="midnightblue" d="M181.8,-341.98C219.18,-331.28 283.26,-312.95 323.53,-301.43"/>
<polygon fill="midnightblue" stroke="midnightblue" points="324.57,-304.77 333.23,-298.66 322.65,-298.04 324.57,-304.77"/>
</g>
<!-- Node4 -->
<g id="node4" class="node">
<title>Node4</title>
<g id="a_node4"><a xlink:href="MVOptions_8h.html" target="_top" xlink:title=" ">
<polygon fill="none" stroke="black" points="1158.5,-112.5 1158.5,-131.5 1275.5,-131.5 1275.5,-112.5 1158.5,-112.5"/>
<text text-anchor="middle" x="1217" y="-119.5" font-family="Helvetica,sans-Serif" font-size="10.00">include/MVOptions.h</text>
</a>
</g>
</g>
<!-- Node3&#45;&gt;Node4 -->
<g id="edge3" class="edge">
<title>Node3&#45;&gt;Node4</title>
<path fill="none" stroke="midnightblue" d="M1011.66,-168.44C1054.14,-159.04 1122.43,-143.93 1168.47,-133.74"/>
<polygon fill="midnightblue" stroke="midnightblue" points="1169.51,-137.09 1178.52,-131.52 1168,-130.26 1169.51,-137.09"/>
</g>
<!-- Node7 -->
<g id="node7" class="node">
<title>Node7</title>
<g id="a_node7"><a xlink:title=" ">
<polygon fill="none" stroke="#bfbfbf" points="1526,-0.5 1526,-19.5 1586,-19.5 1586,-0.5 1526,-0.5"/>
<text text-anchor="middle" x="1556" y="-7.5" font-family="Helvetica,sans-Serif" font-size="10.00">iostream</text>
</a>
</g>
</g>
<!-- Node3&#45;&gt;Node7 -->
<g id="edge19" class="edge">
<title>Node3&#45;&gt;Node7</title>
<path fill="none" stroke="midnightblue" d="M1016.18,-175.4C1077.38,-172.11 1192.21,-162.12 1285,-132 1303.15,-126.11 1305.79,-120.25 1323,-112 1394.53,-77.73 1480.59,-41.75 1525.43,-23.39"/>
<polygon fill="midnightblue" stroke="midnightblue" points="1526.94,-26.55 1534.88,-19.53 1524.29,-20.07 1526.94,-26.55"/>
</g>
<!-- Node13 -->
<g id="node13" class="node">
<title>Node13</title>
<g id="a_node13"><a xlink:title=" ">
<polygon fill="none" stroke="#bfbfbf" points="613.5,-112.5 613.5,-131.5 708.5,-131.5 708.5,-112.5 613.5,-112.5"/>
<text text-anchor="middle" x="661" y="-119.5" font-family="Helvetica,sans-Serif" font-size="10.00">clang/AST/AST.h</text>
</a>
</g>
</g>
<!-- Node3&#45;&gt;Node13 -->
<g id="edge14" class="edge">
<title>Node3&#45;&gt;Node13</title>
<path fill="none" stroke="midnightblue" d="M929.95,-169.55C875,-160.04 779.75,-143.55 718.6,-132.97"/>
<polygon fill="midnightblue" stroke="midnightblue" points="719.17,-129.52 708.72,-131.26 717.97,-136.41 719.17,-129.52"/>
</g>
<!-- Node14 -->
<g id="node14" class="node">
<title>Node14</title>
<g id="a_node14"><a xlink:title=" ">
<polygon fill="none" stroke="#bfbfbf" points="995.5,-112.5 995.5,-131.5 1140.5,-131.5 1140.5,-112.5 995.5,-112.5"/>
<text text-anchor="middle" x="1068" y="-119.5" font-family="Helvetica,sans-Serif" font-size="10.00">clang/Basic/LangOptions.h</text>
</a>
</g>
</g>
<!-- Node3&#45;&gt;Node14 -->
<g id="edge15" class="edge">
<title>Node3&#45;&gt;Node14</title>
<path fill="none" stroke="midnightblue" d="M988.26,-168.32C1003.22,-159.82 1026.25,-146.73 1043.73,-136.8"/>
<polygon fill="midnightblue" stroke="midnightblue" points="1045.81,-139.64 1052.77,-131.65 1042.35,-133.55 1045.81,-139.64"/>
</g>
<!-- Node15 -->
<g id="node15" class="node">
<title>Node15</title>
<g id="a_node15"><a xlink:title=" ">
<polygon fill="none" stroke="#bfbfbf" points="1331.5,-112.5 1331.5,-131.5 1490.5,-131.5 1490.5,-112.5 1331.5,-112.5"/>
<text text-anchor="middle" x="1411" y="-119.5" font-family="Helvetica,sans-Serif" font-size="10.00">clang/Basic/SourceManager.h</text>
</a>
</g>
</g>
<!-- Node3&#45;&gt;Node15 -->
<g id="edge16" class="edge">
<title>Node3&#45;&gt;Node15</title>
<path fill="none" stroke="midnightblue" d="M1016.2,-171.67C1089.42,-162.65 1238.96,-144.21 1331.53,-132.8"/>
<polygon fill="midnightblue" stroke="midnightblue" points="1332.19,-136.24 1341.69,-131.55 1331.34,-129.3 1332.19,-136.24"/>
</g>
<!-- Node16 -->
<g id="node16" class="node">
<title>Node16</title>
<g id="a_node16"><a xlink:title=" ">
<polygon fill="none" stroke="#bfbfbf" points="803.5,-112.5 803.5,-131.5 904.5,-131.5 904.5,-112.5 803.5,-112.5"/>
<text text-anchor="middle" x="854" y="-119.5" font-family="Helvetica,sans-Serif" font-size="10.00">clang/Lex/Lexer.h</text>
</a>
</g>
</g>
<!-- Node3&#45;&gt;Node16 -->
<g id="edge17" class="edge">
<title>Node3&#45;&gt;Node16</title>
<path fill="none" stroke="midnightblue" d="M954.14,-168.44C934.73,-159.64 904.27,-145.81 882.04,-135.72"/>
<polygon fill="midnightblue" stroke="midnightblue" points="883.32,-132.46 872.77,-131.52 880.43,-138.84 883.32,-132.46"/>
</g>
<!-- Node17 -->
<g id="node17" class="node">
<title>Node17</title>
<g id="a_node17"><a xlink:title=" ">
<polygon fill="none" stroke="#bfbfbf" points="922.5,-112.5 922.5,-131.5 977.5,-131.5 977.5,-112.5 922.5,-112.5"/>
<text text-anchor="middle" x="950" y="-119.5" font-family="Helvetica,sans-Serif" font-size="10.00">fstream</text>
</a>
</g>
</g>
<!-- Node3&#45;&gt;Node17 -->
<g id="edge18" class="edge">
<title>Node3&#45;&gt;Node17</title>
<path fill="none" stroke="midnightblue" d="M969.2,-168.08C966.09,-160.77 961.58,-150.18 957.71,-141.1"/>
<polygon fill="midnightblue" stroke="midnightblue" points="960.87,-139.58 953.73,-131.75 954.43,-142.32 960.87,-139.58"/>
</g>
<!-- Node5 -->
<g id="node5" class="node">
<title>Node5</title>
<g id="a_node5"><a xlink:href="CPUID_8h.html" target="_top" xlink:title=" ">
<polygon fill="none" stroke="black" points="1283.5,-56.5 1283.5,-75.5 1378.5,-75.5 1378.5,-56.5 1283.5,-56.5"/>
<text text-anchor="middle" x="1331" y="-63.5" font-family="Helvetica,sans-Serif" font-size="10.00">include/CPUID.h</text>
</a>
</g>
</g>
<!-- Node4&#45;&gt;Node5 -->
<g id="edge4" class="edge">
<title>Node4&#45;&gt;Node5</title>
<path fill="none" stroke="midnightblue" d="M1235.06,-112.44C1253.57,-103.68 1282.58,-89.94 1303.86,-79.86"/>
<polygon fill="midnightblue" stroke="midnightblue" points="1305.48,-82.96 1313.02,-75.52 1302.49,-76.63 1305.48,-82.96"/>
</g>
<!-- Node6 -->
<g id="node6" class="node">
<title>Node6</title>
<g id="a_node6"><a xlink:title=" ">
<polygon fill="none" stroke="#bfbfbf" points="1204,-0.5 1204,-19.5 1268,-19.5 1268,-0.5 1204,-0.5"/>
<text text-anchor="middle" x="1236" y="-7.5" font-family="Helvetica,sans-Serif" font-size="10.00">algorithm</text>
</a>
</g>
</g>
<!-- Node4&#45;&gt;Node6 -->
<g id="edge9" class="edge">
<title>Node4&#45;&gt;Node6</title>
<path fill="none" stroke="midnightblue" d="M1218.49,-112.37C1221.56,-94.62 1228.63,-53.67 1232.79,-29.6"/>
<polygon fill="midnightblue" stroke="midnightblue" points="1236.26,-30.04 1234.52,-19.59 1229.36,-28.85 1236.26,-30.04"/>
</g>
<!-- Node8 -->
<g id="node8" class="node">
<title>Node8</title>
<g id="a_node8"><a xlink:title=" ">
<polygon fill="none" stroke="#bfbfbf" points="920,-0.5 920,-19.5 964,-19.5 964,-0.5 920,-0.5"/>
<text text-anchor="middle" x="942" y="-7.5" font-family="Helvetica,sans-Serif" font-size="10.00">string</text>
</a>
</g>
</g>
<!-- Node4&#45;&gt;Node8 -->
<g id="edge13" class="edge">
<title>Node4&#45;&gt;Node8</title>
<path fill="none" stroke="midnightblue" d="M1195.42,-112.37C1146.93,-92.97 1029.17,-45.87 972.92,-23.37"/>
<polygon fill="midnightblue" stroke="midnightblue" points="974.06,-20.06 963.48,-19.59 971.46,-26.56 974.06,-20.06"/>
</g>
<!-- Node10 -->
<g id="node10" class="node">
<title>Node10</title>
<g id="a_node10"><a xlink:title=" ">
<polygon fill="none" stroke="#bfbfbf" points="1137,-56.5 1137,-75.5 1189,-75.5 1189,-56.5 1137,-56.5"/>
<text text-anchor="middle" x="1163" y="-63.5" font-family="Helvetica,sans-Serif" font-size="10.00">cassert</text>
</a>
</g>
</g>
<!-- Node4&#45;&gt;Node10 -->
<g id="edge10" class="edge">
<title>Node4&#45;&gt;Node10</title>
<path fill="none" stroke="midnightblue" d="M1208.08,-112.08C1200.22,-104.22 1188.57,-92.57 1179.08,-83.08"/>
<polygon fill="midnightblue" stroke="midnightblue" points="1181.3,-80.35 1171.75,-75.75 1176.35,-85.3 1181.3,-80.35"/>
</g>
<!-- Node4&#45;&gt;Node11 -->
<g id="edge11" class="edge">
<title>Node4&#45;&gt;Node11</title>
<path fill="none" stroke="midnightblue" d="M1158.19,-113.01C1155.42,-112.66 1152.68,-112.32 1150,-112 1001.69,-94.08 823.41,-76.12 757.32,-69.58"/>
<polygon fill="midnightblue" stroke="midnightblue" points="757.3,-66.06 747,-68.56 756.61,-73.03 757.3,-66.06"/>
</g>
<!-- Node4&#45;&gt;Node12 -->
<g id="edge12" class="edge">
<title>Node4&#45;&gt;Node12</title>
<path fill="none" stroke="midnightblue" d="M1158.21,-112.8C1155.44,-112.51 1152.69,-112.24 1150,-112 764.23,-77.55 292.93,-69.04 171.59,-67.36"/>
<polygon fill="midnightblue" stroke="midnightblue" points="171.31,-63.86 161.26,-67.22 171.21,-70.86 171.31,-63.86"/>
</g>
<!-- Node5&#45;&gt;Node6 -->
<g id="edge5" class="edge">
<title>Node5&#45;&gt;Node6</title>
<path fill="none" stroke="midnightblue" d="M1315.74,-56.32C1300.78,-47.82 1277.75,-34.73 1260.27,-24.8"/>
<polygon fill="midnightblue" stroke="midnightblue" points="1261.65,-21.55 1251.23,-19.65 1258.19,-27.64 1261.65,-21.55"/>
</g>
<!-- Node5&#45;&gt;Node7 -->
<g id="edge6" class="edge">
<title>Node5&#45;&gt;Node7</title>
<path fill="none" stroke="midnightblue" d="M1366.65,-56.44C1407.29,-46.69 1473.56,-30.79 1515.95,-20.61"/>
<polygon fill="midnightblue" stroke="midnightblue" points="1517.01,-23.96 1525.92,-18.22 1515.37,-17.15 1517.01,-23.96"/>
</g>
<!-- Node5&#45;&gt;Node8 -->
<g id="edge7" class="edge">
<title>Node5&#45;&gt;Node8</title>
<path fill="none" stroke="midnightblue" d="M1283.28,-58.04C1278.46,-57.34 1273.63,-56.65 1269,-56 1161.1,-40.74 1033.06,-23.32 974.35,-15.37"/>
<polygon fill="midnightblue" stroke="midnightblue" points="974.59,-11.87 964.21,-14 973.65,-18.81 974.59,-11.87"/>
</g>
<!-- Node9 -->
<g id="node9" class="node">
<title>Node9</title>
<g id="a_node9"><a xlink:title=" ">
<polygon fill="none" stroke="#bfbfbf" points="1304.5,-0.5 1304.5,-19.5 1357.5,-19.5 1357.5,-0.5 1304.5,-0.5"/>
<text text-anchor="middle" x="1331" y="-7.5" font-family="Helvetica,sans-Serif" font-size="10.00">stdint.h</text>
</a>
</g>
</g>
<!-- Node5&#45;&gt;Node9 -->
<g id="edge8" class="edge">
<title>Node5&#45;&gt;Node9</title>
<path fill="none" stroke="midnightblue" d="M1331,-56.08C1331,-49.01 1331,-38.86 1331,-29.99"/>
<polygon fill="midnightblue" stroke="midnightblue" points="1334.5,-29.75 1331,-19.75 1327.5,-29.75 1334.5,-29.75"/>
</g>
<!-- Node20&#45;&gt;Node2 -->
<g id="edge78" class="edge">
<title>Node20&#45;&gt;Node2</title>
<path fill="none" stroke="midnightblue" d="M212.28,-582.33C201.32,-540.52 169.1,-417.71 156.83,-370.91"/>
<polygon fill="midnightblue" stroke="midnightblue" points="160.2,-369.98 154.28,-361.2 153.43,-371.76 160.2,-369.98"/>
</g>
<!-- Node21 -->
<g id="node21" class="node">
<title>Node21</title>
<g id="a_node21"><a xlink:href="CDAG_8h.html" target="_top" xlink:title=" ">
<polygon fill="none" stroke="black" points="535,-521 535,-540 627,-540 627,-521 535,-521"/>
<text text-anchor="middle" x="581" y="-528" font-family="Helvetica,sans-Serif" font-size="10.00">include/CDAG.h</text>
</a>
</g>
</g>
<!-- Node20&#45;&gt;Node21 -->
<g id="edge25" class="edge">
<title>Node20&#45;&gt;Node21</title>
<path fill="none" stroke="midnightblue" d="M278.75,-585.33C348.06,-572.98 458.62,-553.29 525.07,-541.46"/>
<polygon fill="midnightblue" stroke="midnightblue" points="525.72,-544.9 534.95,-539.7 524.49,-538.01 525.72,-544.9"/>
</g>
<!-- Node25 -->
<g id="node25" class="node">
<title>Node25</title>
<g id="a_node25"><a xlink:href="MVDataType_8h.html" target="_top" xlink:title=" ">
<polygon fill="none" stroke="black" points="115,-224.5 115,-243.5 281,-243.5 281,-224.5 115,-224.5"/>
<text text-anchor="middle" x="198" y="-231.5" font-family="Helvetica,sans-Serif" font-size="10.00">include/MVExpr/MVDataType.h</text>
</a>
</g>
</g>
<!-- Node20&#45;&gt;Node25 -->
<g id="edge79" class="edge">
<title>Node20&#45;&gt;Node25</title>
<path fill="none" stroke="midnightblue" d="M185.92,-582.39C135.88,-556.58 41,-496.75 41,-414 41,-414 41,-414 41,-350.5 41,-293.79 108.28,-261.84 154.75,-246.52"/>
<polygon fill="midnightblue" stroke="midnightblue" points="155.84,-249.85 164.32,-243.51 153.73,-243.18 155.84,-249.85"/>
</g>
<!-- Node44 -->
<g id="node44" class="node">
<title>Node44</title>
<g id="a_node44"><a xlink:href="MVSourceLocation_8h.html" target="_top" xlink:title=" ">
<polygon fill="none" stroke="black" points="645,-521 645,-540 799,-540 799,-521 645,-521"/>
<text text-anchor="middle" x="722" y="-528" font-family="Helvetica,sans-Serif" font-size="10.00">include/MVSourceLocation.h</text>
</a>
</g>
</g>
<!-- Node20&#45;&gt;Node44 -->
<g id="edge80" class="edge">
<title>Node20&#45;&gt;Node44</title>
<path fill="none" stroke="midnightblue" d="M278.74,-589.89C360.95,-581.02 509.52,-564.26 636,-546 645.02,-544.7 654.56,-543.21 663.87,-541.68"/>
<polygon fill="midnightblue" stroke="midnightblue" points="664.56,-545.12 673.85,-540.03 663.41,-538.21 664.56,-545.12"/>
</g>
<!-- Node45 -->
<g id="node45" class="node">
<title>Node45</title>
<g id="a_node45"><a xlink:href="VectorIR_8h.html" target="_top" xlink:title=" ">
<polygon fill="none" stroke="black" points="240.5,-515.5 240.5,-545.5 359.5,-545.5 359.5,-515.5 240.5,-515.5"/>
<text text-anchor="start" x="248.5" y="-533.5" font-family="Helvetica,sans-Serif" font-size="10.00">include/Vectorization</text>
<text text-anchor="middle" x="300" y="-522.5" font-family="Helvetica,sans-Serif" font-size="10.00">/VectorIR.h</text>
</a>
</g>
</g>
<!-- Node20&#45;&gt;Node45 -->
<g id="edge81" class="edge">
<title>Node20&#45;&gt;Node45</title>
<path fill="none" stroke="midnightblue" d="M234.23,-582.4C245.78,-573.45 260.92,-561.74 273.76,-551.8"/>
<polygon fill="midnightblue" stroke="midnightblue" points="276.04,-554.46 281.81,-545.58 271.76,-548.93 276.04,-554.46"/>
</g>
<!-- Node22 -->
<g id="node22" class="node">
<title>Node22</title>
<g id="a_node22"><a xlink:href="Node_8h.html" target="_top" xlink:title=" ">
<polygon fill="none" stroke="black" points="638.5,-459.5 638.5,-478.5 727.5,-478.5 727.5,-459.5 638.5,-459.5"/>
<text text-anchor="middle" x="683" y="-466.5" font-family="Helvetica,sans-Serif" font-size="10.00">include/Node.h</text>
</a>
</g>
</g>
<!-- Node21&#45;&gt;Node22 -->
<g id="edge26" class="edge">
<title>Node21&#45;&gt;Node22</title>
<path fill="none" stroke="midnightblue" d="M595.61,-520.98C612.35,-511.21 640,-495.08 659.72,-483.58"/>
<polygon fill="midnightblue" stroke="midnightblue" points="661.54,-486.57 668.41,-478.51 658.01,-480.52 661.54,-486.57"/>
</g>
<!-- Node39 -->
<g id="node39" class="node">
<title>Node39</title>
<g id="a_node39"><a xlink:href="TAC_8h.html" target="_top" xlink:title=" ">
<polygon fill="none" stroke="black" points="1289.5,-342 1289.5,-361 1372.5,-361 1372.5,-342 1289.5,-342"/>
<text text-anchor="middle" x="1331" y="-349" font-family="Helvetica,sans-Serif" font-size="10.00">include/TAC.h</text>
</a>
</g>
</g>
<!-- Node21&#45;&gt;Node39 -->
<g id="edge77" class="edge">
<title>Node21&#45;&gt;Node39</title>
<path fill="none" stroke="midnightblue" d="M610.83,-520.97C618.95,-518.83 627.77,-516.67 636,-515 916.31,-458 1023.76,-563.37 1273,-423 1294.93,-410.65 1311.98,-386.49 1321.75,-369.92"/>
<polygon fill="midnightblue" stroke="midnightblue" points="1324.81,-371.63 1326.65,-361.2 1318.71,-368.2 1324.81,-371.63"/>
</g>
<!-- Node23 -->
<g id="node23" class="node">
<title>Node23</title>
<g id="a_node23"><a xlink:href="MVExpr_8h.html" target="_top" xlink:title=" ">
<polygon fill="none" stroke="black" points="588.5,-280.5 588.5,-299.5 729.5,-299.5 729.5,-280.5 588.5,-280.5"/>
<text text-anchor="middle" x="659" y="-287.5" font-family="Helvetica,sans-Serif" font-size="10.00">include/MVExpr/MVExpr.h</text>
</a>
</g>
</g>
<!-- Node22&#45;&gt;Node23 -->
<g id="edge27" class="edge">
<title>Node22&#45;&gt;Node23</title>
<path fill="none" stroke="midnightblue" d="M638.5,-462.97C591.27,-456.6 521.25,-443.87 505,-423 481.24,-392.49 481.81,-366.94 505,-336 516.31,-320.91 558.74,-309.2 596.2,-301.51"/>
<polygon fill="midnightblue" stroke="midnightblue" points="596.97,-304.92 606.1,-299.54 595.61,-298.05 596.97,-304.92"/>
</g>
<!-- Node26 -->
<g id="node26" class="node">
<title>Node26</title>
<g id="a_node26"><a xlink:title=" ">
<polygon fill="none" stroke="#bfbfbf" points="1677,-224.5 1677,-243.5 1775,-243.5 1775,-224.5 1677,-224.5"/>
<text text-anchor="middle" x="1726" y="-231.5" font-family="Helvetica,sans-Serif" font-size="10.00">clang/AST/Expr.h</text>
</a>
</g>
</g>
<!-- Node22&#45;&gt;Node26 -->
<g id="edge76" class="edge">
<title>Node22&#45;&gt;Node26</title>
<path fill="none" stroke="midnightblue" d="M727.78,-468.84C855.85,-469.94 1233.24,-464.08 1526,-367 1594.92,-344.15 1617.82,-344.75 1675,-300 1691.89,-286.78 1706.44,-266.84 1715.63,-252.53"/>
<polygon fill="midnightblue" stroke="midnightblue" points="1718.82,-254.02 1721.1,-243.67 1712.87,-250.34 1718.82,-254.02"/>
</g>
<!-- Node29 -->
<g id="node29" class="node">
<title>Node29</title>
<g id="a_node29"><a xlink:href="MVExprLiteral_8h.html" target="_top" xlink:title=" ">
<polygon fill="none" stroke="black" points="688.5,-403.5 688.5,-422.5 861.5,-422.5 861.5,-403.5 688.5,-403.5"/>
<text text-anchor="middle" x="775" y="-410.5" font-family="Helvetica,sans-Serif" font-size="10.00">include/MVExpr/MVExprLiteral.h</text>
</a>
</g>
</g>
<!-- Node22&#45;&gt;Node29 -->
<g id="edge40" class="edge">
<title>Node22&#45;&gt;Node29</title>
<path fill="none" stroke="midnightblue" d="M697.78,-459.32C712.27,-450.82 734.57,-437.73 751.49,-427.8"/>
<polygon fill="midnightblue" stroke="midnightblue" points="753.4,-430.74 760.26,-422.65 749.86,-424.7 753.4,-430.74"/>
</g>
<!-- Node30 -->
<g id="node30" class="node">
<title>Node30</title>
<g id="a_node30"><a xlink:href="MVExprVar_8h.html" target="_top" xlink:title=" ">
<polygon fill="none" stroke="black" points="513.5,-403.5 513.5,-422.5 670.5,-422.5 670.5,-403.5 513.5,-403.5"/>
<text text-anchor="middle" x="592" y="-410.5" font-family="Helvetica,sans-Serif" font-size="10.00">include/MVExpr/MVExprVar.h</text>
</a>
</g>
</g>
<!-- Node22&#45;&gt;Node30 -->
<g id="edge42" class="edge">
<title>Node22&#45;&gt;Node30</title>
<path fill="none" stroke="midnightblue" d="M668.38,-459.32C654.05,-450.82 631.99,-437.73 615.25,-427.8"/>
<polygon fill="midnightblue" stroke="midnightblue" points="616.97,-424.75 606.58,-422.65 613.4,-430.77 616.97,-424.75"/>
</g>
<!-- Node32 -->
<g id="node32" class="node">
<title>Node32</title>
<g id="a_node32"><a xlink:href="StmtWrapper_8h.html" target="_top" xlink:title=" ">
<polygon fill="none" stroke="black" points="1105,-403.5 1105,-422.5 1233,-422.5 1233,-403.5 1105,-403.5"/>
<text text-anchor="middle" x="1169" y="-410.5" font-family="Helvetica,sans-Serif" font-size="10.00">include/StmtWrapper.h</text>
</a>
</g>
</g>
<!-- Node22&#45;&gt;Node32 -->
<g id="edge45" class="edge">
<title>Node22&#45;&gt;Node32</title>
<path fill="none" stroke="midnightblue" d="M727.85,-463.02C811.65,-453.71 992.74,-433.58 1094.93,-422.23"/>
<polygon fill="midnightblue" stroke="midnightblue" points="1095.32,-425.71 1104.87,-421.13 1094.54,-418.75 1095.32,-425.71"/>
</g>
<!-- Node22&#45;&gt;Node39 -->
<g id="edge75" class="edge">
<title>Node22&#45;&gt;Node39</title>
<path fill="none" stroke="midnightblue" d="M727.54,-467.73C842.85,-466.51 1148.58,-459.79 1242,-423 1272.11,-411.15 1300.19,-385.51 1316.47,-368.64"/>
<polygon fill="midnightblue" stroke="midnightblue" points="1319.2,-370.85 1323.48,-361.16 1314.09,-366.07 1319.2,-370.85"/>
</g>
<!-- Node23&#45;&gt;Node3 -->
<g id="edge33" class="edge">
<title>Node23&#45;&gt;Node3</title>
<path fill="none" stroke="midnightblue" d="M674.73,-280.38C699.92,-266.86 751.15,-240.49 797,-224 837.52,-209.43 884.87,-197.6 920.25,-189.73"/>
<polygon fill="midnightblue" stroke="midnightblue" points="921.34,-193.08 930.36,-187.52 919.84,-186.24 921.34,-193.08"/>
</g>
<!-- Node23&#45;&gt;Node7 -->
<g id="edge37" class="edge">
<title>Node23&#45;&gt;Node7</title>
<path fill="none" stroke="midnightblue" d="M693.64,-280.43C747.29,-267.31 853.81,-241.9 945,-224 1190.35,-175.83 1301.08,-283.48 1500,-132 1533.2,-106.72 1547.41,-57.05 1552.91,-29.87"/>
<polygon fill="midnightblue" stroke="midnightblue" points="1556.41,-30.21 1554.77,-19.74 1549.52,-28.94 1556.41,-30.21"/>
</g>
<!-- Node23&#45;&gt;Node8 -->
<g id="edge39" class="edge">
<title>Node23&#45;&gt;Node8</title>
<path fill="none" stroke="midnightblue" d="M624.73,-280.45C604.41,-273.72 579.64,-262.33 564,-244 544.46,-221.1 545,-209.1 545,-179 545,-179 545,-179 545,-121 545,-45.51 814.99,-19.72 909.67,-13"/>
<polygon fill="midnightblue" stroke="midnightblue" points="910.07,-16.48 919.8,-12.3 909.59,-9.49 910.07,-16.48"/>
</g>
<!-- Node23&#45;&gt;Node13 -->
<g id="edge34" class="edge">
<title>Node23&#45;&gt;Node13</title>
<path fill="none" stroke="midnightblue" d="M659.11,-280.08C659.42,-253.95 660.35,-177.21 660.78,-141.58"/>
<polygon fill="midnightblue" stroke="midnightblue" points="664.28,-141.61 660.9,-131.57 657.28,-141.53 664.28,-141.61"/>
</g>
<!-- Node24 -->
<g id="node24" class="node">
<title>Node24</title>
<g id="a_node24"><a xlink:href="Debug_8h.html" target="_top" xlink:title=" ">
<polygon fill="none" stroke="black" points="953.5,-224.5 953.5,-243.5 1048.5,-243.5 1048.5,-224.5 953.5,-224.5"/>
<text text-anchor="middle" x="1001" y="-231.5" font-family="Helvetica,sans-Serif" font-size="10.00">include/Debug.h</text>
</a>
</g>
</g>
<!-- Node23&#45;&gt;Node24 -->
<g id="edge28" class="edge">
<title>Node23&#45;&gt;Node24</title>
<path fill="none" stroke="midnightblue" d="M713.19,-280.44C776.03,-270.52 879.19,-254.23 943.44,-244.09"/>
<polygon fill="midnightblue" stroke="midnightblue" points="944.07,-247.53 953.4,-242.52 942.98,-240.62 944.07,-247.53"/>
</g>
<!-- Node23&#45;&gt;Node25 -->
<g id="edge30" class="edge">
<title>Node23&#45;&gt;Node25</title>
<path fill="none" stroke="midnightblue" d="M588.48,-280.74C505.75,-271.05 368.76,-255 280.98,-244.72"/>
<polygon fill="midnightblue" stroke="midnightblue" points="281.13,-241.21 270.79,-243.53 280.32,-248.17 281.13,-241.21"/>
</g>
<!-- Node23&#45;&gt;Node26 -->
<g id="edge35" class="edge">
<title>Node23&#45;&gt;Node26</title>
<path fill="none" stroke="midnightblue" d="M729.53,-288.5C892.71,-286.78 1309.03,-279.11 1666.65,-244.02"/>
<polygon fill="midnightblue" stroke="midnightblue" points="1667.08,-247.5 1676.69,-243.03 1666.39,-240.53 1667.08,-247.5"/>
</g>
<!-- Node27 -->
<g id="node27" class="node">
<title>Node27</title>
<g id="a_node27"><a xlink:title=" ">
<polygon fill="none" stroke="#bfbfbf" points="389,-224.5 389,-243.5 517,-243.5 517,-224.5 389,-224.5"/>
<text text-anchor="middle" x="453" y="-231.5" font-family="Helvetica,sans-Serif" font-size="10.00">llvm/Support/Casting.h</text>
</a>
</g>
</g>
<!-- Node23&#45;&gt;Node27 -->
<g id="edge36" class="edge">
<title>Node23&#45;&gt;Node27</title>
<path fill="none" stroke="midnightblue" d="M626.36,-280.44C590.95,-271.16 534.29,-256.31 495.45,-246.13"/>
<polygon fill="midnightblue" stroke="midnightblue" points="496.05,-242.67 485.49,-243.52 494.27,-249.44 496.05,-242.67"/>
</g>
<!-- Node28 -->
<g id="node28" class="node">
<title>Node28</title>
<g id="a_node28"><a xlink:title=" ">
<polygon fill="none" stroke="#bfbfbf" points="573,-224.5 573,-243.5 631,-243.5 631,-224.5 573,-224.5"/>
<text text-anchor="middle" x="602" y="-231.5" font-family="Helvetica,sans-Serif" font-size="10.00">memory</text>
</a>
</g>
</g>
<!-- Node23&#45;&gt;Node28 -->
<g id="edge38" class="edge">
<title>Node23&#45;&gt;Node28</title>
<path fill="none" stroke="midnightblue" d="M649.84,-280.32C641.5,-272.42 628.97,-260.55 618.82,-250.94"/>
<polygon fill="midnightblue" stroke="midnightblue" points="620.99,-248.17 611.32,-243.83 616.18,-253.25 620.99,-248.17"/>
</g>
<!-- Node24&#45;&gt;Node3 -->
<g id="edge29" class="edge">
<title>Node24&#45;&gt;Node3</title>
<path fill="none" stroke="midnightblue" d="M996.38,-224.08C992.54,-216.69 986.98,-205.95 982.24,-196.81"/>
<polygon fill="midnightblue" stroke="midnightblue" points="985.25,-195.02 977.54,-187.75 979.03,-198.24 985.25,-195.02"/>
</g>
<!-- Node25&#45;&gt;Node8 -->
<g id="edge32" class="edge">
<title>Node25&#45;&gt;Node8</title>
<path fill="none" stroke="midnightblue" d="M209.95,-224.44C251.7,-195.02 395.85,-97.63 531,-56 667.05,-14.09 838.96,-10.11 909.53,-10.44"/>
<polygon fill="midnightblue" stroke="midnightblue" points="909.55,-13.94 919.57,-10.52 909.6,-6.94 909.55,-13.94"/>
</g>
<!-- Node25&#45;&gt;Node12 -->
<g id="edge31" class="edge">
<title>Node25&#45;&gt;Node12</title>
<path fill="none" stroke="midnightblue" d="M194.99,-224.08C186.14,-197.83 160.06,-120.55 148.11,-85.12"/>
<polygon fill="midnightblue" stroke="midnightblue" points="151.4,-83.92 144.89,-75.57 144.77,-86.16 151.4,-83.92"/>
</g>
<!-- Node29&#45;&gt;Node23 -->
<g id="edge41" class="edge">
<title>Node29&#45;&gt;Node23</title>
<path fill="none" stroke="midnightblue" d="M752.84,-403.42C735.82,-395.91 712.65,-383.61 697,-367 681.4,-350.44 670.8,-326.25 664.85,-309.64"/>
<polygon fill="midnightblue" stroke="midnightblue" points="668.1,-308.33 661.59,-299.97 661.46,-310.56 668.1,-308.33"/>
</g>
<!-- Node30&#45;&gt;Node23 -->
<g id="edge43" class="edge">
<title>Node30&#45;&gt;Node23</title>
<path fill="none" stroke="midnightblue" d="M596.82,-403.3C607.78,-383.5 634.76,-334.78 649.31,-308.49"/>
<polygon fill="midnightblue" stroke="midnightblue" points="652.44,-310.07 654.23,-299.62 646.32,-306.68 652.44,-310.07"/>
</g>
<!-- Node31 -->
<g id="node31" class="node">
<title>Node31</title>
<g id="a_node31"><a xlink:title=" ">
<polygon fill="none" stroke="#bfbfbf" points="513.5,-342 513.5,-361 606.5,-361 606.5,-342 513.5,-342"/>
<text text-anchor="middle" x="560" y="-349" font-family="Helvetica,sans-Serif" font-size="10.00">unordered_map</text>
</a>
</g>
</g>
<!-- Node30&#45;&gt;Node31 -->
<g id="edge44" class="edge">
<title>Node30&#45;&gt;Node31</title>
<path fill="none" stroke="midnightblue" d="M587.42,-403.48C582.76,-394.82 575.41,-381.15 569.49,-370.15"/>
<polygon fill="midnightblue" stroke="midnightblue" points="572.4,-368.16 564.58,-361.01 566.23,-371.47 572.4,-368.16"/>
</g>
<!-- Node32&#45;&gt;Node3 -->
<g id="edge69" class="edge">
<title>Node32&#45;&gt;Node3</title>
<path fill="none" stroke="midnightblue" d="M1192.45,-403.41C1208.16,-396.28 1227.62,-384.46 1237,-367 1243.52,-354.86 1245.86,-346.56 1237,-336 1177.82,-265.47 1118.81,-333.35 1033,-300 989.79,-283.21 967.31,-284.64 945,-244 936.27,-228.1 946.93,-208.91 957.51,-195.53"/>
<polygon fill="midnightblue" stroke="midnightblue" points="960.4,-197.53 964.25,-187.66 955.08,-192.98 960.4,-197.53"/>
</g>
<!-- Node32&#45;&gt;Node13 -->
<g id="edge70" class="edge">
<title>Node32&#45;&gt;Node13</title>
<path fill="none" stroke="midnightblue" d="M1178.85,-403.16C1194.55,-388.01 1221.75,-356.76 1204,-336 1170.52,-296.85 1025.44,-310.48 975,-300 877.9,-279.83 842.58,-297.38 759,-244 717.39,-217.42 685.26,-167.17 670.27,-140.56"/>
<polygon fill="midnightblue" stroke="midnightblue" points="673.25,-138.71 665.38,-131.61 667.11,-142.07 673.25,-138.71"/>
</g>
<!-- Node32&#45;&gt;Node23 -->
<g id="edge46" class="edge">
<title>Node32&#45;&gt;Node23</title>
<path fill="none" stroke="midnightblue" d="M1104.92,-410.91C999.38,-408.21 794.25,-398.89 730,-367 722.86,-363.46 691.8,-328.65 673.2,-307.39"/>
<polygon fill="midnightblue" stroke="midnightblue" points="675.75,-304.98 666.55,-299.74 670.47,-309.58 675.75,-304.98"/>
</g>
<!-- Node32&#45;&gt;Node26 -->
<g id="edge71" class="edge">
<title>Node32&#45;&gt;Node26</title>
<path fill="none" stroke="midnightblue" d="M1233.36,-406.83C1328.31,-397.07 1509.43,-370.17 1646,-300 1670.98,-287.17 1695.4,-265.64 1710.55,-250.9"/>
<polygon fill="midnightblue" stroke="midnightblue" points="1713.36,-253.05 1717.97,-243.51 1708.41,-248.09 1713.36,-253.05"/>
</g>
<!-- Node33 -->
<g id="node33" class="node">
<title>Node33</title>
<g id="a_node33"><a xlink:href="MVPragmaHandler_8h.html" target="_top" xlink:title=" ">
<polygon fill="none" stroke="black" points="1311.5,-280.5 1311.5,-299.5 1466.5,-299.5 1466.5,-280.5 1311.5,-280.5"/>
<text text-anchor="middle" x="1389" y="-287.5" font-family="Helvetica,sans-Serif" font-size="10.00">include/MVPragmaHandler.h</text>
</a>
</g>
</g>
<!-- Node32&#45;&gt;Node33 -->
<g id="edge47" class="edge">
<title>Node32&#45;&gt;Node33</title>
<path fill="none" stroke="midnightblue" d="M1233.21,-406.73C1288.55,-400.76 1362.53,-388.88 1382,-367 1395.73,-351.57 1395.34,-326.76 1392.93,-309.71"/>
<polygon fill="midnightblue" stroke="midnightblue" points="1396.36,-309.04 1391.18,-299.8 1389.47,-310.26 1396.36,-309.04"/>
</g>
<!-- Node32&#45;&gt;Node39 -->
<g id="edge58" class="edge">
<title>Node32&#45;&gt;Node39</title>
<path fill="none" stroke="midnightblue" d="M1192.21,-403.48C1220,-393.27 1266.72,-376.11 1298.19,-364.55"/>
<polygon fill="midnightblue" stroke="midnightblue" points="1299.65,-367.74 1307.83,-361.01 1297.24,-361.17 1299.65,-367.74"/>
</g>
<!-- Node41 -->
<g id="node41" class="node">
<title>Node41</title>
<g id="a_node41"><a xlink:title=" ">
<polygon fill="none" stroke="#bfbfbf" points="739,-342 739,-361 839,-361 839,-342 739,-342"/>
<text text-anchor="middle" x="789" y="-349" font-family="Helvetica,sans-Serif" font-size="10.00">clang/AST/Stmt.h</text>
</a>
</g>
</g>
<!-- Node32&#45;&gt;Node41 -->
<g id="edge72" class="edge">
<title>Node32&#45;&gt;Node41</title>
<path fill="none" stroke="midnightblue" d="M1104.95,-404.85C1040.13,-397.19 937.17,-383.81 849,-367 843.47,-365.95 837.69,-364.71 831.99,-363.42"/>
<polygon fill="midnightblue" stroke="midnightblue" points="832.42,-359.93 821.88,-361.06 830.82,-366.75 832.42,-359.93"/>
</g>
<!-- Node42 -->
<g id="node42" class="node">
<title>Node42</title>
<g id="a_node42"><a xlink:title=" ">
<polygon fill="none" stroke="#bfbfbf" points="857.5,-336.5 857.5,-366.5 1018.5,-366.5 1018.5,-336.5 857.5,-336.5"/>
<text text-anchor="start" x="865.5" y="-354.5" font-family="Helvetica,sans-Serif" font-size="10.00">clang/ASTMatchers/ASTMatch</text>
<text text-anchor="middle" x="938" y="-343.5" font-family="Helvetica,sans-Serif" font-size="10.00">Finder.h</text>
</a>
</g>
</g>
<!-- Node32&#45;&gt;Node42 -->
<g id="edge73" class="edge">
<title>Node32&#45;&gt;Node42</title>
<path fill="none" stroke="midnightblue" d="M1135.9,-403.48C1101.18,-394.53 1045.73,-380.25 1002.35,-369.07"/>
<polygon fill="midnightblue" stroke="midnightblue" points="1003,-365.63 992.44,-366.52 1001.25,-372.41 1003,-365.63"/>
</g>
<!-- Node43 -->
<g id="node43" class="node">
<title>Node43</title>
<g id="a_node43"><a xlink:title=" ">
<polygon fill="none" stroke="#bfbfbf" points="1037,-342 1037,-361 1195,-361 1195,-342 1037,-342"/>
<text text-anchor="middle" x="1116" y="-349" font-family="Helvetica,sans-Serif" font-size="10.00">clang/Basic/SourceLocation.h</text>
</a>
</g>
</g>
<!-- Node32&#45;&gt;Node43 -->
<g id="edge74" class="edge">
<title>Node32&#45;&gt;Node43</title>
<path fill="none" stroke="midnightblue" d="M1161.41,-403.48C1153.3,-394.37 1140.27,-379.74 1130.24,-368.48"/>
<polygon fill="midnightblue" stroke="midnightblue" points="1132.84,-366.15 1123.58,-361.01 1127.62,-370.8 1132.84,-366.15"/>
</g>
<!-- Node33&#45;&gt;Node7 -->
<g id="edge56" class="edge">
<title>Node33&#45;&gt;Node7</title>
<path fill="none" stroke="midnightblue" d="M1413.72,-280.43C1448.1,-266.97 1508.75,-237.19 1532,-188 1557.13,-134.83 1558.2,-63.31 1557.06,-29.8"/>
<polygon fill="midnightblue" stroke="midnightblue" points="1560.55,-29.45 1556.61,-19.62 1553.56,-29.77 1560.55,-29.45"/>
</g>
<!-- Node33&#45;&gt;Node15 -->
<g id="edge54" class="edge">
<title>Node33&#45;&gt;Node15</title>
<path fill="none" stroke="midnightblue" d="M1416.28,-280.45C1433.29,-273.55 1453.83,-261.97 1464,-244 1484.32,-208.12 1449.95,-162.95 1427.69,-139.24"/>
<polygon fill="midnightblue" stroke="midnightblue" points="1429.92,-136.51 1420.43,-131.8 1424.91,-141.4 1429.92,-136.51"/>
</g>
<!-- Node33&#45;&gt;Node24 -->
<g id="edge48" class="edge">
<title>Node33&#45;&gt;Node24</title>
<path fill="none" stroke="midnightblue" d="M1327.52,-280.44C1253.79,-270.18 1131.15,-253.11 1059,-243.07"/>
<polygon fill="midnightblue" stroke="midnightblue" points="1059.12,-239.56 1048.74,-241.64 1058.16,-246.49 1059.12,-239.56"/>
</g>
<!-- Node34 -->
<g id="node34" class="node">
<title>Node34</title>
<g id="a_node34"><a xlink:href="MVAssert_8h.html" target="_top" xlink:title=" ">
<polygon fill="none" stroke="black" points="1549,-224.5 1549,-243.5 1659,-243.5 1659,-224.5 1549,-224.5"/>
<text text-anchor="middle" x="1604" y="-231.5" font-family="Helvetica,sans-Serif" font-size="10.00">include/MVAssert.h</text>
</a>
</g>
</g>
<!-- Node33&#45;&gt;Node34 -->
<g id="edge49" class="edge">
<title>Node33&#45;&gt;Node34</title>
<path fill="none" stroke="midnightblue" d="M1423.07,-280.44C1460.18,-271.12 1519.66,-256.18 1560.21,-246"/>
<polygon fill="midnightblue" stroke="midnightblue" points="1561.25,-249.35 1570.09,-243.52 1559.54,-242.56 1561.25,-249.35"/>
</g>
<!-- Node36 -->
<g id="node36" class="node">
<title>Node36</title>
<g id="a_node36"><a xlink:title=" ">
<polygon fill="none" stroke="#bfbfbf" points="1301.5,-224.5 1301.5,-243.5 1454.5,-243.5 1454.5,-224.5 1301.5,-224.5"/>
<text text-anchor="middle" x="1378" y="-231.5" font-family="Helvetica,sans-Serif" font-size="10.00">clang/Basic/IdentifierTable.h</text>
</a>
</g>
</g>
<!-- Node33&#45;&gt;Node36 -->
<g id="edge53" class="edge">
<title>Node33&#45;&gt;Node36</title>
<path fill="none" stroke="midnightblue" d="M1387.18,-280.08C1385.73,-272.93 1383.63,-262.64 1381.81,-253.69"/>
<polygon fill="midnightblue" stroke="midnightblue" points="1385.21,-252.85 1379.78,-243.75 1378.35,-254.25 1385.21,-252.85"/>
</g>
<!-- Node37 -->
<g id="node37" class="node">
<title>Node37</title>
<g id="a_node37"><a xlink:title=" ">
<polygon fill="none" stroke="#bfbfbf" points="1105.5,-224.5 1105.5,-243.5 1218.5,-243.5 1218.5,-224.5 1105.5,-224.5"/>
<text text-anchor="middle" x="1162" y="-231.5" font-family="Helvetica,sans-Serif" font-size="10.00">clang/Parse/Parser.h</text>
</a>
</g>
</g>
<!-- Node33&#45;&gt;Node37 -->
<g id="edge55" class="edge">
<title>Node33&#45;&gt;Node37</title>
<path fill="none" stroke="midnightblue" d="M1353.03,-280.44C1313.68,-271.08 1250.51,-256.06 1207.69,-245.87"/>
<polygon fill="midnightblue" stroke="midnightblue" points="1208.34,-242.43 1197.8,-243.52 1206.72,-249.24 1208.34,-242.43"/>
</g>
<!-- Node38 -->
<g id="node38" class="node">
<title>Node38</title>
<g id="a_node38"><a xlink:title=" ">
<polygon fill="none" stroke="#bfbfbf" points="1236.5,-224.5 1236.5,-243.5 1283.5,-243.5 1283.5,-224.5 1236.5,-224.5"/>
<text text-anchor="middle" x="1260" y="-231.5" font-family="Helvetica,sans-Serif" font-size="10.00">vector</text>
</a>
</g>
</g>
<!-- Node33&#45;&gt;Node38 -->
<g id="edge57" class="edge">
<title>Node33&#45;&gt;Node38</title>
<path fill="none" stroke="midnightblue" d="M1368.56,-280.44C1347.33,-271.56 1313.9,-257.56 1289.75,-247.45"/>
<polygon fill="midnightblue" stroke="midnightblue" points="1290.92,-244.15 1280.34,-243.52 1288.22,-250.61 1290.92,-244.15"/>
</g>
<!-- Node34&#45;&gt;Node7 -->
<g id="edge50" class="edge">
<title>Node34&#45;&gt;Node7</title>
<path fill="none" stroke="midnightblue" d="M1639.01,-224.45C1657.93,-217.84 1679.68,-206.59 1691,-188 1695.62,-180.41 1693.79,-176.44 1691,-168 1670.19,-104.97 1609.17,-51.19 1576.77,-26.1"/>
<polygon fill="midnightblue" stroke="midnightblue" points="1578.53,-23.05 1568.45,-19.81 1574.31,-28.63 1578.53,-23.05"/>
</g>
<!-- Node34&#45;&gt;Node8 -->
<g id="edge52" class="edge">
<title>Node34&#45;&gt;Node8</title>
<path fill="none" stroke="midnightblue" d="M1599.53,-224.47C1587.16,-201.82 1550.05,-139.98 1500,-112 1411.6,-62.58 1374.12,-96.75 1275,-76 1240.39,-68.75 1232.55,-63.51 1198,-56 1117.89,-38.58 1022.56,-23.22 973.95,-15.77"/>
<polygon fill="midnightblue" stroke="midnightblue" points="974.44,-12.31 964.03,-14.26 973.39,-19.23 974.44,-12.31"/>
</g>
<!-- Node35 -->
<g id="node35" class="node">
<title>Node35</title>
<g id="a_node35"><a xlink:title=" ">
<polygon fill="none" stroke="#bfbfbf" points="1622.5,-168.5 1622.5,-187.5 1681.5,-187.5 1681.5,-168.5 1622.5,-168.5"/>
<text text-anchor="middle" x="1652" y="-175.5" font-family="Helvetica,sans-Serif" font-size="10.00">setjmp.h</text>
</a>
</g>
</g>
<!-- Node34&#45;&gt;Node35 -->
<g id="edge51" class="edge">
<title>Node34&#45;&gt;Node35</title>
<path fill="none" stroke="midnightblue" d="M1611.93,-224.08C1618.85,-216.3 1629.07,-204.8 1637.45,-195.37"/>
<polygon fill="midnightblue" stroke="midnightblue" points="1640.19,-197.55 1644.22,-187.75 1634.96,-192.9 1640.19,-197.55"/>
</g>
<!-- Node39&#45;&gt;Node3 -->
<g id="edge64" class="edge">
<title>Node39&#45;&gt;Node3</title>
<path fill="none" stroke="midnightblue" d="M1311.1,-341.89C1270.52,-324.23 1175.38,-282.34 1097,-244 1078.28,-234.84 1029.02,-208.8 998.52,-192.59"/>
<polygon fill="midnightblue" stroke="midnightblue" points="999.81,-189.32 989.34,-187.71 996.53,-195.5 999.81,-189.32"/>
</g>
<!-- Node39&#45;&gt;Node7 -->
<g id="edge66" class="edge">
<title>Node39&#45;&gt;Node7</title>
<path fill="none" stroke="midnightblue" d="M1372.64,-346.67C1473.89,-336.47 1728.75,-305.14 1784,-244 1804.18,-221.67 1803,-209.1 1803,-179 1803,-179 1803,-179 1803,-121 1803,-31.7 1666.61,-14.38 1596.53,-11.37"/>
<polygon fill="midnightblue" stroke="midnightblue" points="1596.4,-7.86 1586.29,-11.01 1596.16,-14.86 1596.4,-7.86"/>
</g>
<!-- Node39&#45;&gt;Node8 -->
<g id="edge68" class="edge">
<title>Node39&#45;&gt;Node8</title>
<path fill="none" stroke="midnightblue" d="M1289.34,-342.58C1277.59,-340.4 1264.8,-338.06 1253,-336 1033.49,-297.64 894.87,-331.2 795,-132 767.22,-76.6 858.99,-37.44 910.09,-20.45"/>
<polygon fill="midnightblue" stroke="midnightblue" points="911.28,-23.75 919.72,-17.35 909.13,-17.09 911.28,-23.75"/>
</g>
<!-- Node39&#45;&gt;Node11 -->
<g id="edge67" class="edge">
<title>Node39&#45;&gt;Node11</title>
<path fill="none" stroke="midnightblue" d="M1289.38,-344.92C1268.55,-342.17 1242.95,-338.84 1220,-336 1082.78,-319.05 1033.7,-363.72 911,-300 822.17,-253.87 815.91,-215.69 761,-132 751.32,-117.24 743.14,-98.85 737.79,-85.4"/>
<polygon fill="midnightblue" stroke="midnightblue" points="740.97,-83.92 734.12,-75.84 734.43,-86.43 740.97,-83.92"/>
</g>
<!-- Node39&#45;&gt;Node13 -->
<g id="edge65" class="edge">
<title>Node39&#45;&gt;Node13</title>
<path fill="none" stroke="midnightblue" d="M1289.41,-342.14C1277.67,-339.95 1264.86,-337.72 1253,-336 1101.75,-314.02 1054.02,-353.91 911,-300 859.48,-280.58 727.74,-176.77 679.26,-137.8"/>
<polygon fill="midnightblue" stroke="midnightblue" points="681.45,-135.07 671.47,-131.51 677.05,-140.51 681.45,-135.07"/>
</g>
<!-- Node39&#45;&gt;Node23 -->
<g id="edge60" class="edge">
<title>Node39&#45;&gt;Node23</title>
<path fill="none" stroke="midnightblue" d="M1289.28,-345.4C1264.52,-342.46 1232.49,-338.8 1204,-336 1039.24,-319.8 846.07,-304.79 739.64,-296.87"/>
<polygon fill="midnightblue" stroke="midnightblue" points="739.84,-293.37 729.61,-296.12 739.33,-300.35 739.84,-293.37"/>
</g>
<!-- Node39&#45;&gt;Node24 -->
<g id="edge59" class="edge">
<title>Node39&#45;&gt;Node24</title>
<path fill="none" stroke="midnightblue" d="M1300.01,-341.97C1291.9,-339.88 1283.15,-337.74 1275,-336 1181.54,-316 1147.39,-344.86 1063,-300 1041.79,-288.72 1023.66,-267.49 1012.58,-252.36"/>
<polygon fill="midnightblue" stroke="midnightblue" points="1015.23,-250.05 1006.63,-243.87 1009.5,-254.07 1015.23,-250.05"/>
</g>
<!-- Node40 -->
<g id="node40" class="node">
<title>Node40</title>
<g id="a_node40"><a xlink:href="MVOps_8h.html" target="_top" xlink:title=" ">
<polygon fill="none" stroke="black" points="1539,-280.5 1539,-299.5 1637,-299.5 1637,-280.5 1539,-280.5"/>
<text text-anchor="middle" x="1588" y="-287.5" font-family="Helvetica,sans-Serif" font-size="10.00">include/MVOps.h</text>
</a>
</g>
</g>
<!-- Node39&#45;&gt;Node40 -->
<g id="edge61" class="edge">
<title>Node39&#45;&gt;Node40</title>
<path fill="none" stroke="midnightblue" d="M1367.82,-341.98C1413.53,-331.39 1491.53,-313.34 1541.37,-301.8"/>
<polygon fill="midnightblue" stroke="midnightblue" points="1542.29,-305.17 1551.25,-299.51 1540.71,-298.35 1542.29,-305.17"/>
</g>
<!-- Node40&#45;&gt;Node26 -->
<g id="edge63" class="edge">
<title>Node40&#45;&gt;Node26</title>
<path fill="none" stroke="midnightblue" d="M1609.87,-280.44C1632.78,-271.48 1668.98,-257.31 1694.87,-247.18"/>
<polygon fill="midnightblue" stroke="midnightblue" points="1696.2,-250.42 1704.24,-243.52 1693.65,-243.9 1696.2,-250.42"/>
</g>
<!-- Node40&#45;&gt;Node34 -->
<g id="edge62" class="edge">
<title>Node40&#45;&gt;Node34</title>
<path fill="none" stroke="midnightblue" d="M1590.64,-280.08C1592.79,-272.85 1595.88,-262.41 1598.55,-253.4"/>
<polygon fill="midnightblue" stroke="midnightblue" points="1601.92,-254.33 1601.41,-243.75 1595.21,-252.34 1601.92,-254.33"/>
</g>
<!-- Node45&#45;&gt;Node22 -->
<g id="edge87" class="edge">
<title>Node45&#45;&gt;Node22</title>
<path fill="none" stroke="midnightblue" d="M359.84,-520.2C433.34,-508.79 556.97,-489.58 628.12,-478.53"/>
<polygon fill="midnightblue" stroke="midnightblue" points="628.88,-481.95 638.22,-476.96 627.8,-475.03 628.88,-481.95"/>
</g>
<!-- Node45&#45;&gt;Node25 -->
<g id="edge82" class="edge">
<title>Node45&#45;&gt;Node25</title>
<path fill="none" stroke="midnightblue" d="M292.81,-515.41C276.35,-481 240.39,-391.41 281,-336 314.37,-290.47 430.19,-324.14 395,-280 381.45,-263.01 334.89,-251.93 290.43,-245.01"/>
<polygon fill="midnightblue" stroke="midnightblue" points="290.8,-241.53 280.39,-243.51 289.77,-248.45 290.8,-241.53"/>
</g>
<!-- Node46 -->
<g id="node46" class="node">
<title>Node46</title>
<g id="a_node46"><a xlink:href="MVExprArray_8h.html" target="_top" xlink:title=" ">
<polygon fill="none" stroke="black" points="290.5,-342 290.5,-361 457.5,-361 457.5,-342 290.5,-342"/>
<text text-anchor="middle" x="374" y="-349" font-family="Helvetica,sans-Serif" font-size="10.00">include/MVExpr/MVExprArray.h</text>
</a>
</g>
</g>
<!-- Node45&#45;&gt;Node46 -->
<g id="edge83" class="edge">
<title>Node45&#45;&gt;Node46</title>
<path fill="none" stroke="midnightblue" d="M305.93,-515.31C319.23,-483.5 351.45,-406.45 366.28,-370.96"/>
<polygon fill="midnightblue" stroke="midnightblue" points="369.66,-371.95 370.29,-361.37 363.2,-369.25 369.66,-371.95"/>
</g>
<!-- Node46&#45;&gt;Node19 -->
<g id="edge86" class="edge">
<title>Node46&#45;&gt;Node19</title>
<path fill="none" stroke="midnightblue" d="M371.99,-341.98C370,-333.49 366.87,-320.2 364.31,-309.32"/>
<polygon fill="midnightblue" stroke="midnightblue" points="367.7,-308.44 362,-299.51 360.89,-310.04 367.7,-308.44"/>
</g>
<!-- Node46&#45;&gt;Node23 -->
<g id="edge84" class="edge">
<title>Node46&#45;&gt;Node23</title>
<path fill="none" stroke="midnightblue" d="M414.83,-341.98C465.84,-331.33 553.1,-313.11 608.32,-301.58"/>
<polygon fill="midnightblue" stroke="midnightblue" points="609.17,-304.98 618.24,-299.51 607.74,-298.13 609.17,-304.98"/>
</g>
<!-- Node46&#45;&gt;Node27 -->
<g id="edge85" class="edge">
<title>Node46&#45;&gt;Node27</title>
<path fill="none" stroke="midnightblue" d="M386.53,-341.79C398.85,-332.64 417.45,-317.22 429,-300 438.53,-285.8 444.88,-267.32 448.64,-253.7"/>
<polygon fill="midnightblue" stroke="midnightblue" points="452.13,-254.15 451.2,-243.6 445.35,-252.43 452.13,-254.15"/>
</g>
</g>
</svg>
