<?xml version="1.0" encoding="UTF-8" standalone="no"?>
<!DOCTYPE svg PUBLIC "-//W3C//DTD SVG 1.1//EN"
 "http://www.w3.org/Graphics/SVG/1.1/DTD/svg11.dtd">
<!-- Generated by graphviz version 2.43.0 (0)
 -->
<!-- Title: MACVETH/include/Vectorization/SIMD/SIMDBackEnd.h Pages: 1 -->
<svg width="1891pt" height="621pt"
 viewBox="0.00 0.00 1891.00 621.00" xmlns="http://www.w3.org/2000/svg" xmlns:xlink="http://www.w3.org/1999/xlink">
<g id="graph0" class="graph" transform="scale(1 1) rotate(0) translate(4 617)">
<title>MACVETH/include/Vectorization/SIMD/SIMDBackEnd.h</title>
<!-- Node1 -->
<g id="node1" class="node">
<title>Node1</title>
<g id="a_node1"><a xlink:title=" ">
<polygon fill="#bfbfbf" stroke="black" points="1578,-582.5 1578,-612.5 1748,-612.5 1748,-582.5 1578,-582.5"/>
<text text-anchor="start" x="1586" y="-600.5" font-family="Helvetica,sans-Serif" font-size="10.00">MACVETH/include/Vectorization</text>
<text text-anchor="middle" x="1663" y="-589.5" font-family="Helvetica,sans-Serif" font-size="10.00">/SIMD/SIMDBackEnd.h</text>
</a>
</g>
</g>
<!-- Node2 -->
<g id="node2" class="node">
<title>Node2</title>
<g id="a_node2"><a xlink:href="CDAG_8h.html" target="_top" xlink:title=" ">
<polygon fill="none" stroke="black" points="982,-521 982,-540 1074,-540 1074,-521 982,-521"/>
<text text-anchor="middle" x="1028" y="-528" font-family="Helvetica,sans-Serif" font-size="10.00">include/CDAG.h</text>
</a>
</g>
</g>
<!-- Node1&#45;&gt;Node2 -->
<g id="edge1" class="edge">
<title>Node1&#45;&gt;Node2</title>
<path fill="none" stroke="midnightblue" d="M1577.69,-587.77C1445.83,-574.27 1196.1,-548.71 1084.43,-537.28"/>
<polygon fill="midnightblue" stroke="midnightblue" points="1084.69,-533.78 1074.39,-536.25 1083.98,-540.75 1084.69,-533.78"/>
</g>
<!-- Node21 -->
<g id="node21" class="node">
<title>Node21</title>
<g id="a_node21"><a xlink:href="MVDataType_8h.html" target="_top" xlink:title=" ">
<polygon fill="none" stroke="black" points="1431,-224.5 1431,-243.5 1597,-243.5 1597,-224.5 1431,-224.5"/>
<text text-anchor="middle" x="1514" y="-231.5" font-family="Helvetica,sans-Serif" font-size="10.00">include/MVExpr/MVDataType.h</text>
</a>
</g>
</g>
<!-- Node1&#45;&gt;Node21 -->
<g id="edge77" class="edge">
<title>Node1&#45;&gt;Node21</title>
<path fill="none" stroke="midnightblue" d="M1663,-582.46C1663,-559.12 1663,-510.85 1663,-470 1663,-470 1663,-470 1663,-350.5 1663,-295.27 1598.27,-262.67 1554.13,-246.86"/>
<polygon fill="midnightblue" stroke="midnightblue" points="1555.11,-243.49 1544.51,-243.56 1552.83,-250.11 1555.11,-243.49"/>
</g>
<!-- Node40 -->
<g id="node40" class="node">
<title>Node40</title>
<g id="a_node40"><a xlink:href="CostTable_8h.html" target="_top" xlink:title=" ">
<polygon fill="none" stroke="black" points="1653,-224.5 1653,-243.5 1819,-243.5 1819,-224.5 1653,-224.5"/>
<text text-anchor="middle" x="1736" y="-231.5" font-family="Helvetica,sans-Serif" font-size="10.00">include/CostModel/CostTable.h</text>
</a>
</g>
</g>
<!-- Node1&#45;&gt;Node40 -->
<g id="edge71" class="edge">
<title>Node1&#45;&gt;Node40</title>
<path fill="none" stroke="midnightblue" d="M1670.15,-582.5C1681.16,-559.59 1701,-512.42 1701,-470 1701,-470 1701,-470 1701,-350.5 1701,-314.69 1716.6,-275.21 1726.97,-252.92"/>
<polygon fill="midnightblue" stroke="midnightblue" points="1730.23,-254.24 1731.42,-243.71 1723.92,-251.19 1730.23,-254.24"/>
</g>
<!-- Node43 -->
<g id="node43" class="node">
<title>Node43</title>
<g id="a_node43"><a xlink:href="MVSourceLocation_8h.html" target="_top" xlink:title=" ">
<polygon fill="none" stroke="black" points="1729,-521 1729,-540 1883,-540 1883,-521 1729,-521"/>
<text text-anchor="middle" x="1806" y="-528" font-family="Helvetica,sans-Serif" font-size="10.00">include/MVSourceLocation.h</text>
</a>
</g>
</g>
<!-- Node1&#45;&gt;Node43 -->
<g id="edge78" class="edge">
<title>Node1&#45;&gt;Node43</title>
<path fill="none" stroke="midnightblue" d="M1694.03,-582.4C1719.01,-571.04 1753.82,-555.22 1777.96,-544.24"/>
<polygon fill="midnightblue" stroke="midnightblue" points="1779.63,-547.33 1787.28,-540.01 1776.73,-540.96 1779.63,-547.33"/>
</g>
<!-- Node44 -->
<g id="node44" class="node">
<title>Node44</title>
<g id="a_node44"><a xlink:href="VectorIR_8h.html" target="_top" xlink:title=" ">
<polygon fill="none" stroke="black" points="1436.5,-515.5 1436.5,-545.5 1555.5,-545.5 1555.5,-515.5 1436.5,-515.5"/>
<text text-anchor="start" x="1444.5" y="-533.5" font-family="Helvetica,sans-Serif" font-size="10.00">include/Vectorization</text>
<text text-anchor="middle" x="1496" y="-522.5" font-family="Helvetica,sans-Serif" font-size="10.00">/VectorIR.h</text>
</a>
</g>
</g>
<!-- Node1&#45;&gt;Node44 -->
<g id="edge79" class="edge">
<title>Node1&#45;&gt;Node44</title>
<path fill="none" stroke="midnightblue" d="M1626.76,-582.4C1601.82,-572.69 1568.47,-559.71 1541.7,-549.29"/>
<polygon fill="midnightblue" stroke="midnightblue" points="1542.75,-545.94 1532.17,-545.58 1540.22,-552.47 1542.75,-545.94"/>
</g>
<!-- Node3 -->
<g id="node3" class="node">
<title>Node3</title>
<g id="a_node3"><a xlink:href="Node_8h.html" target="_top" xlink:title=" ">
<polygon fill="none" stroke="black" points="983.5,-459.5 983.5,-478.5 1072.5,-478.5 1072.5,-459.5 983.5,-459.5"/>
<text text-anchor="middle" x="1028" y="-466.5" font-family="Helvetica,sans-Serif" font-size="10.00">include/Node.h</text>
</a>
</g>
</g>
<!-- Node2&#45;&gt;Node3 -->
<g id="edge2" class="edge">
<title>Node2&#45;&gt;Node3</title>
<path fill="none" stroke="midnightblue" d="M1028,-520.98C1028,-512.58 1028,-499.48 1028,-488.66"/>
<polygon fill="midnightblue" stroke="midnightblue" points="1031.5,-488.51 1028,-478.51 1024.5,-488.51 1031.5,-488.51"/>
</g>
<!-- Node35 -->
<g id="node35" class="node">
<title>Node35</title>
<g id="a_node35"><a xlink:href="TAC_8h.html" target="_top" xlink:title=" ">
<polygon fill="none" stroke="black" points="316.5,-342 316.5,-361 399.5,-361 399.5,-342 316.5,-342"/>
<text text-anchor="middle" x="358" y="-349" font-family="Helvetica,sans-Serif" font-size="10.00">include/TAC.h</text>
</a>
</g>
</g>
<!-- Node2&#45;&gt;Node35 -->
<g id="edge70" class="edge">
<title>Node2&#45;&gt;Node35</title>
<path fill="none" stroke="midnightblue" d="M981.74,-523.41C890.62,-510.64 682.13,-477.67 514,-423 466.05,-407.41 413.15,-381.52 382.91,-365.83"/>
<polygon fill="midnightblue" stroke="midnightblue" points="384.41,-362.67 373.93,-361.12 381.16,-368.87 384.41,-362.67"/>
</g>
<!-- Node4 -->
<g id="node4" class="node">
<title>Node4</title>
<g id="a_node4"><a xlink:href="MVExpr_8h.html" target="_top" xlink:title=" ">
<polygon fill="none" stroke="black" points="1072.5,-280.5 1072.5,-299.5 1213.5,-299.5 1213.5,-280.5 1072.5,-280.5"/>
<text text-anchor="middle" x="1143" y="-287.5" font-family="Helvetica,sans-Serif" font-size="10.00">include/MVExpr/MVExpr.h</text>
</a>
</g>
</g>
<!-- Node3&#45;&gt;Node4 -->
<g id="edge3" class="edge">
<title>Node3&#45;&gt;Node4</title>
<path fill="none" stroke="midnightblue" d="M1065.52,-459.4C1085.68,-452.82 1109.17,-441.6 1123,-423 1147.93,-389.47 1147.67,-337.72 1145.33,-310.03"/>
<polygon fill="midnightblue" stroke="midnightblue" points="1148.78,-309.34 1144.27,-299.75 1141.82,-310.06 1148.78,-309.34"/>
</g>
<!-- Node22 -->
<g id="node22" class="node">
<title>Node22</title>
<g id="a_node22"><a xlink:title=" ">
<polygon fill="none" stroke="#bfbfbf" points="28,-224.5 28,-243.5 126,-243.5 126,-224.5 28,-224.5"/>
<text text-anchor="middle" x="77" y="-231.5" font-family="Helvetica,sans-Serif" font-size="10.00">clang/AST/Expr.h</text>
</a>
</g>
</g>
<!-- Node3&#45;&gt;Node22 -->
<g id="edge69" class="edge">
<title>Node3&#45;&gt;Node22</title>
<path fill="none" stroke="midnightblue" d="M983.36,-465.97C832.46,-458.57 342.79,-430.15 200,-367 155.37,-347.26 144.82,-337.01 113,-300 100.8,-285.81 90.87,-266.84 84.55,-253.06"/>
<polygon fill="midnightblue" stroke="midnightblue" points="87.67,-251.44 80.45,-243.69 81.26,-254.26 87.67,-251.44"/>
</g>
<!-- Node25 -->
<g id="node25" class="node">
<title>Node25</title>
<g id="a_node25"><a xlink:href="MVExprLiteral_8h.html" target="_top" xlink:title=" ">
<polygon fill="none" stroke="black" points="941.5,-403.5 941.5,-422.5 1114.5,-422.5 1114.5,-403.5 941.5,-403.5"/>
<text text-anchor="middle" x="1028" y="-410.5" font-family="Helvetica,sans-Serif" font-size="10.00">include/MVExpr/MVExprLiteral.h</text>
</a>
</g>
</g>
<!-- Node3&#45;&gt;Node25 -->
<g id="edge33" class="edge">
<title>Node3&#45;&gt;Node25</title>
<path fill="none" stroke="midnightblue" d="M1028,-459.08C1028,-452.01 1028,-441.86 1028,-432.99"/>
<polygon fill="midnightblue" stroke="midnightblue" points="1031.5,-432.75 1028,-422.75 1024.5,-432.75 1031.5,-432.75"/>
</g>
<!-- Node26 -->
<g id="node26" class="node">
<title>Node26</title>
<g id="a_node26"><a xlink:href="MVExprVar_8h.html" target="_top" xlink:title=" ">
<polygon fill="none" stroke="black" points="1171.5,-403.5 1171.5,-422.5 1328.5,-422.5 1328.5,-403.5 1171.5,-403.5"/>
<text text-anchor="middle" x="1250" y="-410.5" font-family="Helvetica,sans-Serif" font-size="10.00">include/MVExpr/MVExprVar.h</text>
</a>
</g>
</g>
<!-- Node3&#45;&gt;Node26 -->
<g id="edge35" class="edge">
<title>Node3&#45;&gt;Node26</title>
<path fill="none" stroke="midnightblue" d="M1063.18,-459.44C1101.58,-450.1 1163.18,-435.12 1205.06,-424.93"/>
<polygon fill="midnightblue" stroke="midnightblue" points="1206.1,-428.28 1214.99,-422.52 1204.44,-421.48 1206.1,-428.28"/>
</g>
<!-- Node28 -->
<g id="node28" class="node">
<title>Node28</title>
<g id="a_node28"><a xlink:href="StmtWrapper_8h.html" target="_top" xlink:title=" ">
<polygon fill="none" stroke="black" points="607,-403.5 607,-422.5 735,-422.5 735,-403.5 607,-403.5"/>
<text text-anchor="middle" x="671" y="-410.5" font-family="Helvetica,sans-Serif" font-size="10.00">include/StmtWrapper.h</text>
</a>
</g>
</g>
<!-- Node3&#45;&gt;Node28 -->
<g id="edge38" class="edge">
<title>Node3&#45;&gt;Node28</title>
<path fill="none" stroke="midnightblue" d="M983.15,-461.22C921.3,-451.86 809.36,-434.93 737.69,-424.09"/>
<polygon fill="midnightblue" stroke="midnightblue" points="737.83,-420.57 727.42,-422.53 736.78,-427.49 737.83,-420.57"/>
</g>
<!-- Node3&#45;&gt;Node35 -->
<g id="edge68" class="edge">
<title>Node3&#45;&gt;Node35</title>
<path fill="none" stroke="midnightblue" d="M983.34,-466C904.78,-461.89 736.99,-450.45 598,-423 522.94,-408.18 437.53,-380.37 391.56,-364.47"/>
<polygon fill="midnightblue" stroke="midnightblue" points="392.42,-361.06 381.83,-361.07 390.12,-367.67 392.42,-361.06"/>
</g>
<!-- Node5 -->
<g id="node5" class="node">
<title>Node5</title>
<g id="a_node5"><a xlink:href="Debug_8h.html" target="_top" xlink:title=" ">
<polygon fill="none" stroke="black" points="905.5,-224.5 905.5,-243.5 1000.5,-243.5 1000.5,-224.5 905.5,-224.5"/>
<text text-anchor="middle" x="953" y="-231.5" font-family="Helvetica,sans-Serif" font-size="10.00">include/Debug.h</text>
</a>
</g>
</g>
<!-- Node4&#45;&gt;Node5 -->
<g id="edge4" class="edge">
<title>Node4&#45;&gt;Node5</title>
<path fill="none" stroke="midnightblue" d="M1112.89,-280.44C1080.37,-271.2 1028.42,-256.44 992.61,-246.26"/>
<polygon fill="midnightblue" stroke="midnightblue" points="993.54,-242.88 982.97,-243.52 991.63,-249.62 993.54,-242.88"/>
</g>
<!-- Node6 -->
<g id="node6" class="node">
<title>Node6</title>
<g id="a_node6"><a xlink:href="Utils_8h.html" target="_top" xlink:title=" ">
<polygon fill="none" stroke="black" points="916,-168.5 916,-187.5 1002,-187.5 1002,-168.5 916,-168.5"/>
<text text-anchor="middle" x="959" y="-175.5" font-family="Helvetica,sans-Serif" font-size="10.00">include/Utils.h</text>
</a>
</g>
</g>
<!-- Node4&#45;&gt;Node6 -->
<g id="edge26" class="edge">
<title>Node4&#45;&gt;Node6</title>
<path fill="none" stroke="midnightblue" d="M1136.74,-280.21C1126.52,-266.44 1104.98,-239.75 1081,-224 1057.62,-208.64 1028.28,-197.61 1004.24,-190.31"/>
<polygon fill="midnightblue" stroke="midnightblue" points="1005.21,-186.95 994.63,-187.5 1003.25,-193.67 1005.21,-186.95"/>
</g>
<!-- Node10 -->
<g id="node10" class="node">
<title>Node10</title>
<g id="a_node10"><a xlink:title=" ">
<polygon fill="none" stroke="#bfbfbf" points="435,-0.5 435,-19.5 495,-19.5 495,-0.5 435,-0.5"/>
<text text-anchor="middle" x="465" y="-7.5" font-family="Helvetica,sans-Serif" font-size="10.00">iostream</text>
</a>
</g>
</g>
<!-- Node4&#45;&gt;Node10 -->
<g id="edge30" class="edge">
<title>Node4&#45;&gt;Node10</title>
<path fill="none" stroke="midnightblue" d="M1146.79,-280.12C1152.55,-267.15 1164.28,-242.55 1178,-224 1212.2,-177.76 1247.14,-185.19 1269,-132 1277.62,-111.03 1263.82,-61.84 1257,-56 1228.21,-31.34 663.02,-15.81 505.46,-11.95"/>
<polygon fill="midnightblue" stroke="midnightblue" points="505.34,-8.44 495.26,-11.7 505.17,-15.44 505.34,-8.44"/>
</g>
<!-- Node11 -->
<g id="node11" class="node">
<title>Node11</title>
<g id="a_node11"><a xlink:title=" ">
<polygon fill="none" stroke="#bfbfbf" points="1219,-0.5 1219,-19.5 1263,-19.5 1263,-0.5 1219,-0.5"/>
<text text-anchor="middle" x="1241" y="-7.5" font-family="Helvetica,sans-Serif" font-size="10.00">string</text>
</a>
</g>
</g>
<!-- Node4&#45;&gt;Node11 -->
<g id="edge32" class="edge">
<title>Node4&#45;&gt;Node11</title>
<path fill="none" stroke="midnightblue" d="M1150.07,-280.3C1160.56,-267.56 1181.03,-243.24 1200,-224 1242.87,-180.53 1277.19,-187.78 1302,-132 1310.49,-112.92 1296.44,-67.25 1290,-56 1283.26,-44.21 1272.38,-33.76 1262.58,-25.91"/>
<polygon fill="midnightblue" stroke="midnightblue" points="1264.46,-22.94 1254.37,-19.7 1260.24,-28.53 1264.46,-22.94"/>
</g>
<!-- Node16 -->
<g id="node16" class="node">
<title>Node16</title>
<g id="a_node16"><a xlink:title=" ">
<polygon fill="none" stroke="#bfbfbf" points="420.5,-112.5 420.5,-131.5 515.5,-131.5 515.5,-112.5 420.5,-112.5"/>
<text text-anchor="middle" x="468" y="-119.5" font-family="Helvetica,sans-Serif" font-size="10.00">clang/AST/AST.h</text>
</a>
</g>
</g>
<!-- Node4&#45;&gt;Node16 -->
<g id="edge27" class="edge">
<title>Node4&#45;&gt;Node16</title>
<path fill="none" stroke="midnightblue" d="M1128.67,-280.45C1104.72,-266.54 1054.68,-239.04 1009,-224 963.38,-208.98 655.73,-155.25 525.76,-132.88"/>
<polygon fill="midnightblue" stroke="midnightblue" points="526.05,-129.38 515.6,-131.14 524.87,-136.28 526.05,-129.38"/>
</g>
<!-- Node4&#45;&gt;Node21 -->
<g id="edge23" class="edge">
<title>Node4&#45;&gt;Node21</title>
<path fill="none" stroke="midnightblue" d="M1201.79,-280.44C1268,-270.81 1375.47,-255.16 1445.45,-244.98"/>
<polygon fill="midnightblue" stroke="midnightblue" points="1446.1,-248.42 1455.49,-243.52 1445.09,-241.49 1446.1,-248.42"/>
</g>
<!-- Node4&#45;&gt;Node22 -->
<g id="edge28" class="edge">
<title>Node4&#45;&gt;Node22</title>
<path fill="none" stroke="midnightblue" d="M1072.34,-286.86C912.19,-281.77 509.34,-267.55 173,-244 161.13,-243.17 148.45,-242.1 136.32,-241"/>
<polygon fill="midnightblue" stroke="midnightblue" points="136.58,-237.51 126.29,-240.07 135.93,-244.48 136.58,-237.51"/>
</g>
<!-- Node23 -->
<g id="node23" class="node">
<title>Node23</title>
<g id="a_node23"><a xlink:title=" ">
<polygon fill="none" stroke="#bfbfbf" points="1285,-224.5 1285,-243.5 1413,-243.5 1413,-224.5 1285,-224.5"/>
<text text-anchor="middle" x="1349" y="-231.5" font-family="Helvetica,sans-Serif" font-size="10.00">llvm/Support/Casting.h</text>
</a>
</g>
</g>
<!-- Node4&#45;&gt;Node23 -->
<g id="edge29" class="edge">
<title>Node4&#45;&gt;Node23</title>
<path fill="none" stroke="midnightblue" d="M1175.64,-280.44C1211.05,-271.16 1267.71,-256.31 1306.55,-246.13"/>
<polygon fill="midnightblue" stroke="midnightblue" points="1307.73,-249.44 1316.51,-243.52 1305.95,-242.67 1307.73,-249.44"/>
</g>
<!-- Node24 -->
<g id="node24" class="node">
<title>Node24</title>
<g id="a_node24"><a xlink:title=" ">
<polygon fill="none" stroke="#bfbfbf" points="1209,-224.5 1209,-243.5 1267,-243.5 1267,-224.5 1209,-224.5"/>
<text text-anchor="middle" x="1238" y="-231.5" font-family="Helvetica,sans-Serif" font-size="10.00">memory</text>
</a>
</g>
</g>
<!-- Node4&#45;&gt;Node24 -->
<g id="edge31" class="edge">
<title>Node4&#45;&gt;Node24</title>
<path fill="none" stroke="midnightblue" d="M1158.26,-280.32C1173.22,-271.82 1196.25,-258.73 1213.73,-248.8"/>
<polygon fill="midnightblue" stroke="midnightblue" points="1215.81,-251.64 1222.77,-243.65 1212.35,-245.55 1215.81,-251.64"/>
</g>
<!-- Node5&#45;&gt;Node6 -->
<g id="edge5" class="edge">
<title>Node5&#45;&gt;Node6</title>
<path fill="none" stroke="midnightblue" d="M953.99,-224.08C954.79,-216.93 955.93,-206.64 956.92,-197.69"/>
<polygon fill="midnightblue" stroke="midnightblue" points="960.4,-198.08 958.03,-187.75 953.44,-197.3 960.4,-198.08"/>
</g>
<!-- Node7 -->
<g id="node7" class="node">
<title>Node7</title>
<g id="a_node7"><a xlink:href="MVOptions_8h.html" target="_top" xlink:title=" ">
<polygon fill="none" stroke="black" points="1142.5,-112.5 1142.5,-131.5 1259.5,-131.5 1259.5,-112.5 1142.5,-112.5"/>
<text text-anchor="middle" x="1201" y="-119.5" font-family="Helvetica,sans-Serif" font-size="10.00">include/MVOptions.h</text>
</a>
</g>
</g>
<!-- Node6&#45;&gt;Node7 -->
<g id="edge6" class="edge">
<title>Node6&#45;&gt;Node7</title>
<path fill="none" stroke="midnightblue" d="M997.35,-168.44C1039.47,-159.04 1107.21,-143.93 1152.87,-133.74"/>
<polygon fill="midnightblue" stroke="midnightblue" points="1153.84,-137.11 1162.83,-131.52 1152.31,-130.28 1153.84,-137.11"/>
</g>
<!-- Node6&#45;&gt;Node10 -->
<g id="edge22" class="edge">
<title>Node6&#45;&gt;Node10</title>
<path fill="none" stroke="midnightblue" d="M915.85,-171.85C870.78,-165.62 798.47,-153.25 739,-132 721.03,-125.58 718.23,-120.21 701,-112 628.65,-77.55 541.51,-41.67 496.05,-23.36"/>
<polygon fill="midnightblue" stroke="midnightblue" points="497.32,-20.1 486.73,-19.62 494.71,-26.59 497.32,-20.1"/>
</g>
<!-- Node6&#45;&gt;Node16 -->
<g id="edge17" class="edge">
<title>Node6&#45;&gt;Node16</title>
<path fill="none" stroke="midnightblue" d="M915.99,-173.36C839.56,-166.71 674.82,-151.6 525.87,-132.19"/>
<polygon fill="midnightblue" stroke="midnightblue" points="526,-128.67 515.63,-130.84 525.09,-135.61 526,-128.67"/>
</g>
<!-- Node17 -->
<g id="node17" class="node">
<title>Node17</title>
<g id="a_node17"><a xlink:title=" ">
<polygon fill="none" stroke="#bfbfbf" points="748.5,-112.5 748.5,-131.5 893.5,-131.5 893.5,-112.5 748.5,-112.5"/>
<text text-anchor="middle" x="821" y="-119.5" font-family="Helvetica,sans-Serif" font-size="10.00">clang/Basic/LangOptions.h</text>
</a>
</g>
</g>
<!-- Node6&#45;&gt;Node17 -->
<g id="edge18" class="edge">
<title>Node6&#45;&gt;Node17</title>
<path fill="none" stroke="midnightblue" d="M937.13,-168.44C914.22,-159.48 878.02,-145.31 852.13,-135.18"/>
<polygon fill="midnightblue" stroke="midnightblue" points="853.35,-131.9 842.76,-131.52 850.8,-138.42 853.35,-131.9"/>
</g>
<!-- Node18 -->
<g id="node18" class="node">
<title>Node18</title>
<g id="a_node18"><a xlink:title=" ">
<polygon fill="none" stroke="#bfbfbf" points="533.5,-112.5 533.5,-131.5 692.5,-131.5 692.5,-112.5 533.5,-112.5"/>
<text text-anchor="middle" x="613" y="-119.5" font-family="Helvetica,sans-Serif" font-size="10.00">clang/Basic/SourceManager.h</text>
</a>
</g>
</g>
<!-- Node6&#45;&gt;Node18 -->
<g id="edge19" class="edge">
<title>Node6&#45;&gt;Node18</title>
<path fill="none" stroke="midnightblue" d="M915.88,-170.27C855.96,-160.92 747.07,-143.92 677.48,-133.06"/>
<polygon fill="midnightblue" stroke="midnightblue" points="677.93,-129.59 667.51,-131.51 676.85,-136.51 677.93,-129.59"/>
</g>
<!-- Node19 -->
<g id="node19" class="node">
<title>Node19</title>
<g id="a_node19"><a xlink:title=" ">
<polygon fill="none" stroke="#bfbfbf" points="911.5,-112.5 911.5,-131.5 1012.5,-131.5 1012.5,-112.5 911.5,-112.5"/>
<text text-anchor="middle" x="962" y="-119.5" font-family="Helvetica,sans-Serif" font-size="10.00">clang/Lex/Lexer.h</text>
</a>
</g>
</g>
<!-- Node6&#45;&gt;Node19 -->
<g id="edge20" class="edge">
<title>Node6&#45;&gt;Node19</title>
<path fill="none" stroke="midnightblue" d="M959.5,-168.08C959.89,-161.01 960.45,-150.86 960.95,-141.99"/>
<polygon fill="midnightblue" stroke="midnightblue" points="964.45,-141.93 961.51,-131.75 957.46,-141.54 964.45,-141.93"/>
</g>
<!-- Node20 -->
<g id="node20" class="node">
<title>Node20</title>
<g id="a_node20"><a xlink:title=" ">
<polygon fill="none" stroke="#bfbfbf" points="1030.5,-112.5 1030.5,-131.5 1085.5,-131.5 1085.5,-112.5 1030.5,-112.5"/>
<text text-anchor="middle" x="1058" y="-119.5" font-family="Helvetica,sans-Serif" font-size="10.00">fstream</text>
</a>
</g>
</g>
<!-- Node6&#45;&gt;Node20 -->
<g id="edge21" class="edge">
<title>Node6&#45;&gt;Node20</title>
<path fill="none" stroke="midnightblue" d="M974.91,-168.32C990.64,-159.74 1014.94,-146.49 1033.21,-136.52"/>
<polygon fill="midnightblue" stroke="midnightblue" points="1035.03,-139.52 1042.13,-131.65 1031.68,-133.37 1035.03,-139.52"/>
</g>
<!-- Node8 -->
<g id="node8" class="node">
<title>Node8</title>
<g id="a_node8"><a xlink:href="CPUID_8h.html" target="_top" xlink:title=" ">
<polygon fill="none" stroke="black" points="1342.5,-56.5 1342.5,-75.5 1437.5,-75.5 1437.5,-56.5 1342.5,-56.5"/>
<text text-anchor="middle" x="1390" y="-63.5" font-family="Helvetica,sans-Serif" font-size="10.00">include/CPUID.h</text>
</a>
</g>
</g>
<!-- Node7&#45;&gt;Node8 -->
<g id="edge7" class="edge">
<title>Node7&#45;&gt;Node8</title>
<path fill="none" stroke="midnightblue" d="M1230.95,-112.44C1263.16,-103.24 1314.53,-88.56 1350.14,-78.39"/>
<polygon fill="midnightblue" stroke="midnightblue" points="1351.54,-81.63 1360.19,-75.52 1349.62,-74.9 1351.54,-81.63"/>
</g>
<!-- Node9 -->
<g id="node9" class="node">
<title>Node9</title>
<g id="a_node9"><a xlink:title=" ">
<polygon fill="none" stroke="#bfbfbf" points="1434,-0.5 1434,-19.5 1498,-19.5 1498,-0.5 1434,-0.5"/>
<text text-anchor="middle" x="1466" y="-7.5" font-family="Helvetica,sans-Serif" font-size="10.00">algorithm</text>
</a>
</g>
</g>
<!-- Node7&#45;&gt;Node9 -->
<g id="edge12" class="edge">
<title>Node7&#45;&gt;Node9</title>
<path fill="none" stroke="midnightblue" d="M1259.76,-117.27C1323.59,-112.03 1420.07,-100.28 1447,-76 1459.94,-64.33 1464.27,-44.39 1465.61,-29.66"/>
<polygon fill="midnightblue" stroke="midnightblue" points="1469.11,-29.81 1466.16,-19.64 1462.12,-29.43 1469.11,-29.81"/>
</g>
<!-- Node7&#45;&gt;Node11 -->
<g id="edge16" class="edge">
<title>Node7&#45;&gt;Node11</title>
<path fill="none" stroke="midnightblue" d="M1195.7,-112.19C1188.69,-99.31 1178.19,-74.82 1187,-56 1193.04,-43.09 1204.81,-32.6 1215.82,-25"/>
<polygon fill="midnightblue" stroke="midnightblue" points="1217.83,-27.87 1224.37,-19.54 1214.06,-21.97 1217.83,-27.87"/>
</g>
<!-- Node13 -->
<g id="node13" class="node">
<title>Node13</title>
<g id="a_node13"><a xlink:title=" ">
<polygon fill="none" stroke="#bfbfbf" points="1196,-56.5 1196,-75.5 1248,-75.5 1248,-56.5 1196,-56.5"/>
<text text-anchor="middle" x="1222" y="-63.5" font-family="Helvetica,sans-Serif" font-size="10.00">cassert</text>
</a>
</g>
</g>
<!-- Node7&#45;&gt;Node13 -->
<g id="edge13" class="edge">
<title>Node7&#45;&gt;Node13</title>
<path fill="none" stroke="midnightblue" d="M1204.47,-112.08C1207.31,-104.77 1211.43,-94.18 1214.96,-85.1"/>
<polygon fill="midnightblue" stroke="midnightblue" points="1218.23,-86.34 1218.6,-75.75 1211.71,-83.8 1218.23,-86.34"/>
</g>
<!-- Node14 -->
<g id="node14" class="node">
<title>Node14</title>
<g id="a_node14"><a xlink:title=" ">
<polygon fill="none" stroke="#bfbfbf" points="1098,-56.5 1098,-75.5 1130,-75.5 1130,-56.5 1098,-56.5"/>
<text text-anchor="middle" x="1114" y="-63.5" font-family="Helvetica,sans-Serif" font-size="10.00">list</text>
</a>
</g>
</g>
<!-- Node7&#45;&gt;Node14 -->
<g id="edge14" class="edge">
<title>Node7&#45;&gt;Node14</title>
<path fill="none" stroke="midnightblue" d="M1187.02,-112.32C1173.45,-103.9 1152.62,-90.97 1136.68,-81.07"/>
<polygon fill="midnightblue" stroke="midnightblue" points="1138.29,-77.95 1127.94,-75.65 1134.59,-83.9 1138.29,-77.95"/>
</g>
<!-- Node15 -->
<g id="node15" class="node">
<title>Node15</title>
<g id="a_node15"><a xlink:title=" ">
<polygon fill="none" stroke="#bfbfbf" points="1532,-56.5 1532,-75.5 1570,-75.5 1570,-56.5 1532,-56.5"/>
<text text-anchor="middle" x="1551" y="-63.5" font-family="Helvetica,sans-Serif" font-size="10.00">map</text>
</a>
</g>
</g>
<!-- Node7&#45;&gt;Node15 -->
<g id="edge15" class="edge">
<title>Node7&#45;&gt;Node15</title>
<path fill="none" stroke="midnightblue" d="M1256.46,-112.44C1331.76,-100.82 1463.64,-80.48 1521.91,-71.49"/>
<polygon fill="midnightblue" stroke="midnightblue" points="1522.55,-74.93 1531.9,-69.95 1521.49,-68.01 1522.55,-74.93"/>
</g>
<!-- Node8&#45;&gt;Node9 -->
<g id="edge8" class="edge">
<title>Node8&#45;&gt;Node9</title>
<path fill="none" stroke="midnightblue" d="M1402.21,-56.32C1413.78,-48.11 1431.38,-35.6 1445.16,-25.81"/>
<polygon fill="midnightblue" stroke="midnightblue" points="1447.44,-28.48 1453.57,-19.83 1443.39,-22.77 1447.44,-28.48"/>
</g>
<!-- Node8&#45;&gt;Node10 -->
<g id="edge9" class="edge">
<title>Node8&#45;&gt;Node10</title>
<path fill="none" stroke="midnightblue" d="M1342.47,-60.38C1325.88,-58.85 1307.13,-57.24 1290,-56 988.98,-34.25 625.49,-17.86 505.55,-12.7"/>
<polygon fill="midnightblue" stroke="midnightblue" points="505.5,-9.2 495.36,-12.27 505.21,-16.19 505.5,-9.2"/>
</g>
<!-- Node8&#45;&gt;Node11 -->
<g id="edge10" class="edge">
<title>Node8&#45;&gt;Node11</title>
<path fill="none" stroke="midnightblue" d="M1366.39,-56.44C1341.1,-47.28 1300.83,-32.68 1272.78,-22.52"/>
<polygon fill="midnightblue" stroke="midnightblue" points="1273.64,-19.11 1263.04,-18.99 1271.25,-25.69 1273.64,-19.11"/>
</g>
<!-- Node12 -->
<g id="node12" class="node">
<title>Node12</title>
<g id="a_node12"><a xlink:title=" ">
<polygon fill="none" stroke="#bfbfbf" points="1362.5,-0.5 1362.5,-19.5 1415.5,-19.5 1415.5,-0.5 1362.5,-0.5"/>
<text text-anchor="middle" x="1389" y="-7.5" font-family="Helvetica,sans-Serif" font-size="10.00">stdint.h</text>
</a>
</g>
</g>
<!-- Node8&#45;&gt;Node12 -->
<g id="edge11" class="edge">
<title>Node8&#45;&gt;Node12</title>
<path fill="none" stroke="midnightblue" d="M1389.83,-56.08C1389.7,-49.01 1389.52,-38.86 1389.35,-29.99"/>
<polygon fill="midnightblue" stroke="midnightblue" points="1392.85,-29.68 1389.16,-19.75 1385.85,-29.81 1392.85,-29.68"/>
</g>
<!-- Node21&#45;&gt;Node11 -->
<g id="edge25" class="edge">
<title>Node21&#45;&gt;Node11</title>
<path fill="none" stroke="midnightblue" d="M1513.51,-224.39C1511.39,-195.63 1500.48,-102.15 1447,-56 1421.32,-33.84 1324.87,-20.18 1273.57,-14.33"/>
<polygon fill="midnightblue" stroke="midnightblue" points="1273.67,-10.82 1263.35,-13.2 1272.9,-17.78 1273.67,-10.82"/>
</g>
<!-- Node21&#45;&gt;Node15 -->
<g id="edge24" class="edge">
<title>Node21&#45;&gt;Node15</title>
<path fill="none" stroke="midnightblue" d="M1515.99,-224.08C1521.81,-197.95 1538.92,-121.21 1546.86,-85.58"/>
<polygon fill="midnightblue" stroke="midnightblue" points="1550.33,-86.09 1549.09,-75.57 1543.5,-84.57 1550.33,-86.09"/>
</g>
<!-- Node25&#45;&gt;Node4 -->
<g id="edge34" class="edge">
<title>Node25&#45;&gt;Node4</title>
<path fill="none" stroke="midnightblue" d="M1039.48,-403.25C1050.59,-394.57 1067.65,-380.62 1081,-367 1099.54,-348.1 1118.43,-324.12 1130.4,-308.21"/>
<polygon fill="midnightblue" stroke="midnightblue" points="1133.45,-309.98 1136.6,-299.87 1127.83,-305.81 1133.45,-309.98"/>
</g>
<!-- Node26&#45;&gt;Node4 -->
<g id="edge36" class="edge">
<title>Node26&#45;&gt;Node4</title>
<path fill="none" stroke="midnightblue" d="M1239.36,-403.19C1229.09,-394.46 1213.3,-380.48 1201,-367 1183.6,-347.94 1165.94,-324 1154.76,-308.13"/>
<polygon fill="midnightblue" stroke="midnightblue" points="1157.56,-306.03 1148.97,-299.83 1151.81,-310.03 1157.56,-306.03"/>
</g>
<!-- Node27 -->
<g id="node27" class="node">
<title>Node27</title>
<g id="a_node27"><a xlink:title=" ">
<polygon fill="none" stroke="#bfbfbf" points="1209.5,-342 1209.5,-361 1302.5,-361 1302.5,-342 1209.5,-342"/>
<text text-anchor="middle" x="1256" y="-349" font-family="Helvetica,sans-Serif" font-size="10.00">unordered_map</text>
</a>
</g>
</g>
<!-- Node26&#45;&gt;Node27 -->
<g id="edge37" class="edge">
<title>Node26&#45;&gt;Node27</title>
<path fill="none" stroke="midnightblue" d="M1250.86,-403.48C1251.71,-395.08 1253.03,-381.98 1254.12,-371.16"/>
<polygon fill="midnightblue" stroke="midnightblue" points="1257.62,-371.31 1255.14,-361.01 1250.66,-370.61 1257.62,-371.31"/>
</g>
<!-- Node28&#45;&gt;Node4 -->
<g id="edge39" class="edge">
<title>Node28&#45;&gt;Node4</title>
<path fill="none" stroke="midnightblue" d="M735.27,-408.54C826.65,-402.9 989.05,-389.96 1043,-367 1063.06,-358.47 1063.73,-349.3 1081,-336 1094.57,-325.55 1110.17,-314.23 1122.33,-305.56"/>
<polygon fill="midnightblue" stroke="midnightblue" points="1124.37,-308.4 1130.5,-299.76 1120.32,-302.7 1124.37,-308.4"/>
</g>
<!-- Node28&#45;&gt;Node6 -->
<g id="edge62" class="edge">
<title>Node28&#45;&gt;Node6</title>
<path fill="none" stroke="midnightblue" d="M735.14,-407.99C828.37,-401.49 992.2,-387.32 1010,-367 1023.95,-351.08 1057.93,-332.57 1009,-224 1003.38,-211.52 992.42,-201.04 982.2,-193.34"/>
<polygon fill="midnightblue" stroke="midnightblue" points="984.12,-190.41 973.92,-187.54 980.1,-196.14 984.12,-190.41"/>
</g>
<!-- Node28&#45;&gt;Node16 -->
<g id="edge63" class="edge">
<title>Node28&#45;&gt;Node16</title>
<path fill="none" stroke="midnightblue" d="M606.76,-404.35C579.36,-398.19 548.75,-387.07 527,-367 461.75,-306.78 462.99,-187.87 466.21,-141.83"/>
<polygon fill="midnightblue" stroke="midnightblue" points="469.71,-142.02 467.04,-131.77 462.73,-141.45 469.71,-142.02"/>
</g>
<!-- Node28&#45;&gt;Node22 -->
<g id="edge64" class="edge">
<title>Node28&#45;&gt;Node22</title>
<path fill="none" stroke="midnightblue" d="M606.94,-409.09C533.5,-404.61 409.97,-393.54 307,-367 229.56,-347.04 206.4,-344.58 140,-300 120.12,-286.65 101.59,-266.17 89.84,-251.77"/>
<polygon fill="midnightblue" stroke="midnightblue" points="92.4,-249.37 83.45,-243.71 86.92,-253.72 92.4,-249.37"/>
</g>
<!-- Node29 -->
<g id="node29" class="node">
<title>Node29</title>
<g id="a_node29"><a xlink:href="MVPragmaHandler_8h.html" target="_top" xlink:title=" ">
<polygon fill="none" stroke="black" points="509.5,-280.5 509.5,-299.5 664.5,-299.5 664.5,-280.5 509.5,-280.5"/>
<text text-anchor="middle" x="587" y="-287.5" font-family="Helvetica,sans-Serif" font-size="10.00">include/MVPragmaHandler.h</text>
</a>
</g>
</g>
<!-- Node28&#45;&gt;Node29 -->
<g id="edge40" class="edge">
<title>Node28&#45;&gt;Node29</title>
<path fill="none" stroke="midnightblue" d="M606.97,-406.76C580.54,-401.07 552.32,-389.65 536,-367 527.94,-355.82 530.33,-348.56 536,-336 541.62,-323.56 552.56,-313.17 562.88,-305.53"/>
<polygon fill="midnightblue" stroke="midnightblue" points="565.01,-308.31 571.27,-299.76 561.04,-302.54 565.01,-308.31"/>
</g>
<!-- Node28&#45;&gt;Node35 -->
<g id="edge51" class="edge">
<title>Node28&#45;&gt;Node35</title>
<path fill="none" stroke="midnightblue" d="M626.15,-403.48C568.95,-392.6 470.21,-373.83 409.84,-362.35"/>
<polygon fill="midnightblue" stroke="midnightblue" points="410.24,-358.87 399.76,-360.44 408.93,-365.74 410.24,-358.87"/>
</g>
<!-- Node37 -->
<g id="node37" class="node">
<title>Node37</title>
<g id="a_node37"><a xlink:title=" ">
<polygon fill="none" stroke="#bfbfbf" points="545,-342 545,-361 645,-361 645,-342 545,-342"/>
<text text-anchor="middle" x="595" y="-349" font-family="Helvetica,sans-Serif" font-size="10.00">clang/AST/Stmt.h</text>
</a>
</g>
</g>
<!-- Node28&#45;&gt;Node37 -->
<g id="edge65" class="edge">
<title>Node28&#45;&gt;Node37</title>
<path fill="none" stroke="midnightblue" d="M660.11,-403.48C648.03,-394.02 628.33,-378.6 613.76,-367.19"/>
<polygon fill="midnightblue" stroke="midnightblue" points="615.9,-364.42 605.87,-361.01 611.59,-369.93 615.9,-364.42"/>
</g>
<!-- Node38 -->
<g id="node38" class="node">
<title>Node38</title>
<g id="a_node38"><a xlink:title=" ">
<polygon fill="none" stroke="#bfbfbf" points="663.5,-336.5 663.5,-366.5 824.5,-366.5 824.5,-336.5 663.5,-336.5"/>
<text text-anchor="start" x="671.5" y="-354.5" font-family="Helvetica,sans-Serif" font-size="10.00">clang/ASTMatchers/ASTMatch</text>
<text text-anchor="middle" x="744" y="-343.5" font-family="Helvetica,sans-Serif" font-size="10.00">Finder.h</text>
</a>
</g>
</g>
<!-- Node28&#45;&gt;Node38 -->
<g id="edge66" class="edge">
<title>Node28&#45;&gt;Node38</title>
<path fill="none" stroke="midnightblue" d="M681.46,-403.48C691.16,-395.57 705.99,-383.48 718.77,-373.07"/>
<polygon fill="midnightblue" stroke="midnightblue" points="721.26,-375.55 726.8,-366.52 716.83,-370.13 721.26,-375.55"/>
</g>
<!-- Node39 -->
<g id="node39" class="node">
<title>Node39</title>
<g id="a_node39"><a xlink:title=" ">
<polygon fill="none" stroke="#bfbfbf" points="843,-342 843,-361 1001,-361 1001,-342 843,-342"/>
<text text-anchor="middle" x="922" y="-349" font-family="Helvetica,sans-Serif" font-size="10.00">clang/Basic/SourceLocation.h</text>
</a>
</g>
</g>
<!-- Node28&#45;&gt;Node39 -->
<g id="edge67" class="edge">
<title>Node28&#45;&gt;Node39</title>
<path fill="none" stroke="midnightblue" d="M706.96,-403.48C751.51,-392.92 827.46,-374.91 876.15,-363.37"/>
<polygon fill="midnightblue" stroke="midnightblue" points="877.18,-366.72 886.1,-361.01 875.57,-359.91 877.18,-366.72"/>
</g>
<!-- Node29&#45;&gt;Node5 -->
<g id="edge41" class="edge">
<title>Node29&#45;&gt;Node5</title>
<path fill="none" stroke="midnightblue" d="M647.14,-280.46C707.24,-271.88 802.58,-258.12 895.3,-244.09"/>
<polygon fill="midnightblue" stroke="midnightblue" points="896.06,-247.52 905.42,-242.56 895.01,-240.59 896.06,-247.52"/>
</g>
<!-- Node29&#45;&gt;Node10 -->
<g id="edge49" class="edge">
<title>Node29&#45;&gt;Node10</title>
<path fill="none" stroke="midnightblue" d="M569.63,-280.46C531.68,-260.66 442.26,-207.47 411,-132 395.32,-94.14 427.6,-50.39 448.7,-27.27"/>
<polygon fill="midnightblue" stroke="midnightblue" points="451.5,-29.4 455.85,-19.74 446.43,-24.58 451.5,-29.4"/>
</g>
<!-- Node29&#45;&gt;Node18 -->
<g id="edge47" class="edge">
<title>Node29&#45;&gt;Node18</title>
<path fill="none" stroke="midnightblue" d="M568.61,-280.47C554.9,-273 537.19,-260.71 529,-244 525.09,-236.02 525.98,-232.36 529,-224 541.95,-188.18 573.75,-156.12 594.29,-138.15"/>
<polygon fill="midnightblue" stroke="midnightblue" points="596.71,-140.69 602.07,-131.55 592.18,-135.35 596.71,-140.69"/>
</g>
<!-- Node30 -->
<g id="node30" class="node">
<title>Node30</title>
<g id="a_node30"><a xlink:href="MVAssert_8h.html" target="_top" xlink:title=" ">
<polygon fill="none" stroke="black" points="182,-224.5 182,-243.5 292,-243.5 292,-224.5 182,-224.5"/>
<text text-anchor="middle" x="237" y="-231.5" font-family="Helvetica,sans-Serif" font-size="10.00">include/MVAssert.h</text>
</a>
</g>
</g>
<!-- Node29&#45;&gt;Node30 -->
<g id="edge42" class="edge">
<title>Node29&#45;&gt;Node30</title>
<path fill="none" stroke="midnightblue" d="M531.54,-280.44C469.33,-270.85 368.52,-255.29 302.49,-245.1"/>
<polygon fill="midnightblue" stroke="midnightblue" points="302.62,-241.58 292.2,-243.52 301.55,-248.5 302.62,-241.58"/>
</g>
<!-- Node32 -->
<g id="node32" class="node">
<title>Node32</title>
<g id="a_node32"><a xlink:title=" ">
<polygon fill="none" stroke="#bfbfbf" points="538.5,-224.5 538.5,-243.5 691.5,-243.5 691.5,-224.5 538.5,-224.5"/>
<text text-anchor="middle" x="615" y="-231.5" font-family="Helvetica,sans-Serif" font-size="10.00">clang/Basic/IdentifierTable.h</text>
</a>
</g>
</g>
<!-- Node29&#45;&gt;Node32 -->
<g id="edge46" class="edge">
<title>Node29&#45;&gt;Node32</title>
<path fill="none" stroke="midnightblue" d="M591.62,-280.08C595.46,-272.69 601.02,-261.95 605.76,-252.81"/>
<polygon fill="midnightblue" stroke="midnightblue" points="608.97,-254.24 610.46,-243.75 602.75,-251.02 608.97,-254.24"/>
</g>
<!-- Node33 -->
<g id="node33" class="node">
<title>Node33</title>
<g id="a_node33"><a xlink:title=" ">
<polygon fill="none" stroke="#bfbfbf" points="709.5,-224.5 709.5,-243.5 822.5,-243.5 822.5,-224.5 709.5,-224.5"/>
<text text-anchor="middle" x="766" y="-231.5" font-family="Helvetica,sans-Serif" font-size="10.00">clang/Parse/Parser.h</text>
</a>
</g>
</g>
<!-- Node29&#45;&gt;Node33 -->
<g id="edge48" class="edge">
<title>Node29&#45;&gt;Node33</title>
<path fill="none" stroke="midnightblue" d="M615.36,-280.44C645.74,-271.28 694.11,-256.69 727.82,-246.52"/>
<polygon fill="midnightblue" stroke="midnightblue" points="729.21,-249.76 737.77,-243.52 727.18,-243.05 729.21,-249.76"/>
</g>
<!-- Node34 -->
<g id="node34" class="node">
<title>Node34</title>
<g id="a_node34"><a xlink:title=" ">
<polygon fill="none" stroke="#bfbfbf" points="840.5,-224.5 840.5,-243.5 887.5,-243.5 887.5,-224.5 840.5,-224.5"/>
<text text-anchor="middle" x="864" y="-231.5" font-family="Helvetica,sans-Serif" font-size="10.00">vector</text>
</a>
</g>
</g>
<!-- Node29&#45;&gt;Node34 -->
<g id="edge50" class="edge">
<title>Node29&#45;&gt;Node34</title>
<path fill="none" stroke="midnightblue" d="M640.57,-280.45C687.96,-272.59 759.16,-260.04 830.24,-244.01"/>
<polygon fill="midnightblue" stroke="midnightblue" points="831.29,-247.36 840.27,-241.73 829.74,-240.54 831.29,-247.36"/>
</g>
<!-- Node30&#45;&gt;Node10 -->
<g id="edge43" class="edge">
<title>Node30&#45;&gt;Node10</title>
<path fill="none" stroke="midnightblue" d="M221.22,-224.36C202.02,-212.62 173.49,-190.52 185,-168 232.31,-75.44 359.32,-34.41 424.78,-18.96"/>
<polygon fill="midnightblue" stroke="midnightblue" points="425.76,-22.33 434.73,-16.7 424.2,-15.5 425.76,-22.33"/>
</g>
<!-- Node30&#45;&gt;Node11 -->
<g id="edge45" class="edge">
<title>Node30&#45;&gt;Node11</title>
<path fill="none" stroke="midnightblue" d="M241.85,-224.41C246.93,-215.37 255.11,-200.73 262,-188 280.16,-154.43 271.3,-134.68 302,-112 410.04,-32.18 465.78,-73.17 599,-56 831.61,-26.02 1114.4,-14.95 1208.68,-11.94"/>
<polygon fill="midnightblue" stroke="midnightblue" points="1208.85,-15.43 1218.73,-11.62 1208.63,-8.44 1208.85,-15.43"/>
</g>
<!-- Node31 -->
<g id="node31" class="node">
<title>Node31</title>
<g id="a_node31"><a xlink:title=" ">
<polygon fill="none" stroke="#bfbfbf" points="194.5,-168.5 194.5,-187.5 253.5,-187.5 253.5,-168.5 194.5,-168.5"/>
<text text-anchor="middle" x="224" y="-175.5" font-family="Helvetica,sans-Serif" font-size="10.00">setjmp.h</text>
</a>
</g>
</g>
<!-- Node30&#45;&gt;Node31 -->
<g id="edge44" class="edge">
<title>Node30&#45;&gt;Node31</title>
<path fill="none" stroke="midnightblue" d="M234.85,-224.08C233.13,-216.93 230.65,-206.64 228.5,-197.69"/>
<polygon fill="midnightblue" stroke="midnightblue" points="231.85,-196.65 226.11,-187.75 225.04,-198.29 231.85,-196.65"/>
</g>
<!-- Node35&#45;&gt;Node4 -->
<g id="edge53" class="edge">
<title>Node35&#45;&gt;Node4</title>
<path fill="none" stroke="midnightblue" d="M399.71,-347.02C435.78,-344.02 489.32,-339.63 536,-336 724.43,-321.34 945.84,-305.2 1062.18,-296.8"/>
<polygon fill="midnightblue" stroke="midnightblue" points="1062.7,-300.27 1072.43,-296.06 1062.2,-293.29 1062.7,-300.27"/>
</g>
<!-- Node35&#45;&gt;Node5 -->
<g id="edge52" class="edge">
<title>Node35&#45;&gt;Node5</title>
<path fill="none" stroke="midnightblue" d="M399.69,-344.75C460.15,-336.21 575.57,-319.09 673,-300 757.37,-283.47 854.99,-259.75 909.82,-246"/>
<polygon fill="midnightblue" stroke="midnightblue" points="910.7,-249.39 919.54,-243.56 908.99,-242.6 910.7,-249.39"/>
</g>
<!-- Node35&#45;&gt;Node6 -->
<g id="edge57" class="edge">
<title>Node35&#45;&gt;Node6</title>
<path fill="none" stroke="midnightblue" d="M366.23,-341.76C389.26,-317.94 457.4,-251.82 529,-224 596.49,-197.78 806.46,-185.52 905.84,-181.07"/>
<polygon fill="midnightblue" stroke="midnightblue" points="906.13,-184.56 915.96,-180.63 905.82,-177.57 906.13,-184.56"/>
</g>
<!-- Node35&#45;&gt;Node10 -->
<g id="edge59" class="edge">
<title>Node35&#45;&gt;Node10</title>
<path fill="none" stroke="midnightblue" d="M316.23,-345.97C221.8,-334.57 0,-300.8 0,-235 0,-235 0,-235 0,-121 0,-34.11 311.39,-15.76 424.54,-11.97"/>
<polygon fill="midnightblue" stroke="midnightblue" points="424.96,-15.46 434.85,-11.64 424.74,-8.46 424.96,-15.46"/>
</g>
<!-- Node35&#45;&gt;Node11 -->
<g id="edge61" class="edge">
<title>Node35&#45;&gt;Node11</title>
<path fill="none" stroke="midnightblue" d="M355.5,-341.85C345.64,-305.66 313.54,-165.84 389,-112 457.09,-63.41 1061.67,-22.33 1208.82,-12.99"/>
<polygon fill="midnightblue" stroke="midnightblue" points="1209.23,-16.47 1218.99,-12.35 1208.79,-9.48 1209.23,-16.47"/>
</g>
<!-- Node35&#45;&gt;Node14 -->
<g id="edge60" class="edge">
<title>Node35&#45;&gt;Node14</title>
<path fill="none" stroke="midnightblue" d="M356.71,-341.76C352.03,-306.41 339.79,-172.96 411,-112 463.2,-67.31 965.52,-66.41 1087.44,-66.85"/>
<polygon fill="midnightblue" stroke="midnightblue" points="1087.7,-70.35 1097.72,-66.89 1087.73,-63.35 1087.7,-70.35"/>
</g>
<!-- Node35&#45;&gt;Node16 -->
<g id="edge58" class="edge">
<title>Node35&#45;&gt;Node16</title>
<path fill="none" stroke="midnightblue" d="M316.13,-344.19C268.97,-336.18 196.6,-320.85 179,-300 141.11,-255.13 142.38,-208.4 185,-168 216.59,-138.05 337.26,-128.02 410.44,-124.67"/>
<polygon fill="midnightblue" stroke="midnightblue" points="410.6,-128.17 420.44,-124.24 410.3,-121.17 410.6,-128.17"/>
</g>
<!-- Node36 -->
<g id="node36" class="node">
<title>Node36</title>
<g id="a_node36"><a xlink:href="MVOps_8h.html" target="_top" xlink:title=" ">
<polygon fill="none" stroke="black" points="188,-280.5 188,-299.5 286,-299.5 286,-280.5 188,-280.5"/>
<text text-anchor="middle" x="237" y="-287.5" font-family="Helvetica,sans-Serif" font-size="10.00">include/MVOps.h</text>
</a>
</g>
</g>
<!-- Node35&#45;&gt;Node36 -->
<g id="edge54" class="edge">
<title>Node35&#45;&gt;Node36</title>
<path fill="none" stroke="midnightblue" d="M340.66,-341.98C320.45,-332.03 286.81,-315.49 263.36,-303.96"/>
<polygon fill="midnightblue" stroke="midnightblue" points="264.82,-300.78 254.3,-299.51 261.73,-307.06 264.82,-300.78"/>
</g>
<!-- Node36&#45;&gt;Node22 -->
<g id="edge56" class="edge">
<title>Node36&#45;&gt;Node22</title>
<path fill="none" stroke="midnightblue" d="M211.65,-280.44C184.73,-271.36 142,-256.94 111.91,-246.78"/>
<polygon fill="midnightblue" stroke="midnightblue" points="112.83,-243.4 102.23,-243.52 110.59,-250.03 112.83,-243.4"/>
</g>
<!-- Node36&#45;&gt;Node30 -->
<g id="edge55" class="edge">
<title>Node36&#45;&gt;Node30</title>
<path fill="none" stroke="midnightblue" d="M237,-280.08C237,-273.01 237,-262.86 237,-253.99"/>
<polygon fill="midnightblue" stroke="midnightblue" points="240.5,-253.75 237,-243.75 233.5,-253.75 240.5,-253.75"/>
</g>
<!-- Node40&#45;&gt;Node6 -->
<g id="edge72" class="edge">
<title>Node40&#45;&gt;Node6</title>
<path fill="none" stroke="midnightblue" d="M1652.85,-227.22C1492.76,-216.09 1145.79,-191.98 1012.57,-182.72"/>
<polygon fill="midnightblue" stroke="midnightblue" points="1012.45,-179.21 1002.23,-182 1011.96,-186.19 1012.45,-179.21"/>
</g>
<!-- Node40&#45;&gt;Node14 -->
<g id="edge73" class="edge">
<title>Node40&#45;&gt;Node14</title>
<path fill="none" stroke="midnightblue" d="M1723.88,-224.28C1701.08,-208.08 1652.39,-174.37 1633,-168 1527.17,-133.23 1219.68,-201.97 1133,-132 1119.44,-121.05 1115.21,-100.99 1114.06,-86.04"/>
<polygon fill="midnightblue" stroke="midnightblue" points="1117.55,-85.7 1113.67,-75.84 1110.55,-85.97 1117.55,-85.7"/>
</g>
<!-- Node40&#45;&gt;Node15 -->
<g id="edge74" class="edge">
<title>Node40&#45;&gt;Node15</title>
<path fill="none" stroke="midnightblue" d="M1740.52,-224.29C1746.67,-211.1 1755.76,-185.73 1745,-168 1708.8,-108.34 1624.6,-82.29 1579.97,-72.34"/>
<polygon fill="midnightblue" stroke="midnightblue" points="1580.55,-68.88 1570.05,-70.24 1579.11,-75.73 1580.55,-68.88"/>
</g>
<!-- Node41 -->
<g id="node41" class="node">
<title>Node41</title>
<g id="a_node41"><a xlink:title=" ">
<polygon fill="none" stroke="#bfbfbf" points="1680,-168.5 1680,-187.5 1736,-187.5 1736,-168.5 1680,-168.5"/>
<text text-anchor="middle" x="1708" y="-175.5" font-family="Helvetica,sans-Serif" font-size="10.00">sstream</text>
</a>
</g>
</g>
<!-- Node40&#45;&gt;Node41 -->
<g id="edge75" class="edge">
<title>Node40&#45;&gt;Node41</title>
<path fill="none" stroke="midnightblue" d="M1731.38,-224.08C1727.54,-216.69 1721.98,-205.95 1717.24,-196.81"/>
<polygon fill="midnightblue" stroke="midnightblue" points="1720.25,-195.02 1712.54,-187.75 1714.03,-198.24 1720.25,-195.02"/>
</g>
<!-- Node42 -->
<g id="node42" class="node">
<title>Node42</title>
<g id="a_node42"><a xlink:title=" ">
<polygon fill="none" stroke="#bfbfbf" points="1570.5,-168.5 1570.5,-187.5 1623.5,-187.5 1623.5,-168.5 1570.5,-168.5"/>
<text text-anchor="middle" x="1597" y="-175.5" font-family="Helvetica,sans-Serif" font-size="10.00">string.h</text>
</a>
</g>
</g>
<!-- Node40&#45;&gt;Node42 -->
<g id="edge76" class="edge">
<title>Node40&#45;&gt;Node42</title>
<path fill="none" stroke="midnightblue" d="M1713.98,-224.44C1690.9,-215.48 1654.44,-201.31 1628.36,-191.18"/>
<polygon fill="midnightblue" stroke="midnightblue" points="1629.51,-187.88 1618.92,-187.52 1626.98,-194.4 1629.51,-187.88"/>
</g>
<!-- Node44&#45;&gt;Node3 -->
<g id="edge85" class="edge">
<title>Node44&#45;&gt;Node3</title>
<path fill="none" stroke="midnightblue" d="M1436.25,-521.9C1344.76,-510.27 1171.26,-488.21 1082.82,-476.97"/>
<polygon fill="midnightblue" stroke="midnightblue" points="1083.08,-473.48 1072.72,-475.69 1082.2,-480.42 1083.08,-473.48"/>
</g>
<!-- Node44&#45;&gt;Node21 -->
<g id="edge80" class="edge">
<title>Node44&#45;&gt;Node21</title>
<path fill="none" stroke="midnightblue" d="M1499.84,-515.4C1505.4,-493.76 1515,-450.99 1515,-414 1515,-414 1515,-414 1515,-350.5 1515,-316.36 1514.56,-276.55 1514.26,-253.71"/>
<polygon fill="midnightblue" stroke="midnightblue" points="1517.76,-253.65 1514.13,-243.69 1510.76,-253.74 1517.76,-253.65"/>
</g>
<!-- Node45 -->
<g id="node45" class="node">
<title>Node45</title>
<g id="a_node45"><a xlink:href="MVExprArray_8h.html" target="_top" xlink:title=" ">
<polygon fill="none" stroke="black" points="1320.5,-342 1320.5,-361 1487.5,-361 1487.5,-342 1320.5,-342"/>
<text text-anchor="middle" x="1404" y="-349" font-family="Helvetica,sans-Serif" font-size="10.00">include/MVExpr/MVExprArray.h</text>
</a>
</g>
</g>
<!-- Node44&#45;&gt;Node45 -->
<g id="edge81" class="edge">
<title>Node44&#45;&gt;Node45</title>
<path fill="none" stroke="midnightblue" d="M1488.63,-515.31C1472.02,-483.36 1431.69,-405.78 1413.36,-370.5"/>
<polygon fill="midnightblue" stroke="midnightblue" points="1416.33,-368.63 1408.61,-361.37 1410.12,-371.86 1416.33,-368.63"/>
</g>
<!-- Node45&#45;&gt;Node4 -->
<g id="edge82" class="edge">
<title>Node45&#45;&gt;Node4</title>
<path fill="none" stroke="midnightblue" d="M1366.61,-341.98C1320.19,-331.39 1240.98,-313.34 1190.36,-301.8"/>
<polygon fill="midnightblue" stroke="midnightblue" points="1190.85,-298.32 1180.33,-299.51 1189.3,-305.14 1190.85,-298.32"/>
</g>
<!-- Node45&#45;&gt;Node23 -->
<g id="edge83" class="edge">
<title>Node45&#45;&gt;Node23</title>
<path fill="none" stroke="midnightblue" d="M1399.87,-341.82C1390.91,-323.01 1369.55,-278.15 1357.55,-252.96"/>
<polygon fill="midnightblue" stroke="midnightblue" points="1360.64,-251.31 1353.18,-243.78 1354.32,-254.32 1360.64,-251.31"/>
</g>
<!-- Node45&#45;&gt;Node42 -->
<g id="edge84" class="edge">
<title>Node45&#45;&gt;Node42</title>
<path fill="none" stroke="midnightblue" d="M1445.71,-341.95C1493.99,-329.57 1571.29,-301.54 1606,-244 1614.53,-229.85 1610.51,-210.87 1605.42,-197.08"/>
<polygon fill="midnightblue" stroke="midnightblue" points="1608.59,-195.58 1601.51,-187.7 1602.13,-198.28 1608.59,-195.58"/>
</g>
</g>
</svg>
