<?xml version="1.0" encoding="UTF-8" standalone="no"?>
<!DOCTYPE svg PUBLIC "-//W3C//DTD SVG 1.1//EN"
 "http://www.w3.org/Graphics/SVG/1.1/DTD/svg11.dtd">
<!-- Generated by graphviz version 2.43.0 (0)
 -->
<!-- Title: MACVETH/include/Vectorization/SIMD/SIMDBackEnd.h Pages: 1 -->
<svg width="684pt" height="229pt"
 viewBox="0.00 0.00 684.00 229.00" xmlns="http://www.w3.org/2000/svg" xmlns:xlink="http://www.w3.org/1999/xlink">
<g id="graph0" class="graph" transform="scale(1 1) rotate(0) translate(4 225)">
<title>MACVETH/include/Vectorization/SIMD/SIMDBackEnd.h</title>
<!-- Node1 -->
<g id="node1" class="node">
<title>Node1</title>
<g id="a_node1"><a xlink:title=" ">
<polygon fill="#bfbfbf" stroke="black" points="204,-190.5 204,-220.5 374,-220.5 374,-190.5 204,-190.5"/>
<text text-anchor="start" x="212" y="-208.5" font-family="Helvetica,sans-Serif" font-size="10.00">MACVETH/include/Vectorization</text>
<text text-anchor="middle" x="289" y="-197.5" font-family="Helvetica,sans-Serif" font-size="10.00">/SIMD/SIMDBackEnd.h</text>
</a>
</g>
</g>
<!-- Node2 -->
<g id="node2" class="node">
<title>Node2</title>
<g id="a_node2"><a xlink:href="MVCostModel_8h.html" target="_top" xlink:title=" ">
<polygon fill="none" stroke="black" points="0,-56.5 0,-86.5 158,-86.5 158,-56.5 0,-56.5"/>
<text text-anchor="start" x="8" y="-74.5" font-family="Helvetica,sans-Serif" font-size="10.00">MACVETH/include/CostModel</text>
<text text-anchor="middle" x="79" y="-63.5" font-family="Helvetica,sans-Serif" font-size="10.00">/MVCostModel.h</text>
</a>
</g>
</g>
<!-- Node1&#45;&gt;Node2 -->
<g id="edge1" class="edge">
<title>Node1&#45;&gt;Node2</title>
<path fill="none" stroke="midnightblue" d="M193.83,-197.77C131.07,-191.13 56.9,-178.28 37,-154 19.75,-132.95 44.28,-103.66 62.48,-86.53"/>
<polygon fill="midnightblue" stroke="midnightblue" points="193.49,-201.26 203.79,-198.79 194.2,-194.29 193.49,-201.26"/>
</g>
<!-- Node3 -->
<g id="node3" class="node">
<title>Node3</title>
<g id="a_node3"><a xlink:href="SIMDCostInfo_8h.html" target="_top" xlink:title=" ">
<polygon fill="none" stroke="black" points="46,-123.5 46,-153.5 204,-153.5 204,-123.5 46,-123.5"/>
<text text-anchor="start" x="54" y="-141.5" font-family="Helvetica,sans-Serif" font-size="10.00">MACVETH/include/CostModel</text>
<text text-anchor="middle" x="125" y="-130.5" font-family="Helvetica,sans-Serif" font-size="10.00">/SIMDCostInfo.h</text>
</a>
</g>
</g>
<!-- Node1&#45;&gt;Node3 -->
<g id="edge2" class="edge">
<title>Node1&#45;&gt;Node3</title>
<path fill="none" stroke="midnightblue" d="M244.04,-186.68C217.74,-176.26 185,-163.28 160.52,-153.58"/>
<polygon fill="midnightblue" stroke="midnightblue" points="242.83,-189.97 253.41,-190.4 245.41,-183.46 242.83,-189.97"/>
</g>
<!-- Node4 -->
<g id="node4" class="node">
<title>Node4</title>
<g id="a_node4"><a xlink:href="MVFrontend_8h.html" target="_top" xlink:title=" ">
<polygon fill="none" stroke="black" points="191,-62 191,-81 365,-81 365,-62 191,-62"/>
<text text-anchor="middle" x="278" y="-69" font-family="Helvetica,sans-Serif" font-size="10.00">MACVETH/include/MVFrontend.h</text>
</a>
</g>
</g>
<!-- Node1&#45;&gt;Node4 -->
<g id="edge4" class="edge">
<title>Node1&#45;&gt;Node4</title>
<path fill="none" stroke="midnightblue" d="M267.54,-182.44C260.91,-174.19 254.44,-164.3 251,-154 242.12,-127.42 260.84,-95.93 271.42,-81.07"/>
<polygon fill="midnightblue" stroke="midnightblue" points="264.95,-184.8 274.12,-190.1 270.26,-180.24 264.95,-184.8"/>
</g>
<!-- Node6 -->
<g id="node6" class="node">
<title>Node6</title>
<g id="a_node6"><a xlink:href="MVRewriter_8h.html" target="_top" xlink:title=" ">
<polygon fill="none" stroke="black" points="260,-129 260,-148 432,-148 432,-129 260,-129"/>
<text text-anchor="middle" x="346" y="-136" font-family="Helvetica,sans-Serif" font-size="10.00">MACVETH/include/MVRewriter.h</text>
</a>
</g>
</g>
<!-- Node1&#45;&gt;Node6 -->
<g id="edge6" class="edge">
<title>Node1&#45;&gt;Node6</title>
<path fill="none" stroke="midnightblue" d="M308.15,-182.66C318.5,-170.86 330.68,-156.97 338.38,-148.19"/>
<polygon fill="midnightblue" stroke="midnightblue" points="305.33,-180.57 301.37,-190.4 310.59,-185.18 305.33,-180.57"/>
</g>
<!-- Node7 -->
<g id="node7" class="node">
<title>Node7</title>
<g id="a_node7"><a xlink:href="AVX2BackEnd_8h.html" target="_top" xlink:title=" ">
<polygon fill="none" stroke="black" points="450,-123.5 450,-153.5 620,-153.5 620,-123.5 450,-123.5"/>
<text text-anchor="start" x="458" y="-141.5" font-family="Helvetica,sans-Serif" font-size="10.00">MACVETH/include/Vectorization</text>
<text text-anchor="middle" x="535" y="-130.5" font-family="Helvetica,sans-Serif" font-size="10.00">/SIMD/AVX2/AVX2BackEnd.h</text>
</a>
</g>
</g>
<!-- Node1&#45;&gt;Node7 -->
<g id="edge8" class="edge">
<title>Node1&#45;&gt;Node7</title>
<path fill="none" stroke="midnightblue" d="M351.76,-187.92C391.9,-177.31 443.42,-163.7 481.6,-153.61"/>
<polygon fill="midnightblue" stroke="midnightblue" points="350.85,-184.54 342.08,-190.48 352.64,-191.31 350.85,-184.54"/>
</g>
<!-- Node8 -->
<g id="node8" class="node">
<title>Node8</title>
<g id="a_node8"><a xlink:href="SIMDBackEndFactory_8h.html" target="_top" xlink:title=" ">
<polygon fill="none" stroke="black" points="506,-56.5 506,-86.5 676,-86.5 676,-56.5 506,-56.5"/>
<text text-anchor="start" x="514" y="-74.5" font-family="Helvetica,sans-Serif" font-size="10.00">MACVETH/include/Vectorization</text>
<text text-anchor="middle" x="591" y="-63.5" font-family="Helvetica,sans-Serif" font-size="10.00">/SIMD/SIMDBackEndFactory.h</text>
</a>
</g>
</g>
<!-- Node1&#45;&gt;Node8 -->
<g id="edge10" class="edge">
<title>Node1&#45;&gt;Node8</title>
<path fill="none" stroke="midnightblue" d="M384.5,-203.74C473.8,-200.75 597.95,-190.01 629,-154 646.44,-133.78 623.62,-104.21 606.55,-86.8"/>
<polygon fill="midnightblue" stroke="midnightblue" points="384.23,-200.24 374.34,-204.05 384.44,-207.24 384.23,-200.24"/>
</g>
<!-- Node3&#45;&gt;Node2 -->
<g id="edge3" class="edge">
<title>Node3&#45;&gt;Node2</title>
<path fill="none" stroke="midnightblue" d="M109.19,-115.16C102.48,-105.68 94.87,-94.92 88.96,-86.58"/>
<polygon fill="midnightblue" stroke="midnightblue" points="106.38,-117.26 115.02,-123.4 112.1,-113.21 106.38,-117.26"/>
</g>
<!-- Node5 -->
<g id="node5" class="node">
<title>Node5</title>
<g id="a_node5"><a xlink:href="macveth_8cpp.html" target="_top" xlink:title=" ">
<polygon fill="none" stroke="black" points="205,-0.5 205,-19.5 351,-19.5 351,-0.5 205,-0.5"/>
<text text-anchor="middle" x="278" y="-7.5" font-family="Helvetica,sans-Serif" font-size="10.00">MACVETH/lib/macveth.cpp</text>
</a>
</g>
</g>
<!-- Node4&#45;&gt;Node5 -->
<g id="edge5" class="edge">
<title>Node4&#45;&gt;Node5</title>
<path fill="none" stroke="midnightblue" d="M278,-51.82C278,-41 278,-27.9 278,-19.51"/>
<polygon fill="midnightblue" stroke="midnightblue" points="274.5,-51.98 278,-61.98 281.5,-51.98 274.5,-51.98"/>
</g>
<!-- Node6&#45;&gt;Node4 -->
<g id="edge7" class="edge">
<title>Node6&#45;&gt;Node4</title>
<path fill="none" stroke="midnightblue" d="M329.26,-121.5C315.92,-108.75 297.77,-91.39 287.03,-81.13"/>
<polygon fill="midnightblue" stroke="midnightblue" points="327.18,-124.35 336.83,-128.73 332.02,-119.29 327.18,-124.35"/>
</g>
<!-- Node7&#45;&gt;Node8 -->
<g id="edge9" class="edge">
<title>Node7&#45;&gt;Node8</title>
<path fill="none" stroke="midnightblue" d="M553.75,-115.74C562.04,-106.12 571.54,-95.09 578.87,-86.58"/>
<polygon fill="midnightblue" stroke="midnightblue" points="551.03,-113.54 547.15,-123.4 556.33,-118.1 551.03,-113.54"/>
</g>
</g>
</svg>
