<?xml version="1.0" encoding="UTF-8" standalone="no"?>
<!DOCTYPE svg PUBLIC "-//W3C//DTD SVG 1.1//EN"
 "http://www.w3.org/Graphics/SVG/1.1/DTD/svg11.dtd">
<!-- Generated by graphviz version 2.43.0 (0)
 -->
<!-- Title: MACVETH/include/StmtWrapper.h Pages: 1 -->
<!--zoomable 431 -->
<svg id="main" version="1.1" xmlns="http://www.w3.org/2000/svg" xmlns:xlink="http://www.w3.org/1999/xlink" xml:space="preserve" onload="init(evt)">
<style type="text/css"><![CDATA[
.edge:hover path { stroke: red; }
.edge:hover polygon { stroke: red; fill: red; }
]]></style>
<script type="text/javascript"><![CDATA[
var edges = document.getElementsByTagName('g');
if (edges && edges.length) {
  for (var i=0;i<edges.length;i++) {
    if (edges[i].id.substr(0,4)=='edge') {
      edges[i].setAttribute('class','edge');
    }
  }
}
]]></script>
        <defs>
                <circle id="rim" cx="0" cy="0" r="7"/>
                <circle id="rim2" cx="0" cy="0" r="3.5"/>
                <g id="zoomPlus">
                        <use xlink:href="#rim" fill="#404040">
                                <set attributeName="fill" to="#808080" begin="zoomplus.mouseover" end="zoomplus.mouseout"/>
                        </use>
                        <path d="M-4,0h8M0,-4v8" fill="none" stroke="white" stroke-width="1.5" pointer-events="none"/>
                </g>
                <g id="zoomMin">
                        <use xlink:href="#rim" fill="#404040">
                                <set attributeName="fill" to="#808080" begin="zoomminus.mouseover" end="zoomminus.mouseout"/>
                        </use>
                        <path d="M-4,0h8" fill="none" stroke="white" stroke-width="1.5" pointer-events="none"/>
                </g>
                <g id="dirArrow">
                        <path fill="none" stroke="white" stroke-width="1.5" d="M0,-3.0v7 M-2.5,-0.5L0,-3.0L2.5,-0.5"/>
                </g>
               <g id="resetDef">
                       <use xlink:href="#rim2" fill="#404040">
                               <set attributeName="fill" to="#808080" begin="reset.mouseover" end="reset.mouseout"/>
                       </use>
               </g>
        </defs>

<script type="text/javascript">
var viewWidth = 1991;
var viewHeight = 431;
var sectionId = 'dynsection-0';
</script>
<script xlink:href="svgpan.js"/>
<svg id="graph" class="graph">
<g id="viewport">
<title>MACVETH/include/StmtWrapper.h</title>
<!-- Node1 -->
<g id="node1" class="node">
<title>Node1</title>
<g id="a_node1"><a xlink:title=" ">
<polygon fill="#bfbfbf" stroke="black" points="1231,-403.5 1231,-422.5 1410,-422.5 1410,-403.5 1231,-403.5"/>
<text text-anchor="middle" x="1320.5" y="-410.5" font-family="Helvetica,sans-Serif" font-size="10.00">MACVETH/include/StmtWrapper.h</text>
</a>
</g>
</g>
<!-- Node2 -->
<g id="node2" class="node">
<title>Node2</title>
<g id="a_node2"><a xlink:href="MVExpr_8h.html" target="_top" xlink:title=" ">
<polygon fill="none" stroke="black" points="893,-280.5 893,-299.5 1034,-299.5 1034,-280.5 893,-280.5"/>
<text text-anchor="middle" x="963.5" y="-287.5" font-family="Helvetica,sans-Serif" font-size="10.00">include/MVExpr/MVExpr.h</text>
</a>
</g>
</g>
<!-- Node1&#45;&gt;Node2 -->
<g id="edge1" class="edge">
<title>Node1&#45;&gt;Node2</title>
<path fill="none" stroke="midnightblue" d="M1290.38,-403.45C1260.17,-394.75 1212.39,-380.63 1171.5,-367 1108.32,-345.94 1035.41,-318.58 994.86,-303.09"/>
<polygon fill="midnightblue" stroke="midnightblue" points="996.11,-299.82 985.52,-299.52 993.61,-306.36 996.11,-299.82"/>
</g>
<!-- Node4 -->
<g id="node4" class="node">
<title>Node4</title>
<g id="a_node4"><a xlink:href="Utils_8h.html" target="_top" xlink:title=" ">
<polygon fill="none" stroke="black" points="736.5,-168.5 736.5,-187.5 822.5,-187.5 822.5,-168.5 736.5,-168.5"/>
<text text-anchor="middle" x="779.5" y="-175.5" font-family="Helvetica,sans-Serif" font-size="10.00">include/Utils.h</text>
</a>
</g>
</g>
<!-- Node1&#45;&gt;Node4 -->
<g id="edge53" class="edge">
<title>Node1&#45;&gt;Node4</title>
<path fill="none" stroke="midnightblue" d="M1230.92,-406.67C1043.44,-393.44 619.91,-352 533.5,-244 527.95,-237.06 527.81,-230.83 533.5,-224 557.55,-195.15 661.43,-184.74 726.27,-181.03"/>
<polygon fill="midnightblue" stroke="midnightblue" points="726.52,-184.52 736.32,-180.49 726.15,-177.53 726.52,-184.52"/>
</g>
<!-- Node14 -->
<g id="node14" class="node">
<title>Node14</title>
<g id="a_node14"><a xlink:title=" ">
<polygon fill="none" stroke="#bfbfbf" points="1427,-112.5 1427,-131.5 1522,-131.5 1522,-112.5 1427,-112.5"/>
<text text-anchor="middle" x="1474.5" y="-119.5" font-family="Helvetica,sans-Serif" font-size="10.00">clang/AST/AST.h</text>
</a>
</g>
</g>
<!-- Node1&#45;&gt;Node14 -->
<g id="edge54" class="edge">
<title>Node1&#45;&gt;Node14</title>
<path fill="none" stroke="midnightblue" d="M1326.17,-403.31C1345.21,-373.89 1407.98,-275.09 1449.5,-188 1456.82,-172.65 1463.64,-154.55 1468.3,-141.36"/>
<polygon fill="midnightblue" stroke="midnightblue" points="1471.72,-142.19 1471.67,-131.59 1465.1,-139.9 1471.72,-142.19"/>
</g>
<!-- Node20 -->
<g id="node20" class="node">
<title>Node20</title>
<g id="a_node20"><a xlink:title=" ">
<polygon fill="none" stroke="#bfbfbf" points="1271.5,-224.5 1271.5,-243.5 1369.5,-243.5 1369.5,-224.5 1271.5,-224.5"/>
<text text-anchor="middle" x="1320.5" y="-231.5" font-family="Helvetica,sans-Serif" font-size="10.00">clang/AST/Expr.h</text>
</a>
</g>
</g>
<!-- Node1&#45;&gt;Node20 -->
<g id="edge55" class="edge">
<title>Node1&#45;&gt;Node20</title>
<path fill="none" stroke="midnightblue" d="M1320.5,-403.46C1320.5,-376.43 1320.5,-292.24 1320.5,-254.11"/>
<polygon fill="midnightblue" stroke="midnightblue" points="1324,-253.87 1320.5,-243.87 1317,-253.87 1324,-253.87"/>
</g>
<!-- Node23 -->
<g id="node23" class="node">
<title>Node23</title>
<g id="a_node23"><a xlink:href="MVPragmaHandler_8h.html" target="_top" xlink:title=" ">
<polygon fill="none" stroke="black" points="303,-280.5 303,-299.5 458,-299.5 458,-280.5 303,-280.5"/>
<text text-anchor="middle" x="380.5" y="-287.5" font-family="Helvetica,sans-Serif" font-size="10.00">include/MVPragmaHandler.h</text>
</a>
</g>
</g>
<!-- Node1&#45;&gt;Node23 -->
<g id="edge31" class="edge">
<title>Node1&#45;&gt;Node23</title>
<path fill="none" stroke="midnightblue" d="M1230.75,-412.8C1046.84,-413.51 633.25,-410.07 499.5,-367 459.54,-354.13 419.78,-324.47 397.85,-306.24"/>
<polygon fill="midnightblue" stroke="midnightblue" points="399.98,-303.46 390.09,-299.65 395.45,-308.79 399.98,-303.46"/>
</g>
<!-- Node29 -->
<g id="node29" class="node">
<title>Node29</title>
<g id="a_node29"><a xlink:href="TAC_8h.html" target="_top" xlink:title=" ">
<polygon fill="none" stroke="black" points="1180,-342 1180,-361 1263,-361 1263,-342 1180,-342"/>
<text text-anchor="middle" x="1221.5" y="-349" font-family="Helvetica,sans-Serif" font-size="10.00">include/TAC.h</text>
</a>
</g>
</g>
<!-- Node1&#45;&gt;Node29 -->
<g id="edge42" class="edge">
<title>Node1&#45;&gt;Node29</title>
<path fill="none" stroke="midnightblue" d="M1306.32,-403.48C1290.14,-393.75 1263.47,-377.73 1244.36,-366.24"/>
<polygon fill="midnightblue" stroke="midnightblue" points="1246.03,-363.16 1235.66,-361.01 1242.43,-369.16 1246.03,-363.16"/>
</g>
<!-- Node31 -->
<g id="node31" class="node">
<title>Node31</title>
<g id="a_node31"><a xlink:title=" ">
<polygon fill="none" stroke="#bfbfbf" points="1526.5,-342 1526.5,-361 1626.5,-361 1626.5,-342 1526.5,-342"/>
<text text-anchor="middle" x="1576.5" y="-349" font-family="Helvetica,sans-Serif" font-size="10.00">clang/AST/Stmt.h</text>
</a>
</g>
</g>
<!-- Node1&#45;&gt;Node31 -->
<g id="edge56" class="edge">
<title>Node1&#45;&gt;Node31</title>
<path fill="none" stroke="midnightblue" d="M1357.18,-403.48C1402.71,-392.89 1480.4,-374.84 1530.05,-363.3"/>
<polygon fill="midnightblue" stroke="midnightblue" points="1530.94,-366.68 1539.89,-361.01 1529.36,-359.86 1530.94,-366.68"/>
</g>
<!-- Node32 -->
<g id="node32" class="node">
<title>Node32</title>
<g id="a_node32"><a xlink:title=" ">
<polygon fill="none" stroke="#bfbfbf" points="1645,-336.5 1645,-366.5 1806,-366.5 1806,-336.5 1645,-336.5"/>
<text text-anchor="start" x="1653" y="-354.5" font-family="Helvetica,sans-Serif" font-size="10.00">clang/ASTMatchers/ASTMatch</text>
<text text-anchor="middle" x="1725.5" y="-343.5" font-family="Helvetica,sans-Serif" font-size="10.00">Finder.h</text>
</a>
</g>
</g>
<!-- Node1&#45;&gt;Node32 -->
<g id="edge57" class="edge">
<title>Node1&#45;&gt;Node32</title>
<path fill="none" stroke="midnightblue" d="M1382.41,-403.49C1443.79,-394.97 1540.8,-381.32 1634.61,-367.12"/>
<polygon fill="midnightblue" stroke="midnightblue" points="1635.2,-370.57 1644.56,-365.61 1634.15,-363.65 1635.2,-370.57"/>
</g>
<!-- Node33 -->
<g id="node33" class="node">
<title>Node33</title>
<g id="a_node33"><a xlink:title=" ">
<polygon fill="none" stroke="#bfbfbf" points="1824.5,-342 1824.5,-361 1982.5,-361 1982.5,-342 1824.5,-342"/>
<text text-anchor="middle" x="1903.5" y="-349" font-family="Helvetica,sans-Serif" font-size="10.00">clang/Basic/SourceLocation.h</text>
</a>
</g>
</g>
<!-- Node1&#45;&gt;Node33 -->
<g id="edge58" class="edge">
<title>Node1&#45;&gt;Node33</title>
<path fill="none" stroke="midnightblue" d="M1410.14,-405.82C1509.46,-398.51 1674.26,-385.03 1815.5,-367 1825.29,-365.75 1835.66,-364.22 1845.72,-362.64"/>
<polygon fill="midnightblue" stroke="midnightblue" points="1846.32,-366.08 1855.64,-361.03 1845.21,-359.17 1846.32,-366.08"/>
</g>
<!-- Node3 -->
<g id="node3" class="node">
<title>Node3</title>
<g id="a_node3"><a xlink:href="Debug_8h.html" target="_top" xlink:title=" ">
<polygon fill="none" stroke="black" points="542,-224.5 542,-243.5 637,-243.5 637,-224.5 542,-224.5"/>
<text text-anchor="middle" x="589.5" y="-231.5" font-family="Helvetica,sans-Serif" font-size="10.00">include/Debug.h</text>
</a>
</g>
</g>
<!-- Node2&#45;&gt;Node3 -->
<g id="edge2" class="edge">
<title>Node2&#45;&gt;Node3</title>
<path fill="none" stroke="midnightblue" d="M904.27,-280.47C841.51,-271.43 739.52,-256.74 651.5,-244 650.2,-243.81 648.88,-243.62 647.55,-243.43"/>
<polygon fill="midnightblue" stroke="midnightblue" points="647.63,-239.9 637.23,-241.93 646.62,-246.83 647.63,-239.9"/>
</g>
<!-- Node2&#45;&gt;Node4 -->
<g id="edge24" class="edge">
<title>Node2&#45;&gt;Node4</title>
<path fill="none" stroke="midnightblue" d="M892.73,-285.2C860.19,-279.93 823.39,-268.44 798.5,-244 786.32,-232.04 781.85,-212.74 780.25,-198.27"/>
<polygon fill="midnightblue" stroke="midnightblue" points="783.72,-197.66 779.5,-187.94 776.74,-198.16 783.72,-197.66"/>
</g>
<!-- Node8 -->
<g id="node8" class="node">
<title>Node8</title>
<g id="a_node8"><a xlink:title=" ">
<polygon fill="none" stroke="#bfbfbf" points="745.5,-0.5 745.5,-19.5 805.5,-19.5 805.5,-0.5 745.5,-0.5"/>
<text text-anchor="middle" x="775.5" y="-7.5" font-family="Helvetica,sans-Serif" font-size="10.00">iostream</text>
</a>
</g>
</g>
<!-- Node2&#45;&gt;Node8 -->
<g id="edge28" class="edge">
<title>Node2&#45;&gt;Node8</title>
<path fill="none" stroke="midnightblue" d="M892.91,-283.98C835.59,-278.4 753.26,-266.95 684.5,-244 666.4,-237.96 663.85,-231.96 646.5,-224 545.31,-177.56 476.12,-224.05 413.5,-132 335.69,-17.62 625.53,-9.32 735.13,-10.16"/>
<polygon fill="midnightblue" stroke="midnightblue" points="735.12,-13.66 745.16,-10.26 735.19,-6.66 735.12,-13.66"/>
</g>
<!-- Node9 -->
<g id="node9" class="node">
<title>Node9</title>
<g id="a_node9"><a xlink:title=" ">
<polygon fill="none" stroke="#bfbfbf" points="1381.5,-0.5 1381.5,-19.5 1425.5,-19.5 1425.5,-0.5 1381.5,-0.5"/>
<text text-anchor="middle" x="1403.5" y="-7.5" font-family="Helvetica,sans-Serif" font-size="10.00">string</text>
</a>
</g>
</g>
<!-- Node2&#45;&gt;Node9 -->
<g id="edge30" class="edge">
<title>Node2&#45;&gt;Node9</title>
<path fill="none" stroke="midnightblue" d="M969.51,-280.23C978.88,-266.96 998.06,-241.49 1018.5,-224 1054.87,-192.88 1065.37,-183.96 1110.5,-168 1167.36,-147.89 1335.54,-173.29 1379.5,-132 1407.64,-105.57 1408.05,-56.37 1405.83,-29.57"/>
<polygon fill="midnightblue" stroke="midnightblue" points="1409.31,-29.17 1404.79,-19.59 1402.35,-29.9 1409.31,-29.17"/>
</g>
<!-- Node2&#45;&gt;Node14 -->
<g id="edge25" class="edge">
<title>Node2&#45;&gt;Node14</title>
<path fill="none" stroke="midnightblue" d="M973.8,-280.5C1001.78,-257.91 1082.35,-196.2 1160.5,-168 1266.92,-129.59 1300.52,-148.13 1412.5,-132 1413.8,-131.81 1415.12,-131.62 1416.45,-131.43"/>
<polygon fill="midnightblue" stroke="midnightblue" points="1417.38,-134.83 1426.77,-129.94 1416.38,-127.91 1417.38,-134.83"/>
</g>
<!-- Node19 -->
<g id="node19" class="node">
<title>Node19</title>
<g id="a_node19"><a xlink:href="MVDataType_8h.html" target="_top" xlink:title=" ">
<polygon fill="none" stroke="black" points="1204.5,-112.5 1204.5,-131.5 1370.5,-131.5 1370.5,-112.5 1204.5,-112.5"/>
<text text-anchor="middle" x="1287.5" y="-119.5" font-family="Helvetica,sans-Serif" font-size="10.00">include/MVExpr/MVDataType.h</text>
</a>
</g>
</g>
<!-- Node2&#45;&gt;Node19 -->
<g id="edge21" class="edge">
<title>Node2&#45;&gt;Node19</title>
<path fill="none" stroke="midnightblue" d="M962.24,-280.44C959.49,-258.25 955.58,-198.46 987.5,-168 995.46,-160.4 1120.9,-143.55 1207.02,-132.76"/>
<polygon fill="midnightblue" stroke="midnightblue" points="1207.57,-136.22 1217.06,-131.51 1206.7,-129.27 1207.57,-136.22"/>
</g>
<!-- Node2&#45;&gt;Node20 -->
<g id="edge26" class="edge">
<title>Node2&#45;&gt;Node20</title>
<path fill="none" stroke="midnightblue" d="M1020.55,-280.49C1078.55,-271.83 1171.3,-257.92 1261.34,-244.17"/>
<polygon fill="midnightblue" stroke="midnightblue" points="1262.1,-247.6 1271.45,-242.63 1261.04,-240.68 1262.1,-247.6"/>
</g>
<!-- Node21 -->
<g id="node21" class="node">
<title>Node21</title>
<g id="a_node21"><a xlink:title=" ">
<polygon fill="none" stroke="#bfbfbf" points="807.5,-224.5 807.5,-243.5 935.5,-243.5 935.5,-224.5 807.5,-224.5"/>
<text text-anchor="middle" x="871.5" y="-231.5" font-family="Helvetica,sans-Serif" font-size="10.00">llvm/Support/Casting.h</text>
</a>
</g>
</g>
<!-- Node2&#45;&gt;Node21 -->
<g id="edge27" class="edge">
<title>Node2&#45;&gt;Node21</title>
<path fill="none" stroke="midnightblue" d="M948.72,-280.32C934.23,-271.82 911.93,-258.73 895.01,-248.8"/>
<polygon fill="midnightblue" stroke="midnightblue" points="896.64,-245.7 886.24,-243.65 893.1,-251.74 896.64,-245.7"/>
</g>
<!-- Node22 -->
<g id="node22" class="node">
<title>Node22</title>
<g id="a_node22"><a xlink:title=" ">
<polygon fill="none" stroke="#bfbfbf" points="693.5,-224.5 693.5,-243.5 751.5,-243.5 751.5,-224.5 693.5,-224.5"/>
<text text-anchor="middle" x="722.5" y="-231.5" font-family="Helvetica,sans-Serif" font-size="10.00">memory</text>
</a>
</g>
</g>
<!-- Node2&#45;&gt;Node22 -->
<g id="edge29" class="edge">
<title>Node2&#45;&gt;Node22</title>
<path fill="none" stroke="midnightblue" d="M925.31,-280.44C880.62,-270.43 806.97,-253.93 761.8,-243.81"/>
<polygon fill="midnightblue" stroke="midnightblue" points="762.31,-240.33 751.79,-241.56 760.78,-247.16 762.31,-240.33"/>
</g>
<!-- Node3&#45;&gt;Node4 -->
<g id="edge3" class="edge">
<title>Node3&#45;&gt;Node4</title>
<path fill="none" stroke="midnightblue" d="M619.61,-224.44C652.13,-215.2 704.08,-200.44 739.89,-190.26"/>
<polygon fill="midnightblue" stroke="midnightblue" points="740.87,-193.62 749.53,-187.52 738.96,-186.88 740.87,-193.62"/>
</g>
<!-- Node5 -->
<g id="node5" class="node">
<title>Node5</title>
<g id="a_node5"><a xlink:href="MVOptions_8h.html" target="_top" xlink:title=" ">
<polygon fill="none" stroke="black" points="1069,-112.5 1069,-131.5 1186,-131.5 1186,-112.5 1069,-112.5"/>
<text text-anchor="middle" x="1127.5" y="-119.5" font-family="Helvetica,sans-Serif" font-size="10.00">include/MVOptions.h</text>
</a>
</g>
</g>
<!-- Node4&#45;&gt;Node5 -->
<g id="edge4" class="edge">
<title>Node4&#45;&gt;Node5</title>
<path fill="none" stroke="midnightblue" d="M822.52,-170.32C882.67,-160.99 992.37,-143.97 1062.5,-133.09"/>
<polygon fill="midnightblue" stroke="midnightblue" points="1063.21,-136.52 1072.55,-131.53 1062.14,-129.6 1063.21,-136.52"/>
</g>
<!-- Node4&#45;&gt;Node8 -->
<g id="edge20" class="edge">
<title>Node4&#45;&gt;Node8</title>
<path fill="none" stroke="midnightblue" d="M736.24,-177.19C700.97,-174.76 653.1,-165.01 628.5,-132 592.23,-83.35 683.57,-42.25 738.15,-22.89"/>
<polygon fill="midnightblue" stroke="midnightblue" points="739.57,-26.11 747.88,-19.53 737.28,-19.49 739.57,-26.11"/>
</g>
<!-- Node4&#45;&gt;Node14 -->
<g id="edge15" class="edge">
<title>Node4&#45;&gt;Node14</title>
<path fill="none" stroke="midnightblue" d="M822.82,-174.04C921.59,-167.24 1171.07,-149.69 1379.5,-132 1391.49,-130.98 1404.33,-129.82 1416.57,-128.67"/>
<polygon fill="midnightblue" stroke="midnightblue" points="1417.05,-132.14 1426.67,-127.72 1416.39,-125.17 1417.05,-132.14"/>
</g>
<!-- Node15 -->
<g id="node15" class="node">
<title>Node15</title>
<g id="a_node15"><a xlink:title=" ">
<polygon fill="none" stroke="#bfbfbf" points="829,-112.5 829,-131.5 974,-131.5 974,-112.5 829,-112.5"/>
<text text-anchor="middle" x="901.5" y="-119.5" font-family="Helvetica,sans-Serif" font-size="10.00">clang/Basic/LangOptions.h</text>
</a>
</g>
</g>
<!-- Node4&#45;&gt;Node15 -->
<g id="edge16" class="edge">
<title>Node4&#45;&gt;Node15</title>
<path fill="none" stroke="midnightblue" d="M798.83,-168.44C818.82,-159.6 850.24,-145.69 873.06,-135.59"/>
<polygon fill="midnightblue" stroke="midnightblue" points="874.53,-138.76 882.26,-131.52 871.7,-132.36 874.53,-138.76"/>
</g>
<!-- Node16 -->
<g id="node16" class="node">
<title>Node16</title>
<g id="a_node16"><a xlink:title=" ">
<polygon fill="none" stroke="#bfbfbf" points="422,-112.5 422,-131.5 581,-131.5 581,-112.5 422,-112.5"/>
<text text-anchor="middle" x="501.5" y="-119.5" font-family="Helvetica,sans-Serif" font-size="10.00">clang/Basic/SourceManager.h</text>
</a>
</g>
</g>
<!-- Node4&#45;&gt;Node16 -->
<g id="edge17" class="edge">
<title>Node4&#45;&gt;Node16</title>
<path fill="none" stroke="midnightblue" d="M736.37,-168.62C687.65,-159.16 608.31,-143.75 555.52,-133.49"/>
<polygon fill="midnightblue" stroke="midnightblue" points="556.14,-130.05 545.65,-131.58 554.8,-136.92 556.14,-130.05"/>
</g>
<!-- Node17 -->
<g id="node17" class="node">
<title>Node17</title>
<g id="a_node17"><a xlink:title=" ">
<polygon fill="none" stroke="#bfbfbf" points="637,-112.5 637,-131.5 738,-131.5 738,-112.5 637,-112.5"/>
<text text-anchor="middle" x="687.5" y="-119.5" font-family="Helvetica,sans-Serif" font-size="10.00">clang/Lex/Lexer.h</text>
</a>
</g>
</g>
<!-- Node4&#45;&gt;Node17 -->
<g id="edge18" class="edge">
<title>Node4&#45;&gt;Node17</title>
<path fill="none" stroke="midnightblue" d="M764.72,-168.32C750.23,-159.82 727.93,-146.73 711.01,-136.8"/>
<polygon fill="midnightblue" stroke="midnightblue" points="712.64,-133.7 702.24,-131.65 709.1,-139.74 712.64,-133.7"/>
</g>
<!-- Node18 -->
<g id="node18" class="node">
<title>Node18</title>
<g id="a_node18"><a xlink:title=" ">
<polygon fill="none" stroke="#bfbfbf" points="756,-112.5 756,-131.5 811,-131.5 811,-112.5 756,-112.5"/>
<text text-anchor="middle" x="783.5" y="-119.5" font-family="Helvetica,sans-Serif" font-size="10.00">fstream</text>
</a>
</g>
</g>
<!-- Node4&#45;&gt;Node18 -->
<g id="edge19" class="edge">
<title>Node4&#45;&gt;Node18</title>
<path fill="none" stroke="midnightblue" d="M780.16,-168.08C780.68,-161.01 781.44,-150.86 782.09,-141.99"/>
<polygon fill="midnightblue" stroke="midnightblue" points="785.6,-141.98 782.85,-131.75 778.62,-141.47 785.6,-141.98"/>
</g>
<!-- Node6 -->
<g id="node6" class="node">
<title>Node6</title>
<g id="a_node6"><a xlink:href="CPUID_8h.html" target="_top" xlink:title=" ">
<polygon fill="none" stroke="black" points="1079,-56.5 1079,-75.5 1174,-75.5 1174,-56.5 1079,-56.5"/>
<text text-anchor="middle" x="1126.5" y="-63.5" font-family="Helvetica,sans-Serif" font-size="10.00">include/CPUID.h</text>
</a>
</g>
</g>
<!-- Node5&#45;&gt;Node6 -->
<g id="edge5" class="edge">
<title>Node5&#45;&gt;Node6</title>
<path fill="none" stroke="midnightblue" d="M1127.33,-112.08C1127.2,-105.01 1127.02,-94.86 1126.85,-85.99"/>
<polygon fill="midnightblue" stroke="midnightblue" points="1130.35,-85.68 1126.66,-75.75 1123.35,-85.81 1130.35,-85.68"/>
</g>
<!-- Node7 -->
<g id="node7" class="node">
<title>Node7</title>
<g id="a_node7"><a xlink:title=" ">
<polygon fill="none" stroke="#bfbfbf" points="1170.5,-0.5 1170.5,-19.5 1234.5,-19.5 1234.5,-0.5 1170.5,-0.5"/>
<text text-anchor="middle" x="1202.5" y="-7.5" font-family="Helvetica,sans-Serif" font-size="10.00">algorithm</text>
</a>
</g>
</g>
<!-- Node5&#45;&gt;Node7 -->
<g id="edge10" class="edge">
<title>Node5&#45;&gt;Node7</title>
<path fill="none" stroke="midnightblue" d="M1142.75,-112.4C1155.43,-104.5 1173.04,-91.66 1183.5,-76 1192.79,-62.1 1197.62,-43.59 1200.08,-29.88"/>
<polygon fill="midnightblue" stroke="midnightblue" points="1203.59,-30.11 1201.64,-19.69 1196.67,-29.05 1203.59,-30.11"/>
</g>
<!-- Node5&#45;&gt;Node9 -->
<g id="edge14" class="edge">
<title>Node5&#45;&gt;Node9</title>
<path fill="none" stroke="midnightblue" d="M1142.99,-112.39C1167.29,-99.11 1216.09,-73.35 1259.5,-56 1297.14,-40.96 1341.89,-27.66 1371.41,-19.49"/>
<polygon fill="midnightblue" stroke="midnightblue" points="1372.45,-22.83 1381.17,-16.82 1370.6,-16.08 1372.45,-22.83"/>
</g>
<!-- Node11 -->
<g id="node11" class="node">
<title>Node11</title>
<g id="a_node11"><a xlink:title=" ">
<polygon fill="none" stroke="#bfbfbf" points="1008.5,-56.5 1008.5,-75.5 1060.5,-75.5 1060.5,-56.5 1008.5,-56.5"/>
<text text-anchor="middle" x="1034.5" y="-63.5" font-family="Helvetica,sans-Serif" font-size="10.00">cassert</text>
</a>
</g>
</g>
<!-- Node5&#45;&gt;Node11 -->
<g id="edge11" class="edge">
<title>Node5&#45;&gt;Node11</title>
<path fill="none" stroke="midnightblue" d="M1112.56,-112.32C1097.91,-103.82 1075.37,-90.73 1058.26,-80.8"/>
<polygon fill="midnightblue" stroke="midnightblue" points="1059.81,-77.65 1049.4,-75.65 1056.3,-83.7 1059.81,-77.65"/>
</g>
<!-- Node12 -->
<g id="node12" class="node">
<title>Node12</title>
<g id="a_node12"><a xlink:title=" ">
<polygon fill="none" stroke="#bfbfbf" points="1324.5,-56.5 1324.5,-75.5 1356.5,-75.5 1356.5,-56.5 1324.5,-56.5"/>
<text text-anchor="middle" x="1340.5" y="-63.5" font-family="Helvetica,sans-Serif" font-size="10.00">list</text>
</a>
</g>
</g>
<!-- Node5&#45;&gt;Node12 -->
<g id="edge12" class="edge">
<title>Node5&#45;&gt;Node12</title>
<path fill="none" stroke="midnightblue" d="M1168.92,-112.47C1205.15,-104.69 1259.33,-92.33 1314.81,-75.96"/>
<polygon fill="midnightblue" stroke="midnightblue" points="1315.87,-79.29 1324.45,-73.07 1313.87,-72.59 1315.87,-79.29"/>
</g>
<!-- Node13 -->
<g id="node13" class="node">
<title>Node13</title>
<g id="a_node13"><a xlink:title=" ">
<polygon fill="none" stroke="#bfbfbf" points="1268.5,-56.5 1268.5,-75.5 1306.5,-75.5 1306.5,-56.5 1268.5,-56.5"/>
<text text-anchor="middle" x="1287.5" y="-63.5" font-family="Helvetica,sans-Serif" font-size="10.00">map</text>
</a>
</g>
</g>
<!-- Node5&#45;&gt;Node13 -->
<g id="edge13" class="edge">
<title>Node5&#45;&gt;Node13</title>
<path fill="none" stroke="midnightblue" d="M1152.85,-112.44C1181.67,-102.72 1228.61,-86.88 1258.76,-76.7"/>
<polygon fill="midnightblue" stroke="midnightblue" points="1259.94,-80 1268.29,-73.48 1257.7,-73.36 1259.94,-80"/>
</g>
<!-- Node6&#45;&gt;Node7 -->
<g id="edge6" class="edge">
<title>Node6&#45;&gt;Node7</title>
<path fill="none" stroke="midnightblue" d="M1138.71,-56.32C1150.28,-48.11 1167.88,-35.6 1181.66,-25.81"/>
<polygon fill="midnightblue" stroke="midnightblue" points="1183.94,-28.48 1190.07,-19.83 1179.89,-22.77 1183.94,-28.48"/>
</g>
<!-- Node6&#45;&gt;Node8 -->
<g id="edge7" class="edge">
<title>Node6&#45;&gt;Node8</title>
<path fill="none" stroke="midnightblue" d="M1078.92,-57.47C1075.73,-56.97 1072.57,-56.48 1069.5,-56 978.72,-41.89 872.11,-25.65 815.52,-17.07"/>
<polygon fill="midnightblue" stroke="midnightblue" points="815.97,-13.59 805.56,-15.55 814.92,-20.51 815.97,-13.59"/>
</g>
<!-- Node6&#45;&gt;Node9 -->
<g id="edge8" class="edge">
<title>Node6&#45;&gt;Node9</title>
<path fill="none" stroke="midnightblue" d="M1170.39,-56.44C1226.36,-45.53 1321.82,-26.92 1371.43,-17.25"/>
<polygon fill="midnightblue" stroke="midnightblue" points="1372.15,-20.68 1381.29,-15.33 1370.81,-13.81 1372.15,-20.68"/>
</g>
<!-- Node10 -->
<g id="node10" class="node">
<title>Node10</title>
<g id="a_node10"><a xlink:title=" ">
<polygon fill="none" stroke="#bfbfbf" points="1099,-0.5 1099,-19.5 1152,-19.5 1152,-0.5 1099,-0.5"/>
<text text-anchor="middle" x="1125.5" y="-7.5" font-family="Helvetica,sans-Serif" font-size="10.00">stdint.h</text>
</a>
</g>
</g>
<!-- Node6&#45;&gt;Node10 -->
<g id="edge9" class="edge">
<title>Node6&#45;&gt;Node10</title>
<path fill="none" stroke="midnightblue" d="M1126.33,-56.08C1126.2,-49.01 1126.02,-38.86 1125.85,-29.99"/>
<polygon fill="midnightblue" stroke="midnightblue" points="1129.35,-29.68 1125.66,-19.75 1122.35,-29.81 1129.35,-29.68"/>
</g>
<!-- Node19&#45;&gt;Node9 -->
<g id="edge23" class="edge">
<title>Node19&#45;&gt;Node9</title>
<path fill="none" stroke="midnightblue" d="M1308.67,-112.44C1325.59,-104.81 1349.09,-92.31 1365.5,-76 1379.09,-62.49 1389.58,-43.13 1396.06,-29.06"/>
<polygon fill="midnightblue" stroke="midnightblue" points="1399.43,-30.07 1400.22,-19.51 1393.02,-27.28 1399.43,-30.07"/>
</g>
<!-- Node19&#45;&gt;Node13 -->
<g id="edge22" class="edge">
<title>Node19&#45;&gt;Node13</title>
<path fill="none" stroke="midnightblue" d="M1287.5,-112.08C1287.5,-105.01 1287.5,-94.86 1287.5,-85.99"/>
<polygon fill="midnightblue" stroke="midnightblue" points="1291,-85.75 1287.5,-75.75 1284,-85.75 1291,-85.75"/>
</g>
<!-- Node23&#45;&gt;Node3 -->
<g id="edge32" class="edge">
<title>Node23&#45;&gt;Node3</title>
<path fill="none" stroke="midnightblue" d="M413.62,-280.44C449.62,-271.14 507.27,-256.25 546.69,-246.06"/>
<polygon fill="midnightblue" stroke="midnightblue" points="547.73,-249.41 556.54,-243.52 545.98,-242.63 547.73,-249.41"/>
</g>
<!-- Node23&#45;&gt;Node8 -->
<g id="edge40" class="edge">
<title>Node23&#45;&gt;Node8</title>
<path fill="none" stroke="midnightblue" d="M378.03,-280.27C368.93,-246.06 340.97,-119.92 403.5,-56 426.42,-32.57 643.77,-18.14 735.24,-13.06"/>
<polygon fill="midnightblue" stroke="midnightblue" points="735.7,-16.54 745.5,-12.5 735.32,-9.55 735.7,-16.54"/>
</g>
<!-- Node23&#45;&gt;Node16 -->
<g id="edge38" class="edge">
<title>Node23&#45;&gt;Node16</title>
<path fill="none" stroke="midnightblue" d="M387.01,-280.08C406.38,-253.49 463.93,-174.54 489.28,-139.76"/>
<polygon fill="midnightblue" stroke="midnightblue" points="492.19,-141.71 495.25,-131.57 486.54,-137.59 492.19,-141.71"/>
</g>
<!-- Node24 -->
<g id="node24" class="node">
<title>Node24</title>
<g id="a_node24"><a xlink:href="MVAssert_8h.html" target="_top" xlink:title=" ">
<polygon fill="none" stroke="black" points="1143.5,-224.5 1143.5,-243.5 1253.5,-243.5 1253.5,-224.5 1143.5,-224.5"/>
<text text-anchor="middle" x="1198.5" y="-231.5" font-family="Helvetica,sans-Serif" font-size="10.00">include/MVAssert.h</text>
</a>
</g>
</g>
<!-- Node23&#45;&gt;Node24 -->
<g id="edge33" class="edge">
<title>Node23&#45;&gt;Node24</title>
<path fill="none" stroke="midnightblue" d="M458.19,-283.87C618.55,-273.29 983.64,-249.18 1132.98,-239.33"/>
<polygon fill="midnightblue" stroke="midnightblue" points="1133.61,-242.79 1143.35,-238.64 1133.15,-235.81 1133.61,-242.79"/>
</g>
<!-- Node26 -->
<g id="node26" class="node">
<title>Node26</title>
<g id="a_node26"><a xlink:title=" ">
<polygon fill="none" stroke="#bfbfbf" points="0,-224.5 0,-243.5 153,-243.5 153,-224.5 0,-224.5"/>
<text text-anchor="middle" x="76.5" y="-231.5" font-family="Helvetica,sans-Serif" font-size="10.00">clang/Basic/IdentifierTable.h</text>
</a>
</g>
</g>
<!-- Node23&#45;&gt;Node26 -->
<g id="edge37" class="edge">
<title>Node23&#45;&gt;Node26</title>
<path fill="none" stroke="midnightblue" d="M332.33,-280.44C278.63,-270.9 191.81,-255.48 134.45,-245.29"/>
<polygon fill="midnightblue" stroke="midnightblue" points="134.9,-241.82 124.44,-243.52 133.68,-248.71 134.9,-241.82"/>
</g>
<!-- Node27 -->
<g id="node27" class="node">
<title>Node27</title>
<g id="a_node27"><a xlink:title=" ">
<polygon fill="none" stroke="#bfbfbf" points="171,-224.5 171,-243.5 284,-243.5 284,-224.5 171,-224.5"/>
<text text-anchor="middle" x="227.5" y="-231.5" font-family="Helvetica,sans-Serif" font-size="10.00">clang/Parse/Parser.h</text>
</a>
</g>
</g>
<!-- Node23&#45;&gt;Node27 -->
<g id="edge39" class="edge">
<title>Node23&#45;&gt;Node27</title>
<path fill="none" stroke="midnightblue" d="M356.26,-280.44C330.63,-271.4 290.01,-257.06 261.26,-246.92"/>
<polygon fill="midnightblue" stroke="midnightblue" points="262.22,-243.54 251.63,-243.52 259.89,-250.15 262.22,-243.54"/>
</g>
<!-- Node28 -->
<g id="node28" class="node">
<title>Node28</title>
<g id="a_node28"><a xlink:title=" ">
<polygon fill="none" stroke="#bfbfbf" points="302,-224.5 302,-243.5 349,-243.5 349,-224.5 302,-224.5"/>
<text text-anchor="middle" x="325.5" y="-231.5" font-family="Helvetica,sans-Serif" font-size="10.00">vector</text>
</a>
</g>
</g>
<!-- Node23&#45;&gt;Node28 -->
<g id="edge41" class="edge">
<title>Node23&#45;&gt;Node28</title>
<path fill="none" stroke="midnightblue" d="M371.42,-280.08C363.33,-272.14 351.3,-260.34 341.59,-250.8"/>
<polygon fill="midnightblue" stroke="midnightblue" points="344,-248.26 334.41,-243.75 339.1,-253.25 344,-248.26"/>
</g>
<!-- Node24&#45;&gt;Node8 -->
<g id="edge34" class="edge">
<title>Node24&#45;&gt;Node8</title>
<path fill="none" stroke="midnightblue" d="M1186.85,-224.47C1138.6,-189.16 956.91,-56.19 956.5,-56 910.66,-34.55 853.32,-22.52 815.61,-16.4"/>
<polygon fill="midnightblue" stroke="midnightblue" points="815.94,-12.91 805.52,-14.83 814.87,-19.83 815.94,-12.91"/>
</g>
<!-- Node24&#45;&gt;Node9 -->
<g id="edge36" class="edge">
<title>Node24&#45;&gt;Node9</title>
<path fill="none" stroke="midnightblue" d="M1252.76,-224.48C1338.27,-209.82 1498.12,-177.01 1531.5,-132 1565.24,-86.5 1483.14,-43.49 1435.17,-23.2"/>
<polygon fill="midnightblue" stroke="midnightblue" points="1436.37,-19.9 1425.79,-19.33 1433.7,-26.38 1436.37,-19.9"/>
</g>
<!-- Node25 -->
<g id="node25" class="node">
<title>Node25</title>
<g id="a_node25"><a xlink:title=" ">
<polygon fill="none" stroke="#bfbfbf" points="1169,-168.5 1169,-187.5 1228,-187.5 1228,-168.5 1169,-168.5"/>
<text text-anchor="middle" x="1198.5" y="-175.5" font-family="Helvetica,sans-Serif" font-size="10.00">setjmp.h</text>
</a>
</g>
</g>
<!-- Node24&#45;&gt;Node25 -->
<g id="edge35" class="edge">
<title>Node24&#45;&gt;Node25</title>
<path fill="none" stroke="midnightblue" d="M1198.5,-224.08C1198.5,-217.01 1198.5,-206.86 1198.5,-197.99"/>
<polygon fill="midnightblue" stroke="midnightblue" points="1202,-197.75 1198.5,-187.75 1195,-197.75 1202,-197.75"/>
</g>
<!-- Node29&#45;&gt;Node2 -->
<g id="edge44" class="edge">
<title>Node29&#45;&gt;Node2</title>
<path fill="none" stroke="midnightblue" d="M1184.53,-341.98C1138.65,-331.39 1060.35,-313.34 1010.32,-301.8"/>
<polygon fill="midnightblue" stroke="midnightblue" points="1010.93,-298.35 1000.4,-299.51 1009.35,-305.17 1010.93,-298.35"/>
</g>
<!-- Node29&#45;&gt;Node3 -->
<g id="edge43" class="edge">
<title>Node29&#45;&gt;Node3</title>
<path fill="none" stroke="midnightblue" d="M1179.84,-345.19C1116.04,-336.84 990.38,-319.57 884.5,-300 795.47,-283.54 692.36,-259.72 634.65,-245.95"/>
<polygon fill="midnightblue" stroke="midnightblue" points="635.3,-242.51 624.76,-243.59 633.67,-249.32 635.3,-242.51"/>
</g>
<!-- Node29&#45;&gt;Node4 -->
<g id="edge48" class="edge">
<title>Node29&#45;&gt;Node4</title>
<path fill="none" stroke="midnightblue" d="M1200.11,-341.89C1176,-332.1 1135.69,-315.46 1101.5,-300 1030.86,-268.07 1017.09,-251.2 944.5,-224 906.45,-209.74 861.93,-197.87 828.73,-189.9"/>
<polygon fill="midnightblue" stroke="midnightblue" points="829.35,-186.45 818.81,-187.56 827.74,-193.27 829.35,-186.45"/>
</g>
<!-- Node29&#45;&gt;Node8 -->
<g id="edge50" class="edge">
<title>Node29&#45;&gt;Node8</title>
<path fill="none" stroke="midnightblue" d="M1210.98,-341.84C1199.16,-331.99 1179.54,-315.3 1163.5,-300 1079.79,-220.16 1077,-180.11 983.5,-112 927.36,-71.1 852.09,-39.35 809.2,-23.06"/>
<polygon fill="midnightblue" stroke="midnightblue" points="810.38,-19.77 799.79,-19.54 807.93,-26.33 810.38,-19.77"/>
</g>
<!-- Node29&#45;&gt;Node9 -->
<g id="edge52" class="edge">
<title>Node29&#45;&gt;Node9</title>
<path fill="none" stroke="midnightblue" d="M1257.84,-341.93C1290.4,-333.54 1338.97,-319.21 1378.5,-300 1473.47,-253.84 1520.79,-234.42 1546.5,-132 1555.09,-97.77 1548.84,-80.57 1523.5,-56 1499.53,-32.76 1462.42,-21.3 1435.82,-15.8"/>
<polygon fill="midnightblue" stroke="midnightblue" points="1436.31,-12.33 1425.83,-13.91 1435.01,-19.21 1436.31,-12.33"/>
</g>
<!-- Node29&#45;&gt;Node12 -->
<g id="edge51" class="edge">
<title>Node29&#45;&gt;Node12</title>
<path fill="none" stroke="midnightblue" d="M1248.7,-341.91C1313.51,-319.7 1475.8,-253.51 1531.5,-132 1535.2,-123.92 1537.02,-118.97 1531.5,-112 1511.24,-86.42 1414.34,-73.92 1366.85,-69.25"/>
<polygon fill="midnightblue" stroke="midnightblue" points="1367,-65.75 1356.71,-68.3 1366.34,-72.72 1367,-65.75"/>
</g>
<!-- Node29&#45;&gt;Node14 -->
<g id="edge49" class="edge">
<title>Node29&#45;&gt;Node14</title>
<path fill="none" stroke="midnightblue" d="M1237.34,-341.92C1267.01,-325.41 1332.15,-287.02 1378.5,-244 1413.73,-211.31 1446.68,-165.09 1463.28,-140.31"/>
<polygon fill="midnightblue" stroke="midnightblue" points="1466.4,-141.92 1468.99,-131.65 1460.56,-138.07 1466.4,-141.92"/>
</g>
<!-- Node30 -->
<g id="node30" class="node">
<title>Node30</title>
<g id="a_node30"><a xlink:href="MVOps_8h.html" target="_top" xlink:title=" ">
<polygon fill="none" stroke="black" points="1172.5,-280.5 1172.5,-299.5 1270.5,-299.5 1270.5,-280.5 1172.5,-280.5"/>
<text text-anchor="middle" x="1221.5" y="-287.5" font-family="Helvetica,sans-Serif" font-size="10.00">include/MVOps.h</text>
</a>
</g>
</g>
<!-- Node29&#45;&gt;Node30 -->
<g id="edge45" class="edge">
<title>Node29&#45;&gt;Node30</title>
<path fill="none" stroke="midnightblue" d="M1221.5,-341.98C1221.5,-333.58 1221.5,-320.48 1221.5,-309.66"/>
<polygon fill="midnightblue" stroke="midnightblue" points="1225,-309.51 1221.5,-299.51 1218,-309.51 1225,-309.51"/>
</g>
<!-- Node30&#45;&gt;Node20 -->
<g id="edge47" class="edge">
<title>Node30&#45;&gt;Node20</title>
<path fill="none" stroke="midnightblue" d="M1237.41,-280.32C1253.14,-271.74 1277.44,-258.49 1295.71,-248.52"/>
<polygon fill="midnightblue" stroke="midnightblue" points="1297.53,-251.52 1304.63,-243.65 1294.18,-245.37 1297.53,-251.52"/>
</g>
<!-- Node30&#45;&gt;Node24 -->
<g id="edge46" class="edge">
<title>Node30&#45;&gt;Node24</title>
<path fill="none" stroke="midnightblue" d="M1217.7,-280.08C1214.59,-272.77 1210.08,-262.18 1206.21,-253.1"/>
<polygon fill="midnightblue" stroke="midnightblue" points="1209.37,-251.58 1202.23,-243.75 1202.93,-254.32 1209.37,-251.58"/>
</g>
</g>
</svg>
        <g id="navigator" transform="translate(0 0)" fill="#404254">
                <rect fill="#f2f5e9" fill-opacity="0.5" stroke="#606060" stroke-width=".5" x="0" y="0" width="60" height="60"/>
                <use id="zoomplus" xlink:href="#zoomPlus" x="17" y="9" onmousedown="handleZoom(evt,'in')"/>
                <use id="zoomminus" xlink:href="#zoomMin" x="42" y="9" onmousedown="handleZoom(evt,'out')"/>
                <use id="reset" xlink:href="#resetDef" x="30" y="36" onmousedown="handleReset()"/>
                <g id="arrowUp" xlink:href="#dirArrow" transform="translate(30 24)" onmousedown="handlePan(0,-1)">
                  <use xlink:href="#rim" fill="#404040">
                        <set attributeName="fill" to="#808080" begin="arrowUp.mouseover" end="arrowUp.mouseout"/>
                  </use>
                  <path fill="none" stroke="white" stroke-width="1.5" d="M0,-3.0v7 M-2.5,-0.5L0,-3.0L2.5,-0.5"/>
                </g>
                <g id="arrowRight" xlink:href="#dirArrow" transform="rotate(90) translate(36 -43)" onmousedown="handlePan(1,0)">
                  <use xlink:href="#rim" fill="#404040">
                        <set attributeName="fill" to="#808080" begin="arrowRight.mouseover" end="arrowRight.mouseout"/>
                  </use>
                  <path fill="none" stroke="white" stroke-width="1.5" d="M0,-3.0v7 M-2.5,-0.5L0,-3.0L2.5,-0.5"/>
                </g>
                <g id="arrowDown" xlink:href="#dirArrow" transform="rotate(180) translate(-30 -48)" onmousedown="handlePan(0,1)">
                  <use xlink:href="#rim" fill="#404040">
                        <set attributeName="fill" to="#808080" begin="arrowDown.mouseover" end="arrowDown.mouseout"/>
                  </use>
                  <path fill="none" stroke="white" stroke-width="1.5" d="M0,-3.0v7 M-2.5,-0.5L0,-3.0L2.5,-0.5"/>
                </g>
                <g id="arrowLeft" xlink:href="#dirArrow" transform="rotate(270) translate(-36 17)" onmousedown="handlePan(-1,0)">
                  <use xlink:href="#rim" fill="#404040">
                        <set attributeName="fill" to="#808080" begin="arrowLeft.mouseover" end="arrowLeft.mouseout"/>
                  </use>
                  <path fill="none" stroke="white" stroke-width="1.5" d="M0,-3.0v7 M-2.5,-0.5L0,-3.0L2.5,-0.5"/>
                </g>
        </g>
        <svg viewBox="0 0 15 15" width="100%" height="30px" preserveAspectRatio="xMaxYMin meet">
         <g id="arrow_out" transform="scale(0.3 0.3)">
          <a xlink:href="StmtWrapper_8h__incl_org.svg" target="_base">
           <rect id="button" ry="5" rx="5" y="6" x="6" height="38" width="38"
                fill="#f2f5e9" fill-opacity="0.5" stroke="#606060" stroke-width="1.0"/>
           <path id="arrow"
             d="M 11.500037,31.436501 C 11.940474,20.09759 22.043105,11.32322 32.158766,21.979434 L 37.068811,17.246167 C 37.068811,17.246167 37.088388,32 37.088388,32 L 22.160133,31.978069 C 22.160133,31.978069 26.997745,27.140456 26.997745,27.140456 C 18.528582,18.264221 13.291696,25.230495 11.500037,31.436501 z"
             style="fill:#404040;"/>
          </a>
         </g>
        </svg>
</svg>
