<?xml version="1.0" encoding="UTF-8" standalone="no"?>
<!DOCTYPE svg PUBLIC "-//W3C//DTD SVG 1.1//EN"
 "http://www.w3.org/Graphics/SVG/1.1/DTD/svg11.dtd">
<!-- Generated by graphviz version 2.43.0 (0)
 -->
<!-- Title: MACVETH/include/StmtWrapper.h Pages: 1 -->
<!--zoomable 408 -->
<svg id="main" version="1.1" xmlns="http://www.w3.org/2000/svg" xmlns:xlink="http://www.w3.org/1999/xlink" xml:space="preserve" onload="init(evt)">
<style type="text/css"><![CDATA[
.edge:hover path { stroke: red; }
.edge:hover polygon { stroke: red; fill: red; }
]]></style>
<script type="text/javascript"><![CDATA[
var edges = document.getElementsByTagName('g');
if (edges && edges.length) {
  for (var i=0;i<edges.length;i++) {
    if (edges[i].id.substr(0,4)=='edge') {
      edges[i].setAttribute('class','edge');
    }
  }
}
]]></script>
        <defs>
                <circle id="rim" cx="0" cy="0" r="7"/>
                <circle id="rim2" cx="0" cy="0" r="3.5"/>
                <g id="zoomPlus">
                        <use xlink:href="#rim" fill="#404040">
                                <set attributeName="fill" to="#808080" begin="zoomplus.mouseover" end="zoomplus.mouseout"/>
                        </use>
                        <path d="M-4,0h8M0,-4v8" fill="none" stroke="white" stroke-width="1.5" pointer-events="none"/>
                </g>
                <g id="zoomMin">
                        <use xlink:href="#rim" fill="#404040">
                                <set attributeName="fill" to="#808080" begin="zoomminus.mouseover" end="zoomminus.mouseout"/>
                        </use>
                        <path d="M-4,0h8" fill="none" stroke="white" stroke-width="1.5" pointer-events="none"/>
                </g>
                <g id="dirArrow">
                        <path fill="none" stroke="white" stroke-width="1.5" d="M0,-3.0v7 M-2.5,-0.5L0,-3.0L2.5,-0.5"/>
                </g>
               <g id="resetDef">
                       <use xlink:href="#rim2" fill="#404040">
                               <set attributeName="fill" to="#808080" begin="reset.mouseover" end="reset.mouseout"/>
                       </use>
               </g>
        </defs>

<script type="text/javascript">
var viewWidth = 755;
var viewHeight = 408;
var sectionId = 'dynsection-1';
</script>
<script xlink:href="svgpan.js"/>
<svg id="graph" class="graph">
<g id="viewport">
<title>MACVETH/include/StmtWrapper.h</title>
<!-- Node1 -->
<g id="node1" class="node">
<title>Node1</title>
<g id="a_node1"><a xlink:title=" ">
<polygon fill="#bfbfbf" stroke="black" points="477.48,-380.5 477.48,-399.5 656.48,-399.5 656.48,-380.5 477.48,-380.5"/>
<text text-anchor="middle" x="566.98" y="-387.5" font-family="Helvetica,sans-Serif" font-size="10.00">MACVETH/include/StmtWrapper.h</text>
</a>
</g>
</g>
<!-- Node2 -->
<g id="node2" class="node">
<title>Node2</title>
<g id="a_node2"><a xlink:href="MVCostModel_8h.html" target="_top" xlink:title=" ">
<polygon fill="none" stroke="black" points="217.98,-56.5 217.98,-86.5 375.98,-86.5 375.98,-56.5 217.98,-56.5"/>
<text text-anchor="start" x="225.98" y="-74.5" font-family="Helvetica,sans-Serif" font-size="10.00">MACVETH/include/CostModel</text>
<text text-anchor="middle" x="296.98" y="-63.5" font-family="Helvetica,sans-Serif" font-size="10.00">/MVCostModel.h</text>
</a>
</g>
</g>
<!-- Node1&#45;&gt;Node2 -->
<g id="edge1" class="edge">
<title>Node1&#45;&gt;Node2</title>
<path fill="none" stroke="midnightblue" d="M466.97,-388.77C304.7,-385.67 1.98,-367.3 1.98,-273.5 1.98,-273.5 1.98,-273.5 1.98,-204.5 1.98,-167.31 -5.94,-148.66 20.98,-123 24.61,-119.54 137.53,-99.68 217.8,-85.92"/>
<polygon fill="midnightblue" stroke="midnightblue" points="467.4,-392.28 477.46,-388.96 467.52,-385.28 467.4,-392.28"/>
</g>
<!-- Node3 -->
<g id="node3" class="node">
<title>Node3</title>
<g id="a_node3"><a xlink:href="MVFrontend_8h.html" target="_top" xlink:title=" ">
<polygon fill="none" stroke="black" points="487.98,-62 487.98,-81 661.98,-81 661.98,-62 487.98,-62"/>
<text text-anchor="middle" x="574.98" y="-69" font-family="Helvetica,sans-Serif" font-size="10.00">MACVETH/include/MVFrontend.h</text>
</a>
</g>
</g>
<!-- Node1&#45;&gt;Node3 -->
<g id="edge2" class="edge">
<title>Node1&#45;&gt;Node3</title>
<path fill="none" stroke="midnightblue" d="M622.06,-377.84C674.67,-363.6 745.98,-333.26 745.98,-273.5 745.98,-273.5 745.98,-273.5 745.98,-204.5 745.98,-167.31 752.05,-150.48 726.98,-123 706.46,-100.5 675.68,-88.01 647.18,-81.09"/>
<polygon fill="midnightblue" stroke="midnightblue" points="620.96,-374.51 612.15,-380.4 622.71,-381.29 620.96,-374.51"/>
</g>
<!-- Node5 -->
<g id="node5" class="node">
<title>Node5</title>
<g id="a_node5"><a xlink:href="MVRewriter_8h.html" target="_top" xlink:title=" ">
<polygon fill="none" stroke="black" points="545.98,-129 545.98,-148 717.98,-148 717.98,-129 545.98,-129"/>
<text text-anchor="middle" x="631.98" y="-136" font-family="Helvetica,sans-Serif" font-size="10.00">MACVETH/include/MVRewriter.h</text>
</a>
</g>
</g>
<!-- Node1&#45;&gt;Node5 -->
<g id="edge4" class="edge">
<title>Node1&#45;&gt;Node5</title>
<path fill="none" stroke="midnightblue" d="M573.04,-370.7C579.6,-350.55 590.18,-317.15 597.98,-288 612.06,-235.37 625.5,-171.28 630.21,-148.26"/>
<polygon fill="midnightblue" stroke="midnightblue" points="569.64,-369.82 569.85,-380.41 576.29,-372.01 569.64,-369.82"/>
</g>
<!-- Node6 -->
<g id="node6" class="node">
<title>Node6</title>
<g id="a_node6"><a xlink:href="Node_8h.html" target="_top" xlink:title=" ">
<polygon fill="none" stroke="black" points="396.48,-324.5 396.48,-343.5 537.48,-343.5 537.48,-324.5 396.48,-324.5"/>
<text text-anchor="middle" x="466.98" y="-331.5" font-family="Helvetica,sans-Serif" font-size="10.00">MACVETH/include/Node.h</text>
</a>
</g>
</g>
<!-- Node1&#45;&gt;Node6 -->
<g id="edge6" class="edge">
<title>Node1&#45;&gt;Node6</title>
<path fill="none" stroke="midnightblue" d="M541.89,-375.45C523.43,-365.48 498.88,-352.23 483.01,-343.65"/>
<polygon fill="midnightblue" stroke="midnightblue" points="540.45,-378.65 550.91,-380.32 543.78,-372.49 540.45,-378.65"/>
</g>
<!-- Node4 -->
<g id="node4" class="node">
<title>Node4</title>
<g id="a_node4"><a xlink:href="macveth_8cpp.html" target="_top" xlink:title=" ">
<polygon fill="none" stroke="black" points="501.98,-0.5 501.98,-19.5 647.98,-19.5 647.98,-0.5 501.98,-0.5"/>
<text text-anchor="middle" x="574.98" y="-7.5" font-family="Helvetica,sans-Serif" font-size="10.00">MACVETH/lib/macveth.cpp</text>
</a>
</g>
</g>
<!-- Node3&#45;&gt;Node4 -->
<g id="edge3" class="edge">
<title>Node3&#45;&gt;Node4</title>
<path fill="none" stroke="midnightblue" d="M574.98,-51.82C574.98,-41 574.98,-27.9 574.98,-19.51"/>
<polygon fill="midnightblue" stroke="midnightblue" points="571.48,-51.98 574.98,-61.98 578.48,-51.98 571.48,-51.98"/>
</g>
<!-- Node5&#45;&gt;Node3 -->
<g id="edge5" class="edge">
<title>Node5&#45;&gt;Node3</title>
<path fill="none" stroke="midnightblue" d="M617.63,-121.13C606.48,-108.42 591.47,-91.3 582.55,-81.13"/>
<polygon fill="midnightblue" stroke="midnightblue" points="615.07,-123.52 624.29,-128.73 620.33,-118.91 615.07,-123.52"/>
</g>
<!-- Node7 -->
<g id="node7" class="node">
<title>Node7</title>
<g id="a_node7"><a xlink:href="CDAG_8h.html" target="_top" xlink:title=" ">
<polygon fill="none" stroke="black" points="444.98,-263 444.98,-282 588.98,-282 588.98,-263 444.98,-263"/>
<text text-anchor="middle" x="516.98" y="-270" font-family="Helvetica,sans-Serif" font-size="10.00">MACVETH/include/CDAG.h</text>
</a>
</g>
</g>
<!-- Node6&#45;&gt;Node7 -->
<g id="edge7" class="edge">
<title>Node6&#45;&gt;Node7</title>
<path fill="none" stroke="midnightblue" d="M480.71,-316.67C490.13,-305.45 502.26,-291.02 509.83,-282.01"/>
<polygon fill="midnightblue" stroke="midnightblue" points="477.9,-314.57 474.14,-324.48 483.26,-319.07 477.9,-314.57"/>
</g>
<!-- Node8 -->
<g id="node8" class="node">
<title>Node8</title>
<g id="a_node8"><a xlink:href="PlcmntAlgo_8h.html" target="_top" xlink:title=" ">
<polygon fill="none" stroke="black" points="331.48,-196 331.48,-215 502.48,-215 502.48,-196 331.48,-196"/>
<text text-anchor="middle" x="416.98" y="-203" font-family="Helvetica,sans-Serif" font-size="10.00">MACVETH/include/PlcmntAlgo.h</text>
</a>
</g>
</g>
<!-- Node6&#45;&gt;Node8 -->
<g id="edge20" class="edge">
<title>Node6&#45;&gt;Node8</title>
<path fill="none" stroke="midnightblue" d="M453.3,-316.38C447.22,-308.25 440.43,-298.07 435.98,-288 424.94,-263.02 419.87,-230.77 417.95,-215.41"/>
<polygon fill="midnightblue" stroke="midnightblue" points="450.57,-318.57 459.49,-324.29 456.09,-314.26 450.57,-318.57"/>
</g>
<!-- Node13 -->
<g id="node13" class="node">
<title>Node13</title>
<g id="a_node13"><a xlink:href="VectorIR_8h.html" target="_top" xlink:title=" ">
<polygon fill="none" stroke="black" points="142.98,-257.5 142.98,-287.5 312.98,-287.5 312.98,-257.5 142.98,-257.5"/>
<text text-anchor="start" x="150.98" y="-275.5" font-family="Helvetica,sans-Serif" font-size="10.00">MACVETH/include/Vectorization</text>
<text text-anchor="middle" x="227.98" y="-264.5" font-family="Helvetica,sans-Serif" font-size="10.00">/VectorIR.h</text>
</a>
</g>
</g>
<!-- Node6&#45;&gt;Node13 -->
<g id="edge21" class="edge">
<title>Node6&#45;&gt;Node13</title>
<path fill="none" stroke="midnightblue" d="M422.73,-321.98C383.69,-312.27 326.59,-298.05 284.31,-287.52"/>
<polygon fill="midnightblue" stroke="midnightblue" points="422.19,-325.46 432.74,-324.48 423.88,-318.66 422.19,-325.46"/>
</g>
<!-- Node7&#45;&gt;Node3 -->
<g id="edge8" class="edge">
<title>Node7&#45;&gt;Node3</title>
<path fill="none" stroke="midnightblue" d="M516.52,-252.4C516.48,-223.34 519.01,-166.78 536.98,-123 543.73,-106.56 557.15,-90.7 566.1,-81.27"/>
<polygon fill="midnightblue" stroke="midnightblue" points="513.03,-252.78 516.65,-262.74 520.03,-252.69 513.03,-252.78"/>
</g>
<!-- Node7&#45;&gt;Node5 -->
<g id="edge9" class="edge">
<title>Node7&#45;&gt;Node5</title>
<path fill="none" stroke="midnightblue" d="M531.33,-255.03C556.03,-226.67 605.76,-169.6 624.56,-148.02"/>
<polygon fill="midnightblue" stroke="midnightblue" points="528.46,-253 524.53,-262.84 533.73,-257.6 528.46,-253"/>
</g>
<!-- Node7&#45;&gt;Node8 -->
<g id="edge10" class="edge">
<title>Node7&#45;&gt;Node8</title>
<path fill="none" stroke="midnightblue" d="M495.09,-257.27C475.29,-244.4 446.79,-225.88 430.25,-215.13"/>
<polygon fill="midnightblue" stroke="midnightblue" points="493.2,-260.22 503.49,-262.73 497.02,-254.35 493.2,-260.22"/>
</g>
<!-- Node9 -->
<g id="node9" class="node">
<title>Node9</title>
<g id="a_node9"><a xlink:href="SIMDBackEnd_8h.html" target="_top" xlink:title=" ">
<polygon fill="none" stroke="black" points="142.98,-190.5 142.98,-220.5 312.98,-220.5 312.98,-190.5 142.98,-190.5"/>
<text text-anchor="start" x="150.98" y="-208.5" font-family="Helvetica,sans-Serif" font-size="10.00">MACVETH/include/Vectorization</text>
<text text-anchor="middle" x="227.98" y="-197.5" font-family="Helvetica,sans-Serif" font-size="10.00">/SIMD/SIMDBackEnd.h</text>
</a>
</g>
</g>
<!-- Node7&#45;&gt;Node9 -->
<g id="edge11" class="edge">
<title>Node7&#45;&gt;Node9</title>
<path fill="none" stroke="midnightblue" d="M468.9,-260.69C420.01,-249.69 344.03,-232.6 290.49,-220.56"/>
<polygon fill="midnightblue" stroke="midnightblue" points="468.38,-264.16 478.9,-262.94 469.91,-257.33 468.38,-264.16"/>
</g>
<!-- Node9&#45;&gt;Node2 -->
<g id="edge12" class="edge">
<title>Node9&#45;&gt;Node2</title>
<path fill="none" stroke="midnightblue" d="M240.02,-181.48C254.34,-154.07 277.8,-109.19 289.65,-86.52"/>
<polygon fill="midnightblue" stroke="midnightblue" points="236.9,-179.89 235.37,-190.37 243.1,-183.13 236.9,-179.89"/>
</g>
<!-- Node9&#45;&gt;Node3 -->
<g id="edge15" class="edge">
<title>Node9&#45;&gt;Node3</title>
<path fill="none" stroke="midnightblue" d="M319.42,-188.64C373.3,-178.53 435.71,-165.26 460.98,-154 482.5,-144.41 484.83,-136.72 503.98,-123 524.64,-108.2 548.76,-91.08 562.9,-81.05"/>
<polygon fill="midnightblue" stroke="midnightblue" points="318.67,-185.22 309.47,-190.49 319.95,-192.1 318.67,-185.22"/>
</g>
<!-- Node9&#45;&gt;Node5 -->
<g id="edge16" class="edge">
<title>Node9&#45;&gt;Node5</title>
<path fill="none" stroke="midnightblue" d="M323.23,-189.17C403.08,-176.33 514.16,-158.46 579.02,-148.02"/>
<polygon fill="midnightblue" stroke="midnightblue" points="322.48,-185.75 313.17,-190.79 323.59,-192.66 322.48,-185.75"/>
</g>
<!-- Node10 -->
<g id="node10" class="node">
<title>Node10</title>
<g id="a_node10"><a xlink:href="SIMDCostInfo_8h.html" target="_top" xlink:title=" ">
<polygon fill="none" stroke="black" points="293.98,-123.5 293.98,-153.5 451.98,-153.5 451.98,-123.5 293.98,-123.5"/>
<text text-anchor="start" x="301.98" y="-141.5" font-family="Helvetica,sans-Serif" font-size="10.00">MACVETH/include/CostModel</text>
<text text-anchor="middle" x="372.98" y="-130.5" font-family="Helvetica,sans-Serif" font-size="10.00">/SIMDCostInfo.h</text>
</a>
</g>
</g>
<!-- Node9&#45;&gt;Node10 -->
<g id="edge13" class="edge">
<title>Node9&#45;&gt;Node10</title>
<path fill="none" stroke="midnightblue" d="M268.65,-186.27C291.75,-175.92 320.22,-163.15 341.58,-153.58"/>
<polygon fill="midnightblue" stroke="midnightblue" points="267.14,-183.11 259.44,-190.4 270,-189.5 267.14,-183.11"/>
</g>
<!-- Node11 -->
<g id="node11" class="node">
<title>Node11</title>
<g id="a_node11"><a xlink:href="AVX2BackEnd_8h.html" target="_top" xlink:title=" ">
<polygon fill="none" stroke="black" points="29.98,-123.5 29.98,-153.5 199.98,-153.5 199.98,-123.5 29.98,-123.5"/>
<text text-anchor="start" x="37.98" y="-141.5" font-family="Helvetica,sans-Serif" font-size="10.00">MACVETH/include/Vectorization</text>
<text text-anchor="middle" x="114.98" y="-130.5" font-family="Helvetica,sans-Serif" font-size="10.00">/SIMD/AVX2/AVX2BackEnd.h</text>
</a>
</g>
</g>
<!-- Node9&#45;&gt;Node11 -->
<g id="edge17" class="edge">
<title>Node9&#45;&gt;Node11</title>
<path fill="none" stroke="midnightblue" d="M194.59,-185.3C176.91,-175.12 155.58,-162.85 139.45,-153.58"/>
<polygon fill="midnightblue" stroke="midnightblue" points="193.05,-188.44 203.46,-190.4 196.54,-182.38 193.05,-188.44"/>
</g>
<!-- Node12 -->
<g id="node12" class="node">
<title>Node12</title>
<g id="a_node12"><a xlink:href="SIMDBackEndFactory_8h.html" target="_top" xlink:title=" ">
<polygon fill="none" stroke="black" points="29.98,-56.5 29.98,-86.5 199.98,-86.5 199.98,-56.5 29.98,-56.5"/>
<text text-anchor="start" x="37.98" y="-74.5" font-family="Helvetica,sans-Serif" font-size="10.00">MACVETH/include/Vectorization</text>
<text text-anchor="middle" x="114.98" y="-63.5" font-family="Helvetica,sans-Serif" font-size="10.00">/SIMD/SIMDBackEndFactory.h</text>
</a>
</g>
</g>
<!-- Node9&#45;&gt;Node12 -->
<g id="edge19" class="edge">
<title>Node9&#45;&gt;Node12</title>
<path fill="none" stroke="midnightblue" d="M227.51,-180.32C226.02,-162.81 221.56,-139.43 208.98,-123 196.26,-106.38 176.45,-94.59 158.29,-86.61"/>
<polygon fill="midnightblue" stroke="midnightblue" points="224.02,-180.56 228.09,-190.34 231,-180.16 224.02,-180.56"/>
</g>
<!-- Node10&#45;&gt;Node2 -->
<g id="edge14" class="edge">
<title>Node10&#45;&gt;Node2</title>
<path fill="none" stroke="midnightblue" d="M348.88,-116.88C337.33,-107.01 323.79,-95.43 313.44,-86.58"/>
<polygon fill="midnightblue" stroke="midnightblue" points="346.62,-119.56 356.49,-123.4 351.17,-114.24 346.62,-119.56"/>
</g>
<!-- Node11&#45;&gt;Node12 -->
<g id="edge18" class="edge">
<title>Node11&#45;&gt;Node12</title>
<path fill="none" stroke="midnightblue" d="M114.98,-113.11C114.98,-104.15 114.98,-94.32 114.98,-86.58"/>
<polygon fill="midnightblue" stroke="midnightblue" points="111.48,-113.4 114.98,-123.4 118.48,-113.4 111.48,-113.4"/>
</g>
<!-- Node13&#45;&gt;Node9 -->
<g id="edge23" class="edge">
<title>Node13&#45;&gt;Node9</title>
<path fill="none" stroke="midnightblue" d="M227.98,-247.11C227.98,-238.15 227.98,-228.32 227.98,-220.58"/>
<polygon fill="midnightblue" stroke="midnightblue" points="224.48,-247.4 227.98,-257.4 231.48,-247.4 224.48,-247.4"/>
</g>
<!-- Node13&#45;&gt;Node11 -->
<g id="edge22" class="edge">
<title>Node13&#45;&gt;Node11</title>
<path fill="none" stroke="midnightblue" d="M175.21,-252.93C159.91,-245.21 144.52,-234.76 133.98,-221 118.79,-201.16 115.43,-171.19 114.87,-153.66"/>
<polygon fill="midnightblue" stroke="midnightblue" points="174.13,-256.3 184.67,-257.39 177.11,-249.96 174.13,-256.3"/>
</g>
</g>
</svg>
        <g id="navigator" transform="translate(0 0)" fill="#404254">
                <rect fill="#f2f5e9" fill-opacity="0.5" stroke="#606060" stroke-width=".5" x="0" y="0" width="60" height="60"/>
                <use id="zoomplus" xlink:href="#zoomPlus" x="17" y="9" onmousedown="handleZoom(evt,'in')"/>
                <use id="zoomminus" xlink:href="#zoomMin" x="42" y="9" onmousedown="handleZoom(evt,'out')"/>
                <use id="reset" xlink:href="#resetDef" x="30" y="36" onmousedown="handleReset()"/>
                <g id="arrowUp" xlink:href="#dirArrow" transform="translate(30 24)" onmousedown="handlePan(0,-1)">
                  <use xlink:href="#rim" fill="#404040">
                        <set attributeName="fill" to="#808080" begin="arrowUp.mouseover" end="arrowUp.mouseout"/>
                  </use>
                  <path fill="none" stroke="white" stroke-width="1.5" d="M0,-3.0v7 M-2.5,-0.5L0,-3.0L2.5,-0.5"/>
                </g>
                <g id="arrowRight" xlink:href="#dirArrow" transform="rotate(90) translate(36 -43)" onmousedown="handlePan(1,0)">
                  <use xlink:href="#rim" fill="#404040">
                        <set attributeName="fill" to="#808080" begin="arrowRight.mouseover" end="arrowRight.mouseout"/>
                  </use>
                  <path fill="none" stroke="white" stroke-width="1.5" d="M0,-3.0v7 M-2.5,-0.5L0,-3.0L2.5,-0.5"/>
                </g>
                <g id="arrowDown" xlink:href="#dirArrow" transform="rotate(180) translate(-30 -48)" onmousedown="handlePan(0,1)">
                  <use xlink:href="#rim" fill="#404040">
                        <set attributeName="fill" to="#808080" begin="arrowDown.mouseover" end="arrowDown.mouseout"/>
                  </use>
                  <path fill="none" stroke="white" stroke-width="1.5" d="M0,-3.0v7 M-2.5,-0.5L0,-3.0L2.5,-0.5"/>
                </g>
                <g id="arrowLeft" xlink:href="#dirArrow" transform="rotate(270) translate(-36 17)" onmousedown="handlePan(-1,0)">
                  <use xlink:href="#rim" fill="#404040">
                        <set attributeName="fill" to="#808080" begin="arrowLeft.mouseover" end="arrowLeft.mouseout"/>
                  </use>
                  <path fill="none" stroke="white" stroke-width="1.5" d="M0,-3.0v7 M-2.5,-0.5L0,-3.0L2.5,-0.5"/>
                </g>
        </g>
        <svg viewBox="0 0 15 15" width="100%" height="30px" preserveAspectRatio="xMaxYMin meet">
         <g id="arrow_out" transform="scale(0.3 0.3)">
          <a xlink:href="StmtWrapper_8h__dep__incl_org.svg" target="_base">
           <rect id="button" ry="5" rx="5" y="6" x="6" height="38" width="38"
                fill="#f2f5e9" fill-opacity="0.5" stroke="#606060" stroke-width="1.0"/>
           <path id="arrow"
             d="M 11.500037,31.436501 C 11.940474,20.09759 22.043105,11.32322 32.158766,21.979434 L 37.068811,17.246167 C 37.068811,17.246167 37.088388,32 37.088388,32 L 22.160133,31.978069 C 22.160133,31.978069 26.997745,27.140456 26.997745,27.140456 C 18.528582,18.264221 13.291696,25.230495 11.500037,31.436501 z"
             style="fill:#404040;"/>
          </a>
         </g>
        </svg>
</svg>
