<?xml version="1.0" encoding="UTF-8" standalone="no"?>
<!DOCTYPE svg PUBLIC "-//W3C//DTD SVG 1.1//EN"
 "http://www.w3.org/Graphics/SVG/1.1/DTD/svg11.dtd">
<!-- Generated by graphviz version 2.43.0 (0)
 -->
<!-- Title: macveth::StmtWrapper::LoopInfo Pages: 1 -->
<!--zoomable 150 -->
<svg id="main" version="1.1" xmlns="http://www.w3.org/2000/svg" xmlns:xlink="http://www.w3.org/1999/xlink" xml:space="preserve" onload="init(evt)">
<style type="text/css"><![CDATA[
.edge:hover path { stroke: red; }
.edge:hover polygon { stroke: red; fill: red; }
]]></style>
<script type="text/javascript"><![CDATA[
var edges = document.getElementsByTagName('g');
if (edges && edges.length) {
  for (var i=0;i<edges.length;i++) {
    if (edges[i].id.substr(0,4)=='edge') {
      edges[i].setAttribute('class','edge');
    }
  }
}
]]></script>
        <defs>
                <circle id="rim" cx="0" cy="0" r="7"/>
                <circle id="rim2" cx="0" cy="0" r="3.5"/>
                <g id="zoomPlus">
                        <use xlink:href="#rim" fill="#404040">
                                <set attributeName="fill" to="#808080" begin="zoomplus.mouseover" end="zoomplus.mouseout"/>
                        </use>
                        <path d="M-4,0h8M0,-4v8" fill="none" stroke="white" stroke-width="1.5" pointer-events="none"/>
                </g>
                <g id="zoomMin">
                        <use xlink:href="#rim" fill="#404040">
                                <set attributeName="fill" to="#808080" begin="zoomminus.mouseover" end="zoomminus.mouseout"/>
                        </use>
                        <path d="M-4,0h8" fill="none" stroke="white" stroke-width="1.5" pointer-events="none"/>
                </g>
                <g id="dirArrow">
                        <path fill="none" stroke="white" stroke-width="1.5" d="M0,-3.0v7 M-2.5,-0.5L0,-3.0L2.5,-0.5"/>
                </g>
               <g id="resetDef">
                       <use xlink:href="#rim2" fill="#404040">
                               <set attributeName="fill" to="#808080" begin="reset.mouseover" end="reset.mouseout"/>
                       </use>
               </g>
        </defs>

<script type="text/javascript">
var viewWidth = 791;
var viewHeight = 150;
var sectionId = 'dynsection-0';
</script>
<script xlink:href="svgpan.js"/>
<svg id="graph" class="graph">
<g id="viewport">
<title>macveth::StmtWrapper::LoopInfo</title>
<!-- Node1 -->
<g id="node1" class="node">
<title>Node1</title>
<g id="a_node1"><a xlink:title="Helper structure to handle the loop information for this statement.">
<polygon fill="#bfbfbf" stroke="black" points="304.5,-0.5 304.5,-30.5 434.5,-30.5 434.5,-0.5 304.5,-0.5"/>
<text text-anchor="start" x="312.5" y="-18.5" font-family="Helvetica,sans-Serif" font-size="10.00">macveth::StmtWrapper</text>
<text text-anchor="middle" x="369.5" y="-7.5" font-family="Helvetica,sans-Serif" font-size="10.00">::LoopInfo</text>
</a>
</g>
</g>
<!-- Node2 -->
<g id="node2" class="node">
<title>Node2</title>
<g id="a_node2"><a xlink:title=" ">
<polygon fill="none" stroke="#bfbfbf" points="0,-122.5 0,-141.5 91,-141.5 91,-122.5 0,-122.5"/>
<text text-anchor="middle" x="45.5" y="-129.5" font-family="Helvetica,sans-Serif" font-size="10.00">SourceLocation</text>
</a>
</g>
</g>
<!-- Node2&#45;&gt;Node1 -->
<g id="edge1" class="edge">
<title>Node2&#45;&gt;Node1</title>
<path fill="none" stroke="#9a32cd" stroke-dasharray="5,2" d="M55.48,-113.78C67.69,-94.48 90.24,-63.93 118.5,-49 149.77,-32.48 240.99,-23.88 304.38,-19.78"/>
<polygon fill="#9a32cd" stroke="#9a32cd" points="52.4,-112.11 50.21,-122.47 58.39,-115.74 52.4,-112.11"/>
<text text-anchor="middle" x="137.5" y="-79.5" font-family="Helvetica,sans-Serif" font-size="10.00"> EndLoc</text>
<text text-anchor="middle" x="137.5" y="-68.5" font-family="Helvetica,sans-Serif" font-size="10.00">BegLoc</text>
</g>
<!-- Node3 -->
<g id="node3" class="node">
<title>Node3</title>
<g id="a_node3"><a xlink:title=" ">
<polygon fill="none" stroke="#bfbfbf" points="109,-122.5 109,-141.5 212,-141.5 212,-122.5 109,-122.5"/>
<text text-anchor="middle" x="160.5" y="-129.5" font-family="Helvetica,sans-Serif" font-size="10.00">CharSourceRange</text>
</a>
</g>
</g>
<!-- Node3&#45;&gt;Node1 -->
<g id="edge2" class="edge">
<title>Node3&#45;&gt;Node1</title>
<path fill="none" stroke="#9a32cd" stroke-dasharray="5,2" d="M159.59,-112.3C159.77,-93.53 163.21,-65.14 180.5,-49 198.21,-32.47 256.84,-24.23 304.16,-20.2"/>
<polygon fill="#9a32cd" stroke="#9a32cd" points="156.09,-112.39 159.79,-122.31 163.09,-112.25 156.09,-112.39"/>
<text text-anchor="middle" x="207.5" y="-85" font-family="Helvetica,sans-Serif" font-size="10.00"> SRVarInit</text>
<text text-anchor="middle" x="207.5" y="-74" font-family="Helvetica,sans-Serif" font-size="10.00">SRVarCond</text>
<text text-anchor="middle" x="207.5" y="-63" font-family="Helvetica,sans-Serif" font-size="10.00">SRVarInc</text>
</g>
<!-- Node4 -->
<g id="node4" class="node">
<title>Node4</title>
<g id="a_node4"><a xlink:title=" ">
<polygon fill="none" stroke="#bfbfbf" points="230,-122.5 230,-141.5 259,-141.5 259,-122.5 230,-122.5"/>
<text text-anchor="middle" x="244.5" y="-129.5" font-family="Helvetica,sans-Serif" font-size="10.00">int</text>
</a>
</g>
</g>
<!-- Node4&#45;&gt;Node1 -->
<g id="edge3" class="edge">
<title>Node4&#45;&gt;Node1</title>
<path fill="none" stroke="#9a32cd" stroke-dasharray="5,2" d="M240.78,-112.1C238.33,-93.83 237.87,-66.42 252.5,-49 265.45,-33.58 285.02,-25.15 304.47,-20.63"/>
<polygon fill="#9a32cd" stroke="#9a32cd" points="237.35,-112.84 242.44,-122.13 244.26,-111.69 237.35,-112.84"/>
<text text-anchor="middle" x="283.5" y="-74" font-family="Helvetica,sans-Serif" font-size="10.00"> UnrollFactor</text>
</g>
<!-- Node5 -->
<g id="node5" class="node">
<title>Node5</title>
<g id="a_node5"><a xlink:title=" ">
<polygon fill="none" stroke="#bfbfbf" points="306.5,-122.5 306.5,-141.5 344.5,-141.5 344.5,-122.5 306.5,-122.5"/>
<text text-anchor="middle" x="325.5" y="-129.5" font-family="Helvetica,sans-Serif" font-size="10.00">bool</text>
</a>
</g>
</g>
<!-- Node5&#45;&gt;Node1 -->
<g id="edge4" class="edge">
<title>Node5&#45;&gt;Node1</title>
<path fill="none" stroke="#9a32cd" stroke-dasharray="5,2" d="M321.25,-112.27C318.3,-94.89 316.49,-68.81 326.5,-49 330.21,-41.65 336.46,-35.51 343.05,-30.62"/>
<polygon fill="#9a32cd" stroke="#9a32cd" points="317.85,-113.15 323.23,-122.27 324.72,-111.78 317.85,-113.15"/>
<text text-anchor="middle" x="359" y="-79.5" font-family="Helvetica,sans-Serif" font-size="10.00"> Declared</text>
<text text-anchor="middle" x="359" y="-68.5" font-family="Helvetica,sans-Serif" font-size="10.00">FullyUnrolled</text>
</g>
<!-- Node6 -->
<g id="node6" class="node">
<title>Node6</title>
<g id="a_node6"><a xlink:title=" ">
<polygon fill="none" stroke="#bfbfbf" points="387,-122.5 387,-141.5 440,-141.5 440,-122.5 387,-122.5"/>
<text text-anchor="middle" x="413.5" y="-129.5" font-family="Helvetica,sans-Serif" font-size="10.00">Opcode</text>
</a>
</g>
</g>
<!-- Node6&#45;&gt;Node1 -->
<g id="edge5" class="edge">
<title>Node6&#45;&gt;Node1</title>
<path fill="none" stroke="#9a32cd" stroke-dasharray="5,2" d="M410.22,-111.74C406.88,-94.71 400.86,-69.48 391.5,-49 388.61,-42.68 384.53,-36.24 380.67,-30.77"/>
<polygon fill="#9a32cd" stroke="#9a32cd" points="406.86,-112.85 412.11,-122.05 413.75,-111.58 406.86,-112.85"/>
<text text-anchor="middle" x="453.5" y="-74" font-family="Helvetica,sans-Serif" font-size="10.00"> UpperBoundComp</text>
</g>
<!-- Node7 -->
<g id="node7" class="node">
<title>Node7</title>
<g id="a_node7"><a xlink:title=" ">
<polygon fill="none" stroke="#bfbfbf" points="506.5,-122.5 506.5,-141.5 550.5,-141.5 550.5,-122.5 506.5,-122.5"/>
<text text-anchor="middle" x="528.5" y="-129.5" font-family="Helvetica,sans-Serif" font-size="10.00">string</text>
</a>
</g>
</g>
<!-- Node7&#45;&gt;Node1 -->
<g id="edge6" class="edge">
<title>Node7&#45;&gt;Node1</title>
<path fill="none" stroke="#9a32cd" stroke-dasharray="5,2" d="M527.92,-112.18C526.3,-93.52 520.89,-65.41 503.5,-49 485.04,-31.59 458.9,-23.02 434.6,-18.96"/>
<polygon fill="#9a32cd" stroke="#9a32cd" points="524.44,-112.61 528.51,-122.39 531.42,-112.2 524.44,-112.61"/>
<text text-anchor="middle" x="563.5" y="-85" font-family="Helvetica,sans-Serif" font-size="10.00"> Dim</text>
<text text-anchor="middle" x="563.5" y="-74" font-family="Helvetica,sans-Serif" font-size="10.00">StrUpperBound</text>
<text text-anchor="middle" x="563.5" y="-63" font-family="Helvetica,sans-Serif" font-size="10.00">StrInitVal</text>
</g>
<!-- Node8 -->
<g id="node8" class="node">
<title>Node8</title>
<g id="a_node8"><a xlink:title=" ">
<polygon fill="none" stroke="#bfbfbf" points="606.5,-122.5 606.5,-141.5 644.5,-141.5 644.5,-122.5 606.5,-122.5"/>
<text text-anchor="middle" x="625.5" y="-129.5" font-family="Helvetica,sans-Serif" font-size="10.00">long</text>
</a>
</g>
</g>
<!-- Node8&#45;&gt;Node1 -->
<g id="edge7" class="edge">
<title>Node8&#45;&gt;Node1</title>
<path fill="none" stroke="#9a32cd" stroke-dasharray="5,2" d="M626.02,-112.43C625.47,-93.53 621.43,-64.83 603.5,-49 579.1,-27.45 494.98,-20.13 434.58,-17.68"/>
<polygon fill="#9a32cd" stroke="#9a32cd" points="622.52,-112.49 626.02,-122.49 629.52,-112.49 622.52,-112.49"/>
<text text-anchor="middle" x="659" y="-96" font-family="Helvetica,sans-Serif" font-size="10.00"> StepUnrolled</text>
<text text-anchor="middle" x="659" y="-85" font-family="Helvetica,sans-Serif" font-size="10.00">UpperBound</text>
<text text-anchor="middle" x="659" y="-74" font-family="Helvetica,sans-Serif" font-size="10.00">InitVal</text>
<text text-anchor="middle" x="659" y="-63" font-family="Helvetica,sans-Serif" font-size="10.00">Step</text>
<text text-anchor="middle" x="659" y="-52" font-family="Helvetica,sans-Serif" font-size="10.00">LeftOver</text>
</g>
<!-- Node9 -->
<g id="node9" class="node">
<title>Node9</title>
<g id="a_node9"><a xlink:title=" ">
<polygon fill="none" stroke="#bfbfbf" points="664,-122.5 664,-141.5 767,-141.5 767,-122.5 664,-122.5"/>
<text text-anchor="middle" x="715.5" y="-129.5" font-family="Helvetica,sans-Serif" font-size="10.00">list&lt; std::string &gt;</text>
</a>
</g>
</g>
<!-- Node9&#45;&gt;Node1 -->
<g id="edge8" class="edge">
<title>Node9&#45;&gt;Node1</title>
<path fill="none" stroke="#9a32cd" stroke-dasharray="5,2" d="M716.14,-112.29C715.68,-93.28 711.72,-64.49 693.5,-49 674.22,-32.62 523.5,-23.26 434.57,-19.11"/>
<polygon fill="#9a32cd" stroke="#9a32cd" points="712.64,-112.4 716.08,-122.42 719.64,-112.44 712.64,-112.4"/>
<text text-anchor="middle" x="749" y="-74" font-family="Helvetica,sans-Serif" font-size="10.00"> DimDeclared</text>
</g>
</g>
</svg>
        <g id="navigator" transform="translate(0 0)" fill="#404254">
                <rect fill="#f2f5e9" fill-opacity="0.5" stroke="#606060" stroke-width=".5" x="0" y="0" width="60" height="60"/>
                <use id="zoomplus" xlink:href="#zoomPlus" x="17" y="9" onmousedown="handleZoom(evt,'in')"/>
                <use id="zoomminus" xlink:href="#zoomMin" x="42" y="9" onmousedown="handleZoom(evt,'out')"/>
                <use id="reset" xlink:href="#resetDef" x="30" y="36" onmousedown="handleReset()"/>
                <g id="arrowUp" xlink:href="#dirArrow" transform="translate(30 24)" onmousedown="handlePan(0,-1)">
                  <use xlink:href="#rim" fill="#404040">
                        <set attributeName="fill" to="#808080" begin="arrowUp.mouseover" end="arrowUp.mouseout"/>
                  </use>
                  <path fill="none" stroke="white" stroke-width="1.5" d="M0,-3.0v7 M-2.5,-0.5L0,-3.0L2.5,-0.5"/>
                </g>
                <g id="arrowRight" xlink:href="#dirArrow" transform="rotate(90) translate(36 -43)" onmousedown="handlePan(1,0)">
                  <use xlink:href="#rim" fill="#404040">
                        <set attributeName="fill" to="#808080" begin="arrowRight.mouseover" end="arrowRight.mouseout"/>
                  </use>
                  <path fill="none" stroke="white" stroke-width="1.5" d="M0,-3.0v7 M-2.5,-0.5L0,-3.0L2.5,-0.5"/>
                </g>
                <g id="arrowDown" xlink:href="#dirArrow" transform="rotate(180) translate(-30 -48)" onmousedown="handlePan(0,1)">
                  <use xlink:href="#rim" fill="#404040">
                        <set attributeName="fill" to="#808080" begin="arrowDown.mouseover" end="arrowDown.mouseout"/>
                  </use>
                  <path fill="none" stroke="white" stroke-width="1.5" d="M0,-3.0v7 M-2.5,-0.5L0,-3.0L2.5,-0.5"/>
                </g>
                <g id="arrowLeft" xlink:href="#dirArrow" transform="rotate(270) translate(-36 17)" onmousedown="handlePan(-1,0)">
                  <use xlink:href="#rim" fill="#404040">
                        <set attributeName="fill" to="#808080" begin="arrowLeft.mouseover" end="arrowLeft.mouseout"/>
                  </use>
                  <path fill="none" stroke="white" stroke-width="1.5" d="M0,-3.0v7 M-2.5,-0.5L0,-3.0L2.5,-0.5"/>
                </g>
        </g>
        <svg viewBox="0 0 15 15" width="100%" height="30px" preserveAspectRatio="xMaxYMin meet">
         <g id="arrow_out" transform="scale(0.3 0.3)">
          <a xlink:href="structmacveth_1_1StmtWrapper_1_1LoopInfo__coll__graph_org.svg" target="_base">
           <rect id="button" ry="5" rx="5" y="6" x="6" height="38" width="38"
                fill="#f2f5e9" fill-opacity="0.5" stroke="#606060" stroke-width="1.0"/>
           <path id="arrow"
             d="M 11.500037,31.436501 C 11.940474,20.09759 22.043105,11.32322 32.158766,21.979434 L 37.068811,17.246167 C 37.068811,17.246167 37.088388,32 37.088388,32 L 22.160133,31.978069 C 22.160133,31.978069 26.997745,27.140456 26.997745,27.140456 C 18.528582,18.264221 13.291696,25.230495 11.500037,31.436501 z"
             style="fill:#404040;"/>
          </a>
         </g>
        </svg>
</svg>
