<?xml version="1.0" encoding="UTF-8" standalone="no"?>
<!DOCTYPE svg PUBLIC "-//W3C//DTD SVG 1.1//EN"
 "http://www.w3.org/Graphics/SVG/1.1/DTD/svg11.dtd">
<!-- Generated by graphviz version 2.43.0 (0)
 -->
<!-- Title: macveth::SIMDInfo Pages: 1 -->
<svg width="350pt" height="192pt"
 viewBox="0.00 0.00 350.00 192.00" xmlns="http://www.w3.org/2000/svg" xmlns:xlink="http://www.w3.org/1999/xlink">
<g id="graph0" class="graph" transform="scale(1 1) rotate(0) translate(4 188)">
<title>macveth::SIMDInfo</title>
<!-- Node1 -->
<g id="node1" class="node">
<title>Node1</title>
<g id="a_node1"><a xlink:title="Return value when generating new code.">
<polygon fill="#bfbfbf" stroke="black" points="232,-76.5 232,-95.5 342,-95.5 342,-76.5 232,-76.5"/>
<text text-anchor="middle" x="287" y="-83.5" font-family="Helvetica,sans-Serif" font-size="10.00">macveth::SIMDInfo</text>
</a>
</g>
</g>
<!-- Node2 -->
<g id="node2" class="node">
<title>Node2</title>
<g id="a_node2"><a xlink:title=" ">
<polygon fill="none" stroke="#bfbfbf" points="5,-164.5 5,-183.5 142,-183.5 142,-164.5 5,-164.5"/>
<text text-anchor="middle" x="73.5" y="-171.5" font-family="Helvetica,sans-Serif" font-size="10.00">map&lt; std::string, long &gt;</text>
</a>
</g>
</g>
<!-- Node2&#45;&gt;Node1 -->
<g id="edge1" class="edge">
<title>Node2&#45;&gt;Node1</title>
<path fill="none" stroke="#9a32cd" stroke-dasharray="5,2" d="M125.65,-161.73C132.87,-159.67 140.17,-157.41 147,-155 193.5,-138.62 244.55,-110.4 269.88,-95.64"/>
<polygon fill="#9a32cd" stroke="#9a32cd" points="124.6,-158.39 115.88,-164.41 126.45,-165.14 124.6,-158.39"/>
<text text-anchor="middle" x="189.5" y="-150" font-family="Helvetica,sans-Serif" font-size="10.00"> NumOp</text>
</g>
<!-- Node3 -->
<g id="node3" class="node">
<title>Node3</title>
<g id="a_node3"><a xlink:title=" ">
<polygon fill="none" stroke="#bfbfbf" points="0,-115 0,-145 147,-145 147,-115 0,-115"/>
<text text-anchor="start" x="8" y="-133" font-family="Helvetica,sans-Serif" font-size="10.00">map&lt; std::string, macveth</text>
<text text-anchor="middle" x="73.5" y="-122" font-family="Helvetica,sans-Serif" font-size="10.00">::InstCostInfo &gt;</text>
</a>
</g>
</g>
<!-- Node3&#45;&gt;Node1 -->
<g id="edge2" class="edge">
<title>Node3&#45;&gt;Node1</title>
<path fill="none" stroke="#9a32cd" stroke-dasharray="5,2" d="M156.9,-112.88C175.67,-108.97 195.52,-104.84 214,-101 222.5,-99.23 231.57,-97.34 240.29,-95.53"/>
<polygon fill="#9a32cd" stroke="#9a32cd" points="155.98,-109.49 146.9,-114.95 157.41,-116.35 155.98,-109.49"/>
<text text-anchor="middle" x="189.5" y="-113" font-family="Helvetica,sans-Serif" font-size="10.00"> CostOp</text>
</g>
<!-- Node4 -->
<g id="node4" class="node">
<title>Node4</title>
<g id="a_node4"><a xlink:title=" ">
<polygon fill="none" stroke="#bfbfbf" points="24.5,-76.5 24.5,-95.5 122.5,-95.5 122.5,-76.5 24.5,-76.5"/>
<text text-anchor="middle" x="73.5" y="-83.5" font-family="Helvetica,sans-Serif" font-size="10.00">list&lt; SIMDInst &gt;</text>
</a>
</g>
</g>
<!-- Node4&#45;&gt;Node1 -->
<g id="edge3" class="edge">
<title>Node4&#45;&gt;Node1</title>
<path fill="none" stroke="#9a32cd" stroke-dasharray="5,2" d="M132.98,-86C163.95,-86 201.73,-86 232,-86"/>
<polygon fill="#9a32cd" stroke="#9a32cd" points="132.76,-82.5 122.76,-86 132.76,-89.5 132.76,-82.5"/>
<text text-anchor="middle" x="189.5" y="-89" font-family="Helvetica,sans-Serif" font-size="10.00"> SIMDList</text>
</g>
<!-- Node5 -->
<g id="node5" class="node">
<title>Node5</title>
<g id="a_node5"><a xlink:title=" ">
<polygon fill="none" stroke="#bfbfbf" points="22,-38.5 22,-57.5 125,-57.5 125,-38.5 22,-38.5"/>
<text text-anchor="middle" x="73.5" y="-45.5" font-family="Helvetica,sans-Serif" font-size="10.00">VectorizationType</text>
</a>
</g>
</g>
<!-- Node5&#45;&gt;Node1 -->
<g id="edge4" class="edge">
<title>Node5&#45;&gt;Node1</title>
<path fill="none" stroke="#9a32cd" stroke-dasharray="5,2" d="M135.17,-57.43C159.69,-61.4 188.23,-66.19 214,-71 222.91,-72.66 232.42,-74.56 241.5,-76.43"/>
<polygon fill="#9a32cd" stroke="#9a32cd" points="135.71,-53.98 125.28,-55.85 134.6,-60.89 135.71,-53.98"/>
<text text-anchor="middle" x="189.5" y="-74" font-family="Helvetica,sans-Serif" font-size="10.00"> Vectorize</text>
</g>
<!-- Node6 -->
<g id="node6" class="node">
<title>Node6</title>
<g id="a_node6"><a xlink:title=" ">
<polygon fill="none" stroke="#bfbfbf" points="54.5,-0.5 54.5,-19.5 92.5,-19.5 92.5,-0.5 54.5,-0.5"/>
<text text-anchor="middle" x="73.5" y="-7.5" font-family="Helvetica,sans-Serif" font-size="10.00">long</text>
</a>
</g>
</g>
<!-- Node6&#45;&gt;Node1 -->
<g id="edge5" class="edge">
<title>Node6&#45;&gt;Node1</title>
<path fill="none" stroke="#9a32cd" stroke-dasharray="5,2" d="M102.66,-15.39C131.3,-21.34 176.65,-32.1 214,-47 234.47,-55.16 256.54,-67.74 270.78,-76.39"/>
<polygon fill="#9a32cd" stroke="#9a32cd" points="103.05,-11.9 92.56,-13.34 101.66,-18.76 103.05,-11.9"/>
<text text-anchor="middle" x="189.5" y="-50" font-family="Helvetica,sans-Serif" font-size="10.00"> TotCost</text>
</g>
</g>
</svg>
