<?xml version="1.0" encoding="UTF-8" standalone="no"?>
<!DOCTYPE svg PUBLIC "-//W3C//DTD SVG 1.1//EN"
 "http://www.w3.org/Graphics/SVG/1.1/DTD/svg11.dtd">
<!-- Generated by graphviz version 2.43.0 (0)
 -->
<!-- Title: macveth::MVOptions Pages: 1 -->
<svg width="617pt" height="172pt"
 viewBox="0.00 0.00 617.00 172.00" xmlns="http://www.w3.org/2000/svg" xmlns:xlink="http://www.w3.org/1999/xlink">
<g id="graph0" class="graph" transform="scale(1 1) rotate(0) translate(4 168)">
<title>macveth::MVOptions</title>
<!-- Node1 -->
<g id="node1" class="node">
<title>Node1</title>
<g id="a_node1"><a xlink:title="Parse and hold information regarding CLI arguments.">
<polygon fill="#bfbfbf" stroke="black" points="268.5,-0.5 268.5,-19.5 387.5,-19.5 387.5,-0.5 268.5,-0.5"/>
<text text-anchor="middle" x="328" y="-7.5" font-family="Helvetica,sans-Serif" font-size="10.00">macveth::MVOptions</text>
</a>
</g>
</g>
<!-- Node2 -->
<g id="node2" class="node">
<title>Node2</title>
<g id="a_node2"><a xlink:title=" ">
<polygon fill="none" stroke="#bfbfbf" points="0,-144.5 0,-163.5 140,-163.5 140,-144.5 0,-144.5"/>
<text text-anchor="middle" x="70" y="-151.5" font-family="Helvetica,sans-Serif" font-size="10.00">static MVSIMDCostModel</text>
</a>
</g>
</g>
<!-- Node2&#45;&gt;Node1 -->
<g id="edge1" class="edge">
<title>Node2&#45;&gt;Node1</title>
<path fill="none" stroke="#9a32cd" stroke-dasharray="5,2" d="M66.18,-134.34C62.15,-108.74 59.46,-63.06 85,-38 97.86,-25.38 200.51,-17.63 268.22,-13.83"/>
<polygon fill="#9a32cd" stroke="#9a32cd" points="62.75,-135.04 67.98,-144.25 69.64,-133.79 62.75,-135.04"/>
<text text-anchor="middle" x="125.5" y="-79.5" font-family="Helvetica,sans-Serif" font-size="10.00"> SIMDCostModel</text>
</g>
<!-- Node3 -->
<g id="node3" class="node">
<title>Node3</title>
<g id="a_node3"><a xlink:title=" ">
<polygon fill="none" stroke="#bfbfbf" points="158,-144.5 158,-163.5 202,-163.5 202,-144.5 158,-144.5"/>
<text text-anchor="middle" x="180" y="-151.5" font-family="Helvetica,sans-Serif" font-size="10.00">string</text>
</a>
</g>
</g>
<!-- Node3&#45;&gt;Node1 -->
<g id="edge2" class="edge">
<title>Node3&#45;&gt;Node1</title>
<path fill="none" stroke="#9a32cd" stroke-dasharray="5,2" d="M175.1,-134.44C169.67,-109.29 164.53,-64.5 188,-38 198.75,-25.86 235.16,-19.08 268.15,-15.34"/>
<polygon fill="#9a32cd" stroke="#9a32cd" points="171.77,-135.57 177.51,-144.48 178.57,-133.94 171.77,-135.57"/>
<text text-anchor="middle" x="238.5" y="-118" font-family="Helvetica,sans-Serif" font-size="10.00"> SIMDReportMissFile</text>
<text text-anchor="middle" x="238.5" y="-107" font-family="Helvetica,sans-Serif" font-size="10.00">TargetFunc</text>
<text text-anchor="middle" x="238.5" y="-96" font-family="Helvetica,sans-Serif" font-size="10.00">InCDAGFile</text>
<text text-anchor="middle" x="238.5" y="-85" font-family="Helvetica,sans-Serif" font-size="10.00">OutDebugFile</text>
<text text-anchor="middle" x="238.5" y="-74" font-family="Helvetica,sans-Serif" font-size="10.00">OutFile</text>
<text text-anchor="middle" x="238.5" y="-63" font-family="Helvetica,sans-Serif" font-size="10.00">SIMDReportFile</text>
<text text-anchor="middle" x="238.5" y="-52" font-family="Helvetica,sans-Serif" font-size="10.00">FallbackStyle</text>
<text text-anchor="middle" x="238.5" y="-41" font-family="Helvetica,sans-Serif" font-size="10.00">Style</text>
</g>
<!-- Node4 -->
<g id="node4" class="node">
<title>Node4</title>
<g id="a_node4"><a xlink:title=" ">
<polygon fill="none" stroke="#bfbfbf" points="269.5,-144.5 269.5,-163.5 322.5,-163.5 322.5,-144.5 269.5,-144.5"/>
<text text-anchor="middle" x="296" y="-151.5" font-family="Helvetica,sans-Serif" font-size="10.00">MVArch</text>
</a>
</g>
</g>
<!-- Node4&#45;&gt;Node1 -->
<g id="edge3" class="edge">
<title>Node4&#45;&gt;Node1</title>
<path fill="none" stroke="#9a32cd" stroke-dasharray="5,2" d="M294.02,-134.21C292.3,-110.74 291.86,-69.81 305,-38 307.92,-30.94 313.4,-24.39 318.29,-19.5"/>
<polygon fill="#9a32cd" stroke="#9a32cd" points="290.54,-134.56 294.91,-144.21 297.51,-133.94 290.54,-134.56"/>
<text text-anchor="middle" x="317.5" y="-79.5" font-family="Helvetica,sans-Serif" font-size="10.00"> Arch</text>
</g>
<!-- Node5 -->
<g id="node5" class="node">
<title>Node5</title>
<g id="a_node5"><a xlink:title=" ">
<polygon fill="none" stroke="#bfbfbf" points="341,-144.5 341,-163.5 379,-163.5 379,-144.5 341,-144.5"/>
<text text-anchor="middle" x="360" y="-151.5" font-family="Helvetica,sans-Serif" font-size="10.00">bool</text>
</a>
</g>
</g>
<!-- Node5&#45;&gt;Node1 -->
<g id="edge4" class="edge">
<title>Node5&#45;&gt;Node1</title>
<path fill="none" stroke="#9a32cd" stroke-dasharray="5,2" d="M355.01,-134.14C354.32,-131.41 353.63,-128.64 353,-126 343.58,-86.45 333.7,-38.9 329.76,-19.68"/>
<polygon fill="#9a32cd" stroke="#9a32cd" points="351.67,-135.22 357.58,-144.02 358.45,-133.46 351.67,-135.22"/>
<text text-anchor="middle" x="396.5" y="-118" font-family="Helvetica,sans-Serif" font-size="10.00"> IntrinsicsSVML</text>
<text text-anchor="middle" x="396.5" y="-107" font-family="Helvetica,sans-Serif" font-size="10.00">Debug</text>
<text text-anchor="middle" x="396.5" y="-96" font-family="Helvetica,sans-Serif" font-size="10.00">FMASupport</text>
<text text-anchor="middle" x="396.5" y="-85" font-family="Helvetica,sans-Serif" font-size="10.00">Headers</text>
<text text-anchor="middle" x="396.5" y="-74" font-family="Helvetica,sans-Serif" font-size="10.00">MacroCode</text>
<text text-anchor="middle" x="396.5" y="-63" font-family="Helvetica,sans-Serif" font-size="10.00">DisableFMA</text>
<text text-anchor="middle" x="396.5" y="-52" font-family="Helvetica,sans-Serif" font-size="10.00">ScatterInstruction</text>
<text text-anchor="middle" x="396.5" y="-41" font-family="Helvetica,sans-Serif" font-size="10.00">NoReformat</text>
</g>
<!-- Node6 -->
<g id="node6" class="node">
<title>Node6</title>
<g id="a_node6"><a xlink:title=" ">
<polygon fill="none" stroke="#bfbfbf" points="437.5,-144.5 437.5,-163.5 486.5,-163.5 486.5,-144.5 437.5,-144.5"/>
<text text-anchor="middle" x="462" y="-151.5" font-family="Helvetica,sans-Serif" font-size="10.00">MVISA</text>
</a>
</g>
</g>
<!-- Node6&#45;&gt;Node1 -->
<g id="edge5" class="edge">
<title>Node6&#45;&gt;Node1</title>
<path fill="none" stroke="#9a32cd" stroke-dasharray="5,2" d="M464.1,-134.3C465.84,-109 464.82,-64.02 440,-38 432.34,-29.97 410.27,-23.82 387.72,-19.44"/>
<polygon fill="#9a32cd" stroke="#9a32cd" points="460.61,-134.13 463.19,-144.41 467.58,-134.76 460.61,-134.13"/>
<text text-anchor="middle" x="474" y="-79.5" font-family="Helvetica,sans-Serif" font-size="10.00"> ISA</text>
</g>
<!-- Node7 -->
<g id="node7" class="node">
<title>Node7</title>
<g id="a_node7"><a xlink:title=" ">
<polygon fill="none" stroke="#bfbfbf" points="505,-144.5 505,-163.5 609,-163.5 609,-144.5 505,-144.5"/>
<text text-anchor="middle" x="557" y="-151.5" font-family="Helvetica,sans-Serif" font-size="10.00">static DebugLevel</text>
</a>
</g>
</g>
<!-- Node7&#45;&gt;Node1 -->
<g id="edge6" class="edge">
<title>Node7&#45;&gt;Node1</title>
<path fill="none" stroke="#9a32cd" stroke-dasharray="5,2" d="M551.43,-134.59C542.53,-108.55 522.5,-61.54 488,-38 471.83,-26.96 426.05,-19.95 387.58,-15.85"/>
<polygon fill="#9a32cd" stroke="#9a32cd" points="548.17,-135.89 554.57,-144.33 554.83,-133.74 548.17,-135.89"/>
<text text-anchor="middle" x="565.5" y="-79.5" font-family="Helvetica,sans-Serif" font-size="10.00"> DLevel</text>
</g>
</g>
</svg>
