<?xml version="1.0" encoding="UTF-8" standalone="no"?>
<!DOCTYPE svg PUBLIC "-//W3C//DTD SVG 1.1//EN"
 "http://www.w3.org/Graphics/SVG/1.1/DTD/svg11.dtd">
<!-- Generated by graphviz version 2.43.0 (0)
 -->
<!-- Title: macveth::MVExprArray::MVAffineIndex Pages: 1 -->
<svg width="294pt" height="106pt"
 viewBox="0.00 0.00 294.00 106.00" xmlns="http://www.w3.org/2000/svg" xmlns:xlink="http://www.w3.org/1999/xlink">
<g id="graph0" class="graph" transform="scale(1 1) rotate(0) translate(4 102)">
<title>macveth::MVExprArray::MVAffineIndex</title>
<!-- Node1 -->
<g id="node1" class="node">
<title>Node1</title>
<g id="a_node1"><a xlink:title="Abstraction to handle affine indices in MACVETH.">
<polygon fill="#bfbfbf" stroke="black" points="117,-0.5 117,-30.5 246,-30.5 246,-0.5 117,-0.5"/>
<text text-anchor="start" x="125" y="-18.5" font-family="Helvetica,sans-Serif" font-size="10.00">macveth::MVExprArray</text>
<text text-anchor="middle" x="181.5" y="-7.5" font-family="Helvetica,sans-Serif" font-size="10.00">::MVAffineIndex</text>
</a>
</g>
</g>
<!-- Node1&#45;&gt;Node1 -->
<g id="edge2" class="edge">
<title>Node1&#45;&gt;Node1</title>
<path fill="none" stroke="#9a32cd" stroke-dasharray="5,2" d="M256.1,-20.59C261.02,-19.41 264,-17.71 264,-15.5 264,-12.05 256.74,-9.85 246.18,-8.91"/>
<polygon fill="#9a32cd" stroke="#9a32cd" points="255.54,-17.13 246.18,-22.09 256.59,-24.06 255.54,-17.13"/>
<text text-anchor="middle" x="275" y="-18.5" font-family="Helvetica,sans-Serif" font-size="10.00"> LHS</text>
<text text-anchor="middle" x="275" y="-7.5" font-family="Helvetica,sans-Serif" font-size="10.00">RHS</text>
</g>
<!-- Node2 -->
<g id="node2" class="node">
<title>Node2</title>
<g id="a_node2"><a xlink:title=" ">
<polygon fill="none" stroke="#bfbfbf" points="0,-78.5 0,-97.5 137,-97.5 137,-78.5 0,-78.5"/>
<text text-anchor="middle" x="68.5" y="-85.5" font-family="Helvetica,sans-Serif" font-size="10.00">map&lt; std::string, bool &gt;</text>
</a>
</g>
</g>
<!-- Node2&#45;&gt;Node1 -->
<g id="edge1" class="edge">
<title>Node2&#45;&gt;Node1</title>
<path fill="none" stroke="#9a32cd" stroke-dasharray="5,2" d="M90.99,-72.97C110.7,-60.67 139.21,-42.89 158.94,-30.58"/>
<polygon fill="#9a32cd" stroke="#9a32cd" points="88.99,-70.09 82.36,-78.36 92.69,-76.03 88.99,-70.09"/>
<text text-anchor="middle" x="151" y="-52" font-family="Helvetica,sans-Serif" font-size="10.00"> Unrolled</text>
</g>
<!-- Node3 -->
<g id="node3" class="node">
<title>Node3</title>
<g id="a_node3"><a xlink:title=" ">
<polygon fill="none" stroke="#bfbfbf" points="155,-78.5 155,-97.5 208,-97.5 208,-78.5 155,-78.5"/>
<text text-anchor="middle" x="181.5" y="-85.5" font-family="Helvetica,sans-Serif" font-size="10.00">Opcode</text>
</a>
</g>
</g>
<!-- Node3&#45;&gt;Node1 -->
<g id="edge3" class="edge">
<title>Node3&#45;&gt;Node1</title>
<path fill="none" stroke="#9a32cd" stroke-dasharray="5,2" d="M181.5,-68.24C181.5,-56.41 181.5,-41.38 181.5,-30.58"/>
<polygon fill="#9a32cd" stroke="#9a32cd" points="178,-68.36 181.5,-78.36 185,-68.36 178,-68.36"/>
<text text-anchor="middle" x="190" y="-52" font-family="Helvetica,sans-Serif" font-size="10.00"> OP</text>
</g>
<!-- Node4 -->
<g id="node4" class="node">
<title>Node4</title>
<g id="a_node4"><a xlink:title=" ">
<polygon fill="none" stroke="#bfbfbf" points="226.5,-78.5 226.5,-97.5 270.5,-97.5 270.5,-78.5 226.5,-78.5"/>
<text text-anchor="middle" x="248.5" y="-85.5" font-family="Helvetica,sans-Serif" font-size="10.00">string</text>
</a>
</g>
</g>
<!-- Node4&#45;&gt;Node1 -->
<g id="edge4" class="edge">
<title>Node4&#45;&gt;Node1</title>
<path fill="none" stroke="#9a32cd" stroke-dasharray="5,2" d="M233.38,-71.09C221.81,-58.91 205.99,-42.27 194.88,-30.58"/>
<polygon fill="#9a32cd" stroke="#9a32cd" points="230.86,-73.52 240.28,-78.36 235.93,-68.7 230.86,-73.52"/>
<text text-anchor="middle" x="230" y="-52" font-family="Helvetica,sans-Serif" font-size="10.00"> Val</text>
</g>
</g>
</svg>
