<?xml version="1.0" encoding="UTF-8" standalone="no"?>
<!DOCTYPE svg PUBLIC "-//W3C//DTD SVG 1.1//EN"
 "http://www.w3.org/Graphics/SVG/1.1/DTD/svg11.dtd">
<!-- Generated by graphviz version 2.43.0 (0)
 -->
<!-- Title: macveth::MVOp Pages: 1 -->
<svg width="410pt" height="95pt"
 viewBox="0.00 0.00 409.50 95.00" xmlns="http://www.w3.org/2000/svg" xmlns:xlink="http://www.w3.org/1999/xlink">
<g id="graph0" class="graph" transform="scale(1 1) rotate(0) translate(4 91)">
<title>macveth::MVOp</title>
<!-- Node1 -->
<g id="node1" class="node">
<title>Node1</title>
<g id="a_node1"><a xlink:title="MVOp is meant to identify those operations that Clang lacks.">
<polygon fill="#bfbfbf" stroke="black" points="132,-0.5 132,-19.5 227,-19.5 227,-0.5 132,-0.5"/>
<text text-anchor="middle" x="179.5" y="-7.5" font-family="Helvetica,sans-Serif" font-size="10.00">macveth::MVOp</text>
</a>
</g>
</g>
<!-- Node2 -->
<g id="node2" class="node">
<title>Node2</title>
<g id="a_node2"><a xlink:title=" ">
<polygon fill="none" stroke="#bfbfbf" points="0,-67.5 0,-86.5 53,-86.5 53,-67.5 0,-67.5"/>
<text text-anchor="middle" x="26.5" y="-74.5" font-family="Helvetica,sans-Serif" font-size="10.00">Opcode</text>
</a>
</g>
</g>
<!-- Node2&#45;&gt;Node1 -->
<g id="edge1" class="edge">
<title>Node2&#45;&gt;Node1</title>
<path fill="none" stroke="#9a32cd" stroke-dasharray="5,2" d="M46.92,-61.61C58.66,-53.82 73.94,-44.49 88.5,-38 105.81,-30.29 125.93,-24.06 142.85,-19.53"/>
<polygon fill="#9a32cd" stroke="#9a32cd" points="44.63,-58.93 38.33,-67.44 48.57,-64.72 44.63,-58.93"/>
<text text-anchor="middle" x="111" y="-41" font-family="Helvetica,sans-Serif" font-size="10.00"> ClangOP</text>
</g>
<!-- Node3 -->
<g id="node3" class="node">
<title>Node3</title>
<g id="a_node3"><a xlink:title=" ">
<polygon fill="none" stroke="#bfbfbf" points="71.5,-67.5 71.5,-86.5 139.5,-86.5 139.5,-67.5 71.5,-67.5"/>
<text text-anchor="middle" x="105.5" y="-74.5" font-family="Helvetica,sans-Serif" font-size="10.00">MVOpType</text>
</a>
</g>
</g>
<!-- Node3&#45;&gt;Node1 -->
<g id="edge2" class="edge">
<title>Node3&#45;&gt;Node1</title>
<path fill="none" stroke="#9a32cd" stroke-dasharray="5,2" d="M123.31,-60.36C137.86,-47.58 157.88,-29.99 169.68,-19.63"/>
<polygon fill="#9a32cd" stroke="#9a32cd" points="120.68,-58 115.48,-67.23 125.3,-63.26 120.68,-58"/>
<text text-anchor="middle" x="151.5" y="-41" font-family="Helvetica,sans-Serif" font-size="10.00"> T</text>
</g>
<!-- Node4 -->
<g id="node4" class="node">
<title>Node4</title>
<g id="a_node4"><a xlink:title=" ">
<polygon fill="none" stroke="#bfbfbf" points="157.5,-67.5 157.5,-86.5 201.5,-86.5 201.5,-67.5 157.5,-67.5"/>
<text text-anchor="middle" x="179.5" y="-74.5" font-family="Helvetica,sans-Serif" font-size="10.00">string</text>
</a>
</g>
</g>
<!-- Node4&#45;&gt;Node1 -->
<g id="edge3" class="edge">
<title>Node4&#45;&gt;Node1</title>
<path fill="none" stroke="#9a32cd" stroke-dasharray="5,2" d="M179.5,-57.04C179.5,-44.67 179.5,-29.12 179.5,-19.63"/>
<polygon fill="#9a32cd" stroke="#9a32cd" points="176,-57.23 179.5,-67.23 183,-57.23 176,-57.23"/>
<text text-anchor="middle" x="195" y="-41" font-family="Helvetica,sans-Serif" font-size="10.00"> Prefix</text>
</g>
<!-- Node5 -->
<g id="node5" class="node">
<title>Node5</title>
<g id="a_node5"><a xlink:title=" ">
<polygon fill="none" stroke="#bfbfbf" points="220,-67.5 220,-86.5 291,-86.5 291,-67.5 220,-67.5"/>
<text text-anchor="middle" x="255.5" y="-74.5" font-family="Helvetica,sans-Serif" font-size="10.00">MVOpCode</text>
</a>
</g>
</g>
<!-- Node5&#45;&gt;Node1 -->
<g id="edge4" class="edge">
<title>Node5&#45;&gt;Node1</title>
<path fill="none" stroke="#9a32cd" stroke-dasharray="5,2" d="M239.27,-60.32C231.86,-53.33 222.88,-45.09 214.5,-38 206.88,-31.56 197.98,-24.69 191.05,-19.5"/>
<polygon fill="#9a32cd" stroke="#9a32cd" points="236.94,-62.94 246.59,-67.31 241.77,-57.87 236.94,-62.94"/>
<text text-anchor="middle" x="245.5" y="-41" font-family="Helvetica,sans-Serif" font-size="10.00"> MVOpC</text>
</g>
<!-- Node6 -->
<g id="node6" class="node">
<title>Node6</title>
<g id="a_node6"><a xlink:title=" ">
<polygon fill="none" stroke="#bfbfbf" points="309.5,-67.5 309.5,-86.5 401.5,-86.5 401.5,-67.5 309.5,-67.5"/>
<text text-anchor="middle" x="355.5" y="-74.5" font-family="Helvetica,sans-Serif" font-size="10.00">anonymous:@1</text>
</a>
</g>
</g>
<!-- Node6&#45;&gt;Node1 -->
<g id="edge5" class="edge">
<title>Node6&#45;&gt;Node1</title>
<path fill="none" stroke="#9a32cd" stroke-dasharray="5,2" d="M328.77,-63.16C311.97,-55.35 289.72,-45.47 269.5,-38 250.52,-30.99 228.82,-24.44 211.47,-19.54"/>
<polygon fill="#9a32cd" stroke="#9a32cd" points="327.44,-66.4 337.98,-67.49 330.42,-60.06 327.44,-66.4"/>
<text text-anchor="middle" x="305" y="-41" font-family="Helvetica,sans-Serif" font-size="10.00"> @1</text>
</g>
</g>
</svg>
