<?xml version="1.0" encoding="UTF-8" standalone="no"?>
<!DOCTYPE svg PUBLIC "-//W3C//DTD SVG 1.1//EN"
 "http://www.w3.org/Graphics/SVG/1.1/DTD/svg11.dtd">
<!-- Generated by graphviz version 2.43.0 (0)
 -->
<!-- Title: macveth::CostTable::Row Pages: 1 -->
<svg width="435pt" height="250pt"
 viewBox="0.00 0.00 434.50 250.00" xmlns="http://www.w3.org/2000/svg" xmlns:xlink="http://www.w3.org/1999/xlink">
<g id="graph0" class="graph" transform="scale(1 1) rotate(0) translate(4 246)">
<title>macveth::CostTable::Row</title>
<!-- Node1 -->
<g id="node1" class="node">
<title>Node1</title>
<g id="a_node1"><a xlink:title="Structure to define the table of costs for the architectures.">
<polygon fill="#bfbfbf" stroke="black" points="140,-0.5 140,-19.5 280,-19.5 280,-0.5 140,-0.5"/>
<text text-anchor="middle" x="210" y="-7.5" font-family="Helvetica,sans-Serif" font-size="10.00">macveth::CostTable::Row</text>
</a>
</g>
</g>
<!-- Node2 -->
<g id="node2" class="node">
<title>Node2</title>
<g id="a_node2"><a xlink:title=" ">
<polygon fill="none" stroke="#bfbfbf" points="0,-117 0,-136 50,-136 50,-117 0,-117"/>
<text text-anchor="middle" x="25" y="-124" font-family="Helvetica,sans-Serif" font-size="10.00">double</text>
</a>
</g>
</g>
<!-- Node2&#45;&gt;Node1 -->
<g id="edge1" class="edge">
<title>Node2&#45;&gt;Node1</title>
<path fill="none" stroke="#9a32cd" stroke-dasharray="5,2" d="M18.92,-106.91C13.79,-87.31 9.63,-56.73 26,-38 40.82,-21.04 94.13,-14.55 139.57,-12.15"/>
<polygon fill="#9a32cd" stroke="#9a32cd" points="15.64,-108.16 21.82,-116.76 22.36,-106.18 15.64,-108.16"/>
<text text-anchor="middle" x="55.5" y="-63" font-family="Helvetica,sans-Serif" font-size="10.00"> Throughput</text>
</g>
<!-- Node3 -->
<g id="node3" class="node">
<title>Node3</title>
<g id="a_node3"><a xlink:href="structmacveth_1_1CostTable_1_1Latency.html" target="_top" xlink:title="Latency helper class to parse properly latencies format+.">
<polygon fill="none" stroke="black" points="153.5,-111.5 153.5,-141.5 266.5,-141.5 266.5,-111.5 153.5,-111.5"/>
<text text-anchor="start" x="161.5" y="-129.5" font-family="Helvetica,sans-Serif" font-size="10.00">macveth::CostTable</text>
<text text-anchor="middle" x="210" y="-118.5" font-family="Helvetica,sans-Serif" font-size="10.00">::Latency</text>
</a>
</g>
</g>
<!-- Node3&#45;&gt;Node1 -->
<g id="edge2" class="edge">
<title>Node3&#45;&gt;Node1</title>
<path fill="none" stroke="#9a32cd" stroke-dasharray="5,2" d="M210,-101.43C210,-75.84 210,-36.76 210,-19.59"/>
<polygon fill="#9a32cd" stroke="#9a32cd" points="206.5,-101.46 210,-111.46 213.5,-101.46 206.5,-101.46"/>
<text text-anchor="middle" x="219.5" y="-63" font-family="Helvetica,sans-Serif" font-size="10.00"> Lat</text>
</g>
<!-- Node4 -->
<g id="node4" class="node">
<title>Node4</title>
<g id="a_node4"><a xlink:title=" ">
<polygon fill="none" stroke="#bfbfbf" points="100.5,-222.5 100.5,-241.5 129.5,-241.5 129.5,-222.5 100.5,-222.5"/>
<text text-anchor="middle" x="115" y="-229.5" font-family="Helvetica,sans-Serif" font-size="10.00">int</text>
</a>
</g>
</g>
<!-- Node4&#45;&gt;Node1 -->
<g id="edge4" class="edge">
<title>Node4&#45;&gt;Node1</title>
<path fill="none" stroke="#9a32cd" stroke-dasharray="5,2" d="M109.11,-212.75C102.34,-188.47 93.84,-144.7 108,-111 125.96,-68.24 172.11,-34.59 195.68,-19.56"/>
<polygon fill="#9a32cd" stroke="#9a32cd" points="105.79,-213.85 112.02,-222.42 112.5,-211.84 105.79,-213.85"/>
<text text-anchor="middle" x="126" y="-124" font-family="Helvetica,sans-Serif" font-size="10.00"> NUops</text>
</g>
<!-- Node4&#45;&gt;Node3 -->
<g id="edge3" class="edge">
<title>Node4&#45;&gt;Node3</title>
<path fill="none" stroke="#9a32cd" stroke-dasharray="5,2" d="M129.92,-214.75C148.31,-194.71 179.29,-160.96 196.84,-141.84"/>
<polygon fill="#9a32cd" stroke="#9a32cd" points="127.28,-212.44 123.1,-222.18 132.44,-217.18 127.28,-212.44"/>
<text text-anchor="middle" x="212.5" y="-196" font-family="Helvetica,sans-Serif" font-size="10.00"> MemLatency</text>
<text text-anchor="middle" x="212.5" y="-185" font-family="Helvetica,sans-Serif" font-size="10.00">AddrLatency</text>
<text text-anchor="middle" x="212.5" y="-174" font-family="Helvetica,sans-Serif" font-size="10.00">MaxLatency</text>
<text text-anchor="middle" x="212.5" y="-163" font-family="Helvetica,sans-Serif" font-size="10.00">MinLatency</text>
</g>
<!-- Node5 -->
<g id="node5" class="node">
<title>Node5</title>
<g id="a_node5"><a xlink:title=" ">
<polygon fill="none" stroke="#bfbfbf" points="285,-117 285,-136 329,-136 329,-117 285,-117"/>
<text text-anchor="middle" x="307" y="-124" font-family="Helvetica,sans-Serif" font-size="10.00">string</text>
</a>
</g>
</g>
<!-- Node5&#45;&gt;Node1 -->
<g id="edge5" class="edge">
<title>Node5&#45;&gt;Node1</title>
<path fill="none" stroke="#9a32cd" stroke-dasharray="5,2" d="M293.18,-109.13C278.33,-91.54 254.02,-62.77 233,-38 227.74,-31.8 221.79,-24.82 217.26,-19.51"/>
<polygon fill="#9a32cd" stroke="#9a32cd" points="290.53,-111.41 299.66,-116.8 295.88,-106.9 290.53,-111.41"/>
<text text-anchor="middle" x="304" y="-85" font-family="Helvetica,sans-Serif" font-size="10.00"> Asm</text>
<text text-anchor="middle" x="304" y="-74" font-family="Helvetica,sans-Serif" font-size="10.00">MVOP</text>
<text text-anchor="middle" x="304" y="-63" font-family="Helvetica,sans-Serif" font-size="10.00">Intrinsics</text>
<text text-anchor="middle" x="304" y="-52" font-family="Helvetica,sans-Serif" font-size="10.00">XED_iform</text>
<text text-anchor="middle" x="304" y="-41" font-family="Helvetica,sans-Serif" font-size="10.00">CPUID</text>
</g>
<!-- Node6 -->
<g id="node6" class="node">
<title>Node6</title>
<g id="a_node6"><a xlink:title=" ">
<polygon fill="none" stroke="#bfbfbf" points="347.5,-117 347.5,-136 426.5,-136 426.5,-117 347.5,-117"/>
<text text-anchor="middle" x="387" y="-124" font-family="Helvetica,sans-Serif" font-size="10.00">list&lt; Ports &gt;</text>
</a>
</g>
</g>
<!-- Node6&#45;&gt;Node1 -->
<g id="edge6" class="edge">
<title>Node6&#45;&gt;Node1</title>
<path fill="none" stroke="#9a32cd" stroke-dasharray="5,2" d="M380.99,-107.37C373.33,-87.22 358.13,-55.24 334,-38 318.31,-26.79 298.86,-20.09 280.06,-16.13"/>
<polygon fill="#9a32cd" stroke="#9a32cd" points="377.74,-108.69 384.39,-116.94 384.34,-106.35 377.74,-108.69"/>
<text text-anchor="middle" x="392" y="-63" font-family="Helvetica,sans-Serif" font-size="10.00"> NPorts</text>
</g>
</g>
</svg>
