<?xml version="1.0" encoding="UTF-8" standalone="no"?>
<!DOCTYPE svg PUBLIC "-//W3C//DTD SVG 1.1//EN"
 "http://www.w3.org/Graphics/SVG/1.1/DTD/svg11.dtd">
<!-- Generated by graphviz version 2.43.0 (0)
 -->
<!-- Title: macveth::ScopLoc::PragmaArgs Pages: 1 -->
<svg width="452pt" height="128pt"
 viewBox="0.00 0.00 451.50 128.00" xmlns="http://www.w3.org/2000/svg" xmlns:xlink="http://www.w3.org/1999/xlink">
<g id="graph0" class="graph" transform="scale(1 1) rotate(0) translate(4 124)">
<title>macveth::ScopLoc::PragmaArgs</title>
<!-- Node1 -->
<g id="node1" class="node">
<title>Node1</title>
<g id="a_node1"><a xlink:title=" ">
<polygon fill="#bfbfbf" stroke="black" points="171.5,-0.5 171.5,-19.5 341.5,-19.5 341.5,-0.5 171.5,-0.5"/>
<text text-anchor="middle" x="256.5" y="-7.5" font-family="Helvetica,sans-Serif" font-size="10.00">macveth::ScopLoc::PragmaArgs</text>
</a>
</g>
</g>
<!-- Node2 -->
<g id="node2" class="node">
<title>Node2</title>
<g id="a_node2"><a xlink:title=" ">
<polygon fill="none" stroke="#bfbfbf" points="0,-95 0,-114 137,-114 137,-95 0,-95"/>
<text text-anchor="middle" x="68.5" y="-102" font-family="Helvetica,sans-Serif" font-size="10.00">map&lt; std::string, bool &gt;</text>
</a>
</g>
</g>
<!-- Node2&#45;&gt;Node1 -->
<g id="edge1" class="edge">
<title>Node2&#45;&gt;Node1</title>
<path fill="none" stroke="#9a32cd" stroke-dasharray="5,2" d="M85.78,-88.18C103.26,-73.42 131.6,-51.4 159.5,-38 176.36,-29.9 196.07,-23.86 213.31,-19.56"/>
<polygon fill="#9a32cd" stroke="#9a32cd" points="83.42,-85.6 78.13,-94.78 87.99,-90.9 83.42,-85.6"/>
<text text-anchor="middle" x="184.5" y="-52" font-family="Helvetica,sans-Serif" font-size="10.00"> FullUnroll</text>
</g>
<!-- Node3 -->
<g id="node3" class="node">
<title>Node3</title>
<g id="a_node3"><a xlink:title=" ">
<polygon fill="none" stroke="#bfbfbf" points="155.5,-89.5 155.5,-119.5 273.5,-119.5 273.5,-89.5 155.5,-89.5"/>
<text text-anchor="start" x="163.5" y="-107.5" font-family="Helvetica,sans-Serif" font-size="10.00">vector&lt; std::tuple</text>
<text text-anchor="middle" x="214.5" y="-96.5" font-family="Helvetica,sans-Serif" font-size="10.00">&lt; std::string, int &gt; &gt;</text>
</a>
</g>
</g>
<!-- Node3&#45;&gt;Node1 -->
<g id="edge2" class="edge">
<title>Node3&#45;&gt;Node1</title>
<path fill="none" stroke="#9a32cd" stroke-dasharray="5,2" d="M213.66,-79.19C214.2,-66.23 216.53,-50.44 223.5,-38 227.7,-30.51 234.87,-24.26 241.45,-19.67"/>
<polygon fill="#9a32cd" stroke="#9a32cd" points="210.16,-79.24 213.55,-89.27 217.16,-79.31 210.16,-79.24"/>
<text text-anchor="middle" x="250" y="-52" font-family="Helvetica,sans-Serif" font-size="10.00"> UnrollDim</text>
</g>
<!-- Node4 -->
<g id="node4" class="node">
<title>Node4</title>
<g id="a_node4"><a xlink:title=" ">
<polygon fill="none" stroke="#bfbfbf" points="292,-95 292,-114 321,-114 321,-95 292,-95"/>
<text text-anchor="middle" x="306.5" y="-102" font-family="Helvetica,sans-Serif" font-size="10.00">int</text>
</a>
</g>
</g>
<!-- Node4&#45;&gt;Node1 -->
<g id="edge3" class="edge">
<title>Node4&#45;&gt;Node1</title>
<path fill="none" stroke="#9a32cd" stroke-dasharray="5,2" d="M299.33,-85.21C293.78,-71.78 285.53,-53.3 276.5,-38 272.7,-31.57 267.7,-24.82 263.65,-19.68"/>
<polygon fill="#9a32cd" stroke="#9a32cd" points="296.18,-86.77 303.17,-94.73 302.68,-84.15 296.18,-86.77"/>
<text text-anchor="middle" x="323.5" y="-52" font-family="Helvetica,sans-Serif" font-size="10.00"> UnrollFactor</text>
</g>
<!-- Node5 -->
<g id="node5" class="node">
<title>Node5</title>
<g id="a_node5"><a xlink:title=" ">
<polygon fill="none" stroke="#bfbfbf" points="364.5,-95 364.5,-114 402.5,-114 402.5,-95 364.5,-95"/>
<text text-anchor="middle" x="383.5" y="-102" font-family="Helvetica,sans-Serif" font-size="10.00">bool</text>
</a>
</g>
</g>
<!-- Node5&#45;&gt;Node1 -->
<g id="edge4" class="edge">
<title>Node5&#45;&gt;Node1</title>
<path fill="none" stroke="#9a32cd" stroke-dasharray="5,2" d="M381.07,-84.86C378.18,-70.12 371.91,-50.06 358.5,-38 349.03,-29.49 337.19,-23.61 324.96,-19.56"/>
<polygon fill="#9a32cd" stroke="#9a32cd" points="377.64,-85.57 382.69,-94.88 384.55,-84.45 377.64,-85.57"/>
<text text-anchor="middle" x="410" y="-63" font-family="Helvetica,sans-Serif" font-size="10.00"> SIMDCode</text>
<text text-anchor="middle" x="410" y="-52" font-family="Helvetica,sans-Serif" font-size="10.00">Unroll</text>
<text text-anchor="middle" x="410" y="-41" font-family="Helvetica,sans-Serif" font-size="10.00">UnrollAndJam</text>
</g>
</g>
</svg>
