<?xml version="1.0" encoding="UTF-8" standalone="no"?>
<!DOCTYPE svg PUBLIC "-//W3C//DTD SVG 1.1//EN"
 "http://www.w3.org/Graphics/SVG/1.1/DTD/svg11.dtd">
<!-- Generated by graphviz version 2.43.0 (0)
 -->
<!-- Title: macveth::VectorIR::VOperand Pages: 1 -->
<svg width="387pt" height="470pt"
 viewBox="0.00 0.00 387.00 469.55" xmlns="http://www.w3.org/2000/svg" xmlns:xlink="http://www.w3.org/1999/xlink">
<g id="graph0" class="graph" transform="scale(1 1) rotate(0) translate(4 465.55)">
<title>macveth::VectorIR::VOperand</title>
<!-- Node1 -->
<g id="node1" class="node">
<title>Node1</title>
<g id="a_node1"><a xlink:title="Vector operand basically is a wrap of VL (vector length) operands in the original Node.">
<polygon fill="#bfbfbf" stroke="black" points="267,-284.55 267,-314.55 379,-314.55 379,-284.55 267,-284.55"/>
<text text-anchor="start" x="275" y="-302.55" font-family="Helvetica,sans-Serif" font-size="10.00">macveth::VectorIR::</text>
<text text-anchor="middle" x="323" y="-291.55" font-family="Helvetica,sans-Serif" font-size="10.00">VOperand</text>
</a>
</g>
</g>
<!-- Node2 -->
<g id="node2" class="node">
<title>Node2</title>
<g id="a_node2"><a xlink:title=" ">
<polygon fill="none" stroke="#bfbfbf" points="41.5,-442.05 41.5,-461.05 110.5,-461.05 110.5,-442.05 41.5,-442.05"/>
<text text-anchor="middle" x="76" y="-449.05" font-family="Helvetica,sans-Serif" font-size="10.00">VDataType</text>
</a>
</g>
</g>
<!-- Node2&#45;&gt;Node1 -->
<g id="edge1" class="edge">
<title>Node2&#45;&gt;Node1</title>
<path fill="none" stroke="#9a32cd" stroke-dasharray="5,2" d="M120.83,-453.97C158.03,-453.87 211.22,-448.46 249,-422.55 287.71,-396.01 309.05,-341.61 317.57,-314.96"/>
<polygon fill="#9a32cd" stroke="#9a32cd" points="120.83,-450.47 110.79,-453.87 120.76,-457.47 120.83,-450.47"/>
<text text-anchor="middle" x="209.5" y="-452.55" font-family="Helvetica,sans-Serif" font-size="10.00"> DType</text>
</g>
<!-- Node3 -->
<g id="node3" class="node">
<title>Node3</title>
<g id="a_node3"><a xlink:title=" ">
<polygon fill="none" stroke="#bfbfbf" points="50,-404.05 50,-423.05 102,-423.05 102,-404.05 50,-404.05"/>
<text text-anchor="middle" x="76" y="-411.05" font-family="Helvetica,sans-Serif" font-size="10.00">VWidth</text>
</a>
</g>
</g>
<!-- Node3&#45;&gt;Node1 -->
<g id="edge2" class="edge">
<title>Node3&#45;&gt;Node1</title>
<path fill="none" stroke="#9a32cd" stroke-dasharray="5,2" d="M112.22,-413.85C148.68,-412.71 206.19,-406.71 249,-382.55 278.08,-366.14 301.35,-333.69 313.28,-314.59"/>
<polygon fill="#9a32cd" stroke="#9a32cd" points="112,-410.36 102.07,-414.06 112.14,-417.36 112,-410.36"/>
<text text-anchor="middle" x="209.5" y="-410.55" font-family="Helvetica,sans-Serif" font-size="10.00"> Width</text>
</g>
<!-- Node4 -->
<g id="node4" class="node">
<title>Node4</title>
<g id="a_node4"><a xlink:title=" ">
<polygon fill="none" stroke="#bfbfbf" points="16.5,-366.05 16.5,-385.05 135.5,-385.05 135.5,-366.05 16.5,-366.05"/>
<text text-anchor="middle" x="76" y="-373.05" font-family="Helvetica,sans-Serif" font-size="10.00">vector&lt; std::string &gt;</text>
</a>
</g>
</g>
<!-- Node4&#45;&gt;Node1 -->
<g id="edge3" class="edge">
<title>Node4&#45;&gt;Node1</title>
<path fill="none" stroke="#9a32cd" stroke-dasharray="5,2" d="M145.81,-371.63C178.01,-368.08 216.37,-361.34 249,-348.55 269.61,-340.48 290.29,-325.83 304.35,-314.64"/>
<polygon fill="#9a32cd" stroke="#9a32cd" points="145.18,-368.18 135.58,-372.67 145.89,-375.14 145.18,-368.18"/>
<text text-anchor="middle" x="209.5" y="-370.55" font-family="Helvetica,sans-Serif" font-size="10.00"> StoreValues</text>
</g>
<!-- Node5 -->
<g id="node5" class="node">
<title>Node5</title>
<g id="a_node5"><a xlink:title=" ">
<polygon fill="none" stroke="#bfbfbf" points="61.5,-327.05 61.5,-346.05 90.5,-346.05 90.5,-327.05 61.5,-327.05"/>
<text text-anchor="middle" x="76" y="-334.05" font-family="Helvetica,sans-Serif" font-size="10.00">int</text>
</a>
</g>
</g>
<!-- Node5&#45;&gt;Node1 -->
<g id="edge4" class="edge">
<title>Node5&#45;&gt;Node1</title>
<path fill="none" stroke="#9a32cd" stroke-dasharray="5,2" d="M100.95,-333.21C134.21,-328.54 196.22,-319.72 249,-311.55 254.71,-310.67 260.67,-309.72 266.61,-308.77"/>
<polygon fill="#9a32cd" stroke="#9a32cd" points="100.25,-329.78 90.84,-334.63 101.22,-336.71 100.25,-329.78"/>
<text text-anchor="middle" x="209.5" y="-336.55" font-family="Helvetica,sans-Serif" font-size="10.00"> Offset</text>
<text text-anchor="middle" x="209.5" y="-325.55" font-family="Helvetica,sans-Serif" font-size="10.00">Order</text>
</g>
<!-- Node6 -->
<g id="node6" class="node">
<title>Node6</title>
<g id="a_node6"><a xlink:title=" ">
<polygon fill="none" stroke="#bfbfbf" points="30.5,-289.05 30.5,-308.05 121.5,-308.05 121.5,-289.05 30.5,-289.05"/>
<text text-anchor="middle" x="76" y="-296.05" font-family="Helvetica,sans-Serif" font-size="10.00">vector&lt; long &gt;</text>
</a>
</g>
</g>
<!-- Node6&#45;&gt;Node1 -->
<g id="edge5" class="edge">
<title>Node6&#45;&gt;Node1</title>
<path fill="none" stroke="#9a32cd" stroke-dasharray="5,2" d="M131.83,-298.77C172.1,-298.94 226.6,-299.16 266.93,-299.33"/>
<polygon fill="#9a32cd" stroke="#9a32cd" points="131.67,-295.27 121.65,-298.73 131.64,-302.27 131.67,-295.27"/>
<text text-anchor="middle" x="209.5" y="-301.55" font-family="Helvetica,sans-Serif" font-size="10.00"> Idx</text>
</g>
<!-- Node7 -->
<g id="node7" class="node">
<title>Node7</title>
<g id="a_node7"><a xlink:title=" ">
<polygon fill="none" stroke="#bfbfbf" points="57,-146.05 57,-165.05 95,-165.05 95,-146.05 57,-146.05"/>
<text text-anchor="middle" x="76" y="-153.05" font-family="Helvetica,sans-Serif" font-size="10.00">bool</text>
</a>
</g>
</g>
<!-- Node7&#45;&gt;Node1 -->
<g id="edge6" class="edge">
<title>Node7&#45;&gt;Node1</title>
<path fill="none" stroke="#9a32cd" stroke-dasharray="5,2" d="M105.43,-151.13C141.79,-147.02 205.27,-145.21 249,-173.55 289.52,-199.81 310.21,-257.02 318.11,-284.38"/>
<polygon fill="#9a32cd" stroke="#9a32cd" points="104.54,-147.71 95.06,-152.45 105.43,-154.66 104.54,-147.71"/>
<text text-anchor="middle" x="209.5" y="-286.55" font-family="Helvetica,sans-Serif" font-size="10.00"> IsTmpResult</text>
<text text-anchor="middle" x="209.5" y="-275.55" font-family="Helvetica,sans-Serif" font-size="10.00">IsPartial</text>
<text text-anchor="middle" x="209.5" y="-264.55" font-family="Helvetica,sans-Serif" font-size="10.00">LowBits</text>
<text text-anchor="middle" x="209.5" y="-253.55" font-family="Helvetica,sans-Serif" font-size="10.00">IsStore</text>
<text text-anchor="middle" x="209.5" y="-242.55" font-family="Helvetica,sans-Serif" font-size="10.00">OutOfCacheLine</text>
<text text-anchor="middle" x="209.5" y="-231.55" font-family="Helvetica,sans-Serif" font-size="10.00">HighBits</text>
<text text-anchor="middle" x="209.5" y="-220.55" font-family="Helvetica,sans-Serif" font-size="10.00">SameVector</text>
<text text-anchor="middle" x="209.5" y="-209.55" font-family="Helvetica,sans-Serif" font-size="10.00">Unaligned</text>
<text text-anchor="middle" x="209.5" y="-198.55" font-family="Helvetica,sans-Serif" font-size="10.00">IsLoad</text>
<text text-anchor="middle" x="209.5" y="-187.55" font-family="Helvetica,sans-Serif" font-size="10.00">EqualVal</text>
<text text-anchor="middle" x="209.5" y="-176.55" font-family="Helvetica,sans-Serif" font-size="10.00">...</text>
</g>
<!-- Node8 -->
<g id="node8" class="node">
<title>Node8</title>
<g id="a_node8"><a xlink:title=" ">
<polygon fill="none" stroke="#bfbfbf" points="54,-101.05 54,-120.05 98,-120.05 98,-101.05 54,-101.05"/>
<text text-anchor="middle" x="76" y="-108.05" font-family="Helvetica,sans-Serif" font-size="10.00">string</text>
</a>
</g>
</g>
<!-- Node8&#45;&gt;Node1 -->
<g id="edge7" class="edge">
<title>Node8&#45;&gt;Node1</title>
<path fill="none" stroke="#9a32cd" stroke-dasharray="5,2" d="M108.4,-103.83C145.63,-97.75 207.82,-93.75 249,-123.55 303,-162.63 317.22,-249.23 320.82,-284.33"/>
<polygon fill="#9a32cd" stroke="#9a32cd" points="107.37,-100.46 98.14,-105.66 108.6,-107.35 107.37,-100.46"/>
<text text-anchor="middle" x="209.5" y="-137.55" font-family="Helvetica,sans-Serif" font-size="10.00"> BaseArray</text>
<text text-anchor="middle" x="209.5" y="-126.55" font-family="Helvetica,sans-Serif" font-size="10.00">Name</text>
</g>
<!-- Node9 -->
<g id="node9" class="node">
<title>Node9</title>
<g id="a_node9"><a xlink:title=" ">
<polygon fill="none" stroke="#bfbfbf" points="37.5,-45.05 37.5,-64.05 114.5,-64.05 114.5,-45.05 37.5,-45.05"/>
<text text-anchor="middle" x="76" y="-52.05" font-family="Helvetica,sans-Serif" font-size="10.00">unsigned int</text>
</a>
</g>
</g>
<!-- Node9&#45;&gt;Node1 -->
<g id="edge8" class="edge">
<title>Node9&#45;&gt;Node1</title>
<path fill="none" stroke="#9a32cd" stroke-dasharray="5,2" d="M124.28,-43.16C161.95,-37.01 214.01,-35.44 249,-62.55 320.3,-117.8 323.79,-241.34 322.71,-284.4"/>
<polygon fill="#9a32cd" stroke="#9a32cd" points="123.28,-39.78 114.06,-45 124.52,-46.67 123.28,-39.78"/>
<text text-anchor="middle" x="209.5" y="-87.55" font-family="Helvetica,sans-Serif" font-size="10.00"> Size</text>
<text text-anchor="middle" x="209.5" y="-76.55" font-family="Helvetica,sans-Serif" font-size="10.00">VSize</text>
<text text-anchor="middle" x="209.5" y="-65.55" font-family="Helvetica,sans-Serif" font-size="10.00">Mask</text>
</g>
<!-- Node10 -->
<g id="node10" class="node">
<title>Node10</title>
<g id="a_node10"><a xlink:title=" ">
<polygon fill="none" stroke="#bfbfbf" points="0,-7.05 0,-26.05 152,-26.05 152,-7.05 0,-7.05"/>
<text text-anchor="middle" x="76" y="-14.05" font-family="Helvetica,sans-Serif" font-size="10.00">vector&lt; macveth::Node * &gt;</text>
</a>
</g>
</g>
<!-- Node10&#45;&gt;Node1 -->
<g id="edge9" class="edge">
<title>Node10&#45;&gt;Node1</title>
<path fill="none" stroke="#9a32cd" stroke-dasharray="5,2" d="M121.76,-4.96C159.77,2.03 213.64,4.84 249,-23.55 290.84,-57.14 314.12,-231.31 320.31,-284.26"/>
<polygon fill="#9a32cd" stroke="#9a32cd" points="120.6,-1.62 111.48,-7.02 121.98,-8.49 120.6,-1.62"/>
<text text-anchor="middle" x="209.5" y="-26.55" font-family="Helvetica,sans-Serif" font-size="10.00"> UOP</text>
</g>
</g>
</svg>
