<?xml version="1.0" encoding="UTF-8" standalone="no"?>
<!DOCTYPE svg PUBLIC "-//W3C//DTD SVG 1.1//EN"
 "http://www.w3.org/Graphics/SVG/1.1/DTD/svg11.dtd">
<!-- Generated by graphviz version 2.43.0 (0)
 -->
<!-- Title: macveth::SIMDBackEnd::SIMDInst Pages: 1 -->
<!--zoomable 786 -->
<svg id="main" version="1.1" xmlns="http://www.w3.org/2000/svg" xmlns:xlink="http://www.w3.org/1999/xlink" xml:space="preserve" onload="init(evt)">
<style type="text/css"><![CDATA[
.edge:hover path { stroke: red; }
.edge:hover polygon { stroke: red; fill: red; }
]]></style>
<script type="text/javascript"><![CDATA[
var edges = document.getElementsByTagName('g');
if (edges && edges.length) {
  for (var i=0;i<edges.length;i++) {
    if (edges[i].id.substr(0,4)=='edge') {
      edges[i].setAttribute('class','edge');
    }
  }
}
]]></script>
        <defs>
                <circle id="rim" cx="0" cy="0" r="7"/>
                <circle id="rim2" cx="0" cy="0" r="3.5"/>
                <g id="zoomPlus">
                        <use xlink:href="#rim" fill="#404040">
                                <set attributeName="fill" to="#808080" begin="zoomplus.mouseover" end="zoomplus.mouseout"/>
                        </use>
                        <path d="M-4,0h8M0,-4v8" fill="none" stroke="white" stroke-width="1.5" pointer-events="none"/>
                </g>
                <g id="zoomMin">
                        <use xlink:href="#rim" fill="#404040">
                                <set attributeName="fill" to="#808080" begin="zoomminus.mouseover" end="zoomminus.mouseout"/>
                        </use>
                        <path d="M-4,0h8" fill="none" stroke="white" stroke-width="1.5" pointer-events="none"/>
                </g>
                <g id="dirArrow">
                        <path fill="none" stroke="white" stroke-width="1.5" d="M0,-3.0v7 M-2.5,-0.5L0,-3.0L2.5,-0.5"/>
                </g>
               <g id="resetDef">
                       <use xlink:href="#rim2" fill="#404040">
                               <set attributeName="fill" to="#808080" begin="reset.mouseover" end="reset.mouseout"/>
                       </use>
               </g>
        </defs>

<script type="text/javascript">
var viewWidth = 654;
var viewHeight = 786;
var sectionId = 'dynsection-0';
</script>
<script xlink:href="svgpan.js"/>
<svg id="graph" class="graph">
<g id="viewport">
<title>macveth::SIMDBackEnd::SIMDInst</title>
<!-- Node1 -->
<g id="node1" class="node">
<title>Node1</title>
<g id="a_node1"><a xlink:title="Wrap for representing the SIMDInst not just as single strings to print, but as a set of fields.">
<polygon fill="#bfbfbf" stroke="black" points="513,-447 513,-477 646,-477 646,-447 513,-447"/>
<text text-anchor="start" x="521" y="-465" font-family="Helvetica,sans-Serif" font-size="10.00">macveth::SIMDBackEnd</text>
<text text-anchor="middle" x="579.5" y="-454" font-family="Helvetica,sans-Serif" font-size="10.00">::SIMDInst</text>
</a>
</g>
</g>
<!-- Node2 -->
<g id="node2" class="node">
<title>Node2</title>
<g id="a_node2"><a xlink:title=" ">
<polygon fill="none" stroke="#bfbfbf" points="312,-686.5 312,-705.5 377,-705.5 377,-686.5 312,-686.5"/>
<text text-anchor="middle" x="344.5" y="-693.5" font-family="Helvetica,sans-Serif" font-size="10.00">SIMDType</text>
</a>
</g>
</g>
<!-- Node2&#45;&gt;Node1 -->
<g id="edge1" class="edge">
<title>Node2&#45;&gt;Node1</title>
<path fill="none" stroke="#9a32cd" stroke-dasharray="5,2" d="M387.58,-692.71C420.66,-688.01 465.87,-676.61 495,-649 547,-599.72 568.87,-512.16 575.83,-477.12"/>
<polygon fill="#9a32cd" stroke="#9a32cd" points="386.78,-689.28 377.3,-694.01 387.66,-696.22 386.78,-689.28"/>
<text text-anchor="middle" x="467.5" y="-683" font-family="Helvetica,sans-Serif" font-size="10.00"> SType</text>
</g>
<!-- Node3 -->
<g id="node3" class="node">
<title>Node3</title>
<g id="a_node3"><a xlink:href="structmacveth_1_1MVOp.html" target="_top" xlink:title="MVOp is meant to identify those operations that Clang lacks.">
<polygon fill="none" stroke="black" points="297,-648.5 297,-667.5 392,-667.5 392,-648.5 297,-648.5"/>
<text text-anchor="middle" x="344.5" y="-655.5" font-family="Helvetica,sans-Serif" font-size="10.00">macveth::MVOp</text>
</a>
</g>
</g>
<!-- Node3&#45;&gt;Node1 -->
<g id="edge2" class="edge">
<title>Node3&#45;&gt;Node1</title>
<path fill="none" stroke="#9a32cd" stroke-dasharray="5,2" d="M402.13,-647.79C432.29,-640.08 468.51,-626.93 495,-605 537.74,-569.62 563.5,-506.31 573.58,-477.29"/>
<polygon fill="#9a32cd" stroke="#9a32cd" points="401.06,-644.45 392.16,-650.2 402.7,-651.25 401.06,-644.45"/>
<text text-anchor="middle" x="467.5" y="-637" font-family="Helvetica,sans-Serif" font-size="10.00"> MVOP</text>
</g>
<!-- Node4 -->
<g id="node4" class="node">
<title>Node4</title>
<g id="a_node4"><a xlink:title=" ">
<polygon fill="none" stroke="#bfbfbf" points="49.5,-682.5 49.5,-701.5 102.5,-701.5 102.5,-682.5 49.5,-682.5"/>
<text text-anchor="middle" x="76" y="-689.5" font-family="Helvetica,sans-Serif" font-size="10.00">Opcode</text>
</a>
</g>
</g>
<!-- Node4&#45;&gt;Node3 -->
<g id="edge3" class="edge">
<title>Node4&#45;&gt;Node3</title>
<path fill="none" stroke="#9a32cd" stroke-dasharray="5,2" d="M112.67,-687.45C160.13,-681.39 244.16,-670.67 296.68,-663.97"/>
<polygon fill="#9a32cd" stroke="#9a32cd" points="112.03,-684 102.55,-688.74 112.92,-690.95 112.03,-684"/>
<text text-anchor="middle" x="209.5" y="-683" font-family="Helvetica,sans-Serif" font-size="10.00"> ClangOP</text>
</g>
<!-- Node5 -->
<g id="node5" class="node">
<title>Node5</title>
<g id="a_node5"><a xlink:title=" ">
<polygon fill="none" stroke="#bfbfbf" points="42,-644.5 42,-663.5 110,-663.5 110,-644.5 42,-644.5"/>
<text text-anchor="middle" x="76" y="-651.5" font-family="Helvetica,sans-Serif" font-size="10.00">MVOpType</text>
</a>
</g>
</g>
<!-- Node5&#45;&gt;Node3 -->
<g id="edge4" class="edge">
<title>Node5&#45;&gt;Node3</title>
<path fill="none" stroke="#9a32cd" stroke-dasharray="5,2" d="M120.38,-654.65C168.87,-655.38 247.08,-656.55 296.85,-657.3"/>
<polygon fill="#9a32cd" stroke="#9a32cd" points="120.27,-651.15 110.21,-654.5 120.16,-658.15 120.27,-651.15"/>
<text text-anchor="middle" x="209.5" y="-659" font-family="Helvetica,sans-Serif" font-size="10.00"> T</text>
</g>
<!-- Node6 -->
<g id="node6" class="node">
<title>Node6</title>
<g id="a_node6"><a xlink:title=" ">
<polygon fill="none" stroke="#bfbfbf" points="54,-581.5 54,-600.5 98,-600.5 98,-581.5 54,-581.5"/>
<text text-anchor="middle" x="76" y="-588.5" font-family="Helvetica,sans-Serif" font-size="10.00">string</text>
</a>
</g>
</g>
<!-- Node6&#45;&gt;Node1 -->
<g id="edge23" class="edge">
<title>Node6&#45;&gt;Node1</title>
<path fill="none" stroke="#9a32cd" stroke-dasharray="5,2" d="M108.62,-593.63C170.63,-597.69 311.73,-601.5 422,-564 478.5,-544.78 534.63,-500.5 561.73,-477.11"/>
<polygon fill="#9a32cd" stroke="#9a32cd" points="108.56,-590.12 98.33,-592.9 108.06,-597.1 108.56,-590.12"/>
<text text-anchor="middle" x="344.5" y="-618" font-family="Helvetica,sans-Serif" font-size="10.00"> FuncName</text>
<text text-anchor="middle" x="344.5" y="-607" font-family="Helvetica,sans-Serif" font-size="10.00">MVFuncName</text>
<text text-anchor="middle" x="344.5" y="-596" font-family="Helvetica,sans-Serif" font-size="10.00">Result</text>
</g>
<!-- Node6&#45;&gt;Node3 -->
<g id="edge5" class="edge">
<title>Node6&#45;&gt;Node3</title>
<path fill="none" stroke="#9a32cd" stroke-dasharray="5,2" d="M108.11,-598.82C157.22,-611.17 252.6,-635.15 305.63,-648.48"/>
<polygon fill="#9a32cd" stroke="#9a32cd" points="108.91,-595.41 98.36,-596.37 107.2,-602.2 108.91,-595.41"/>
<text text-anchor="middle" x="209.5" y="-635" font-family="Helvetica,sans-Serif" font-size="10.00"> Prefix</text>
</g>
<!-- Node12 -->
<g id="node12" class="node">
<title>Node12</title>
<g id="a_node12"><a xlink:href="structmacveth_1_1VectorIR_1_1VOperand.html" target="_top" xlink:title="Vector operand basically is a wrap of VL (vector length) operands in the original Node.">
<polygon fill="none" stroke="black" points="288.5,-344 288.5,-374 400.5,-374 400.5,-344 288.5,-344"/>
<text text-anchor="start" x="296.5" y="-362" font-family="Helvetica,sans-Serif" font-size="10.00">macveth::VectorIR::</text>
<text text-anchor="middle" x="344.5" y="-351" font-family="Helvetica,sans-Serif" font-size="10.00">VOperand</text>
</a>
</g>
</g>
<!-- Node6&#45;&gt;Node12 -->
<g id="edge18" class="edge">
<title>Node6&#45;&gt;Node12</title>
<path fill="none" stroke="#9a32cd" stroke-dasharray="5,2" d="M107.46,-579.47C151.84,-562.06 230.97,-528.49 249,-504 277.59,-465.16 238.27,-435.73 267,-397 274.33,-387.11 284.95,-379.64 295.96,-374.06"/>
<polygon fill="#9a32cd" stroke="#9a32cd" points="106.08,-576.25 98.03,-583.13 108.62,-582.78 106.08,-576.25"/>
<text text-anchor="middle" x="209.5" y="-565" font-family="Helvetica,sans-Serif" font-size="10.00"> BaseArray</text>
<text text-anchor="middle" x="209.5" y="-554" font-family="Helvetica,sans-Serif" font-size="10.00">Name</text>
</g>
<!-- Node7 -->
<g id="node7" class="node">
<title>Node7</title>
<g id="a_node7"><a xlink:title=" ">
<polygon fill="none" stroke="#bfbfbf" points="40.5,-758.5 40.5,-777.5 111.5,-777.5 111.5,-758.5 40.5,-758.5"/>
<text text-anchor="middle" x="76" y="-765.5" font-family="Helvetica,sans-Serif" font-size="10.00">MVOpCode</text>
</a>
</g>
</g>
<!-- Node7&#45;&gt;Node3 -->
<g id="edge6" class="edge">
<title>Node7&#45;&gt;Node3</title>
<path fill="none" stroke="#9a32cd" stroke-dasharray="5,2" d="M121.9,-771.34C160.24,-771.68 214.51,-765.85 249,-735 269.12,-717.01 247.37,-695.53 267,-677 275.16,-669.3 285.94,-664.58 296.83,-661.72"/>
<polygon fill="#9a32cd" stroke="#9a32cd" points="121.61,-767.83 111.53,-771.1 121.45,-774.83 121.61,-767.83"/>
<text text-anchor="middle" x="209.5" y="-770" font-family="Helvetica,sans-Serif" font-size="10.00"> MVOpC</text>
</g>
<!-- Node8 -->
<g id="node8" class="node">
<title>Node8</title>
<g id="a_node8"><a xlink:title=" ">
<polygon fill="none" stroke="#bfbfbf" points="30,-720.5 30,-739.5 122,-739.5 122,-720.5 30,-720.5"/>
<text text-anchor="middle" x="76" y="-727.5" font-family="Helvetica,sans-Serif" font-size="10.00">anonymous:@1</text>
</a>
</g>
</g>
<!-- Node8&#45;&gt;Node3 -->
<g id="edge7" class="edge">
<title>Node8&#45;&gt;Node3</title>
<path fill="none" stroke="#9a32cd" stroke-dasharray="5,2" d="M132.25,-726.92C167.42,-723.04 212.96,-714.36 249,-695 258.97,-689.64 257.15,-682.57 267,-677 276.05,-671.88 286.48,-668.13 296.65,-665.38"/>
<polygon fill="#9a32cd" stroke="#9a32cd" points="131.76,-723.45 122.16,-727.93 132.46,-730.42 131.76,-723.45"/>
<text text-anchor="middle" x="209.5" y="-723" font-family="Helvetica,sans-Serif" font-size="10.00"> @1</text>
</g>
<!-- Node9 -->
<g id="node9" class="node">
<title>Node9</title>
<g id="a_node9"><a xlink:title=" ">
<polygon fill="none" stroke="#bfbfbf" points="41.5,-514.5 41.5,-533.5 110.5,-533.5 110.5,-514.5 41.5,-514.5"/>
<text text-anchor="middle" x="76" y="-521.5" font-family="Helvetica,sans-Serif" font-size="10.00">VDataType</text>
</a>
</g>
</g>
<!-- Node9&#45;&gt;Node1 -->
<g id="edge8" class="edge">
<title>Node9&#45;&gt;Node1</title>
<path fill="none" stroke="#9a32cd" stroke-dasharray="5,2" d="M111.47,-537.01C128.76,-542.85 150.2,-549.08 170,-552 204.74,-557.12 214.2,-556.67 249,-552 355.23,-537.75 475.71,-498.76 537.36,-477.06"/>
<polygon fill="#9a32cd" stroke="#9a32cd" points="112.4,-533.63 101.81,-533.64 110.1,-540.23 112.4,-533.63"/>
<text text-anchor="middle" x="344.5" y="-552" font-family="Helvetica,sans-Serif" font-size="10.00"> DT</text>
</g>
<!-- Node9&#45;&gt;Node12 -->
<g id="edge12" class="edge">
<title>Node9&#45;&gt;Node12</title>
<path fill="none" stroke="#9a32cd" stroke-dasharray="5,2" d="M115.34,-511.09C159.99,-495.38 230.08,-468.43 249,-448 265.33,-430.36 251.07,-415 267,-397 275.55,-387.34 287.13,-379.86 298.68,-374.19"/>
<polygon fill="#9a32cd" stroke="#9a32cd" points="113.97,-507.86 105.67,-514.45 116.27,-514.47 113.97,-507.86"/>
<text text-anchor="middle" x="209.5" y="-492" font-family="Helvetica,sans-Serif" font-size="10.00"> DType</text>
</g>
<!-- Node10 -->
<g id="node10" class="node">
<title>Node10</title>
<g id="a_node10"><a xlink:title=" ">
<polygon fill="none" stroke="#bfbfbf" points="50,-439.5 50,-458.5 102,-458.5 102,-439.5 50,-439.5"/>
<text text-anchor="middle" x="76" y="-446.5" font-family="Helvetica,sans-Serif" font-size="10.00">VWidth</text>
</a>
</g>
</g>
<!-- Node10&#45;&gt;Node1 -->
<g id="edge9" class="edge">
<title>Node10&#45;&gt;Node1</title>
<path fill="none" stroke="#9a32cd" stroke-dasharray="5,2" d="M112.42,-449.92C195.75,-452.08 405.24,-457.51 512.69,-460.29"/>
<polygon fill="#9a32cd" stroke="#9a32cd" points="112.3,-446.41 102.21,-449.65 112.12,-453.41 112.3,-446.41"/>
<text text-anchor="middle" x="344.5" y="-460" font-family="Helvetica,sans-Serif" font-size="10.00"> W</text>
</g>
<!-- Node10&#45;&gt;Node12 -->
<g id="edge13" class="edge">
<title>Node10&#45;&gt;Node12</title>
<path fill="none" stroke="#9a32cd" stroke-dasharray="5,2" d="M112.27,-443.82C155.37,-437.1 225.46,-424.85 249,-413 258.56,-408.19 258.13,-402.99 267,-397 279.78,-388.37 294.8,-380.48 308.14,-374.15"/>
<polygon fill="#9a32cd" stroke="#9a32cd" points="111.55,-440.38 102.2,-445.36 112.61,-447.3 111.55,-440.38"/>
<text text-anchor="middle" x="209.5" y="-436" font-family="Helvetica,sans-Serif" font-size="10.00"> Width</text>
</g>
<!-- Node11 -->
<g id="node11" class="node">
<title>Node11</title>
<g id="a_node11"><a xlink:title=" ">
<polygon fill="none" stroke="#bfbfbf" points="293,-406.5 293,-425.5 396,-425.5 396,-406.5 293,-406.5"/>
<text text-anchor="middle" x="344.5" y="-413.5" font-family="Helvetica,sans-Serif" font-size="10.00">list&lt; std::string &gt;</text>
</a>
</g>
</g>
<!-- Node11&#45;&gt;Node1 -->
<g id="edge10" class="edge">
<title>Node11&#45;&gt;Node1</title>
<path fill="none" stroke="#9a32cd" stroke-dasharray="5,2" d="M406.54,-415.42C433.92,-416.34 466.41,-419.1 495,-426 514.03,-430.59 534.21,-439.18 549.97,-446.82"/>
<polygon fill="#9a32cd" stroke="#9a32cd" points="406.41,-411.91 396.32,-415.15 406.22,-418.91 406.41,-411.91"/>
<text text-anchor="middle" x="467.5" y="-440" font-family="Helvetica,sans-Serif" font-size="10.00"> MVArgs</text>
<text text-anchor="middle" x="467.5" y="-429" font-family="Helvetica,sans-Serif" font-size="10.00">Args</text>
</g>
<!-- Node12&#45;&gt;Node1 -->
<g id="edge11" class="edge">
<title>Node12&#45;&gt;Node1</title>
<path fill="none" stroke="#9a32cd" stroke-dasharray="5,2" d="M410.5,-372.53C437.42,-379.43 468.49,-389.14 495,-402 519.9,-414.07 545.25,-433.52 561.39,-446.99"/>
<polygon fill="#9a32cd" stroke="#9a32cd" points="411.33,-369.13 400.78,-370.11 409.64,-375.92 411.33,-369.13"/>
<text text-anchor="middle" x="467.5" y="-405" font-family="Helvetica,sans-Serif" font-size="10.00"> VOPResult</text>
</g>
<!-- Node13 -->
<g id="node13" class="node">
<title>Node13</title>
<g id="a_node13"><a xlink:title=" ">
<polygon fill="none" stroke="#bfbfbf" points="16.5,-300.5 16.5,-319.5 135.5,-319.5 135.5,-300.5 16.5,-300.5"/>
<text text-anchor="middle" x="76" y="-307.5" font-family="Helvetica,sans-Serif" font-size="10.00">vector&lt; std::string &gt;</text>
</a>
</g>
</g>
<!-- Node13&#45;&gt;Node12 -->
<g id="edge14" class="edge">
<title>Node13&#45;&gt;Node12</title>
<path fill="none" stroke="#9a32cd" stroke-dasharray="5,2" d="M145.6,-315.09C177.29,-318.18 215.28,-322.93 249,-330 265.96,-333.56 284.25,-338.82 300.18,-343.89"/>
<polygon fill="#9a32cd" stroke="#9a32cd" points="145.83,-311.6 135.54,-314.15 145.17,-318.57 145.83,-311.6"/>
<text text-anchor="middle" x="209.5" y="-333" font-family="Helvetica,sans-Serif" font-size="10.00"> StoreValues</text>
</g>
<!-- Node14 -->
<g id="node14" class="node">
<title>Node14</title>
<g id="a_node14"><a xlink:title=" ">
<polygon fill="none" stroke="#bfbfbf" points="61.5,-63.5 61.5,-82.5 90.5,-82.5 90.5,-63.5 61.5,-63.5"/>
<text text-anchor="middle" x="76" y="-70.5" font-family="Helvetica,sans-Serif" font-size="10.00">int</text>
</a>
</g>
</g>
<!-- Node14&#45;&gt;Node1 -->
<g id="edge22" class="edge">
<title>Node14&#45;&gt;Node1</title>
<path fill="none" stroke="#9a32cd" stroke-dasharray="5,2" d="M100.84,-66.3C135.35,-57.95 200.39,-47.36 249,-70 427.11,-152.96 543.26,-384.82 571.69,-446.67"/>
<polygon fill="#9a32cd" stroke="#9a32cd" points="99.59,-63.01 90.77,-68.89 101.33,-69.79 99.59,-63.01"/>
<text text-anchor="middle" x="344.5" y="-222" font-family="Helvetica,sans-Serif" font-size="10.00"> SIMD_UID</text>
<text text-anchor="middle" x="344.5" y="-211" font-family="Helvetica,sans-Serif" font-size="10.00">UID</text>
</g>
<!-- Node14&#45;&gt;Node12 -->
<g id="edge15" class="edge">
<title>Node14&#45;&gt;Node12</title>
<path fill="none" stroke="#9a32cd" stroke-dasharray="5,2" d="M101.1,-70.39C137.47,-67.83 206.62,-68.52 249,-104 325.2,-167.8 339.98,-299.09 342.83,-343.74"/>
<polygon fill="#9a32cd" stroke="#9a32cd" points="100.6,-66.92 90.93,-71.26 101.19,-73.9 100.6,-66.92"/>
<text text-anchor="middle" x="209.5" y="-118" font-family="Helvetica,sans-Serif" font-size="10.00"> Offset</text>
<text text-anchor="middle" x="209.5" y="-107" font-family="Helvetica,sans-Serif" font-size="10.00">Order</text>
</g>
<!-- Node15 -->
<g id="node15" class="node">
<title>Node15</title>
<g id="a_node15"><a xlink:title=" ">
<polygon fill="none" stroke="#bfbfbf" points="30.5,-262.5 30.5,-281.5 121.5,-281.5 121.5,-262.5 30.5,-262.5"/>
<text text-anchor="middle" x="76" y="-269.5" font-family="Helvetica,sans-Serif" font-size="10.00">vector&lt; long &gt;</text>
</a>
</g>
</g>
<!-- Node15&#45;&gt;Node12 -->
<g id="edge16" class="edge">
<title>Node15&#45;&gt;Node12</title>
<path fill="none" stroke="#9a32cd" stroke-dasharray="5,2" d="M131.96,-276.86C166.39,-281.12 211.25,-288.94 249,-303 276.16,-313.12 304.39,-330.96 322.83,-343.79"/>
<polygon fill="#9a32cd" stroke="#9a32cd" points="131.96,-273.33 121.62,-275.65 131.15,-280.29 131.96,-273.33"/>
<text text-anchor="middle" x="209.5" y="-306" font-family="Helvetica,sans-Serif" font-size="10.00"> Idx</text>
</g>
<!-- Node16 -->
<g id="node16" class="node">
<title>Node16</title>
<g id="a_node16"><a xlink:title=" ">
<polygon fill="none" stroke="#bfbfbf" points="57,-124.5 57,-143.5 95,-143.5 95,-124.5 57,-124.5"/>
<text text-anchor="middle" x="76" y="-131.5" font-family="Helvetica,sans-Serif" font-size="10.00">bool</text>
</a>
</g>
</g>
<!-- Node16&#45;&gt;Node12 -->
<g id="edge17" class="edge">
<title>Node16&#45;&gt;Node12</title>
<path fill="none" stroke="#9a32cd" stroke-dasharray="5,2" d="M105.15,-130.07C141.91,-126.51 206.56,-125.85 249,-157 312.99,-203.96 335.09,-305.24 341.36,-343.73"/>
<polygon fill="#9a32cd" stroke="#9a32cd" points="104.69,-126.6 95.13,-131.18 105.46,-133.56 104.69,-126.6"/>
<text text-anchor="middle" x="209.5" y="-270" font-family="Helvetica,sans-Serif" font-size="10.00"> IsTmpResult</text>
<text text-anchor="middle" x="209.5" y="-259" font-family="Helvetica,sans-Serif" font-size="10.00">IsPartial</text>
<text text-anchor="middle" x="209.5" y="-248" font-family="Helvetica,sans-Serif" font-size="10.00">LowBits</text>
<text text-anchor="middle" x="209.5" y="-237" font-family="Helvetica,sans-Serif" font-size="10.00">IsStore</text>
<text text-anchor="middle" x="209.5" y="-226" font-family="Helvetica,sans-Serif" font-size="10.00">OutOfCacheLine</text>
<text text-anchor="middle" x="209.5" y="-215" font-family="Helvetica,sans-Serif" font-size="10.00">HighBits</text>
<text text-anchor="middle" x="209.5" y="-204" font-family="Helvetica,sans-Serif" font-size="10.00">SameVector</text>
<text text-anchor="middle" x="209.5" y="-193" font-family="Helvetica,sans-Serif" font-size="10.00">Unaligned</text>
<text text-anchor="middle" x="209.5" y="-182" font-family="Helvetica,sans-Serif" font-size="10.00">IsLoad</text>
<text text-anchor="middle" x="209.5" y="-171" font-family="Helvetica,sans-Serif" font-size="10.00">EqualVal</text>
<text text-anchor="middle" x="209.5" y="-160" font-family="Helvetica,sans-Serif" font-size="10.00">...</text>
</g>
<!-- Node17 -->
<g id="node17" class="node">
<title>Node17</title>
<g id="a_node17"><a xlink:title=" ">
<polygon fill="none" stroke="#bfbfbf" points="37.5,-376.5 37.5,-395.5 114.5,-395.5 114.5,-376.5 37.5,-376.5"/>
<text text-anchor="middle" x="76" y="-383.5" font-family="Helvetica,sans-Serif" font-size="10.00">unsigned int</text>
</a>
</g>
</g>
<!-- Node17&#45;&gt;Node12 -->
<g id="edge19" class="edge">
<title>Node17&#45;&gt;Node12</title>
<path fill="none" stroke="#9a32cd" stroke-dasharray="5,2" d="M124.63,-381.17C170.6,-376.52 240.17,-369.47 288.49,-364.57"/>
<polygon fill="#9a32cd" stroke="#9a32cd" points="124.21,-377.7 114.62,-382.19 124.92,-384.66 124.21,-377.7"/>
<text text-anchor="middle" x="209.5" y="-401" font-family="Helvetica,sans-Serif" font-size="10.00"> Size</text>
<text text-anchor="middle" x="209.5" y="-390" font-family="Helvetica,sans-Serif" font-size="10.00">VSize</text>
<text text-anchor="middle" x="209.5" y="-379" font-family="Helvetica,sans-Serif" font-size="10.00">Mask</text>
</g>
<!-- Node18 -->
<g id="node18" class="node">
<title>Node18</title>
<g id="a_node18"><a xlink:title=" ">
<polygon fill="none" stroke="#bfbfbf" points="0,-338.5 0,-357.5 152,-357.5 152,-338.5 0,-338.5"/>
<text text-anchor="middle" x="76" y="-345.5" font-family="Helvetica,sans-Serif" font-size="10.00">vector&lt; macveth::Node * &gt;</text>
</a>
</g>
</g>
<!-- Node18&#45;&gt;Node12 -->
<g id="edge20" class="edge">
<title>Node18&#45;&gt;Node12</title>
<path fill="none" stroke="#9a32cd" stroke-dasharray="5,2" d="M162.45,-345.18C190.09,-344.89 220.86,-345.22 249,-347 261.71,-347.8 275.32,-349.21 288.15,-350.78"/>
<polygon fill="#9a32cd" stroke="#9a32cd" points="162.37,-341.68 152.42,-345.31 162.46,-348.68 162.37,-341.68"/>
<text text-anchor="middle" x="209.5" y="-350" font-family="Helvetica,sans-Serif" font-size="10.00"> UOP</text>
</g>
<!-- Node19 -->
<g id="node19" class="node">
<title>Node19</title>
<g id="a_node19"><a xlink:href="classmacveth_1_1MVSourceLocation.html" target="_top" xlink:title="MVSourceLocation serves to identify the order of certain instructions, such as reductions,...">
<polygon fill="none" stroke="black" points="267,-0.5 267,-19.5 422,-19.5 422,-0.5 267,-0.5"/>
<text text-anchor="middle" x="344.5" y="-7.5" font-family="Helvetica,sans-Serif" font-size="10.00">macveth::MVSourceLocation</text>
</a>
</g>
</g>
<!-- Node19&#45;&gt;Node1 -->
<g id="edge21" class="edge">
<title>Node19&#45;&gt;Node1</title>
<path fill="none" stroke="#9a32cd" stroke-dasharray="5,2" d="M432.21,-4.7C455.16,-7.6 478.19,-15.04 495,-31 557.04,-89.91 574.48,-376.96 577.84,-446.7"/>
<polygon fill="#9a32cd" stroke="#9a32cd" points="432.35,-1.2 422.05,-3.7 431.66,-8.16 432.35,-1.2"/>
<text text-anchor="middle" x="467.5" y="-34" font-family="Helvetica,sans-Serif" font-size="10.00"> MVSL</text>
</g>
</g>
</svg>
        <g id="navigator" transform="translate(0 0)" fill="#404254">
                <rect fill="#f2f5e9" fill-opacity="0.5" stroke="#606060" stroke-width=".5" x="0" y="0" width="60" height="60"/>
                <use id="zoomplus" xlink:href="#zoomPlus" x="17" y="9" onmousedown="handleZoom(evt,'in')"/>
                <use id="zoomminus" xlink:href="#zoomMin" x="42" y="9" onmousedown="handleZoom(evt,'out')"/>
                <use id="reset" xlink:href="#resetDef" x="30" y="36" onmousedown="handleReset()"/>
                <g id="arrowUp" xlink:href="#dirArrow" transform="translate(30 24)" onmousedown="handlePan(0,-1)">
                  <use xlink:href="#rim" fill="#404040">
                        <set attributeName="fill" to="#808080" begin="arrowUp.mouseover" end="arrowUp.mouseout"/>
                  </use>
                  <path fill="none" stroke="white" stroke-width="1.5" d="M0,-3.0v7 M-2.5,-0.5L0,-3.0L2.5,-0.5"/>
                </g>
                <g id="arrowRight" xlink:href="#dirArrow" transform="rotate(90) translate(36 -43)" onmousedown="handlePan(1,0)">
                  <use xlink:href="#rim" fill="#404040">
                        <set attributeName="fill" to="#808080" begin="arrowRight.mouseover" end="arrowRight.mouseout"/>
                  </use>
                  <path fill="none" stroke="white" stroke-width="1.5" d="M0,-3.0v7 M-2.5,-0.5L0,-3.0L2.5,-0.5"/>
                </g>
                <g id="arrowDown" xlink:href="#dirArrow" transform="rotate(180) translate(-30 -48)" onmousedown="handlePan(0,1)">
                  <use xlink:href="#rim" fill="#404040">
                        <set attributeName="fill" to="#808080" begin="arrowDown.mouseover" end="arrowDown.mouseout"/>
                  </use>
                  <path fill="none" stroke="white" stroke-width="1.5" d="M0,-3.0v7 M-2.5,-0.5L0,-3.0L2.5,-0.5"/>
                </g>
                <g id="arrowLeft" xlink:href="#dirArrow" transform="rotate(270) translate(-36 17)" onmousedown="handlePan(-1,0)">
                  <use xlink:href="#rim" fill="#404040">
                        <set attributeName="fill" to="#808080" begin="arrowLeft.mouseover" end="arrowLeft.mouseout"/>
                  </use>
                  <path fill="none" stroke="white" stroke-width="1.5" d="M0,-3.0v7 M-2.5,-0.5L0,-3.0L2.5,-0.5"/>
                </g>
        </g>
        <svg viewBox="0 0 15 15" width="100%" height="30px" preserveAspectRatio="xMaxYMin meet">
         <g id="arrow_out" transform="scale(0.3 0.3)">
          <a xlink:href="structmacveth_1_1SIMDBackEnd_1_1SIMDInst__coll__graph_org.svg" target="_base">
           <rect id="button" ry="5" rx="5" y="6" x="6" height="38" width="38"
                fill="#f2f5e9" fill-opacity="0.5" stroke="#606060" stroke-width="1.0"/>
           <path id="arrow"
             d="M 11.500037,31.436501 C 11.940474,20.09759 22.043105,11.32322 32.158766,21.979434 L 37.068811,17.246167 C 37.068811,17.246167 37.088388,32 37.088388,32 L 22.160133,31.978069 C 22.160133,31.978069 26.997745,27.140456 26.997745,27.140456 C 18.528582,18.264221 13.291696,25.230495 11.500037,31.436501 z"
             style="fill:#404040;"/>
          </a>
         </g>
        </svg>
</svg>
