<?xml version="1.0" encoding="UTF-8" standalone="no"?>
<!DOCTYPE svg PUBLIC "-//W3C//DTD SVG 1.1//EN"
 "http://www.w3.org/Graphics/SVG/1.1/DTD/svg11.dtd">
<!-- Generated by graphviz version 2.43.0 (0)
 -->
<!-- Title: macveth::Node::SchedInfo Pages: 1 -->
<svg width="266pt" height="150pt"
 viewBox="0.00 0.00 265.50 150.00" xmlns="http://www.w3.org/2000/svg" xmlns:xlink="http://www.w3.org/1999/xlink">
<g id="graph0" class="graph" transform="scale(1 1) rotate(0) translate(4 146)">
<title>macveth::Node::SchedInfo</title>
<!-- Node1 -->
<g id="node1" class="node">
<title>Node1</title>
<g id="a_node1"><a xlink:title="Holds information regarding the scheduling for this Node.">
<polygon fill="#bfbfbf" stroke="black" points="43,-0.5 43,-19.5 188,-19.5 188,-0.5 43,-0.5"/>
<text text-anchor="middle" x="115.5" y="-7.5" font-family="Helvetica,sans-Serif" font-size="10.00">macveth::Node::SchedInfo</text>
</a>
</g>
</g>
<!-- Node2 -->
<g id="node2" class="node">
<title>Node2</title>
<g id="a_node2"><a xlink:title=" ">
<polygon fill="none" stroke="#bfbfbf" points="0,-122.5 0,-141.5 83,-141.5 83,-122.5 0,-122.5"/>
<text text-anchor="middle" x="41.5" y="-129.5" font-family="Helvetica,sans-Serif" font-size="10.00">vector&lt; int &gt;</text>
</a>
</g>
</g>
<!-- Node2&#45;&gt;Node1 -->
<g id="edge1" class="edge">
<title>Node2&#45;&gt;Node1</title>
<path fill="none" stroke="#9a32cd" stroke-dasharray="5,2" d="M47.32,-112.83C54.19,-93.14 66.94,-61.41 84.5,-38 89.73,-31.04 97.01,-24.58 103.21,-19.72"/>
<polygon fill="#9a32cd" stroke="#9a32cd" points="43.97,-111.81 44.12,-122.4 50.61,-114.03 43.97,-111.81"/>
<text text-anchor="middle" x="98" y="-68.5" font-family="Helvetica,sans-Serif" font-size="10.00"> Scop</text>
</g>
<!-- Node3 -->
<g id="node3" class="node">
<title>Node3</title>
<g id="a_node3"><a xlink:title=" ">
<polygon fill="none" stroke="#bfbfbf" points="101,-122.5 101,-141.5 130,-141.5 130,-122.5 101,-122.5"/>
<text text-anchor="middle" x="115.5" y="-129.5" font-family="Helvetica,sans-Serif" font-size="10.00">int</text>
</a>
</g>
</g>
<!-- Node3&#45;&gt;Node1 -->
<g id="edge2" class="edge">
<title>Node3&#45;&gt;Node1</title>
<path fill="none" stroke="#9a32cd" stroke-dasharray="5,2" d="M115.5,-112.15C115.5,-85.72 115.5,-38.76 115.5,-19.55"/>
<polygon fill="#9a32cd" stroke="#9a32cd" points="112,-112.37 115.5,-122.37 119,-112.37 112,-112.37"/>
<text text-anchor="middle" x="145" y="-96" font-family="Helvetica,sans-Serif" font-size="10.00"> FreeSched</text>
<text text-anchor="middle" x="145" y="-85" font-family="Helvetica,sans-Serif" font-size="10.00">Sched</text>
<text text-anchor="middle" x="145" y="-74" font-family="Helvetica,sans-Serif" font-size="10.00">Plcmnt</text>
<text text-anchor="middle" x="145" y="-63" font-family="Helvetica,sans-Serif" font-size="10.00">NodeID</text>
<text text-anchor="middle" x="145" y="-52" font-family="Helvetica,sans-Serif" font-size="10.00">TacID</text>
<text text-anchor="middle" x="145" y="-41" font-family="Helvetica,sans-Serif" font-size="10.00">UnrollFactor</text>
</g>
<!-- Node4 -->
<g id="node4" class="node">
<title>Node4</title>
<g id="a_node4"><a xlink:title=" ">
<polygon fill="none" stroke="#bfbfbf" points="178.5,-122.5 178.5,-141.5 216.5,-141.5 216.5,-122.5 178.5,-122.5"/>
<text text-anchor="middle" x="197.5" y="-129.5" font-family="Helvetica,sans-Serif" font-size="10.00">bool</text>
</a>
</g>
</g>
<!-- Node4&#45;&gt;Node1 -->
<g id="edge3" class="edge">
<title>Node4&#45;&gt;Node1</title>
<path fill="none" stroke="#9a32cd" stroke-dasharray="5,2" d="M197.75,-112.27C197.05,-91.82 192.98,-59.17 175.5,-38 168.52,-29.54 158.34,-23.63 148.33,-19.55"/>
<polygon fill="#9a32cd" stroke="#9a32cd" points="194.25,-112.51 197.85,-122.47 201.25,-112.44 194.25,-112.51"/>
<text text-anchor="middle" x="227" y="-68.5" font-family="Helvetica,sans-Serif" font-size="10.00"> IsReduction</text>
</g>
</g>
</svg>
