<?xml version="1.0" encoding="UTF-8" standalone="no"?>
<!DOCTYPE svg PUBLIC "-//W3C//DTD SVG 1.1//EN"
 "http://www.w3.org/Graphics/SVG/1.1/DTD/svg11.dtd">
<!-- Generated by graphviz version 2.43.0 (0)
 -->
<!-- Title: MACVETH/include/TAC.h Pages: 1 -->
<!--zoomable 464 -->
<svg id="main" version="1.1" xmlns="http://www.w3.org/2000/svg" xmlns:xlink="http://www.w3.org/1999/xlink" xml:space="preserve" onload="init(evt)">
<style type="text/css"><![CDATA[
.edge:hover path { stroke: red; }
.edge:hover polygon { stroke: red; fill: red; }
]]></style>
<script type="text/javascript"><![CDATA[
var edges = document.getElementsByTagName('g');
if (edges && edges.length) {
  for (var i=0;i<edges.length;i++) {
    if (edges[i].id.substr(0,4)=='edge') {
      edges[i].setAttribute('class','edge');
    }
  }
}
]]></script>
        <defs>
                <circle id="rim" cx="0" cy="0" r="7"/>
                <circle id="rim2" cx="0" cy="0" r="3.5"/>
                <g id="zoomPlus">
                        <use xlink:href="#rim" fill="#404040">
                                <set attributeName="fill" to="#808080" begin="zoomplus.mouseover" end="zoomplus.mouseout"/>
                        </use>
                        <path d="M-4,0h8M0,-4v8" fill="none" stroke="white" stroke-width="1.5" pointer-events="none"/>
                </g>
                <g id="zoomMin">
                        <use xlink:href="#rim" fill="#404040">
                                <set attributeName="fill" to="#808080" begin="zoomminus.mouseover" end="zoomminus.mouseout"/>
                        </use>
                        <path d="M-4,0h8" fill="none" stroke="white" stroke-width="1.5" pointer-events="none"/>
                </g>
                <g id="dirArrow">
                        <path fill="none" stroke="white" stroke-width="1.5" d="M0,-3.0v7 M-2.5,-0.5L0,-3.0L2.5,-0.5"/>
                </g>
               <g id="resetDef">
                       <use xlink:href="#rim2" fill="#404040">
                               <set attributeName="fill" to="#808080" begin="reset.mouseover" end="reset.mouseout"/>
                       </use>
               </g>
        </defs>

<script type="text/javascript">
var viewWidth = 835;
var viewHeight = 464;
var sectionId = 'dynsection-1';
</script>
<script xlink:href="svgpan.js"/>
<svg id="graph" class="graph">
<g id="viewport">
<title>MACVETH/include/TAC.h</title>
<!-- Node1 -->
<g id="node1" class="node">
<title>Node1</title>
<g id="a_node1"><a xlink:title=" ">
<polygon fill="#bfbfbf" stroke="black" points="596.79,-436.5 596.79,-455.5 730.79,-455.5 730.79,-436.5 596.79,-436.5"/>
<text text-anchor="middle" x="663.79" y="-443.5" font-family="Helvetica,sans-Serif" font-size="10.00">MACVETH/include/TAC.h</text>
</a>
</g>
</g>
<!-- Node2 -->
<g id="node2" class="node">
<title>Node2</title>
<g id="a_node2"><a xlink:href="CDAG_8h.html" target="_top" xlink:title=" ">
<polygon fill="none" stroke="black" points="682.79,-263 682.79,-282 826.79,-282 826.79,-263 682.79,-263"/>
<text text-anchor="middle" x="754.79" y="-270" font-family="Helvetica,sans-Serif" font-size="10.00">MACVETH/include/CDAG.h</text>
</a>
</g>
</g>
<!-- Node1&#45;&gt;Node2 -->
<g id="edge1" class="edge">
<title>Node1&#45;&gt;Node2</title>
<path fill="none" stroke="midnightblue" d="M677.88,-428.71C693.76,-409.6 719.36,-376.39 734.79,-344 744.86,-322.87 750.79,-295.69 753.32,-282.08"/>
<polygon fill="midnightblue" stroke="midnightblue" points="675.13,-426.55 671.34,-436.45 680.47,-431.07 675.13,-426.55"/>
</g>
<!-- Node12 -->
<g id="node12" class="node">
<title>Node12</title>
<g id="a_node12"><a xlink:href="Node_8h.html" target="_top" xlink:title=" ">
<polygon fill="none" stroke="black" points="584.29,-324.5 584.29,-343.5 725.29,-343.5 725.29,-324.5 584.29,-324.5"/>
<text text-anchor="middle" x="654.79" y="-331.5" font-family="Helvetica,sans-Serif" font-size="10.00">MACVETH/include/Node.h</text>
</a>
</g>
</g>
<!-- Node1&#45;&gt;Node12 -->
<g id="edge16" class="edge">
<title>Node1&#45;&gt;Node12</title>
<path fill="none" stroke="midnightblue" d="M662.27,-426.35C660.29,-402.25 656.94,-361.31 655.49,-343.59"/>
<polygon fill="midnightblue" stroke="midnightblue" points="658.78,-426.69 663.08,-436.37 665.76,-426.12 658.78,-426.69"/>
</g>
<!-- Node14 -->
<g id="node14" class="node">
<title>Node14</title>
<g id="a_node14"><a xlink:href="StmtWrapper_8h.html" target="_top" xlink:title=" ">
<polygon fill="none" stroke="black" points="456.29,-380.5 456.29,-399.5 635.29,-399.5 635.29,-380.5 456.29,-380.5"/>
<text text-anchor="middle" x="545.79" y="-387.5" font-family="Helvetica,sans-Serif" font-size="10.00">MACVETH/include/StmtWrapper.h</text>
</a>
</g>
</g>
<!-- Node1&#45;&gt;Node14 -->
<g id="edge22" class="edge">
<title>Node1&#45;&gt;Node14</title>
<path fill="none" stroke="midnightblue" d="M635.89,-432.23C613.82,-422.13 583.61,-408.31 564.4,-399.52"/>
<polygon fill="midnightblue" stroke="midnightblue" points="634.54,-435.46 645.09,-436.44 637.46,-429.1 634.54,-435.46"/>
</g>
<!-- Node3 -->
<g id="node3" class="node">
<title>Node3</title>
<g id="a_node3"><a xlink:href="MVFrontend_8h.html" target="_top" xlink:title=" ">
<polygon fill="none" stroke="black" points="536.79,-62 536.79,-81 710.79,-81 710.79,-62 536.79,-62"/>
<text text-anchor="middle" x="623.79" y="-69" font-family="Helvetica,sans-Serif" font-size="10.00">MACVETH/include/MVFrontend.h</text>
</a>
</g>
</g>
<!-- Node2&#45;&gt;Node3 -->
<g id="edge2" class="edge">
<title>Node2&#45;&gt;Node3</title>
<path fill="none" stroke="midnightblue" d="M767.29,-254.3C777.71,-237.75 789.68,-212.06 781.79,-190 760.6,-130.78 688.25,-95.99 649.23,-81.1"/>
<polygon fill="midnightblue" stroke="midnightblue" points="764.18,-252.64 761.49,-262.89 769.99,-256.56 764.18,-252.64"/>
</g>
<!-- Node5 -->
<g id="node5" class="node">
<title>Node5</title>
<g id="a_node5"><a xlink:href="MVRewriter_8h.html" target="_top" xlink:title=" ">
<polygon fill="none" stroke="black" points="545.79,-129 545.79,-148 717.79,-148 717.79,-129 545.79,-129"/>
<text text-anchor="middle" x="631.79" y="-136" font-family="Helvetica,sans-Serif" font-size="10.00">MACVETH/include/MVRewriter.h</text>
</a>
</g>
</g>
<!-- Node2&#45;&gt;Node5 -->
<g id="edge4" class="edge">
<title>Node2&#45;&gt;Node5</title>
<path fill="none" stroke="midnightblue" d="M763.35,-253.8C770.55,-236.09 777.78,-208.83 764.79,-190 749.22,-167.43 722.15,-154.94 696.48,-148.03"/>
<polygon fill="midnightblue" stroke="midnightblue" points="760.13,-252.43 759.27,-262.99 766.53,-255.27 760.13,-252.43"/>
</g>
<!-- Node6 -->
<g id="node6" class="node">
<title>Node6</title>
<g id="a_node6"><a xlink:href="PlcmntAlgo_8h.html" target="_top" xlink:title=" ">
<polygon fill="none" stroke="black" points="584.29,-196 584.29,-215 755.29,-215 755.29,-196 584.29,-196"/>
<text text-anchor="middle" x="669.79" y="-203" font-family="Helvetica,sans-Serif" font-size="10.00">MACVETH/include/PlcmntAlgo.h</text>
</a>
</g>
</g>
<!-- Node2&#45;&gt;Node6 -->
<g id="edge6" class="edge">
<title>Node2&#45;&gt;Node6</title>
<path fill="none" stroke="midnightblue" d="M735.26,-256.57C718.49,-243.74 694.88,-225.69 681.07,-215.13"/>
<polygon fill="midnightblue" stroke="midnightblue" points="733.26,-259.44 743.33,-262.73 737.51,-253.88 733.26,-259.44"/>
</g>
<!-- Node7 -->
<g id="node7" class="node">
<title>Node7</title>
<g id="a_node7"><a xlink:href="SIMDBackEnd_8h.html" target="_top" xlink:title=" ">
<polygon fill="none" stroke="black" points="319.79,-190.5 319.79,-220.5 489.79,-220.5 489.79,-190.5 319.79,-190.5"/>
<text text-anchor="start" x="327.79" y="-208.5" font-family="Helvetica,sans-Serif" font-size="10.00">MACVETH/include/Vectorization</text>
<text text-anchor="middle" x="404.79" y="-197.5" font-family="Helvetica,sans-Serif" font-size="10.00">/SIMD/SIMDBackEnd.h</text>
</a>
</g>
</g>
<!-- Node2&#45;&gt;Node7 -->
<g id="edge7" class="edge">
<title>Node2&#45;&gt;Node7</title>
<path fill="none" stroke="midnightblue" d="M698.77,-261.1C639.66,-250.12 546.14,-232.75 480.49,-220.56"/>
<polygon fill="midnightblue" stroke="midnightblue" points="698.2,-264.55 708.67,-262.94 699.48,-257.67 698.2,-264.55"/>
</g>
<!-- Node4 -->
<g id="node4" class="node">
<title>Node4</title>
<g id="a_node4"><a xlink:href="macveth_8cpp.html" target="_top" xlink:title=" ">
<polygon fill="none" stroke="black" points="550.79,-0.5 550.79,-19.5 696.79,-19.5 696.79,-0.5 550.79,-0.5"/>
<text text-anchor="middle" x="623.79" y="-7.5" font-family="Helvetica,sans-Serif" font-size="10.00">MACVETH/lib/macveth.cpp</text>
</a>
</g>
</g>
<!-- Node3&#45;&gt;Node4 -->
<g id="edge3" class="edge">
<title>Node3&#45;&gt;Node4</title>
<path fill="none" stroke="midnightblue" d="M623.79,-51.82C623.79,-41 623.79,-27.9 623.79,-19.51"/>
<polygon fill="midnightblue" stroke="midnightblue" points="620.29,-51.98 623.79,-61.98 627.29,-51.98 620.29,-51.98"/>
</g>
<!-- Node5&#45;&gt;Node3 -->
<g id="edge5" class="edge">
<title>Node5&#45;&gt;Node3</title>
<path fill="none" stroke="midnightblue" d="M629.46,-118.54C627.94,-106.17 626.02,-90.62 624.85,-81.13"/>
<polygon fill="midnightblue" stroke="midnightblue" points="626.02,-119.24 630.71,-128.73 632.96,-118.38 626.02,-119.24"/>
</g>
<!-- Node7&#45;&gt;Node3 -->
<g id="edge11" class="edge">
<title>Node7&#45;&gt;Node3</title>
<path fill="none" stroke="midnightblue" d="M426.51,-183.45C445.68,-165.67 474.99,-140.41 503.79,-123 534.16,-104.65 572.42,-89.81 597.46,-81.08"/>
<polygon fill="midnightblue" stroke="midnightblue" points="424.08,-180.93 419.19,-190.33 428.87,-186.03 424.08,-180.93"/>
</g>
<!-- Node7&#45;&gt;Node5 -->
<g id="edge12" class="edge">
<title>Node7&#45;&gt;Node5</title>
<path fill="none" stroke="midnightblue" d="M463.56,-187.67C507.93,-174.97 566.96,-158.06 602.01,-148.03"/>
<polygon fill="midnightblue" stroke="midnightblue" points="462.42,-184.36 453.77,-190.48 464.34,-191.09 462.42,-184.36"/>
</g>
<!-- Node8 -->
<g id="node8" class="node">
<title>Node8</title>
<g id="a_node8"><a xlink:href="MVCostModel_8h.html" target="_top" xlink:title=" ">
<polygon fill="none" stroke="black" points="148.79,-56.5 148.79,-86.5 306.79,-86.5 306.79,-56.5 148.79,-56.5"/>
<text text-anchor="start" x="156.79" y="-74.5" font-family="Helvetica,sans-Serif" font-size="10.00">MACVETH/include/CostModel</text>
<text text-anchor="middle" x="227.79" y="-63.5" font-family="Helvetica,sans-Serif" font-size="10.00">/MVCostModel.h</text>
</a>
</g>
</g>
<!-- Node7&#45;&gt;Node8 -->
<g id="edge8" class="edge">
<title>Node7&#45;&gt;Node8</title>
<path fill="none" stroke="midnightblue" d="M309.91,-191.15C286.52,-183.67 263.44,-172.04 246.79,-154 229.65,-135.42 227.03,-104.45 227.11,-86.51"/>
<polygon fill="midnightblue" stroke="midnightblue" points="308.99,-194.53 319.58,-194.01 310.98,-187.82 308.99,-194.53"/>
</g>
<!-- Node9 -->
<g id="node9" class="node">
<title>Node9</title>
<g id="a_node9"><a xlink:href="SIMDCostInfo_8h.html" target="_top" xlink:title=" ">
<polygon fill="none" stroke="black" points="255.79,-123.5 255.79,-153.5 413.79,-153.5 413.79,-123.5 255.79,-123.5"/>
<text text-anchor="start" x="263.79" y="-141.5" font-family="Helvetica,sans-Serif" font-size="10.00">MACVETH/include/CostModel</text>
<text text-anchor="middle" x="334.79" y="-130.5" font-family="Helvetica,sans-Serif" font-size="10.00">/SIMDCostInfo.h</text>
</a>
</g>
</g>
<!-- Node7&#45;&gt;Node9 -->
<g id="edge9" class="edge">
<title>Node7&#45;&gt;Node9</title>
<path fill="none" stroke="midnightblue" d="M381.97,-183.31C371.47,-173.56 359.3,-162.26 349.95,-153.58"/>
<polygon fill="midnightblue" stroke="midnightblue" points="379.89,-186.16 389.6,-190.4 384.66,-181.03 379.89,-186.16"/>
</g>
<!-- Node10 -->
<g id="node10" class="node">
<title>Node10</title>
<g id="a_node10"><a xlink:href="AVX2BackEnd_8h.html" target="_top" xlink:title=" ">
<polygon fill="none" stroke="black" points="29.79,-123.5 29.79,-153.5 199.79,-153.5 199.79,-123.5 29.79,-123.5"/>
<text text-anchor="start" x="37.79" y="-141.5" font-family="Helvetica,sans-Serif" font-size="10.00">MACVETH/include/Vectorization</text>
<text text-anchor="middle" x="114.79" y="-130.5" font-family="Helvetica,sans-Serif" font-size="10.00">/SIMD/AVX2/AVX2BackEnd.h</text>
</a>
</g>
</g>
<!-- Node7&#45;&gt;Node10 -->
<g id="edge13" class="edge">
<title>Node7&#45;&gt;Node10</title>
<path fill="none" stroke="midnightblue" d="M332.3,-188.25C284.77,-177.6 223.23,-163.81 177.75,-153.61"/>
<polygon fill="midnightblue" stroke="midnightblue" points="331.7,-191.7 342.22,-190.48 333.23,-184.87 331.7,-191.7"/>
</g>
<!-- Node11 -->
<g id="node11" class="node">
<title>Node11</title>
<g id="a_node11"><a xlink:href="SIMDBackEndFactory_8h.html" target="_top" xlink:title=" ">
<polygon fill="none" stroke="black" points="340.79,-56.5 340.79,-86.5 510.79,-86.5 510.79,-56.5 340.79,-56.5"/>
<text text-anchor="start" x="348.79" y="-74.5" font-family="Helvetica,sans-Serif" font-size="10.00">MACVETH/include/Vectorization</text>
<text text-anchor="middle" x="425.79" y="-63.5" font-family="Helvetica,sans-Serif" font-size="10.00">/SIMD/SIMDBackEndFactory.h</text>
</a>
</g>
</g>
<!-- Node7&#45;&gt;Node11 -->
<g id="edge15" class="edge">
<title>Node7&#45;&gt;Node11</title>
<path fill="none" stroke="midnightblue" d="M414.92,-180.8C418.02,-172.48 421.07,-162.97 422.79,-154 427.25,-130.78 427.17,-103.17 426.57,-86.78"/>
<polygon fill="midnightblue" stroke="midnightblue" points="411.61,-179.66 411.2,-190.24 418.12,-182.23 411.61,-179.66"/>
</g>
<!-- Node9&#45;&gt;Node8 -->
<g id="edge10" class="edge">
<title>Node9&#45;&gt;Node8</title>
<path fill="none" stroke="midnightblue" d="M302.72,-118.02C286.06,-107.9 266.1,-95.77 250.96,-86.58"/>
<polygon fill="midnightblue" stroke="midnightblue" points="301.21,-121.2 311.57,-123.4 304.84,-115.21 301.21,-121.2"/>
</g>
<!-- Node10&#45;&gt;Node11 -->
<g id="edge14" class="edge">
<title>Node10&#45;&gt;Node11</title>
<path fill="none" stroke="midnightblue" d="M191.91,-121.38C243.06,-110.69 309.54,-96.8 358.54,-86.55"/>
<polygon fill="midnightblue" stroke="midnightblue" points="190.96,-118 181.89,-123.48 192.4,-124.86 190.96,-118"/>
</g>
<!-- Node12&#45;&gt;Node2 -->
<g id="edge17" class="edge">
<title>Node12&#45;&gt;Node2</title>
<path fill="none" stroke="midnightblue" d="M677.91,-319.24C697.23,-307.75 724.16,-291.72 740.49,-282.01"/>
<polygon fill="midnightblue" stroke="midnightblue" points="675.92,-316.35 669.12,-324.48 679.5,-322.37 675.92,-316.35"/>
</g>
<!-- Node12&#45;&gt;Node6 -->
<g id="edge18" class="edge">
<title>Node12&#45;&gt;Node6</title>
<path fill="none" stroke="midnightblue" d="M657.01,-314.31C660.3,-286.58 666.34,-235.63 668.75,-215.26"/>
<polygon fill="midnightblue" stroke="midnightblue" points="653.52,-313.96 655.82,-324.31 660.48,-314.79 653.52,-313.96"/>
</g>
<!-- Node13 -->
<g id="node13" class="node">
<title>Node13</title>
<g id="a_node13"><a xlink:href="VectorIR_8h.html" target="_top" xlink:title=" ">
<polygon fill="none" stroke="black" points="319.79,-257.5 319.79,-287.5 489.79,-287.5 489.79,-257.5 319.79,-257.5"/>
<text text-anchor="start" x="327.79" y="-275.5" font-family="Helvetica,sans-Serif" font-size="10.00">MACVETH/include/Vectorization</text>
<text text-anchor="middle" x="404.79" y="-264.5" font-family="Helvetica,sans-Serif" font-size="10.00">/VectorIR.h</text>
</a>
</g>
</g>
<!-- Node12&#45;&gt;Node13 -->
<g id="edge19" class="edge">
<title>Node12&#45;&gt;Node13</title>
<path fill="none" stroke="midnightblue" d="M609.02,-322.11C568.18,-312.39 508.13,-298.1 463.71,-287.52"/>
<polygon fill="midnightblue" stroke="midnightblue" points="608.43,-325.56 618.97,-324.48 610.05,-318.75 608.43,-325.56"/>
</g>
<!-- Node13&#45;&gt;Node7 -->
<g id="edge21" class="edge">
<title>Node13&#45;&gt;Node7</title>
<path fill="none" stroke="midnightblue" d="M404.79,-247.11C404.79,-238.15 404.79,-228.32 404.79,-220.58"/>
<polygon fill="midnightblue" stroke="midnightblue" points="401.29,-247.4 404.79,-257.4 408.29,-247.4 401.29,-247.4"/>
</g>
<!-- Node13&#45;&gt;Node10 -->
<g id="edge20" class="edge">
<title>Node13&#45;&gt;Node10</title>
<path fill="none" stroke="midnightblue" d="M364.73,-253.26C306.19,-226.62 198.5,-177.6 145.67,-153.56"/>
<polygon fill="midnightblue" stroke="midnightblue" points="363.48,-256.54 374.03,-257.5 366.38,-250.17 363.48,-256.54"/>
</g>
<!-- Node14&#45;&gt;Node3 -->
<g id="edge24" class="edge">
<title>Node14&#45;&gt;Node3</title>
<path fill="none" stroke="midnightblue" d="M538.58,-370.93C530.29,-348.47 517.79,-308.79 517.79,-273.5 517.79,-273.5 517.79,-273.5 517.79,-204.5 517.79,-167.31 514.67,-152.9 536.79,-123 551.96,-102.5 578.12,-88.96 597.81,-81.11"/>
<polygon fill="midnightblue" stroke="midnightblue" points="535.4,-372.4 542.24,-380.48 541.93,-369.89 535.4,-372.4"/>
</g>
<!-- Node14&#45;&gt;Node5 -->
<g id="edge25" class="edge">
<title>Node14&#45;&gt;Node5</title>
<path fill="none" stroke="midnightblue" d="M544.41,-370.13C542.55,-333.15 542.6,-249.6 574.79,-190 584.66,-171.74 603.86,-156.88 617.24,-148.12"/>
<polygon fill="midnightblue" stroke="midnightblue" points="540.93,-370.64 545.04,-380.4 547.92,-370.21 540.93,-370.64"/>
</g>
<!-- Node14&#45;&gt;Node8 -->
<g id="edge23" class="edge">
<title>Node14&#45;&gt;Node8</title>
<path fill="none" stroke="midnightblue" d="M446.12,-387.96C289.09,-383.58 1.79,-363.31 1.79,-273.5 1.79,-273.5 1.79,-273.5 1.79,-204.5 1.79,-167.31 -5.37,-149.43 20.79,-123 38.84,-104.76 98.14,-91.46 148.66,-83.1"/>
<polygon fill="midnightblue" stroke="midnightblue" points="446.18,-391.46 456.27,-388.22 446.36,-384.46 446.18,-391.46"/>
</g>
<!-- Node14&#45;&gt;Node12 -->
<g id="edge26" class="edge">
<title>Node14&#45;&gt;Node12</title>
<path fill="none" stroke="midnightblue" d="M572.31,-375.86C592.52,-365.85 619.78,-352.35 637.32,-343.65"/>
<polygon fill="midnightblue" stroke="midnightblue" points="570.71,-372.75 563.3,-380.32 573.82,-379.02 570.71,-372.75"/>
</g>
</g>
</svg>
        <g id="navigator" transform="translate(0 0)" fill="#404254">
                <rect fill="#f2f5e9" fill-opacity="0.5" stroke="#606060" stroke-width=".5" x="0" y="0" width="60" height="60"/>
                <use id="zoomplus" xlink:href="#zoomPlus" x="17" y="9" onmousedown="handleZoom(evt,'in')"/>
                <use id="zoomminus" xlink:href="#zoomMin" x="42" y="9" onmousedown="handleZoom(evt,'out')"/>
                <use id="reset" xlink:href="#resetDef" x="30" y="36" onmousedown="handleReset()"/>
                <g id="arrowUp" xlink:href="#dirArrow" transform="translate(30 24)" onmousedown="handlePan(0,-1)">
                  <use xlink:href="#rim" fill="#404040">
                        <set attributeName="fill" to="#808080" begin="arrowUp.mouseover" end="arrowUp.mouseout"/>
                  </use>
                  <path fill="none" stroke="white" stroke-width="1.5" d="M0,-3.0v7 M-2.5,-0.5L0,-3.0L2.5,-0.5"/>
                </g>
                <g id="arrowRight" xlink:href="#dirArrow" transform="rotate(90) translate(36 -43)" onmousedown="handlePan(1,0)">
                  <use xlink:href="#rim" fill="#404040">
                        <set attributeName="fill" to="#808080" begin="arrowRight.mouseover" end="arrowRight.mouseout"/>
                  </use>
                  <path fill="none" stroke="white" stroke-width="1.5" d="M0,-3.0v7 M-2.5,-0.5L0,-3.0L2.5,-0.5"/>
                </g>
                <g id="arrowDown" xlink:href="#dirArrow" transform="rotate(180) translate(-30 -48)" onmousedown="handlePan(0,1)">
                  <use xlink:href="#rim" fill="#404040">
                        <set attributeName="fill" to="#808080" begin="arrowDown.mouseover" end="arrowDown.mouseout"/>
                  </use>
                  <path fill="none" stroke="white" stroke-width="1.5" d="M0,-3.0v7 M-2.5,-0.5L0,-3.0L2.5,-0.5"/>
                </g>
                <g id="arrowLeft" xlink:href="#dirArrow" transform="rotate(270) translate(-36 17)" onmousedown="handlePan(-1,0)">
                  <use xlink:href="#rim" fill="#404040">
                        <set attributeName="fill" to="#808080" begin="arrowLeft.mouseover" end="arrowLeft.mouseout"/>
                  </use>
                  <path fill="none" stroke="white" stroke-width="1.5" d="M0,-3.0v7 M-2.5,-0.5L0,-3.0L2.5,-0.5"/>
                </g>
        </g>
        <svg viewBox="0 0 15 15" width="100%" height="30px" preserveAspectRatio="xMaxYMin meet">
         <g id="arrow_out" transform="scale(0.3 0.3)">
          <a xlink:href="TAC_8h__dep__incl_org.svg" target="_base">
           <rect id="button" ry="5" rx="5" y="6" x="6" height="38" width="38"
                fill="#f2f5e9" fill-opacity="0.5" stroke="#606060" stroke-width="1.0"/>
           <path id="arrow"
             d="M 11.500037,31.436501 C 11.940474,20.09759 22.043105,11.32322 32.158766,21.979434 L 37.068811,17.246167 C 37.068811,17.246167 37.088388,32 37.088388,32 L 22.160133,31.978069 C 22.160133,31.978069 26.997745,27.140456 26.997745,27.140456 C 18.528582,18.264221 13.291696,25.230495 11.500037,31.436501 z"
             style="fill:#404040;"/>
          </a>
         </g>
        </svg>
</svg>
