<?xml version="1.0" encoding="UTF-8" standalone="no"?>
<!DOCTYPE svg PUBLIC "-//W3C//DTD SVG 1.1//EN"
 "http://www.w3.org/Graphics/SVG/1.1/DTD/svg11.dtd">
<!-- Generated by graphviz version 2.43.0 (0)
 -->
<!-- Title: MACVETH/include/Utils.h Pages: 1 -->
<!--zoomable 665 -->
<svg id="main" version="1.1" xmlns="http://www.w3.org/2000/svg" xmlns:xlink="http://www.w3.org/1999/xlink" xml:space="preserve" onload="init(evt)">
<style type="text/css"><![CDATA[
.edge:hover path { stroke: red; }
.edge:hover polygon { stroke: red; fill: red; }
]]></style>
<script type="text/javascript"><![CDATA[
var edges = document.getElementsByTagName('g');
if (edges && edges.length) {
  for (var i=0;i<edges.length;i++) {
    if (edges[i].id.substr(0,4)=='edge') {
      edges[i].setAttribute('class','edge');
    }
  }
}
]]></script>
        <defs>
                <circle id="rim" cx="0" cy="0" r="7"/>
                <circle id="rim2" cx="0" cy="0" r="3.5"/>
                <g id="zoomPlus">
                        <use xlink:href="#rim" fill="#404040">
                                <set attributeName="fill" to="#808080" begin="zoomplus.mouseover" end="zoomplus.mouseout"/>
                        </use>
                        <path d="M-4,0h8M0,-4v8" fill="none" stroke="white" stroke-width="1.5" pointer-events="none"/>
                </g>
                <g id="zoomMin">
                        <use xlink:href="#rim" fill="#404040">
                                <set attributeName="fill" to="#808080" begin="zoomminus.mouseover" end="zoomminus.mouseout"/>
                        </use>
                        <path d="M-4,0h8" fill="none" stroke="white" stroke-width="1.5" pointer-events="none"/>
                </g>
                <g id="dirArrow">
                        <path fill="none" stroke="white" stroke-width="1.5" d="M0,-3.0v7 M-2.5,-0.5L0,-3.0L2.5,-0.5"/>
                </g>
               <g id="resetDef">
                       <use xlink:href="#rim2" fill="#404040">
                               <set attributeName="fill" to="#808080" begin="reset.mouseover" end="reset.mouseout"/>
                       </use>
               </g>
        </defs>

<script type="text/javascript">
var viewWidth = 976;
var viewHeight = 665;
var sectionId = 'dynsection-1';
</script>
<script xlink:href="svgpan.js"/>
<svg id="graph" class="graph">
<g id="viewport">
<title>MACVETH/include/Utils.h</title>
<!-- Node1 -->
<g id="node1" class="node">
<title>Node1</title>
<g id="a_node1"><a xlink:title=" ">
<polygon fill="#bfbfbf" stroke="black" points="429,-637.5 429,-656.5 567,-656.5 567,-637.5 429,-637.5"/>
<text text-anchor="middle" x="498" y="-644.5" font-family="Helvetica,sans-Serif" font-size="10.00">MACVETH/include/Utils.h</text>
</a>
</g>
</g>
<!-- Node2 -->
<g id="node2" class="node">
<title>Node2</title>
<g id="a_node2"><a xlink:href="CostTable_8h.html" target="_top" xlink:title=" ">
<polygon fill="none" stroke="black" points="82,-257.5 82,-287.5 240,-287.5 240,-257.5 82,-257.5"/>
<text text-anchor="start" x="90" y="-275.5" font-family="Helvetica,sans-Serif" font-size="10.00">MACVETH/include/CostModel</text>
<text text-anchor="middle" x="161" y="-264.5" font-family="Helvetica,sans-Serif" font-size="10.00">/CostTable.h</text>
</a>
</g>
</g>
<!-- Node1&#45;&gt;Node2 -->
<g id="edge1" class="edge">
<title>Node1&#45;&gt;Node2</title>
<path fill="none" stroke="midnightblue" d="M418.59,-642.31C286.99,-634 38,-608.04 38,-530.5 38,-530.5 38,-530.5 38,-394.5 38,-343.13 93.2,-306.28 129.64,-287.56"/>
<polygon fill="midnightblue" stroke="midnightblue" points="418.44,-645.81 428.64,-642.92 418.87,-638.82 418.44,-645.81"/>
</g>
<!-- Node7 -->
<g id="node7" class="node">
<title>Node7</title>
<g id="a_node7"><a xlink:href="macveth_8cpp.html" target="_top" xlink:title=" ">
<polygon fill="none" stroke="black" points="687,-0.5 687,-19.5 833,-19.5 833,-0.5 687,-0.5"/>
<text text-anchor="middle" x="760" y="-7.5" font-family="Helvetica,sans-Serif" font-size="10.00">MACVETH/lib/macveth.cpp</text>
</a>
</g>
</g>
<!-- Node1&#45;&gt;Node7 -->
<g id="edge51" class="edge">
<title>Node1&#45;&gt;Node7</title>
<path fill="none" stroke="midnightblue" d="M418.51,-643C315.07,-638.14 140.62,-626.4 82,-601 37.9,-581.89 0,-578.56 0,-530.5 0,-530.5 0,-530.5 0,-137.5 0,-59.67 80.18,-77.45 155,-56 252.96,-27.92 548.48,-16.58 686.94,-12.72"/>
<polygon fill="midnightblue" stroke="midnightblue" points="418.45,-646.5 428.6,-643.46 418.77,-639.51 418.45,-646.5"/>
</g>
<!-- Node11 -->
<g id="node11" class="node">
<title>Node11</title>
<g id="a_node11"><a xlink:href="Debug_8h.html" target="_top" xlink:title=" ">
<polygon fill="none" stroke="black" points="475.5,-581.5 475.5,-600.5 622.5,-600.5 622.5,-581.5 475.5,-581.5"/>
<text text-anchor="middle" x="549" y="-588.5" font-family="Helvetica,sans-Serif" font-size="10.00">MACVETH/include/Debug.h</text>
</a>
</g>
</g>
<!-- Node1&#45;&gt;Node11 -->
<g id="edge14" class="edge">
<title>Node1&#45;&gt;Node11</title>
<path fill="none" stroke="midnightblue" d="M513.38,-629.72C522.37,-620.2 533.36,-608.56 540.74,-600.75"/>
<polygon fill="midnightblue" stroke="midnightblue" points="510.74,-627.41 506.42,-637.08 515.83,-632.22 510.74,-627.41"/>
</g>
<!-- Node12 -->
<g id="node12" class="node">
<title>Node12</title>
<g id="a_node12"><a xlink:href="MVExpr_8h.html" target="_top" xlink:title=" ">
<polygon fill="none" stroke="black" points="380,-514.5 380,-544.5 524,-544.5 524,-514.5 380,-514.5"/>
<text text-anchor="start" x="388" y="-532.5" font-family="Helvetica,sans-Serif" font-size="10.00">MACVETH/include/MVExpr</text>
<text text-anchor="middle" x="452" y="-521.5" font-family="Helvetica,sans-Serif" font-size="10.00">/MVExpr.h</text>
</a>
</g>
</g>
<!-- Node1&#45;&gt;Node12 -->
<g id="edge48" class="edge">
<title>Node1&#45;&gt;Node12</title>
<path fill="none" stroke="midnightblue" d="M483.71,-629.51C477.39,-621.41 470.4,-611.21 466,-601 458,-582.44 454.52,-559.14 453.04,-544.53"/>
<polygon fill="midnightblue" stroke="midnightblue" points="481.11,-631.86 490.16,-637.38 486.53,-627.43 481.11,-631.86"/>
</g>
<!-- Node21 -->
<g id="node21" class="node">
<title>Node21</title>
<g id="a_node21"><a xlink:href="StmtWrapper_8h.html" target="_top" xlink:title=" ">
<polygon fill="none" stroke="black" points="666.5,-386 666.5,-405 845.5,-405 845.5,-386 666.5,-386"/>
<text text-anchor="middle" x="756" y="-393" font-family="Helvetica,sans-Serif" font-size="10.00">MACVETH/include/StmtWrapper.h</text>
</a>
</g>
</g>
<!-- Node1&#45;&gt;Node21 -->
<g id="edge49" class="edge">
<title>Node1&#45;&gt;Node21</title>
<path fill="none" stroke="midnightblue" d="M567.33,-635.17C595.05,-628.49 626.22,-617.84 651,-601 708.35,-562.01 720.87,-542.23 747,-478 757.08,-453.21 757.21,-420.88 756.57,-405.45"/>
<polygon fill="midnightblue" stroke="midnightblue" points="566.26,-631.82 557.28,-637.45 567.81,-638.64 566.26,-631.82"/>
</g>
<!-- Node22 -->
<g id="node22" class="node">
<title>Node22</title>
<g id="a_node22"><a xlink:href="TAC_8h.html" target="_top" xlink:title=" ">
<polygon fill="none" stroke="black" points="580,-453 580,-472 714,-472 714,-453 580,-453"/>
<text text-anchor="middle" x="647" y="-460" font-family="Helvetica,sans-Serif" font-size="10.00">MACVETH/include/TAC.h</text>
</a>
</g>
</g>
<!-- Node1&#45;&gt;Node22 -->
<g id="edge50" class="edge">
<title>Node1&#45;&gt;Node22</title>
<path fill="none" stroke="midnightblue" d="M576.89,-634.95C597.36,-628.32 617.43,-617.77 631,-601 662.44,-562.14 653.35,-495.65 648.84,-472.09"/>
<polygon fill="midnightblue" stroke="midnightblue" points="575.76,-631.64 567.16,-637.82 577.74,-638.35 575.76,-631.64"/>
</g>
<!-- Node3 -->
<g id="node3" class="node">
<title>Node3</title>
<g id="a_node3"><a xlink:href="SIMDCostInfo_8h.html" target="_top" xlink:title=" ">
<polygon fill="none" stroke="black" points="333,-123.5 333,-153.5 491,-153.5 491,-123.5 333,-123.5"/>
<text text-anchor="start" x="341" y="-141.5" font-family="Helvetica,sans-Serif" font-size="10.00">MACVETH/include/CostModel</text>
<text text-anchor="middle" x="412" y="-130.5" font-family="Helvetica,sans-Serif" font-size="10.00">/SIMDCostInfo.h</text>
</a>
</g>
</g>
<!-- Node2&#45;&gt;Node3 -->
<g id="edge2" class="edge">
<title>Node2&#45;&gt;Node3</title>
<path fill="none" stroke="midnightblue" d="M179.56,-249.51C196.08,-231.22 221.79,-205.71 249,-190 277.86,-173.33 312.83,-161.56 342.97,-153.6"/>
<polygon fill="midnightblue" stroke="midnightblue" points="176.64,-247.54 172.64,-257.35 181.89,-252.17 176.64,-247.54"/>
</g>
<!-- Node5 -->
<g id="node5" class="node">
<title>Node5</title>
<g id="a_node5"><a xlink:href="SIMDBackEnd_8h.html" target="_top" xlink:title=" ">
<polygon fill="none" stroke="black" points="258,-190.5 258,-220.5 428,-220.5 428,-190.5 258,-190.5"/>
<text text-anchor="start" x="266" y="-208.5" font-family="Helvetica,sans-Serif" font-size="10.00">MACVETH/include/Vectorization</text>
<text text-anchor="middle" x="343" y="-197.5" font-family="Helvetica,sans-Serif" font-size="10.00">/SIMD/SIMDBackEnd.h</text>
</a>
</g>
</g>
<!-- Node2&#45;&gt;Node5 -->
<g id="edge4" class="edge">
<title>Node2&#45;&gt;Node5</title>
<path fill="none" stroke="midnightblue" d="M210.13,-253.96C239.44,-243.48 276.18,-230.37 303.59,-220.58"/>
<polygon fill="midnightblue" stroke="midnightblue" points="208.73,-250.74 200.49,-257.4 211.09,-257.33 208.73,-250.74"/>
</g>
<!-- Node4 -->
<g id="node4" class="node">
<title>Node4</title>
<g id="a_node4"><a xlink:href="MVCostModel_8h.html" target="_top" xlink:title=" ">
<polygon fill="none" stroke="black" points="440,-56.5 440,-86.5 598,-86.5 598,-56.5 440,-56.5"/>
<text text-anchor="start" x="448" y="-74.5" font-family="Helvetica,sans-Serif" font-size="10.00">MACVETH/include/CostModel</text>
<text text-anchor="middle" x="519" y="-63.5" font-family="Helvetica,sans-Serif" font-size="10.00">/MVCostModel.h</text>
</a>
</g>
</g>
<!-- Node3&#45;&gt;Node4 -->
<g id="edge3" class="edge">
<title>Node3&#45;&gt;Node4</title>
<path fill="none" stroke="midnightblue" d="M444.08,-118.02C460.73,-107.9 480.69,-95.77 495.83,-86.58"/>
<polygon fill="midnightblue" stroke="midnightblue" points="441.95,-115.21 435.22,-123.4 445.58,-121.2 441.95,-115.21"/>
</g>
<!-- Node5&#45;&gt;Node3 -->
<g id="edge6" class="edge">
<title>Node5&#45;&gt;Node3</title>
<path fill="none" stroke="midnightblue" d="M365.49,-183.31C375.84,-173.56 387.84,-162.26 397.06,-153.58"/>
<polygon fill="midnightblue" stroke="midnightblue" points="362.85,-180.99 357.97,-190.4 367.65,-186.09 362.85,-180.99"/>
</g>
<!-- Node5&#45;&gt;Node4 -->
<g id="edge5" class="edge">
<title>Node5&#45;&gt;Node4</title>
<path fill="none" stroke="midnightblue" d="M417.66,-187.94C452.21,-178.83 488.21,-166.8 500,-154 517.13,-135.41 519.75,-104.44 519.67,-86.51"/>
<polygon fill="midnightblue" stroke="midnightblue" points="416.78,-184.55 407.97,-190.43 418.53,-191.33 416.78,-184.55"/>
</g>
<!-- Node6 -->
<g id="node6" class="node">
<title>Node6</title>
<g id="a_node6"><a xlink:href="MVFrontend_8h.html" target="_top" xlink:title=" ">
<polygon fill="none" stroke="black" points="673,-62 673,-81 847,-81 847,-62 673,-62"/>
<text text-anchor="middle" x="760" y="-69" font-family="Helvetica,sans-Serif" font-size="10.00">MACVETH/include/MVFrontend.h</text>
</a>
</g>
</g>
<!-- Node5&#45;&gt;Node6 -->
<g id="edge7" class="edge">
<title>Node5&#45;&gt;Node6</title>
<path fill="none" stroke="midnightblue" d="M405.63,-187.74C440.11,-178.28 483.57,-165.99 522,-154 601.22,-129.28 693.95,-96.36 736.49,-81.03"/>
<polygon fill="midnightblue" stroke="midnightblue" points="404.43,-184.44 395.7,-190.45 406.27,-191.19 404.43,-184.44"/>
</g>
<!-- Node8 -->
<g id="node8" class="node">
<title>Node8</title>
<g id="a_node8"><a xlink:href="MVRewriter_8h.html" target="_top" xlink:title=" ">
<polygon fill="none" stroke="black" points="674,-129 674,-148 846,-148 846,-129 674,-129"/>
<text text-anchor="middle" x="760" y="-136" font-family="Helvetica,sans-Serif" font-size="10.00">MACVETH/include/MVRewriter.h</text>
</a>
</g>
</g>
<!-- Node5&#45;&gt;Node8 -->
<g id="edge9" class="edge">
<title>Node5&#45;&gt;Node8</title>
<path fill="none" stroke="midnightblue" d="M438.04,-189.69C520.61,-176.82 637.32,-158.62 705.18,-148.04"/>
<polygon fill="midnightblue" stroke="midnightblue" points="437.48,-186.23 428.14,-191.23 438.56,-193.15 437.48,-186.23"/>
</g>
<!-- Node9 -->
<g id="node9" class="node">
<title>Node9</title>
<g id="a_node9"><a xlink:href="AVX2BackEnd_8h.html" target="_top" xlink:title=" ">
<polygon fill="none" stroke="black" points="107,-123.5 107,-153.5 277,-153.5 277,-123.5 107,-123.5"/>
<text text-anchor="start" x="115" y="-141.5" font-family="Helvetica,sans-Serif" font-size="10.00">MACVETH/include/Vectorization</text>
<text text-anchor="middle" x="192" y="-130.5" font-family="Helvetica,sans-Serif" font-size="10.00">/SIMD/AVX2/AVX2BackEnd.h</text>
</a>
</g>
</g>
<!-- Node5&#45;&gt;Node9 -->
<g id="edge11" class="edge">
<title>Node5&#45;&gt;Node9</title>
<path fill="none" stroke="midnightblue" d="M300.97,-186.41C276.86,-176.03 247.05,-163.2 224.7,-153.58"/>
<polygon fill="midnightblue" stroke="midnightblue" points="299.67,-189.66 310.24,-190.4 302.43,-183.23 299.67,-189.66"/>
</g>
<!-- Node10 -->
<g id="node10" class="node">
<title>Node10</title>
<g id="a_node10"><a xlink:href="SIMDBackEndFactory_8h.html" target="_top" xlink:title=" ">
<polygon fill="none" stroke="black" points="164,-56.5 164,-86.5 334,-86.5 334,-56.5 164,-56.5"/>
<text text-anchor="start" x="172" y="-74.5" font-family="Helvetica,sans-Serif" font-size="10.00">MACVETH/include/Vectorization</text>
<text text-anchor="middle" x="249" y="-63.5" font-family="Helvetica,sans-Serif" font-size="10.00">/SIMD/SIMDBackEndFactory.h</text>
</a>
</g>
</g>
<!-- Node5&#45;&gt;Node10 -->
<g id="edge13" class="edge">
<title>Node5&#45;&gt;Node10</title>
<path fill="none" stroke="midnightblue" d="M327.38,-181.89C316,-165.48 300.16,-142.78 286,-123 277.14,-110.63 266.91,-96.68 259.45,-86.59"/>
<polygon fill="midnightblue" stroke="midnightblue" points="324.64,-184.07 333.21,-190.3 330.39,-180.09 324.64,-184.07"/>
</g>
<!-- Node6&#45;&gt;Node7 -->
<g id="edge8" class="edge">
<title>Node6&#45;&gt;Node7</title>
<path fill="none" stroke="midnightblue" d="M760,-51.82C760,-41 760,-27.9 760,-19.51"/>
<polygon fill="midnightblue" stroke="midnightblue" points="756.5,-51.98 760,-61.98 763.5,-51.98 756.5,-51.98"/>
</g>
<!-- Node8&#45;&gt;Node6 -->
<g id="edge10" class="edge">
<title>Node8&#45;&gt;Node6</title>
<path fill="none" stroke="midnightblue" d="M760,-118.54C760,-106.17 760,-90.62 760,-81.13"/>
<polygon fill="midnightblue" stroke="midnightblue" points="756.5,-118.73 760,-128.73 763.5,-118.73 756.5,-118.73"/>
</g>
<!-- Node9&#45;&gt;Node10 -->
<g id="edge12" class="edge">
<title>Node9&#45;&gt;Node10</title>
<path fill="none" stroke="midnightblue" d="M211.09,-115.74C219.52,-106.12 229.19,-95.09 236.66,-86.58"/>
<polygon fill="midnightblue" stroke="midnightblue" points="208.33,-113.57 204.37,-123.4 213.59,-118.18 208.33,-113.57"/>
</g>
<!-- Node11&#45;&gt;Node12 -->
<g id="edge15" class="edge">
<title>Node11&#45;&gt;Node12</title>
<path fill="none" stroke="midnightblue" d="M526.19,-576.01C510.72,-566.52 490.34,-554.02 474.86,-544.52"/>
<polygon fill="midnightblue" stroke="midnightblue" points="524.75,-579.23 535.1,-581.48 528.41,-573.26 524.75,-579.23"/>
</g>
<!-- Node11&#45;&gt;Node22 -->
<g id="edge47" class="edge">
<title>Node11&#45;&gt;Node22</title>
<path fill="none" stroke="midnightblue" d="M557.97,-571.77C566.25,-555.79 579.43,-532.31 594,-514 606.98,-497.69 625.08,-481.55 636.41,-472.06"/>
<polygon fill="midnightblue" stroke="midnightblue" points="554.66,-570.56 553.27,-581.07 560.91,-573.72 554.66,-570.56"/>
</g>
<!-- Node23 -->
<g id="node23" class="node">
<title>Node23</title>
<g id="a_node23"><a xlink:href="MVPragmaHandler_8h.html" target="_top" xlink:title=" ">
<polygon fill="none" stroke="black" points="808,-447.5 808,-477.5 968,-477.5 968,-447.5 808,-447.5"/>
<text text-anchor="start" x="816" y="-465.5" font-family="Helvetica,sans-Serif" font-size="10.00">MACVETH/include/MVPragma</text>
<text text-anchor="middle" x="888" y="-454.5" font-family="Helvetica,sans-Serif" font-size="10.00">Handler.h</text>
</a>
</g>
</g>
<!-- Node11&#45;&gt;Node23 -->
<g id="edge42" class="edge">
<title>Node11&#45;&gt;Node23</title>
<path fill="none" stroke="midnightblue" d="M581.49,-577.87C644.62,-554.32 783.51,-502.49 850.46,-477.51"/>
<polygon fill="midnightblue" stroke="midnightblue" points="580.18,-574.63 572.03,-581.4 582.63,-581.19 580.18,-574.63"/>
</g>
<!-- Node13 -->
<g id="node13" class="node">
<title>Node13</title>
<g id="a_node13"><a xlink:href="MVExprArray_8h.html" target="_top" xlink:title=" ">
<polygon fill="none" stroke="black" points="66,-380.5 66,-410.5 210,-410.5 210,-380.5 66,-380.5"/>
<text text-anchor="start" x="74" y="-398.5" font-family="Helvetica,sans-Serif" font-size="10.00">MACVETH/include/MVExpr</text>
<text text-anchor="middle" x="138" y="-387.5" font-family="Helvetica,sans-Serif" font-size="10.00">/MVExprArray.h</text>
</a>
</g>
</g>
<!-- Node12&#45;&gt;Node13 -->
<g id="edge16" class="edge">
<title>Node12&#45;&gt;Node13</title>
<path fill="none" stroke="midnightblue" d="M408.51,-510.61C385.21,-500.99 356.01,-488.9 330,-478 274.06,-454.55 209.13,-426.9 170.92,-410.58"/>
<polygon fill="midnightblue" stroke="midnightblue" points="407.2,-513.86 417.78,-514.43 409.87,-507.38 407.2,-513.86"/>
</g>
<!-- Node15 -->
<g id="node15" class="node">
<title>Node15</title>
<g id="a_node15"><a xlink:href="MVExprFactory_8h.html" target="_top" xlink:title=" ">
<polygon fill="none" stroke="black" points="380,-447.5 380,-477.5 524,-477.5 524,-447.5 380,-447.5"/>
<text text-anchor="start" x="388" y="-465.5" font-family="Helvetica,sans-Serif" font-size="10.00">MACVETH/include/MVExpr</text>
<text text-anchor="middle" x="452" y="-454.5" font-family="Helvetica,sans-Serif" font-size="10.00">/MVExprFactory.h</text>
</a>
</g>
</g>
<!-- Node12&#45;&gt;Node15 -->
<g id="edge20" class="edge">
<title>Node12&#45;&gt;Node15</title>
<path fill="none" stroke="midnightblue" d="M452,-504.11C452,-495.15 452,-485.32 452,-477.58"/>
<polygon fill="midnightblue" stroke="midnightblue" points="448.5,-504.4 452,-514.4 455.5,-504.4 448.5,-504.4"/>
</g>
<!-- Node16 -->
<g id="node16" class="node">
<title>Node16</title>
<g id="a_node16"><a xlink:href="MVExprLiteral_8h.html" target="_top" xlink:title=" ">
<polygon fill="none" stroke="black" points="228,-380.5 228,-410.5 372,-410.5 372,-380.5 228,-380.5"/>
<text text-anchor="start" x="236" y="-398.5" font-family="Helvetica,sans-Serif" font-size="10.00">MACVETH/include/MVExpr</text>
<text text-anchor="middle" x="300" y="-387.5" font-family="Helvetica,sans-Serif" font-size="10.00">/MVExprLiteral.h</text>
</a>
</g>
</g>
<!-- Node12&#45;&gt;Node16 -->
<g id="edge21" class="edge">
<title>Node12&#45;&gt;Node16</title>
<path fill="none" stroke="midnightblue" d="M410.35,-509.68C394.28,-501.3 376.35,-490.48 362,-478 338.93,-457.93 318.87,-428.04 308.19,-410.58"/>
<polygon fill="midnightblue" stroke="midnightblue" points="409.05,-512.95 419.55,-514.33 412.2,-506.7 409.05,-512.95"/>
</g>
<!-- Node17 -->
<g id="node17" class="node">
<title>Node17</title>
<g id="a_node17"><a xlink:href="Node_8h.html" target="_top" xlink:title=" ">
<polygon fill="none" stroke="black" points="440.5,-324.5 440.5,-343.5 581.5,-343.5 581.5,-324.5 440.5,-324.5"/>
<text text-anchor="middle" x="511" y="-331.5" font-family="Helvetica,sans-Serif" font-size="10.00">MACVETH/include/Node.h</text>
</a>
</g>
</g>
<!-- Node12&#45;&gt;Node17 -->
<g id="edge32" class="edge">
<title>Node12&#45;&gt;Node17</title>
<path fill="none" stroke="midnightblue" d="M497.15,-509.56C510.71,-501.72 524.27,-491.3 533,-478 557.02,-441.4 556.32,-421.71 543,-380 538.45,-365.75 527.56,-352.16 519.75,-343.71"/>
<polygon fill="midnightblue" stroke="midnightblue" points="495.44,-506.51 488.3,-514.34 498.76,-512.67 495.44,-506.51"/>
</g>
<!-- Node20 -->
<g id="node20" class="node">
<title>Node20</title>
<g id="a_node20"><a xlink:href="MVExprVar_8h.html" target="_top" xlink:title=" ">
<polygon fill="none" stroke="black" points="390,-380.5 390,-410.5 534,-410.5 534,-380.5 390,-380.5"/>
<text text-anchor="start" x="398" y="-398.5" font-family="Helvetica,sans-Serif" font-size="10.00">MACVETH/include/MVExpr</text>
<text text-anchor="middle" x="462" y="-387.5" font-family="Helvetica,sans-Serif" font-size="10.00">/MVExprVar.h</text>
</a>
</g>
</g>
<!-- Node12&#45;&gt;Node20 -->
<g id="edge30" class="edge">
<title>Node12&#45;&gt;Node20</title>
<path fill="none" stroke="midnightblue" d="M404.24,-509.45C391.11,-501.74 378.45,-491.42 371,-478 364.31,-465.95 364.01,-458.87 371,-447 380.99,-430.03 398.97,-418.35 416.33,-410.54"/>
<polygon fill="midnightblue" stroke="midnightblue" points="402.88,-512.69 413.34,-514.37 406.21,-506.54 402.88,-512.69"/>
</g>
<!-- Node12&#45;&gt;Node21 -->
<g id="edge33" class="edge">
<title>Node12&#45;&gt;Node21</title>
<path fill="none" stroke="midnightblue" d="M534.54,-517.19C608.78,-506.36 708.38,-489.95 723,-478 745.93,-459.26 753.06,-422.12 755.17,-405.23"/>
<polygon fill="midnightblue" stroke="midnightblue" points="533.64,-513.78 524.25,-518.68 534.65,-520.71 533.64,-513.78"/>
</g>
<!-- Node12&#45;&gt;Node22 -->
<g id="edge38" class="edge">
<title>Node12&#45;&gt;Node22</title>
<path fill="none" stroke="midnightblue" d="M504.18,-511.11C542.11,-498.46 591.82,-481.89 621.48,-472.01"/>
<polygon fill="midnightblue" stroke="midnightblue" points="502.69,-507.91 494.31,-514.4 504.91,-514.55 502.69,-507.91"/>
</g>
<!-- Node14 -->
<g id="node14" class="node">
<title>Node14</title>
<g id="a_node14"><a xlink:href="VectorIR_8h.html" target="_top" xlink:title=" ">
<polygon fill="none" stroke="black" points="258,-257.5 258,-287.5 428,-287.5 428,-257.5 258,-257.5"/>
<text text-anchor="start" x="266" y="-275.5" font-family="Helvetica,sans-Serif" font-size="10.00">MACVETH/include/Vectorization</text>
<text text-anchor="middle" x="343" y="-264.5" font-family="Helvetica,sans-Serif" font-size="10.00">/VectorIR.h</text>
</a>
</g>
</g>
<!-- Node13&#45;&gt;Node14 -->
<g id="edge17" class="edge">
<title>Node13&#45;&gt;Node14</title>
<path fill="none" stroke="midnightblue" d="M170.54,-375.29C211.96,-350.85 282.53,-309.19 319.24,-287.53"/>
<polygon fill="midnightblue" stroke="midnightblue" points="168.75,-372.29 161.92,-380.38 172.31,-378.31 168.75,-372.29"/>
</g>
<!-- Node14&#45;&gt;Node5 -->
<g id="edge19" class="edge">
<title>Node14&#45;&gt;Node5</title>
<path fill="none" stroke="midnightblue" d="M343,-247.11C343,-238.15 343,-228.32 343,-220.58"/>
<polygon fill="midnightblue" stroke="midnightblue" points="339.5,-247.4 343,-257.4 346.5,-247.4 339.5,-247.4"/>
</g>
<!-- Node14&#45;&gt;Node9 -->
<g id="edge18" class="edge">
<title>Node14&#45;&gt;Node9</title>
<path fill="none" stroke="midnightblue" d="M298.86,-253.12C282.13,-244.84 263.6,-233.98 249,-221 226.81,-201.27 208.7,-171.26 199.21,-153.69"/>
<polygon fill="midnightblue" stroke="midnightblue" points="297.41,-256.3 307.94,-257.45 300.42,-249.98 297.41,-256.3"/>
</g>
<!-- Node16&#45;&gt;Node17 -->
<g id="edge22" class="edge">
<title>Node16&#45;&gt;Node17</title>
<path fill="none" stroke="midnightblue" d="M359.54,-377.71C399.08,-366.56 449.33,-352.39 480.83,-343.51"/>
<polygon fill="midnightblue" stroke="midnightblue" points="358.41,-374.39 349.74,-380.47 360.31,-381.13 358.41,-374.39"/>
</g>
<!-- Node17&#45;&gt;Node14 -->
<g id="edge29" class="edge">
<title>Node17&#45;&gt;Node14</title>
<path fill="none" stroke="midnightblue" d="M477.41,-321.1C450.07,-311.42 411.43,-297.74 382.59,-287.52"/>
<polygon fill="midnightblue" stroke="midnightblue" points="476.33,-324.44 486.93,-324.48 478.67,-317.84 476.33,-324.44"/>
</g>
<!-- Node18 -->
<g id="node18" class="node">
<title>Node18</title>
<g id="a_node18"><a xlink:href="CDAG_8h.html" target="_top" xlink:title=" ">
<polygon fill="none" stroke="black" points="512,-263 512,-282 656,-282 656,-263 512,-263"/>
<text text-anchor="middle" x="584" y="-270" font-family="Helvetica,sans-Serif" font-size="10.00">MACVETH/include/CDAG.h</text>
</a>
</g>
</g>
<!-- Node17&#45;&gt;Node18 -->
<g id="edge23" class="edge">
<title>Node17&#45;&gt;Node18</title>
<path fill="none" stroke="midnightblue" d="M529.44,-317.97C543.4,-306.59 562.08,-291.37 573.56,-282.01"/>
<polygon fill="midnightblue" stroke="midnightblue" points="527,-315.44 521.46,-324.48 531.42,-320.87 527,-315.44"/>
</g>
<!-- Node19 -->
<g id="node19" class="node">
<title>Node19</title>
<g id="a_node19"><a xlink:href="PlcmntAlgo_8h.html" target="_top" xlink:title=" ">
<polygon fill="none" stroke="black" points="446.5,-196 446.5,-215 617.5,-215 617.5,-196 446.5,-196"/>
<text text-anchor="middle" x="532" y="-203" font-family="Helvetica,sans-Serif" font-size="10.00">MACVETH/include/PlcmntAlgo.h</text>
</a>
</g>
</g>
<!-- Node17&#45;&gt;Node19 -->
<g id="edge28" class="edge">
<title>Node17&#45;&gt;Node19</title>
<path fill="none" stroke="midnightblue" d="M505.36,-314.49C501.48,-298.92 497.88,-276.19 503,-257 507.27,-240.98 517.97,-224.76 525.11,-215.17"/>
<polygon fill="midnightblue" stroke="midnightblue" points="502.06,-315.71 508.11,-324.41 508.81,-313.84 502.06,-315.71"/>
</g>
<!-- Node18&#45;&gt;Node5 -->
<g id="edge27" class="edge">
<title>Node18&#45;&gt;Node5</title>
<path fill="none" stroke="midnightblue" d="M542.1,-260.2C501.24,-249.18 439.01,-232.39 395.01,-220.53"/>
<polygon fill="midnightblue" stroke="midnightblue" points="541.43,-263.64 552,-262.87 543.25,-256.89 541.43,-263.64"/>
</g>
<!-- Node18&#45;&gt;Node6 -->
<g id="edge24" class="edge">
<title>Node18&#45;&gt;Node6</title>
<path fill="none" stroke="midnightblue" d="M599.64,-255.4C608.23,-245.94 618.61,-233.43 626,-221 649.95,-180.7 633.72,-157.92 665,-123 683.32,-102.55 711.92,-88.93 732.96,-81.05"/>
<polygon fill="midnightblue" stroke="midnightblue" points="596.95,-253.16 592.67,-262.85 602.06,-257.94 596.95,-253.16"/>
</g>
<!-- Node18&#45;&gt;Node8 -->
<g id="edge25" class="edge">
<title>Node18&#45;&gt;Node8</title>
<path fill="none" stroke="midnightblue" d="M606.52,-257.36C621.85,-247.53 642.47,-233.92 660,-221 694.07,-195.89 732.34,-163.43 750.04,-148.16"/>
<polygon fill="midnightblue" stroke="midnightblue" points="604.28,-254.63 597.73,-262.95 608.04,-260.53 604.28,-254.63"/>
</g>
<!-- Node18&#45;&gt;Node19 -->
<g id="edge26" class="edge">
<title>Node18&#45;&gt;Node19</title>
<path fill="none" stroke="midnightblue" d="M570.62,-254.77C560.48,-242.1 546.96,-225.2 538.9,-215.13"/>
<polygon fill="midnightblue" stroke="midnightblue" points="568.01,-257.11 576.99,-262.73 573.47,-252.74 568.01,-257.11"/>
</g>
<!-- Node20&#45;&gt;Node17 -->
<g id="edge31" class="edge">
<title>Node20&#45;&gt;Node17</title>
<path fill="none" stroke="midnightblue" d="M480.2,-372.4C488.43,-362.41 497.67,-351.18 503.87,-343.66"/>
<polygon fill="midnightblue" stroke="midnightblue" points="477.27,-370.46 473.61,-380.4 482.67,-374.9 477.27,-370.46"/>
</g>
<!-- Node21&#45;&gt;Node4 -->
<g id="edge34" class="edge">
<title>Node21&#45;&gt;Node4</title>
<path fill="none" stroke="midnightblue" d="M746.34,-377.15C725.94,-341.04 676.2,-255.69 626,-190 595.68,-150.32 554.75,-108.01 533.36,-86.63"/>
<polygon fill="midnightblue" stroke="midnightblue" points="743.34,-378.97 751.29,-385.97 749.45,-375.54 743.34,-378.97"/>
</g>
<!-- Node21&#45;&gt;Node6 -->
<g id="edge35" class="edge">
<title>Node21&#45;&gt;Node6</title>
<path fill="none" stroke="midnightblue" d="M766.18,-376.73C787.78,-337.88 837.63,-241.83 855,-154 857.67,-140.48 862.1,-134.81 855,-123 841.92,-101.23 815.92,-88.33 794.43,-81.03"/>
<polygon fill="midnightblue" stroke="midnightblue" points="762.97,-375.3 761.11,-385.73 769.07,-378.73 762.97,-375.3"/>
</g>
<!-- Node21&#45;&gt;Node8 -->
<g id="edge36" class="edge">
<title>Node21&#45;&gt;Node8</title>
<path fill="none" stroke="midnightblue" d="M756.3,-375.43C757.1,-324.12 759.29,-184.57 759.86,-148.24"/>
<polygon fill="midnightblue" stroke="midnightblue" points="752.8,-375.67 756.14,-385.72 759.79,-375.78 752.8,-375.67"/>
</g>
<!-- Node21&#45;&gt;Node17 -->
<g id="edge37" class="edge">
<title>Node21&#45;&gt;Node17</title>
<path fill="none" stroke="midnightblue" d="M711.17,-383.61C663.62,-372.07 589.49,-354.06 546.04,-343.51"/>
<polygon fill="midnightblue" stroke="midnightblue" points="710.35,-387.02 720.9,-385.98 712.01,-380.21 710.35,-387.02"/>
</g>
<!-- Node22&#45;&gt;Node17 -->
<g id="edge40" class="edge">
<title>Node22&#45;&gt;Node17</title>
<path fill="none" stroke="midnightblue" d="M634.43,-444.74C621.01,-427.45 598.63,-400.24 576,-380 559.94,-365.63 539.13,-351.96 525.44,-343.54"/>
<polygon fill="midnightblue" stroke="midnightblue" points="631.72,-446.96 640.57,-452.78 637.28,-442.71 631.72,-446.96"/>
</g>
<!-- Node22&#45;&gt;Node18 -->
<g id="edge39" class="edge">
<title>Node22&#45;&gt;Node18</title>
<path fill="none" stroke="midnightblue" d="M640.89,-443.26C627.6,-403.6 596.51,-310.82 586.89,-282.12"/>
<polygon fill="midnightblue" stroke="midnightblue" points="637.63,-444.56 644.13,-452.93 644.27,-442.34 637.63,-444.56"/>
</g>
<!-- Node22&#45;&gt;Node21 -->
<g id="edge41" class="edge">
<title>Node22&#45;&gt;Node21</title>
<path fill="none" stroke="midnightblue" d="M670.57,-447.44C692.16,-434.57 723.42,-415.93 741.53,-405.13"/>
<polygon fill="midnightblue" stroke="midnightblue" points="668.5,-444.61 661.7,-452.73 672.08,-450.62 668.5,-444.61"/>
</g>
<!-- Node23&#45;&gt;Node6 -->
<g id="edge43" class="edge">
<title>Node23&#45;&gt;Node6</title>
<path fill="none" stroke="midnightblue" d="M895.35,-437.45C902.4,-412.19 912,-371.18 912,-335 912,-335 912,-335 912,-204.5 912,-163.75 899.46,-151.15 870,-123 848.12,-102.1 816.05,-88.73 792.18,-81.04"/>
<polygon fill="midnightblue" stroke="midnightblue" points="891.93,-436.67 892.51,-447.25 898.65,-438.61 891.93,-436.67"/>
</g>
<!-- Node23&#45;&gt;Node7 -->
<g id="edge46" class="edge">
<title>Node23&#45;&gt;Node7</title>
<path fill="none" stroke="midnightblue" d="M906.61,-439.32C924.87,-415.24 950,-374.86 950,-335 950,-335 950,-335 950,-137.5 950,-67.16 858.66,-33.55 802.64,-19.55"/>
<polygon fill="midnightblue" stroke="midnightblue" points="903.67,-437.4 900.25,-447.43 909.18,-441.72 903.67,-437.4"/>
</g>
<!-- Node23&#45;&gt;Node8 -->
<g id="edge44" class="edge">
<title>Node23&#45;&gt;Node8</title>
<path fill="none" stroke="midnightblue" d="M878.55,-437.73C852.41,-371.96 779.94,-189.65 763.39,-148.03"/>
<polygon fill="midnightblue" stroke="midnightblue" points="875.39,-439.25 882.33,-447.25 881.89,-436.66 875.39,-439.25"/>
</g>
<!-- Node23&#45;&gt;Node21 -->
<g id="edge45" class="edge">
<title>Node23&#45;&gt;Node21</title>
<path fill="none" stroke="midnightblue" d="M850.36,-442.97C825.01,-430.48 792.75,-414.6 773.28,-405.01"/>
<polygon fill="midnightblue" stroke="midnightblue" points="848.84,-446.12 859.36,-447.4 851.93,-439.84 848.84,-446.12"/>
</g>
</g>
</svg>
        <g id="navigator" transform="translate(0 0)" fill="#404254">
                <rect fill="#f2f5e9" fill-opacity="0.5" stroke="#606060" stroke-width=".5" x="0" y="0" width="60" height="60"/>
                <use id="zoomplus" xlink:href="#zoomPlus" x="17" y="9" onmousedown="handleZoom(evt,'in')"/>
                <use id="zoomminus" xlink:href="#zoomMin" x="42" y="9" onmousedown="handleZoom(evt,'out')"/>
                <use id="reset" xlink:href="#resetDef" x="30" y="36" onmousedown="handleReset()"/>
                <g id="arrowUp" xlink:href="#dirArrow" transform="translate(30 24)" onmousedown="handlePan(0,-1)">
                  <use xlink:href="#rim" fill="#404040">
                        <set attributeName="fill" to="#808080" begin="arrowUp.mouseover" end="arrowUp.mouseout"/>
                  </use>
                  <path fill="none" stroke="white" stroke-width="1.5" d="M0,-3.0v7 M-2.5,-0.5L0,-3.0L2.5,-0.5"/>
                </g>
                <g id="arrowRight" xlink:href="#dirArrow" transform="rotate(90) translate(36 -43)" onmousedown="handlePan(1,0)">
                  <use xlink:href="#rim" fill="#404040">
                        <set attributeName="fill" to="#808080" begin="arrowRight.mouseover" end="arrowRight.mouseout"/>
                  </use>
                  <path fill="none" stroke="white" stroke-width="1.5" d="M0,-3.0v7 M-2.5,-0.5L0,-3.0L2.5,-0.5"/>
                </g>
                <g id="arrowDown" xlink:href="#dirArrow" transform="rotate(180) translate(-30 -48)" onmousedown="handlePan(0,1)">
                  <use xlink:href="#rim" fill="#404040">
                        <set attributeName="fill" to="#808080" begin="arrowDown.mouseover" end="arrowDown.mouseout"/>
                  </use>
                  <path fill="none" stroke="white" stroke-width="1.5" d="M0,-3.0v7 M-2.5,-0.5L0,-3.0L2.5,-0.5"/>
                </g>
                <g id="arrowLeft" xlink:href="#dirArrow" transform="rotate(270) translate(-36 17)" onmousedown="handlePan(-1,0)">
                  <use xlink:href="#rim" fill="#404040">
                        <set attributeName="fill" to="#808080" begin="arrowLeft.mouseover" end="arrowLeft.mouseout"/>
                  </use>
                  <path fill="none" stroke="white" stroke-width="1.5" d="M0,-3.0v7 M-2.5,-0.5L0,-3.0L2.5,-0.5"/>
                </g>
        </g>
        <svg viewBox="0 0 15 15" width="100%" height="30px" preserveAspectRatio="xMaxYMin meet">
         <g id="arrow_out" transform="scale(0.3 0.3)">
          <a xlink:href="Utils_8h__dep__incl_org.svg" target="_base">
           <rect id="button" ry="5" rx="5" y="6" x="6" height="38" width="38"
                fill="#f2f5e9" fill-opacity="0.5" stroke="#606060" stroke-width="1.0"/>
           <path id="arrow"
             d="M 11.500037,31.436501 C 11.940474,20.09759 22.043105,11.32322 32.158766,21.979434 L 37.068811,17.246167 C 37.068811,17.246167 37.088388,32 37.088388,32 L 22.160133,31.978069 C 22.160133,31.978069 26.997745,27.140456 26.997745,27.140456 C 18.528582,18.264221 13.291696,25.230495 11.500037,31.436501 z"
             style="fill:#404040;"/>
          </a>
         </g>
        </svg>
</svg>
