<?xml version="1.0" encoding="UTF-8" standalone="no"?>
<!DOCTYPE svg PUBLIC "-//W3C//DTD SVG 1.1//EN"
 "http://www.w3.org/Graphics/SVG/1.1/DTD/svg11.dtd">
<!-- Generated by graphviz version 2.43.0 (0)
 -->
<!-- Title: MACVETH/include/Vectorization/VectorIR.h Pages: 1 -->
<svg width="658pt" height="296pt"
 viewBox="0.00 0.00 658.00 296.00" xmlns="http://www.w3.org/2000/svg" xmlns:xlink="http://www.w3.org/1999/xlink">
<g id="graph0" class="graph" transform="scale(1 1) rotate(0) translate(4 292)">
<title>MACVETH/include/Vectorization/VectorIR.h</title>
<!-- Node1 -->
<g id="node1" class="node">
<title>Node1</title>
<g id="a_node1"><a xlink:title=" ">
<polygon fill="#bfbfbf" stroke="black" points="75,-257.5 75,-287.5 245,-287.5 245,-257.5 75,-257.5"/>
<text text-anchor="start" x="83" y="-275.5" font-family="Helvetica,sans-Serif" font-size="10.00">MACVETH/include/Vectorization</text>
<text text-anchor="middle" x="160" y="-264.5" font-family="Helvetica,sans-Serif" font-size="10.00">/VectorIR.h</text>
</a>
</g>
</g>
<!-- Node2 -->
<g id="node2" class="node">
<title>Node2</title>
<g id="a_node2"><a xlink:href="AVX2BackEnd_8h.html" target="_top" xlink:title=" ">
<polygon fill="none" stroke="black" points="0,-123.5 0,-153.5 170,-153.5 170,-123.5 0,-123.5"/>
<text text-anchor="start" x="8" y="-141.5" font-family="Helvetica,sans-Serif" font-size="10.00">MACVETH/include/Vectorization</text>
<text text-anchor="middle" x="85" y="-130.5" font-family="Helvetica,sans-Serif" font-size="10.00">/SIMD/AVX2/AVX2BackEnd.h</text>
</a>
</g>
</g>
<!-- Node1&#45;&gt;Node2 -->
<g id="edge1" class="edge">
<title>Node1&#45;&gt;Node2</title>
<path fill="none" stroke="midnightblue" d="M146.92,-248.48C131.35,-221.07 105.84,-176.19 92.97,-153.52"/>
<polygon fill="midnightblue" stroke="midnightblue" points="143.99,-250.41 151.97,-257.37 150.08,-246.95 143.99,-250.41"/>
</g>
<!-- Node4 -->
<g id="node4" class="node">
<title>Node4</title>
<g id="a_node4"><a xlink:href="SIMDBackEnd_8h.html" target="_top" xlink:title=" ">
<polygon fill="none" stroke="black" points="151,-190.5 151,-220.5 321,-220.5 321,-190.5 151,-190.5"/>
<text text-anchor="start" x="159" y="-208.5" font-family="Helvetica,sans-Serif" font-size="10.00">MACVETH/include/Vectorization</text>
<text text-anchor="middle" x="236" y="-197.5" font-family="Helvetica,sans-Serif" font-size="10.00">/SIMD/SIMDBackEnd.h</text>
</a>
</g>
</g>
<!-- Node1&#45;&gt;Node4 -->
<g id="edge3" class="edge">
<title>Node1&#45;&gt;Node4</title>
<path fill="none" stroke="midnightblue" d="M184.11,-250.88C195.66,-241.01 209.19,-229.43 219.54,-220.58"/>
<polygon fill="midnightblue" stroke="midnightblue" points="181.82,-248.24 176.49,-257.4 186.37,-253.56 181.82,-248.24"/>
</g>
<!-- Node3 -->
<g id="node3" class="node">
<title>Node3</title>
<g id="a_node3"><a xlink:href="SIMDBackEndFactory_8h.html" target="_top" xlink:title=" ">
<polygon fill="none" stroke="black" points="14,-56.5 14,-86.5 184,-86.5 184,-56.5 14,-56.5"/>
<text text-anchor="start" x="22" y="-74.5" font-family="Helvetica,sans-Serif" font-size="10.00">MACVETH/include/Vectorization</text>
<text text-anchor="middle" x="99" y="-63.5" font-family="Helvetica,sans-Serif" font-size="10.00">/SIMD/SIMDBackEndFactory.h</text>
</a>
</g>
</g>
<!-- Node2&#45;&gt;Node3 -->
<g id="edge2" class="edge">
<title>Node2&#45;&gt;Node3</title>
<path fill="none" stroke="midnightblue" d="M90.19,-113.4C92.14,-104.37 94.28,-94.41 95.97,-86.58"/>
<polygon fill="midnightblue" stroke="midnightblue" points="86.72,-112.88 88.04,-123.4 93.56,-114.36 86.72,-112.88"/>
</g>
<!-- Node4&#45;&gt;Node2 -->
<g id="edge11" class="edge">
<title>Node4&#45;&gt;Node2</title>
<path fill="none" stroke="midnightblue" d="M193.97,-186.41C169.86,-176.03 140.05,-163.2 117.7,-153.58"/>
<polygon fill="midnightblue" stroke="midnightblue" points="192.67,-189.66 203.24,-190.4 195.43,-183.23 192.67,-189.66"/>
</g>
<!-- Node4&#45;&gt;Node3 -->
<g id="edge12" class="edge">
<title>Node4&#45;&gt;Node3</title>
<path fill="none" stroke="midnightblue" d="M223.21,-181.31C212.84,-163.9 197.03,-140.19 179,-123 163.67,-108.38 143.47,-95.67 127.21,-86.66"/>
<polygon fill="midnightblue" stroke="midnightblue" points="220.35,-183.35 228.39,-190.25 226.4,-179.84 220.35,-183.35"/>
</g>
<!-- Node5 -->
<g id="node5" class="node">
<title>Node5</title>
<g id="a_node5"><a xlink:href="MVCostModel_8h.html" target="_top" xlink:title=" ">
<polygon fill="none" stroke="black" points="230,-56.5 230,-86.5 388,-86.5 388,-56.5 230,-56.5"/>
<text text-anchor="start" x="238" y="-74.5" font-family="Helvetica,sans-Serif" font-size="10.00">MACVETH/include/CostModel</text>
<text text-anchor="middle" x="309" y="-63.5" font-family="Helvetica,sans-Serif" font-size="10.00">/MVCostModel.h</text>
</a>
</g>
</g>
<!-- Node4&#45;&gt;Node5 -->
<g id="edge4" class="edge">
<title>Node4&#45;&gt;Node5</title>
<path fill="none" stroke="midnightblue" d="M237.93,-180.11C240.13,-163.16 244.86,-140.54 255,-123 263.35,-108.55 277.14,-95.76 288.7,-86.66"/>
<polygon fill="midnightblue" stroke="midnightblue" points="234.42,-180.01 236.81,-190.33 241.37,-180.77 234.42,-180.01"/>
</g>
<!-- Node6 -->
<g id="node6" class="node">
<title>Node6</title>
<g id="a_node6"><a xlink:href="SIMDCostInfo_8h.html" target="_top" xlink:title=" ">
<polygon fill="none" stroke="black" points="264,-123.5 264,-153.5 422,-153.5 422,-123.5 264,-123.5"/>
<text text-anchor="start" x="272" y="-141.5" font-family="Helvetica,sans-Serif" font-size="10.00">MACVETH/include/CostModel</text>
<text text-anchor="middle" x="343" y="-130.5" font-family="Helvetica,sans-Serif" font-size="10.00">/SIMDCostInfo.h</text>
</a>
</g>
</g>
<!-- Node4&#45;&gt;Node6 -->
<g id="edge5" class="edge">
<title>Node4&#45;&gt;Node6</title>
<path fill="none" stroke="midnightblue" d="M268.08,-185.02C284.73,-174.9 304.69,-162.77 319.83,-153.58"/>
<polygon fill="midnightblue" stroke="midnightblue" points="265.95,-182.21 259.22,-190.4 269.58,-188.2 265.95,-182.21"/>
</g>
<!-- Node7 -->
<g id="node7" class="node">
<title>Node7</title>
<g id="a_node7"><a xlink:href="MVFrontend_8h.html" target="_top" xlink:title=" ">
<polygon fill="none" stroke="black" points="462,-62 462,-81 636,-81 636,-62 462,-62"/>
<text text-anchor="middle" x="549" y="-69" font-family="Helvetica,sans-Serif" font-size="10.00">MACVETH/include/MVFrontend.h</text>
</a>
</g>
</g>
<!-- Node4&#45;&gt;Node7 -->
<g id="edge7" class="edge">
<title>Node4&#45;&gt;Node7</title>
<path fill="none" stroke="midnightblue" d="M331.44,-188.42C364.11,-180.69 400.18,-169.61 431,-154 450.44,-144.15 451.31,-135.73 469,-123 491,-107.17 517.87,-90.77 534.2,-81.11"/>
<polygon fill="midnightblue" stroke="midnightblue" points="330.38,-185.07 321.41,-190.71 331.94,-191.89 330.38,-185.07"/>
</g>
<!-- Node9 -->
<g id="node9" class="node">
<title>Node9</title>
<g id="a_node9"><a xlink:href="MVRewriter_8h.html" target="_top" xlink:title=" ">
<polygon fill="none" stroke="black" points="478,-129 478,-148 650,-148 650,-129 478,-129"/>
<text text-anchor="middle" x="564" y="-136" font-family="Helvetica,sans-Serif" font-size="10.00">MACVETH/include/MVRewriter.h</text>
</a>
</g>
</g>
<!-- Node4&#45;&gt;Node9 -->
<g id="edge9" class="edge">
<title>Node4&#45;&gt;Node9</title>
<path fill="none" stroke="midnightblue" d="M316.91,-188.47C381.43,-175.68 469.26,-158.27 520.96,-148.03"/>
<polygon fill="midnightblue" stroke="midnightblue" points="315.9,-185.1 306.77,-190.48 317.26,-191.97 315.9,-185.1"/>
</g>
<!-- Node6&#45;&gt;Node5 -->
<g id="edge6" class="edge">
<title>Node6&#45;&gt;Node5</title>
<path fill="none" stroke="midnightblue" d="M330.86,-114.28C326.01,-105.02 320.59,-94.66 316.36,-86.58"/>
<polygon fill="midnightblue" stroke="midnightblue" points="327.89,-116.16 335.62,-123.4 334.09,-112.91 327.89,-116.16"/>
</g>
<!-- Node8 -->
<g id="node8" class="node">
<title>Node8</title>
<g id="a_node8"><a xlink:href="macveth_8cpp.html" target="_top" xlink:title=" ">
<polygon fill="none" stroke="black" points="476,-0.5 476,-19.5 622,-19.5 622,-0.5 476,-0.5"/>
<text text-anchor="middle" x="549" y="-7.5" font-family="Helvetica,sans-Serif" font-size="10.00">MACVETH/lib/macveth.cpp</text>
</a>
</g>
</g>
<!-- Node7&#45;&gt;Node8 -->
<g id="edge8" class="edge">
<title>Node7&#45;&gt;Node8</title>
<path fill="none" stroke="midnightblue" d="M549,-51.82C549,-41 549,-27.9 549,-19.51"/>
<polygon fill="midnightblue" stroke="midnightblue" points="545.5,-51.98 549,-61.98 552.5,-51.98 545.5,-51.98"/>
</g>
<!-- Node9&#45;&gt;Node7 -->
<g id="edge10" class="edge">
<title>Node9&#45;&gt;Node7</title>
<path fill="none" stroke="midnightblue" d="M559.71,-118.91C556.84,-106.49 553.2,-90.72 550.99,-81.13"/>
<polygon fill="midnightblue" stroke="midnightblue" points="556.32,-119.78 561.98,-128.73 563.14,-118.2 556.32,-119.78"/>
</g>
</g>
</svg>
