<?xml version="1.0" encoding="UTF-8" standalone="no"?>
<!DOCTYPE svg PUBLIC "-//W3C//DTD SVG 1.1//EN"
 "http://www.w3.org/Graphics/SVG/1.1/DTD/svg11.dtd">
<!-- Generated by graphviz version 2.43.0 (0)
 -->
<!-- Title: MACVETH/include/Vectorization/VectorIR.h Pages: 1 -->
<!--zoomable 554 -->
<svg id="main" version="1.1" xmlns="http://www.w3.org/2000/svg" xmlns:xlink="http://www.w3.org/1999/xlink" xml:space="preserve" onload="init(evt)">
<style type="text/css"><![CDATA[
.edge:hover path { stroke: red; }
.edge:hover polygon { stroke: red; fill: red; }
]]></style>
<script type="text/javascript"><![CDATA[
var edges = document.getElementsByTagName('g');
if (edges && edges.length) {
  for (var i=0;i<edges.length;i++) {
    if (edges[i].id.substr(0,4)=='edge') {
      edges[i].setAttribute('class','edge');
    }
  }
}
]]></script>
        <defs>
                <circle id="rim" cx="0" cy="0" r="7"/>
                <circle id="rim2" cx="0" cy="0" r="3.5"/>
                <g id="zoomPlus">
                        <use xlink:href="#rim" fill="#404040">
                                <set attributeName="fill" to="#808080" begin="zoomplus.mouseover" end="zoomplus.mouseout"/>
                        </use>
                        <path d="M-4,0h8M0,-4v8" fill="none" stroke="white" stroke-width="1.5" pointer-events="none"/>
                </g>
                <g id="zoomMin">
                        <use xlink:href="#rim" fill="#404040">
                                <set attributeName="fill" to="#808080" begin="zoomminus.mouseover" end="zoomminus.mouseout"/>
                        </use>
                        <path d="M-4,0h8" fill="none" stroke="white" stroke-width="1.5" pointer-events="none"/>
                </g>
                <g id="dirArrow">
                        <path fill="none" stroke="white" stroke-width="1.5" d="M0,-3.0v7 M-2.5,-0.5L0,-3.0L2.5,-0.5"/>
                </g>
               <g id="resetDef">
                       <use xlink:href="#rim2" fill="#404040">
                               <set attributeName="fill" to="#808080" begin="reset.mouseover" end="reset.mouseout"/>
                       </use>
               </g>
        </defs>

<script type="text/javascript">
var viewWidth = 1707;
var viewHeight = 554;
var sectionId = 'dynsection-0';
</script>
<script xlink:href="svgpan.js"/>
<svg id="graph" class="graph">
<g id="viewport">
<title>MACVETH/include/Vectorization/VectorIR.h</title>
<!-- Node1 -->
<g id="node1" class="node">
<title>Node1</title>
<g id="a_node1"><a xlink:title=" ">
<polygon fill="#bfbfbf" stroke="black" points="26.01,-515.5 26.01,-545.5 196.01,-545.5 196.01,-515.5 26.01,-515.5"/>
<text text-anchor="start" x="34.01" y="-533.5" font-family="Helvetica,sans-Serif" font-size="10.00">MACVETH/include/Vectorization</text>
<text text-anchor="middle" x="111.01" y="-522.5" font-family="Helvetica,sans-Serif" font-size="10.00">/VectorIR.h</text>
</a>
</g>
</g>
<!-- Node2 -->
<g id="node2" class="node">
<title>Node2</title>
<g id="a_node2"><a xlink:href="MVDataType_8h.html" target="_top" xlink:title=" ">
<polygon fill="none" stroke="black" points="21.01,-168.5 21.01,-187.5 187.01,-187.5 187.01,-168.5 21.01,-168.5"/>
<text text-anchor="middle" x="104.01" y="-175.5" font-family="Helvetica,sans-Serif" font-size="10.00">include/MVExpr/MVDataType.h</text>
</a>
</g>
</g>
<!-- Node1&#45;&gt;Node2 -->
<g id="edge1" class="edge">
<title>Node1&#45;&gt;Node2</title>
<path fill="none" stroke="midnightblue" d="M82.42,-515.48C49.53,-497.11 0.01,-461.56 0.01,-414 0.01,-414 0.01,-414 0.01,-289 0.01,-258.9 -0.02,-247.32 19.01,-224 31.09,-209.18 49.37,-198.61 65.89,-191.46"/>
<polygon fill="midnightblue" stroke="midnightblue" points="67.39,-194.63 75.35,-187.64 64.77,-188.14 67.39,-194.63"/>
</g>
<!-- Node5 -->
<g id="node5" class="node">
<title>Node5</title>
<g id="a_node5"><a xlink:href="MVExprArray_8h.html" target="_top" xlink:title=" ">
<polygon fill="none" stroke="black" points="27.51,-342 27.51,-361 194.51,-361 194.51,-342 27.51,-342"/>
<text text-anchor="middle" x="111.01" y="-349" font-family="Helvetica,sans-Serif" font-size="10.00">include/MVExpr/MVExprArray.h</text>
</a>
</g>
</g>
<!-- Node1&#45;&gt;Node5 -->
<g id="edge4" class="edge">
<title>Node1&#45;&gt;Node5</title>
<path fill="none" stroke="midnightblue" d="M111.01,-515.31C111.01,-483.63 111.01,-407.11 111.01,-371.42"/>
<polygon fill="midnightblue" stroke="midnightblue" points="114.51,-371.37 111.01,-361.37 107.51,-371.37 114.51,-371.37"/>
</g>
<!-- Node25 -->
<g id="node25" class="node">
<title>Node25</title>
<g id="a_node25"><a xlink:href="Node_8h.html" target="_top" xlink:title=" ">
<polygon fill="none" stroke="black" points="442.51,-459.5 442.51,-478.5 531.51,-478.5 531.51,-459.5 442.51,-459.5"/>
<text text-anchor="middle" x="487.01" y="-466.5" font-family="Helvetica,sans-Serif" font-size="10.00">include/Node.h</text>
</a>
</g>
</g>
<!-- Node1&#45;&gt;Node25 -->
<g id="edge35" class="edge">
<title>Node1&#45;&gt;Node25</title>
<path fill="none" stroke="midnightblue" d="M196.33,-516C268.78,-504.53 370.58,-488.42 432.49,-478.63"/>
<polygon fill="midnightblue" stroke="midnightblue" points="433.12,-482.07 442.45,-477.05 432.02,-475.16 433.12,-482.07"/>
</g>
<!-- Node3 -->
<g id="node3" class="node">
<title>Node3</title>
<g id="a_node3"><a xlink:title=" ">
<polygon fill="none" stroke="#bfbfbf" points="419.01,-56.5 419.01,-75.5 457.01,-75.5 457.01,-56.5 419.01,-56.5"/>
<text text-anchor="middle" x="438.01" y="-63.5" font-family="Helvetica,sans-Serif" font-size="10.00">map</text>
</a>
</g>
</g>
<!-- Node2&#45;&gt;Node3 -->
<g id="edge2" class="edge">
<title>Node2&#45;&gt;Node3</title>
<path fill="none" stroke="midnightblue" d="M125.1,-168.39C157.48,-155.34 221.5,-130.15 277.01,-112 322.68,-97.07 376.63,-82.63 409.03,-74.29"/>
<polygon fill="midnightblue" stroke="midnightblue" points="409.94,-77.67 418.76,-71.8 408.21,-70.89 409.94,-77.67"/>
</g>
<!-- Node4 -->
<g id="node4" class="node">
<title>Node4</title>
<g id="a_node4"><a xlink:title=" ">
<polygon fill="none" stroke="#bfbfbf" points="269.01,-0.5 269.01,-19.5 313.01,-19.5 313.01,-0.5 269.01,-0.5"/>
<text text-anchor="middle" x="291.01" y="-7.5" font-family="Helvetica,sans-Serif" font-size="10.00">string</text>
</a>
</g>
</g>
<!-- Node2&#45;&gt;Node4 -->
<g id="edge3" class="edge">
<title>Node2&#45;&gt;Node4</title>
<path fill="none" stroke="midnightblue" d="M109.1,-168.32C122.05,-146.86 158.28,-90.51 201.01,-56 218.52,-41.86 241.2,-30.55 259.41,-22.81"/>
<polygon fill="midnightblue" stroke="midnightblue" points="260.82,-26.02 268.74,-18.99 258.16,-19.54 260.82,-26.02"/>
</g>
<!-- Node6 -->
<g id="node6" class="node">
<title>Node6</title>
<g id="a_node6"><a xlink:href="MVExpr_8h.html" target="_top" xlink:title=" ">
<polygon fill="none" stroke="black" points="264.51,-280.5 264.51,-299.5 405.51,-299.5 405.51,-280.5 264.51,-280.5"/>
<text text-anchor="middle" x="335.01" y="-287.5" font-family="Helvetica,sans-Serif" font-size="10.00">include/MVExpr/MVExpr.h</text>
</a>
</g>
</g>
<!-- Node5&#45;&gt;Node6 -->
<g id="edge5" class="edge">
<title>Node5&#45;&gt;Node6</title>
<path fill="none" stroke="midnightblue" d="M143.1,-341.98C182.6,-331.48 249.78,-313.64 293.27,-302.09"/>
<polygon fill="midnightblue" stroke="midnightblue" points="294.21,-305.46 302.97,-299.51 292.41,-298.69 294.21,-305.46"/>
</g>
<!-- Node22 -->
<g id="node22" class="node">
<title>Node22</title>
<g id="a_node22"><a xlink:title=" ">
<polygon fill="none" stroke="#bfbfbf" points="28.01,-224.5 28.01,-243.5 156.01,-243.5 156.01,-224.5 28.01,-224.5"/>
<text text-anchor="middle" x="92.01" y="-231.5" font-family="Helvetica,sans-Serif" font-size="10.00">llvm/Support/Casting.h</text>
</a>
</g>
</g>
<!-- Node5&#45;&gt;Node22 -->
<g id="edge33" class="edge">
<title>Node5&#45;&gt;Node22</title>
<path fill="none" stroke="midnightblue" d="M109.58,-341.82C106.52,-323.26 99.3,-279.34 95.13,-253.97"/>
<polygon fill="midnightblue" stroke="midnightblue" points="98.53,-253.08 93.45,-243.78 91.62,-254.22 98.53,-253.08"/>
</g>
<!-- Node24 -->
<g id="node24" class="node">
<title>Node24</title>
<g id="a_node24"><a xlink:title=" ">
<polygon fill="none" stroke="#bfbfbf" points="29.51,-280.5 29.51,-299.5 82.51,-299.5 82.51,-280.5 29.51,-280.5"/>
<text text-anchor="middle" x="56.01" y="-287.5" font-family="Helvetica,sans-Serif" font-size="10.00">string.h</text>
</a>
</g>
</g>
<!-- Node5&#45;&gt;Node24 -->
<g id="edge34" class="edge">
<title>Node5&#45;&gt;Node24</title>
<path fill="none" stroke="midnightblue" d="M103.13,-341.98C94.71,-332.87 81.19,-318.24 70.78,-306.98"/>
<polygon fill="midnightblue" stroke="midnightblue" points="73.23,-304.48 63.87,-299.51 68.09,-309.23 73.23,-304.48"/>
</g>
<!-- Node6&#45;&gt;Node2 -->
<g id="edge25" class="edge">
<title>Node6&#45;&gt;Node2</title>
<path fill="none" stroke="midnightblue" d="M305.27,-280.48C279.05,-272.5 240.13,-259.5 208.01,-244 177.44,-229.25 144.61,-207.67 124.19,-193.48"/>
<polygon fill="midnightblue" stroke="midnightblue" points="126.19,-190.6 115.99,-187.71 122.16,-196.33 126.19,-190.6"/>
</g>
<!-- Node6&#45;&gt;Node4 -->
<g id="edge32" class="edge">
<title>Node6&#45;&gt;Node4</title>
<path fill="none" stroke="midnightblue" d="M317.87,-280.36C303.45,-272.43 283,-259.58 269.01,-244 250.13,-223 245.88,-215.39 239.01,-188 224.72,-131.1 214.62,-109.36 239.01,-56 244.78,-43.36 256.06,-32.91 266.64,-25.27"/>
<polygon fill="midnightblue" stroke="midnightblue" points="268.85,-28 275.22,-19.53 264.96,-22.18 268.85,-28"/>
</g>
<!-- Node7 -->
<g id="node7" class="node">
<title>Node7</title>
<g id="a_node7"><a xlink:href="Debug_8h.html" target="_top" xlink:title=" ">
<polygon fill="none" stroke="black" points="582.51,-224.5 582.51,-243.5 677.51,-243.5 677.51,-224.5 582.51,-224.5"/>
<text text-anchor="middle" x="630.01" y="-231.5" font-family="Helvetica,sans-Serif" font-size="10.00">include/Debug.h</text>
</a>
</g>
</g>
<!-- Node6&#45;&gt;Node7 -->
<g id="edge6" class="edge">
<title>Node6&#45;&gt;Node7</title>
<path fill="none" stroke="midnightblue" d="M381.75,-280.44C433.75,-270.92 517.76,-255.55 573.43,-245.36"/>
<polygon fill="midnightblue" stroke="midnightblue" points="574.27,-248.76 583.48,-243.52 573.01,-241.87 574.27,-248.76"/>
</g>
<!-- Node8 -->
<g id="node8" class="node">
<title>Node8</title>
<g id="a_node8"><a xlink:href="Utils_8h.html" target="_top" xlink:title=" ">
<polygon fill="none" stroke="black" points="516.01,-168.5 516.01,-187.5 602.01,-187.5 602.01,-168.5 516.01,-168.5"/>
<text text-anchor="middle" x="559.01" y="-175.5" font-family="Helvetica,sans-Serif" font-size="10.00">include/Utils.h</text>
</a>
</g>
</g>
<!-- Node6&#45;&gt;Node8 -->
<g id="edge26" class="edge">
<title>Node6&#45;&gt;Node8</title>
<path fill="none" stroke="midnightblue" d="M345.01,-280.33C361.11,-266.74 394.21,-240.28 426.01,-224 454.38,-209.47 488.48,-198.04 515.05,-190.34"/>
<polygon fill="midnightblue" stroke="midnightblue" points="516.16,-193.66 524.83,-187.57 514.26,-186.92 516.16,-193.66"/>
</g>
<!-- Node12 -->
<g id="node12" class="node">
<title>Node12</title>
<g id="a_node12"><a xlink:title=" ">
<polygon fill="none" stroke="#bfbfbf" points="944.01,-0.5 944.01,-19.5 1004.01,-19.5 1004.01,-0.5 944.01,-0.5"/>
<text text-anchor="middle" x="974.01" y="-7.5" font-family="Helvetica,sans-Serif" font-size="10.00">iostream</text>
</a>
</g>
</g>
<!-- Node6&#45;&gt;Node12 -->
<g id="edge30" class="edge">
<title>Node6&#45;&gt;Node12</title>
<path fill="none" stroke="midnightblue" d="M351.37,-280.5C377.57,-267.14 430.79,-240.99 478.01,-224 535.63,-203.26 554.71,-212.11 611.01,-188 626.77,-181.25 627.92,-173.96 644.01,-168 735.68,-134.05 774.84,-178.18 861.01,-132 907.71,-106.97 945.75,-55.24 963.38,-28.24"/>
<polygon fill="midnightblue" stroke="midnightblue" points="966.52,-29.83 968.93,-19.51 960.62,-26.07 966.52,-29.83"/>
</g>
<!-- Node16 -->
<g id="node16" class="node">
<title>Node16</title>
<g id="a_node16"><a xlink:title=" ">
<polygon fill="none" stroke="#bfbfbf" points="924.51,-112.5 924.51,-131.5 1019.51,-131.5 1019.51,-112.5 924.51,-112.5"/>
<text text-anchor="middle" x="972.01" y="-119.5" font-family="Helvetica,sans-Serif" font-size="10.00">clang/AST/AST.h</text>
</a>
</g>
</g>
<!-- Node6&#45;&gt;Node16 -->
<g id="edge27" class="edge">
<title>Node6&#45;&gt;Node16</title>
<path fill="none" stroke="midnightblue" d="M363.81,-280.42C418.76,-263.86 542.15,-225.8 644.01,-188 665.67,-179.96 669.78,-174.32 692.01,-168 712.92,-162.05 838.35,-142.88 914.06,-131.57"/>
<polygon fill="midnightblue" stroke="midnightblue" points="915.02,-134.96 924.39,-130.03 913.99,-128.04 915.02,-134.96"/>
</g>
<!-- Node21 -->
<g id="node21" class="node">
<title>Node21</title>
<g id="a_node21"><a xlink:title=" ">
<polygon fill="none" stroke="#bfbfbf" points="734.01,-224.5 734.01,-243.5 832.01,-243.5 832.01,-224.5 734.01,-224.5"/>
<text text-anchor="middle" x="783.01" y="-231.5" font-family="Helvetica,sans-Serif" font-size="10.00">clang/AST/Expr.h</text>
</a>
</g>
</g>
<!-- Node6&#45;&gt;Node21 -->
<g id="edge28" class="edge">
<title>Node6&#45;&gt;Node21</title>
<path fill="none" stroke="midnightblue" d="M405.99,-280.44C493.77,-269.86 641.61,-252.04 723.65,-242.15"/>
<polygon fill="midnightblue" stroke="midnightblue" points="724.29,-245.6 733.8,-240.93 723.45,-238.65 724.29,-245.6"/>
</g>
<!-- Node6&#45;&gt;Node22 -->
<g id="edge29" class="edge">
<title>Node6&#45;&gt;Node22</title>
<path fill="none" stroke="midnightblue" d="M296.5,-280.44C254.2,-271.04 186.19,-255.93 140.33,-245.74"/>
<polygon fill="midnightblue" stroke="midnightblue" points="140.85,-242.27 130.33,-243.52 139.33,-249.1 140.85,-242.27"/>
</g>
<!-- Node23 -->
<g id="node23" class="node">
<title>Node23</title>
<g id="a_node23"><a xlink:title=" ">
<polygon fill="none" stroke="#bfbfbf" points="278.01,-224.5 278.01,-243.5 336.01,-243.5 336.01,-224.5 278.01,-224.5"/>
<text text-anchor="middle" x="307.01" y="-231.5" font-family="Helvetica,sans-Serif" font-size="10.00">memory</text>
</a>
</g>
</g>
<!-- Node6&#45;&gt;Node23 -->
<g id="edge31" class="edge">
<title>Node6&#45;&gt;Node23</title>
<path fill="none" stroke="midnightblue" d="M330.38,-280.08C326.55,-272.69 320.98,-261.95 316.24,-252.81"/>
<polygon fill="midnightblue" stroke="midnightblue" points="319.25,-251.02 311.54,-243.75 313.04,-254.24 319.25,-251.02"/>
</g>
<!-- Node7&#45;&gt;Node8 -->
<g id="edge7" class="edge">
<title>Node7&#45;&gt;Node8</title>
<path fill="none" stroke="midnightblue" d="M618.6,-224.32C607.9,-216.18 591.66,-203.84 578.84,-194.09"/>
<polygon fill="midnightblue" stroke="midnightblue" points="580.7,-191.1 570.62,-187.83 576.46,-196.67 580.7,-191.1"/>
</g>
<!-- Node9 -->
<g id="node9" class="node">
<title>Node9</title>
<g id="a_node9"><a xlink:href="MVOptions_8h.html" target="_top" xlink:title=" ">
<polygon fill="none" stroke="black" points="712.51,-112.5 712.51,-131.5 829.51,-131.5 829.51,-112.5 712.51,-112.5"/>
<text text-anchor="middle" x="771.01" y="-119.5" font-family="Helvetica,sans-Serif" font-size="10.00">include/MVOptions.h</text>
</a>
</g>
</g>
<!-- Node8&#45;&gt;Node9 -->
<g id="edge8" class="edge">
<title>Node8&#45;&gt;Node9</title>
<path fill="none" stroke="midnightblue" d="M592.6,-168.44C629.19,-159.12 687.84,-144.18 727.83,-134"/>
<polygon fill="midnightblue" stroke="midnightblue" points="728.74,-137.38 737.57,-131.52 727.02,-130.59 728.74,-137.38"/>
</g>
<!-- Node8&#45;&gt;Node12 -->
<g id="edge24" class="edge">
<title>Node8&#45;&gt;Node12</title>
<path fill="none" stroke="midnightblue" d="M602.22,-170.18C680.49,-157.8 837.79,-132.84 839.01,-132 870.87,-109.84 853.75,-82.61 882.01,-56 897.59,-41.33 918.85,-30.5 937.02,-23.15"/>
<polygon fill="midnightblue" stroke="midnightblue" points="938.38,-26.38 946.46,-19.53 935.87,-19.85 938.38,-26.38"/>
</g>
<!-- Node8&#45;&gt;Node16 -->
<g id="edge19" class="edge">
<title>Node8&#45;&gt;Node16</title>
<path fill="none" stroke="midnightblue" d="M602.03,-171.37C676.71,-161.61 830.31,-141.53 914.21,-130.56"/>
<polygon fill="midnightblue" stroke="midnightblue" points="914.87,-134 924.33,-129.23 913.96,-127.06 914.87,-134"/>
</g>
<!-- Node17 -->
<g id="node17" class="node">
<title>Node17</title>
<g id="a_node17"><a xlink:title=" ">
<polygon fill="none" stroke="#bfbfbf" points="357.51,-112.5 357.51,-131.5 502.51,-131.5 502.51,-112.5 357.51,-112.5"/>
<text text-anchor="middle" x="430.01" y="-119.5" font-family="Helvetica,sans-Serif" font-size="10.00">clang/Basic/LangOptions.h</text>
</a>
</g>
</g>
<!-- Node8&#45;&gt;Node17 -->
<g id="edge20" class="edge">
<title>Node8&#45;&gt;Node17</title>
<path fill="none" stroke="midnightblue" d="M538.57,-168.44C517.34,-159.56 483.91,-145.56 459.75,-135.45"/>
<polygon fill="midnightblue" stroke="midnightblue" points="460.93,-132.15 450.35,-131.52 458.22,-138.61 460.93,-132.15"/>
</g>
<!-- Node18 -->
<g id="node18" class="node">
<title>Node18</title>
<g id="a_node18"><a xlink:title=" ">
<polygon fill="none" stroke="#bfbfbf" points="1075.51,-112.5 1075.51,-131.5 1234.51,-131.5 1234.51,-112.5 1075.51,-112.5"/>
<text text-anchor="middle" x="1155.01" y="-119.5" font-family="Helvetica,sans-Serif" font-size="10.00">clang/Basic/SourceManager.h</text>
</a>
</g>
</g>
<!-- Node8&#45;&gt;Node18 -->
<g id="edge21" class="edge">
<title>Node8&#45;&gt;Node18</title>
<path fill="none" stroke="midnightblue" d="M602.35,-173.07C699.24,-164.29 935.05,-142.93 1065.14,-131.14"/>
<polygon fill="midnightblue" stroke="midnightblue" points="1065.83,-134.59 1075.48,-130.21 1065.2,-127.62 1065.83,-134.59"/>
</g>
<!-- Node19 -->
<g id="node19" class="node">
<title>Node19</title>
<g id="a_node19"><a xlink:title=" ">
<polygon fill="none" stroke="#bfbfbf" points="520.51,-112.5 520.51,-131.5 621.51,-131.5 621.51,-112.5 520.51,-112.5"/>
<text text-anchor="middle" x="571.01" y="-119.5" font-family="Helvetica,sans-Serif" font-size="10.00">clang/Lex/Lexer.h</text>
</a>
</g>
</g>
<!-- Node8&#45;&gt;Node19 -->
<g id="edge22" class="edge">
<title>Node8&#45;&gt;Node19</title>
<path fill="none" stroke="midnightblue" d="M560.99,-168.08C562.58,-160.93 564.86,-150.64 566.85,-141.69"/>
<polygon fill="midnightblue" stroke="midnightblue" points="570.31,-142.27 569.06,-131.75 563.47,-140.75 570.31,-142.27"/>
</g>
<!-- Node20 -->
<g id="node20" class="node">
<title>Node20</title>
<g id="a_node20"><a xlink:title=" ">
<polygon fill="none" stroke="#bfbfbf" points="639.51,-112.5 639.51,-131.5 694.51,-131.5 694.51,-112.5 639.51,-112.5"/>
<text text-anchor="middle" x="667.01" y="-119.5" font-family="Helvetica,sans-Serif" font-size="10.00">fstream</text>
</a>
</g>
</g>
<!-- Node8&#45;&gt;Node20 -->
<g id="edge23" class="edge">
<title>Node8&#45;&gt;Node20</title>
<path fill="none" stroke="midnightblue" d="M576.36,-168.32C593.68,-159.66 620.52,-146.24 640.51,-136.25"/>
<polygon fill="midnightblue" stroke="midnightblue" points="642.32,-139.26 649.7,-131.65 639.19,-133 642.32,-139.26"/>
</g>
<!-- Node9&#45;&gt;Node3 -->
<g id="edge17" class="edge">
<title>Node9&#45;&gt;Node3</title>
<path fill="none" stroke="midnightblue" d="M718.24,-112.44C647.26,-100.93 523.45,-80.86 467.24,-71.74"/>
<polygon fill="midnightblue" stroke="midnightblue" points="467.68,-68.27 457.25,-70.12 466.56,-75.18 467.68,-68.27"/>
</g>
<!-- Node9&#45;&gt;Node4 -->
<g id="edge18" class="edge">
<title>Node9&#45;&gt;Node4</title>
<path fill="none" stroke="midnightblue" d="M741.57,-112.41C681.89,-95.01 551.86,-57.13 547.01,-56 467.15,-37.45 371.71,-22.57 323.02,-15.49"/>
<polygon fill="midnightblue" stroke="midnightblue" points="323.48,-12.02 313.08,-14.06 322.48,-18.95 323.48,-12.02"/>
</g>
<!-- Node10 -->
<g id="node10" class="node">
<title>Node10</title>
<g id="a_node10"><a xlink:href="CPUID_8h.html" target="_top" xlink:title=" ">
<polygon fill="none" stroke="black" points="696.51,-56.5 696.51,-75.5 791.51,-75.5 791.51,-56.5 696.51,-56.5"/>
<text text-anchor="middle" x="744.01" y="-63.5" font-family="Helvetica,sans-Serif" font-size="10.00">include/CPUID.h</text>
</a>
</g>
</g>
<!-- Node9&#45;&gt;Node10 -->
<g id="edge9" class="edge">
<title>Node9&#45;&gt;Node10</title>
<path fill="none" stroke="midnightblue" d="M766.55,-112.08C762.85,-104.69 757.48,-93.95 752.91,-84.81"/>
<polygon fill="midnightblue" stroke="midnightblue" points="755.98,-83.13 748.38,-75.75 749.72,-86.26 755.98,-83.13"/>
</g>
<!-- Node11 -->
<g id="node11" class="node">
<title>Node11</title>
<g id="a_node11"><a xlink:title=" ">
<polygon fill="none" stroke="#bfbfbf" points="788.01,-0.5 788.01,-19.5 852.01,-19.5 852.01,-0.5 788.01,-0.5"/>
<text text-anchor="middle" x="820.01" y="-7.5" font-family="Helvetica,sans-Serif" font-size="10.00">algorithm</text>
</a>
</g>
</g>
<!-- Node9&#45;&gt;Node11 -->
<g id="edge14" class="edge">
<title>Node9&#45;&gt;Node11</title>
<path fill="none" stroke="midnightblue" d="M778.07,-112.18C784.78,-103.44 794.74,-89.45 801.01,-76 807.99,-61.01 813.03,-42.88 816.16,-29.58"/>
<polygon fill="midnightblue" stroke="midnightblue" points="819.6,-30.23 818.34,-19.71 812.77,-28.72 819.6,-30.23"/>
</g>
<!-- Node14 -->
<g id="node14" class="node">
<title>Node14</title>
<g id="a_node14"><a xlink:title=" ">
<polygon fill="none" stroke="#bfbfbf" points="626.01,-56.5 626.01,-75.5 678.01,-75.5 678.01,-56.5 626.01,-56.5"/>
<text text-anchor="middle" x="652.01" y="-63.5" font-family="Helvetica,sans-Serif" font-size="10.00">cassert</text>
</a>
</g>
</g>
<!-- Node9&#45;&gt;Node14 -->
<g id="edge15" class="edge">
<title>Node9&#45;&gt;Node14</title>
<path fill="none" stroke="midnightblue" d="M752.15,-112.44C732.74,-103.64 702.28,-89.81 680.04,-79.72"/>
<polygon fill="midnightblue" stroke="midnightblue" points="681.33,-76.46 670.77,-75.52 678.43,-82.84 681.33,-76.46"/>
</g>
<!-- Node15 -->
<g id="node15" class="node">
<title>Node15</title>
<g id="a_node15"><a xlink:title=" ">
<polygon fill="none" stroke="#bfbfbf" points="506.01,-56.5 506.01,-75.5 538.01,-75.5 538.01,-56.5 506.01,-56.5"/>
<text text-anchor="middle" x="522.01" y="-63.5" font-family="Helvetica,sans-Serif" font-size="10.00">list</text>
</a>
</g>
</g>
<!-- Node9&#45;&gt;Node15 -->
<g id="edge16" class="edge">
<title>Node9&#45;&gt;Node15</title>
<path fill="none" stroke="midnightblue" d="M731.55,-112.44C680.12,-101.29 591.59,-82.09 547.91,-72.62"/>
<polygon fill="midnightblue" stroke="midnightblue" points="548.59,-69.18 538.07,-70.48 547.1,-76.02 548.59,-69.18"/>
</g>
<!-- Node10&#45;&gt;Node4 -->
<g id="edge12" class="edge">
<title>Node10&#45;&gt;Node4</title>
<path fill="none" stroke="midnightblue" d="M696.44,-57.33C693.25,-56.87 690.08,-56.42 687.01,-56 552.29,-37.72 391.08,-20.99 323.42,-14.2"/>
<polygon fill="midnightblue" stroke="midnightblue" points="323.67,-10.71 313.38,-13.2 322.98,-17.67 323.67,-10.71"/>
</g>
<!-- Node10&#45;&gt;Node11 -->
<g id="edge10" class="edge">
<title>Node10&#45;&gt;Node11</title>
<path fill="none" stroke="midnightblue" d="M756.22,-56.32C767.78,-48.11 785.38,-35.6 799.17,-25.81"/>
<polygon fill="midnightblue" stroke="midnightblue" points="801.45,-28.48 807.57,-19.83 797.39,-22.77 801.45,-28.48"/>
</g>
<!-- Node10&#45;&gt;Node12 -->
<g id="edge11" class="edge">
<title>Node10&#45;&gt;Node12</title>
<path fill="none" stroke="midnightblue" d="M780.45,-56.44C822.31,-46.61 890.78,-30.54 934.06,-20.38"/>
<polygon fill="midnightblue" stroke="midnightblue" points="935.03,-23.75 943.96,-18.05 933.43,-16.93 935.03,-23.75"/>
</g>
<!-- Node13 -->
<g id="node13" class="node">
<title>Node13</title>
<g id="a_node13"><a xlink:title=" ">
<polygon fill="none" stroke="#bfbfbf" points="716.51,-0.5 716.51,-19.5 769.51,-19.5 769.51,-0.5 716.51,-0.5"/>
<text text-anchor="middle" x="743.01" y="-7.5" font-family="Helvetica,sans-Serif" font-size="10.00">stdint.h</text>
</a>
</g>
</g>
<!-- Node10&#45;&gt;Node13 -->
<g id="edge13" class="edge">
<title>Node10&#45;&gt;Node13</title>
<path fill="none" stroke="midnightblue" d="M743.84,-56.08C743.71,-49.01 743.52,-38.86 743.36,-29.99"/>
<polygon fill="midnightblue" stroke="midnightblue" points="746.85,-29.68 743.17,-19.75 739.85,-29.81 746.85,-29.68"/>
</g>
<!-- Node25&#45;&gt;Node6 -->
<g id="edge36" class="edge">
<title>Node25&#45;&gt;Node6</title>
<path fill="none" stroke="midnightblue" d="M455.32,-459.37C434.98,-452.44 409.25,-440.85 392.01,-423 387.78,-418.63 356.97,-344.44 342.49,-309.25"/>
<polygon fill="midnightblue" stroke="midnightblue" points="345.6,-307.62 338.56,-299.7 339.13,-310.28 345.6,-307.62"/>
</g>
<!-- Node25&#45;&gt;Node21 -->
<g id="edge73" class="edge">
<title>Node25&#45;&gt;Node21</title>
<path fill="none" stroke="midnightblue" d="M519.08,-459.45C542.79,-452.16 575.14,-440.13 600.01,-423 643.27,-393.2 637.07,-366.26 680.01,-336 713.54,-312.36 737.95,-330.84 765.01,-300 776.22,-287.22 780.5,-268.03 782.11,-253.81"/>
<polygon fill="midnightblue" stroke="midnightblue" points="785.61,-253.93 782.91,-243.69 778.63,-253.38 785.61,-253.93"/>
</g>
<!-- Node26 -->
<g id="node26" class="node">
<title>Node26</title>
<g id="a_node26"><a xlink:href="MVExprLiteral_8h.html" target="_top" xlink:title=" ">
<polygon fill="none" stroke="black" points="400.51,-403.5 400.51,-422.5 573.51,-422.5 573.51,-403.5 400.51,-403.5"/>
<text text-anchor="middle" x="487.01" y="-410.5" font-family="Helvetica,sans-Serif" font-size="10.00">include/MVExpr/MVExprLiteral.h</text>
</a>
</g>
</g>
<!-- Node25&#45;&gt;Node26 -->
<g id="edge37" class="edge">
<title>Node25&#45;&gt;Node26</title>
<path fill="none" stroke="midnightblue" d="M487.01,-459.08C487.01,-452.01 487.01,-441.86 487.01,-432.99"/>
<polygon fill="midnightblue" stroke="midnightblue" points="490.51,-432.75 487.01,-422.75 483.51,-432.75 490.51,-432.75"/>
</g>
<!-- Node27 -->
<g id="node27" class="node">
<title>Node27</title>
<g id="a_node27"><a xlink:href="MVExprVar_8h.html" target="_top" xlink:title=" ">
<polygon fill="none" stroke="black" points="186.51,-403.5 186.51,-422.5 343.51,-422.5 343.51,-403.5 186.51,-403.5"/>
<text text-anchor="middle" x="265.01" y="-410.5" font-family="Helvetica,sans-Serif" font-size="10.00">include/MVExpr/MVExprVar.h</text>
</a>
</g>
</g>
<!-- Node25&#45;&gt;Node27 -->
<g id="edge39" class="edge">
<title>Node25&#45;&gt;Node27</title>
<path fill="none" stroke="midnightblue" d="M451.83,-459.44C413.43,-450.1 351.83,-435.12 309.95,-424.93"/>
<polygon fill="midnightblue" stroke="midnightblue" points="310.56,-421.48 300.02,-422.52 308.91,-428.28 310.56,-421.48"/>
</g>
<!-- Node29 -->
<g id="node29" class="node">
<title>Node29</title>
<g id="a_node29"><a xlink:href="StmtWrapper_8h.html" target="_top" xlink:title=" ">
<polygon fill="none" stroke="black" points="828.01,-403.5 828.01,-422.5 956.01,-422.5 956.01,-403.5 828.01,-403.5"/>
<text text-anchor="middle" x="892.01" y="-410.5" font-family="Helvetica,sans-Serif" font-size="10.00">include/StmtWrapper.h</text>
</a>
</g>
</g>
<!-- Node25&#45;&gt;Node29 -->
<g id="edge42" class="edge">
<title>Node25&#45;&gt;Node29</title>
<path fill="none" stroke="midnightblue" d="M531.51,-462.07C600.62,-452.85 734.49,-435 818.22,-423.84"/>
<polygon fill="midnightblue" stroke="midnightblue" points="818.72,-427.3 828.17,-422.51 817.8,-420.36 818.72,-427.3"/>
</g>
<!-- Node36 -->
<g id="node36" class="node">
<title>Node36</title>
<g id="a_node36"><a xlink:href="TAC_8h.html" target="_top" xlink:title=" ">
<polygon fill="none" stroke="black" points="544.51,-342 544.51,-361 627.51,-361 627.51,-342 544.51,-342"/>
<text text-anchor="middle" x="586.01" y="-349" font-family="Helvetica,sans-Serif" font-size="10.00">include/TAC.h</text>
</a>
</g>
</g>
<!-- Node25&#45;&gt;Node36 -->
<g id="edge72" class="edge">
<title>Node25&#45;&gt;Node36</title>
<path fill="none" stroke="midnightblue" d="M527.66,-459.44C547.8,-452.97 570.46,-441.84 583.01,-423 593.07,-407.89 592.49,-386.64 590.21,-371.43"/>
<polygon fill="midnightblue" stroke="midnightblue" points="593.57,-370.36 588.29,-361.18 586.69,-371.65 593.57,-370.36"/>
</g>
<!-- Node26&#45;&gt;Node6 -->
<g id="edge38" class="edge">
<title>Node26&#45;&gt;Node6</title>
<path fill="none" stroke="midnightblue" d="M476.07,-403.3C450.44,-382.89 386.2,-331.75 354.01,-306.13"/>
<polygon fill="midnightblue" stroke="midnightblue" points="355.84,-303.11 345.84,-299.62 351.48,-308.59 355.84,-303.11"/>
</g>
<!-- Node27&#45;&gt;Node6 -->
<g id="edge40" class="edge">
<title>Node27&#45;&gt;Node6</title>
<path fill="none" stroke="midnightblue" d="M258.08,-403.41C247.1,-388.65 228.24,-357.96 242.01,-336 251.88,-320.25 269.01,-309.87 285.89,-303.11"/>
<polygon fill="midnightblue" stroke="midnightblue" points="287.55,-306.23 295.75,-299.52 285.16,-299.65 287.55,-306.23"/>
</g>
<!-- Node28 -->
<g id="node28" class="node">
<title>Node28</title>
<g id="a_node28"><a xlink:title=" ">
<polygon fill="none" stroke="#bfbfbf" points="250.51,-342 250.51,-361 343.51,-361 343.51,-342 250.51,-342"/>
<text text-anchor="middle" x="297.01" y="-349" font-family="Helvetica,sans-Serif" font-size="10.00">unordered_map</text>
</a>
</g>
</g>
<!-- Node27&#45;&gt;Node28 -->
<g id="edge41" class="edge">
<title>Node27&#45;&gt;Node28</title>
<path fill="none" stroke="midnightblue" d="M269.59,-403.48C274.25,-394.82 281.6,-381.15 287.52,-370.15"/>
<polygon fill="midnightblue" stroke="midnightblue" points="290.78,-371.47 292.43,-361.01 284.61,-368.16 290.78,-371.47"/>
</g>
<!-- Node29&#45;&gt;Node6 -->
<g id="edge43" class="edge">
<title>Node29&#45;&gt;Node6</title>
<path fill="none" stroke="midnightblue" d="M827.83,-408.45C755.9,-403.43 636.21,-391.91 536.01,-367 472.03,-351.1 400.6,-320.94 362.5,-303.78"/>
<polygon fill="midnightblue" stroke="midnightblue" points="363.66,-300.46 353.11,-299.51 360.76,-306.84 363.66,-300.46"/>
</g>
<!-- Node29&#45;&gt;Node8 -->
<g id="edge66" class="edge">
<title>Node29&#45;&gt;Node8</title>
<path fill="none" stroke="midnightblue" d="M827.7,-404.09C782.66,-397.08 728.11,-385.11 714.01,-367 705.54,-356.13 706.83,-347.76 714.01,-336 732.23,-306.14 755.65,-320.49 784.01,-300 818.23,-275.27 868.41,-256.12 841.01,-224 812.22,-190.25 685.88,-181.7 612.44,-179.6"/>
<polygon fill="midnightblue" stroke="midnightblue" points="612.09,-176.09 602.01,-179.34 611.92,-183.09 612.09,-176.09"/>
</g>
<!-- Node29&#45;&gt;Node16 -->
<g id="edge67" class="edge">
<title>Node29&#45;&gt;Node16</title>
<path fill="none" stroke="midnightblue" d="M956.22,-411.63C1041.67,-409.79 1186.48,-401.48 1225.01,-367 1250.95,-343.78 1244.01,-325.82 1244.01,-291 1244.01,-291 1244.01,-291 1244.01,-233 1244.01,-186.59 1106.22,-150.52 1026.78,-133.58"/>
<polygon fill="midnightblue" stroke="midnightblue" points="1027.43,-130.14 1016.92,-131.52 1025.99,-136.99 1027.43,-130.14"/>
</g>
<!-- Node29&#45;&gt;Node21 -->
<g id="edge68" class="edge">
<title>Node29&#45;&gt;Node21</title>
<path fill="none" stroke="midnightblue" d="M956.14,-406.99C1018.88,-399.43 1100.73,-380.84 1069.01,-336 1017.74,-263.52 909.95,-242.7 842.33,-236.93"/>
<polygon fill="midnightblue" stroke="midnightblue" points="842.48,-233.44 832.24,-236.16 841.95,-240.42 842.48,-233.44"/>
</g>
<!-- Node30 -->
<g id="node30" class="node">
<title>Node30</title>
<g id="a_node30"><a xlink:href="MVPragmaHandler_8h.html" target="_top" xlink:title=" ">
<polygon fill="none" stroke="black" points="1280.51,-280.5 1280.51,-299.5 1435.51,-299.5 1435.51,-280.5 1280.51,-280.5"/>
<text text-anchor="middle" x="1358.01" y="-287.5" font-family="Helvetica,sans-Serif" font-size="10.00">include/MVPragmaHandler.h</text>
</a>
</g>
</g>
<!-- Node29&#45;&gt;Node30 -->
<g id="edge44" class="edge">
<title>Node29&#45;&gt;Node30</title>
<path fill="none" stroke="midnightblue" d="M956.26,-408.14C1046.25,-402.06 1204.78,-388.64 1258.01,-367 1291.79,-353.27 1324.11,-325.04 1342.46,-307.12"/>
<polygon fill="midnightblue" stroke="midnightblue" points="1345.06,-309.47 1349.65,-299.92 1340.11,-304.52 1345.06,-309.47"/>
</g>
<!-- Node29&#45;&gt;Node36 -->
<g id="edge55" class="edge">
<title>Node29&#45;&gt;Node36</title>
<path fill="none" stroke="midnightblue" d="M848.16,-403.48C792.55,-392.66 696.78,-374.04 637.68,-362.55"/>
<polygon fill="midnightblue" stroke="midnightblue" points="638.29,-359.1 627.8,-360.63 636.95,-365.97 638.29,-359.1"/>
</g>
<!-- Node38 -->
<g id="node38" class="node">
<title>Node38</title>
<g id="a_node38"><a xlink:title=" ">
<polygon fill="none" stroke="#bfbfbf" points="1116.01,-342 1116.01,-361 1216.01,-361 1216.01,-342 1116.01,-342"/>
<text text-anchor="middle" x="1166.01" y="-349" font-family="Helvetica,sans-Serif" font-size="10.00">clang/AST/Stmt.h</text>
</a>
</g>
</g>
<!-- Node29&#45;&gt;Node38 -->
<g id="edge69" class="edge">
<title>Node29&#45;&gt;Node38</title>
<path fill="none" stroke="midnightblue" d="M932.69,-403.43C975.01,-394.48 1043.2,-379.96 1102.01,-367 1107.43,-365.8 1113.11,-364.54 1118.75,-363.27"/>
<polygon fill="midnightblue" stroke="midnightblue" points="1119.81,-366.62 1128.8,-361.01 1118.27,-359.79 1119.81,-366.62"/>
</g>
<!-- Node39 -->
<g id="node39" class="node">
<title>Node39</title>
<g id="a_node39"><a xlink:title=" ">
<polygon fill="none" stroke="#bfbfbf" points="722.51,-336.5 722.51,-366.5 883.51,-366.5 883.51,-336.5 722.51,-336.5"/>
<text text-anchor="start" x="730.51" y="-354.5" font-family="Helvetica,sans-Serif" font-size="10.00">clang/ASTMatchers/ASTMatch</text>
<text text-anchor="middle" x="803.01" y="-343.5" font-family="Helvetica,sans-Serif" font-size="10.00">Finder.h</text>
</a>
</g>
</g>
<!-- Node29&#45;&gt;Node39 -->
<g id="edge70" class="edge">
<title>Node29&#45;&gt;Node39</title>
<path fill="none" stroke="midnightblue" d="M879.25,-403.48C867.09,-395.34 848.31,-382.79 832.44,-372.18"/>
<polygon fill="midnightblue" stroke="midnightblue" points="834.24,-369.17 823.98,-366.52 830.35,-374.99 834.24,-369.17"/>
</g>
<!-- Node40 -->
<g id="node40" class="node">
<title>Node40</title>
<g id="a_node40"><a xlink:title=" ">
<polygon fill="none" stroke="#bfbfbf" points="902.01,-342 902.01,-361 1060.01,-361 1060.01,-342 902.01,-342"/>
<text text-anchor="middle" x="981.01" y="-349" font-family="Helvetica,sans-Serif" font-size="10.00">clang/Basic/SourceLocation.h</text>
</a>
</g>
</g>
<!-- Node29&#45;&gt;Node40 -->
<g id="edge71" class="edge">
<title>Node29&#45;&gt;Node40</title>
<path fill="none" stroke="midnightblue" d="M904.76,-403.48C919.03,-393.93 942.4,-378.31 959.51,-366.87"/>
<polygon fill="midnightblue" stroke="midnightblue" points="961.91,-369.48 968.28,-361.01 958.02,-363.66 961.91,-369.48"/>
</g>
<!-- Node30&#45;&gt;Node7 -->
<g id="edge45" class="edge">
<title>Node30&#45;&gt;Node7</title>
<path fill="none" stroke="midnightblue" d="M1280.49,-284.08C1161.12,-276.37 925.11,-260.59 725.01,-244 713.01,-243.01 700.17,-241.85 687.93,-240.71"/>
<polygon fill="midnightblue" stroke="midnightblue" points="688.11,-237.21 677.83,-239.75 687.45,-244.18 688.11,-237.21"/>
</g>
<!-- Node30&#45;&gt;Node12 -->
<g id="edge53" class="edge">
<title>Node30&#45;&gt;Node12</title>
<path fill="none" stroke="midnightblue" d="M1427.51,-280.46C1452.65,-274.12 1479.39,-263.11 1498.01,-244 1519,-222.44 1517.01,-209.1 1517.01,-179 1517.01,-179 1517.01,-179 1517.01,-121 1517.01,-18.44 1140.2,-10.42 1014.37,-10.6"/>
<polygon fill="midnightblue" stroke="midnightblue" points="1014.35,-7.1 1004.36,-10.63 1014.37,-14.1 1014.35,-7.1"/>
</g>
<!-- Node30&#45;&gt;Node18 -->
<g id="edge51" class="edge">
<title>Node30&#45;&gt;Node18</title>
<path fill="none" stroke="midnightblue" d="M1344.38,-280.2C1332.24,-271.9 1314.52,-258.57 1302.01,-244 1276.58,-214.38 1287.12,-194 1258.01,-168 1240.87,-152.7 1217.71,-141.95 1197.69,-134.81"/>
<polygon fill="midnightblue" stroke="midnightblue" points="1198.75,-131.47 1188.16,-131.59 1196.51,-138.1 1198.75,-131.47"/>
</g>
<!-- Node31 -->
<g id="node31" class="node">
<title>Node31</title>
<g id="a_node31"><a xlink:href="MVAssert_8h.html" target="_top" xlink:title=" ">
<polygon fill="none" stroke="black" points="918.01,-224.5 918.01,-243.5 1028.01,-243.5 1028.01,-224.5 918.01,-224.5"/>
<text text-anchor="middle" x="973.01" y="-231.5" font-family="Helvetica,sans-Serif" font-size="10.00">include/MVAssert.h</text>
</a>
</g>
</g>
<!-- Node30&#45;&gt;Node31 -->
<g id="edge46" class="edge">
<title>Node30&#45;&gt;Node31</title>
<path fill="none" stroke="midnightblue" d="M1297,-280.44C1226.33,-270.53 1110.36,-254.26 1038.02,-244.12"/>
<polygon fill="midnightblue" stroke="midnightblue" points="1038.5,-240.65 1028.11,-242.73 1037.53,-247.58 1038.5,-240.65"/>
</g>
<!-- Node33 -->
<g id="node33" class="node">
<title>Node33</title>
<g id="a_node33"><a xlink:title=" ">
<polygon fill="none" stroke="#bfbfbf" points="1545.51,-224.5 1545.51,-243.5 1698.51,-243.5 1698.51,-224.5 1545.51,-224.5"/>
<text text-anchor="middle" x="1622.01" y="-231.5" font-family="Helvetica,sans-Serif" font-size="10.00">clang/Basic/IdentifierTable.h</text>
</a>
</g>
</g>
<!-- Node30&#45;&gt;Node33 -->
<g id="edge50" class="edge">
<title>Node30&#45;&gt;Node33</title>
<path fill="none" stroke="midnightblue" d="M1399.84,-280.44C1446.08,-270.98 1520.62,-255.74 1570.44,-245.55"/>
<polygon fill="midnightblue" stroke="midnightblue" points="1571.27,-248.95 1580.37,-243.52 1569.87,-242.09 1571.27,-248.95"/>
</g>
<!-- Node34 -->
<g id="node34" class="node">
<title>Node34</title>
<g id="a_node34"><a xlink:title=" ">
<polygon fill="none" stroke="#bfbfbf" points="1310.51,-224.5 1310.51,-243.5 1423.51,-243.5 1423.51,-224.5 1310.51,-224.5"/>
<text text-anchor="middle" x="1367.01" y="-231.5" font-family="Helvetica,sans-Serif" font-size="10.00">clang/Parse/Parser.h</text>
</a>
</g>
</g>
<!-- Node30&#45;&gt;Node34 -->
<g id="edge52" class="edge">
<title>Node30&#45;&gt;Node34</title>
<path fill="none" stroke="midnightblue" d="M1359.49,-280.08C1360.68,-272.93 1362.4,-262.64 1363.89,-253.69"/>
<polygon fill="midnightblue" stroke="midnightblue" points="1367.36,-254.19 1365.55,-243.75 1360.45,-253.04 1367.36,-254.19"/>
</g>
<!-- Node35 -->
<g id="node35" class="node">
<title>Node35</title>
<g id="a_node35"><a xlink:title=" ">
<polygon fill="none" stroke="#bfbfbf" points="1441.51,-224.5 1441.51,-243.5 1488.51,-243.5 1488.51,-224.5 1441.51,-224.5"/>
<text text-anchor="middle" x="1465.01" y="-231.5" font-family="Helvetica,sans-Serif" font-size="10.00">vector</text>
</a>
</g>
</g>
<!-- Node30&#45;&gt;Node35 -->
<g id="edge54" class="edge">
<title>Node30&#45;&gt;Node35</title>
<path fill="none" stroke="midnightblue" d="M1375.2,-280.32C1392.36,-271.66 1418.95,-258.24 1438.75,-248.25"/>
<polygon fill="midnightblue" stroke="midnightblue" points="1440.51,-251.28 1447.86,-243.65 1437.35,-245.04 1440.51,-251.28"/>
</g>
<!-- Node31&#45;&gt;Node4 -->
<g id="edge49" class="edge">
<title>Node31&#45;&gt;Node4</title>
<path fill="none" stroke="midnightblue" d="M917.79,-229.37C811.9,-222.12 583.97,-205.09 507.01,-188 434.27,-171.85 404.41,-181.81 349.01,-132 317.93,-104.06 301.93,-55.87 295.13,-29.52"/>
<polygon fill="midnightblue" stroke="midnightblue" points="298.51,-28.6 292.77,-19.69 291.7,-30.23 298.51,-28.6"/>
</g>
<!-- Node31&#45;&gt;Node12 -->
<g id="edge47" class="edge">
<title>Node31&#45;&gt;Node12</title>
<path fill="none" stroke="midnightblue" d="M982.64,-224.23C991.43,-215.74 1004.21,-202.12 1012.01,-188 1028.73,-157.7 1037.55,-145.54 1029.01,-112 1020.83,-79.91 1000.16,-47 986.62,-27.81"/>
<polygon fill="midnightblue" stroke="midnightblue" points="989.34,-25.59 980.63,-19.56 983.67,-29.7 989.34,-25.59"/>
</g>
<!-- Node32 -->
<g id="node32" class="node">
<title>Node32</title>
<g id="a_node32"><a xlink:title=" ">
<polygon fill="none" stroke="#bfbfbf" points="943.51,-168.5 943.51,-187.5 1002.51,-187.5 1002.51,-168.5 943.51,-168.5"/>
<text text-anchor="middle" x="973.01" y="-175.5" font-family="Helvetica,sans-Serif" font-size="10.00">setjmp.h</text>
</a>
</g>
</g>
<!-- Node31&#45;&gt;Node32 -->
<g id="edge48" class="edge">
<title>Node31&#45;&gt;Node32</title>
<path fill="none" stroke="midnightblue" d="M973.01,-224.08C973.01,-217.01 973.01,-206.86 973.01,-197.99"/>
<polygon fill="midnightblue" stroke="midnightblue" points="976.51,-197.75 973.01,-187.75 969.51,-197.75 976.51,-197.75"/>
</g>
<!-- Node36&#45;&gt;Node4 -->
<g id="edge65" class="edge">
<title>Node36&#45;&gt;Node4</title>
<path fill="none" stroke="midnightblue" d="M567.27,-341.99C547.76,-332.77 516.67,-317.09 492.01,-300 431.77,-258.27 417.24,-244.85 371.01,-188 333.67,-142.09 319.12,-131.65 299.01,-76 293.62,-61.11 291.73,-43.2 291.12,-29.94"/>
<polygon fill="midnightblue" stroke="midnightblue" points="294.61,-29.6 290.86,-19.7 287.62,-29.78 294.61,-29.6"/>
</g>
<!-- Node36&#45;&gt;Node6 -->
<g id="edge57" class="edge">
<title>Node36&#45;&gt;Node6</title>
<path fill="none" stroke="midnightblue" d="M550.04,-341.98C505.5,-331.42 429.55,-313.41 380.86,-301.87"/>
<polygon fill="midnightblue" stroke="midnightblue" points="381.44,-298.41 370.9,-299.51 379.82,-305.22 381.44,-298.41"/>
</g>
<!-- Node36&#45;&gt;Node7 -->
<g id="edge56" class="edge">
<title>Node36&#45;&gt;Node7</title>
<path fill="none" stroke="midnightblue" d="M589.31,-341.82C596.45,-323.09 613.42,-278.55 623.04,-253.29"/>
<polygon fill="midnightblue" stroke="midnightblue" points="626.37,-254.37 626.66,-243.78 619.83,-251.88 626.37,-254.37"/>
</g>
<!-- Node36&#45;&gt;Node8 -->
<g id="edge61" class="edge">
<title>Node36&#45;&gt;Node8</title>
<path fill="none" stroke="midnightblue" d="M584.63,-341.76C580.44,-315.15 567.78,-234.71 561.97,-197.84"/>
<polygon fill="midnightblue" stroke="midnightblue" points="565.36,-196.85 560.35,-187.52 558.44,-197.94 565.36,-196.85"/>
</g>
<!-- Node36&#45;&gt;Node12 -->
<g id="edge63" class="edge">
<title>Node36&#45;&gt;Node12</title>
<path fill="none" stroke="midnightblue" d="M627.53,-343.8C761.6,-321.17 1178,-242.77 1244.01,-132 1296.69,-43.59 1101.53,-19.45 1014.2,-13.13"/>
<polygon fill="midnightblue" stroke="midnightblue" points="1014.32,-9.63 1004.11,-12.45 1013.84,-16.62 1014.32,-9.63"/>
</g>
<!-- Node36&#45;&gt;Node15 -->
<g id="edge64" class="edge">
<title>Node36&#45;&gt;Node15</title>
<path fill="none" stroke="midnightblue" d="M574.43,-341.87C530.27,-308.68 373.66,-188.26 349.01,-132 345.44,-123.86 343.57,-119.03 349.01,-112 358.07,-100.27 450.02,-80.97 496.05,-71.95"/>
<polygon fill="midnightblue" stroke="midnightblue" points="496.75,-75.37 505.9,-70.03 495.42,-68.5 496.75,-75.37"/>
</g>
<!-- Node36&#45;&gt;Node16 -->
<g id="edge62" class="edge">
<title>Node36&#45;&gt;Node16</title>
<path fill="none" stroke="midnightblue" d="M592.85,-341.73C603.89,-327.85 626.67,-300.33 649.01,-280 680.04,-251.76 688.42,-244.54 725.01,-224 796.06,-184.11 886.07,-151.36 935.45,-134.76"/>
<polygon fill="midnightblue" stroke="midnightblue" points="936.67,-138.05 945.06,-131.57 934.46,-131.4 936.67,-138.05"/>
</g>
<!-- Node37 -->
<g id="node37" class="node">
<title>Node37</title>
<g id="a_node37"><a xlink:href="MVOps_8h.html" target="_top" xlink:title=" ">
<polygon fill="none" stroke="black" points="658.01,-280.5 658.01,-299.5 756.01,-299.5 756.01,-280.5 658.01,-280.5"/>
<text text-anchor="middle" x="707.01" y="-287.5" font-family="Helvetica,sans-Serif" font-size="10.00">include/MVOps.h</text>
</a>
</g>
</g>
<!-- Node36&#45;&gt;Node37 -->
<g id="edge58" class="edge">
<title>Node36&#45;&gt;Node37</title>
<path fill="none" stroke="midnightblue" d="M603.34,-341.98C623.56,-332.03 657.19,-315.49 680.65,-303.96"/>
<polygon fill="midnightblue" stroke="midnightblue" points="682.27,-307.06 689.7,-299.51 679.18,-300.78 682.27,-307.06"/>
</g>
<!-- Node37&#45;&gt;Node21 -->
<g id="edge60" class="edge">
<title>Node37&#45;&gt;Node21</title>
<path fill="none" stroke="midnightblue" d="M719.22,-280.32C730.78,-272.11 748.38,-259.6 762.17,-249.81"/>
<polygon fill="midnightblue" stroke="midnightblue" points="764.45,-252.48 770.57,-243.83 760.39,-246.77 764.45,-252.48"/>
</g>
<!-- Node37&#45;&gt;Node31 -->
<g id="edge59" class="edge">
<title>Node37&#45;&gt;Node31</title>
<path fill="none" stroke="midnightblue" d="M749.15,-280.44C795.75,-270.98 870.85,-255.74 921.05,-245.55"/>
<polygon fill="midnightblue" stroke="midnightblue" points="921.95,-248.94 931.05,-243.52 920.56,-242.08 921.95,-248.94"/>
</g>
</g>
</svg>
        <g id="navigator" transform="translate(0 0)" fill="#404254">
                <rect fill="#f2f5e9" fill-opacity="0.5" stroke="#606060" stroke-width=".5" x="0" y="0" width="60" height="60"/>
                <use id="zoomplus" xlink:href="#zoomPlus" x="17" y="9" onmousedown="handleZoom(evt,'in')"/>
                <use id="zoomminus" xlink:href="#zoomMin" x="42" y="9" onmousedown="handleZoom(evt,'out')"/>
                <use id="reset" xlink:href="#resetDef" x="30" y="36" onmousedown="handleReset()"/>
                <g id="arrowUp" xlink:href="#dirArrow" transform="translate(30 24)" onmousedown="handlePan(0,-1)">
                  <use xlink:href="#rim" fill="#404040">
                        <set attributeName="fill" to="#808080" begin="arrowUp.mouseover" end="arrowUp.mouseout"/>
                  </use>
                  <path fill="none" stroke="white" stroke-width="1.5" d="M0,-3.0v7 M-2.5,-0.5L0,-3.0L2.5,-0.5"/>
                </g>
                <g id="arrowRight" xlink:href="#dirArrow" transform="rotate(90) translate(36 -43)" onmousedown="handlePan(1,0)">
                  <use xlink:href="#rim" fill="#404040">
                        <set attributeName="fill" to="#808080" begin="arrowRight.mouseover" end="arrowRight.mouseout"/>
                  </use>
                  <path fill="none" stroke="white" stroke-width="1.5" d="M0,-3.0v7 M-2.5,-0.5L0,-3.0L2.5,-0.5"/>
                </g>
                <g id="arrowDown" xlink:href="#dirArrow" transform="rotate(180) translate(-30 -48)" onmousedown="handlePan(0,1)">
                  <use xlink:href="#rim" fill="#404040">
                        <set attributeName="fill" to="#808080" begin="arrowDown.mouseover" end="arrowDown.mouseout"/>
                  </use>
                  <path fill="none" stroke="white" stroke-width="1.5" d="M0,-3.0v7 M-2.5,-0.5L0,-3.0L2.5,-0.5"/>
                </g>
                <g id="arrowLeft" xlink:href="#dirArrow" transform="rotate(270) translate(-36 17)" onmousedown="handlePan(-1,0)">
                  <use xlink:href="#rim" fill="#404040">
                        <set attributeName="fill" to="#808080" begin="arrowLeft.mouseover" end="arrowLeft.mouseout"/>
                  </use>
                  <path fill="none" stroke="white" stroke-width="1.5" d="M0,-3.0v7 M-2.5,-0.5L0,-3.0L2.5,-0.5"/>
                </g>
        </g>
        <svg viewBox="0 0 15 15" width="100%" height="30px" preserveAspectRatio="xMaxYMin meet">
         <g id="arrow_out" transform="scale(0.3 0.3)">
          <a xlink:href="VectorIR_8h__incl_org.svg" target="_base">
           <rect id="button" ry="5" rx="5" y="6" x="6" height="38" width="38"
                fill="#f2f5e9" fill-opacity="0.5" stroke="#606060" stroke-width="1.0"/>
           <path id="arrow"
             d="M 11.500037,31.436501 C 11.940474,20.09759 22.043105,11.32322 32.158766,21.979434 L 37.068811,17.246167 C 37.068811,17.246167 37.088388,32 37.088388,32 L 22.160133,31.978069 C 22.160133,31.978069 26.997745,27.140456 26.997745,27.140456 C 18.528582,18.264221 13.291696,25.230495 11.500037,31.436501 z"
             style="fill:#404040;"/>
          </a>
         </g>
        </svg>
</svg>
