<?xml version="1.0" encoding="UTF-8" standalone="no"?>
<!DOCTYPE svg PUBLIC "-//W3C//DTD SVG 1.1//EN"
 "http://www.w3.org/Graphics/SVG/1.1/DTD/svg11.dtd">
<!-- Generated by graphviz version 2.43.0 (0)
 -->
<!-- Title: include/CDAG.h Pages: 1 -->
<svg width="1647pt" height="543pt"
 viewBox="0.00 0.00 1647.28 543.00" xmlns="http://www.w3.org/2000/svg" xmlns:xlink="http://www.w3.org/1999/xlink">
<g id="graph0" class="graph" transform="scale(1 1) rotate(0) translate(4 539)">
<title>include/CDAG.h</title>
<!-- Node1 -->
<g id="node1" class="node">
<title>Node1</title>
<g id="a_node1"><a xlink:title=" ">
<polygon fill="#bfbfbf" stroke="black" points="720.28,-515.5 720.28,-534.5 812.28,-534.5 812.28,-515.5 720.28,-515.5"/>
<text text-anchor="middle" x="766.28" y="-522.5" font-family="Helvetica,sans-Serif" font-size="10.00">include/CDAG.h</text>
</a>
</g>
</g>
<!-- Node2 -->
<g id="node2" class="node">
<title>Node2</title>
<g id="a_node2"><a xlink:href="Node_8h.html" target="_top" xlink:title=" ">
<polygon fill="none" stroke="black" points="611.78,-459.5 611.78,-478.5 700.78,-478.5 700.78,-459.5 611.78,-459.5"/>
<text text-anchor="middle" x="656.28" y="-466.5" font-family="Helvetica,sans-Serif" font-size="10.00">include/Node.h</text>
</a>
</g>
</g>
<!-- Node1&#45;&gt;Node2 -->
<g id="edge1" class="edge">
<title>Node1&#45;&gt;Node2</title>
<path fill="none" stroke="midnightblue" d="M748.61,-515.32C730.89,-506.62 703.38,-493.12 683,-483.11"/>
<polygon fill="midnightblue" stroke="midnightblue" points="684.43,-479.92 673.91,-478.65 681.35,-486.2 684.43,-479.92"/>
</g>
<!-- Node34 -->
<g id="node34" class="node">
<title>Node34</title>
<g id="a_node34"><a xlink:href="TAC_8h.html" target="_top" xlink:title=" ">
<polygon fill="none" stroke="black" points="905.78,-342 905.78,-361 988.78,-361 988.78,-342 905.78,-342"/>
<text text-anchor="middle" x="947.28" y="-349" font-family="Helvetica,sans-Serif" font-size="10.00">include/TAC.h</text>
</a>
</g>
</g>
<!-- Node1&#45;&gt;Node34 -->
<g id="edge69" class="edge">
<title>Node1&#45;&gt;Node34</title>
<path fill="none" stroke="midnightblue" d="M775.51,-515.26C804.44,-487.85 893.68,-403.29 930.81,-368.11"/>
<polygon fill="midnightblue" stroke="midnightblue" points="933.44,-370.44 938.29,-361.02 928.63,-365.36 933.44,-370.44"/>
</g>
<!-- Node3 -->
<g id="node3" class="node">
<title>Node3</title>
<g id="a_node3"><a xlink:href="MVExpr_8h.html" target="_top" xlink:title=" ">
<polygon fill="none" stroke="black" points="346.78,-280.5 346.78,-299.5 487.78,-299.5 487.78,-280.5 346.78,-280.5"/>
<text text-anchor="middle" x="417.28" y="-287.5" font-family="Helvetica,sans-Serif" font-size="10.00">include/MVExpr/MVExpr.h</text>
</a>
</g>
</g>
<!-- Node2&#45;&gt;Node3 -->
<g id="edge2" class="edge">
<title>Node2&#45;&gt;Node3</title>
<path fill="none" stroke="midnightblue" d="M611.33,-468.31C471.78,-468.82 52.99,-466.65 12.28,-423 -8.04,-401.2 -3.17,-367.01 35.28,-336 80.15,-299.81 238.23,-291.97 336.42,-290.7"/>
<polygon fill="midnightblue" stroke="midnightblue" points="336.66,-294.19 346.62,-290.58 336.58,-287.19 336.66,-294.19"/>
</g>
<!-- Node21 -->
<g id="node21" class="node">
<title>Node21</title>
<g id="a_node21"><a xlink:title=" ">
<polygon fill="none" stroke="#bfbfbf" points="637.28,-224.5 637.28,-243.5 735.28,-243.5 735.28,-224.5 637.28,-224.5"/>
<text text-anchor="middle" x="686.28" y="-231.5" font-family="Helvetica,sans-Serif" font-size="10.00">clang/AST/Expr.h</text>
</a>
</g>
</g>
<!-- Node2&#45;&gt;Node21 -->
<g id="edge68" class="edge">
<title>Node2&#45;&gt;Node21</title>
<path fill="none" stroke="midnightblue" d="M675.48,-459.5C691.36,-451.74 713.76,-439.05 729.28,-423 749.21,-402.4 753.93,-394.71 761.28,-367 771.34,-329.15 769.08,-312.54 747.28,-280 738.65,-267.1 725.02,-256.54 712.84,-248.9"/>
<polygon fill="midnightblue" stroke="midnightblue" points="714.3,-245.69 703.91,-243.63 710.74,-251.72 714.3,-245.69"/>
</g>
<!-- Node24 -->
<g id="node24" class="node">
<title>Node24</title>
<g id="a_node24"><a xlink:href="MVExprLiteral_8h.html" target="_top" xlink:title=" ">
<polygon fill="none" stroke="black" points="298.78,-403.5 298.78,-422.5 471.78,-422.5 471.78,-403.5 298.78,-403.5"/>
<text text-anchor="middle" x="385.28" y="-410.5" font-family="Helvetica,sans-Serif" font-size="10.00">include/MVExpr/MVExprLiteral.h</text>
</a>
</g>
</g>
<!-- Node2&#45;&gt;Node24 -->
<g id="edge32" class="edge">
<title>Node2&#45;&gt;Node24</title>
<path fill="none" stroke="midnightblue" d="M613.34,-459.44C565.77,-449.96 489.04,-434.67 437.9,-424.48"/>
<polygon fill="midnightblue" stroke="midnightblue" points="438.52,-421.04 428.02,-422.52 437.15,-427.9 438.52,-421.04"/>
</g>
<!-- Node25 -->
<g id="node25" class="node">
<title>Node25</title>
<g id="a_node25"><a xlink:href="MVExprVar_8h.html" target="_top" xlink:title=" ">
<polygon fill="none" stroke="black" points="21.78,-403.5 21.78,-422.5 178.78,-422.5 178.78,-403.5 21.78,-403.5"/>
<text text-anchor="middle" x="100.28" y="-410.5" font-family="Helvetica,sans-Serif" font-size="10.00">include/MVExpr/MVExprVar.h</text>
</a>
</g>
</g>
<!-- Node2&#45;&gt;Node25 -->
<g id="edge34" class="edge">
<title>Node2&#45;&gt;Node25</title>
<path fill="none" stroke="midnightblue" d="M611.72,-463.67C520.21,-454.78 309.57,-434.33 189.11,-422.63"/>
<polygon fill="midnightblue" stroke="midnightblue" points="189.1,-419.11 178.81,-421.63 188.42,-426.08 189.1,-419.11"/>
</g>
<!-- Node27 -->
<g id="node27" class="node">
<title>Node27</title>
<g id="a_node27"><a xlink:href="StmtWrapper_8h.html" target="_top" xlink:title=" ">
<polygon fill="none" stroke="black" points="592.28,-403.5 592.28,-422.5 720.28,-422.5 720.28,-403.5 592.28,-403.5"/>
<text text-anchor="middle" x="656.28" y="-410.5" font-family="Helvetica,sans-Serif" font-size="10.00">include/StmtWrapper.h</text>
</a>
</g>
</g>
<!-- Node2&#45;&gt;Node27 -->
<g id="edge37" class="edge">
<title>Node2&#45;&gt;Node27</title>
<path fill="none" stroke="midnightblue" d="M656.28,-459.08C656.28,-452.01 656.28,-441.86 656.28,-432.99"/>
<polygon fill="midnightblue" stroke="midnightblue" points="659.78,-432.75 656.28,-422.75 652.78,-432.75 659.78,-432.75"/>
</g>
<!-- Node2&#45;&gt;Node34 -->
<g id="edge67" class="edge">
<title>Node2&#45;&gt;Node34</title>
<path fill="none" stroke="midnightblue" d="M695.29,-459.44C727.96,-451.69 775.51,-439.03 815.28,-423 855.42,-406.82 899.2,-381.86 924.9,-366.38"/>
<polygon fill="midnightblue" stroke="midnightblue" points="926.78,-369.33 933.51,-361.15 923.14,-363.35 926.78,-369.33"/>
</g>
<!-- Node4 -->
<g id="node4" class="node">
<title>Node4</title>
<g id="a_node4"><a xlink:href="Debug_8h.html" target="_top" xlink:title=" ">
<polygon fill="none" stroke="black" points="867.78,-224.5 867.78,-243.5 962.78,-243.5 962.78,-224.5 867.78,-224.5"/>
<text text-anchor="middle" x="915.28" y="-231.5" font-family="Helvetica,sans-Serif" font-size="10.00">include/Debug.h</text>
</a>
</g>
</g>
<!-- Node3&#45;&gt;Node4 -->
<g id="edge3" class="edge">
<title>Node3&#45;&gt;Node4</title>
<path fill="none" stroke="midnightblue" d="M487.84,-281.35C586.93,-270.61 765.43,-251.25 857.25,-241.29"/>
<polygon fill="midnightblue" stroke="midnightblue" points="857.91,-244.74 867.47,-240.18 857.15,-237.78 857.91,-244.74"/>
</g>
<!-- Node5 -->
<g id="node5" class="node">
<title>Node5</title>
<g id="a_node5"><a xlink:href="Utils_8h.html" target="_top" xlink:title=" ">
<polygon fill="none" stroke="black" points="922.28,-168.5 922.28,-187.5 1008.28,-187.5 1008.28,-168.5 922.28,-168.5"/>
<text text-anchor="middle" x="965.28" y="-175.5" font-family="Helvetica,sans-Serif" font-size="10.00">include/Utils.h</text>
</a>
</g>
</g>
<!-- Node3&#45;&gt;Node5 -->
<g id="edge25" class="edge">
<title>Node3&#45;&gt;Node5</title>
<path fill="none" stroke="midnightblue" d="M456.92,-280.44C491.35,-272.51 542.29,-259.62 585.28,-244 605.09,-236.8 608.05,-229.91 628.28,-224 680.31,-208.81 831.12,-192.26 912.21,-184.11"/>
<polygon fill="midnightblue" stroke="midnightblue" points="912.61,-187.59 922.22,-183.11 911.92,-180.62 912.61,-187.59"/>
</g>
<!-- Node9 -->
<g id="node9" class="node">
<title>Node9</title>
<g id="a_node9"><a xlink:title=" ">
<polygon fill="none" stroke="#bfbfbf" points="1350.28,-0.5 1350.28,-19.5 1410.28,-19.5 1410.28,-0.5 1350.28,-0.5"/>
<text text-anchor="middle" x="1380.28" y="-7.5" font-family="Helvetica,sans-Serif" font-size="10.00">iostream</text>
</a>
</g>
</g>
<!-- Node3&#45;&gt;Node9 -->
<g id="edge29" class="edge">
<title>Node3&#45;&gt;Node9</title>
<path fill="none" stroke="midnightblue" d="M440.13,-280.38C495.65,-259.01 641.22,-200.31 752.28,-132 798.93,-103.31 798.31,-76.04 849.28,-56 938.65,-20.87 1232.24,-13.12 1340.09,-11.45"/>
<polygon fill="midnightblue" stroke="midnightblue" points="1340.28,-14.95 1350.23,-11.3 1340.18,-7.95 1340.28,-14.95"/>
</g>
<!-- Node10 -->
<g id="node10" class="node">
<title>Node10</title>
<g id="a_node10"><a xlink:title=" ">
<polygon fill="none" stroke="#bfbfbf" points="658.28,-0.5 658.28,-19.5 702.28,-19.5 702.28,-0.5 658.28,-0.5"/>
<text text-anchor="middle" x="680.28" y="-7.5" font-family="Helvetica,sans-Serif" font-size="10.00">string</text>
</a>
</g>
</g>
<!-- Node3&#45;&gt;Node10 -->
<g id="edge31" class="edge">
<title>Node3&#45;&gt;Node10</title>
<path fill="none" stroke="midnightblue" d="M422.85,-280.27C433.84,-262.15 457.28,-218.83 457.28,-179 457.28,-179 457.28,-179 457.28,-121 457.28,-78.97 586.32,-37.23 648.08,-19.66"/>
<polygon fill="midnightblue" stroke="midnightblue" points="649.4,-22.93 658.09,-16.86 647.51,-16.19 649.4,-22.93"/>
</g>
<!-- Node15 -->
<g id="node15" class="node">
<title>Node15</title>
<g id="a_node15"><a xlink:title=" ">
<polygon fill="none" stroke="#bfbfbf" points="503.78,-112.5 503.78,-131.5 598.78,-131.5 598.78,-112.5 503.78,-112.5"/>
<text text-anchor="middle" x="551.28" y="-119.5" font-family="Helvetica,sans-Serif" font-size="10.00">clang/AST/AST.h</text>
</a>
</g>
</g>
<!-- Node3&#45;&gt;Node15 -->
<g id="edge26" class="edge">
<title>Node3&#45;&gt;Node15</title>
<path fill="none" stroke="midnightblue" d="M429.82,-280.32C441.43,-271.89 458.74,-258.32 471.28,-244 497.62,-213.96 497.03,-201.18 519.28,-168 525.64,-158.53 533,-148.14 539.05,-139.74"/>
<polygon fill="midnightblue" stroke="midnightblue" points="541.97,-141.68 545.01,-131.53 536.3,-137.57 541.97,-141.68"/>
</g>
<!-- Node20 -->
<g id="node20" class="node">
<title>Node20</title>
<g id="a_node20"><a xlink:href="MVDataType_8h.html" target="_top" xlink:title=" ">
<polygon fill="none" stroke="black" points="263.28,-112.5 263.28,-131.5 429.28,-131.5 429.28,-112.5 263.28,-112.5"/>
<text text-anchor="middle" x="346.28" y="-119.5" font-family="Helvetica,sans-Serif" font-size="10.00">include/MVExpr/MVDataType.h</text>
</a>
</g>
</g>
<!-- Node3&#45;&gt;Node20 -->
<g id="edge22" class="edge">
<title>Node3&#45;&gt;Node20</title>
<path fill="none" stroke="midnightblue" d="M346.62,-282.47C295.47,-276.11 232.58,-264.34 216.28,-244 180.6,-199.44 264.54,-156.04 313.73,-135.43"/>
<polygon fill="midnightblue" stroke="midnightblue" points="315.12,-138.64 323.06,-131.62 312.48,-132.16 315.12,-138.64"/>
</g>
<!-- Node3&#45;&gt;Node21 -->
<g id="edge27" class="edge">
<title>Node3&#45;&gt;Node21</title>
<path fill="none" stroke="midnightblue" d="M459.91,-280.44C507.03,-270.98 582.98,-255.74 633.74,-245.55"/>
<polygon fill="midnightblue" stroke="midnightblue" points="634.74,-248.92 643.86,-243.52 633.37,-242.05 634.74,-248.92"/>
</g>
<!-- Node22 -->
<g id="node22" class="node">
<title>Node22</title>
<g id="a_node22"><a xlink:title=" ">
<polygon fill="none" stroke="#bfbfbf" points="225.28,-224.5 225.28,-243.5 353.28,-243.5 353.28,-224.5 225.28,-224.5"/>
<text text-anchor="middle" x="289.28" y="-231.5" font-family="Helvetica,sans-Serif" font-size="10.00">llvm/Support/Casting.h</text>
</a>
</g>
</g>
<!-- Node3&#45;&gt;Node22 -->
<g id="edge28" class="edge">
<title>Node3&#45;&gt;Node22</title>
<path fill="none" stroke="midnightblue" d="M397,-280.44C375.94,-271.56 342.77,-257.56 318.8,-247.45"/>
<polygon fill="midnightblue" stroke="midnightblue" points="320.05,-244.18 309.47,-243.52 317.33,-250.63 320.05,-244.18"/>
</g>
<!-- Node23 -->
<g id="node23" class="node">
<title>Node23</title>
<g id="a_node23"><a xlink:title=" ">
<polygon fill="none" stroke="#bfbfbf" points="371.28,-224.5 371.28,-243.5 429.28,-243.5 429.28,-224.5 371.28,-224.5"/>
<text text-anchor="middle" x="400.28" y="-231.5" font-family="Helvetica,sans-Serif" font-size="10.00">memory</text>
</a>
</g>
</g>
<!-- Node3&#45;&gt;Node23 -->
<g id="edge30" class="edge">
<title>Node3&#45;&gt;Node23</title>
<path fill="none" stroke="midnightblue" d="M414.48,-280.08C412.2,-272.85 408.91,-262.41 406.08,-253.4"/>
<polygon fill="midnightblue" stroke="midnightblue" points="409.38,-252.24 403.04,-243.75 402.7,-254.34 409.38,-252.24"/>
</g>
<!-- Node4&#45;&gt;Node5 -->
<g id="edge4" class="edge">
<title>Node4&#45;&gt;Node5</title>
<path fill="none" stroke="midnightblue" d="M923.54,-224.08C930.75,-216.3 941.39,-204.8 950.13,-195.37"/>
<polygon fill="midnightblue" stroke="midnightblue" points="952.96,-197.47 957.18,-187.75 947.82,-192.71 952.96,-197.47"/>
</g>
<!-- Node6 -->
<g id="node6" class="node">
<title>Node6</title>
<g id="a_node6"><a xlink:href="MVOptions_8h.html" target="_top" xlink:title=" ">
<polygon fill="none" stroke="black" points="625.78,-112.5 625.78,-131.5 742.78,-131.5 742.78,-112.5 625.78,-112.5"/>
<text text-anchor="middle" x="684.28" y="-119.5" font-family="Helvetica,sans-Serif" font-size="10.00">include/MVOptions.h</text>
</a>
</g>
</g>
<!-- Node5&#45;&gt;Node6 -->
<g id="edge5" class="edge">
<title>Node5&#45;&gt;Node6</title>
<path fill="none" stroke="midnightblue" d="M921.99,-168.68C872.68,-159.2 792.01,-143.7 738.54,-133.43"/>
<polygon fill="midnightblue" stroke="midnightblue" points="739.03,-129.96 728.55,-131.51 737.71,-136.83 739.03,-129.96"/>
</g>
<!-- Node5&#45;&gt;Node9 -->
<g id="edge21" class="edge">
<title>Node5&#45;&gt;Node9</title>
<path fill="none" stroke="midnightblue" d="M1008.37,-169.62C1011.73,-169.07 1015.06,-168.52 1018.28,-168 1123.04,-151.12 1159.13,-178.94 1254.28,-132 1304.65,-107.16 1348.08,-54.95 1368.25,-27.96"/>
<polygon fill="midnightblue" stroke="midnightblue" points="1371.32,-29.69 1374.39,-19.55 1365.67,-25.56 1371.32,-29.69"/>
</g>
<!-- Node5&#45;&gt;Node15 -->
<g id="edge16" class="edge">
<title>Node5&#45;&gt;Node15</title>
<path fill="none" stroke="midnightblue" d="M922.14,-171.52C856.36,-163.14 727.04,-146.58 617.28,-132 614.58,-131.64 611.82,-131.27 609.03,-130.9"/>
<polygon fill="midnightblue" stroke="midnightblue" points="609.24,-127.4 598.87,-129.53 608.31,-134.33 609.24,-127.4"/>
</g>
<!-- Node16 -->
<g id="node16" class="node">
<title>Node16</title>
<g id="a_node16"><a xlink:title=" ">
<polygon fill="none" stroke="#bfbfbf" points="907.78,-112.5 907.78,-131.5 1052.78,-131.5 1052.78,-112.5 907.78,-112.5"/>
<text text-anchor="middle" x="980.28" y="-119.5" font-family="Helvetica,sans-Serif" font-size="10.00">clang/Basic/LangOptions.h</text>
</a>
</g>
</g>
<!-- Node5&#45;&gt;Node16 -->
<g id="edge17" class="edge">
<title>Node5&#45;&gt;Node16</title>
<path fill="none" stroke="midnightblue" d="M967.76,-168.08C969.77,-160.85 972.67,-150.41 975.17,-141.4"/>
<polygon fill="midnightblue" stroke="midnightblue" points="978.55,-142.32 977.85,-131.75 971.81,-140.45 978.55,-142.32"/>
</g>
<!-- Node17 -->
<g id="node17" class="node">
<title>Node17</title>
<g id="a_node17"><a xlink:title=" ">
<polygon fill="none" stroke="#bfbfbf" points="1300.78,-112.5 1300.78,-131.5 1459.78,-131.5 1459.78,-112.5 1300.78,-112.5"/>
<text text-anchor="middle" x="1380.28" y="-119.5" font-family="Helvetica,sans-Serif" font-size="10.00">clang/Basic/SourceManager.h</text>
</a>
</g>
</g>
<!-- Node5&#45;&gt;Node17 -->
<g id="edge18" class="edge">
<title>Node5&#45;&gt;Node17</title>
<path fill="none" stroke="midnightblue" d="M1008.36,-169.52C1011.71,-168.99 1015.05,-168.48 1018.28,-168 1112.09,-154.21 1219.98,-141.16 1293.4,-132.7"/>
<polygon fill="midnightblue" stroke="midnightblue" points="1293.99,-136.16 1303.53,-131.54 1293.19,-129.2 1293.99,-136.16"/>
</g>
<!-- Node18 -->
<g id="node18" class="node">
<title>Node18</title>
<g id="a_node18"><a xlink:title=" ">
<polygon fill="none" stroke="#bfbfbf" points="1070.78,-112.5 1070.78,-131.5 1171.78,-131.5 1171.78,-112.5 1070.78,-112.5"/>
<text text-anchor="middle" x="1121.28" y="-119.5" font-family="Helvetica,sans-Serif" font-size="10.00">clang/Lex/Lexer.h</text>
</a>
</g>
</g>
<!-- Node5&#45;&gt;Node18 -->
<g id="edge19" class="edge">
<title>Node5&#45;&gt;Node18</title>
<path fill="none" stroke="midnightblue" d="M990,-168.44C1016.13,-159.4 1057.54,-145.06 1086.86,-134.92"/>
<polygon fill="midnightblue" stroke="midnightblue" points="1088.38,-138.1 1096.68,-131.52 1086.09,-131.48 1088.38,-138.1"/>
</g>
<!-- Node19 -->
<g id="node19" class="node">
<title>Node19</title>
<g id="a_node19"><a xlink:title=" ">
<polygon fill="none" stroke="#bfbfbf" points="1189.78,-112.5 1189.78,-131.5 1244.78,-131.5 1244.78,-112.5 1189.78,-112.5"/>
<text text-anchor="middle" x="1217.28" y="-119.5" font-family="Helvetica,sans-Serif" font-size="10.00">fstream</text>
</a>
</g>
</g>
<!-- Node5&#45;&gt;Node19 -->
<g id="edge20" class="edge">
<title>Node5&#45;&gt;Node19</title>
<path fill="none" stroke="midnightblue" d="M1008.43,-168.54C1049.97,-160.27 1114.82,-147.05 1179.45,-132.36"/>
<polygon fill="midnightblue" stroke="midnightblue" points="1180.43,-135.73 1189.4,-130.09 1178.87,-128.9 1180.43,-135.73"/>
</g>
<!-- Node7 -->
<g id="node7" class="node">
<title>Node7</title>
<g id="a_node7"><a xlink:href="CPUID_8h.html" target="_top" xlink:title=" ">
<polygon fill="none" stroke="black" points="560.78,-56.5 560.78,-75.5 655.78,-75.5 655.78,-56.5 560.78,-56.5"/>
<text text-anchor="middle" x="608.28" y="-63.5" font-family="Helvetica,sans-Serif" font-size="10.00">include/CPUID.h</text>
</a>
</g>
</g>
<!-- Node6&#45;&gt;Node7 -->
<g id="edge6" class="edge">
<title>Node6&#45;&gt;Node7</title>
<path fill="none" stroke="midnightblue" d="M672.07,-112.32C660.51,-104.11 642.91,-91.6 629.12,-81.81"/>
<polygon fill="midnightblue" stroke="midnightblue" points="630.9,-78.77 620.72,-75.83 626.84,-84.48 630.9,-78.77"/>
</g>
<!-- Node8 -->
<g id="node8" class="node">
<title>Node8</title>
<g id="a_node8"><a xlink:title=" ">
<polygon fill="none" stroke="#bfbfbf" points="500.28,-0.5 500.28,-19.5 564.28,-19.5 564.28,-0.5 500.28,-0.5"/>
<text text-anchor="middle" x="532.28" y="-7.5" font-family="Helvetica,sans-Serif" font-size="10.00">algorithm</text>
</a>
</g>
</g>
<!-- Node6&#45;&gt;Node8 -->
<g id="edge11" class="edge">
<title>Node6&#45;&gt;Node8</title>
<path fill="none" stroke="midnightblue" d="M625.58,-113.19C600.03,-107 571.59,-95.9 552.28,-76 540.35,-63.7 535.52,-44.44 533.57,-30.08"/>
<polygon fill="midnightblue" stroke="midnightblue" points="537.03,-29.44 532.55,-19.83 530.06,-30.13 537.03,-29.44"/>
</g>
<!-- Node6&#45;&gt;Node10 -->
<g id="edge15" class="edge">
<title>Node6&#45;&gt;Node10</title>
<path fill="none" stroke="midnightblue" d="M683.97,-112.37C683.33,-94.62 681.84,-53.67 680.96,-29.6"/>
<polygon fill="midnightblue" stroke="midnightblue" points="684.46,-29.46 680.6,-19.59 677.46,-29.71 684.46,-29.46"/>
</g>
<!-- Node12 -->
<g id="node12" class="node">
<title>Node12</title>
<g id="a_node12"><a xlink:title=" ">
<polygon fill="none" stroke="#bfbfbf" points="712.28,-56.5 712.28,-75.5 764.28,-75.5 764.28,-56.5 712.28,-56.5"/>
<text text-anchor="middle" x="738.28" y="-63.5" font-family="Helvetica,sans-Serif" font-size="10.00">cassert</text>
</a>
</g>
</g>
<!-- Node6&#45;&gt;Node12 -->
<g id="edge12" class="edge">
<title>Node6&#45;&gt;Node12</title>
<path fill="none" stroke="midnightblue" d="M693.2,-112.08C701.07,-104.22 712.72,-92.57 722.2,-83.08"/>
<polygon fill="midnightblue" stroke="midnightblue" points="724.94,-85.3 729.53,-75.75 719.99,-80.35 724.94,-85.3"/>
</g>
<!-- Node13 -->
<g id="node13" class="node">
<title>Node13</title>
<g id="a_node13"><a xlink:title=" ">
<polygon fill="none" stroke="#bfbfbf" points="858.28,-56.5 858.28,-75.5 890.28,-75.5 890.28,-56.5 858.28,-56.5"/>
<text text-anchor="middle" x="874.28" y="-63.5" font-family="Helvetica,sans-Serif" font-size="10.00">list</text>
</a>
</g>
</g>
<!-- Node6&#45;&gt;Node13 -->
<g id="edge13" class="edge">
<title>Node6&#45;&gt;Node13</title>
<path fill="none" stroke="midnightblue" d="M714.39,-112.44C751.18,-101.99 812.85,-84.46 847.88,-74.5"/>
<polygon fill="midnightblue" stroke="midnightblue" points="849.17,-77.78 857.84,-71.67 847.26,-71.04 849.17,-77.78"/>
</g>
<!-- Node14 -->
<g id="node14" class="node">
<title>Node14</title>
<g id="a_node14"><a xlink:title=" ">
<polygon fill="none" stroke="#bfbfbf" points="387.28,-56.5 387.28,-75.5 425.28,-75.5 425.28,-56.5 387.28,-56.5"/>
<text text-anchor="middle" x="406.28" y="-63.5" font-family="Helvetica,sans-Serif" font-size="10.00">map</text>
</a>
</g>
</g>
<!-- Node6&#45;&gt;Node14 -->
<g id="edge14" class="edge">
<title>Node6&#45;&gt;Node14</title>
<path fill="none" stroke="midnightblue" d="M640.23,-112.44C582.9,-101.31 484.26,-82.15 435.43,-72.66"/>
<polygon fill="midnightblue" stroke="midnightblue" points="436,-69.21 425.52,-70.74 434.67,-76.08 436,-69.21"/>
</g>
<!-- Node7&#45;&gt;Node8 -->
<g id="edge7" class="edge">
<title>Node7&#45;&gt;Node8</title>
<path fill="none" stroke="midnightblue" d="M596.07,-56.32C584.51,-48.11 566.91,-35.6 553.12,-25.81"/>
<polygon fill="midnightblue" stroke="midnightblue" points="554.9,-22.77 544.72,-19.83 550.84,-28.48 554.9,-22.77"/>
</g>
<!-- Node7&#45;&gt;Node9 -->
<g id="edge8" class="edge">
<title>Node7&#45;&gt;Node9</title>
<path fill="none" stroke="midnightblue" d="M656.1,-60.21C671.19,-58.76 687.93,-57.24 703.28,-56 944.79,-36.54 1235.25,-19.3 1340.1,-13.28"/>
<polygon fill="midnightblue" stroke="midnightblue" points="1340.45,-16.76 1350.23,-12.7 1340.05,-9.77 1340.45,-16.76"/>
</g>
<!-- Node7&#45;&gt;Node10 -->
<g id="edge9" class="edge">
<title>Node7&#45;&gt;Node10</title>
<path fill="none" stroke="midnightblue" d="M619.85,-56.32C630.71,-48.18 647.17,-35.84 660.17,-26.09"/>
<polygon fill="midnightblue" stroke="midnightblue" points="662.61,-28.63 668.51,-19.83 658.41,-23.03 662.61,-28.63"/>
</g>
<!-- Node11 -->
<g id="node11" class="node">
<title>Node11</title>
<g id="a_node11"><a xlink:title=" ">
<polygon fill="none" stroke="#bfbfbf" points="582.78,-0.5 582.78,-19.5 635.78,-19.5 635.78,-0.5 582.78,-0.5"/>
<text text-anchor="middle" x="609.28" y="-7.5" font-family="Helvetica,sans-Serif" font-size="10.00">stdint.h</text>
</a>
</g>
</g>
<!-- Node7&#45;&gt;Node11 -->
<g id="edge10" class="edge">
<title>Node7&#45;&gt;Node11</title>
<path fill="none" stroke="midnightblue" d="M608.45,-56.08C608.58,-49.01 608.77,-38.86 608.93,-29.99"/>
<polygon fill="midnightblue" stroke="midnightblue" points="612.44,-29.81 609.12,-19.75 605.44,-29.68 612.44,-29.81"/>
</g>
<!-- Node20&#45;&gt;Node10 -->
<g id="edge24" class="edge">
<title>Node20&#45;&gt;Node10</title>
<path fill="none" stroke="midnightblue" d="M347.89,-112.14C351.01,-97.79 359.29,-69.66 378.28,-56 426.88,-21.03 586.52,-31.47 645.28,-20 646.2,-19.82 647.13,-19.63 648.06,-19.44"/>
<polygon fill="midnightblue" stroke="midnightblue" points="649.2,-22.77 658.16,-17.11 647.63,-15.95 649.2,-22.77"/>
</g>
<!-- Node20&#45;&gt;Node14 -->
<g id="edge23" class="edge">
<title>Node20&#45;&gt;Node14</title>
<path fill="none" stroke="midnightblue" d="M355.92,-112.32C364.79,-104.34 378.16,-92.31 388.89,-82.65"/>
<polygon fill="midnightblue" stroke="midnightblue" points="391.38,-85.13 396.47,-75.83 386.7,-79.92 391.38,-85.13"/>
</g>
<!-- Node24&#45;&gt;Node3 -->
<g id="edge33" class="edge">
<title>Node24&#45;&gt;Node3</title>
<path fill="none" stroke="midnightblue" d="M298.71,-404.52C235.54,-395.62 166.29,-376.5 199.28,-336 216.63,-314.7 281.93,-303.18 336.58,-297.15"/>
<polygon fill="midnightblue" stroke="midnightblue" points="337.07,-300.62 346.65,-296.08 336.34,-293.66 337.07,-300.62"/>
</g>
<!-- Node25&#45;&gt;Node3 -->
<g id="edge35" class="edge">
<title>Node25&#45;&gt;Node3</title>
<path fill="none" stroke="midnightblue" d="M83.09,-403.39C70.03,-395.79 53.05,-383.39 45.28,-367 39.38,-354.55 36.15,-346.31 45.28,-336 64.26,-314.59 232.77,-301.36 336.38,-295.17"/>
<polygon fill="midnightblue" stroke="midnightblue" points="336.73,-298.66 346.5,-294.58 336.32,-291.67 336.73,-298.66"/>
</g>
<!-- Node26 -->
<g id="node26" class="node">
<title>Node26</title>
<g id="a_node26"><a xlink:title=" ">
<polygon fill="none" stroke="#bfbfbf" points="53.78,-342 53.78,-361 146.78,-361 146.78,-342 53.78,-342"/>
<text text-anchor="middle" x="100.28" y="-349" font-family="Helvetica,sans-Serif" font-size="10.00">unordered_map</text>
</a>
</g>
</g>
<!-- Node25&#45;&gt;Node26 -->
<g id="edge36" class="edge">
<title>Node25&#45;&gt;Node26</title>
<path fill="none" stroke="midnightblue" d="M100.28,-403.48C100.28,-395.08 100.28,-381.98 100.28,-371.16"/>
<polygon fill="midnightblue" stroke="midnightblue" points="103.78,-371.01 100.28,-361.01 96.78,-371.01 103.78,-371.01"/>
</g>
<!-- Node27&#45;&gt;Node3 -->
<g id="edge38" class="edge">
<title>Node27&#45;&gt;Node3</title>
<path fill="none" stroke="midnightblue" d="M592.12,-407.35C477.64,-398.75 248.99,-380.03 237.28,-367 202.59,-328.38 273.73,-308.77 336.55,-299.25"/>
<polygon fill="midnightblue" stroke="midnightblue" points="337.15,-302.7 346.54,-297.8 336.14,-295.77 337.15,-302.7"/>
</g>
<!-- Node27&#45;&gt;Node5 -->
<g id="edge61" class="edge">
<title>Node27&#45;&gt;Node5</title>
<path fill="none" stroke="midnightblue" d="M688.68,-403.36C710.85,-396.26 739.98,-384.49 761.28,-367 820.83,-318.11 799.65,-272.79 859.28,-224 877.85,-208.81 902.3,-197.97 923.04,-190.74"/>
<polygon fill="midnightblue" stroke="midnightblue" points="924.19,-194.05 932.58,-187.58 921.98,-187.41 924.19,-194.05"/>
</g>
<!-- Node27&#45;&gt;Node15 -->
<g id="edge62" class="edge">
<title>Node27&#45;&gt;Node15</title>
<path fill="none" stroke="midnightblue" d="M592.26,-409.11C488.08,-403.75 291.28,-390.59 270.28,-367 261.12,-356.71 261.34,-346.48 270.28,-336 336.62,-258.32 420.22,-367.05 497.28,-300 544.31,-259.09 551.07,-178.53 551.59,-141.92"/>
<polygon fill="midnightblue" stroke="midnightblue" points="555.09,-141.67 551.58,-131.68 548.09,-141.68 555.09,-141.67"/>
</g>
<!-- Node27&#45;&gt;Node21 -->
<g id="edge63" class="edge">
<title>Node27&#45;&gt;Node21</title>
<path fill="none" stroke="midnightblue" d="M692.14,-403.4C711.17,-396.81 732.91,-385.59 744.28,-367 768.33,-327.7 727.81,-276.67 703.14,-251.1"/>
<polygon fill="midnightblue" stroke="midnightblue" points="705.33,-248.34 695.79,-243.73 700.38,-253.28 705.33,-248.34"/>
</g>
<!-- Node28 -->
<g id="node28" class="node">
<title>Node28</title>
<g id="a_node28"><a xlink:href="MVPragmaHandler_8h.html" target="_top" xlink:title=" ">
<polygon fill="none" stroke="black" points="1141.78,-280.5 1141.78,-299.5 1296.78,-299.5 1296.78,-280.5 1141.78,-280.5"/>
<text text-anchor="middle" x="1219.28" y="-287.5" font-family="Helvetica,sans-Serif" font-size="10.00">include/MVPragmaHandler.h</text>
</a>
</g>
</g>
<!-- Node27&#45;&gt;Node28 -->
<g id="edge39" class="edge">
<title>Node27&#45;&gt;Node28</title>
<path fill="none" stroke="midnightblue" d="M720.4,-403.82C759.93,-397.22 810.99,-385.85 853.28,-367 875.14,-357.26 875.04,-344.79 897.28,-336 938.63,-319.66 1051,-306.39 1131.34,-298.6"/>
<polygon fill="midnightblue" stroke="midnightblue" points="1131.84,-302.07 1141.46,-297.63 1131.18,-295.1 1131.84,-302.07"/>
</g>
<!-- Node27&#45;&gt;Node34 -->
<g id="edge50" class="edge">
<title>Node27&#45;&gt;Node34</title>
<path fill="none" stroke="midnightblue" d="M705.99,-403.44C753.69,-395 827.66,-381.31 891.28,-367 896,-365.94 900.92,-364.77 905.8,-363.56"/>
<polygon fill="midnightblue" stroke="midnightblue" points="906.84,-366.9 915.68,-361.06 905.13,-360.12 906.84,-366.9"/>
</g>
<!-- Node36 -->
<g id="node36" class="node">
<title>Node36</title>
<g id="a_node36"><a xlink:title=" ">
<polygon fill="none" stroke="#bfbfbf" points="279.28,-342 279.28,-361 379.28,-361 379.28,-342 279.28,-342"/>
<text text-anchor="middle" x="329.28" y="-349" font-family="Helvetica,sans-Serif" font-size="10.00">clang/AST/Stmt.h</text>
</a>
</g>
</g>
<!-- Node27&#45;&gt;Node36 -->
<g id="edge64" class="edge">
<title>Node27&#45;&gt;Node36</title>
<path fill="none" stroke="midnightblue" d="M598.52,-403.46C544.29,-395.16 461.01,-381.69 389.28,-367 383.9,-365.9 378.27,-364.66 372.71,-363.37"/>
<polygon fill="midnightblue" stroke="midnightblue" points="373.37,-359.93 362.83,-361.05 371.76,-366.75 373.37,-359.93"/>
</g>
<!-- Node37 -->
<g id="node37" class="node">
<title>Node37</title>
<g id="a_node37"><a xlink:title=" ">
<polygon fill="none" stroke="#bfbfbf" points="397.78,-336.5 397.78,-366.5 558.78,-366.5 558.78,-336.5 397.78,-336.5"/>
<text text-anchor="start" x="405.78" y="-354.5" font-family="Helvetica,sans-Serif" font-size="10.00">clang/ASTMatchers/ASTMatch</text>
<text text-anchor="middle" x="478.28" y="-343.5" font-family="Helvetica,sans-Serif" font-size="10.00">Finder.h</text>
</a>
</g>
</g>
<!-- Node27&#45;&gt;Node37 -->
<g id="edge65" class="edge">
<title>Node27&#45;&gt;Node37</title>
<path fill="none" stroke="midnightblue" d="M630.78,-403.48C604.53,-394.7 562.91,-380.79 529.78,-369.71"/>
<polygon fill="midnightblue" stroke="midnightblue" points="530.83,-366.37 520.24,-366.52 528.61,-373.01 530.83,-366.37"/>
</g>
<!-- Node38 -->
<g id="node38" class="node">
<title>Node38</title>
<g id="a_node38"><a xlink:title=" ">
<polygon fill="none" stroke="#bfbfbf" points="577.28,-342 577.28,-361 735.28,-361 735.28,-342 577.28,-342"/>
<text text-anchor="middle" x="656.28" y="-349" font-family="Helvetica,sans-Serif" font-size="10.00">clang/Basic/SourceLocation.h</text>
</a>
</g>
</g>
<!-- Node27&#45;&gt;Node38 -->
<g id="edge66" class="edge">
<title>Node27&#45;&gt;Node38</title>
<path fill="none" stroke="midnightblue" d="M656.28,-403.48C656.28,-395.08 656.28,-381.98 656.28,-371.16"/>
<polygon fill="midnightblue" stroke="midnightblue" points="659.78,-371.01 656.28,-361.01 652.78,-371.01 659.78,-371.01"/>
</g>
<!-- Node28&#45;&gt;Node4 -->
<g id="edge40" class="edge">
<title>Node28&#45;&gt;Node4</title>
<path fill="none" stroke="midnightblue" d="M1171.12,-280.44C1117.42,-270.9 1030.6,-255.48 973.23,-245.29"/>
<polygon fill="midnightblue" stroke="midnightblue" points="973.69,-241.82 963.23,-243.52 972.46,-248.71 973.69,-241.82"/>
</g>
<!-- Node28&#45;&gt;Node9 -->
<g id="edge48" class="edge">
<title>Node28&#45;&gt;Node9</title>
<path fill="none" stroke="midnightblue" d="M1296.79,-283.13C1364.36,-276.74 1456.14,-264.56 1486.28,-244 1514.12,-225.01 1525.28,-212.69 1525.28,-179 1525.28,-179 1525.28,-179 1525.28,-121 1525.28,-67.94 1462.9,-37.16 1419.97,-22.26"/>
<polygon fill="midnightblue" stroke="midnightblue" points="1420.92,-18.89 1410.33,-19.07 1418.72,-25.53 1420.92,-18.89"/>
</g>
<!-- Node28&#45;&gt;Node17 -->
<g id="edge46" class="edge">
<title>Node28&#45;&gt;Node17</title>
<path fill="none" stroke="midnightblue" d="M1296.99,-285.56C1361.73,-280.86 1446.7,-269.83 1468.28,-244 1499.17,-207.04 1439.14,-160.14 1403.7,-137.09"/>
<polygon fill="midnightblue" stroke="midnightblue" points="1405.19,-133.89 1394.87,-131.51 1401.45,-139.81 1405.19,-133.89"/>
</g>
<!-- Node29 -->
<g id="node29" class="node">
<title>Node29</title>
<g id="a_node29"><a xlink:href="MVAssert_8h.html" target="_top" xlink:title=" ">
<polygon fill="none" stroke="black" points="981.28,-224.5 981.28,-243.5 1091.28,-243.5 1091.28,-224.5 981.28,-224.5"/>
<text text-anchor="middle" x="1036.28" y="-231.5" font-family="Helvetica,sans-Serif" font-size="10.00">include/MVAssert.h</text>
</a>
</g>
</g>
<!-- Node28&#45;&gt;Node29 -->
<g id="edge41" class="edge">
<title>Node28&#45;&gt;Node29</title>
<path fill="none" stroke="midnightblue" d="M1190.29,-280.44C1159.1,-271.24 1109.35,-256.56 1074.88,-246.39"/>
<polygon fill="midnightblue" stroke="midnightblue" points="1075.73,-242.99 1065.15,-243.52 1073.75,-249.7 1075.73,-242.99"/>
</g>
<!-- Node31 -->
<g id="node31" class="node">
<title>Node31</title>
<g id="a_node31"><a xlink:title=" ">
<polygon fill="none" stroke="#bfbfbf" points="1305.78,-224.5 1305.78,-243.5 1458.78,-243.5 1458.78,-224.5 1305.78,-224.5"/>
<text text-anchor="middle" x="1382.28" y="-231.5" font-family="Helvetica,sans-Serif" font-size="10.00">clang/Basic/IdentifierTable.h</text>
</a>
</g>
</g>
<!-- Node28&#45;&gt;Node31 -->
<g id="edge45" class="edge">
<title>Node28&#45;&gt;Node31</title>
<path fill="none" stroke="midnightblue" d="M1245.11,-280.44C1272.53,-271.36 1316.06,-256.94 1346.72,-246.78"/>
<polygon fill="midnightblue" stroke="midnightblue" points="1348.19,-249.98 1356.58,-243.52 1345.98,-243.34 1348.19,-249.98"/>
</g>
<!-- Node32 -->
<g id="node32" class="node">
<title>Node32</title>
<g id="a_node32"><a xlink:title=" ">
<polygon fill="none" stroke="#bfbfbf" points="1109.78,-224.5 1109.78,-243.5 1222.78,-243.5 1222.78,-224.5 1109.78,-224.5"/>
<text text-anchor="middle" x="1166.28" y="-231.5" font-family="Helvetica,sans-Serif" font-size="10.00">clang/Parse/Parser.h</text>
</a>
</g>
</g>
<!-- Node28&#45;&gt;Node32 -->
<g id="edge47" class="edge">
<title>Node28&#45;&gt;Node32</title>
<path fill="none" stroke="midnightblue" d="M1210.53,-280.08C1202.82,-272.22 1191.38,-260.57 1182.07,-251.08"/>
<polygon fill="midnightblue" stroke="midnightblue" points="1184.38,-248.44 1174.87,-243.75 1179.38,-253.34 1184.38,-248.44"/>
</g>
<!-- Node33 -->
<g id="node33" class="node">
<title>Node33</title>
<g id="a_node33"><a xlink:title=" ">
<polygon fill="none" stroke="#bfbfbf" points="1240.78,-224.5 1240.78,-243.5 1287.78,-243.5 1287.78,-224.5 1240.78,-224.5"/>
<text text-anchor="middle" x="1264.28" y="-231.5" font-family="Helvetica,sans-Serif" font-size="10.00">vector</text>
</a>
</g>
</g>
<!-- Node28&#45;&gt;Node33 -->
<g id="edge49" class="edge">
<title>Node28&#45;&gt;Node33</title>
<path fill="none" stroke="midnightblue" d="M1226.72,-280.08C1233.14,-272.38 1242.59,-261.03 1250.41,-251.65"/>
<polygon fill="midnightblue" stroke="midnightblue" points="1253.28,-253.67 1256.99,-243.75 1247.9,-249.19 1253.28,-253.67"/>
</g>
<!-- Node29&#45;&gt;Node9 -->
<g id="edge42" class="edge">
<title>Node29&#45;&gt;Node9</title>
<path fill="none" stroke="midnightblue" d="M1088.82,-224.47C1198.88,-206.09 1445.5,-161.97 1469.28,-132 1499.2,-94.31 1439.76,-48.09 1404.23,-25.22"/>
<polygon fill="midnightblue" stroke="midnightblue" points="1405.69,-22.01 1395.36,-19.67 1401.98,-27.94 1405.69,-22.01"/>
</g>
<!-- Node29&#45;&gt;Node10 -->
<g id="edge44" class="edge">
<title>Node29&#45;&gt;Node10</title>
<path fill="none" stroke="midnightblue" d="M981.05,-224.7C957.14,-218.4 930.7,-207.36 913.28,-188 896.13,-168.93 902.42,-157.46 899.28,-132 899.28,-132 899.28,-56 899.28,-56 876.12,-27.59 767.89,-16.6 712.75,-12.8"/>
<polygon fill="midnightblue" stroke="midnightblue" points="712.68,-9.29 702.48,-12.13 712.23,-16.27 712.68,-9.29"/>
</g>
<!-- Node30 -->
<g id="node30" class="node">
<title>Node30</title>
<g id="a_node30"><a xlink:title=" ">
<polygon fill="none" stroke="#bfbfbf" points="1026.78,-168.5 1026.78,-187.5 1085.78,-187.5 1085.78,-168.5 1026.78,-168.5"/>
<text text-anchor="middle" x="1056.28" y="-175.5" font-family="Helvetica,sans-Serif" font-size="10.00">setjmp.h</text>
</a>
</g>
</g>
<!-- Node29&#45;&gt;Node30 -->
<g id="edge43" class="edge">
<title>Node29&#45;&gt;Node30</title>
<path fill="none" stroke="midnightblue" d="M1039.59,-224.08C1042.27,-216.85 1046.13,-206.41 1049.47,-197.4"/>
<polygon fill="midnightblue" stroke="midnightblue" points="1052.85,-198.34 1053.04,-187.75 1046.29,-195.91 1052.85,-198.34"/>
</g>
<!-- Node34&#45;&gt;Node3 -->
<g id="edge52" class="edge">
<title>Node34&#45;&gt;Node3</title>
<path fill="none" stroke="midnightblue" d="M905.7,-345.83C817.93,-335.98 612.48,-312.91 497.97,-300.06"/>
<polygon fill="midnightblue" stroke="midnightblue" points="498.19,-296.56 487.86,-298.92 497.41,-303.52 498.19,-296.56"/>
</g>
<!-- Node34&#45;&gt;Node4 -->
<g id="edge51" class="edge">
<title>Node34&#45;&gt;Node4</title>
<path fill="none" stroke="midnightblue" d="M981.97,-342C1019.64,-331.04 1071.76,-309.8 1050.28,-280 1040.23,-266.05 1001.17,-253.96 967.63,-245.83"/>
<polygon fill="midnightblue" stroke="midnightblue" points="968.43,-242.43 957.89,-243.55 966.83,-249.24 968.43,-242.43"/>
</g>
<!-- Node34&#45;&gt;Node5 -->
<g id="edge56" class="edge">
<title>Node34&#45;&gt;Node5</title>
<path fill="none" stroke="midnightblue" d="M988.79,-347.43C1123.51,-336.68 1536.08,-297.43 1468.28,-224 1434.26,-187.14 1068.06,-194.2 1018.28,-188 1018.18,-187.99 1018.08,-187.97 1017.98,-187.96"/>
<polygon fill="midnightblue" stroke="midnightblue" points="1018.72,-184.53 1008.34,-186.64 1017.77,-191.47 1018.72,-184.53"/>
</g>
<!-- Node34&#45;&gt;Node9 -->
<g id="edge58" class="edge">
<title>Node34&#45;&gt;Node9</title>
<path fill="none" stroke="midnightblue" d="M989.02,-350.63C1079.64,-350.03 1300.64,-343.77 1479.28,-300 1553.84,-281.74 1639.28,-311.76 1639.28,-235 1639.28,-235 1639.28,-235 1639.28,-121 1639.28,-27.18 1493.51,-12.22 1420.69,-10.6"/>
<polygon fill="midnightblue" stroke="midnightblue" points="1420.55,-7.1 1410.5,-10.45 1420.45,-14.1 1420.55,-7.1"/>
</g>
<!-- Node34&#45;&gt;Node10 -->
<g id="edge60" class="edge">
<title>Node34&#45;&gt;Node10</title>
<path fill="none" stroke="midnightblue" d="M938.91,-341.99C922.18,-324.68 884.12,-283.63 859.28,-244 810.49,-166.14 837.55,-121.67 773.28,-56 756.44,-38.78 731.67,-27.24 711.93,-20.17"/>
<polygon fill="midnightblue" stroke="midnightblue" points="713.01,-16.84 702.42,-16.95 710.77,-23.47 713.01,-16.84"/>
</g>
<!-- Node34&#45;&gt;Node13 -->
<g id="edge59" class="edge">
<title>Node34&#45;&gt;Node13</title>
<path fill="none" stroke="midnightblue" d="M989.19,-347.56C1133.54,-336.87 1601.28,-297.41 1601.28,-235 1601.28,-235 1601.28,-235 1601.28,-177 1601.28,-111.61 1532.37,-129.22 1469.28,-112 1359.72,-82.08 1001.3,-70.4 900.74,-67.67"/>
<polygon fill="midnightblue" stroke="midnightblue" points="900.63,-64.16 890.54,-67.4 900.44,-71.16 900.63,-64.16"/>
</g>
<!-- Node34&#45;&gt;Node15 -->
<g id="edge57" class="edge">
<title>Node34&#45;&gt;Node15</title>
<path fill="none" stroke="midnightblue" d="M934.19,-341.86C902.23,-320.88 817.45,-265.86 744.28,-224 685.98,-190.64 615.67,-154.95 578.08,-136.22"/>
<polygon fill="midnightblue" stroke="midnightblue" points="579.33,-132.94 568.82,-131.62 576.22,-139.21 579.33,-132.94"/>
</g>
<!-- Node35 -->
<g id="node35" class="node">
<title>Node35</title>
<g id="a_node35"><a xlink:href="MVOps_8h.html" target="_top" xlink:title=" ">
<polygon fill="none" stroke="black" points="943.28,-280.5 943.28,-299.5 1041.28,-299.5 1041.28,-280.5 943.28,-280.5"/>
<text text-anchor="middle" x="992.28" y="-287.5" font-family="Helvetica,sans-Serif" font-size="10.00">include/MVOps.h</text>
</a>
</g>
</g>
<!-- Node34&#45;&gt;Node35 -->
<g id="edge53" class="edge">
<title>Node34&#45;&gt;Node35</title>
<path fill="none" stroke="midnightblue" d="M953.73,-341.98C960.48,-333.05 971.25,-318.81 979.7,-307.64"/>
<polygon fill="midnightblue" stroke="midnightblue" points="982.61,-309.6 985.85,-299.51 977.03,-305.37 982.61,-309.6"/>
</g>
<!-- Node35&#45;&gt;Node21 -->
<g id="edge55" class="edge">
<title>Node35&#45;&gt;Node21</title>
<path fill="none" stroke="midnightblue" d="M943.8,-280.44C889.75,-270.9 802.36,-255.48 744.61,-245.29"/>
<polygon fill="midnightblue" stroke="midnightblue" points="745,-241.81 734.54,-243.52 743.78,-248.7 745,-241.81"/>
</g>
<!-- Node35&#45;&gt;Node29 -->
<g id="edge54" class="edge">
<title>Node35&#45;&gt;Node29</title>
<path fill="none" stroke="midnightblue" d="M999.55,-280.08C1005.83,-272.38 1015.07,-261.03 1022.72,-251.65"/>
<polygon fill="midnightblue" stroke="midnightblue" points="1025.55,-253.71 1029.15,-243.75 1020.12,-249.29 1025.55,-253.71"/>
</g>
</g>
</svg>
