<?xml version="1.0" encoding="UTF-8" standalone="no"?>
<!DOCTYPE svg PUBLIC "-//W3C//DTD SVG 1.1//EN"
 "http://www.w3.org/Graphics/SVG/1.1/DTD/svg11.dtd">
<!-- Generated by graphviz version 2.43.0 (0)
 -->
<!-- Title: include/CDAG.h Pages: 1 -->
<svg width="618pt" height="285pt"
 viewBox="0.00 0.00 618.24 285.00" xmlns="http://www.w3.org/2000/svg" xmlns:xlink="http://www.w3.org/1999/xlink">
<g id="graph0" class="graph" transform="scale(1 1) rotate(0) translate(4 281)">
<title>include/CDAG.h</title>
<!-- Node1 -->
<g id="node1" class="node">
<title>Node1</title>
<g id="a_node1"><a xlink:title=" ">
<polygon fill="#bfbfbf" stroke="black" points="46.24,-257.5 46.24,-276.5 138.24,-276.5 138.24,-257.5 46.24,-257.5"/>
<text text-anchor="middle" x="92.24" y="-264.5" font-family="Helvetica,sans-Serif" font-size="10.00">include/CDAG.h</text>
</a>
</g>
</g>
<!-- Node2 -->
<g id="node2" class="node">
<title>Node2</title>
<g id="a_node2"><a xlink:href="MVFrontend_8h.html" target="_top" xlink:title=" ">
<polygon fill="none" stroke="black" points="12.24,-62 12.24,-81 134.24,-81 134.24,-62 12.24,-62"/>
<text text-anchor="middle" x="73.24" y="-69" font-family="Helvetica,sans-Serif" font-size="10.00">include/MVFrontend.h</text>
</a>
</g>
</g>
<!-- Node1&#45;&gt;Node2 -->
<g id="edge1" class="edge">
<title>Node1&#45;&gt;Node2</title>
<path fill="none" stroke="midnightblue" d="M74.54,-250.73C53.1,-230.95 18.15,-194.2 4.24,-154 -0.26,-140.98 -1.99,-135.29 4.24,-123 14.32,-103.14 36.27,-89.22 52.73,-81.09"/>
<polygon fill="midnightblue" stroke="midnightblue" points="72.24,-253.37 82.02,-257.45 76.92,-248.16 72.24,-253.37"/>
</g>
<!-- Node4 -->
<g id="node4" class="node">
<title>Node4</title>
<g id="a_node4"><a xlink:href="MVRewriter_8h.html" target="_top" xlink:title=" ">
<polygon fill="none" stroke="black" points="13.24,-129 13.24,-148 133.24,-148 133.24,-129 13.24,-129"/>
<text text-anchor="middle" x="73.24" y="-136" font-family="Helvetica,sans-Serif" font-size="10.00">include/MVRewriter.h</text>
</a>
</g>
</g>
<!-- Node1&#45;&gt;Node4 -->
<g id="edge3" class="edge">
<title>Node1&#45;&gt;Node4</title>
<path fill="none" stroke="midnightblue" d="M80,-248.83C75,-240.79 69.79,-230.82 67.24,-221 60.55,-195.18 66.92,-163.33 70.78,-148.23"/>
<polygon fill="midnightblue" stroke="midnightblue" points="77.16,-250.89 85.61,-257.27 82.99,-247.01 77.16,-250.89"/>
</g>
<!-- Node5 -->
<g id="node5" class="node">
<title>Node5</title>
<g id="a_node5"><a xlink:href="PlcmntAlgo_8h.html" target="_top" xlink:title=" ">
<polygon fill="none" stroke="black" points="76.74,-196 76.74,-215 195.74,-215 195.74,-196 76.74,-196"/>
<text text-anchor="middle" x="136.24" y="-203" font-family="Helvetica,sans-Serif" font-size="10.00">include/PlcmntAlgo.h</text>
</a>
</g>
</g>
<!-- Node1&#45;&gt;Node5 -->
<g id="edge5" class="edge">
<title>Node1&#45;&gt;Node5</title>
<path fill="none" stroke="midnightblue" d="M104.56,-249.34C112.82,-238.17 123.35,-223.93 129.95,-215.01"/>
<polygon fill="midnightblue" stroke="midnightblue" points="101.68,-247.35 98.55,-257.48 107.31,-251.52 101.68,-247.35"/>
</g>
<!-- Node6 -->
<g id="node6" class="node">
<title>Node6</title>
<g id="a_node6"><a xlink:href="SIMDBackEnd_8h.html" target="_top" xlink:title=" ">
<polygon fill="none" stroke="black" points="213.74,-190.5 213.74,-220.5 338.74,-220.5 338.74,-190.5 213.74,-190.5"/>
<text text-anchor="start" x="221.74" y="-208.5" font-family="Helvetica,sans-Serif" font-size="10.00">include/Vectorization</text>
<text text-anchor="middle" x="276.24" y="-197.5" font-family="Helvetica,sans-Serif" font-size="10.00">/SIMD/SIMDBackEnd.h</text>
</a>
</g>
</g>
<!-- Node1&#45;&gt;Node6 -->
<g id="edge6" class="edge">
<title>Node1&#45;&gt;Node6</title>
<path fill="none" stroke="midnightblue" d="M128.25,-254.36C158.23,-244.66 201.02,-230.83 232.88,-220.52"/>
<polygon fill="midnightblue" stroke="midnightblue" points="127.04,-251.07 118.61,-257.48 129.2,-257.73 127.04,-251.07"/>
</g>
<!-- Node3 -->
<g id="node3" class="node">
<title>Node3</title>
<g id="a_node3"><a xlink:href="macveth_8cpp.html" target="_top" xlink:title=" ">
<polygon fill="none" stroke="black" points="25.74,-0.5 25.74,-19.5 120.74,-19.5 120.74,-0.5 25.74,-0.5"/>
<text text-anchor="middle" x="73.24" y="-7.5" font-family="Helvetica,sans-Serif" font-size="10.00">lib/macveth.cpp</text>
</a>
</g>
</g>
<!-- Node2&#45;&gt;Node3 -->
<g id="edge2" class="edge">
<title>Node2&#45;&gt;Node3</title>
<path fill="none" stroke="midnightblue" d="M73.24,-51.82C73.24,-41 73.24,-27.9 73.24,-19.51"/>
<polygon fill="midnightblue" stroke="midnightblue" points="69.74,-51.98 73.24,-61.98 76.74,-51.98 69.74,-51.98"/>
</g>
<!-- Node4&#45;&gt;Node2 -->
<g id="edge4" class="edge">
<title>Node4&#45;&gt;Node2</title>
<path fill="none" stroke="midnightblue" d="M73.24,-118.54C73.24,-106.17 73.24,-90.62 73.24,-81.13"/>
<polygon fill="midnightblue" stroke="midnightblue" points="69.74,-118.73 73.24,-128.73 76.74,-118.73 69.74,-118.73"/>
</g>
<!-- Node6&#45;&gt;Node2 -->
<g id="edge10" class="edge">
<title>Node6&#45;&gt;Node2</title>
<path fill="none" stroke="midnightblue" d="M246.06,-184.88C201.14,-155.66 118.54,-101.95 86.46,-81.1"/>
<polygon fill="midnightblue" stroke="midnightblue" points="244.23,-187.86 254.52,-190.37 248.04,-181.99 244.23,-187.86"/>
</g>
<!-- Node6&#45;&gt;Node4 -->
<g id="edge11" class="edge">
<title>Node6&#45;&gt;Node4</title>
<path fill="none" stroke="midnightblue" d="M222.43,-187.27C182.87,-174.6 130.81,-157.93 99.81,-148.01"/>
<polygon fill="midnightblue" stroke="midnightblue" points="221.6,-190.68 232.19,-190.4 223.74,-184.01 221.6,-190.68"/>
</g>
<!-- Node7 -->
<g id="node7" class="node">
<title>Node7</title>
<g id="a_node7"><a xlink:href="MVCostModel_8h.html" target="_top" xlink:title=" ">
<polygon fill="none" stroke="black" points="192.74,-56.5 192.74,-86.5 339.74,-86.5 339.74,-56.5 192.74,-56.5"/>
<text text-anchor="start" x="200.74" y="-74.5" font-family="Helvetica,sans-Serif" font-size="10.00">include/CostModel/MVCost</text>
<text text-anchor="middle" x="266.24" y="-63.5" font-family="Helvetica,sans-Serif" font-size="10.00">Model.h</text>
</a>
</g>
</g>
<!-- Node6&#45;&gt;Node7 -->
<g id="edge7" class="edge">
<title>Node6&#45;&gt;Node7</title>
<path fill="none" stroke="midnightblue" d="M243.62,-184.3C233.56,-176.23 223.7,-165.99 218.24,-154 212.53,-141.46 213.13,-135.79 218.24,-123 224.08,-108.4 236.36,-95.6 247.04,-86.55"/>
<polygon fill="midnightblue" stroke="midnightblue" points="241.55,-187.12 251.66,-190.29 245.73,-181.51 241.55,-187.12"/>
</g>
<!-- Node8 -->
<g id="node8" class="node">
<title>Node8</title>
<g id="a_node8"><a xlink:href="SIMDCostInfo_8h.html" target="_top" xlink:title=" ">
<polygon fill="none" stroke="black" points="227.74,-123.5 227.74,-153.5 384.74,-153.5 384.74,-123.5 227.74,-123.5"/>
<text text-anchor="start" x="235.74" y="-141.5" font-family="Helvetica,sans-Serif" font-size="10.00">include/CostModel/SIMDCost</text>
<text text-anchor="middle" x="306.24" y="-130.5" font-family="Helvetica,sans-Serif" font-size="10.00">Info.h</text>
</a>
</g>
</g>
<!-- Node6&#45;&gt;Node8 -->
<g id="edge8" class="edge">
<title>Node6&#45;&gt;Node8</title>
<path fill="none" stroke="midnightblue" d="M286.96,-181.28C291.23,-172.02 296.01,-161.66 299.75,-153.58"/>
<polygon fill="midnightblue" stroke="midnightblue" points="283.76,-179.85 282.75,-190.4 290.12,-182.78 283.76,-179.85"/>
</g>
<!-- Node9 -->
<g id="node9" class="node">
<title>Node9</title>
<g id="a_node9"><a xlink:href="AVX2BackEnd_8h.html" target="_top" xlink:title=" ">
<polygon fill="none" stroke="black" points="402.74,-123.5 402.74,-153.5 555.74,-153.5 555.74,-123.5 402.74,-123.5"/>
<text text-anchor="start" x="410.74" y="-141.5" font-family="Helvetica,sans-Serif" font-size="10.00">include/Vectorization</text>
<text text-anchor="middle" x="479.24" y="-130.5" font-family="Helvetica,sans-Serif" font-size="10.00">/SIMD/AVX2/AVX2BackEnd.h</text>
</a>
</g>
</g>
<!-- Node6&#45;&gt;Node9 -->
<g id="edge12" class="edge">
<title>Node6&#45;&gt;Node9</title>
<path fill="none" stroke="midnightblue" d="M330.19,-187.23C363.02,-176.71 404.44,-163.45 435.28,-153.58"/>
<polygon fill="midnightblue" stroke="midnightblue" points="328.75,-184.01 320.29,-190.4 330.88,-190.68 328.75,-184.01"/>
</g>
<!-- Node10 -->
<g id="node10" class="node">
<title>Node10</title>
<g id="a_node10"><a xlink:href="SIMDBackEndFactory_8h.html" target="_top" xlink:title=" ">
<polygon fill="none" stroke="black" points="452.24,-56.5 452.24,-86.5 610.24,-86.5 610.24,-56.5 452.24,-56.5"/>
<text text-anchor="start" x="460.24" y="-74.5" font-family="Helvetica,sans-Serif" font-size="10.00">include/Vectorization</text>
<text text-anchor="middle" x="531.24" y="-63.5" font-family="Helvetica,sans-Serif" font-size="10.00">/SIMD/SIMDBackEndFactory.h</text>
</a>
</g>
</g>
<!-- Node6&#45;&gt;Node10 -->
<g id="edge14" class="edge">
<title>Node6&#45;&gt;Node10</title>
<path fill="none" stroke="midnightblue" d="M349.13,-202.11C425.52,-197.89 538.15,-186.23 565.24,-154 582.21,-133.81 561.03,-103.96 545.3,-86.55"/>
<polygon fill="midnightblue" stroke="midnightblue" points="348.88,-198.62 339.07,-202.64 349.24,-205.61 348.88,-198.62"/>
</g>
<!-- Node8&#45;&gt;Node7 -->
<g id="edge9" class="edge">
<title>Node8&#45;&gt;Node7</title>
<path fill="none" stroke="midnightblue" d="M292.31,-114.87C286.53,-105.46 279.99,-94.83 274.91,-86.58"/>
<polygon fill="midnightblue" stroke="midnightblue" points="289.34,-116.71 297.56,-123.4 295.3,-113.05 289.34,-116.71"/>
</g>
<!-- Node9&#45;&gt;Node10 -->
<g id="edge13" class="edge">
<title>Node9&#45;&gt;Node10</title>
<path fill="none" stroke="midnightblue" d="M496.88,-115.45C504.52,-105.9 513.24,-95 519.98,-86.58"/>
<polygon fill="midnightblue" stroke="midnightblue" points="494.04,-113.4 490.53,-123.4 499.51,-117.77 494.04,-113.4"/>
</g>
</g>
</svg>
