<?xml version="1.0" encoding="UTF-8" standalone="no"?>
<!DOCTYPE svg PUBLIC "-//W3C//DTD SVG 1.1//EN"
 "http://www.w3.org/Graphics/SVG/1.1/DTD/svg11.dtd">
<!-- Generated by graphviz version 2.43.0 (0)
 -->
<!-- Title: macveth::SIMDBackEnd Pages: 1 -->
<svg width="562pt" height="117pt"
 viewBox="0.00 0.00 562.00 117.00" xmlns="http://www.w3.org/2000/svg" xmlns:xlink="http://www.w3.org/1999/xlink">
<g id="graph0" class="graph" transform="scale(1 1) rotate(0) translate(4 113)">
<title>macveth::SIMDBackEnd</title>
<!-- Node1 -->
<g id="node1" class="node">
<title>Node1</title>
<g id="a_node1"><a xlink:title="Abstract class implemented by each architecture (AVX, AVX2, AVX512, etc.) to generate specific intrin...">
<polygon fill="#bfbfbf" stroke="black" points="242.5,-0.5 242.5,-19.5 375.5,-19.5 375.5,-0.5 242.5,-0.5"/>
<text text-anchor="middle" x="309" y="-7.5" font-family="Helvetica,sans-Serif" font-size="10.00">macveth::SIMDBackEnd</text>
</a>
</g>
</g>
<!-- Node2 -->
<g id="node2" class="node">
<title>Node2</title>
<g id="a_node2"><a xlink:title=" ">
<polygon fill="none" stroke="#bfbfbf" points="0,-89.5 0,-108.5 128,-108.5 128,-89.5 0,-89.5"/>
<text text-anchor="middle" x="64" y="-96.5" font-family="Helvetica,sans-Serif" font-size="10.00">map&lt; std::string, int &gt;</text>
</a>
</g>
</g>
<!-- Node2&#45;&gt;Node1 -->
<g id="edge1" class="edge">
<title>Node2&#45;&gt;Node1</title>
<path fill="none" stroke="#9a32cd" stroke-dasharray="5,2" d="M84.81,-83.84C105.89,-70.13 139.89,-49.75 172,-38 194.88,-29.63 220.91,-23.67 244.09,-19.52"/>
<polygon fill="#9a32cd" stroke="#9a32cd" points="82.76,-81 76.35,-89.44 86.62,-86.84 82.76,-81"/>
<text text-anchor="middle" x="200.5" y="-63" font-family="Helvetica,sans-Serif" font-size="10.00"> AccmDirty</text>
<text text-anchor="middle" x="200.5" y="-52" font-family="Helvetica,sans-Serif" font-size="10.00">AccmToReg</text>
<text text-anchor="middle" x="200.5" y="-41" font-family="Helvetica,sans-Serif" font-size="10.00">AuxReg</text>
</g>
<!-- Node3 -->
<g id="node3" class="node">
<title>Node3</title>
<g id="a_node3"><a xlink:title=" ">
<polygon fill="none" stroke="#bfbfbf" points="146,-89.5 146,-108.5 276,-108.5 276,-89.5 146,-89.5"/>
<text text-anchor="middle" x="211" y="-96.5" font-family="Helvetica,sans-Serif" font-size="10.00">static SIMDInstListType</text>
</a>
</g>
</g>
<!-- Node3&#45;&gt;Node1 -->
<g id="edge2" class="edge">
<title>Node3&#45;&gt;Node1</title>
<path fill="none" stroke="#9a32cd" stroke-dasharray="5,2" d="M224.59,-81.31C235.36,-68.64 251.18,-51.21 267,-38 275.25,-31.11 285.36,-24.56 293.6,-19.64"/>
<polygon fill="#9a32cd" stroke="#9a32cd" points="221.72,-79.29 218.01,-89.21 227.1,-83.77 221.72,-79.29"/>
<text text-anchor="middle" x="286" y="-52" font-family="Helvetica,sans-Serif" font-size="10.00"> InitReg</text>
</g>
<!-- Node4 -->
<g id="node4" class="node">
<title>Node4</title>
<g id="a_node4"><a xlink:title=" ">
<polygon fill="none" stroke="#bfbfbf" points="294.5,-89.5 294.5,-108.5 323.5,-108.5 323.5,-89.5 294.5,-89.5"/>
<text text-anchor="middle" x="309" y="-96.5" font-family="Helvetica,sans-Serif" font-size="10.00">int</text>
</a>
</g>
</g>
<!-- Node4&#45;&gt;Node1 -->
<g id="edge3" class="edge">
<title>Node4&#45;&gt;Node1</title>
<path fill="none" stroke="#9a32cd" stroke-dasharray="5,2" d="M309,-79.19C309,-60.74 309,-33.41 309,-19.62"/>
<polygon fill="#9a32cd" stroke="#9a32cd" points="305.5,-79.34 309,-89.34 312.5,-79.34 305.5,-79.34"/>
<text text-anchor="middle" x="342.5" y="-63" font-family="Helvetica,sans-Serif" font-size="10.00"> AuxArrayReg</text>
<text text-anchor="middle" x="342.5" y="-52" font-family="Helvetica,sans-Serif" font-size="10.00">AccmReg</text>
<text text-anchor="middle" x="342.5" y="-41" font-family="Helvetica,sans-Serif" font-size="10.00">AuxRegId</text>
</g>
<!-- Node5 -->
<g id="node5" class="node">
<title>Node5</title>
<g id="a_node5"><a xlink:title=" ">
<polygon fill="none" stroke="#bfbfbf" points="341.5,-89.5 341.5,-108.5 460.5,-108.5 460.5,-89.5 341.5,-89.5"/>
<text text-anchor="middle" x="401" y="-96.5" font-family="Helvetica,sans-Serif" font-size="10.00">static RegistersMapT</text>
</a>
</g>
</g>
<!-- Node5&#45;&gt;Node1 -->
<g id="edge4" class="edge">
<title>Node5&#45;&gt;Node1</title>
<path fill="none" stroke="#9a32cd" stroke-dasharray="5,2" d="M398.3,-79.24C395.51,-66.17 389.95,-49.14 379,-38 370.6,-29.46 359.19,-23.57 348.03,-19.53"/>
<polygon fill="#9a32cd" stroke="#9a32cd" points="394.92,-80.23 400.1,-89.47 401.81,-79.01 394.92,-80.23"/>
<text text-anchor="middle" x="428" y="-52" font-family="Helvetica,sans-Serif" font-size="10.00"> RegDeclared</text>
</g>
<!-- Node6 -->
<g id="node6" class="node">
<title>Node6</title>
<g id="a_node6"><a xlink:title=" ">
<polygon fill="none" stroke="#bfbfbf" points="479,-89.5 479,-108.5 523,-108.5 523,-89.5 479,-89.5"/>
<text text-anchor="middle" x="501" y="-96.5" font-family="Helvetica,sans-Serif" font-size="10.00">string</text>
</a>
</g>
</g>
<!-- Node6&#45;&gt;Node1 -->
<g id="edge5" class="edge">
<title>Node6&#45;&gt;Node1</title>
<path fill="none" stroke="#9a32cd" stroke-dasharray="5,2" d="M494.95,-80.02C489.36,-66.29 479.69,-48.07 465,-38 450.43,-28.02 411.19,-21.25 375.7,-16.99"/>
<polygon fill="#9a32cd" stroke="#9a32cd" points="491.68,-81.27 498.43,-89.43 498.24,-78.84 491.68,-81.27"/>
<text text-anchor="middle" x="522" y="-63" font-family="Helvetica,sans-Serif" font-size="10.00"> ARR_PREFIX</text>
<text text-anchor="middle" x="522" y="-52" font-family="Helvetica,sans-Serif" font-size="10.00">VEC_PREFIX</text>
<text text-anchor="middle" x="522" y="-41" font-family="Helvetica,sans-Serif" font-size="10.00">AUX_PREFIX</text>
</g>
</g>
</svg>
