<?xml version="1.0" encoding="UTF-8" standalone="no"?>
<!DOCTYPE svg PUBLIC "-//W3C//DTD SVG 1.1//EN"
 "http://www.w3.org/Graphics/SVG/1.1/DTD/svg11.dtd">
<!-- Generated by graphviz version 2.43.0 (0)
 -->
<!-- Title: macveth::CostTable Pages: 1 -->
<svg width="251pt" height="117pt"
 viewBox="0.00 0.00 251.00 117.00" xmlns="http://www.w3.org/2000/svg" xmlns:xlink="http://www.w3.org/1999/xlink">
<g id="graph0" class="graph" transform="scale(1 1) rotate(0) translate(4 113)">
<title>macveth::CostTable</title>
<!-- Node1 -->
<g id="node1" class="node">
<title>Node1</title>
<g id="a_node1"><a xlink:title="Auxiliary class which holds the operations equivalences for the different architectures.">
<polygon fill="#bfbfbf" stroke="black" points="48.5,-0.5 48.5,-19.5 161.5,-19.5 161.5,-0.5 48.5,-0.5"/>
<text text-anchor="middle" x="105" y="-7.5" font-family="Helvetica,sans-Serif" font-size="10.00">macveth::CostTable</text>
</a>
</g>
</g>
<!-- Node2 -->
<g id="node2" class="node">
<title>Node2</title>
<g id="a_node2"><a xlink:title=" ">
<polygon fill="none" stroke="#bfbfbf" points="0,-89.5 0,-108.5 72,-108.5 72,-89.5 0,-89.5"/>
<text text-anchor="middle" x="36" y="-96.5" font-family="Helvetica,sans-Serif" font-size="10.00">static Table</text>
</a>
</g>
</g>
<!-- Node2&#45;&gt;Node1 -->
<g id="edge1" class="edge">
<title>Node2&#45;&gt;Node1</title>
<path fill="none" stroke="#9a32cd" stroke-dasharray="5,2" d="M41.87,-79.92C46.65,-67.19 54.35,-50.3 65,-38 71.47,-30.53 80.48,-24.21 88.3,-19.56"/>
<polygon fill="#9a32cd" stroke="#9a32cd" points="38.54,-78.84 38.55,-89.44 45.15,-81.15 38.54,-78.84"/>
<text text-anchor="middle" x="83" y="-63" font-family="Helvetica,sans-Serif" font-size="10.00"> Tintrin</text>
<text text-anchor="middle" x="83" y="-52" font-family="Helvetica,sans-Serif" font-size="10.00">TXED</text>
<text text-anchor="middle" x="83" y="-41" font-family="Helvetica,sans-Serif" font-size="10.00">TMVOP</text>
</g>
<!-- Node3 -->
<g id="node3" class="node">
<title>Node3</title>
<g id="a_node3"><a xlink:title=" ">
<polygon fill="none" stroke="#bfbfbf" points="90.5,-89.5 90.5,-108.5 119.5,-108.5 119.5,-89.5 90.5,-89.5"/>
<text text-anchor="middle" x="105" y="-96.5" font-family="Helvetica,sans-Serif" font-size="10.00">int</text>
</a>
</g>
</g>
<!-- Node3&#45;&gt;Node1 -->
<g id="edge2" class="edge">
<title>Node3&#45;&gt;Node1</title>
<path fill="none" stroke="#9a32cd" stroke-dasharray="5,2" d="M105,-79.19C105,-60.74 105,-33.41 105,-19.62"/>
<polygon fill="#9a32cd" stroke="#9a32cd" points="101.5,-79.34 105,-89.34 108.5,-79.34 101.5,-79.34"/>
<text text-anchor="middle" x="140.5" y="-52" font-family="Helvetica,sans-Serif" font-size="10.00"> UnknownCost</text>
</g>
<!-- Node4 -->
<g id="node4" class="node">
<title>Node4</title>
<g id="a_node4"><a xlink:title=" ">
<polygon fill="none" stroke="#bfbfbf" points="177,-89.5 177,-108.5 221,-108.5 221,-89.5 177,-89.5"/>
<text text-anchor="middle" x="199" y="-96.5" font-family="Helvetica,sans-Serif" font-size="10.00">string</text>
</a>
</g>
</g>
<!-- Node4&#45;&gt;Node1 -->
<g id="edge3" class="edge">
<title>Node4&#45;&gt;Node1</title>
<path fill="none" stroke="#9a32cd" stroke-dasharray="5,2" d="M196.33,-79.21C193.56,-66.12 188,-49.08 177,-38 168.54,-29.47 157.12,-23.6 145.88,-19.58"/>
<polygon fill="#9a32cd" stroke="#9a32cd" points="192.95,-80.2 198.11,-89.45 199.84,-79 192.95,-80.2"/>
<text text-anchor="middle" x="218.5" y="-57.5" font-family="Helvetica,sans-Serif" font-size="10.00"> SeqValue</text>
<text text-anchor="middle" x="218.5" y="-46.5" font-family="Helvetica,sans-Serif" font-size="10.00">NullValue</text>
</g>
</g>
</svg>
