<?xml version="1.0" encoding="UTF-8" standalone="no"?>
<!DOCTYPE svg PUBLIC "-//W3C//DTD SVG 1.1//EN"
 "http://www.w3.org/Graphics/SVG/1.1/DTD/svg11.dtd">
<!-- Generated by graphviz version 2.43.0 (0)
 -->
<!-- Title: macveth::MVExprVar Pages: 1 -->
<svg width="250pt" height="106pt"
 viewBox="0.00 0.00 249.50 106.00" xmlns="http://www.w3.org/2000/svg" xmlns:xlink="http://www.w3.org/1999/xlink">
<g id="graph0" class="graph" transform="scale(1 1) rotate(0) translate(4 102)">
<title>macveth::MVExprVar</title>
<!-- Node1 -->
<g id="node1" class="node">
<title>Node1</title>
<g id="a_node1"><a xlink:title="Abstraction of variables for simplicity.">
<polygon fill="#bfbfbf" stroke="black" points="57,-0.5 57,-19.5 176,-19.5 176,-0.5 57,-0.5"/>
<text text-anchor="middle" x="116.5" y="-7.5" font-family="Helvetica,sans-Serif" font-size="10.00">macveth::MVExprVar</text>
</a>
</g>
</g>
<!-- Node2 -->
<g id="node2" class="node">
<title>Node2</title>
<g id="a_node2"><a xlink:href="classmacveth_1_1MVExpr.html" target="_top" xlink:title="Expressions in MACVETH inherit from MVExpr.">
<polygon fill="none" stroke="black" points="0,-73 0,-92 103,-92 103,-73 0,-73"/>
<text text-anchor="middle" x="51.5" y="-80" font-family="Helvetica,sans-Serif" font-size="10.00">macveth::MVExpr</text>
</a>
</g>
</g>
<!-- Node2&#45;&gt;Node1 -->
<g id="edge1" class="edge">
<title>Node2&#45;&gt;Node1</title>
<path fill="none" stroke="midnightblue" d="M66.44,-65.3C79.51,-51.12 98,-31.06 108.46,-19.72"/>
<polygon fill="midnightblue" stroke="midnightblue" points="63.68,-63.13 59.47,-72.86 68.82,-67.88 63.68,-63.13"/>
</g>
<!-- Node3 -->
<g id="node3" class="node">
<title>Node3</title>
<g id="a_node3"><a xlink:title=" ">
<polygon fill="none" stroke="#bfbfbf" points="121.5,-67.5 121.5,-97.5 241.5,-97.5 241.5,-67.5 121.5,-67.5"/>
<text text-anchor="start" x="129.5" y="-85.5" font-family="Helvetica,sans-Serif" font-size="10.00">map&lt; std::string, std</text>
<text text-anchor="middle" x="181.5" y="-74.5" font-family="Helvetica,sans-Serif" font-size="10.00">::list&lt; std::string &gt; &gt;</text>
</a>
</g>
</g>
<!-- Node3&#45;&gt;Node1 -->
<g id="edge2" class="edge">
<title>Node3&#45;&gt;Node1</title>
<path fill="none" stroke="#9a32cd" stroke-dasharray="5,2" d="M161.46,-59.76C149.09,-46.34 133.88,-29.85 124.7,-19.89"/>
<polygon fill="#9a32cd" stroke="#9a32cd" points="158.99,-62.25 168.35,-67.23 164.14,-57.51 158.99,-62.25"/>
<text text-anchor="middle" x="192.5" y="-41" font-family="Helvetica,sans-Serif" font-size="10.00"> RegDimUnrolled</text>
</g>
</g>
</svg>
