<?xml version="1.0" encoding="UTF-8" standalone="no"?>
<!DOCTYPE svg PUBLIC "-//W3C//DTD SVG 1.1//EN"
 "http://www.w3.org/Graphics/SVG/1.1/DTD/svg11.dtd">
<!-- Generated by graphviz version 2.43.0 (0)
 -->
<!-- Title: include/CostModel/CostTable.h Pages: 1 -->
<svg width="567pt" height="285pt"
 viewBox="0.00 0.00 566.70 285.00" xmlns="http://www.w3.org/2000/svg" xmlns:xlink="http://www.w3.org/1999/xlink">
<g id="graph0" class="graph" transform="scale(1 1) rotate(0) translate(4 281)">
<title>include/CostModel/CostTable.h</title>
<!-- Node1 -->
<g id="node1" class="node">
<title>Node1</title>
<g id="a_node1"><a xlink:title=" ">
<polygon fill="#bfbfbf" stroke="black" points="67.5,-257.5 67.5,-276.5 233.5,-276.5 233.5,-257.5 67.5,-257.5"/>
<text text-anchor="middle" x="150.5" y="-264.5" font-family="Helvetica,sans-Serif" font-size="10.00">include/CostModel/CostTable.h</text>
</a>
</g>
</g>
<!-- Node2 -->
<g id="node2" class="node">
<title>Node2</title>
<g id="a_node2"><a xlink:href="SIMDCostInfo_8h.html" target="_top" xlink:title=" ">
<polygon fill="none" stroke="black" points="0,-123.5 0,-153.5 157,-153.5 157,-123.5 0,-123.5"/>
<text text-anchor="start" x="8" y="-141.5" font-family="Helvetica,sans-Serif" font-size="10.00">include/CostModel/SIMDCost</text>
<text text-anchor="middle" x="78.5" y="-130.5" font-family="Helvetica,sans-Serif" font-size="10.00">Info.h</text>
</a>
</g>
</g>
<!-- Node1&#45;&gt;Node2 -->
<g id="edge1" class="edge">
<title>Node1&#45;&gt;Node2</title>
<path fill="none" stroke="midnightblue" d="M140.52,-248.47C126.17,-223.25 99.97,-177.22 86.69,-153.89"/>
<polygon fill="midnightblue" stroke="midnightblue" points="137.56,-250.35 145.55,-257.31 143.65,-246.88 137.56,-250.35"/>
</g>
<!-- Node4 -->
<g id="node4" class="node">
<title>Node4</title>
<g id="a_node4"><a xlink:href="SIMDBackEnd_8h.html" target="_top" xlink:title=" ">
<polygon fill="none" stroke="black" points="161,-190.5 161,-220.5 286,-220.5 286,-190.5 161,-190.5"/>
<text text-anchor="start" x="169" y="-208.5" font-family="Helvetica,sans-Serif" font-size="10.00">include/Vectorization</text>
<text text-anchor="middle" x="223.5" y="-197.5" font-family="Helvetica,sans-Serif" font-size="10.00">/SIMD/SIMDBackEnd.h</text>
</a>
</g>
</g>
<!-- Node1&#45;&gt;Node4 -->
<g id="edge3" class="edge">
<title>Node1&#45;&gt;Node4</title>
<path fill="none" stroke="midnightblue" d="M169,-250.92C180.46,-241.58 195.08,-229.66 206.3,-220.52"/>
<polygon fill="midnightblue" stroke="midnightblue" points="166.5,-248.44 160.96,-257.48 170.92,-253.87 166.5,-248.44"/>
</g>
<!-- Node3 -->
<g id="node3" class="node">
<title>Node3</title>
<g id="a_node3"><a xlink:href="MVCostModel_8h.html" target="_top" xlink:title=" ">
<polygon fill="none" stroke="black" points="36,-56.5 36,-86.5 183,-86.5 183,-56.5 36,-56.5"/>
<text text-anchor="start" x="44" y="-74.5" font-family="Helvetica,sans-Serif" font-size="10.00">include/CostModel/MVCost</text>
<text text-anchor="middle" x="109.5" y="-63.5" font-family="Helvetica,sans-Serif" font-size="10.00">Model.h</text>
</a>
</g>
</g>
<!-- Node2&#45;&gt;Node3 -->
<g id="edge2" class="edge">
<title>Node2&#45;&gt;Node3</title>
<path fill="none" stroke="midnightblue" d="M89.57,-114.28C93.99,-105.02 98.93,-94.66 102.79,-86.58"/>
<polygon fill="midnightblue" stroke="midnightblue" points="86.37,-112.86 85.23,-123.4 92.69,-115.88 86.37,-112.86"/>
</g>
<!-- Node4&#45;&gt;Node2 -->
<g id="edge5" class="edge">
<title>Node4&#45;&gt;Node2</title>
<path fill="none" stroke="midnightblue" d="M182.83,-186.27C159.74,-175.92 131.26,-163.15 109.9,-153.58"/>
<polygon fill="midnightblue" stroke="midnightblue" points="181.48,-189.5 192.04,-190.4 184.34,-183.11 181.48,-189.5"/>
</g>
<!-- Node4&#45;&gt;Node3 -->
<g id="edge4" class="edge">
<title>Node4&#45;&gt;Node3</title>
<path fill="none" stroke="midnightblue" d="M209.14,-181.57C198.09,-164.67 181.97,-141.49 165.5,-123 153.66,-109.71 138.59,-96.28 127.07,-86.62"/>
<polygon fill="midnightblue" stroke="midnightblue" points="206.37,-183.74 214.72,-190.25 212.25,-179.95 206.37,-183.74"/>
</g>
<!-- Node5 -->
<g id="node5" class="node">
<title>Node5</title>
<g id="a_node5"><a xlink:href="MVFrontend_8h.html" target="_top" xlink:title=" ">
<polygon fill="none" stroke="black" points="239.5,-62 239.5,-81 361.5,-81 361.5,-62 239.5,-62"/>
<text text-anchor="middle" x="300.5" y="-69" font-family="Helvetica,sans-Serif" font-size="10.00">include/MVFrontend.h</text>
</a>
</g>
</g>
<!-- Node4&#45;&gt;Node5 -->
<g id="edge6" class="edge">
<title>Node4&#45;&gt;Node5</title>
<path fill="none" stroke="midnightblue" d="M225.23,-180C227.35,-162.99 232.05,-140.36 242.5,-123 253.38,-104.93 272.92,-89.92 286.29,-81.09"/>
<polygon fill="midnightblue" stroke="midnightblue" points="221.72,-179.95 224.18,-190.25 228.68,-180.66 221.72,-179.95"/>
</g>
<!-- Node7 -->
<g id="node7" class="node">
<title>Node7</title>
<g id="a_node7"><a xlink:href="MVRewriter_8h.html" target="_top" xlink:title=" ">
<polygon fill="none" stroke="black" points="251.5,-129 251.5,-148 371.5,-148 371.5,-129 251.5,-129"/>
<text text-anchor="middle" x="311.5" y="-136" font-family="Helvetica,sans-Serif" font-size="10.00">include/MVRewriter.h</text>
</a>
</g>
</g>
<!-- Node4&#45;&gt;Node7 -->
<g id="edge8" class="edge">
<title>Node4&#45;&gt;Node7</title>
<path fill="none" stroke="midnightblue" d="M250.84,-184.31C267.36,-172.1 287.57,-157.18 299.98,-148.01"/>
<polygon fill="midnightblue" stroke="midnightblue" points="248.56,-181.64 242.59,-190.4 252.72,-187.27 248.56,-181.64"/>
</g>
<!-- Node8 -->
<g id="node8" class="node">
<title>Node8</title>
<g id="a_node8"><a xlink:href="AVX2BackEnd_8h.html" target="_top" xlink:title=" ">
<polygon fill="none" stroke="black" points="390,-123.5 390,-153.5 543,-153.5 543,-123.5 390,-123.5"/>
<text text-anchor="start" x="398" y="-141.5" font-family="Helvetica,sans-Serif" font-size="10.00">include/Vectorization</text>
<text text-anchor="middle" x="466.5" y="-130.5" font-family="Helvetica,sans-Serif" font-size="10.00">/SIMD/AVX2/AVX2BackEnd.h</text>
</a>
</g>
</g>
<!-- Node4&#45;&gt;Node8 -->
<g id="edge10" class="edge">
<title>Node4&#45;&gt;Node8</title>
<path fill="none" stroke="midnightblue" d="M285.75,-187.85C325.36,-177.25 376.11,-163.68 413.75,-153.61"/>
<polygon fill="midnightblue" stroke="midnightblue" points="284.68,-184.51 275.93,-190.48 286.49,-191.27 284.68,-184.51"/>
</g>
<!-- Node9 -->
<g id="node9" class="node">
<title>Node9</title>
<g id="a_node9"><a xlink:href="SIMDBackEndFactory_8h.html" target="_top" xlink:title=" ">
<polygon fill="none" stroke="black" points="398.5,-56.5 398.5,-86.5 556.5,-86.5 556.5,-56.5 398.5,-56.5"/>
<text text-anchor="start" x="406.5" y="-74.5" font-family="Helvetica,sans-Serif" font-size="10.00">include/Vectorization</text>
<text text-anchor="middle" x="477.5" y="-63.5" font-family="Helvetica,sans-Serif" font-size="10.00">/SIMD/SIMDBackEndFactory.h</text>
</a>
</g>
</g>
<!-- Node4&#45;&gt;Node9 -->
<g id="edge12" class="edge">
<title>Node4&#45;&gt;Node9</title>
<path fill="none" stroke="midnightblue" d="M296.15,-203.94C382.84,-201.54 520.15,-191.7 552.5,-154 573.35,-129.7 535.35,-102.54 506.24,-86.51"/>
<polygon fill="midnightblue" stroke="midnightblue" points="296.01,-200.44 286.11,-204.19 296.19,-207.44 296.01,-200.44"/>
</g>
<!-- Node6 -->
<g id="node6" class="node">
<title>Node6</title>
<g id="a_node6"><a xlink:href="macveth_8cpp.html" target="_top" xlink:title=" ">
<polygon fill="none" stroke="black" points="253,-0.5 253,-19.5 348,-19.5 348,-0.5 253,-0.5"/>
<text text-anchor="middle" x="300.5" y="-7.5" font-family="Helvetica,sans-Serif" font-size="10.00">lib/macveth.cpp</text>
</a>
</g>
</g>
<!-- Node5&#45;&gt;Node6 -->
<g id="edge7" class="edge">
<title>Node5&#45;&gt;Node6</title>
<path fill="none" stroke="midnightblue" d="M300.5,-51.82C300.5,-41 300.5,-27.9 300.5,-19.51"/>
<polygon fill="midnightblue" stroke="midnightblue" points="297,-51.98 300.5,-61.98 304,-51.98 297,-51.98"/>
</g>
<!-- Node7&#45;&gt;Node5 -->
<g id="edge9" class="edge">
<title>Node7&#45;&gt;Node5</title>
<path fill="none" stroke="midnightblue" d="M308.29,-118.54C306.2,-106.17 303.57,-90.62 301.96,-81.13"/>
<polygon fill="midnightblue" stroke="midnightblue" points="304.9,-119.46 310.02,-128.73 311.8,-118.29 304.9,-119.46"/>
</g>
<!-- Node8&#45;&gt;Node9 -->
<g id="edge11" class="edge">
<title>Node8&#45;&gt;Node9</title>
<path fill="none" stroke="midnightblue" d="M470.58,-113.4C472.11,-104.37 473.79,-94.41 475.12,-86.58"/>
<polygon fill="midnightblue" stroke="midnightblue" points="467.1,-112.95 468.89,-123.4 474.01,-114.12 467.1,-112.95"/>
</g>
</g>
</svg>
