<?xml version="1.0" encoding="UTF-8" standalone="no"?>
<!DOCTYPE svg PUBLIC "-//W3C//DTD SVG 1.1//EN"
 "http://www.w3.org/Graphics/SVG/1.1/DTD/svg11.dtd">
<!-- Generated by graphviz version 2.43.0 (0)
 -->
<!-- Title: include/Debug.h Pages: 1 -->
<!--zoomable 576 -->
<svg id="main" version="1.1" xmlns="http://www.w3.org/2000/svg" xmlns:xlink="http://www.w3.org/1999/xlink" xml:space="preserve" onload="init(evt)">
<style type="text/css"><![CDATA[
.edge:hover path { stroke: red; }
.edge:hover polygon { stroke: red; fill: red; }
]]></style>
<script type="text/javascript"><![CDATA[
var edges = document.getElementsByTagName('g');
if (edges && edges.length) {
  for (var i=0;i<edges.length;i++) {
    if (edges[i].id.substr(0,4)=='edge') {
      edges[i].setAttribute('class','edge');
    }
  }
}
]]></script>
        <defs>
                <circle id="rim" cx="0" cy="0" r="7"/>
                <circle id="rim2" cx="0" cy="0" r="3.5"/>
                <g id="zoomPlus">
                        <use xlink:href="#rim" fill="#404040">
                                <set attributeName="fill" to="#808080" begin="zoomplus.mouseover" end="zoomplus.mouseout"/>
                        </use>
                        <path d="M-4,0h8M0,-4v8" fill="none" stroke="white" stroke-width="1.5" pointer-events="none"/>
                </g>
                <g id="zoomMin">
                        <use xlink:href="#rim" fill="#404040">
                                <set attributeName="fill" to="#808080" begin="zoomminus.mouseover" end="zoomminus.mouseout"/>
                        </use>
                        <path d="M-4,0h8" fill="none" stroke="white" stroke-width="1.5" pointer-events="none"/>
                </g>
                <g id="dirArrow">
                        <path fill="none" stroke="white" stroke-width="1.5" d="M0,-3.0v7 M-2.5,-0.5L0,-3.0L2.5,-0.5"/>
                </g>
               <g id="resetDef">
                       <use xlink:href="#rim2" fill="#404040">
                               <set attributeName="fill" to="#808080" begin="reset.mouseover" end="reset.mouseout"/>
                       </use>
               </g>
        </defs>

<script type="text/javascript">
var viewWidth = 908;
var viewHeight = 576;
var sectionId = 'dynsection-1';
</script>
<script xlink:href="svgpan.js"/>
<svg id="graph" class="graph">
<g id="viewport">
<title>include/Debug.h</title>
<!-- Node1 -->
<g id="node1" class="node">
<title>Node1</title>
<g id="a_node1"><a xlink:title=" ">
<polygon fill="#bfbfbf" stroke="black" points="587,-548.5 587,-567.5 682,-567.5 682,-548.5 587,-548.5"/>
<text text-anchor="middle" x="634.5" y="-555.5" font-family="Helvetica,sans-Serif" font-size="10.00">include/Debug.h</text>
</a>
</g>
</g>
<!-- Node2 -->
<g id="node2" class="node">
<title>Node2</title>
<g id="a_node2"><a xlink:href="MVExpr_8h.html" target="_top" xlink:title=" ">
<polygon fill="none" stroke="black" points="459,-492.5 459,-511.5 600,-511.5 600,-492.5 459,-492.5"/>
<text text-anchor="middle" x="529.5" y="-499.5" font-family="Helvetica,sans-Serif" font-size="10.00">include/MVExpr/MVExpr.h</text>
</a>
</g>
</g>
<!-- Node1&#45;&gt;Node2 -->
<g id="edge1" class="edge">
<title>Node1&#45;&gt;Node2</title>
<path fill="none" stroke="midnightblue" d="M608.69,-543.73C589.25,-533.73 563.15,-520.31 546.33,-511.65"/>
<polygon fill="midnightblue" stroke="midnightblue" points="607.14,-546.86 617.63,-548.32 610.34,-540.64 607.14,-546.86"/>
</g>
<!-- Node20 -->
<g id="node20" class="node">
<title>Node20</title>
<g id="a_node20"><a xlink:href="TAC_8h.html" target="_top" xlink:title=" ">
<polygon fill="none" stroke="black" points="593,-436.5 593,-455.5 676,-455.5 676,-436.5 593,-436.5"/>
<text text-anchor="middle" x="634.5" y="-443.5" font-family="Helvetica,sans-Serif" font-size="10.00">include/TAC.h</text>
</a>
</g>
</g>
<!-- Node1&#45;&gt;Node20 -->
<g id="edge43" class="edge">
<title>Node1&#45;&gt;Node20</title>
<path fill="none" stroke="midnightblue" d="M634.5,-538.35C634.5,-514.25 634.5,-473.31 634.5,-455.59"/>
<polygon fill="midnightblue" stroke="midnightblue" points="631,-538.37 634.5,-548.37 638,-538.37 631,-538.37"/>
</g>
<!-- Node21 -->
<g id="node21" class="node">
<title>Node21</title>
<g id="a_node21"><a xlink:href="MVPragmaHandler_8h.html" target="_top" xlink:title=" ">
<polygon fill="none" stroke="black" points="744,-436.5 744,-455.5 899,-455.5 899,-436.5 744,-436.5"/>
<text text-anchor="middle" x="821.5" y="-443.5" font-family="Helvetica,sans-Serif" font-size="10.00">include/MVPragmaHandler.h</text>
</a>
</g>
</g>
<!-- Node1&#45;&gt;Node21 -->
<g id="edge38" class="edge">
<title>Node1&#45;&gt;Node21</title>
<path fill="none" stroke="midnightblue" d="M658.29,-543.01C697.54,-519.92 774.73,-474.51 806.89,-455.59"/>
<polygon fill="midnightblue" stroke="midnightblue" points="656.02,-540.28 649.17,-548.37 659.57,-546.32 656.02,-540.28"/>
</g>
<!-- Node3 -->
<g id="node3" class="node">
<title>Node3</title>
<g id="a_node3"><a xlink:href="MVExprArray_8h.html" target="_top" xlink:title=" ">
<polygon fill="none" stroke="black" points="0,-380.5 0,-399.5 167,-399.5 167,-380.5 0,-380.5"/>
<text text-anchor="middle" x="83.5" y="-387.5" font-family="Helvetica,sans-Serif" font-size="10.00">include/MVExpr/MVExprArray.h</text>
</a>
</g>
</g>
<!-- Node2&#45;&gt;Node3 -->
<g id="edge2" class="edge">
<title>Node2&#45;&gt;Node3</title>
<path fill="none" stroke="midnightblue" d="M507.75,-486.66C479.38,-468 432.83,-437.58 428.5,-436 404.14,-427.09 257.18,-409.88 163.09,-399.52"/>
<polygon fill="midnightblue" stroke="midnightblue" points="505.97,-489.68 516.25,-492.25 509.82,-483.83 505.97,-489.68"/>
</g>
<!-- Node13 -->
<g id="node13" class="node">
<title>Node13</title>
<g id="a_node13"><a xlink:href="MVExprFactory_8h.html" target="_top" xlink:title=" ">
<polygon fill="none" stroke="black" points="243.5,-436.5 243.5,-455.5 419.5,-455.5 419.5,-436.5 243.5,-436.5"/>
<text text-anchor="middle" x="331.5" y="-443.5" font-family="Helvetica,sans-Serif" font-size="10.00">include/MVExpr/MVExprFactory.h</text>
</a>
</g>
</g>
<!-- Node2&#45;&gt;Node13 -->
<g id="edge16" class="edge">
<title>Node2&#45;&gt;Node13</title>
<path fill="none" stroke="midnightblue" d="M488.06,-489.7C450.69,-479.51 396.56,-464.74 362.73,-455.52"/>
<polygon fill="midnightblue" stroke="midnightblue" points="487.56,-493.19 498.13,-492.44 489.4,-486.44 487.56,-493.19"/>
</g>
<!-- Node14 -->
<g id="node14" class="node">
<title>Node14</title>
<g id="a_node14"><a xlink:href="MVExprLiteral_8h.html" target="_top" xlink:title=" ">
<polygon fill="none" stroke="black" points="360,-380.5 360,-399.5 533,-399.5 533,-380.5 360,-380.5"/>
<text text-anchor="middle" x="446.5" y="-387.5" font-family="Helvetica,sans-Serif" font-size="10.00">include/MVExpr/MVExprLiteral.h</text>
</a>
</g>
</g>
<!-- Node2&#45;&gt;Node14 -->
<g id="edge17" class="edge">
<title>Node2&#45;&gt;Node14</title>
<path fill="none" stroke="midnightblue" d="M523.47,-482.63C518.42,-468.93 510.3,-450.21 499.5,-436 488.26,-421.2 471.36,-407.92 459.68,-399.69"/>
<polygon fill="midnightblue" stroke="midnightblue" points="520.27,-484.07 526.86,-492.36 526.88,-481.77 520.27,-484.07"/>
</g>
<!-- Node15 -->
<g id="node15" class="node">
<title>Node15</title>
<g id="a_node15"><a xlink:href="Node_8h.html" target="_top" xlink:title=" ">
<polygon fill="none" stroke="black" points="498,-324.5 498,-343.5 587,-343.5 587,-324.5 498,-324.5"/>
<text text-anchor="middle" x="542.5" y="-331.5" font-family="Helvetica,sans-Serif" font-size="10.00">include/Node.h</text>
</a>
</g>
</g>
<!-- Node2&#45;&gt;Node15 -->
<g id="edge28" class="edge">
<title>Node2&#45;&gt;Node15</title>
<path fill="none" stroke="midnightblue" d="M532.3,-482.35C535.2,-462.12 539.57,-428.85 541.5,-400 542.84,-379.96 542.8,-356.36 542.65,-343.84"/>
<polygon fill="midnightblue" stroke="midnightblue" points="528.82,-481.98 530.83,-492.38 535.74,-483 528.82,-481.98"/>
</g>
<!-- Node18 -->
<g id="node18" class="node">
<title>Node18</title>
<g id="a_node18"><a xlink:href="MVExprVar_8h.html" target="_top" xlink:title=" ">
<polygon fill="none" stroke="black" points="185,-380.5 185,-399.5 342,-399.5 342,-380.5 185,-380.5"/>
<text text-anchor="middle" x="263.5" y="-387.5" font-family="Helvetica,sans-Serif" font-size="10.00">include/MVExpr/MVExprVar.h</text>
</a>
</g>
</g>
<!-- Node2&#45;&gt;Node18 -->
<g id="edge26" class="edge">
<title>Node2&#45;&gt;Node18</title>
<path fill="none" stroke="midnightblue" d="M516.63,-484.37C504.15,-469.42 483.87,-448.02 461.5,-436 424.86,-416.31 379.93,-405.21 342.14,-398.96"/>
<polygon fill="midnightblue" stroke="midnightblue" points="514.03,-486.72 523.03,-492.3 519.48,-482.32 514.03,-486.72"/>
</g>
<!-- Node19 -->
<g id="node19" class="node">
<title>Node19</title>
<g id="a_node19"><a xlink:href="StmtWrapper_8h.html" target="_top" xlink:title=" ">
<polygon fill="none" stroke="black" points="665.5,-380.5 665.5,-399.5 793.5,-399.5 793.5,-380.5 665.5,-380.5"/>
<text text-anchor="middle" x="729.5" y="-387.5" font-family="Helvetica,sans-Serif" font-size="10.00">include/StmtWrapper.h</text>
</a>
</g>
</g>
<!-- Node2&#45;&gt;Node19 -->
<g id="edge29" class="edge">
<title>Node2&#45;&gt;Node19</title>
<path fill="none" stroke="midnightblue" d="M603.72,-490.21C630.97,-483.59 660.9,-472.99 684.5,-456 705.22,-441.09 719.59,-413.53 725.89,-399.58"/>
<polygon fill="midnightblue" stroke="midnightblue" points="602.79,-486.83 593.81,-492.46 604.34,-493.65 602.79,-486.83"/>
</g>
<!-- Node2&#45;&gt;Node20 -->
<g id="edge34" class="edge">
<title>Node2&#45;&gt;Node20</title>
<path fill="none" stroke="midnightblue" d="M555.31,-487.73C574.75,-477.73 600.85,-464.31 617.67,-455.65"/>
<polygon fill="midnightblue" stroke="midnightblue" points="553.66,-484.64 546.37,-492.32 556.86,-490.86 553.66,-484.64"/>
</g>
<!-- Node4 -->
<g id="node4" class="node">
<title>Node4</title>
<g id="a_node4"><a xlink:href="VectorIR_8h.html" target="_top" xlink:title=" ">
<polygon fill="none" stroke="black" points="272,-257.5 272,-287.5 391,-287.5 391,-257.5 272,-257.5"/>
<text text-anchor="start" x="280" y="-275.5" font-family="Helvetica,sans-Serif" font-size="10.00">include/Vectorization</text>
<text text-anchor="middle" x="331.5" y="-264.5" font-family="Helvetica,sans-Serif" font-size="10.00">/VectorIR.h</text>
</a>
</g>
</g>
<!-- Node3&#45;&gt;Node4 -->
<g id="edge3" class="edge">
<title>Node3&#45;&gt;Node4</title>
<path fill="none" stroke="midnightblue" d="M111.41,-376C158.4,-354.12 252.89,-310.11 301.34,-287.55"/>
<polygon fill="midnightblue" stroke="midnightblue" points="109.73,-372.92 102.14,-380.32 112.68,-379.27 109.73,-372.92"/>
</g>
<!-- Node5 -->
<g id="node5" class="node">
<title>Node5</title>
<g id="a_node5"><a xlink:href="AVX2BackEnd_8h.html" target="_top" xlink:title=" ">
<polygon fill="none" stroke="black" points="134,-123.5 134,-153.5 287,-153.5 287,-123.5 134,-123.5"/>
<text text-anchor="start" x="142" y="-141.5" font-family="Helvetica,sans-Serif" font-size="10.00">include/Vectorization</text>
<text text-anchor="middle" x="210.5" y="-130.5" font-family="Helvetica,sans-Serif" font-size="10.00">/SIMD/AVX2/AVX2BackEnd.h</text>
</a>
</g>
</g>
<!-- Node4&#45;&gt;Node5 -->
<g id="edge4" class="edge">
<title>Node4&#45;&gt;Node5</title>
<path fill="none" stroke="midnightblue" d="M311.7,-249.9C286.72,-222.65 244.49,-176.58 223.36,-153.52"/>
<polygon fill="midnightblue" stroke="midnightblue" points="309.21,-252.37 318.55,-257.37 314.37,-247.64 309.21,-252.37"/>
</g>
<!-- Node7 -->
<g id="node7" class="node">
<title>Node7</title>
<g id="a_node7"><a xlink:href="SIMDBackEnd_8h.html" target="_top" xlink:title=" ">
<polygon fill="none" stroke="black" points="315,-190.5 315,-220.5 440,-220.5 440,-190.5 315,-190.5"/>
<text text-anchor="start" x="323" y="-208.5" font-family="Helvetica,sans-Serif" font-size="10.00">include/Vectorization</text>
<text text-anchor="middle" x="377.5" y="-197.5" font-family="Helvetica,sans-Serif" font-size="10.00">/SIMD/SIMDBackEnd.h</text>
</a>
</g>
</g>
<!-- Node4&#45;&gt;Node7 -->
<g id="edge6" class="edge">
<title>Node4&#45;&gt;Node7</title>
<path fill="none" stroke="midnightblue" d="M347.31,-249.16C354.02,-239.68 361.63,-228.92 367.54,-220.58"/>
<polygon fill="midnightblue" stroke="midnightblue" points="344.4,-247.21 341.48,-257.4 350.12,-251.26 344.4,-247.21"/>
</g>
<!-- Node6 -->
<g id="node6" class="node">
<title>Node6</title>
<g id="a_node6"><a xlink:href="SIMDBackEndFactory_8h.html" target="_top" xlink:title=" ">
<polygon fill="none" stroke="black" points="184.5,-56.5 184.5,-86.5 342.5,-86.5 342.5,-56.5 184.5,-56.5"/>
<text text-anchor="start" x="192.5" y="-74.5" font-family="Helvetica,sans-Serif" font-size="10.00">include/Vectorization</text>
<text text-anchor="middle" x="263.5" y="-63.5" font-family="Helvetica,sans-Serif" font-size="10.00">/SIMD/SIMDBackEndFactory.h</text>
</a>
</g>
</g>
<!-- Node5&#45;&gt;Node6 -->
<g id="edge5" class="edge">
<title>Node5&#45;&gt;Node6</title>
<path fill="none" stroke="midnightblue" d="M228.48,-115.45C236.27,-105.9 245.15,-95 252.02,-86.58"/>
<polygon fill="midnightblue" stroke="midnightblue" points="225.61,-113.43 222,-123.4 231.03,-117.86 225.61,-113.43"/>
</g>
<!-- Node7&#45;&gt;Node5 -->
<g id="edge14" class="edge">
<title>Node7&#45;&gt;Node5</title>
<path fill="none" stroke="midnightblue" d="M331.72,-186.68C304.94,-176.26 271.6,-163.28 246.67,-153.58"/>
<polygon fill="midnightblue" stroke="midnightblue" points="330.67,-190.03 341.26,-190.4 333.21,-183.51 330.67,-190.03"/>
</g>
<!-- Node7&#45;&gt;Node6 -->
<g id="edge15" class="edge">
<title>Node7&#45;&gt;Node6</title>
<path fill="none" stroke="midnightblue" d="M358.54,-182.54C334.97,-155.25 295.44,-109.48 275.61,-86.52"/>
<polygon fill="midnightblue" stroke="midnightblue" points="356.11,-185.09 365.3,-190.37 361.41,-180.52 356.11,-185.09"/>
</g>
<!-- Node8 -->
<g id="node8" class="node">
<title>Node8</title>
<g id="a_node8"><a xlink:href="MVCostModel_8h.html" target="_top" xlink:title=" ">
<polygon fill="none" stroke="black" points="456,-56.5 456,-86.5 603,-86.5 603,-56.5 456,-56.5"/>
<text text-anchor="start" x="464" y="-74.5" font-family="Helvetica,sans-Serif" font-size="10.00">include/CostModel/MVCost</text>
<text text-anchor="middle" x="529.5" y="-63.5" font-family="Helvetica,sans-Serif" font-size="10.00">Model.h</text>
</a>
</g>
</g>
<!-- Node7&#45;&gt;Node8 -->
<g id="edge7" class="edge">
<title>Node7&#45;&gt;Node8</title>
<path fill="none" stroke="midnightblue" d="M437.87,-187.39C467.66,-177.8 499.36,-165.5 509.5,-154 526.18,-135.1 529.45,-104.53 529.82,-86.69"/>
<polygon fill="midnightblue" stroke="midnightblue" points="436.78,-184.06 428.29,-190.4 438.88,-190.74 436.78,-184.06"/>
</g>
<!-- Node9 -->
<g id="node9" class="node">
<title>Node9</title>
<g id="a_node9"><a xlink:href="SIMDCostInfo_8h.html" target="_top" xlink:title=" ">
<polygon fill="none" stroke="black" points="344,-123.5 344,-153.5 501,-153.5 501,-123.5 344,-123.5"/>
<text text-anchor="start" x="352" y="-141.5" font-family="Helvetica,sans-Serif" font-size="10.00">include/CostModel/SIMDCost</text>
<text text-anchor="middle" x="422.5" y="-130.5" font-family="Helvetica,sans-Serif" font-size="10.00">Info.h</text>
</a>
</g>
</g>
<!-- Node7&#45;&gt;Node9 -->
<g id="edge8" class="edge">
<title>Node7&#45;&gt;Node9</title>
<path fill="none" stroke="midnightblue" d="M392.97,-182.16C399.53,-172.68 406.98,-161.92 412.75,-153.58"/>
<polygon fill="midnightblue" stroke="midnightblue" points="390.08,-180.18 387.26,-190.4 395.83,-184.17 390.08,-180.18"/>
</g>
<!-- Node10 -->
<g id="node10" class="node">
<title>Node10</title>
<g id="a_node10"><a xlink:href="MVFrontend_8h.html" target="_top" xlink:title=" ">
<polygon fill="none" stroke="black" points="708.5,-62 708.5,-81 830.5,-81 830.5,-62 708.5,-62"/>
<text text-anchor="middle" x="769.5" y="-69" font-family="Helvetica,sans-Serif" font-size="10.00">include/MVFrontend.h</text>
</a>
</g>
</g>
<!-- Node7&#45;&gt;Node10 -->
<g id="edge10" class="edge">
<title>Node7&#45;&gt;Node10</title>
<path fill="none" stroke="midnightblue" d="M436.7,-187.52C465.68,-178.59 500.84,-166.85 531.5,-154 559.18,-142.4 563.59,-134.04 591.5,-123 638.25,-104.51 694.36,-89.75 730.92,-81.08"/>
<polygon fill="midnightblue" stroke="midnightblue" points="435.68,-184.17 427.13,-190.43 437.72,-190.87 435.68,-184.17"/>
</g>
<!-- Node12 -->
<g id="node12" class="node">
<title>Node12</title>
<g id="a_node12"><a xlink:href="MVRewriter_8h.html" target="_top" xlink:title=" ">
<polygon fill="none" stroke="black" points="671.5,-129 671.5,-148 791.5,-148 791.5,-129 671.5,-129"/>
<text text-anchor="middle" x="731.5" y="-136" font-family="Helvetica,sans-Serif" font-size="10.00">include/MVRewriter.h</text>
</a>
</g>
</g>
<!-- Node7&#45;&gt;Node12 -->
<g id="edge12" class="edge">
<title>Node7&#45;&gt;Node12</title>
<path fill="none" stroke="midnightblue" d="M450.22,-189.69C536.99,-173.18 627.09,-157.41 681.59,-148.02"/>
<polygon fill="midnightblue" stroke="midnightblue" points="449.37,-186.29 440.2,-191.61 450.68,-193.17 449.37,-186.29"/>
</g>
<!-- Node9&#45;&gt;Node8 -->
<g id="edge9" class="edge">
<title>Node9&#45;&gt;Node8</title>
<path fill="none" stroke="midnightblue" d="M454.58,-118.02C471.23,-107.9 491.19,-95.77 506.33,-86.58"/>
<polygon fill="midnightblue" stroke="midnightblue" points="452.45,-115.21 445.72,-123.4 456.08,-121.2 452.45,-115.21"/>
</g>
<!-- Node11 -->
<g id="node11" class="node">
<title>Node11</title>
<g id="a_node11"><a xlink:href="macveth_8cpp.html" target="_top" xlink:title=" ">
<polygon fill="none" stroke="black" points="805,-0.5 805,-19.5 900,-19.5 900,-0.5 805,-0.5"/>
<text text-anchor="middle" x="852.5" y="-7.5" font-family="Helvetica,sans-Serif" font-size="10.00">lib/macveth.cpp</text>
</a>
</g>
</g>
<!-- Node10&#45;&gt;Node11 -->
<g id="edge11" class="edge">
<title>Node10&#45;&gt;Node11</title>
<path fill="none" stroke="midnightblue" d="M789.57,-56.11C805.53,-44.67 827.33,-29.05 840.63,-19.51"/>
<polygon fill="midnightblue" stroke="midnightblue" points="787.48,-53.3 781.39,-61.98 791.56,-58.99 787.48,-53.3"/>
</g>
<!-- Node12&#45;&gt;Node10 -->
<g id="edge13" class="edge">
<title>Node12&#45;&gt;Node10</title>
<path fill="none" stroke="midnightblue" d="M741.71,-120.03C749.07,-107.45 758.68,-91.01 764.46,-81.13"/>
<polygon fill="midnightblue" stroke="midnightblue" points="738.65,-118.33 736.62,-128.73 744.69,-121.87 738.65,-118.33"/>
</g>
<!-- Node14&#45;&gt;Node15 -->
<g id="edge18" class="edge">
<title>Node14&#45;&gt;Node15</title>
<path fill="none" stroke="midnightblue" d="M471.07,-375.18C488.74,-365.24 512.01,-352.15 527.11,-343.65"/>
<polygon fill="midnightblue" stroke="midnightblue" points="468.92,-372.37 461.92,-380.32 472.36,-378.47 468.92,-372.37"/>
</g>
<!-- Node15&#45;&gt;Node4 -->
<g id="edge25" class="edge">
<title>Node15&#45;&gt;Node4</title>
<path fill="none" stroke="midnightblue" d="M502.55,-321.73C468.11,-312.02 418.24,-297.96 381.23,-287.52"/>
<polygon fill="midnightblue" stroke="midnightblue" points="501.69,-325.13 512.27,-324.48 503.59,-318.39 501.69,-325.13"/>
</g>
<!-- Node16 -->
<g id="node16" class="node">
<title>Node16</title>
<g id="a_node16"><a xlink:href="CDAG_8h.html" target="_top" xlink:title=" ">
<polygon fill="none" stroke="black" points="556.5,-263 556.5,-282 648.5,-282 648.5,-263 556.5,-263"/>
<text text-anchor="middle" x="602.5" y="-270" font-family="Helvetica,sans-Serif" font-size="10.00">include/CDAG.h</text>
</a>
</g>
</g>
<!-- Node15&#45;&gt;Node16 -->
<g id="edge19" class="edge">
<title>Node15&#45;&gt;Node16</title>
<path fill="none" stroke="midnightblue" d="M558.31,-317.32C569.71,-306.02 584.66,-291.19 593.92,-282.01"/>
<polygon fill="midnightblue" stroke="midnightblue" points="555.73,-314.95 551.1,-324.48 560.66,-319.92 555.73,-314.95"/>
</g>
<!-- Node17 -->
<g id="node17" class="node">
<title>Node17</title>
<g id="a_node17"><a xlink:href="PlcmntAlgo_8h.html" target="_top" xlink:title=" ">
<polygon fill="none" stroke="black" points="458,-196 458,-215 577,-215 577,-196 458,-196"/>
<text text-anchor="middle" x="517.5" y="-203" font-family="Helvetica,sans-Serif" font-size="10.00">include/PlcmntAlgo.h</text>
</a>
</g>
</g>
<!-- Node15&#45;&gt;Node17 -->
<g id="edge24" class="edge">
<title>Node15&#45;&gt;Node17</title>
<path fill="none" stroke="midnightblue" d="M538.81,-314.31C533.33,-286.58 523.26,-235.63 519.23,-215.26"/>
<polygon fill="midnightblue" stroke="midnightblue" points="535.41,-315.17 540.78,-324.31 542.28,-313.82 535.41,-315.17"/>
</g>
<!-- Node16&#45;&gt;Node7 -->
<g id="edge23" class="edge">
<title>Node16&#45;&gt;Node7</title>
<path fill="none" stroke="midnightblue" d="M562.89,-260.06C524.74,-249.04 466.96,-232.34 426.06,-220.53"/>
<polygon fill="midnightblue" stroke="midnightblue" points="562.04,-263.46 572.62,-262.87 563.99,-256.73 562.04,-263.46"/>
</g>
<!-- Node16&#45;&gt;Node10 -->
<g id="edge20" class="edge">
<title>Node16&#45;&gt;Node10</title>
<path fill="none" stroke="midnightblue" d="M605.52,-252.8C611.37,-222.09 626.95,-160.64 662.5,-123 682.53,-101.8 713.26,-88.58 736.66,-81.01"/>
<polygon fill="midnightblue" stroke="midnightblue" points="602.02,-252.5 603.73,-262.95 608.91,-253.71 602.02,-252.5"/>
</g>
<!-- Node16&#45;&gt;Node12 -->
<g id="edge21" class="edge">
<title>Node16&#45;&gt;Node12</title>
<path fill="none" stroke="midnightblue" d="M618.24,-255.4C645.82,-227.17 702,-169.69 723.17,-148.02"/>
<polygon fill="midnightblue" stroke="midnightblue" points="615.45,-253.24 610.96,-262.84 620.46,-258.13 615.45,-253.24"/>
</g>
<!-- Node16&#45;&gt;Node17 -->
<g id="edge22" class="edge">
<title>Node16&#45;&gt;Node17</title>
<path fill="none" stroke="midnightblue" d="M582.97,-256.57C566.2,-243.74 542.59,-225.69 528.78,-215.13"/>
<polygon fill="midnightblue" stroke="midnightblue" points="580.97,-259.44 591.04,-262.73 585.22,-253.88 580.97,-259.44"/>
</g>
<!-- Node18&#45;&gt;Node15 -->
<g id="edge27" class="edge">
<title>Node18&#45;&gt;Node15</title>
<path fill="none" stroke="midnightblue" d="M317.56,-378.54C370.29,-368.33 449.5,-353 498.5,-343.52"/>
<polygon fill="midnightblue" stroke="midnightblue" points="316.86,-375.11 307.71,-380.44 318.19,-381.98 316.86,-375.11"/>
</g>
<!-- Node19&#45;&gt;Node8 -->
<g id="edge30" class="edge">
<title>Node19&#45;&gt;Node8</title>
<path fill="none" stroke="midnightblue" d="M720.6,-371.28C707.55,-345.62 682.08,-296.83 657.5,-257 616.96,-191.31 562.56,-116.87 539.99,-86.5"/>
<polygon fill="midnightblue" stroke="midnightblue" points="717.62,-373.14 725.26,-380.48 723.87,-369.98 717.62,-373.14"/>
</g>
<!-- Node19&#45;&gt;Node10 -->
<g id="edge31" class="edge">
<title>Node19&#45;&gt;Node10</title>
<path fill="none" stroke="midnightblue" d="M737.06,-370.81C752.77,-331.89 788.48,-237.29 800.5,-154 802.47,-140.36 804.24,-136.26 800.5,-123 795.91,-106.76 784.48,-90.6 776.86,-81.09"/>
<polygon fill="midnightblue" stroke="midnightblue" points="733.74,-369.67 733.2,-380.25 740.22,-372.32 733.74,-369.67"/>
</g>
<!-- Node19&#45;&gt;Node12 -->
<g id="edge32" class="edge">
<title>Node19&#45;&gt;Node12</title>
<path fill="none" stroke="midnightblue" d="M729.65,-370.34C730.05,-320.14 731.15,-183.6 731.43,-148.05"/>
<polygon fill="midnightblue" stroke="midnightblue" points="726.15,-370.38 729.57,-380.41 733.15,-370.44 726.15,-370.38"/>
</g>
<!-- Node19&#45;&gt;Node15 -->
<g id="edge33" class="edge">
<title>Node19&#45;&gt;Node15</title>
<path fill="none" stroke="midnightblue" d="M689.91,-377.57C654.63,-367.38 603.81,-352.7 571.99,-343.52"/>
<polygon fill="midnightblue" stroke="midnightblue" points="689.29,-381.03 699.87,-380.44 691.23,-374.31 689.29,-381.03"/>
</g>
<!-- Node20&#45;&gt;Node15 -->
<g id="edge36" class="edge">
<title>Node20&#45;&gt;Node15</title>
<path fill="none" stroke="midnightblue" d="M620.77,-428.59C600.94,-404.87 564.97,-361.87 549.69,-343.59"/>
<polygon fill="midnightblue" stroke="midnightblue" points="618.18,-430.94 627.28,-436.37 623.55,-426.45 618.18,-430.94"/>
</g>
<!-- Node20&#45;&gt;Node16 -->
<g id="edge35" class="edge">
<title>Node20&#45;&gt;Node16</title>
<path fill="none" stroke="midnightblue" d="M631.02,-426.33C624.13,-389.43 609.02,-308.44 604.09,-282.02"/>
<polygon fill="midnightblue" stroke="midnightblue" points="627.59,-427.07 632.87,-436.26 634.48,-425.79 627.59,-427.07"/>
</g>
<!-- Node20&#45;&gt;Node19 -->
<g id="edge37" class="edge">
<title>Node20&#45;&gt;Node19</title>
<path fill="none" stroke="midnightblue" d="M658.82,-431.18C676.3,-421.24 699.33,-408.15 714.27,-399.65"/>
<polygon fill="midnightblue" stroke="midnightblue" points="656.73,-428.34 649.76,-436.32 660.19,-434.43 656.73,-428.34"/>
</g>
<!-- Node21&#45;&gt;Node10 -->
<g id="edge39" class="edge">
<title>Node21&#45;&gt;Node10</title>
<path fill="none" stroke="midnightblue" d="M831.64,-427.43C842.9,-406.24 859.5,-369.19 859.5,-335 859.5,-335 859.5,-335 859.5,-204.5 859.5,-149.3 805.12,-100.16 780.9,-81.01"/>
<polygon fill="midnightblue" stroke="midnightblue" points="828.55,-425.78 826.78,-436.23 834.68,-429.17 828.55,-425.78"/>
</g>
<!-- Node21&#45;&gt;Node11 -->
<g id="edge42" class="edge">
<title>Node21&#45;&gt;Node11</title>
<path fill="none" stroke="midnightblue" d="M841.02,-429.85C863.54,-410.5 897.5,-374.72 897.5,-335 897.5,-335 897.5,-335 897.5,-137.5 897.5,-90.65 869.76,-39.38 857.84,-19.52"/>
<polygon fill="midnightblue" stroke="midnightblue" points="838.52,-427.37 833.04,-436.43 842.98,-432.76 838.52,-427.37"/>
</g>
<!-- Node21&#45;&gt;Node12 -->
<g id="edge40" class="edge">
<title>Node21&#45;&gt;Node12</title>
<path fill="none" stroke="midnightblue" d="M821.5,-426.25C821.5,-404.36 821.5,-367.05 821.5,-335 821.5,-335 821.5,-335 821.5,-271.5 821.5,-216.3 767.12,-167.16 742.9,-148.01"/>
<polygon fill="midnightblue" stroke="midnightblue" points="818,-426.44 821.5,-436.44 825,-426.44 818,-426.44"/>
</g>
<!-- Node21&#45;&gt;Node19 -->
<g id="edge41" class="edge">
<title>Node21&#45;&gt;Node19</title>
<path fill="none" stroke="midnightblue" d="M797.95,-431.18C781.02,-421.24 758.72,-408.15 744.24,-399.65"/>
<polygon fill="midnightblue" stroke="midnightblue" points="796.32,-434.28 806.72,-436.32 799.87,-428.24 796.32,-434.28"/>
</g>
</g>
</svg>
        <g id="navigator" transform="translate(0 0)" fill="#404254">
                <rect fill="#f2f5e9" fill-opacity="0.5" stroke="#606060" stroke-width=".5" x="0" y="0" width="60" height="60"/>
                <use id="zoomplus" xlink:href="#zoomPlus" x="17" y="9" onmousedown="handleZoom(evt,'in')"/>
                <use id="zoomminus" xlink:href="#zoomMin" x="42" y="9" onmousedown="handleZoom(evt,'out')"/>
                <use id="reset" xlink:href="#resetDef" x="30" y="36" onmousedown="handleReset()"/>
                <g id="arrowUp" xlink:href="#dirArrow" transform="translate(30 24)" onmousedown="handlePan(0,-1)">
                  <use xlink:href="#rim" fill="#404040">
                        <set attributeName="fill" to="#808080" begin="arrowUp.mouseover" end="arrowUp.mouseout"/>
                  </use>
                  <path fill="none" stroke="white" stroke-width="1.5" d="M0,-3.0v7 M-2.5,-0.5L0,-3.0L2.5,-0.5"/>
                </g>
                <g id="arrowRight" xlink:href="#dirArrow" transform="rotate(90) translate(36 -43)" onmousedown="handlePan(1,0)">
                  <use xlink:href="#rim" fill="#404040">
                        <set attributeName="fill" to="#808080" begin="arrowRight.mouseover" end="arrowRight.mouseout"/>
                  </use>
                  <path fill="none" stroke="white" stroke-width="1.5" d="M0,-3.0v7 M-2.5,-0.5L0,-3.0L2.5,-0.5"/>
                </g>
                <g id="arrowDown" xlink:href="#dirArrow" transform="rotate(180) translate(-30 -48)" onmousedown="handlePan(0,1)">
                  <use xlink:href="#rim" fill="#404040">
                        <set attributeName="fill" to="#808080" begin="arrowDown.mouseover" end="arrowDown.mouseout"/>
                  </use>
                  <path fill="none" stroke="white" stroke-width="1.5" d="M0,-3.0v7 M-2.5,-0.5L0,-3.0L2.5,-0.5"/>
                </g>
                <g id="arrowLeft" xlink:href="#dirArrow" transform="rotate(270) translate(-36 17)" onmousedown="handlePan(-1,0)">
                  <use xlink:href="#rim" fill="#404040">
                        <set attributeName="fill" to="#808080" begin="arrowLeft.mouseover" end="arrowLeft.mouseout"/>
                  </use>
                  <path fill="none" stroke="white" stroke-width="1.5" d="M0,-3.0v7 M-2.5,-0.5L0,-3.0L2.5,-0.5"/>
                </g>
        </g>
        <svg viewBox="0 0 15 15" width="100%" height="30px" preserveAspectRatio="xMaxYMin meet">
         <g id="arrow_out" transform="scale(0.3 0.3)">
          <a xlink:href="Debug_8h__dep__incl_org.svg" target="_base">
           <rect id="button" ry="5" rx="5" y="6" x="6" height="38" width="38"
                fill="#f2f5e9" fill-opacity="0.5" stroke="#606060" stroke-width="1.0"/>
           <path id="arrow"
             d="M 11.500037,31.436501 C 11.940474,20.09759 22.043105,11.32322 32.158766,21.979434 L 37.068811,17.246167 C 37.068811,17.246167 37.088388,32 37.088388,32 L 22.160133,31.978069 C 22.160133,31.978069 26.997745,27.140456 26.997745,27.140456 C 18.528582,18.264221 13.291696,25.230495 11.500037,31.436501 z"
             style="fill:#404040;"/>
          </a>
         </g>
        </svg>
</svg>
