<?xml version="1.0" encoding="UTF-8" standalone="no"?>
<!DOCTYPE svg PUBLIC "-//W3C//DTD SVG 1.1//EN"
 "http://www.w3.org/Graphics/SVG/1.1/DTD/svg11.dtd">
<!-- Generated by graphviz version 2.43.0 (0)
 -->
<!-- Title: include Pages: 1 -->
<svg width="192pt" height="148pt"
 viewBox="0.00 0.00 192.00 148.00" xmlns="http://www.w3.org/2000/svg" xmlns:xlink="http://www.w3.org/1999/xlink">
<g id="graph0" class="graph" transform="scale(1 1) rotate(0) translate(4 144)">
<title>include</title>
<g id="clust1" class="cluster">
<title>clusterdir_d44c64559bbebec7f509842c48db8b23</title>
<g id="a_clust1"><a xlink:href="dir_d44c64559bbebec7f509842c48db8b23.html" target="_top">
<polygon fill="#eeeeff" stroke="black" points="8,-8 8,-132 176,-132 176,-8 8,-8"/>
</a>
</g>
</g>
<!-- dir_d44c64559bbebec7f509842c48db8b23 -->
<g id="node1" class="node">
<title>dir_d44c64559bbebec7f509842c48db8b23</title>
<text text-anchor="middle" x="141" y="-103.5" font-family="Helvetica,sans-Serif" font-size="10.00">include</text>
</g>
<!-- dir_f7a591d6ca41d118f3e982e7ecfbc4d3 -->
<g id="node3" class="node">
<title>dir_f7a591d6ca41d118f3e982e7ecfbc4d3</title>
<g id="a_node3"><a xlink:href="dir_f7a591d6ca41d118f3e982e7ecfbc4d3.html" target="_top" xlink:title="MVExpr">
<polygon fill="white" stroke="black" points="165,-52 111,-52 111,-16 165,-16 165,-52"/>
<text text-anchor="middle" x="138" y="-31.5" font-family="Helvetica,sans-Serif" font-size="10.00">MVExpr</text>
</a>
</g>
</g>
<!-- dir_d44c64559bbebec7f509842c48db8b23&#45;&gt;dir_f7a591d6ca41d118f3e982e7ecfbc4d3 -->
<g id="edge4" class="edge">
<title>dir_d44c64559bbebec7f509842c48db8b23&#45;&gt;dir_f7a591d6ca41d118f3e982e7ecfbc4d3</title>
<path fill="none" stroke="black" d="M140.26,-87.7C139.93,-79.98 139.53,-70.71 139.16,-62.11"/>
<polygon fill="black" stroke="black" points="142.66,-61.95 138.73,-52.1 135.66,-62.25 142.66,-61.95"/>
<g id="a_edge4&#45;headlabel"><a xlink:href="dir_000000_000002.html" target="_top" xlink:title="9">
<text text-anchor="middle" x="145.65" y="-62.92" font-family="Helvetica,sans-Serif" font-size="10.00">9</text>
</a>
</g>
</g>
<!-- dir_01b9d19cbe41c1df0621fc2c25388709 -->
<g id="node2" class="node">
<title>dir_01b9d19cbe41c1df0621fc2c25388709</title>
<g id="a_node2"><a xlink:href="dir_01b9d19cbe41c1df0621fc2c25388709.html" target="_top" xlink:title="CostModel">
<polygon fill="white" stroke="black" points="90,-52 22,-52 22,-16 90,-16 90,-52"/>
<text text-anchor="middle" x="56" y="-31.5" font-family="Helvetica,sans-Serif" font-size="10.00">CostModel</text>
</a>
</g>
</g>
<!-- dir_922df8d8d4742d9bad3f728e2d0e018e -->
<g id="node4" class="node">
<title>dir_922df8d8d4742d9bad3f728e2d0e018e</title>
<g id="a_node4"><a xlink:href="dir_922df8d8d4742d9bad3f728e2d0e018e.html" target="_top" xlink:title="Vectorization">
<polygon fill="white" stroke="red" points="96,-124 16,-124 16,-88 96,-88 96,-124"/>
<text text-anchor="middle" x="56" y="-103.5" font-family="Helvetica,sans-Serif" font-size="10.00">Vectorization</text>
</a>
</g>
</g>
<!-- dir_01b9d19cbe41c1df0621fc2c25388709&#45;&gt;dir_922df8d8d4742d9bad3f728e2d0e018e -->
<g id="edge3" class="edge">
<title>dir_01b9d19cbe41c1df0621fc2c25388709&#45;&gt;dir_922df8d8d4742d9bad3f728e2d0e018e</title>
<path fill="none" stroke="black" d="M61.9,-52.1C62.7,-59.79 62.94,-69.05 62.6,-77.67"/>
<polygon fill="black" stroke="black" points="59.11,-77.48 61.92,-87.7 66.09,-77.96 59.11,-77.48"/>
<g id="a_edge3&#45;headlabel"><a xlink:href="dir_000001_000003.html" target="_top" xlink:title="2">
<text text-anchor="middle" x="56.52" y="-71.2" font-family="Helvetica,sans-Serif" font-size="10.00">2</text>
</a>
</g>
</g>
<!-- dir_922df8d8d4742d9bad3f728e2d0e018e&#45;&gt;dir_01b9d19cbe41c1df0621fc2c25388709 -->
<g id="edge1" class="edge">
<title>dir_922df8d8d4742d9bad3f728e2d0e018e&#45;&gt;dir_01b9d19cbe41c1df0621fc2c25388709</title>
<path fill="none" stroke="black" d="M50.08,-87.7C49.29,-79.98 49.06,-70.71 49.4,-62.11"/>
<polygon fill="black" stroke="black" points="52.9,-62.32 50.1,-52.1 45.92,-61.84 52.9,-62.32"/>
<g id="a_edge1&#45;headlabel"><a xlink:href="dir_000003_000001.html" target="_top" xlink:title="1">
<text text-anchor="middle" x="55.48" y="-63.61" font-family="Helvetica,sans-Serif" font-size="10.00">1</text>
</a>
</g>
</g>
<!-- dir_922df8d8d4742d9bad3f728e2d0e018e&#45;&gt;dir_f7a591d6ca41d118f3e982e7ecfbc4d3 -->
<g id="edge2" class="edge">
<title>dir_922df8d8d4742d9bad3f728e2d0e018e&#45;&gt;dir_f7a591d6ca41d118f3e982e7ecfbc4d3</title>
<path fill="none" stroke="black" d="M76.27,-87.7C86.5,-78.97 99.06,-68.24 110.18,-58.75"/>
<polygon fill="black" stroke="black" points="112.63,-61.26 117.96,-52.1 108.09,-55.94 112.63,-61.26"/>
<g id="a_edge2&#45;headlabel"><a xlink:href="dir_000003_000002.html" target="_top" xlink:title="4">
<text text-anchor="middle" x="111.74" y="-63.25" font-family="Helvetica,sans-Serif" font-size="10.00">4</text>
</a>
</g>
</g>
</g>
</svg>
