<?xml version="1.0" encoding="UTF-8" standalone="no"?>
<!DOCTYPE svg PUBLIC "-//W3C//DTD SVG 1.1//EN"
 "http://www.w3.org/Graphics/SVG/1.1/DTD/svg11.dtd">
<!-- Generated by graphviz version 2.43.0 (0)
 -->
<!-- Title: include/Vectorization Pages: 1 -->
<svg width="208pt" height="195pt"
 viewBox="0.00 0.00 208.00 195.00" xmlns="http://www.w3.org/2000/svg" xmlns:xlink="http://www.w3.org/1999/xlink">
<g id="graph0" class="graph" transform="scale(1 1) rotate(0) translate(4 191)">
<title>include/Vectorization</title>
<g id="clust1" class="cluster">
<title>clusterdir_d44c64559bbebec7f509842c48db8b23</title>
<g id="a_clust1"><a xlink:href="dir_d44c64559bbebec7f509842c48db8b23.html" target="_top" xlink:title="include">
<polygon fill="#ddddee" stroke="black" points="8,-56 8,-143 192,-143 192,-56 8,-56"/>
<text text-anchor="middle" x="100" y="-131" font-family="Helvetica,sans-Serif" font-size="10.00">include</text>
</a>
</g>
</g>
<g id="clust2" class="cluster">
<title>clusterdir_922df8d8d4742d9bad3f728e2d0e018e</title>
<g id="a_clust2"><a xlink:href="dir_922df8d8d4742d9bad3f728e2d0e018e.html" target="_top">
<polygon fill="#eeeeff" stroke="black" points="16,-64 16,-116 184,-116 184,-64 16,-64"/>
</a>
</g>
</g>
<!-- dir_922df8d8d4742d9bad3f728e2d0e018e -->
<g id="node1" class="node">
<title>dir_922df8d8d4742d9bad3f728e2d0e018e</title>
<text text-anchor="middle" x="136" y="-87.5" font-family="Helvetica,sans-Serif" font-size="10.00">Vectorization</text>
</g>
<!-- dir_f20c36435f81221ba9b25f83a87b22d0 -->
<g id="node2" class="node">
<title>dir_f20c36435f81221ba9b25f83a87b22d0</title>
<g id="a_node2"><a xlink:href="dir_f20c36435f81221ba9b25f83a87b22d0.html" target="_top" xlink:title="SIMD">
<polygon fill="white" stroke="red" points="78,-108 24,-108 24,-72 78,-72 78,-108"/>
<text text-anchor="middle" x="51" y="-87.5" font-family="Helvetica,sans-Serif" font-size="10.00">SIMD</text>
</a>
</g>
</g>
<!-- dir_01b9d19cbe41c1df0621fc2c25388709 -->
<g id="node3" class="node">
<title>dir_01b9d19cbe41c1df0621fc2c25388709</title>
<g id="a_node3"><a xlink:href="dir_01b9d19cbe41c1df0621fc2c25388709.html" target="_top" xlink:title="CostModel">
<polygon fill="none" stroke="black" points="127,-187 59,-187 59,-151 127,-151 127,-187"/>
<text text-anchor="middle" x="93" y="-166.5" font-family="Helvetica,sans-Serif" font-size="10.00">CostModel</text>
</a>
</g>
</g>
<!-- dir_f20c36435f81221ba9b25f83a87b22d0&#45;&gt;dir_01b9d19cbe41c1df0621fc2c25388709 -->
<g id="edge1" class="edge">
<title>dir_f20c36435f81221ba9b25f83a87b22d0&#45;&gt;dir_01b9d19cbe41c1df0621fc2c25388709</title>
<path fill="none" stroke="black" d="M54.58,-108.04C58.98,-118.1 65.8,-131.03 72.58,-142.31"/>
<polygon fill="black" stroke="black" points="69.69,-144.29 77.96,-150.91 75.62,-140.58 69.69,-144.29"/>
<g id="a_edge1&#45;headlabel"><a xlink:href="dir_000004_000001.html" target="_top" xlink:title="1">
<text text-anchor="middle" x="65.38" y="-140.24" font-family="Helvetica,sans-Serif" font-size="10.00">1</text>
</a>
</g>
</g>
<!-- dir_f7a591d6ca41d118f3e982e7ecfbc4d3 -->
<g id="node4" class="node">
<title>dir_f7a591d6ca41d118f3e982e7ecfbc4d3</title>
<g id="a_node4"><a xlink:href="dir_f7a591d6ca41d118f3e982e7ecfbc4d3.html" target="_top" xlink:title="MVExpr">
<polygon fill="none" stroke="black" points="78,-36 24,-36 24,0 78,0 78,-36"/>
<text text-anchor="middle" x="51" y="-15.5" font-family="Helvetica,sans-Serif" font-size="10.00">MVExpr</text>
</a>
</g>
</g>
<!-- dir_f20c36435f81221ba9b25f83a87b22d0&#45;&gt;dir_f7a591d6ca41d118f3e982e7ecfbc4d3 -->
<g id="edge2" class="edge">
<title>dir_f20c36435f81221ba9b25f83a87b22d0&#45;&gt;dir_f7a591d6ca41d118f3e982e7ecfbc4d3</title>
<path fill="none" stroke="black" d="M51,-71.7C51,-63.98 51,-54.71 51,-46.11"/>
<polygon fill="black" stroke="black" points="54.5,-46.1 51,-36.1 47.5,-46.1 54.5,-46.1"/>
<g id="a_edge2&#45;headlabel"><a xlink:href="dir_000004_000002.html" target="_top" xlink:title="2">
<text text-anchor="middle" x="57.34" y="-47.2" font-family="Helvetica,sans-Serif" font-size="10.00">2</text>
</a>
</g>
</g>
<!-- dir_01b9d19cbe41c1df0621fc2c25388709&#45;&gt;dir_922df8d8d4742d9bad3f728e2d0e018e -->
<g id="edge3" class="edge">
<title>dir_01b9d19cbe41c1df0621fc2c25388709&#45;&gt;dir_922df8d8d4742d9bad3f728e2d0e018e</title>
<path fill="none" stroke="black" d="M102.54,-150.91C108.11,-140.94 115.25,-128.17 121.5,-116.97"/>
<polygon fill="black" stroke="black" points="124.66,-118.48 126.48,-108.04 118.55,-115.07 124.66,-118.48"/>
<g id="a_edge3&#45;headlabel"><a xlink:href="dir_000001_000003.html" target="_top" xlink:title="2">
<text text-anchor="middle" x="125.39" y="-120.5" font-family="Helvetica,sans-Serif" font-size="10.00">2</text>
</a>
</g>
</g>
<!-- dir_01b9d19cbe41c1df0621fc2c25388709&#45;&gt;dir_f20c36435f81221ba9b25f83a87b22d0 -->
<g id="edge4" class="edge">
<title>dir_01b9d19cbe41c1df0621fc2c25388709&#45;&gt;dir_f20c36435f81221ba9b25f83a87b22d0</title>
<path fill="none" stroke="black" d="M89.4,-150.91C84.99,-140.84 78.17,-127.91 71.39,-116.64"/>
<polygon fill="black" stroke="black" points="74.28,-114.66 66.01,-108.04 68.35,-118.38 74.28,-114.66"/>
<g id="a_edge4&#45;headlabel"><a xlink:href="dir_000001_000004.html" target="_top" xlink:title="2">
<text text-anchor="middle" x="78.59" y="-113.7" font-family="Helvetica,sans-Serif" font-size="10.00">2</text>
</a>
</g>
</g>
</g>
</svg>
