<?xml version="1.0" encoding="UTF-8" standalone="no"?>
<!DOCTYPE svg PUBLIC "-//W3C//DTD SVG 1.1//EN"
 "http://www.w3.org/Graphics/SVG/1.1/DTD/svg11.dtd">
<!-- Generated by graphviz version 2.43.0 (0)
 -->
<!-- Title: include/Vectorization/SIMD Pages: 1 -->
<svg width="250pt" height="183pt"
 viewBox="0.00 0.00 250.00 183.00" xmlns="http://www.w3.org/2000/svg" xmlns:xlink="http://www.w3.org/1999/xlink">
<g id="graph0" class="graph" transform="scale(1 1) rotate(0) translate(4 179)">
<title>include/Vectorization/SIMD</title>
<g id="clust1" class="cluster">
<title>clusterdir_922df8d8d4742d9bad3f728e2d0e018e</title>
<g id="a_clust1"><a xlink:href="dir_922df8d8d4742d9bad3f728e2d0e018e.html" target="_top" xlink:title="Vectorization">
<polygon fill="#ddddee" stroke="black" points="8,-8 8,-167 94,-167 94,-8 8,-8"/>
<text text-anchor="middle" x="51" y="-155" font-family="Helvetica,sans-Serif" font-size="10.00">Vectorization</text>
</a>
</g>
</g>
<g id="clust2" class="cluster">
<title>clusterdir_f20c36435f81221ba9b25f83a87b22d0</title>
<g id="a_clust2"><a xlink:href="dir_f20c36435f81221ba9b25f83a87b22d0.html" target="_top">
<polygon fill="#eeeeff" stroke="black" points="16,-16 16,-140 86,-140 86,-16 16,-16"/>
</a>
</g>
</g>
<!-- dir_f20c36435f81221ba9b25f83a87b22d0 -->
<g id="node1" class="node">
<title>dir_f20c36435f81221ba9b25f83a87b22d0</title>
<text text-anchor="middle" x="51" y="-111.5" font-family="Helvetica,sans-Serif" font-size="10.00">SIMD</text>
</g>
<!-- dir_8a7d9c63aa832b760a9ca9fbd1b8ae0d -->
<g id="node2" class="node">
<title>dir_8a7d9c63aa832b760a9ca9fbd1b8ae0d</title>
<g id="a_node2"><a xlink:href="dir_8a7d9c63aa832b760a9ca9fbd1b8ae0d.html" target="_top" xlink:title="AVX2">
<polygon fill="white" stroke="black" points="78,-60 24,-60 24,-24 78,-24 78,-60"/>
<text text-anchor="middle" x="51" y="-39.5" font-family="Helvetica,sans-Serif" font-size="10.00">AVX2</text>
</a>
</g>
</g>
<!-- dir_f20c36435f81221ba9b25f83a87b22d0&#45;&gt;dir_8a7d9c63aa832b760a9ca9fbd1b8ae0d -->
<g id="edge2" class="edge">
<title>dir_f20c36435f81221ba9b25f83a87b22d0&#45;&gt;dir_8a7d9c63aa832b760a9ca9fbd1b8ae0d</title>
<path fill="none" stroke="black" d="M51,-95.7C51,-87.98 51,-78.71 51,-70.11"/>
<polygon fill="black" stroke="black" points="54.5,-70.1 51,-60.1 47.5,-70.1 54.5,-70.1"/>
<g id="a_edge2&#45;headlabel"><a xlink:href="dir_000004_000005.html" target="_top" xlink:title="1">
<text text-anchor="middle" x="57.34" y="-71.2" font-family="Helvetica,sans-Serif" font-size="10.00">1</text>
</a>
</g>
</g>
<!-- dir_01b9d19cbe41c1df0621fc2c25388709 -->
<g id="node3" class="node">
<title>dir_01b9d19cbe41c1df0621fc2c25388709</title>
<g id="a_node3"><a xlink:href="dir_01b9d19cbe41c1df0621fc2c25388709.html" target="_top" xlink:title="CostModel">
<polygon fill="none" stroke="black" points="170,-60 102,-60 102,-24 170,-24 170,-60"/>
<text text-anchor="middle" x="136" y="-39.5" font-family="Helvetica,sans-Serif" font-size="10.00">CostModel</text>
</a>
</g>
</g>
<!-- dir_f20c36435f81221ba9b25f83a87b22d0&#45;&gt;dir_01b9d19cbe41c1df0621fc2c25388709 -->
<g id="edge1" class="edge">
<title>dir_f20c36435f81221ba9b25f83a87b22d0&#45;&gt;dir_01b9d19cbe41c1df0621fc2c25388709</title>
<path fill="none" stroke="black" d="M66.1,-95.7C75.89,-86.88 88.9,-76.03 101.08,-66.47"/>
<polygon fill="black" stroke="black" points="103.56,-68.98 109.34,-60.1 99.28,-63.44 103.56,-68.98"/>
<g id="a_edge1&#45;headlabel"><a xlink:href="dir_000004_000001.html" target="_top" xlink:title="1">
<text text-anchor="middle" x="102.45" y="-70.93" font-family="Helvetica,sans-Serif" font-size="10.00">1</text>
</a>
</g>
</g>
<!-- dir_f7a591d6ca41d118f3e982e7ecfbc4d3 -->
<g id="node4" class="node">
<title>dir_f7a591d6ca41d118f3e982e7ecfbc4d3</title>
<g id="a_node4"><a xlink:href="dir_f7a591d6ca41d118f3e982e7ecfbc4d3.html" target="_top" xlink:title="MVExpr">
<polygon fill="none" stroke="black" points="242,-60 188,-60 188,-24 242,-24 242,-60"/>
<text text-anchor="middle" x="215" y="-39.5" font-family="Helvetica,sans-Serif" font-size="10.00">MVExpr</text>
</a>
</g>
</g>
<!-- dir_f20c36435f81221ba9b25f83a87b22d0&#45;&gt;dir_f7a591d6ca41d118f3e982e7ecfbc4d3 -->
<g id="edge3" class="edge">
<title>dir_f20c36435f81221ba9b25f83a87b22d0&#45;&gt;dir_f7a591d6ca41d118f3e982e7ecfbc4d3</title>
<path fill="none" stroke="black" d="M78.13,-102.21C102.27,-92.52 138.72,-77.64 178.57,-60.1"/>
<polygon fill="black" stroke="black" points="180.21,-63.2 187.94,-55.95 177.38,-56.8 180.21,-63.2"/>
<g id="a_edge3&#45;headlabel"><a xlink:href="dir_000004_000002.html" target="_top" xlink:title="2">
<text text-anchor="middle" x="178.07" y="-64.75" font-family="Helvetica,sans-Serif" font-size="10.00">2</text>
</a>
</g>
</g>
<!-- dir_01b9d19cbe41c1df0621fc2c25388709&#45;&gt;dir_f20c36435f81221ba9b25f83a87b22d0 -->
<g id="edge4" class="edge">
<title>dir_01b9d19cbe41c1df0621fc2c25388709&#45;&gt;dir_f20c36435f81221ba9b25f83a87b22d0</title>
<path fill="none" stroke="black" d="M121.13,-60.1C111.38,-68.89 98.39,-79.73 86.19,-89.31"/>
<polygon fill="black" stroke="black" points="83.7,-86.81 77.93,-95.7 87.98,-92.35 83.7,-86.81"/>
<g id="a_edge4&#45;headlabel"><a xlink:href="dir_000001_000004.html" target="_top" xlink:title="2">
<text text-anchor="middle" x="84.81" y="-79.87" font-family="Helvetica,sans-Serif" font-size="10.00">2</text>
</a>
</g>
</g>
</g>
</svg>
