<?xml version="1.0" encoding="UTF-8" standalone="no"?>
<!DOCTYPE svg PUBLIC "-//W3C//DTD SVG 1.1//EN"
 "http://www.w3.org/Graphics/SVG/1.1/DTD/svg11.dtd">
<!-- Generated by graphviz version 2.43.0 (0)
 -->
<!-- Title: Graphical Class Hierarchy Pages: 1 -->
<svg width="318pt" height="66pt"
 viewBox="0.00 0.00 318.00 66.00" xmlns="http://www.w3.org/2000/svg" xmlns:xlink="http://www.w3.org/1999/xlink">
<g id="graph0" class="graph" transform="scale(1 1) rotate(0) translate(4 62)">
<title>Graphical Class Hierarchy</title>
<!-- Node0 -->
<g id="node1" class="node">
<title>Node0</title>
<g id="a_node1"><a xlink:href="classPragmaHandler.html" target="_top" xlink:title=" ">
<polygon fill="none" stroke="black" points="0,-19.5 0,-38.5 92,-38.5 92,-19.5 0,-19.5"/>
<text text-anchor="middle" x="46" y="-26.5" font-family="Helvetica,sans-Serif" font-size="10.00">PragmaHandler</text>
</a>
</g>
</g>
<!-- Node1 -->
<g id="node2" class="node">
<title>Node1</title>
<g id="a_node2"><a xlink:href="structmacveth_1_1PragmaEndScopHandler.html" target="_top" xlink:title="Handle pragmas of the form.">
<polygon fill="none" stroke="black" points="128,-38.5 128,-57.5 310,-57.5 310,-38.5 128,-38.5"/>
<text text-anchor="middle" x="219" y="-45.5" font-family="Helvetica,sans-Serif" font-size="10.00">macveth::PragmaEndScopHandler</text>
</a>
</g>
</g>
<!-- Node0&#45;&gt;Node1 -->
<g id="edge1" class="edge">
<title>Node0&#45;&gt;Node1</title>
<path fill="none" stroke="midnightblue" d="M102.51,-35.17C112.08,-36.23 122.23,-37.36 132.38,-38.49"/>
<polygon fill="midnightblue" stroke="midnightblue" points="102.7,-31.67 92.38,-34.04 101.93,-38.62 102.7,-31.67"/>
</g>
<!-- Node2 -->
<g id="node3" class="node">
<title>Node2</title>
<g id="a_node3"><a xlink:href="structmacveth_1_1PragmaScopHandler.html" target="_top" xlink:title="Handle pragmas of the form.">
<polygon fill="none" stroke="black" points="137,-0.5 137,-19.5 301,-19.5 301,-0.5 137,-0.5"/>
<text text-anchor="middle" x="219" y="-7.5" font-family="Helvetica,sans-Serif" font-size="10.00">macveth::PragmaScopHandler</text>
</a>
</g>
</g>
<!-- Node0&#45;&gt;Node2 -->
<g id="edge2" class="edge">
<title>Node0&#45;&gt;Node2</title>
<path fill="none" stroke="midnightblue" d="M102.58,-22.82C113.49,-21.61 125.14,-20.32 136.69,-19.03"/>
<polygon fill="midnightblue" stroke="midnightblue" points="101.93,-19.38 92.38,-23.96 102.7,-26.33 101.93,-19.38"/>
</g>
</g>
</svg>
