<?xml version="1.0" encoding="UTF-8" standalone="no"?>
<!DOCTYPE svg PUBLIC "-//W3C//DTD SVG 1.1//EN"
 "http://www.w3.org/Graphics/SVG/1.1/DTD/svg11.dtd">
<!-- Generated by graphviz version 2.43.0 (0)
 -->
<!-- Title: Graphical Class Hierarchy Pages: 1 -->
<svg width="281pt" height="104pt"
 viewBox="0.00 0.00 281.00 104.00" xmlns="http://www.w3.org/2000/svg" xmlns:xlink="http://www.w3.org/1999/xlink">
<g id="graph0" class="graph" transform="scale(1 1) rotate(0) translate(4 100)">
<title>Graphical Class Hierarchy</title>
<!-- Node0 -->
<g id="node1" class="node">
<title>Node0</title>
<g id="a_node1"><a xlink:href="classmacveth_1_1MVExpr.html" target="_top" xlink:title="Expressions in MACVETH inherit from MVExpr.">
<polygon fill="none" stroke="black" points="0,-38.5 0,-57.5 103,-57.5 103,-38.5 0,-38.5"/>
<text text-anchor="middle" x="51.5" y="-45.5" font-family="Helvetica,sans-Serif" font-size="10.00">macveth::MVExpr</text>
</a>
</g>
</g>
<!-- Node1 -->
<g id="node2" class="node">
<title>Node1</title>
<g id="a_node2"><a xlink:href="classmacveth_1_1MVExprArray.html" target="_top" xlink:title="Abstraction of arrays for simplicity.">
<polygon fill="none" stroke="black" points="141.5,-76.5 141.5,-95.5 270.5,-95.5 270.5,-76.5 141.5,-76.5"/>
<text text-anchor="middle" x="206" y="-83.5" font-family="Helvetica,sans-Serif" font-size="10.00">macveth::MVExprArray</text>
</a>
</g>
</g>
<!-- Node0&#45;&gt;Node1 -->
<g id="edge1" class="edge">
<title>Node0&#45;&gt;Node1</title>
<path fill="none" stroke="midnightblue" d="M100.82,-60.04C122.12,-65.35 146.8,-71.5 166.79,-76.48"/>
<polygon fill="midnightblue" stroke="midnightblue" points="101.53,-56.61 90.98,-57.59 99.84,-63.4 101.53,-56.61"/>
</g>
<!-- Node2 -->
<g id="node3" class="node">
<title>Node2</title>
<g id="a_node3"><a xlink:href="classmacveth_1_1MVExprLiteral.html" target="_top" xlink:title="Abstraction of variables for simplicity.">
<polygon fill="none" stroke="black" points="139,-38.5 139,-57.5 273,-57.5 273,-38.5 139,-38.5"/>
<text text-anchor="middle" x="206" y="-45.5" font-family="Helvetica,sans-Serif" font-size="10.00">macveth::MVExprLiteral</text>
</a>
</g>
</g>
<!-- Node0&#45;&gt;Node2 -->
<g id="edge2" class="edge">
<title>Node0&#45;&gt;Node2</title>
<path fill="none" stroke="midnightblue" d="M113.39,-48C121.8,-48 130.48,-48 138.98,-48"/>
<polygon fill="midnightblue" stroke="midnightblue" points="113.28,-44.5 103.28,-48 113.28,-51.5 113.28,-44.5"/>
</g>
<!-- Node3 -->
<g id="node4" class="node">
<title>Node3</title>
<g id="a_node4"><a xlink:href="classmacveth_1_1MVExprVar.html" target="_top" xlink:title="Abstraction of variables for simplicity.">
<polygon fill="none" stroke="black" points="146.5,-0.5 146.5,-19.5 265.5,-19.5 265.5,-0.5 146.5,-0.5"/>
<text text-anchor="middle" x="206" y="-7.5" font-family="Helvetica,sans-Serif" font-size="10.00">macveth::MVExprVar</text>
</a>
</g>
</g>
<!-- Node0&#45;&gt;Node3 -->
<g id="edge3" class="edge">
<title>Node0&#45;&gt;Node3</title>
<path fill="none" stroke="midnightblue" d="M100.82,-35.96C122.12,-30.65 146.8,-24.5 166.79,-19.52"/>
<polygon fill="midnightblue" stroke="midnightblue" points="99.84,-32.6 90.98,-38.41 101.53,-39.39 99.84,-32.6"/>
</g>
</g>
</svg>
