<?xml version="1.0" encoding="UTF-8" standalone="no"?>
<!DOCTYPE svg PUBLIC "-//W3C//DTD SVG 1.1//EN"
 "http://www.w3.org/Graphics/SVG/1.1/DTD/svg11.dtd">
<!-- Generated by graphviz version 2.43.0 (0)
 -->
<!-- Title: include/MVAssert.h Pages: 1 -->
<svg width="772pt" height="576pt"
 viewBox="0.00 0.00 772.00 576.00" xmlns="http://www.w3.org/2000/svg" xmlns:xlink="http://www.w3.org/1999/xlink">
<g id="graph0" class="graph" transform="scale(1 1) rotate(0) translate(4 572)">
<title>include/MVAssert.h</title>
<!-- Node1 -->
<g id="node1" class="node">
<title>Node1</title>
<g id="a_node1"><a xlink:title=" ">
<polygon fill="#bfbfbf" stroke="black" points="538.5,-548.5 538.5,-567.5 648.5,-567.5 648.5,-548.5 538.5,-548.5"/>
<text text-anchor="middle" x="593.5" y="-555.5" font-family="Helvetica,sans-Serif" font-size="10.00">include/MVAssert.h</text>
</a>
</g>
</g>
<!-- Node2 -->
<g id="node2" class="node">
<title>Node2</title>
<g id="a_node2"><a xlink:href="MVOps_8h.html" target="_top" xlink:title=" ">
<polygon fill="none" stroke="black" points="506.5,-492.5 506.5,-511.5 604.5,-511.5 604.5,-492.5 506.5,-492.5"/>
<text text-anchor="middle" x="555.5" y="-499.5" font-family="Helvetica,sans-Serif" font-size="10.00">include/MVOps.h</text>
</a>
</g>
</g>
<!-- Node1&#45;&gt;Node2 -->
<g id="edge1" class="edge">
<title>Node1&#45;&gt;Node2</title>
<path fill="none" stroke="midnightblue" d="M581.44,-539.86C574.86,-530.5 566.99,-519.33 561.66,-511.75"/>
<polygon fill="midnightblue" stroke="midnightblue" points="578.61,-541.92 587.23,-548.08 584.33,-537.89 578.61,-541.92"/>
</g>
<!-- Node17 -->
<g id="node17" class="node">
<title>Node17</title>
<g id="a_node17"><a xlink:href="MVPragmaHandler_8h.html" target="_top" xlink:title=" ">
<polygon fill="none" stroke="black" points="608,-436.5 608,-455.5 763,-455.5 763,-436.5 608,-436.5"/>
<text text-anchor="middle" x="685.5" y="-443.5" font-family="Helvetica,sans-Serif" font-size="10.00">include/MVPragmaHandler.h</text>
</a>
</g>
</g>
<!-- Node1&#45;&gt;Node17 -->
<g id="edge29" class="edge">
<title>Node1&#45;&gt;Node17</title>
<path fill="none" stroke="midnightblue" d="M607.23,-540.59C627.06,-516.87 663.03,-473.87 678.31,-455.59"/>
<polygon fill="midnightblue" stroke="midnightblue" points="604.45,-538.45 600.72,-548.37 609.82,-542.94 604.45,-538.45"/>
</g>
<!-- Node3 -->
<g id="node3" class="node">
<title>Node3</title>
<g id="a_node3"><a xlink:href="TAC_8h.html" target="_top" xlink:title=" ">
<polygon fill="none" stroke="black" points="484,-436.5 484,-455.5 567,-455.5 567,-436.5 484,-436.5"/>
<text text-anchor="middle" x="525.5" y="-443.5" font-family="Helvetica,sans-Serif" font-size="10.00">include/TAC.h</text>
</a>
</g>
</g>
<!-- Node2&#45;&gt;Node3 -->
<g id="edge2" class="edge">
<title>Node2&#45;&gt;Node3</title>
<path fill="none" stroke="midnightblue" d="M545.65,-483.27C540.53,-474.05 534.48,-463.17 530.36,-455.75"/>
<polygon fill="midnightblue" stroke="midnightblue" points="542.63,-485.04 550.55,-492.08 548.75,-481.64 542.63,-485.04"/>
</g>
<!-- Node4 -->
<g id="node4" class="node">
<title>Node4</title>
<g id="a_node4"><a xlink:href="CDAG_8h.html" target="_top" xlink:title=" ">
<polygon fill="none" stroke="black" points="418.5,-263 418.5,-282 510.5,-282 510.5,-263 418.5,-263"/>
<text text-anchor="middle" x="464.5" y="-270" font-family="Helvetica,sans-Serif" font-size="10.00">include/CDAG.h</text>
</a>
</g>
</g>
<!-- Node3&#45;&gt;Node4 -->
<g id="edge3" class="edge">
<title>Node3&#45;&gt;Node4</title>
<path fill="none" stroke="midnightblue" d="M519.03,-426.81C505.98,-390.13 476.97,-308.55 467.53,-282.02"/>
<polygon fill="midnightblue" stroke="midnightblue" points="515.74,-428.01 522.39,-436.26 522.34,-425.66 515.74,-428.01"/>
</g>
<!-- Node14 -->
<g id="node14" class="node">
<title>Node14</title>
<g id="a_node14"><a xlink:href="Node_8h.html" target="_top" xlink:title=" ">
<polygon fill="none" stroke="black" points="384,-324.5 384,-343.5 473,-343.5 473,-324.5 384,-324.5"/>
<text text-anchor="middle" x="428.5" y="-331.5" font-family="Helvetica,sans-Serif" font-size="10.00">include/Node.h</text>
</a>
</g>
</g>
<!-- Node3&#45;&gt;Node14 -->
<g id="edge18" class="edge">
<title>Node3&#45;&gt;Node14</title>
<path fill="none" stroke="midnightblue" d="M511.03,-428.59C490.11,-404.87 452.19,-361.87 436.08,-343.59"/>
<polygon fill="midnightblue" stroke="midnightblue" points="508.65,-431.18 517.89,-436.37 513.9,-426.55 508.65,-431.18"/>
</g>
<!-- Node16 -->
<g id="node16" class="node">
<title>Node16</title>
<g id="a_node16"><a xlink:href="StmtWrapper_8h.html" target="_top" xlink:title=" ">
<polygon fill="none" stroke="black" points="529.5,-380.5 529.5,-399.5 657.5,-399.5 657.5,-380.5 529.5,-380.5"/>
<text text-anchor="middle" x="593.5" y="-387.5" font-family="Helvetica,sans-Serif" font-size="10.00">include/StmtWrapper.h</text>
</a>
</g>
</g>
<!-- Node3&#45;&gt;Node16 -->
<g id="edge24" class="edge">
<title>Node3&#45;&gt;Node16</title>
<path fill="none" stroke="midnightblue" d="M544.26,-430.1C556.5,-420.38 572.06,-408.03 582.38,-399.83"/>
<polygon fill="midnightblue" stroke="midnightblue" points="542.08,-427.36 536.43,-436.32 546.43,-432.85 542.08,-427.36"/>
</g>
<!-- Node5 -->
<g id="node5" class="node">
<title>Node5</title>
<g id="a_node5"><a xlink:href="MVFrontend_8h.html" target="_top" xlink:title=" ">
<polygon fill="none" stroke="black" points="573.5,-62 573.5,-81 695.5,-81 695.5,-62 573.5,-62"/>
<text text-anchor="middle" x="634.5" y="-69" font-family="Helvetica,sans-Serif" font-size="10.00">include/MVFrontend.h</text>
</a>
</g>
</g>
<!-- Node4&#45;&gt;Node5 -->
<g id="edge4" class="edge">
<title>Node4&#45;&gt;Node5</title>
<path fill="none" stroke="midnightblue" d="M468.09,-252.8C474.87,-222.1 492.24,-160.65 528.5,-123 548.72,-102 579.43,-88.71 602.59,-81.06"/>
<polygon fill="midnightblue" stroke="midnightblue" points="464.59,-252.45 466,-262.95 471.45,-253.87 464.59,-252.45"/>
</g>
<!-- Node7 -->
<g id="node7" class="node">
<title>Node7</title>
<g id="a_node7"><a xlink:href="MVRewriter_8h.html" target="_top" xlink:title=" ">
<polygon fill="none" stroke="black" points="537.5,-129 537.5,-148 657.5,-148 657.5,-129 537.5,-129"/>
<text text-anchor="middle" x="597.5" y="-136" font-family="Helvetica,sans-Serif" font-size="10.00">include/MVRewriter.h</text>
</a>
</g>
</g>
<!-- Node4&#45;&gt;Node7 -->
<g id="edge6" class="edge">
<title>Node4&#45;&gt;Node7</title>
<path fill="none" stroke="midnightblue" d="M480.36,-255.76C508.67,-227.66 566.99,-169.78 588.91,-148.02"/>
<polygon fill="midnightblue" stroke="midnightblue" points="477.86,-253.31 473.23,-262.84 482.79,-258.28 477.86,-253.31"/>
</g>
<!-- Node8 -->
<g id="node8" class="node">
<title>Node8</title>
<g id="a_node8"><a xlink:href="PlcmntAlgo_8h.html" target="_top" xlink:title=" ">
<polygon fill="none" stroke="black" points="324,-196 324,-215 443,-215 443,-196 324,-196"/>
<text text-anchor="middle" x="383.5" y="-203" font-family="Helvetica,sans-Serif" font-size="10.00">include/PlcmntAlgo.h</text>
</a>
</g>
</g>
<!-- Node4&#45;&gt;Node8 -->
<g id="edge8" class="edge">
<title>Node4&#45;&gt;Node8</title>
<path fill="none" stroke="midnightblue" d="M445.45,-256.21C429.49,-243.41 407.29,-225.59 394.25,-215.13"/>
<polygon fill="midnightblue" stroke="midnightblue" points="443.59,-259.2 453.58,-262.73 447.97,-253.75 443.59,-259.2"/>
</g>
<!-- Node9 -->
<g id="node9" class="node">
<title>Node9</title>
<g id="a_node9"><a xlink:href="SIMDBackEnd_8h.html" target="_top" xlink:title=" ">
<polygon fill="none" stroke="black" points="181,-190.5 181,-220.5 306,-220.5 306,-190.5 181,-190.5"/>
<text text-anchor="start" x="189" y="-208.5" font-family="Helvetica,sans-Serif" font-size="10.00">include/Vectorization</text>
<text text-anchor="middle" x="243.5" y="-197.5" font-family="Helvetica,sans-Serif" font-size="10.00">/SIMD/SIMDBackEnd.h</text>
</a>
</g>
</g>
<!-- Node4&#45;&gt;Node9 -->
<g id="edge9" class="edge">
<title>Node4&#45;&gt;Node9</title>
<path fill="none" stroke="midnightblue" d="M425.12,-259.92C387.64,-248.9 331.2,-232.29 291.2,-220.53"/>
<polygon fill="midnightblue" stroke="midnightblue" points="424.57,-263.4 435.15,-262.87 426.55,-256.69 424.57,-263.4"/>
</g>
<!-- Node6 -->
<g id="node6" class="node">
<title>Node6</title>
<g id="a_node6"><a xlink:href="macveth_8cpp.html" target="_top" xlink:title=" ">
<polygon fill="none" stroke="black" points="669,-0.5 669,-19.5 764,-19.5 764,-0.5 669,-0.5"/>
<text text-anchor="middle" x="716.5" y="-7.5" font-family="Helvetica,sans-Serif" font-size="10.00">lib/macveth.cpp</text>
</a>
</g>
</g>
<!-- Node5&#45;&gt;Node6 -->
<g id="edge5" class="edge">
<title>Node5&#45;&gt;Node6</title>
<path fill="none" stroke="midnightblue" d="M654.77,-55.79C670.5,-44.38 691.75,-28.96 704.77,-19.51"/>
<polygon fill="midnightblue" stroke="midnightblue" points="652.29,-53.27 646.25,-61.98 656.4,-58.93 652.29,-53.27"/>
</g>
<!-- Node7&#45;&gt;Node5 -->
<g id="edge7" class="edge">
<title>Node7&#45;&gt;Node5</title>
<path fill="none" stroke="midnightblue" d="M607.44,-120.03C614.61,-107.45 623.97,-91.01 629.59,-81.13"/>
<polygon fill="midnightblue" stroke="midnightblue" points="604.4,-118.31 602.49,-128.73 610.48,-121.77 604.4,-118.31"/>
</g>
<!-- Node9&#45;&gt;Node5 -->
<g id="edge13" class="edge">
<title>Node9&#45;&gt;Node5</title>
<path fill="none" stroke="midnightblue" d="M302.7,-187.52C331.68,-178.59 366.84,-166.85 397.5,-154 425.18,-142.4 429.6,-134.06 457.5,-123 504.14,-104.51 560.14,-89.71 596.49,-81.02"/>
<polygon fill="midnightblue" stroke="midnightblue" points="301.68,-184.17 293.13,-190.43 303.72,-190.87 301.68,-184.17"/>
</g>
<!-- Node9&#45;&gt;Node7 -->
<g id="edge14" class="edge">
<title>Node9&#45;&gt;Node7</title>
<path fill="none" stroke="midnightblue" d="M316.22,-189.69C402.99,-173.18 493.09,-157.41 547.59,-148.02"/>
<polygon fill="midnightblue" stroke="midnightblue" points="315.37,-186.29 306.2,-191.61 316.68,-193.17 315.37,-186.29"/>
</g>
<!-- Node10 -->
<g id="node10" class="node">
<title>Node10</title>
<g id="a_node10"><a xlink:href="MVCostModel_8h.html" target="_top" xlink:title=" ">
<polygon fill="none" stroke="black" points="322,-56.5 322,-86.5 469,-86.5 469,-56.5 322,-56.5"/>
<text text-anchor="start" x="330" y="-74.5" font-family="Helvetica,sans-Serif" font-size="10.00">include/CostModel/MVCost</text>
<text text-anchor="middle" x="395.5" y="-63.5" font-family="Helvetica,sans-Serif" font-size="10.00">Model.h</text>
</a>
</g>
</g>
<!-- Node9&#45;&gt;Node10 -->
<g id="edge10" class="edge">
<title>Node9&#45;&gt;Node10</title>
<path fill="none" stroke="midnightblue" d="M303.87,-187.39C333.66,-177.8 365.36,-165.5 375.5,-154 392.18,-135.1 395.45,-104.53 395.82,-86.69"/>
<polygon fill="midnightblue" stroke="midnightblue" points="302.78,-184.06 294.29,-190.4 304.88,-190.74 302.78,-184.06"/>
</g>
<!-- Node11 -->
<g id="node11" class="node">
<title>Node11</title>
<g id="a_node11"><a xlink:href="SIMDCostInfo_8h.html" target="_top" xlink:title=" ">
<polygon fill="none" stroke="black" points="210,-123.5 210,-153.5 367,-153.5 367,-123.5 210,-123.5"/>
<text text-anchor="start" x="218" y="-141.5" font-family="Helvetica,sans-Serif" font-size="10.00">include/CostModel/SIMDCost</text>
<text text-anchor="middle" x="288.5" y="-130.5" font-family="Helvetica,sans-Serif" font-size="10.00">Info.h</text>
</a>
</g>
</g>
<!-- Node9&#45;&gt;Node11 -->
<g id="edge11" class="edge">
<title>Node9&#45;&gt;Node11</title>
<path fill="none" stroke="midnightblue" d="M258.97,-182.16C265.53,-172.68 272.98,-161.92 278.75,-153.58"/>
<polygon fill="midnightblue" stroke="midnightblue" points="256.08,-180.18 253.26,-190.4 261.83,-184.17 256.08,-180.18"/>
</g>
<!-- Node12 -->
<g id="node12" class="node">
<title>Node12</title>
<g id="a_node12"><a xlink:href="AVX2BackEnd_8h.html" target="_top" xlink:title=" ">
<polygon fill="none" stroke="black" points="0,-123.5 0,-153.5 153,-153.5 153,-123.5 0,-123.5"/>
<text text-anchor="start" x="8" y="-141.5" font-family="Helvetica,sans-Serif" font-size="10.00">include/Vectorization</text>
<text text-anchor="middle" x="76.5" y="-130.5" font-family="Helvetica,sans-Serif" font-size="10.00">/SIMD/AVX2/AVX2BackEnd.h</text>
</a>
</g>
</g>
<!-- Node9&#45;&gt;Node12 -->
<g id="edge15" class="edge">
<title>Node9&#45;&gt;Node12</title>
<path fill="none" stroke="midnightblue" d="M197.72,-186.68C170.94,-176.26 137.6,-163.28 112.67,-153.58"/>
<polygon fill="midnightblue" stroke="midnightblue" points="196.67,-190.03 207.26,-190.4 199.21,-183.51 196.67,-190.03"/>
</g>
<!-- Node13 -->
<g id="node13" class="node">
<title>Node13</title>
<g id="a_node13"><a xlink:href="SIMDBackEndFactory_8h.html" target="_top" xlink:title=" ">
<polygon fill="none" stroke="black" points="50.5,-56.5 50.5,-86.5 208.5,-86.5 208.5,-56.5 50.5,-56.5"/>
<text text-anchor="start" x="58.5" y="-74.5" font-family="Helvetica,sans-Serif" font-size="10.00">include/Vectorization</text>
<text text-anchor="middle" x="129.5" y="-63.5" font-family="Helvetica,sans-Serif" font-size="10.00">/SIMD/SIMDBackEndFactory.h</text>
</a>
</g>
</g>
<!-- Node9&#45;&gt;Node13 -->
<g id="edge17" class="edge">
<title>Node9&#45;&gt;Node13</title>
<path fill="none" stroke="midnightblue" d="M224.54,-182.54C200.97,-155.25 161.44,-109.48 141.61,-86.52"/>
<polygon fill="midnightblue" stroke="midnightblue" points="222.11,-185.09 231.3,-190.37 227.41,-180.52 222.11,-185.09"/>
</g>
<!-- Node11&#45;&gt;Node10 -->
<g id="edge12" class="edge">
<title>Node11&#45;&gt;Node10</title>
<path fill="none" stroke="midnightblue" d="M320.58,-118.02C337.23,-107.9 357.19,-95.77 372.33,-86.58"/>
<polygon fill="midnightblue" stroke="midnightblue" points="318.45,-115.21 311.72,-123.4 322.08,-121.2 318.45,-115.21"/>
</g>
<!-- Node12&#45;&gt;Node13 -->
<g id="edge16" class="edge">
<title>Node12&#45;&gt;Node13</title>
<path fill="none" stroke="midnightblue" d="M94.48,-115.45C102.27,-105.9 111.15,-95 118.02,-86.58"/>
<polygon fill="midnightblue" stroke="midnightblue" points="91.61,-113.43 88,-123.4 97.03,-117.86 91.61,-113.43"/>
</g>
<!-- Node14&#45;&gt;Node4 -->
<g id="edge19" class="edge">
<title>Node14&#45;&gt;Node4</title>
<path fill="none" stroke="midnightblue" d="M438.98,-315.67C445.68,-304.61 454.06,-290.75 459.35,-282.01"/>
<polygon fill="midnightblue" stroke="midnightblue" points="435.84,-314.11 433.66,-324.48 441.83,-317.73 435.84,-314.11"/>
</g>
<!-- Node14&#45;&gt;Node8 -->
<g id="edge20" class="edge">
<title>Node14&#45;&gt;Node8</title>
<path fill="none" stroke="midnightblue" d="M420.53,-315.17C416.98,-306.97 412.85,-297.06 409.5,-288 399.82,-261.81 390.33,-230.13 385.98,-215.15"/>
<polygon fill="midnightblue" stroke="midnightblue" points="417.39,-316.72 424.62,-324.47 423.8,-313.9 417.39,-316.72"/>
</g>
<!-- Node15 -->
<g id="node15" class="node">
<title>Node15</title>
<g id="a_node15"><a xlink:href="VectorIR_8h.html" target="_top" xlink:title=" ">
<polygon fill="none" stroke="black" points="184,-257.5 184,-287.5 303,-287.5 303,-257.5 184,-257.5"/>
<text text-anchor="start" x="192" y="-275.5" font-family="Helvetica,sans-Serif" font-size="10.00">include/Vectorization</text>
<text text-anchor="middle" x="243.5" y="-264.5" font-family="Helvetica,sans-Serif" font-size="10.00">/VectorIR.h</text>
</a>
</g>
</g>
<!-- Node14&#45;&gt;Node15 -->
<g id="edge21" class="edge">
<title>Node14&#45;&gt;Node15</title>
<path fill="none" stroke="midnightblue" d="M392.3,-321.36C362.15,-311.66 319.14,-297.83 287.1,-287.52"/>
<polygon fill="midnightblue" stroke="midnightblue" points="391.4,-324.75 401.99,-324.48 393.55,-318.08 391.4,-324.75"/>
</g>
<!-- Node15&#45;&gt;Node9 -->
<g id="edge23" class="edge">
<title>Node15&#45;&gt;Node9</title>
<path fill="none" stroke="midnightblue" d="M243.5,-247.11C243.5,-238.15 243.5,-228.32 243.5,-220.58"/>
<polygon fill="midnightblue" stroke="midnightblue" points="240,-247.4 243.5,-257.4 247,-247.4 240,-247.4"/>
</g>
<!-- Node15&#45;&gt;Node12 -->
<g id="edge22" class="edge">
<title>Node15&#45;&gt;Node12</title>
<path fill="none" stroke="midnightblue" d="M214.03,-251.79C200.81,-242.7 185.15,-231.6 171.5,-221 142.5,-198.47 110.38,-170.17 91.91,-153.54"/>
<polygon fill="midnightblue" stroke="midnightblue" points="212.08,-254.7 222.32,-257.44 216.03,-248.91 212.08,-254.7"/>
</g>
<!-- Node16&#45;&gt;Node5 -->
<g id="edge26" class="edge">
<title>Node16&#45;&gt;Node5</title>
<path fill="none" stroke="midnightblue" d="M601.23,-370.83C617.29,-331.94 653.85,-237.39 666.5,-154 668.57,-140.38 670.34,-136.23 666.5,-123 661.76,-106.65 649.96,-90.52 642.09,-81.04"/>
<polygon fill="midnightblue" stroke="midnightblue" points="597.91,-369.69 597.28,-380.26 604.37,-372.39 597.91,-369.69"/>
</g>
<!-- Node16&#45;&gt;Node7 -->
<g id="edge27" class="edge">
<title>Node16&#45;&gt;Node7</title>
<path fill="none" stroke="midnightblue" d="M593.8,-370.34C594.6,-320.14 596.79,-183.6 597.36,-148.05"/>
<polygon fill="midnightblue" stroke="midnightblue" points="590.3,-370.36 593.64,-380.41 597.3,-370.47 590.3,-370.36"/>
</g>
<!-- Node16&#45;&gt;Node10 -->
<g id="edge25" class="edge">
<title>Node16&#45;&gt;Node10</title>
<path fill="none" stroke="midnightblue" d="M584.18,-371.32C570.56,-345.75 544.16,-297.11 519.5,-257 479.47,-191.91 427.18,-117.14 405.55,-86.6"/>
<polygon fill="midnightblue" stroke="midnightblue" points="581.11,-373.02 588.89,-380.21 587.3,-369.74 581.11,-373.02"/>
</g>
<!-- Node16&#45;&gt;Node14 -->
<g id="edge28" class="edge">
<title>Node16&#45;&gt;Node14</title>
<path fill="none" stroke="midnightblue" d="M557.76,-377.3C526.67,-367.13 482.35,-352.62 454.52,-343.52"/>
<polygon fill="midnightblue" stroke="midnightblue" points="556.76,-380.66 567.36,-380.44 558.94,-374.01 556.76,-380.66"/>
</g>
<!-- Node17&#45;&gt;Node5 -->
<g id="edge30" class="edge">
<title>Node17&#45;&gt;Node5</title>
<path fill="none" stroke="midnightblue" d="M695.64,-427.43C706.9,-406.24 723.5,-369.19 723.5,-335 723.5,-335 723.5,-335 723.5,-204.5 723.5,-149.5 669.72,-100.24 645.77,-81.04"/>
<polygon fill="midnightblue" stroke="midnightblue" points="692.55,-425.78 690.78,-436.23 698.68,-429.17 692.55,-425.78"/>
</g>
<!-- Node17&#45;&gt;Node6 -->
<g id="edge33" class="edge">
<title>Node17&#45;&gt;Node6</title>
<path fill="none" stroke="midnightblue" d="M705.02,-429.85C727.54,-410.5 761.5,-374.72 761.5,-335 761.5,-335 761.5,-335 761.5,-137.5 761.5,-90.65 733.76,-39.38 721.84,-19.52"/>
<polygon fill="midnightblue" stroke="midnightblue" points="702.52,-427.37 697.04,-436.43 706.98,-432.76 702.52,-427.37"/>
</g>
<!-- Node17&#45;&gt;Node7 -->
<g id="edge31" class="edge">
<title>Node17&#45;&gt;Node7</title>
<path fill="none" stroke="midnightblue" d="M685.5,-426.25C685.5,-404.36 685.5,-367.05 685.5,-335 685.5,-335 685.5,-335 685.5,-271.5 685.5,-216.69 632.32,-167.33 608.65,-148.07"/>
<polygon fill="midnightblue" stroke="midnightblue" points="682,-426.44 685.5,-436.44 689,-426.44 682,-426.44"/>
</g>
<!-- Node17&#45;&gt;Node16 -->
<g id="edge32" class="edge">
<title>Node17&#45;&gt;Node16</title>
<path fill="none" stroke="midnightblue" d="M661.95,-431.18C645.02,-421.24 622.72,-408.15 608.24,-399.65"/>
<polygon fill="midnightblue" stroke="midnightblue" points="660.32,-434.28 670.72,-436.32 663.87,-428.24 660.32,-434.28"/>
</g>
</g>
</svg>
