<?xml version="1.0" encoding="UTF-8" standalone="no"?>
<!DOCTYPE svg PUBLIC "-//W3C//DTD SVG 1.1//EN"
 "http://www.w3.org/Graphics/SVG/1.1/DTD/svg11.dtd">
<!-- Generated by graphviz version 2.43.0 (0)
 -->
<!-- Title: include/MVExpr/MVDataType.h Pages: 1 -->
<!--zoomable 587 -->
<svg id="main" version="1.1" xmlns="http://www.w3.org/2000/svg" xmlns:xlink="http://www.w3.org/1999/xlink" xml:space="preserve" onload="init(evt)">
<style type="text/css"><![CDATA[
.edge:hover path { stroke: red; }
.edge:hover polygon { stroke: red; fill: red; }
]]></style>
<script type="text/javascript"><![CDATA[
var edges = document.getElementsByTagName('g');
if (edges && edges.length) {
  for (var i=0;i<edges.length;i++) {
    if (edges[i].id.substr(0,4)=='edge') {
      edges[i].setAttribute('class','edge');
    }
  }
}
]]></script>
        <defs>
                <circle id="rim" cx="0" cy="0" r="7"/>
                <circle id="rim2" cx="0" cy="0" r="3.5"/>
                <g id="zoomPlus">
                        <use xlink:href="#rim" fill="#404040">
                                <set attributeName="fill" to="#808080" begin="zoomplus.mouseover" end="zoomplus.mouseout"/>
                        </use>
                        <path d="M-4,0h8M0,-4v8" fill="none" stroke="white" stroke-width="1.5" pointer-events="none"/>
                </g>
                <g id="zoomMin">
                        <use xlink:href="#rim" fill="#404040">
                                <set attributeName="fill" to="#808080" begin="zoomminus.mouseover" end="zoomminus.mouseout"/>
                        </use>
                        <path d="M-4,0h8" fill="none" stroke="white" stroke-width="1.5" pointer-events="none"/>
                </g>
                <g id="dirArrow">
                        <path fill="none" stroke="white" stroke-width="1.5" d="M0,-3.0v7 M-2.5,-0.5L0,-3.0L2.5,-0.5"/>
                </g>
               <g id="resetDef">
                       <use xlink:href="#rim2" fill="#404040">
                               <set attributeName="fill" to="#808080" begin="reset.mouseover" end="reset.mouseout"/>
                       </use>
               </g>
        </defs>

<script type="text/javascript">
var viewWidth = 993;
var viewHeight = 587;
var sectionId = 'dynsection-1';
</script>
<script xlink:href="svgpan.js"/>
<svg id="graph" class="graph">
<g id="viewport">
<title>include/MVExpr/MVDataType.h</title>
<!-- Node1 -->
<g id="node1" class="node">
<title>Node1</title>
<g id="a_node1"><a xlink:title=" ">
<polygon fill="#bfbfbf" stroke="black" points="672.5,-559.5 672.5,-578.5 838.5,-578.5 838.5,-559.5 672.5,-559.5"/>
<text text-anchor="middle" x="755.5" y="-566.5" font-family="Helvetica,sans-Serif" font-size="10.00">include/MVExpr/MVDataType.h</text>
</a>
</g>
</g>
<!-- Node2 -->
<g id="node2" class="node">
<title>Node2</title>
<g id="a_node2"><a xlink:href="MVExpr_8h.html" target="_top" xlink:title=" ">
<polygon fill="none" stroke="black" points="386,-503.5 386,-522.5 527,-522.5 527,-503.5 386,-503.5"/>
<text text-anchor="middle" x="456.5" y="-510.5" font-family="Helvetica,sans-Serif" font-size="10.00">include/MVExpr/MVExpr.h</text>
</a>
</g>
</g>
<!-- Node1&#45;&gt;Node2 -->
<g id="edge1" class="edge">
<title>Node1&#45;&gt;Node2</title>
<path fill="none" stroke="midnightblue" d="M698.27,-557.66C641.76,-547.46 556.38,-532.04 503.66,-522.52"/>
<polygon fill="midnightblue" stroke="midnightblue" points="697.66,-561.11 708.12,-559.44 698.9,-554.22 697.66,-561.11"/>
</g>
<!-- Node4 -->
<g id="node4" class="node">
<title>Node4</title>
<g id="a_node4"><a xlink:href="VectorIR_8h.html" target="_top" xlink:title=" ">
<polygon fill="none" stroke="black" points="621,-257.5 621,-287.5 740,-287.5 740,-257.5 621,-257.5"/>
<text text-anchor="start" x="629" y="-275.5" font-family="Helvetica,sans-Serif" font-size="10.00">include/Vectorization</text>
<text text-anchor="middle" x="680.5" y="-264.5" font-family="Helvetica,sans-Serif" font-size="10.00">/VectorIR.h</text>
</a>
</g>
</g>
<!-- Node1&#45;&gt;Node4 -->
<g id="edge41" class="edge">
<title>Node1&#45;&gt;Node4</title>
<path fill="none" stroke="midnightblue" d="M757.92,-549.48C762.59,-507.14 769.4,-400.97 732.5,-324 725.48,-309.36 712.33,-296.65 701.01,-287.65"/>
<polygon fill="midnightblue" stroke="midnightblue" points="754.44,-549.1 756.72,-559.45 761.39,-549.94 754.44,-549.1"/>
</g>
<!-- Node7 -->
<g id="node7" class="node">
<title>Node7</title>
<g id="a_node7"><a xlink:href="SIMDBackEnd_8h.html" target="_top" xlink:title=" ">
<polygon fill="none" stroke="black" points="618,-190.5 618,-220.5 743,-220.5 743,-190.5 618,-190.5"/>
<text text-anchor="start" x="626" y="-208.5" font-family="Helvetica,sans-Serif" font-size="10.00">include/Vectorization</text>
<text text-anchor="middle" x="680.5" y="-197.5" font-family="Helvetica,sans-Serif" font-size="10.00">/SIMD/SIMDBackEnd.h</text>
</a>
</g>
</g>
<!-- Node1&#45;&gt;Node7 -->
<g id="edge40" class="edge">
<title>Node1&#45;&gt;Node7</title>
<path fill="none" stroke="midnightblue" d="M760.33,-549.67C772.53,-499.43 800.05,-356.68 748.5,-257 740.33,-241.2 724.69,-229.05 710.47,-220.63"/>
<polygon fill="midnightblue" stroke="midnightblue" points="756.93,-548.87 757.87,-559.42 763.71,-550.58 756.93,-548.87"/>
</g>
<!-- Node21 -->
<g id="node21" class="node">
<title>Node21</title>
<g id="a_node21"><a xlink:href="IntelIntrinsics_8h.html" target="_top" xlink:title=" ">
<polygon fill="none" stroke="black" points="832,-380.5 832,-410.5 955,-410.5 955,-380.5 832,-380.5"/>
<text text-anchor="start" x="840" y="-398.5" font-family="Helvetica,sans-Serif" font-size="10.00">include/Vectorization</text>
<text text-anchor="middle" x="893.5" y="-387.5" font-family="Helvetica,sans-Serif" font-size="10.00">/SIMD/IntelIntrinsics.h</text>
</a>
</g>
</g>
<!-- Node1&#45;&gt;Node21 -->
<g id="edge38" class="edge">
<title>Node1&#45;&gt;Node21</title>
<path fill="none" stroke="midnightblue" d="M768.94,-551.3C796.02,-517.64 856.72,-442.2 882.06,-410.72"/>
<polygon fill="midnightblue" stroke="midnightblue" points="766.08,-549.27 762.53,-559.26 771.53,-553.66 766.08,-549.27"/>
</g>
<!-- Node3 -->
<g id="node3" class="node">
<title>Node3</title>
<g id="a_node3"><a xlink:href="MVExprArray_8h.html" target="_top" xlink:title=" ">
<polygon fill="none" stroke="black" points="557,-324.5 557,-343.5 724,-343.5 724,-324.5 557,-324.5"/>
<text text-anchor="middle" x="640.5" y="-331.5" font-family="Helvetica,sans-Serif" font-size="10.00">include/MVExpr/MVExprArray.h</text>
</a>
</g>
</g>
<!-- Node2&#45;&gt;Node3 -->
<g id="edge2" class="edge">
<title>Node2&#45;&gt;Node3</title>
<path fill="none" stroke="midnightblue" d="M528.25,-501.67C569.3,-494.2 615.23,-482.67 628.5,-467 659.29,-430.65 648.13,-366.78 642.73,-343.66"/>
<polygon fill="midnightblue" stroke="midnightblue" points="527.45,-498.26 518.21,-503.43 528.67,-505.15 527.45,-498.26"/>
</g>
<!-- Node13 -->
<g id="node13" class="node">
<title>Node13</title>
<g id="a_node13"><a xlink:href="MVExprFactory_8h.html" target="_top" xlink:title=" ">
<polygon fill="none" stroke="black" points="426.5,-447.5 426.5,-466.5 602.5,-466.5 602.5,-447.5 426.5,-447.5"/>
<text text-anchor="middle" x="514.5" y="-454.5" font-family="Helvetica,sans-Serif" font-size="10.00">include/MVExpr/MVExprFactory.h</text>
</a>
</g>
</g>
<!-- Node2&#45;&gt;Node13 -->
<g id="edge16" class="edge">
<title>Node2&#45;&gt;Node13</title>
<path fill="none" stroke="midnightblue" d="M473.41,-496.25C483.7,-486.67 496.47,-474.79 505.01,-466.83"/>
<polygon fill="midnightblue" stroke="midnightblue" points="470.75,-493.95 465.82,-503.32 475.52,-499.07 470.75,-493.95"/>
</g>
<!-- Node14 -->
<g id="node14" class="node">
<title>Node14</title>
<g id="a_node14"><a xlink:href="MVExprLiteral_8h.html" target="_top" xlink:title=" ">
<polygon fill="none" stroke="black" points="0,-386 0,-405 173,-405 173,-386 0,-386"/>
<text text-anchor="middle" x="86.5" y="-393" font-family="Helvetica,sans-Serif" font-size="10.00">include/MVExpr/MVExprLiteral.h</text>
</a>
</g>
</g>
<!-- Node2&#45;&gt;Node14 -->
<g id="edge17" class="edge">
<title>Node2&#45;&gt;Node14</title>
<path fill="none" stroke="midnightblue" d="M375.72,-512.14C283.79,-510.56 141.36,-502.27 102.5,-467 85.03,-451.14 84.59,-420.55 85.59,-405.42"/>
<polygon fill="midnightblue" stroke="midnightblue" points="375.78,-515.64 385.83,-512.29 375.89,-508.64 375.78,-515.64"/>
</g>
<!-- Node15 -->
<g id="node15" class="node">
<title>Node15</title>
<g id="a_node15"><a xlink:href="Node_8h.html" target="_top" xlink:title=" ">
<polygon fill="none" stroke="black" points="247,-324.5 247,-343.5 336,-343.5 336,-324.5 247,-324.5"/>
<text text-anchor="middle" x="291.5" y="-331.5" font-family="Helvetica,sans-Serif" font-size="10.00">include/Node.h</text>
</a>
</g>
</g>
<!-- Node2&#45;&gt;Node15 -->
<g id="edge28" class="edge">
<title>Node2&#45;&gt;Node15</title>
<path fill="none" stroke="midnightblue" d="M441.33,-495.73C407.33,-459.25 325.95,-371.96 299.77,-343.87"/>
<polygon fill="midnightblue" stroke="midnightblue" points="439.16,-498.53 448.54,-503.46 444.28,-493.76 439.16,-498.53"/>
</g>
<!-- Node18 -->
<g id="node18" class="node">
<title>Node18</title>
<g id="a_node18"><a xlink:href="MVExprVar_8h.html" target="_top" xlink:title=" ">
<polygon fill="none" stroke="black" points="213,-447.5 213,-466.5 370,-466.5 370,-447.5 213,-447.5"/>
<text text-anchor="middle" x="291.5" y="-454.5" font-family="Helvetica,sans-Serif" font-size="10.00">include/MVExpr/MVExprVar.h</text>
</a>
</g>
</g>
<!-- Node2&#45;&gt;Node18 -->
<g id="edge26" class="edge">
<title>Node2&#45;&gt;Node18</title>
<path fill="none" stroke="midnightblue" d="M420.76,-500.3C389.67,-490.13 345.35,-475.62 317.52,-466.52"/>
<polygon fill="midnightblue" stroke="midnightblue" points="419.76,-503.66 430.36,-503.44 421.94,-497.01 419.76,-503.66"/>
</g>
<!-- Node19 -->
<g id="node19" class="node">
<title>Node19</title>
<g id="a_node19"><a xlink:href="StmtWrapper_8h.html" target="_top" xlink:title=" ">
<polygon fill="none" stroke="black" points="426.5,-386 426.5,-405 554.5,-405 554.5,-386 426.5,-386"/>
<text text-anchor="middle" x="490.5" y="-393" font-family="Helvetica,sans-Serif" font-size="10.00">include/StmtWrapper.h</text>
</a>
</g>
</g>
<!-- Node2&#45;&gt;Node19 -->
<g id="edge29" class="edge">
<title>Node2&#45;&gt;Node19</title>
<path fill="none" stroke="midnightblue" d="M520.09,-501.47C557.7,-493.8 600.15,-482.12 611.5,-467 635.37,-435.21 579.39,-415.27 535.83,-405.01"/>
<polygon fill="midnightblue" stroke="midnightblue" points="519.28,-498.06 510.14,-503.43 520.63,-504.93 519.28,-498.06"/>
</g>
<!-- Node20 -->
<g id="node20" class="node">
<title>Node20</title>
<g id="a_node20"><a xlink:href="TAC_8h.html" target="_top" xlink:title=" ">
<polygon fill="none" stroke="black" points="112,-447.5 112,-466.5 195,-466.5 195,-447.5 112,-447.5"/>
<text text-anchor="middle" x="153.5" y="-454.5" font-family="Helvetica,sans-Serif" font-size="10.00">include/TAC.h</text>
</a>
</g>
</g>
<!-- Node2&#45;&gt;Node20 -->
<g id="edge34" class="edge">
<title>Node2&#45;&gt;Node20</title>
<path fill="none" stroke="midnightblue" d="M398.56,-501.73C347.27,-492.63 270.4,-478.97 203.5,-467 200.81,-466.52 198.04,-466.02 195.24,-465.52"/>
<polygon fill="midnightblue" stroke="midnightblue" points="398.01,-505.19 408.46,-503.49 399.23,-498.29 398.01,-505.19"/>
</g>
<!-- Node3&#45;&gt;Node4 -->
<g id="edge3" class="edge">
<title>Node3&#45;&gt;Node4</title>
<path fill="none" stroke="midnightblue" d="M651.95,-315.96C658.01,-306.96 665.35,-296.03 671.07,-287.52"/>
<polygon fill="midnightblue" stroke="midnightblue" points="648.91,-314.22 646.23,-324.48 654.71,-318.13 648.91,-314.22"/>
</g>
<!-- Node5 -->
<g id="node5" class="node">
<title>Node5</title>
<g id="a_node5"><a xlink:href="AVX2BackEnd_8h.html" target="_top" xlink:title=" ">
<polygon fill="none" stroke="black" points="832,-123.5 832,-153.5 985,-153.5 985,-123.5 832,-123.5"/>
<text text-anchor="start" x="840" y="-141.5" font-family="Helvetica,sans-Serif" font-size="10.00">include/Vectorization</text>
<text text-anchor="middle" x="908.5" y="-130.5" font-family="Helvetica,sans-Serif" font-size="10.00">/SIMD/AVX2/AVX2BackEnd.h</text>
</a>
</g>
</g>
<!-- Node4&#45;&gt;Node5 -->
<g id="edge4" class="edge">
<title>Node4&#45;&gt;Node5</title>
<path fill="none" stroke="midnightblue" d="M713.67,-252.3C760.06,-225.44 843.25,-177.27 884.28,-153.52"/>
<polygon fill="midnightblue" stroke="midnightblue" points="711.8,-249.33 704.9,-257.37 715.31,-255.39 711.8,-249.33"/>
</g>
<!-- Node4&#45;&gt;Node7 -->
<g id="edge6" class="edge">
<title>Node4&#45;&gt;Node7</title>
<path fill="none" stroke="midnightblue" d="M680.5,-247.11C680.5,-238.15 680.5,-228.32 680.5,-220.58"/>
<polygon fill="midnightblue" stroke="midnightblue" points="677,-247.4 680.5,-257.4 684,-247.4 677,-247.4"/>
</g>
<!-- Node6 -->
<g id="node6" class="node">
<title>Node6</title>
<g id="a_node6"><a xlink:href="SIMDBackEndFactory_8h.html" target="_top" xlink:title=" ">
<polygon fill="none" stroke="black" points="789.5,-56.5 789.5,-86.5 947.5,-86.5 947.5,-56.5 789.5,-56.5"/>
<text text-anchor="start" x="797.5" y="-74.5" font-family="Helvetica,sans-Serif" font-size="10.00">include/Vectorization</text>
<text text-anchor="middle" x="868.5" y="-63.5" font-family="Helvetica,sans-Serif" font-size="10.00">/SIMD/SIMDBackEndFactory.h</text>
</a>
</g>
</g>
<!-- Node5&#45;&gt;Node6 -->
<g id="edge5" class="edge">
<title>Node5&#45;&gt;Node6</title>
<path fill="none" stroke="midnightblue" d="M894.57,-114.87C888.78,-105.46 882.24,-94.83 877.16,-86.58"/>
<polygon fill="midnightblue" stroke="midnightblue" points="891.6,-116.71 899.82,-123.4 897.56,-113.05 891.6,-116.71"/>
</g>
<!-- Node7&#45;&gt;Node5 -->
<g id="edge14" class="edge">
<title>Node7&#45;&gt;Node5</title>
<path fill="none" stroke="midnightblue" d="M739.38,-187.71C776.48,-177.14 823.84,-163.63 859,-153.61"/>
<polygon fill="midnightblue" stroke="midnightblue" points="738.35,-184.37 729.69,-190.48 740.27,-191.1 738.35,-184.37"/>
</g>
<!-- Node7&#45;&gt;Node6 -->
<g id="edge15" class="edge">
<title>Node7&#45;&gt;Node6</title>
<path fill="none" stroke="midnightblue" d="M713.93,-184.98C729,-175.91 746.88,-164.77 762.5,-154 794.8,-131.73 830.65,-103.34 851.28,-86.62"/>
<polygon fill="midnightblue" stroke="midnightblue" points="711.75,-182.21 704.96,-190.34 715.34,-188.22 711.75,-182.21"/>
</g>
<!-- Node8 -->
<g id="node8" class="node">
<title>Node8</title>
<g id="a_node8"><a xlink:href="MVCostModel_8h.html" target="_top" xlink:title=" ">
<polygon fill="none" stroke="black" points="585,-56.5 585,-86.5 732,-86.5 732,-56.5 585,-56.5"/>
<text text-anchor="start" x="593" y="-74.5" font-family="Helvetica,sans-Serif" font-size="10.00">include/CostModel/MVCost</text>
<text text-anchor="middle" x="658.5" y="-63.5" font-family="Helvetica,sans-Serif" font-size="10.00">Model.h</text>
</a>
</g>
</g>
<!-- Node7&#45;&gt;Node8 -->
<g id="edge7" class="edge">
<title>Node7&#45;&gt;Node8</title>
<path fill="none" stroke="midnightblue" d="M717.45,-184.72C728.55,-176.76 739.39,-166.48 745.5,-154 751.56,-141.62 752.37,-134.94 745.5,-123 735.83,-106.2 718.19,-94.48 701.31,-86.58"/>
<polygon fill="midnightblue" stroke="midnightblue" points="715.37,-181.9 708.98,-190.35 719.25,-187.72 715.37,-181.9"/>
</g>
<!-- Node9 -->
<g id="node9" class="node">
<title>Node9</title>
<g id="a_node9"><a xlink:href="SIMDCostInfo_8h.html" target="_top" xlink:title=" ">
<polygon fill="none" stroke="black" points="580,-123.5 580,-153.5 737,-153.5 737,-123.5 580,-123.5"/>
<text text-anchor="start" x="588" y="-141.5" font-family="Helvetica,sans-Serif" font-size="10.00">include/CostModel/SIMDCost</text>
<text text-anchor="middle" x="658.5" y="-130.5" font-family="Helvetica,sans-Serif" font-size="10.00">Info.h</text>
</a>
</g>
</g>
<!-- Node7&#45;&gt;Node9 -->
<g id="edge8" class="edge">
<title>Node7&#45;&gt;Node9</title>
<path fill="none" stroke="midnightblue" d="M672.44,-180.7C669.36,-171.59 665.94,-161.49 663.26,-153.58"/>
<polygon fill="midnightblue" stroke="midnightblue" points="669.21,-182.05 675.73,-190.4 675.84,-179.8 669.21,-182.05"/>
</g>
<!-- Node10 -->
<g id="node10" class="node">
<title>Node10</title>
<g id="a_node10"><a xlink:href="MVFrontend_8h.html" target="_top" xlink:title=" ">
<polygon fill="none" stroke="black" points="320.5,-62 320.5,-81 442.5,-81 442.5,-62 320.5,-62"/>
<text text-anchor="middle" x="381.5" y="-69" font-family="Helvetica,sans-Serif" font-size="10.00">include/MVFrontend.h</text>
</a>
</g>
</g>
<!-- Node7&#45;&gt;Node10 -->
<g id="edge10" class="edge">
<title>Node7&#45;&gt;Node10</title>
<path fill="none" stroke="midnightblue" d="M639.61,-186.45C574.36,-157.64 449.16,-102.37 401.02,-81.12"/>
<polygon fill="midnightblue" stroke="midnightblue" points="638.22,-189.66 648.78,-190.5 641.05,-183.26 638.22,-189.66"/>
</g>
<!-- Node12 -->
<g id="node12" class="node">
<title>Node12</title>
<g id="a_node12"><a xlink:href="MVRewriter_8h.html" target="_top" xlink:title=" ">
<polygon fill="none" stroke="black" points="365.5,-129 365.5,-148 485.5,-148 485.5,-129 365.5,-129"/>
<text text-anchor="middle" x="425.5" y="-136" font-family="Helvetica,sans-Serif" font-size="10.00">include/MVRewriter.h</text>
</a>
</g>
</g>
<!-- Node7&#45;&gt;Node12 -->
<g id="edge12" class="edge">
<title>Node7&#45;&gt;Node12</title>
<path fill="none" stroke="midnightblue" d="M615.73,-187.99C565.76,-175.25 498.66,-158.15 458.96,-148.03"/>
<polygon fill="midnightblue" stroke="midnightblue" points="614.93,-191.4 625.48,-190.48 616.66,-184.61 614.93,-191.4"/>
</g>
<!-- Node9&#45;&gt;Node8 -->
<g id="edge9" class="edge">
<title>Node9&#45;&gt;Node8</title>
<path fill="none" stroke="midnightblue" d="M658.5,-113.11C658.5,-104.15 658.5,-94.32 658.5,-86.58"/>
<polygon fill="midnightblue" stroke="midnightblue" points="655,-113.4 658.5,-123.4 662,-113.4 655,-113.4"/>
</g>
<!-- Node11 -->
<g id="node11" class="node">
<title>Node11</title>
<g id="a_node11"><a xlink:href="macveth_8cpp.html" target="_top" xlink:title=" ">
<polygon fill="none" stroke="black" points="334,-0.5 334,-19.5 429,-19.5 429,-0.5 334,-0.5"/>
<text text-anchor="middle" x="381.5" y="-7.5" font-family="Helvetica,sans-Serif" font-size="10.00">lib/macveth.cpp</text>
</a>
</g>
</g>
<!-- Node10&#45;&gt;Node11 -->
<g id="edge11" class="edge">
<title>Node10&#45;&gt;Node11</title>
<path fill="none" stroke="midnightblue" d="M381.5,-51.82C381.5,-41 381.5,-27.9 381.5,-19.51"/>
<polygon fill="midnightblue" stroke="midnightblue" points="378,-51.98 381.5,-61.98 385,-51.98 378,-51.98"/>
</g>
<!-- Node12&#45;&gt;Node10 -->
<g id="edge13" class="edge">
<title>Node12&#45;&gt;Node10</title>
<path fill="none" stroke="midnightblue" d="M413.93,-120.4C405.38,-107.77 394.09,-91.1 387.34,-81.13"/>
<polygon fill="midnightblue" stroke="midnightblue" points="411.06,-122.41 419.57,-128.73 416.86,-118.49 411.06,-122.41"/>
</g>
<!-- Node14&#45;&gt;Node15 -->
<g id="edge18" class="edge">
<title>Node14&#45;&gt;Node15</title>
<path fill="none" stroke="midnightblue" d="M125.52,-383.18C165.35,-371.61 226.28,-353.93 262.18,-343.51"/>
<polygon fill="midnightblue" stroke="midnightblue" points="124.5,-379.83 115.87,-385.98 126.45,-386.55 124.5,-379.83"/>
</g>
<!-- Node15&#45;&gt;Node4 -->
<g id="edge25" class="edge">
<title>Node15&#45;&gt;Node4</title>
<path fill="none" stroke="midnightblue" d="M346.41,-324.6C418.91,-313.51 546.09,-294.06 620.87,-282.62"/>
<polygon fill="midnightblue" stroke="midnightblue" points="345.48,-321.2 336.12,-326.17 346.54,-328.12 345.48,-321.2"/>
</g>
<!-- Node16 -->
<g id="node16" class="node">
<title>Node16</title>
<g id="a_node16"><a xlink:href="CDAG_8h.html" target="_top" xlink:title=" ">
<polygon fill="none" stroke="black" points="161.5,-263 161.5,-282 253.5,-282 253.5,-263 161.5,-263"/>
<text text-anchor="middle" x="207.5" y="-270" font-family="Helvetica,sans-Serif" font-size="10.00">include/CDAG.h</text>
</a>
</g>
</g>
<!-- Node15&#45;&gt;Node16 -->
<g id="edge19" class="edge">
<title>Node15&#45;&gt;Node16</title>
<path fill="none" stroke="midnightblue" d="M271.19,-318.61C255.03,-307.17 232.98,-291.55 219.51,-282.01"/>
<polygon fill="midnightblue" stroke="midnightblue" points="269.28,-321.55 279.46,-324.48 273.33,-315.84 269.28,-321.55"/>
</g>
<!-- Node17 -->
<g id="node17" class="node">
<title>Node17</title>
<g id="a_node17"><a xlink:href="PlcmntAlgo_8h.html" target="_top" xlink:title=" ">
<polygon fill="none" stroke="black" points="232,-196 232,-215 351,-215 351,-196 232,-196"/>
<text text-anchor="middle" x="291.5" y="-203" font-family="Helvetica,sans-Serif" font-size="10.00">include/PlcmntAlgo.h</text>
</a>
</g>
</g>
<!-- Node15&#45;&gt;Node17 -->
<g id="edge24" class="edge">
<title>Node15&#45;&gt;Node17</title>
<path fill="none" stroke="midnightblue" d="M291.5,-313.94C291.5,-286.12 291.5,-235.54 291.5,-215.26"/>
<polygon fill="midnightblue" stroke="midnightblue" points="288,-314.31 291.5,-324.31 295,-314.31 288,-314.31"/>
</g>
<!-- Node16&#45;&gt;Node7 -->
<g id="edge23" class="edge">
<title>Node16&#45;&gt;Node7</title>
<path fill="none" stroke="midnightblue" d="M263.87,-263.75C352.79,-251.53 524.99,-227.87 617.73,-215.13"/>
<polygon fill="midnightblue" stroke="midnightblue" points="263.14,-260.32 253.71,-265.15 264.1,-267.26 263.14,-260.32"/>
</g>
<!-- Node16&#45;&gt;Node10 -->
<g id="edge20" class="edge">
<title>Node16&#45;&gt;Node10</title>
<path fill="none" stroke="midnightblue" d="M201.69,-252.77C197.45,-235.42 194.07,-209.45 204.5,-190 236.49,-130.36 313.56,-95.85 354.65,-81.08"/>
<polygon fill="midnightblue" stroke="midnightblue" points="198.42,-254.07 204.47,-262.77 205.17,-252.2 198.42,-254.07"/>
</g>
<!-- Node16&#45;&gt;Node12 -->
<g id="edge21" class="edge">
<title>Node16&#45;&gt;Node12</title>
<path fill="none" stroke="midnightblue" d="M205.59,-252.73C204.82,-234.36 206.75,-206.75 222.5,-190 241.87,-169.39 312.81,-155.17 365.4,-147.19"/>
<polygon fill="midnightblue" stroke="midnightblue" points="202.11,-253.08 206.32,-262.8 209.09,-252.57 202.11,-253.08"/>
</g>
<!-- Node16&#45;&gt;Node17 -->
<g id="edge22" class="edge">
<title>Node16&#45;&gt;Node17</title>
<path fill="none" stroke="midnightblue" d="M226.8,-256.57C243.38,-243.74 266.71,-225.69 280.35,-215.13"/>
<polygon fill="midnightblue" stroke="midnightblue" points="224.6,-253.85 218.83,-262.73 228.88,-259.38 224.6,-253.85"/>
</g>
<!-- Node18&#45;&gt;Node15 -->
<g id="edge27" class="edge">
<title>Node18&#45;&gt;Node15</title>
<path fill="none" stroke="midnightblue" d="M291.5,-436.99C291.5,-410.35 291.5,-363 291.5,-343.62"/>
<polygon fill="midnightblue" stroke="midnightblue" points="288,-437.3 291.5,-447.3 295,-437.3 288,-437.3"/>
</g>
<!-- Node19&#45;&gt;Node8 -->
<g id="edge30" class="edge">
<title>Node19&#45;&gt;Node8</title>
<path fill="none" stroke="midnightblue" d="M496.23,-376.12C503.04,-352.58 513.5,-310.42 513.5,-273.5 513.5,-273.5 513.5,-273.5 513.5,-204.5 513.5,-145.61 579.72,-106.03 622.66,-86.56"/>
<polygon fill="midnightblue" stroke="midnightblue" points="492.84,-375.22 493.32,-385.8 499.55,-377.23 492.84,-375.22"/>
</g>
<!-- Node19&#45;&gt;Node10 -->
<g id="edge31" class="edge">
<title>Node19&#45;&gt;Node10</title>
<path fill="none" stroke="midnightblue" d="M476.74,-377.28C447.58,-339.57 380.32,-245.69 356.5,-154 353.04,-140.66 353.36,-136.42 356.5,-123 360.16,-107.38 369.39,-91.05 375.55,-81.33"/>
<polygon fill="midnightblue" stroke="midnightblue" points="474.35,-379.91 483.28,-385.62 479.86,-375.59 474.35,-379.91"/>
</g>
<!-- Node19&#45;&gt;Node12 -->
<g id="edge32" class="edge">
<title>Node19&#45;&gt;Node12</title>
<path fill="none" stroke="midnightblue" d="M485.72,-375.75C472.71,-324.71 437.01,-184.65 427.73,-148.24"/>
<polygon fill="midnightblue" stroke="midnightblue" points="482.4,-376.9 488.26,-385.72 489.18,-375.17 482.4,-376.9"/>
</g>
<!-- Node19&#45;&gt;Node15 -->
<g id="edge33" class="edge">
<title>Node19&#45;&gt;Node15</title>
<path fill="none" stroke="midnightblue" d="M452.13,-383.03C413.46,-371.46 354.66,-353.88 319.96,-343.51"/>
<polygon fill="midnightblue" stroke="midnightblue" points="451.4,-386.46 461.99,-385.98 453.41,-379.76 451.4,-386.46"/>
</g>
<!-- Node20&#45;&gt;Node15 -->
<g id="edge36" class="edge">
<title>Node20&#45;&gt;Node15</title>
<path fill="none" stroke="midnightblue" d="M176.9,-442.14C190.21,-433.8 206.89,-422.59 220.5,-411 246.34,-388.99 272.52,-358.32 284.6,-343.58"/>
<polygon fill="midnightblue" stroke="midnightblue" points="174.99,-439.2 168.3,-447.41 178.65,-445.17 174.99,-439.2"/>
</g>
<!-- Node20&#45;&gt;Node16 -->
<g id="edge35" class="edge">
<title>Node20&#45;&gt;Node16</title>
<path fill="none" stroke="midnightblue" d="M166.16,-439.01C171.64,-430.91 177.66,-420.84 181.5,-411 199.59,-364.6 205.38,-304.34 206.97,-282.17"/>
<polygon fill="midnightblue" stroke="midnightblue" points="163.27,-437.04 160.35,-447.22 168.98,-441.08 163.27,-437.04"/>
</g>
<!-- Node20&#45;&gt;Node19 -->
<g id="edge37" class="edge">
<title>Node20&#45;&gt;Node19</title>
<path fill="none" stroke="midnightblue" d="M205.23,-446.7C294.17,-430.88 386.69,-414.65 441.74,-405.02"/>
<polygon fill="midnightblue" stroke="midnightblue" points="204.47,-443.28 195.24,-448.47 205.7,-450.17 204.47,-443.28"/>
</g>
<!-- Node21&#45;&gt;Node5 -->
<g id="edge39" class="edge">
<title>Node21&#45;&gt;Node5</title>
<path fill="none" stroke="midnightblue" d="M894.92,-370.37C898,-317.95 905.23,-195.1 907.67,-153.53"/>
<polygon fill="midnightblue" stroke="midnightblue" points="891.42,-370.24 894.33,-380.43 898.41,-370.65 891.42,-370.24"/>
</g>
</g>
</svg>
        <g id="navigator" transform="translate(0 0)" fill="#404254">
                <rect fill="#f2f5e9" fill-opacity="0.5" stroke="#606060" stroke-width=".5" x="0" y="0" width="60" height="60"/>
                <use id="zoomplus" xlink:href="#zoomPlus" x="17" y="9" onmousedown="handleZoom(evt,'in')"/>
                <use id="zoomminus" xlink:href="#zoomMin" x="42" y="9" onmousedown="handleZoom(evt,'out')"/>
                <use id="reset" xlink:href="#resetDef" x="30" y="36" onmousedown="handleReset()"/>
                <g id="arrowUp" xlink:href="#dirArrow" transform="translate(30 24)" onmousedown="handlePan(0,-1)">
                  <use xlink:href="#rim" fill="#404040">
                        <set attributeName="fill" to="#808080" begin="arrowUp.mouseover" end="arrowUp.mouseout"/>
                  </use>
                  <path fill="none" stroke="white" stroke-width="1.5" d="M0,-3.0v7 M-2.5,-0.5L0,-3.0L2.5,-0.5"/>
                </g>
                <g id="arrowRight" xlink:href="#dirArrow" transform="rotate(90) translate(36 -43)" onmousedown="handlePan(1,0)">
                  <use xlink:href="#rim" fill="#404040">
                        <set attributeName="fill" to="#808080" begin="arrowRight.mouseover" end="arrowRight.mouseout"/>
                  </use>
                  <path fill="none" stroke="white" stroke-width="1.5" d="M0,-3.0v7 M-2.5,-0.5L0,-3.0L2.5,-0.5"/>
                </g>
                <g id="arrowDown" xlink:href="#dirArrow" transform="rotate(180) translate(-30 -48)" onmousedown="handlePan(0,1)">
                  <use xlink:href="#rim" fill="#404040">
                        <set attributeName="fill" to="#808080" begin="arrowDown.mouseover" end="arrowDown.mouseout"/>
                  </use>
                  <path fill="none" stroke="white" stroke-width="1.5" d="M0,-3.0v7 M-2.5,-0.5L0,-3.0L2.5,-0.5"/>
                </g>
                <g id="arrowLeft" xlink:href="#dirArrow" transform="rotate(270) translate(-36 17)" onmousedown="handlePan(-1,0)">
                  <use xlink:href="#rim" fill="#404040">
                        <set attributeName="fill" to="#808080" begin="arrowLeft.mouseover" end="arrowLeft.mouseout"/>
                  </use>
                  <path fill="none" stroke="white" stroke-width="1.5" d="M0,-3.0v7 M-2.5,-0.5L0,-3.0L2.5,-0.5"/>
                </g>
        </g>
        <svg viewBox="0 0 15 15" width="100%" height="30px" preserveAspectRatio="xMaxYMin meet">
         <g id="arrow_out" transform="scale(0.3 0.3)">
          <a xlink:href="MVDataType_8h__dep__incl_org.svg" target="_base">
           <rect id="button" ry="5" rx="5" y="6" x="6" height="38" width="38"
                fill="#f2f5e9" fill-opacity="0.5" stroke="#606060" stroke-width="1.0"/>
           <path id="arrow"
             d="M 11.500037,31.436501 C 11.940474,20.09759 22.043105,11.32322 32.158766,21.979434 L 37.068811,17.246167 C 37.068811,17.246167 37.088388,32 37.088388,32 L 22.160133,31.978069 C 22.160133,31.978069 26.997745,27.140456 26.997745,27.140456 C 18.528582,18.264221 13.291696,25.230495 11.500037,31.436501 z"
             style="fill:#404040;"/>
          </a>
         </g>
        </svg>
</svg>
