<?xml version="1.0" encoding="UTF-8" standalone="no"?>
<!DOCTYPE svg PUBLIC "-//W3C//DTD SVG 1.1//EN"
 "http://www.w3.org/Graphics/SVG/1.1/DTD/svg11.dtd">
<!-- Generated by graphviz version 2.43.0 (0)
 -->
<!-- Title: include/MVExpr/MVDataType.h Pages: 1 -->
<svg width="174pt" height="84pt"
 viewBox="0.00 0.00 174.00 84.00" xmlns="http://www.w3.org/2000/svg" xmlns:xlink="http://www.w3.org/1999/xlink">
<g id="graph0" class="graph" transform="scale(1 1) rotate(0) translate(4 80)">
<title>include/MVExpr/MVDataType.h</title>
<!-- Node1 -->
<g id="node1" class="node">
<title>Node1</title>
<g id="a_node1"><a xlink:title=" ">
<polygon fill="#bfbfbf" stroke="black" points="0,-56.5 0,-75.5 166,-75.5 166,-56.5 0,-56.5"/>
<text text-anchor="middle" x="83" y="-63.5" font-family="Helvetica,sans-Serif" font-size="10.00">include/MVExpr/MVDataType.h</text>
</a>
</g>
</g>
<!-- Node2 -->
<g id="node2" class="node">
<title>Node2</title>
<g id="a_node2"><a xlink:title=" ">
<polygon fill="none" stroke="#bfbfbf" points="35,-0.5 35,-19.5 73,-19.5 73,-0.5 35,-0.5"/>
<text text-anchor="middle" x="54" y="-7.5" font-family="Helvetica,sans-Serif" font-size="10.00">map</text>
</a>
</g>
</g>
<!-- Node1&#45;&gt;Node2 -->
<g id="edge1" class="edge">
<title>Node1&#45;&gt;Node2</title>
<path fill="none" stroke="midnightblue" d="M78.21,-56.08C74.24,-48.69 68.47,-37.95 63.57,-28.81"/>
<polygon fill="midnightblue" stroke="midnightblue" points="66.51,-26.91 58.7,-19.75 60.35,-30.22 66.51,-26.91"/>
</g>
<!-- Node3 -->
<g id="node3" class="node">
<title>Node3</title>
<g id="a_node3"><a xlink:title=" ">
<polygon fill="none" stroke="#bfbfbf" points="91,-0.5 91,-19.5 135,-19.5 135,-0.5 91,-0.5"/>
<text text-anchor="middle" x="113" y="-7.5" font-family="Helvetica,sans-Serif" font-size="10.00">string</text>
</a>
</g>
</g>
<!-- Node1&#45;&gt;Node3 -->
<g id="edge2" class="edge">
<title>Node1&#45;&gt;Node3</title>
<path fill="none" stroke="midnightblue" d="M87.95,-56.08C92.1,-48.61 98.15,-37.72 103.27,-28.52"/>
<polygon fill="midnightblue" stroke="midnightblue" points="106.34,-30.19 108.14,-19.75 100.22,-26.79 106.34,-30.19"/>
</g>
</g>
</svg>
