<?xml version="1.0" encoding="UTF-8" standalone="no"?>
<!DOCTYPE svg PUBLIC "-//W3C//DTD SVG 1.1//EN"
 "http://www.w3.org/Graphics/SVG/1.1/DTD/svg11.dtd">
<!-- Generated by graphviz version 2.43.0 (0)
 -->
<!-- Title: include/MVExpr/MVExpr.h Pages: 1 -->
<svg width="1115pt" height="308pt"
 viewBox="0.00 0.00 1114.50 308.00" xmlns="http://www.w3.org/2000/svg" xmlns:xlink="http://www.w3.org/1999/xlink">
<g id="graph0" class="graph" transform="scale(1 1) rotate(0) translate(4 304)">
<title>include/MVExpr/MVExpr.h</title>
<!-- Node1 -->
<g id="node1" class="node">
<title>Node1</title>
<g id="a_node1"><a xlink:title=" ">
<polygon fill="#bfbfbf" stroke="black" points="645.5,-280.5 645.5,-299.5 786.5,-299.5 786.5,-280.5 645.5,-280.5"/>
<text text-anchor="middle" x="716" y="-287.5" font-family="Helvetica,sans-Serif" font-size="10.00">include/MVExpr/MVExpr.h</text>
</a>
</g>
</g>
<!-- Node2 -->
<g id="node2" class="node">
<title>Node2</title>
<g id="a_node2"><a xlink:href="Debug_8h.html" target="_top" xlink:title=" ">
<polygon fill="none" stroke="black" points="592.5,-224.5 592.5,-243.5 687.5,-243.5 687.5,-224.5 592.5,-224.5"/>
<text text-anchor="middle" x="640" y="-231.5" font-family="Helvetica,sans-Serif" font-size="10.00">include/Debug.h</text>
</a>
</g>
</g>
<!-- Node1&#45;&gt;Node2 -->
<g id="edge1" class="edge">
<title>Node1&#45;&gt;Node2</title>
<path fill="none" stroke="midnightblue" d="M703.79,-280.32C692.22,-272.11 674.62,-259.6 660.84,-249.81"/>
<polygon fill="midnightblue" stroke="midnightblue" points="662.61,-246.77 652.43,-243.83 658.56,-252.48 662.61,-246.77"/>
</g>
<!-- Node3 -->
<g id="node3" class="node">
<title>Node3</title>
<g id="a_node3"><a xlink:href="Utils_8h.html" target="_top" xlink:title=" ">
<polygon fill="none" stroke="black" points="640,-168.5 640,-187.5 726,-187.5 726,-168.5 640,-168.5"/>
<text text-anchor="middle" x="683" y="-175.5" font-family="Helvetica,sans-Serif" font-size="10.00">include/Utils.h</text>
</a>
</g>
</g>
<!-- Node1&#45;&gt;Node3 -->
<g id="edge23" class="edge">
<title>Node1&#45;&gt;Node3</title>
<path fill="none" stroke="midnightblue" d="M713.41,-280.37C708.06,-262.54 695.69,-221.3 688.48,-197.27"/>
<polygon fill="midnightblue" stroke="midnightblue" points="691.8,-196.16 685.58,-187.59 685.1,-198.18 691.8,-196.16"/>
</g>
<!-- Node7 -->
<g id="node7" class="node">
<title>Node7</title>
<g id="a_node7"><a xlink:title=" ">
<polygon fill="none" stroke="#bfbfbf" points="425,-0.5 425,-19.5 485,-19.5 485,-0.5 425,-0.5"/>
<text text-anchor="middle" x="455" y="-7.5" font-family="Helvetica,sans-Serif" font-size="10.00">iostream</text>
</a>
</g>
</g>
<!-- Node1&#45;&gt;Node7 -->
<g id="edge27" class="edge">
<title>Node1&#45;&gt;Node7</title>
<path fill="none" stroke="midnightblue" d="M671.07,-280.49C603.23,-264.85 477.62,-224.27 431,-132 426.99,-124.07 429.97,-120.83 431,-112 434.45,-82.55 443.38,-49.23 449.32,-29.19"/>
<polygon fill="midnightblue" stroke="midnightblue" points="452.7,-30.11 452.26,-19.53 446,-28.07 452.7,-30.11"/>
</g>
<!-- Node8 -->
<g id="node8" class="node">
<title>Node8</title>
<g id="a_node8"><a xlink:title=" ">
<polygon fill="none" stroke="#bfbfbf" points="59,-0.5 59,-19.5 103,-19.5 103,-0.5 59,-0.5"/>
<text text-anchor="middle" x="81" y="-7.5" font-family="Helvetica,sans-Serif" font-size="10.00">string</text>
</a>
</g>
</g>
<!-- Node1&#45;&gt;Node8 -->
<g id="edge29" class="edge">
<title>Node1&#45;&gt;Node8</title>
<path fill="none" stroke="midnightblue" d="M645.39,-285.5C464.75,-275.6 0,-243.85 0,-179 0,-179 0,-179 0,-121 0,-80.45 36.14,-44.99 60.14,-25.91"/>
<polygon fill="midnightblue" stroke="midnightblue" points="62.52,-28.5 68.34,-19.65 58.27,-22.94 62.52,-28.5"/>
</g>
<!-- Node13 -->
<g id="node13" class="node">
<title>Node13</title>
<g id="a_node13"><a xlink:title=" ">
<polygon fill="none" stroke="#bfbfbf" points="1011.5,-112.5 1011.5,-131.5 1106.5,-131.5 1106.5,-112.5 1011.5,-112.5"/>
<text text-anchor="middle" x="1059" y="-119.5" font-family="Helvetica,sans-Serif" font-size="10.00">clang/AST/AST.h</text>
</a>
</g>
</g>
<!-- Node1&#45;&gt;Node13 -->
<g id="edge24" class="edge">
<title>Node1&#45;&gt;Node13</title>
<path fill="none" stroke="midnightblue" d="M721.56,-280.14C730.69,-266.29 750.13,-239.48 773,-224 844.93,-175.3 942.91,-147.43 1003.5,-133.76"/>
<polygon fill="midnightblue" stroke="midnightblue" points="1004.62,-137.1 1013.63,-131.53 1003.11,-130.26 1004.62,-137.1"/>
</g>
<!-- Node18 -->
<g id="node18" class="node">
<title>Node18</title>
<g id="a_node18"><a xlink:href="MVDataType_8h.html" target="_top" xlink:title=" ">
<polygon fill="none" stroke="black" points="28,-112.5 28,-131.5 194,-131.5 194,-112.5 28,-112.5"/>
<text text-anchor="middle" x="111" y="-119.5" font-family="Helvetica,sans-Serif" font-size="10.00">include/MVExpr/MVDataType.h</text>
</a>
</g>
</g>
<!-- Node1&#45;&gt;Node18 -->
<g id="edge20" class="edge">
<title>Node1&#45;&gt;Node18</title>
<path fill="none" stroke="midnightblue" d="M645.46,-284.27C580.3,-278.67 481.3,-267.03 398,-244 297.35,-216.17 185.22,-161.47 136.22,-136.27"/>
<polygon fill="midnightblue" stroke="midnightblue" points="137.77,-133.14 127.28,-131.65 134.55,-139.35 137.77,-133.14"/>
</g>
<!-- Node19 -->
<g id="node19" class="node">
<title>Node19</title>
<g id="a_node19"><a xlink:title=" ">
<polygon fill="none" stroke="#bfbfbf" points="782,-224.5 782,-243.5 880,-243.5 880,-224.5 782,-224.5"/>
<text text-anchor="middle" x="831" y="-231.5" font-family="Helvetica,sans-Serif" font-size="10.00">clang/AST/Expr.h</text>
</a>
</g>
</g>
<!-- Node1&#45;&gt;Node19 -->
<g id="edge25" class="edge">
<title>Node1&#45;&gt;Node19</title>
<path fill="none" stroke="midnightblue" d="M734.22,-280.44C752.9,-271.68 782.16,-257.94 803.62,-247.86"/>
<polygon fill="midnightblue" stroke="midnightblue" points="805.3,-250.93 812.86,-243.52 802.32,-244.6 805.3,-250.93"/>
</g>
<!-- Node20 -->
<g id="node20" class="node">
<title>Node20</title>
<g id="a_node20"><a xlink:title=" ">
<polygon fill="none" stroke="#bfbfbf" points="898,-224.5 898,-243.5 1026,-243.5 1026,-224.5 898,-224.5"/>
<text text-anchor="middle" x="962" y="-231.5" font-family="Helvetica,sans-Serif" font-size="10.00">llvm/Support/Casting.h</text>
</a>
</g>
</g>
<!-- Node1&#45;&gt;Node20 -->
<g id="edge26" class="edge">
<title>Node1&#45;&gt;Node20</title>
<path fill="none" stroke="midnightblue" d="M754.98,-280.44C797.89,-271.02 866.95,-255.87 913.37,-245.68"/>
<polygon fill="midnightblue" stroke="midnightblue" points="914.19,-249.08 923.2,-243.52 912.69,-242.24 914.19,-249.08"/>
</g>
<!-- Node21 -->
<g id="node21" class="node">
<title>Node21</title>
<g id="a_node21"><a xlink:title=" ">
<polygon fill="none" stroke="#bfbfbf" points="1044,-224.5 1044,-243.5 1102,-243.5 1102,-224.5 1044,-224.5"/>
<text text-anchor="middle" x="1073" y="-231.5" font-family="Helvetica,sans-Serif" font-size="10.00">memory</text>
</a>
</g>
</g>
<!-- Node1&#45;&gt;Node21 -->
<g id="edge28" class="edge">
<title>Node1&#45;&gt;Node21</title>
<path fill="none" stroke="midnightblue" d="M786.63,-280.94C849.19,-273.36 943.19,-260.92 1033.72,-244.1"/>
<polygon fill="midnightblue" stroke="midnightblue" points="1034.42,-247.53 1043.6,-242.25 1033.12,-240.65 1034.42,-247.53"/>
</g>
<!-- Node2&#45;&gt;Node3 -->
<g id="edge2" class="edge">
<title>Node2&#45;&gt;Node3</title>
<path fill="none" stroke="midnightblue" d="M647.1,-224.08C653.24,-216.38 662.27,-205.03 669.74,-195.65"/>
<polygon fill="midnightblue" stroke="midnightblue" points="672.54,-197.75 676.03,-187.75 667.06,-193.39 672.54,-197.75"/>
</g>
<!-- Node4 -->
<g id="node4" class="node">
<title>Node4</title>
<g id="a_node4"><a xlink:href="MVOptions_8h.html" target="_top" xlink:title=" ">
<polygon fill="none" stroke="black" points="212.5,-112.5 212.5,-131.5 329.5,-131.5 329.5,-112.5 212.5,-112.5"/>
<text text-anchor="middle" x="271" y="-119.5" font-family="Helvetica,sans-Serif" font-size="10.00">include/MVOptions.h</text>
</a>
</g>
</g>
<!-- Node3&#45;&gt;Node4 -->
<g id="edge3" class="edge">
<title>Node3&#45;&gt;Node4</title>
<path fill="none" stroke="midnightblue" d="M639.69,-171.32C568.22,-161.96 425.01,-143.19 339.64,-132"/>
<polygon fill="midnightblue" stroke="midnightblue" points="339.89,-128.5 329.52,-130.67 338.98,-135.44 339.89,-128.5"/>
</g>
<!-- Node3&#45;&gt;Node7 -->
<g id="edge19" class="edge">
<title>Node3&#45;&gt;Node7</title>
<path fill="none" stroke="midnightblue" d="M726.23,-169.07C785.63,-157.98 885.79,-138.45 891,-132 896.58,-125.08 896.53,-118.96 891,-112 841.67,-49.94 593.95,-22.64 495.46,-14.12"/>
<polygon fill="midnightblue" stroke="midnightblue" points="495.57,-10.62 485.31,-13.26 494.98,-17.59 495.57,-10.62"/>
</g>
<!-- Node3&#45;&gt;Node13 -->
<g id="edge14" class="edge">
<title>Node3&#45;&gt;Node13</title>
<path fill="none" stroke="midnightblue" d="M726.25,-170.08C730.89,-169.36 735.54,-168.66 740,-168 853.53,-151.27 884.62,-149.45 1001.31,-132.23"/>
<polygon fill="midnightblue" stroke="midnightblue" points="1001.97,-135.66 1011.35,-130.74 1000.95,-128.74 1001.97,-135.66"/>
</g>
<!-- Node14 -->
<g id="node14" class="node">
<title>Node14</title>
<g id="a_node14"><a xlink:title=" ">
<polygon fill="none" stroke="#bfbfbf" points="440.5,-112.5 440.5,-131.5 585.5,-131.5 585.5,-112.5 440.5,-112.5"/>
<text text-anchor="middle" x="513" y="-119.5" font-family="Helvetica,sans-Serif" font-size="10.00">clang/Basic/LangOptions.h</text>
</a>
</g>
</g>
<!-- Node3&#45;&gt;Node14 -->
<g id="edge15" class="edge">
<title>Node3&#45;&gt;Node14</title>
<path fill="none" stroke="midnightblue" d="M656.06,-168.44C627.34,-159.32 581.67,-144.81 549.68,-134.65"/>
<polygon fill="midnightblue" stroke="midnightblue" points="550.4,-131.21 539.81,-131.52 548.28,-137.88 550.4,-131.21"/>
</g>
<!-- Node15 -->
<g id="node15" class="node">
<title>Node15</title>
<g id="a_node15"><a xlink:title=" ">
<polygon fill="none" stroke="#bfbfbf" points="603.5,-112.5 603.5,-131.5 762.5,-131.5 762.5,-112.5 603.5,-112.5"/>
<text text-anchor="middle" x="683" y="-119.5" font-family="Helvetica,sans-Serif" font-size="10.00">clang/Basic/SourceManager.h</text>
</a>
</g>
</g>
<!-- Node3&#45;&gt;Node15 -->
<g id="edge16" class="edge">
<title>Node3&#45;&gt;Node15</title>
<path fill="none" stroke="midnightblue" d="M683,-168.08C683,-161.01 683,-150.86 683,-141.99"/>
<polygon fill="midnightblue" stroke="midnightblue" points="686.5,-141.75 683,-131.75 679.5,-141.75 686.5,-141.75"/>
</g>
<!-- Node16 -->
<g id="node16" class="node">
<title>Node16</title>
<g id="a_node16"><a xlink:title=" ">
<polygon fill="none" stroke="#bfbfbf" points="780.5,-112.5 780.5,-131.5 881.5,-131.5 881.5,-112.5 780.5,-112.5"/>
<text text-anchor="middle" x="831" y="-119.5" font-family="Helvetica,sans-Serif" font-size="10.00">clang/Lex/Lexer.h</text>
</a>
</g>
</g>
<!-- Node3&#45;&gt;Node16 -->
<g id="edge17" class="edge">
<title>Node3&#45;&gt;Node16</title>
<path fill="none" stroke="midnightblue" d="M706.45,-168.44C731.13,-159.44 770.19,-145.19 797.98,-135.05"/>
<polygon fill="midnightblue" stroke="midnightblue" points="799.46,-138.23 807.66,-131.52 797.06,-131.66 799.46,-138.23"/>
</g>
<!-- Node17 -->
<g id="node17" class="node">
<title>Node17</title>
<g id="a_node17"><a xlink:title=" ">
<polygon fill="none" stroke="#bfbfbf" points="938.5,-112.5 938.5,-131.5 993.5,-131.5 993.5,-112.5 938.5,-112.5"/>
<text text-anchor="middle" x="966" y="-119.5" font-family="Helvetica,sans-Serif" font-size="10.00">fstream</text>
</a>
</g>
</g>
<!-- Node3&#45;&gt;Node17 -->
<g id="edge18" class="edge">
<title>Node3&#45;&gt;Node17</title>
<path fill="none" stroke="midnightblue" d="M726.17,-169.3C774.44,-160.6 854.93,-145.85 924,-132 925.46,-131.71 926.95,-131.4 928.46,-131.1"/>
<polygon fill="midnightblue" stroke="midnightblue" points="929.38,-134.48 938.46,-129.01 927.96,-127.63 929.38,-134.48"/>
</g>
<!-- Node5 -->
<g id="node5" class="node">
<title>Node5</title>
<g id="a_node5"><a xlink:href="CPUID_8h.html" target="_top" xlink:title=" ">
<polygon fill="none" stroke="black" points="211.5,-56.5 211.5,-75.5 306.5,-75.5 306.5,-56.5 211.5,-56.5"/>
<text text-anchor="middle" x="259" y="-63.5" font-family="Helvetica,sans-Serif" font-size="10.00">include/CPUID.h</text>
</a>
</g>
</g>
<!-- Node4&#45;&gt;Node5 -->
<g id="edge4" class="edge">
<title>Node4&#45;&gt;Node5</title>
<path fill="none" stroke="midnightblue" d="M269.02,-112.08C267.43,-104.93 265.14,-94.64 263.15,-85.69"/>
<polygon fill="midnightblue" stroke="midnightblue" points="266.53,-84.75 260.94,-75.75 259.7,-86.27 266.53,-84.75"/>
</g>
<!-- Node6 -->
<g id="node6" class="node">
<title>Node6</title>
<g id="a_node6"><a xlink:title=" ">
<polygon fill="none" stroke="#bfbfbf" points="151,-0.5 151,-19.5 215,-19.5 215,-0.5 151,-0.5"/>
<text text-anchor="middle" x="183" y="-7.5" font-family="Helvetica,sans-Serif" font-size="10.00">algorithm</text>
</a>
</g>
</g>
<!-- Node4&#45;&gt;Node6 -->
<g id="edge9" class="edge">
<title>Node4&#45;&gt;Node6</title>
<path fill="none" stroke="midnightblue" d="M250.3,-112.35C234.86,-104.88 214.36,-92.65 202,-76 192.03,-62.58 187.28,-44.01 185.02,-30.16"/>
<polygon fill="midnightblue" stroke="midnightblue" points="188.43,-29.3 183.65,-19.85 181.5,-30.22 188.43,-29.3"/>
</g>
<!-- Node4&#45;&gt;Node8 -->
<g id="edge13" class="edge">
<title>Node4&#45;&gt;Node8</title>
<path fill="none" stroke="midnightblue" d="M254.65,-112.44C237.81,-103.55 210.88,-89.14 188,-76 158.45,-59.03 124.96,-38.46 103.44,-25.07"/>
<polygon fill="midnightblue" stroke="midnightblue" points="105.06,-21.96 94.72,-19.63 101.35,-27.9 105.06,-21.96"/>
</g>
<!-- Node10 -->
<g id="node10" class="node">
<title>Node10</title>
<g id="a_node10"><a xlink:title=" ">
<polygon fill="none" stroke="#bfbfbf" points="375,-56.5 375,-75.5 427,-75.5 427,-56.5 375,-56.5"/>
<text text-anchor="middle" x="401" y="-63.5" font-family="Helvetica,sans-Serif" font-size="10.00">cassert</text>
</a>
</g>
</g>
<!-- Node4&#45;&gt;Node10 -->
<g id="edge10" class="edge">
<title>Node4&#45;&gt;Node10</title>
<path fill="none" stroke="midnightblue" d="M291.6,-112.44C312.99,-103.56 346.68,-89.56 371.02,-79.45"/>
<polygon fill="midnightblue" stroke="midnightblue" points="372.61,-82.58 380.5,-75.52 369.92,-76.12 372.61,-82.58"/>
</g>
<!-- Node11 -->
<g id="node11" class="node">
<title>Node11</title>
<g id="a_node11"><a xlink:title=" ">
<polygon fill="none" stroke="#bfbfbf" points="325,-56.5 325,-75.5 357,-75.5 357,-56.5 325,-56.5"/>
<text text-anchor="middle" x="341" y="-63.5" font-family="Helvetica,sans-Serif" font-size="10.00">list</text>
</a>
</g>
</g>
<!-- Node4&#45;&gt;Node11 -->
<g id="edge11" class="edge">
<title>Node4&#45;&gt;Node11</title>
<path fill="none" stroke="midnightblue" d="M282.25,-112.32C292.8,-104.18 308.8,-91.84 321.44,-82.09"/>
<polygon fill="midnightblue" stroke="midnightblue" points="323.77,-84.71 329.55,-75.83 319.49,-79.17 323.77,-84.71"/>
</g>
<!-- Node12 -->
<g id="node12" class="node">
<title>Node12</title>
<g id="a_node12"><a xlink:title=" ">
<polygon fill="none" stroke="#bfbfbf" points="79,-56.5 79,-75.5 117,-75.5 117,-56.5 79,-56.5"/>
<text text-anchor="middle" x="98" y="-63.5" font-family="Helvetica,sans-Serif" font-size="10.00">map</text>
</a>
</g>
</g>
<!-- Node4&#45;&gt;Node12 -->
<g id="edge12" class="edge">
<title>Node4&#45;&gt;Node12</title>
<path fill="none" stroke="midnightblue" d="M243.59,-112.44C211.78,-102.51 159.55,-86.21 127.05,-76.07"/>
<polygon fill="midnightblue" stroke="midnightblue" points="127.84,-72.65 117.25,-73.01 125.75,-79.33 127.84,-72.65"/>
</g>
<!-- Node5&#45;&gt;Node6 -->
<g id="edge5" class="edge">
<title>Node5&#45;&gt;Node6</title>
<path fill="none" stroke="midnightblue" d="M246.79,-56.32C235.22,-48.11 217.62,-35.6 203.84,-25.81"/>
<polygon fill="midnightblue" stroke="midnightblue" points="205.61,-22.77 195.43,-19.83 201.56,-28.48 205.61,-22.77"/>
</g>
<!-- Node5&#45;&gt;Node7 -->
<g id="edge6" class="edge">
<title>Node5&#45;&gt;Node7</title>
<path fill="none" stroke="midnightblue" d="M290.06,-56.44C323.8,-47.15 377.83,-32.26 414.79,-22.08"/>
<polygon fill="midnightblue" stroke="midnightblue" points="416.02,-25.37 424.73,-19.34 414.16,-18.62 416.02,-25.37"/>
</g>
<!-- Node5&#45;&gt;Node8 -->
<g id="edge7" class="edge">
<title>Node5&#45;&gt;Node8</title>
<path fill="none" stroke="midnightblue" d="M230.8,-56.44C198.72,-46.71 146.48,-30.86 112.93,-20.69"/>
<polygon fill="midnightblue" stroke="midnightblue" points="113.75,-17.28 103.17,-17.73 111.72,-23.98 113.75,-17.28"/>
</g>
<!-- Node9 -->
<g id="node9" class="node">
<title>Node9</title>
<g id="a_node9"><a xlink:title=" ">
<polygon fill="none" stroke="#bfbfbf" points="233.5,-0.5 233.5,-19.5 286.5,-19.5 286.5,-0.5 233.5,-0.5"/>
<text text-anchor="middle" x="260" y="-7.5" font-family="Helvetica,sans-Serif" font-size="10.00">stdint.h</text>
</a>
</g>
</g>
<!-- Node5&#45;&gt;Node9 -->
<g id="edge8" class="edge">
<title>Node5&#45;&gt;Node9</title>
<path fill="none" stroke="midnightblue" d="M259.17,-56.08C259.3,-49.01 259.48,-38.86 259.65,-29.99"/>
<polygon fill="midnightblue" stroke="midnightblue" points="263.15,-29.81 259.84,-19.75 256.15,-29.68 263.15,-29.81"/>
</g>
<!-- Node18&#45;&gt;Node8 -->
<g id="edge22" class="edge">
<title>Node18&#45;&gt;Node8</title>
<path fill="none" stroke="midnightblue" d="M99.46,-112.49C89.52,-104.38 75.88,-91.18 70,-76 64.13,-60.84 68.16,-42.49 72.91,-29.16"/>
<polygon fill="midnightblue" stroke="midnightblue" points="76.23,-30.29 76.7,-19.71 69.73,-27.69 76.23,-30.29"/>
</g>
<!-- Node18&#45;&gt;Node12 -->
<g id="edge21" class="edge">
<title>Node18&#45;&gt;Node12</title>
<path fill="none" stroke="midnightblue" d="M108.85,-112.08C107.13,-104.93 104.65,-94.64 102.5,-85.69"/>
<polygon fill="midnightblue" stroke="midnightblue" points="105.85,-84.65 100.11,-75.75 99.04,-86.29 105.85,-84.65"/>
</g>
</g>
</svg>
