<?xml version="1.0" encoding="UTF-8" standalone="no"?>
<!DOCTYPE svg PUBLIC "-//W3C//DTD SVG 1.1//EN"
 "http://www.w3.org/Graphics/SVG/1.1/DTD/svg11.dtd">
<!-- Generated by graphviz version 2.43.0 (0)
 -->
<!-- Title: include/MVExpr/MVExprArray.h Pages: 1 -->
<svg width="1206pt" height="364pt"
 viewBox="0.00 0.00 1206.00 364.00" xmlns="http://www.w3.org/2000/svg" xmlns:xlink="http://www.w3.org/1999/xlink">
<g id="graph0" class="graph" transform="scale(1 1) rotate(0) translate(4 360)">
<title>include/MVExpr/MVExprArray.h</title>
<!-- Node1 -->
<g id="node1" class="node">
<title>Node1</title>
<g id="a_node1"><a xlink:title=" ">
<polygon fill="#bfbfbf" stroke="black" points="913.5,-336.5 913.5,-355.5 1080.5,-355.5 1080.5,-336.5 913.5,-336.5"/>
<text text-anchor="middle" x="997" y="-343.5" font-family="Helvetica,sans-Serif" font-size="10.00">include/MVExpr/MVExprArray.h</text>
</a>
</g>
</g>
<!-- Node2 -->
<g id="node2" class="node">
<title>Node2</title>
<g id="a_node2"><a xlink:href="MVExpr_8h.html" target="_top" xlink:title=" ">
<polygon fill="none" stroke="black" points="742.5,-280.5 742.5,-299.5 883.5,-299.5 883.5,-280.5 742.5,-280.5"/>
<text text-anchor="middle" x="813" y="-287.5" font-family="Helvetica,sans-Serif" font-size="10.00">include/MVExpr/MVExpr.h</text>
</a>
</g>
</g>
<!-- Node1&#45;&gt;Node2 -->
<g id="edge1" class="edge">
<title>Node1&#45;&gt;Node2</title>
<path fill="none" stroke="midnightblue" d="M967.84,-336.44C936.49,-327.24 886.47,-312.56 851.8,-302.39"/>
<polygon fill="midnightblue" stroke="midnightblue" points="852.6,-298.97 842.02,-299.52 850.63,-305.69 852.6,-298.97"/>
</g>
<!-- Node21 -->
<g id="node21" class="node">
<title>Node21</title>
<g id="a_node21"><a xlink:title=" ">
<polygon fill="none" stroke="#bfbfbf" points="1070,-224.5 1070,-243.5 1198,-243.5 1198,-224.5 1070,-224.5"/>
<text text-anchor="middle" x="1134" y="-231.5" font-family="Helvetica,sans-Serif" font-size="10.00">llvm/Support/Casting.h</text>
</a>
</g>
</g>
<!-- Node1&#45;&gt;Node21 -->
<g id="edge31" class="edge">
<title>Node1&#45;&gt;Node21</title>
<path fill="none" stroke="midnightblue" d="M997.34,-336.24C998.33,-322.51 1002.17,-295.88 1017,-280 1032.32,-263.59 1054.29,-253.1 1075.07,-246.42"/>
<polygon fill="midnightblue" stroke="midnightblue" points="1076.23,-249.73 1084.82,-243.52 1074.24,-243.01 1076.23,-249.73"/>
</g>
<!-- Node23 -->
<g id="node23" class="node">
<title>Node23</title>
<g id="a_node23"><a xlink:title=" ">
<polygon fill="none" stroke="#bfbfbf" points="1025.5,-280.5 1025.5,-299.5 1078.5,-299.5 1078.5,-280.5 1025.5,-280.5"/>
<text text-anchor="middle" x="1052" y="-287.5" font-family="Helvetica,sans-Serif" font-size="10.00">string.h</text>
</a>
</g>
</g>
<!-- Node1&#45;&gt;Node23 -->
<g id="edge32" class="edge">
<title>Node1&#45;&gt;Node23</title>
<path fill="none" stroke="midnightblue" d="M1006.08,-336.08C1014.17,-328.14 1026.2,-316.34 1035.91,-306.8"/>
<polygon fill="midnightblue" stroke="midnightblue" points="1038.4,-309.25 1043.09,-299.75 1033.5,-304.26 1038.4,-309.25"/>
</g>
<!-- Node3 -->
<g id="node3" class="node">
<title>Node3</title>
<g id="a_node3"><a xlink:href="Debug_8h.html" target="_top" xlink:title=" ">
<polygon fill="none" stroke="black" points="506.5,-224.5 506.5,-243.5 601.5,-243.5 601.5,-224.5 506.5,-224.5"/>
<text text-anchor="middle" x="554" y="-231.5" font-family="Helvetica,sans-Serif" font-size="10.00">include/Debug.h</text>
</a>
</g>
</g>
<!-- Node2&#45;&gt;Node3 -->
<g id="edge2" class="edge">
<title>Node2&#45;&gt;Node3</title>
<path fill="none" stroke="midnightblue" d="M771.96,-280.44C726.68,-271 653.77,-255.8 604.89,-245.61"/>
<polygon fill="midnightblue" stroke="midnightblue" points="605.35,-242.13 594.85,-243.52 603.92,-248.98 605.35,-242.13"/>
</g>
<!-- Node4 -->
<g id="node4" class="node">
<title>Node4</title>
<g id="a_node4"><a xlink:href="Utils_8h.html" target="_top" xlink:title=" ">
<polygon fill="none" stroke="black" points="424,-168.5 424,-187.5 510,-187.5 510,-168.5 424,-168.5"/>
<text text-anchor="middle" x="467" y="-175.5" font-family="Helvetica,sans-Serif" font-size="10.00">include/Utils.h</text>
</a>
</g>
</g>
<!-- Node2&#45;&gt;Node4 -->
<g id="edge24" class="edge">
<title>Node2&#45;&gt;Node4</title>
<path fill="none" stroke="midnightblue" d="M742.41,-286.68C661.36,-282.71 534.73,-272.09 497,-244 482.22,-233 474.5,-212.95 470.62,-198.01"/>
<polygon fill="midnightblue" stroke="midnightblue" points="473.94,-196.82 468.34,-187.83 467.11,-198.35 473.94,-196.82"/>
</g>
<!-- Node8 -->
<g id="node8" class="node">
<title>Node8</title>
<g id="a_node8"><a xlink:title=" ">
<polygon fill="none" stroke="#bfbfbf" points="180,-0.5 180,-19.5 240,-19.5 240,-0.5 180,-0.5"/>
<text text-anchor="middle" x="210" y="-7.5" font-family="Helvetica,sans-Serif" font-size="10.00">iostream</text>
</a>
</g>
</g>
<!-- Node2&#45;&gt;Node8 -->
<g id="edge28" class="edge">
<title>Node2&#45;&gt;Node8</title>
<path fill="none" stroke="midnightblue" d="M742.27,-286.81C544.48,-279.77 0,-253.6 0,-179 0,-179 0,-179 0,-121 0,-45.13 108.88,-21.49 169.84,-14.2"/>
<polygon fill="midnightblue" stroke="midnightblue" points="170.36,-17.66 179.91,-13.09 169.59,-10.71 170.36,-17.66"/>
</g>
<!-- Node9 -->
<g id="node9" class="node">
<title>Node9</title>
<g id="a_node9"><a xlink:title=" ">
<polygon fill="none" stroke="#bfbfbf" points="615,-0.5 615,-19.5 659,-19.5 659,-0.5 615,-0.5"/>
<text text-anchor="middle" x="637" y="-7.5" font-family="Helvetica,sans-Serif" font-size="10.00">string</text>
</a>
</g>
</g>
<!-- Node2&#45;&gt;Node9 -->
<g id="edge30" class="edge">
<title>Node2&#45;&gt;Node9</title>
<path fill="none" stroke="midnightblue" d="M883.58,-284.22C950.86,-275.37 1042,-250.23 1042,-179 1042,-179 1042,-179 1042,-121 1042,-43.92 765.31,-19.11 669.33,-12.82"/>
<polygon fill="midnightblue" stroke="midnightblue" points="669.26,-9.31 659.06,-12.18 668.82,-16.3 669.26,-9.31"/>
</g>
<!-- Node14 -->
<g id="node14" class="node">
<title>Node14</title>
<g id="a_node14"><a xlink:title=" ">
<polygon fill="none" stroke="#bfbfbf" points="734.5,-112.5 734.5,-131.5 829.5,-131.5 829.5,-112.5 734.5,-112.5"/>
<text text-anchor="middle" x="782" y="-119.5" font-family="Helvetica,sans-Serif" font-size="10.00">clang/AST/AST.h</text>
</a>
</g>
</g>
<!-- Node2&#45;&gt;Node14 -->
<g id="edge25" class="edge">
<title>Node2&#45;&gt;Node14</title>
<path fill="none" stroke="midnightblue" d="M816.3,-280.13C820.54,-267.58 826.89,-243.95 823,-224 817.01,-193.32 801.68,-160.17 791.55,-140.52"/>
<polygon fill="midnightblue" stroke="midnightblue" points="794.58,-138.76 786.81,-131.56 788.4,-142.04 794.58,-138.76"/>
</g>
<!-- Node19 -->
<g id="node19" class="node">
<title>Node19</title>
<g id="a_node19"><a xlink:href="MVDataType_8h.html" target="_top" xlink:title=" ">
<polygon fill="none" stroke="black" points="848,-112.5 848,-131.5 1014,-131.5 1014,-112.5 848,-112.5"/>
<text text-anchor="middle" x="931" y="-119.5" font-family="Helvetica,sans-Serif" font-size="10.00">include/MVExpr/MVDataType.h</text>
</a>
</g>
</g>
<!-- Node2&#45;&gt;Node19 -->
<g id="edge21" class="edge">
<title>Node2&#45;&gt;Node19</title>
<path fill="none" stroke="midnightblue" d="M819.34,-280.08C838.24,-253.49 894.36,-174.54 919.08,-139.76"/>
<polygon fill="midnightblue" stroke="midnightblue" points="921.97,-141.75 924.91,-131.57 916.26,-137.69 921.97,-141.75"/>
</g>
<!-- Node20 -->
<g id="node20" class="node">
<title>Node20</title>
<g id="a_node20"><a xlink:title=" ">
<polygon fill="none" stroke="#bfbfbf" points="640,-224.5 640,-243.5 738,-243.5 738,-224.5 640,-224.5"/>
<text text-anchor="middle" x="689" y="-231.5" font-family="Helvetica,sans-Serif" font-size="10.00">clang/AST/Expr.h</text>
</a>
</g>
</g>
<!-- Node2&#45;&gt;Node20 -->
<g id="edge26" class="edge">
<title>Node2&#45;&gt;Node20</title>
<path fill="none" stroke="midnightblue" d="M793.35,-280.44C773.04,-271.6 741.1,-257.69 717.9,-247.59"/>
<polygon fill="midnightblue" stroke="midnightblue" points="719.12,-244.3 708.56,-243.52 716.33,-250.72 719.12,-244.3"/>
</g>
<!-- Node2&#45;&gt;Node21 -->
<g id="edge27" class="edge">
<title>Node2&#45;&gt;Node21</title>
<path fill="none" stroke="midnightblue" d="M863.86,-280.44C920.68,-270.89 1012.62,-255.42 1073.19,-245.23"/>
<polygon fill="midnightblue" stroke="midnightblue" points="1074.09,-248.63 1083.37,-243.52 1072.93,-241.72 1074.09,-248.63"/>
</g>
<!-- Node22 -->
<g id="node22" class="node">
<title>Node22</title>
<g id="a_node22"><a xlink:title=" ">
<polygon fill="none" stroke="#bfbfbf" points="756,-224.5 756,-243.5 814,-243.5 814,-224.5 756,-224.5"/>
<text text-anchor="middle" x="785" y="-231.5" font-family="Helvetica,sans-Serif" font-size="10.00">memory</text>
</a>
</g>
</g>
<!-- Node2&#45;&gt;Node22 -->
<g id="edge29" class="edge">
<title>Node2&#45;&gt;Node22</title>
<path fill="none" stroke="midnightblue" d="M808.38,-280.08C804.54,-272.69 798.98,-261.95 794.24,-252.81"/>
<polygon fill="midnightblue" stroke="midnightblue" points="797.25,-251.02 789.54,-243.75 791.03,-254.24 797.25,-251.02"/>
</g>
<!-- Node3&#45;&gt;Node4 -->
<g id="edge3" class="edge">
<title>Node3&#45;&gt;Node4</title>
<path fill="none" stroke="midnightblue" d="M540.02,-224.32C526.45,-215.9 505.62,-202.97 489.68,-193.07"/>
<polygon fill="midnightblue" stroke="midnightblue" points="491.29,-189.95 480.94,-187.65 487.59,-195.9 491.29,-189.95"/>
</g>
<!-- Node5 -->
<g id="node5" class="node">
<title>Node5</title>
<g id="a_node5"><a xlink:href="MVOptions_8h.html" target="_top" xlink:title=" ">
<polygon fill="none" stroke="black" points="259.5,-112.5 259.5,-131.5 376.5,-131.5 376.5,-112.5 259.5,-112.5"/>
<text text-anchor="middle" x="318" y="-119.5" font-family="Helvetica,sans-Serif" font-size="10.00">include/MVOptions.h</text>
</a>
</g>
</g>
<!-- Node4&#45;&gt;Node5 -->
<g id="edge4" class="edge">
<title>Node4&#45;&gt;Node5</title>
<path fill="none" stroke="midnightblue" d="M443.39,-168.44C418.54,-159.44 379.23,-145.19 351.25,-135.05"/>
<polygon fill="midnightblue" stroke="midnightblue" points="352.09,-131.63 341.5,-131.52 349.71,-138.21 352.09,-131.63"/>
</g>
<!-- Node4&#45;&gt;Node8 -->
<g id="edge20" class="edge">
<title>Node4&#45;&gt;Node8</title>
<path fill="none" stroke="midnightblue" d="M423.6,-173.11C367.84,-167.28 275.2,-154.46 250,-132 220.36,-105.58 212.62,-56.75 210.64,-29.9"/>
<polygon fill="midnightblue" stroke="midnightblue" points="214.12,-29.37 210.09,-19.57 207.13,-29.75 214.12,-29.37"/>
</g>
<!-- Node4&#45;&gt;Node14 -->
<g id="edge15" class="edge">
<title>Node4&#45;&gt;Node14</title>
<path fill="none" stroke="midnightblue" d="M510.14,-169.6C565.68,-160.08 662.4,-143.5 724.25,-132.9"/>
<polygon fill="midnightblue" stroke="midnightblue" points="724.97,-136.33 734.24,-131.19 723.79,-129.43 724.97,-136.33"/>
</g>
<!-- Node15 -->
<g id="node15" class="node">
<title>Node15</title>
<g id="a_node15"><a xlink:title=" ">
<polygon fill="none" stroke="#bfbfbf" points="394.5,-112.5 394.5,-131.5 539.5,-131.5 539.5,-112.5 394.5,-112.5"/>
<text text-anchor="middle" x="467" y="-119.5" font-family="Helvetica,sans-Serif" font-size="10.00">clang/Basic/LangOptions.h</text>
</a>
</g>
</g>
<!-- Node4&#45;&gt;Node15 -->
<g id="edge16" class="edge">
<title>Node4&#45;&gt;Node15</title>
<path fill="none" stroke="midnightblue" d="M467,-168.08C467,-161.01 467,-150.86 467,-141.99"/>
<polygon fill="midnightblue" stroke="midnightblue" points="470.5,-141.75 467,-131.75 463.5,-141.75 470.5,-141.75"/>
</g>
<!-- Node16 -->
<g id="node16" class="node">
<title>Node16</title>
<g id="a_node16"><a xlink:title=" ">
<polygon fill="none" stroke="#bfbfbf" points="557.5,-112.5 557.5,-131.5 716.5,-131.5 716.5,-112.5 557.5,-112.5"/>
<text text-anchor="middle" x="637" y="-119.5" font-family="Helvetica,sans-Serif" font-size="10.00">clang/Basic/SourceManager.h</text>
</a>
</g>
</g>
<!-- Node4&#45;&gt;Node16 -->
<g id="edge17" class="edge">
<title>Node4&#45;&gt;Node16</title>
<path fill="none" stroke="midnightblue" d="M493.94,-168.44C522.66,-159.32 568.33,-144.81 600.32,-134.65"/>
<polygon fill="midnightblue" stroke="midnightblue" points="601.72,-137.88 610.19,-131.52 599.6,-131.21 601.72,-137.88"/>
</g>
<!-- Node17 -->
<g id="node17" class="node">
<title>Node17</title>
<g id="a_node17"><a xlink:title=" ">
<polygon fill="none" stroke="#bfbfbf" points="28.5,-112.5 28.5,-131.5 129.5,-131.5 129.5,-112.5 28.5,-112.5"/>
<text text-anchor="middle" x="79" y="-119.5" font-family="Helvetica,sans-Serif" font-size="10.00">clang/Lex/Lexer.h</text>
</a>
</g>
</g>
<!-- Node4&#45;&gt;Node17 -->
<g id="edge18" class="edge">
<title>Node4&#45;&gt;Node17</title>
<path fill="none" stroke="midnightblue" d="M423.86,-171.32C362.86,-163.23 247.66,-147.79 139.62,-132.22"/>
<polygon fill="midnightblue" stroke="midnightblue" points="139.92,-128.72 129.52,-130.76 138.92,-135.65 139.92,-128.72"/>
</g>
<!-- Node18 -->
<g id="node18" class="node">
<title>Node18</title>
<g id="a_node18"><a xlink:title=" ">
<polygon fill="none" stroke="#bfbfbf" points="147.5,-112.5 147.5,-131.5 202.5,-131.5 202.5,-112.5 147.5,-112.5"/>
<text text-anchor="middle" x="175" y="-119.5" font-family="Helvetica,sans-Serif" font-size="10.00">fstream</text>
</a>
</g>
</g>
<!-- Node4&#45;&gt;Node18 -->
<g id="edge19" class="edge">
<title>Node4&#45;&gt;Node18</title>
<path fill="none" stroke="midnightblue" d="M423.56,-169.63C373.63,-161.05 289.26,-146.24 217,-132 215.54,-131.71 214.05,-131.41 212.54,-131.11"/>
<polygon fill="midnightblue" stroke="midnightblue" points="213.04,-127.64 202.54,-129.04 211.62,-134.49 213.04,-127.64"/>
</g>
<!-- Node6 -->
<g id="node6" class="node">
<title>Node6</title>
<g id="a_node6"><a xlink:href="CPUID_8h.html" target="_top" xlink:title=" ">
<polygon fill="none" stroke="black" points="297.5,-56.5 297.5,-75.5 392.5,-75.5 392.5,-56.5 297.5,-56.5"/>
<text text-anchor="middle" x="345" y="-63.5" font-family="Helvetica,sans-Serif" font-size="10.00">include/CPUID.h</text>
</a>
</g>
</g>
<!-- Node5&#45;&gt;Node6 -->
<g id="edge5" class="edge">
<title>Node5&#45;&gt;Node6</title>
<path fill="none" stroke="midnightblue" d="M322.46,-112.08C326.15,-104.69 331.52,-93.95 336.09,-84.81"/>
<polygon fill="midnightblue" stroke="midnightblue" points="339.28,-86.26 340.62,-75.75 333.02,-83.13 339.28,-86.26"/>
</g>
<!-- Node7 -->
<g id="node7" class="node">
<title>Node7</title>
<g id="a_node7"><a xlink:title=" ">
<polygon fill="none" stroke="#bfbfbf" points="258,-0.5 258,-19.5 322,-19.5 322,-0.5 258,-0.5"/>
<text text-anchor="middle" x="290" y="-7.5" font-family="Helvetica,sans-Serif" font-size="10.00">algorithm</text>
</a>
</g>
</g>
<!-- Node5&#45;&gt;Node7 -->
<g id="edge10" class="edge">
<title>Node5&#45;&gt;Node7</title>
<path fill="none" stroke="midnightblue" d="M309.79,-112.18C302.46,-103.66 292.24,-90.02 288,-76 283.45,-60.96 284.44,-43.05 286.29,-29.85"/>
<polygon fill="midnightblue" stroke="midnightblue" points="289.8,-30.09 288.02,-19.64 282.9,-28.92 289.8,-30.09"/>
</g>
<!-- Node5&#45;&gt;Node9 -->
<g id="edge14" class="edge">
<title>Node5&#45;&gt;Node9</title>
<path fill="none" stroke="midnightblue" d="M354.79,-112.46C386.44,-104.59 433.01,-91.77 472,-76 489.69,-68.84 492.52,-63.65 510,-56 541.59,-42.17 578.92,-29.35 604.9,-20.96"/>
<polygon fill="midnightblue" stroke="midnightblue" points="606.14,-24.23 614.6,-17.86 604.01,-17.56 606.14,-24.23"/>
</g>
<!-- Node11 -->
<g id="node11" class="node">
<title>Node11</title>
<g id="a_node11"><a xlink:title=" ">
<polygon fill="none" stroke="#bfbfbf" points="411,-56.5 411,-75.5 463,-75.5 463,-56.5 411,-56.5"/>
<text text-anchor="middle" x="437" y="-63.5" font-family="Helvetica,sans-Serif" font-size="10.00">cassert</text>
</a>
</g>
</g>
<!-- Node5&#45;&gt;Node11 -->
<g id="edge11" class="edge">
<title>Node5&#45;&gt;Node11</title>
<path fill="none" stroke="midnightblue" d="M336.86,-112.44C356.27,-103.64 386.73,-89.81 408.96,-79.72"/>
<polygon fill="midnightblue" stroke="midnightblue" points="410.57,-82.84 418.23,-75.52 407.68,-76.46 410.57,-82.84"/>
</g>
<!-- Node12 -->
<g id="node12" class="node">
<title>Node12</title>
<g id="a_node12"><a xlink:title=" ">
<polygon fill="none" stroke="#bfbfbf" points="519,-56.5 519,-75.5 551,-75.5 551,-56.5 519,-56.5"/>
<text text-anchor="middle" x="535" y="-63.5" font-family="Helvetica,sans-Serif" font-size="10.00">list</text>
</a>
</g>
</g>
<!-- Node5&#45;&gt;Node12 -->
<g id="edge12" class="edge">
<title>Node5&#45;&gt;Node12</title>
<path fill="none" stroke="midnightblue" d="M356.12,-112.48C394.02,-103.85 453.74,-89.84 505,-76 506.27,-75.66 507.57,-75.3 508.88,-74.93"/>
<polygon fill="midnightblue" stroke="midnightblue" points="510.23,-78.18 518.85,-72.02 508.27,-71.46 510.23,-78.18"/>
</g>
<!-- Node13 -->
<g id="node13" class="node">
<title>Node13</title>
<g id="a_node13"><a xlink:title=" ">
<polygon fill="none" stroke="#bfbfbf" points="643,-56.5 643,-75.5 681,-75.5 681,-56.5 643,-56.5"/>
<text text-anchor="middle" x="662" y="-63.5" font-family="Helvetica,sans-Serif" font-size="10.00">map</text>
</a>
</g>
</g>
<!-- Node5&#45;&gt;Node13 -->
<g id="edge13" class="edge">
<title>Node5&#45;&gt;Node13</title>
<path fill="none" stroke="midnightblue" d="M372.51,-112.44C446.19,-100.88 574.98,-80.66 632.64,-71.61"/>
<polygon fill="midnightblue" stroke="midnightblue" points="633.53,-75.01 642.86,-70 632.44,-68.1 633.53,-75.01"/>
</g>
<!-- Node6&#45;&gt;Node7 -->
<g id="edge6" class="edge">
<title>Node6&#45;&gt;Node7</title>
<path fill="none" stroke="midnightblue" d="M335.92,-56.08C327.83,-48.14 315.8,-36.34 306.09,-26.8"/>
<polygon fill="midnightblue" stroke="midnightblue" points="308.5,-24.26 298.91,-19.75 303.6,-29.25 308.5,-24.26"/>
</g>
<!-- Node6&#45;&gt;Node8 -->
<g id="edge7" class="edge">
<title>Node6&#45;&gt;Node8</title>
<path fill="none" stroke="midnightblue" d="M323.61,-56.44C301.29,-47.52 266.1,-33.44 240.79,-23.32"/>
<polygon fill="midnightblue" stroke="midnightblue" points="241.88,-19.98 231.29,-19.52 239.28,-26.48 241.88,-19.98"/>
</g>
<!-- Node6&#45;&gt;Node9 -->
<g id="edge8" class="edge">
<title>Node6&#45;&gt;Node9</title>
<path fill="none" stroke="midnightblue" d="M391.27,-56.44C450.85,-45.43 552.86,-26.56 604.71,-16.97"/>
<polygon fill="midnightblue" stroke="midnightblue" points="605.48,-20.39 614.68,-15.13 604.21,-13.5 605.48,-20.39"/>
</g>
<!-- Node10 -->
<g id="node10" class="node">
<title>Node10</title>
<g id="a_node10"><a xlink:title=" ">
<polygon fill="none" stroke="#bfbfbf" points="340.5,-0.5 340.5,-19.5 393.5,-19.5 393.5,-0.5 340.5,-0.5"/>
<text text-anchor="middle" x="367" y="-7.5" font-family="Helvetica,sans-Serif" font-size="10.00">stdint.h</text>
</a>
</g>
</g>
<!-- Node6&#45;&gt;Node10 -->
<g id="edge9" class="edge">
<title>Node6&#45;&gt;Node10</title>
<path fill="none" stroke="midnightblue" d="M348.63,-56.08C351.61,-48.77 355.93,-38.18 359.62,-29.1"/>
<polygon fill="midnightblue" stroke="midnightblue" points="362.9,-30.33 363.43,-19.75 356.42,-27.69 362.9,-30.33"/>
</g>
<!-- Node19&#45;&gt;Node9 -->
<g id="edge23" class="edge">
<title>Node19&#45;&gt;Node9</title>
<path fill="none" stroke="midnightblue" d="M907.93,-112.37C855.72,-92.83 728.43,-45.21 668.8,-22.9"/>
<polygon fill="midnightblue" stroke="midnightblue" points="669.75,-19.52 659.16,-19.29 667.3,-26.07 669.75,-19.52"/>
</g>
<!-- Node19&#45;&gt;Node13 -->
<g id="edge22" class="edge">
<title>Node19&#45;&gt;Node13</title>
<path fill="none" stroke="midnightblue" d="M888.38,-112.44C833.28,-101.38 738.8,-82.42 691.21,-72.86"/>
<polygon fill="midnightblue" stroke="midnightblue" points="691.74,-69.4 681.25,-70.86 690.37,-76.26 691.74,-69.4"/>
</g>
</g>
</svg>
