<?xml version="1.0" encoding="UTF-8" standalone="no"?>
<!DOCTYPE svg PUBLIC "-//W3C//DTD SVG 1.1//EN"
 "http://www.w3.org/Graphics/SVG/1.1/DTD/svg11.dtd">
<!-- Generated by graphviz version 2.43.0 (0)
 -->
<!-- Title: include/MVExpr/MVExprLiteral.h Pages: 1 -->
<!--zoomable 408 -->
<svg id="main" version="1.1" xmlns="http://www.w3.org/2000/svg" xmlns:xlink="http://www.w3.org/1999/xlink" xml:space="preserve" onload="init(evt)">
<style type="text/css"><![CDATA[
.edge:hover path { stroke: red; }
.edge:hover polygon { stroke: red; fill: red; }
]]></style>
<script type="text/javascript"><![CDATA[
var edges = document.getElementsByTagName('g');
if (edges && edges.length) {
  for (var i=0;i<edges.length;i++) {
    if (edges[i].id.substr(0,4)=='edge') {
      edges[i].setAttribute('class','edge');
    }
  }
}
]]></script>
        <defs>
                <circle id="rim" cx="0" cy="0" r="7"/>
                <circle id="rim2" cx="0" cy="0" r="3.5"/>
                <g id="zoomPlus">
                        <use xlink:href="#rim" fill="#404040">
                                <set attributeName="fill" to="#808080" begin="zoomplus.mouseover" end="zoomplus.mouseout"/>
                        </use>
                        <path d="M-4,0h8M0,-4v8" fill="none" stroke="white" stroke-width="1.5" pointer-events="none"/>
                </g>
                <g id="zoomMin">
                        <use xlink:href="#rim" fill="#404040">
                                <set attributeName="fill" to="#808080" begin="zoomminus.mouseover" end="zoomminus.mouseout"/>
                        </use>
                        <path d="M-4,0h8" fill="none" stroke="white" stroke-width="1.5" pointer-events="none"/>
                </g>
                <g id="dirArrow">
                        <path fill="none" stroke="white" stroke-width="1.5" d="M0,-3.0v7 M-2.5,-0.5L0,-3.0L2.5,-0.5"/>
                </g>
               <g id="resetDef">
                       <use xlink:href="#rim2" fill="#404040">
                               <set attributeName="fill" to="#808080" begin="reset.mouseover" end="reset.mouseout"/>
                       </use>
               </g>
        </defs>

<script type="text/javascript">
var viewWidth = 603;
var viewHeight = 408;
var sectionId = 'dynsection-1';
</script>
<script xlink:href="svgpan.js"/>
<svg id="graph" class="graph">
<g id="viewport">
<title>include/MVExpr/MVExprLiteral.h</title>
<!-- Node1 -->
<g id="node1" class="node">
<title>Node1</title>
<g id="a_node1"><a xlink:title=" ">
<polygon fill="#bfbfbf" stroke="black" points="100.88,-380.5 100.88,-399.5 273.88,-399.5 273.88,-380.5 100.88,-380.5"/>
<text text-anchor="middle" x="187.38" y="-387.5" font-family="Helvetica,sans-Serif" font-size="10.00">include/MVExpr/MVExprLiteral.h</text>
</a>
</g>
</g>
<!-- Node2 -->
<g id="node2" class="node">
<title>Node2</title>
<g id="a_node2"><a xlink:href="Node_8h.html" target="_top" xlink:title=" ">
<polygon fill="none" stroke="black" points="142.88,-324.5 142.88,-343.5 231.88,-343.5 231.88,-324.5 142.88,-324.5"/>
<text text-anchor="middle" x="187.38" y="-331.5" font-family="Helvetica,sans-Serif" font-size="10.00">include/Node.h</text>
</a>
</g>
</g>
<!-- Node1&#45;&gt;Node2 -->
<g id="edge1" class="edge">
<title>Node1&#45;&gt;Node2</title>
<path fill="none" stroke="midnightblue" d="M187.38,-369.8C187.38,-360.91 187.38,-350.78 187.38,-343.75"/>
<polygon fill="midnightblue" stroke="midnightblue" points="183.88,-370.08 187.38,-380.08 190.88,-370.08 183.88,-370.08"/>
</g>
<!-- Node3 -->
<g id="node3" class="node">
<title>Node3</title>
<g id="a_node3"><a xlink:href="CDAG_8h.html" target="_top" xlink:title=" ">
<polygon fill="none" stroke="black" points="67.38,-263 67.38,-282 159.38,-282 159.38,-263 67.38,-263"/>
<text text-anchor="middle" x="113.38" y="-270" font-family="Helvetica,sans-Serif" font-size="10.00">include/CDAG.h</text>
</a>
</g>
</g>
<!-- Node2&#45;&gt;Node3 -->
<g id="edge2" class="edge">
<title>Node2&#45;&gt;Node3</title>
<path fill="none" stroke="midnightblue" d="M168.69,-317.97C154.53,-306.59 135.6,-291.37 123.96,-282.01"/>
<polygon fill="midnightblue" stroke="midnightblue" points="166.79,-320.94 176.77,-324.48 171.17,-315.48 166.79,-320.94"/>
</g>
<!-- Node7 -->
<g id="node7" class="node">
<title>Node7</title>
<g id="a_node7"><a xlink:href="PlcmntAlgo_8h.html" target="_top" xlink:title=" ">
<polygon fill="none" stroke="black" points="101.88,-196 101.88,-215 220.88,-215 220.88,-196 101.88,-196"/>
<text text-anchor="middle" x="161.38" y="-203" font-family="Helvetica,sans-Serif" font-size="10.00">include/PlcmntAlgo.h</text>
</a>
</g>
</g>
<!-- Node2&#45;&gt;Node7 -->
<g id="edge17" class="edge">
<title>Node2&#45;&gt;Node7</title>
<path fill="none" stroke="midnightblue" d="M183.53,-314.31C177.83,-286.58 167.36,-235.63 163.17,-215.26"/>
<polygon fill="midnightblue" stroke="midnightblue" points="180.15,-315.21 185.59,-324.31 187,-313.81 180.15,-315.21"/>
</g>
<!-- Node13 -->
<g id="node13" class="node">
<title>Node13</title>
<g id="a_node13"><a xlink:href="VectorIR_8h.html" target="_top" xlink:title=" ">
<polygon fill="none" stroke="black" points="241.88,-257.5 241.88,-287.5 360.88,-287.5 360.88,-257.5 241.88,-257.5"/>
<text text-anchor="start" x="249.88" y="-275.5" font-family="Helvetica,sans-Serif" font-size="10.00">include/Vectorization</text>
<text text-anchor="middle" x="301.38" y="-264.5" font-family="Helvetica,sans-Serif" font-size="10.00">/VectorIR.h</text>
</a>
</g>
</g>
<!-- Node2&#45;&gt;Node13 -->
<g id="edge18" class="edge">
<title>Node2&#45;&gt;Node13</title>
<path fill="none" stroke="midnightblue" d="M212.65,-319.81C231.01,-310.23 255.8,-297.29 274.51,-287.52"/>
<polygon fill="midnightblue" stroke="midnightblue" points="210.95,-316.75 203.71,-324.48 214.19,-322.95 210.95,-316.75"/>
</g>
<!-- Node4 -->
<g id="node4" class="node">
<title>Node4</title>
<g id="a_node4"><a xlink:href="MVFrontend_8h.html" target="_top" xlink:title=" ">
<polygon fill="none" stroke="black" points="12.38,-62 12.38,-81 134.38,-81 134.38,-62 12.38,-62"/>
<text text-anchor="middle" x="73.38" y="-69" font-family="Helvetica,sans-Serif" font-size="10.00">include/MVFrontend.h</text>
</a>
</g>
</g>
<!-- Node3&#45;&gt;Node4 -->
<g id="edge3" class="edge">
<title>Node3&#45;&gt;Node4</title>
<path fill="none" stroke="midnightblue" d="M92.16,-256.72C65.76,-236.89 22,-198.91 4.38,-154 -0.66,-141.17 -1.86,-135.29 4.38,-123 14.45,-103.14 36.41,-89.22 52.86,-81.09"/>
<polygon fill="midnightblue" stroke="midnightblue" points="90.25,-259.66 100.38,-262.74 94.38,-254.01 90.25,-259.66"/>
</g>
<!-- Node6 -->
<g id="node6" class="node">
<title>Node6</title>
<g id="a_node6"><a xlink:href="MVRewriter_8h.html" target="_top" xlink:title=" ">
<polygon fill="none" stroke="black" points="13.38,-129 13.38,-148 133.38,-148 133.38,-129 13.38,-129"/>
<text text-anchor="middle" x="73.38" y="-136" font-family="Helvetica,sans-Serif" font-size="10.00">include/MVRewriter.h</text>
</a>
</g>
</g>
<!-- Node3&#45;&gt;Node6 -->
<g id="edge5" class="edge">
<title>Node3&#45;&gt;Node6</title>
<path fill="none" stroke="midnightblue" d="M105.05,-253.52C100.85,-243.99 95.92,-232.02 92.38,-221 84,-195 77.68,-163.23 74.91,-148.19"/>
<polygon fill="midnightblue" stroke="midnightblue" points="101.9,-255.05 109.2,-262.73 108.28,-252.17 101.9,-255.05"/>
</g>
<!-- Node3&#45;&gt;Node7 -->
<g id="edge7" class="edge">
<title>Node3&#45;&gt;Node7</title>
<path fill="none" stroke="midnightblue" d="M126,-254.4C135.33,-241.77 147.64,-225.1 155,-215.13"/>
<polygon fill="midnightblue" stroke="midnightblue" points="122.97,-252.61 119.85,-262.73 128.6,-256.77 122.97,-252.61"/>
</g>
<!-- Node8 -->
<g id="node8" class="node">
<title>Node8</title>
<g id="a_node8"><a xlink:href="SIMDBackEnd_8h.html" target="_top" xlink:title=" ">
<polygon fill="none" stroke="black" points="238.88,-190.5 238.88,-220.5 363.88,-220.5 363.88,-190.5 238.88,-190.5"/>
<text text-anchor="start" x="246.88" y="-208.5" font-family="Helvetica,sans-Serif" font-size="10.00">include/Vectorization</text>
<text text-anchor="middle" x="301.38" y="-197.5" font-family="Helvetica,sans-Serif" font-size="10.00">/SIMD/SIMDBackEnd.h</text>
</a>
</g>
</g>
<!-- Node3&#45;&gt;Node8 -->
<g id="edge8" class="edge">
<title>Node3&#45;&gt;Node8</title>
<path fill="none" stroke="midnightblue" d="M148.11,-259.49C179.98,-248.47 227.21,-232.14 260.8,-220.53"/>
<polygon fill="midnightblue" stroke="midnightblue" points="146.65,-256.29 138.34,-262.87 148.93,-262.91 146.65,-256.29"/>
</g>
<!-- Node5 -->
<g id="node5" class="node">
<title>Node5</title>
<g id="a_node5"><a xlink:href="macveth_8cpp.html" target="_top" xlink:title=" ">
<polygon fill="none" stroke="black" points="25.88,-0.5 25.88,-19.5 120.88,-19.5 120.88,-0.5 25.88,-0.5"/>
<text text-anchor="middle" x="73.38" y="-7.5" font-family="Helvetica,sans-Serif" font-size="10.00">lib/macveth.cpp</text>
</a>
</g>
</g>
<!-- Node4&#45;&gt;Node5 -->
<g id="edge4" class="edge">
<title>Node4&#45;&gt;Node5</title>
<path fill="none" stroke="midnightblue" d="M73.38,-51.82C73.38,-41 73.38,-27.9 73.38,-19.51"/>
<polygon fill="midnightblue" stroke="midnightblue" points="69.88,-51.98 73.38,-61.98 76.88,-51.98 69.88,-51.98"/>
</g>
<!-- Node6&#45;&gt;Node4 -->
<g id="edge6" class="edge">
<title>Node6&#45;&gt;Node4</title>
<path fill="none" stroke="midnightblue" d="M73.38,-118.54C73.38,-106.17 73.38,-90.62 73.38,-81.13"/>
<polygon fill="midnightblue" stroke="midnightblue" points="69.88,-118.73 73.38,-128.73 76.88,-118.73 69.88,-118.73"/>
</g>
<!-- Node8&#45;&gt;Node4 -->
<g id="edge12" class="edge">
<title>Node8&#45;&gt;Node4</title>
<path fill="none" stroke="midnightblue" d="M250.05,-186.86C227.91,-178.31 202.15,-167.05 180.38,-154 161.68,-142.8 159.62,-136.33 142.38,-123 122.76,-107.84 99.37,-90.97 85.48,-81.07"/>
<polygon fill="midnightblue" stroke="midnightblue" points="249.03,-190.22 259.62,-190.48 251.5,-183.67 249.03,-190.22"/>
</g>
<!-- Node8&#45;&gt;Node6 -->
<g id="edge13" class="edge">
<title>Node8&#45;&gt;Node6</title>
<path fill="none" stroke="midnightblue" d="M242.34,-187.67C197.78,-174.97 138.49,-158.06 103.29,-148.03"/>
<polygon fill="midnightblue" stroke="midnightblue" points="241.61,-191.1 252.18,-190.48 243.53,-184.37 241.61,-191.1"/>
</g>
<!-- Node9 -->
<g id="node9" class="node">
<title>Node9</title>
<g id="a_node9"><a xlink:href="MVCostModel_8h.html" target="_top" xlink:title=" ">
<polygon fill="none" stroke="black" points="214.88,-56.5 214.88,-86.5 361.88,-86.5 361.88,-56.5 214.88,-56.5"/>
<text text-anchor="start" x="222.88" y="-74.5" font-family="Helvetica,sans-Serif" font-size="10.00">include/CostModel/MVCost</text>
<text text-anchor="middle" x="288.38" y="-63.5" font-family="Helvetica,sans-Serif" font-size="10.00">Model.h</text>
</a>
</g>
</g>
<!-- Node8&#45;&gt;Node9 -->
<g id="edge9" class="edge">
<title>Node8&#45;&gt;Node9</title>
<path fill="none" stroke="midnightblue" d="M332.17,-184.13C341.78,-176.01 351.2,-165.78 356.38,-154 361.92,-141.39 362.57,-135.31 356.38,-123 348.38,-107.1 332.75,-94.95 318.49,-86.56"/>
<polygon fill="midnightblue" stroke="midnightblue" points="329.85,-181.5 324.15,-190.44 334.18,-187 329.85,-181.5"/>
</g>
<!-- Node10 -->
<g id="node10" class="node">
<title>Node10</title>
<g id="a_node10"><a xlink:href="SIMDCostInfo_8h.html" target="_top" xlink:title=" ">
<polygon fill="none" stroke="black" points="189.88,-123.5 189.88,-153.5 346.88,-153.5 346.88,-123.5 189.88,-123.5"/>
<text text-anchor="start" x="197.88" y="-141.5" font-family="Helvetica,sans-Serif" font-size="10.00">include/CostModel/SIMDCost</text>
<text text-anchor="middle" x="268.38" y="-130.5" font-family="Helvetica,sans-Serif" font-size="10.00">Info.h</text>
</a>
</g>
</g>
<!-- Node8&#45;&gt;Node10 -->
<g id="edge10" class="edge">
<title>Node8&#45;&gt;Node10</title>
<path fill="none" stroke="midnightblue" d="M289.59,-181.28C284.89,-172.02 279.63,-161.66 275.52,-153.58"/>
<polygon fill="midnightblue" stroke="midnightblue" points="286.57,-183.06 294.21,-190.4 292.81,-179.89 286.57,-183.06"/>
</g>
<!-- Node11 -->
<g id="node11" class="node">
<title>Node11</title>
<g id="a_node11"><a xlink:href="AVX2BackEnd_8h.html" target="_top" xlink:title=" ">
<polygon fill="none" stroke="black" points="441.88,-123.5 441.88,-153.5 594.88,-153.5 594.88,-123.5 441.88,-123.5"/>
<text text-anchor="start" x="449.88" y="-141.5" font-family="Helvetica,sans-Serif" font-size="10.00">include/Vectorization</text>
<text text-anchor="middle" x="518.38" y="-130.5" font-family="Helvetica,sans-Serif" font-size="10.00">/SIMD/AVX2/AVX2BackEnd.h</text>
</a>
</g>
</g>
<!-- Node8&#45;&gt;Node11 -->
<g id="edge14" class="edge">
<title>Node8&#45;&gt;Node11</title>
<path fill="none" stroke="midnightblue" d="M357.86,-187.58C393.11,-177.02 437.94,-163.59 471.27,-153.61"/>
<polygon fill="midnightblue" stroke="midnightblue" points="356.77,-184.25 348.19,-190.48 358.78,-190.96 356.77,-184.25"/>
</g>
<!-- Node12 -->
<g id="node12" class="node">
<title>Node12</title>
<g id="a_node12"><a xlink:href="SIMDBackEndFactory_8h.html" target="_top" xlink:title=" ">
<polygon fill="none" stroke="black" points="419.38,-56.5 419.38,-86.5 577.38,-86.5 577.38,-56.5 419.38,-56.5"/>
<text text-anchor="start" x="427.38" y="-74.5" font-family="Helvetica,sans-Serif" font-size="10.00">include/Vectorization</text>
<text text-anchor="middle" x="498.38" y="-63.5" font-family="Helvetica,sans-Serif" font-size="10.00">/SIMD/SIMDBackEndFactory.h</text>
</a>
</g>
</g>
<!-- Node8&#45;&gt;Node12 -->
<g id="edge16" class="edge">
<title>Node8&#45;&gt;Node12</title>
<path fill="none" stroke="midnightblue" d="M330.79,-184.79C371.02,-157.84 442.22,-110.13 477.44,-86.52"/>
<polygon fill="midnightblue" stroke="midnightblue" points="328.82,-181.9 322.46,-190.37 332.71,-187.71 328.82,-181.9"/>
</g>
<!-- Node10&#45;&gt;Node9 -->
<g id="edge11" class="edge">
<title>Node10&#45;&gt;Node9</title>
<path fill="none" stroke="midnightblue" d="M275.7,-113.7C278.5,-104.59 281.61,-94.49 284.04,-86.58"/>
<polygon fill="midnightblue" stroke="midnightblue" points="272.31,-112.81 272.71,-123.4 279,-114.87 272.31,-112.81"/>
</g>
<!-- Node11&#45;&gt;Node12 -->
<g id="edge15" class="edge">
<title>Node11&#45;&gt;Node12</title>
<path fill="none" stroke="midnightblue" d="M511.05,-113.7C508.25,-104.59 505.14,-94.49 502.71,-86.58"/>
<polygon fill="midnightblue" stroke="midnightblue" points="507.75,-114.87 514.04,-123.4 514.44,-112.81 507.75,-114.87"/>
</g>
<!-- Node13&#45;&gt;Node8 -->
<g id="edge20" class="edge">
<title>Node13&#45;&gt;Node8</title>
<path fill="none" stroke="midnightblue" d="M301.38,-247.11C301.38,-238.15 301.38,-228.32 301.38,-220.58"/>
<polygon fill="midnightblue" stroke="midnightblue" points="297.88,-247.4 301.38,-257.4 304.88,-247.4 297.88,-247.4"/>
</g>
<!-- Node13&#45;&gt;Node11 -->
<g id="edge19" class="edge">
<title>Node13&#45;&gt;Node11</title>
<path fill="none" stroke="midnightblue" d="M333.22,-252.13C377.43,-225.24 456.36,-177.22 495.32,-153.52"/>
<polygon fill="midnightblue" stroke="midnightblue" points="331.32,-249.19 324.6,-257.37 334.96,-255.17 331.32,-249.19"/>
</g>
</g>
</svg>
        <g id="navigator" transform="translate(0 0)" fill="#404254">
                <rect fill="#f2f5e9" fill-opacity="0.5" stroke="#606060" stroke-width=".5" x="0" y="0" width="60" height="60"/>
                <use id="zoomplus" xlink:href="#zoomPlus" x="17" y="9" onmousedown="handleZoom(evt,'in')"/>
                <use id="zoomminus" xlink:href="#zoomMin" x="42" y="9" onmousedown="handleZoom(evt,'out')"/>
                <use id="reset" xlink:href="#resetDef" x="30" y="36" onmousedown="handleReset()"/>
                <g id="arrowUp" xlink:href="#dirArrow" transform="translate(30 24)" onmousedown="handlePan(0,-1)">
                  <use xlink:href="#rim" fill="#404040">
                        <set attributeName="fill" to="#808080" begin="arrowUp.mouseover" end="arrowUp.mouseout"/>
                  </use>
                  <path fill="none" stroke="white" stroke-width="1.5" d="M0,-3.0v7 M-2.5,-0.5L0,-3.0L2.5,-0.5"/>
                </g>
                <g id="arrowRight" xlink:href="#dirArrow" transform="rotate(90) translate(36 -43)" onmousedown="handlePan(1,0)">
                  <use xlink:href="#rim" fill="#404040">
                        <set attributeName="fill" to="#808080" begin="arrowRight.mouseover" end="arrowRight.mouseout"/>
                  </use>
                  <path fill="none" stroke="white" stroke-width="1.5" d="M0,-3.0v7 M-2.5,-0.5L0,-3.0L2.5,-0.5"/>
                </g>
                <g id="arrowDown" xlink:href="#dirArrow" transform="rotate(180) translate(-30 -48)" onmousedown="handlePan(0,1)">
                  <use xlink:href="#rim" fill="#404040">
                        <set attributeName="fill" to="#808080" begin="arrowDown.mouseover" end="arrowDown.mouseout"/>
                  </use>
                  <path fill="none" stroke="white" stroke-width="1.5" d="M0,-3.0v7 M-2.5,-0.5L0,-3.0L2.5,-0.5"/>
                </g>
                <g id="arrowLeft" xlink:href="#dirArrow" transform="rotate(270) translate(-36 17)" onmousedown="handlePan(-1,0)">
                  <use xlink:href="#rim" fill="#404040">
                        <set attributeName="fill" to="#808080" begin="arrowLeft.mouseover" end="arrowLeft.mouseout"/>
                  </use>
                  <path fill="none" stroke="white" stroke-width="1.5" d="M0,-3.0v7 M-2.5,-0.5L0,-3.0L2.5,-0.5"/>
                </g>
        </g>
        <svg viewBox="0 0 15 15" width="100%" height="30px" preserveAspectRatio="xMaxYMin meet">
         <g id="arrow_out" transform="scale(0.3 0.3)">
          <a xlink:href="MVExprLiteral_8h__dep__incl_org.svg" target="_base">
           <rect id="button" ry="5" rx="5" y="6" x="6" height="38" width="38"
                fill="#f2f5e9" fill-opacity="0.5" stroke="#606060" stroke-width="1.0"/>
           <path id="arrow"
             d="M 11.500037,31.436501 C 11.940474,20.09759 22.043105,11.32322 32.158766,21.979434 L 37.068811,17.246167 C 37.068811,17.246167 37.088388,32 37.088388,32 L 22.160133,31.978069 C 22.160133,31.978069 26.997745,27.140456 26.997745,27.140456 C 18.528582,18.264221 13.291696,25.230495 11.500037,31.436501 z"
             style="fill:#404040;"/>
          </a>
         </g>
        </svg>
</svg>
