<?xml version="1.0" encoding="UTF-8" standalone="no"?>
<!DOCTYPE svg PUBLIC "-//W3C//DTD SVG 1.1//EN"
 "http://www.w3.org/Graphics/SVG/1.1/DTD/svg11.dtd">
<!-- Generated by graphviz version 2.43.0 (0)
 -->
<!-- Title: include/MVExpr/MVExpr.h Pages: 1 -->
<svg width="874pt" height="520pt"
 viewBox="0.00 0.00 873.50 520.00" xmlns="http://www.w3.org/2000/svg" xmlns:xlink="http://www.w3.org/1999/xlink">
<g id="graph0" class="graph" transform="scale(1 1) rotate(0) translate(4 516)">
<title>include/MVExpr/MVExpr.h</title>
<!-- Node1 -->
<g id="node1" class="node">
<title>Node1</title>
<g id="a_node1"><a xlink:title=" ">
<polygon fill="#bfbfbf" stroke="black" points="383,-492.5 383,-511.5 524,-511.5 524,-492.5 383,-492.5"/>
<text text-anchor="middle" x="453.5" y="-499.5" font-family="Helvetica,sans-Serif" font-size="10.00">include/MVExpr/MVExpr.h</text>
</a>
</g>
</g>
<!-- Node2 -->
<g id="node2" class="node">
<title>Node2</title>
<g id="a_node2"><a xlink:href="MVExprArray_8h.html" target="_top" xlink:title=" ">
<polygon fill="none" stroke="black" points="80,-380.5 80,-399.5 247,-399.5 247,-380.5 80,-380.5"/>
<text text-anchor="middle" x="163.5" y="-387.5" font-family="Helvetica,sans-Serif" font-size="10.00">include/MVExpr/MVExprArray.h</text>
</a>
</g>
</g>
<!-- Node1&#45;&gt;Node2 -->
<g id="edge1" class="edge">
<title>Node1&#45;&gt;Node2</title>
<path fill="none" stroke="midnightblue" d="M381.47,-490.59C344.32,-483.65 298.87,-472.66 260.5,-456 225.92,-440.98 190.38,-413.47 173.53,-399.55"/>
<polygon fill="midnightblue" stroke="midnightblue" points="381.26,-494.11 391.72,-492.44 382.5,-487.22 381.26,-494.11"/>
</g>
<!-- Node12 -->
<g id="node12" class="node">
<title>Node12</title>
<g id="a_node12"><a xlink:href="MVExprFactory_8h.html" target="_top" xlink:title=" ">
<polygon fill="none" stroke="black" points="689.5,-436.5 689.5,-455.5 865.5,-455.5 865.5,-436.5 689.5,-436.5"/>
<text text-anchor="middle" x="777.5" y="-443.5" font-family="Helvetica,sans-Serif" font-size="10.00">include/MVExpr/MVExprFactory.h</text>
</a>
</g>
</g>
<!-- Node1&#45;&gt;Node12 -->
<g id="edge15" class="edge">
<title>Node1&#45;&gt;Node12</title>
<path fill="none" stroke="midnightblue" d="M514.76,-490.79C575.98,-480.59 669.03,-465.08 726.4,-455.52"/>
<polygon fill="midnightblue" stroke="midnightblue" points="514.13,-487.35 504.84,-492.44 515.28,-494.25 514.13,-487.35"/>
</g>
<!-- Node13 -->
<g id="node13" class="node">
<title>Node13</title>
<g id="a_node13"><a xlink:href="MVExprLiteral_8h.html" target="_top" xlink:title=" ">
<polygon fill="none" stroke="black" points="303,-380.5 303,-399.5 476,-399.5 476,-380.5 303,-380.5"/>
<text text-anchor="middle" x="389.5" y="-387.5" font-family="Helvetica,sans-Serif" font-size="10.00">include/MVExpr/MVExprLiteral.h</text>
</a>
</g>
</g>
<!-- Node1&#45;&gt;Node13 -->
<g id="edge16" class="edge">
<title>Node1&#45;&gt;Node13</title>
<path fill="none" stroke="midnightblue" d="M408.12,-488.77C391.76,-481.93 375.01,-471.54 365.5,-456 354.2,-437.53 370.66,-412.9 381.42,-399.9"/>
<polygon fill="midnightblue" stroke="midnightblue" points="407.06,-492.11 417.65,-492.4 409.55,-485.57 407.06,-492.11"/>
</g>
<!-- Node14 -->
<g id="node14" class="node">
<title>Node14</title>
<g id="a_node14"><a xlink:href="Node_8h.html" target="_top" xlink:title=" ">
<polygon fill="none" stroke="black" points="354,-324.5 354,-343.5 443,-343.5 443,-324.5 354,-324.5"/>
<text text-anchor="middle" x="398.5" y="-331.5" font-family="Helvetica,sans-Serif" font-size="10.00">include/Node.h</text>
</a>
</g>
</g>
<!-- Node1&#45;&gt;Node14 -->
<g id="edge27" class="edge">
<title>Node1&#45;&gt;Node14</title>
<path fill="none" stroke="midnightblue" d="M412.07,-489.19C372.39,-475.27 315.39,-447.76 293.5,-400 279.79,-370.08 320.27,-352.67 354.89,-343.53"/>
<polygon fill="midnightblue" stroke="midnightblue" points="411.17,-492.57 421.76,-492.43 413.39,-485.94 411.17,-492.57"/>
</g>
<!-- Node17 -->
<g id="node17" class="node">
<title>Node17</title>
<g id="a_node17"><a xlink:href="MVExprVar_8h.html" target="_top" xlink:title=" ">
<polygon fill="none" stroke="black" points="375,-436.5 375,-455.5 532,-455.5 532,-436.5 375,-436.5"/>
<text text-anchor="middle" x="453.5" y="-443.5" font-family="Helvetica,sans-Serif" font-size="10.00">include/MVExpr/MVExprVar.h</text>
</a>
</g>
</g>
<!-- Node1&#45;&gt;Node17 -->
<g id="edge25" class="edge">
<title>Node1&#45;&gt;Node17</title>
<path fill="none" stroke="midnightblue" d="M453.5,-481.8C453.5,-472.91 453.5,-462.78 453.5,-455.75"/>
<polygon fill="midnightblue" stroke="midnightblue" points="450,-482.08 453.5,-492.08 457,-482.08 450,-482.08"/>
</g>
<!-- Node18 -->
<g id="node18" class="node">
<title>Node18</title>
<g id="a_node18"><a xlink:href="StmtWrapper_8h.html" target="_top" xlink:title=" ">
<polygon fill="none" stroke="black" points="608.5,-380.5 608.5,-399.5 736.5,-399.5 736.5,-380.5 608.5,-380.5"/>
<text text-anchor="middle" x="672.5" y="-387.5" font-family="Helvetica,sans-Serif" font-size="10.00">include/StmtWrapper.h</text>
</a>
</g>
</g>
<!-- Node1&#45;&gt;Node18 -->
<g id="edge28" class="edge">
<title>Node1&#45;&gt;Node18</title>
<path fill="none" stroke="midnightblue" d="M534.44,-497.53C570.85,-492.28 612.32,-480.71 642.5,-456 660.39,-441.36 668.12,-413.68 671.01,-399.64"/>
<polygon fill="midnightblue" stroke="midnightblue" points="533.78,-494.09 524.32,-498.86 534.69,-501.03 533.78,-494.09"/>
</g>
<!-- Node19 -->
<g id="node19" class="node">
<title>Node19</title>
<g id="a_node19"><a xlink:href="TAC_8h.html" target="_top" xlink:title=" ">
<polygon fill="none" stroke="black" points="550,-436.5 550,-455.5 633,-455.5 633,-436.5 550,-436.5"/>
<text text-anchor="middle" x="591.5" y="-443.5" font-family="Helvetica,sans-Serif" font-size="10.00">include/TAC.h</text>
</a>
</g>
</g>
<!-- Node1&#45;&gt;Node19 -->
<g id="edge33" class="edge">
<title>Node1&#45;&gt;Node19</title>
<path fill="none" stroke="midnightblue" d="M484.75,-488.77C510.67,-478.63 546.86,-464.47 569.74,-455.52"/>
<polygon fill="midnightblue" stroke="midnightblue" points="483.4,-485.54 475.37,-492.44 485.95,-492.06 483.4,-485.54"/>
</g>
<!-- Node3 -->
<g id="node3" class="node">
<title>Node3</title>
<g id="a_node3"><a xlink:href="VectorIR_8h.html" target="_top" xlink:title=" ">
<polygon fill="none" stroke="black" points="168,-257.5 168,-287.5 287,-287.5 287,-257.5 168,-257.5"/>
<text text-anchor="start" x="176" y="-275.5" font-family="Helvetica,sans-Serif" font-size="10.00">include/Vectorization</text>
<text text-anchor="middle" x="227.5" y="-264.5" font-family="Helvetica,sans-Serif" font-size="10.00">/VectorIR.h</text>
</a>
</g>
</g>
<!-- Node2&#45;&gt;Node3 -->
<g id="edge2" class="edge">
<title>Node2&#45;&gt;Node3</title>
<path fill="none" stroke="midnightblue" d="M173.3,-371.32C186.04,-348.32 208.05,-308.6 219.72,-287.55"/>
<polygon fill="midnightblue" stroke="midnightblue" points="170.1,-369.88 168.31,-380.32 176.22,-373.27 170.1,-369.88"/>
</g>
<!-- Node4 -->
<g id="node4" class="node">
<title>Node4</title>
<g id="a_node4"><a xlink:href="AVX2BackEnd_8h.html" target="_top" xlink:title=" ">
<polygon fill="none" stroke="black" points="0,-123.5 0,-153.5 153,-153.5 153,-123.5 0,-123.5"/>
<text text-anchor="start" x="8" y="-141.5" font-family="Helvetica,sans-Serif" font-size="10.00">include/Vectorization</text>
<text text-anchor="middle" x="76.5" y="-130.5" font-family="Helvetica,sans-Serif" font-size="10.00">/SIMD/AVX2/AVX2BackEnd.h</text>
</a>
</g>
</g>
<!-- Node3&#45;&gt;Node4 -->
<g id="edge3" class="edge">
<title>Node3&#45;&gt;Node4</title>
<path fill="none" stroke="midnightblue" d="M203.58,-250.59C172.52,-223.44 119.14,-176.78 92.54,-153.52"/>
<polygon fill="midnightblue" stroke="midnightblue" points="201.51,-253.43 211.34,-257.37 206.12,-248.16 201.51,-253.43"/>
</g>
<!-- Node6 -->
<g id="node6" class="node">
<title>Node6</title>
<g id="a_node6"><a xlink:href="SIMDBackEnd_8h.html" target="_top" xlink:title=" ">
<polygon fill="none" stroke="black" points="181,-190.5 181,-220.5 306,-220.5 306,-190.5 181,-190.5"/>
<text text-anchor="start" x="189" y="-208.5" font-family="Helvetica,sans-Serif" font-size="10.00">include/Vectorization</text>
<text text-anchor="middle" x="243.5" y="-197.5" font-family="Helvetica,sans-Serif" font-size="10.00">/SIMD/SIMDBackEnd.h</text>
</a>
</g>
</g>
<!-- Node3&#45;&gt;Node6 -->
<g id="edge5" class="edge">
<title>Node3&#45;&gt;Node6</title>
<path fill="none" stroke="midnightblue" d="M233.43,-247.4C235.66,-238.37 238.11,-228.41 240.04,-220.58"/>
<polygon fill="midnightblue" stroke="midnightblue" points="229.96,-246.85 230.97,-257.4 236.76,-248.52 229.96,-246.85"/>
</g>
<!-- Node5 -->
<g id="node5" class="node">
<title>Node5</title>
<g id="a_node5"><a xlink:href="SIMDBackEndFactory_8h.html" target="_top" xlink:title=" ">
<polygon fill="none" stroke="black" points="50.5,-56.5 50.5,-86.5 208.5,-86.5 208.5,-56.5 50.5,-56.5"/>
<text text-anchor="start" x="58.5" y="-74.5" font-family="Helvetica,sans-Serif" font-size="10.00">include/Vectorization</text>
<text text-anchor="middle" x="129.5" y="-63.5" font-family="Helvetica,sans-Serif" font-size="10.00">/SIMD/SIMDBackEndFactory.h</text>
</a>
</g>
</g>
<!-- Node4&#45;&gt;Node5 -->
<g id="edge4" class="edge">
<title>Node4&#45;&gt;Node5</title>
<path fill="none" stroke="midnightblue" d="M94.48,-115.45C102.27,-105.9 111.15,-95 118.02,-86.58"/>
<polygon fill="midnightblue" stroke="midnightblue" points="91.61,-113.43 88,-123.4 97.03,-117.86 91.61,-113.43"/>
</g>
<!-- Node6&#45;&gt;Node4 -->
<g id="edge13" class="edge">
<title>Node6&#45;&gt;Node4</title>
<path fill="none" stroke="midnightblue" d="M197.72,-186.68C170.94,-176.26 137.6,-163.28 112.67,-153.58"/>
<polygon fill="midnightblue" stroke="midnightblue" points="196.67,-190.03 207.26,-190.4 199.21,-183.51 196.67,-190.03"/>
</g>
<!-- Node6&#45;&gt;Node5 -->
<g id="edge14" class="edge">
<title>Node6&#45;&gt;Node5</title>
<path fill="none" stroke="midnightblue" d="M224.54,-182.54C200.97,-155.25 161.44,-109.48 141.61,-86.52"/>
<polygon fill="midnightblue" stroke="midnightblue" points="222.11,-185.09 231.3,-190.37 227.41,-180.52 222.11,-185.09"/>
</g>
<!-- Node7 -->
<g id="node7" class="node">
<title>Node7</title>
<g id="a_node7"><a xlink:href="MVCostModel_8h.html" target="_top" xlink:title=" ">
<polygon fill="none" stroke="black" points="322,-56.5 322,-86.5 469,-86.5 469,-56.5 322,-56.5"/>
<text text-anchor="start" x="330" y="-74.5" font-family="Helvetica,sans-Serif" font-size="10.00">include/CostModel/MVCost</text>
<text text-anchor="middle" x="395.5" y="-63.5" font-family="Helvetica,sans-Serif" font-size="10.00">Model.h</text>
</a>
</g>
</g>
<!-- Node6&#45;&gt;Node7 -->
<g id="edge6" class="edge">
<title>Node6&#45;&gt;Node7</title>
<path fill="none" stroke="midnightblue" d="M303.87,-187.39C333.66,-177.8 365.36,-165.5 375.5,-154 392.18,-135.1 395.45,-104.53 395.82,-86.69"/>
<polygon fill="midnightblue" stroke="midnightblue" points="302.78,-184.06 294.29,-190.4 304.88,-190.74 302.78,-184.06"/>
</g>
<!-- Node8 -->
<g id="node8" class="node">
<title>Node8</title>
<g id="a_node8"><a xlink:href="SIMDCostInfo_8h.html" target="_top" xlink:title=" ">
<polygon fill="none" stroke="black" points="210,-123.5 210,-153.5 367,-153.5 367,-123.5 210,-123.5"/>
<text text-anchor="start" x="218" y="-141.5" font-family="Helvetica,sans-Serif" font-size="10.00">include/CostModel/SIMDCost</text>
<text text-anchor="middle" x="288.5" y="-130.5" font-family="Helvetica,sans-Serif" font-size="10.00">Info.h</text>
</a>
</g>
</g>
<!-- Node6&#45;&gt;Node8 -->
<g id="edge7" class="edge">
<title>Node6&#45;&gt;Node8</title>
<path fill="none" stroke="midnightblue" d="M258.97,-182.16C265.53,-172.68 272.98,-161.92 278.75,-153.58"/>
<polygon fill="midnightblue" stroke="midnightblue" points="256.08,-180.18 253.26,-190.4 261.83,-184.17 256.08,-180.18"/>
</g>
<!-- Node9 -->
<g id="node9" class="node">
<title>Node9</title>
<g id="a_node9"><a xlink:href="MVFrontend_8h.html" target="_top" xlink:title=" ">
<polygon fill="none" stroke="black" points="492.5,-62 492.5,-81 614.5,-81 614.5,-62 492.5,-62"/>
<text text-anchor="middle" x="553.5" y="-69" font-family="Helvetica,sans-Serif" font-size="10.00">include/MVFrontend.h</text>
</a>
</g>
</g>
<!-- Node6&#45;&gt;Node9 -->
<g id="edge9" class="edge">
<title>Node6&#45;&gt;Node9</title>
<path fill="none" stroke="midnightblue" d="M302.73,-187.58C331.71,-178.67 366.87,-166.92 397.5,-154 401.09,-152.49 498.02,-101.63 537.25,-81.03"/>
<polygon fill="midnightblue" stroke="midnightblue" points="301.7,-184.23 293.15,-190.49 303.74,-190.93 301.7,-184.23"/>
</g>
<!-- Node11 -->
<g id="node11" class="node">
<title>Node11</title>
<g id="a_node11"><a xlink:href="MVRewriter_8h.html" target="_top" xlink:title=" ">
<polygon fill="none" stroke="black" points="499.5,-129 499.5,-148 619.5,-148 619.5,-129 499.5,-129"/>
<text text-anchor="middle" x="559.5" y="-136" font-family="Helvetica,sans-Serif" font-size="10.00">include/MVRewriter.h</text>
</a>
</g>
</g>
<!-- Node6&#45;&gt;Node11 -->
<g id="edge11" class="edge">
<title>Node6&#45;&gt;Node11</title>
<path fill="none" stroke="midnightblue" d="M316.12,-189.56C378.65,-176.7 466.69,-158.59 517.95,-148.05"/>
<polygon fill="midnightblue" stroke="midnightblue" points="315.4,-186.14 306.31,-191.58 316.81,-192.99 315.4,-186.14"/>
</g>
<!-- Node8&#45;&gt;Node7 -->
<g id="edge8" class="edge">
<title>Node8&#45;&gt;Node7</title>
<path fill="none" stroke="midnightblue" d="M320.58,-118.02C337.23,-107.9 357.19,-95.77 372.33,-86.58"/>
<polygon fill="midnightblue" stroke="midnightblue" points="318.45,-115.21 311.72,-123.4 322.08,-121.2 318.45,-115.21"/>
</g>
<!-- Node10 -->
<g id="node10" class="node">
<title>Node10</title>
<g id="a_node10"><a xlink:href="macveth_8cpp.html" target="_top" xlink:title=" ">
<polygon fill="none" stroke="black" points="506,-0.5 506,-19.5 601,-19.5 601,-0.5 506,-0.5"/>
<text text-anchor="middle" x="553.5" y="-7.5" font-family="Helvetica,sans-Serif" font-size="10.00">lib/macveth.cpp</text>
</a>
</g>
</g>
<!-- Node9&#45;&gt;Node10 -->
<g id="edge10" class="edge">
<title>Node9&#45;&gt;Node10</title>
<path fill="none" stroke="midnightblue" d="M553.5,-51.82C553.5,-41 553.5,-27.9 553.5,-19.51"/>
<polygon fill="midnightblue" stroke="midnightblue" points="550,-51.98 553.5,-61.98 557,-51.98 550,-51.98"/>
</g>
<!-- Node11&#45;&gt;Node9 -->
<g id="edge12" class="edge">
<title>Node11&#45;&gt;Node9</title>
<path fill="none" stroke="midnightblue" d="M557.75,-118.54C556.61,-106.17 555.17,-90.62 554.3,-81.13"/>
<polygon fill="midnightblue" stroke="midnightblue" points="554.29,-119.1 558.69,-128.73 561.26,-118.45 554.29,-119.1"/>
</g>
<!-- Node13&#45;&gt;Node14 -->
<g id="edge17" class="edge">
<title>Node13&#45;&gt;Node14</title>
<path fill="none" stroke="midnightblue" d="M392.65,-370.1C394.14,-361.14 395.86,-350.86 397.04,-343.75"/>
<polygon fill="midnightblue" stroke="midnightblue" points="389.18,-369.64 390.99,-380.08 396.08,-370.79 389.18,-369.64"/>
</g>
<!-- Node14&#45;&gt;Node3 -->
<g id="edge24" class="edge">
<title>Node14&#45;&gt;Node3</title>
<path fill="none" stroke="midnightblue" d="M364.31,-321.1C336.48,-311.42 297.16,-297.74 267.8,-287.52"/>
<polygon fill="midnightblue" stroke="midnightblue" points="363.41,-324.49 374,-324.48 365.71,-317.88 363.41,-324.49"/>
</g>
<!-- Node15 -->
<g id="node15" class="node">
<title>Node15</title>
<g id="a_node15"><a xlink:href="CDAG_8h.html" target="_top" xlink:title=" ">
<polygon fill="none" stroke="black" points="418.5,-263 418.5,-282 510.5,-282 510.5,-263 418.5,-263"/>
<text text-anchor="middle" x="464.5" y="-270" font-family="Helvetica,sans-Serif" font-size="10.00">include/CDAG.h</text>
</a>
</g>
</g>
<!-- Node14&#45;&gt;Node15 -->
<g id="edge18" class="edge">
<title>Node14&#45;&gt;Node15</title>
<path fill="none" stroke="midnightblue" d="M415.53,-317.65C428.11,-306.31 444.78,-291.28 455.06,-282.01"/>
<polygon fill="midnightblue" stroke="midnightblue" points="413.04,-315.18 407.96,-324.48 417.73,-320.38 413.04,-315.18"/>
</g>
<!-- Node16 -->
<g id="node16" class="node">
<title>Node16</title>
<g id="a_node16"><a xlink:href="PlcmntAlgo_8h.html" target="_top" xlink:title=" ">
<polygon fill="none" stroke="black" points="324,-196 324,-215 443,-215 443,-196 324,-196"/>
<text text-anchor="middle" x="383.5" y="-203" font-family="Helvetica,sans-Serif" font-size="10.00">include/PlcmntAlgo.h</text>
</a>
</g>
</g>
<!-- Node14&#45;&gt;Node16 -->
<g id="edge23" class="edge">
<title>Node14&#45;&gt;Node16</title>
<path fill="none" stroke="midnightblue" d="M396.28,-314.31C393,-286.58 386.95,-235.63 384.54,-215.26"/>
<polygon fill="midnightblue" stroke="midnightblue" points="392.82,-314.79 397.47,-324.31 399.77,-313.96 392.82,-314.79"/>
</g>
<!-- Node15&#45;&gt;Node6 -->
<g id="edge22" class="edge">
<title>Node15&#45;&gt;Node6</title>
<path fill="none" stroke="midnightblue" d="M425.12,-259.92C387.64,-248.9 331.2,-232.29 291.2,-220.53"/>
<polygon fill="midnightblue" stroke="midnightblue" points="424.57,-263.4 435.15,-262.87 426.55,-256.69 424.57,-263.4"/>
</g>
<!-- Node15&#45;&gt;Node9 -->
<g id="edge19" class="edge">
<title>Node15&#45;&gt;Node9</title>
<path fill="none" stroke="midnightblue" d="M463.69,-252.52C463.29,-222.79 466.03,-164.36 490.5,-123 501.56,-104.3 522.32,-89.73 536.98,-81.15"/>
<polygon fill="midnightblue" stroke="midnightblue" points="460.2,-252.84 463.98,-262.74 467.2,-252.64 460.2,-252.84"/>
</g>
<!-- Node15&#45;&gt;Node11 -->
<g id="edge20" class="edge">
<title>Node15&#45;&gt;Node11</title>
<path fill="none" stroke="midnightblue" d="M476.62,-254.66C497.11,-226.18 537.91,-169.5 553.37,-148.02"/>
<polygon fill="midnightblue" stroke="midnightblue" points="473.73,-252.68 470.73,-262.84 479.42,-256.77 473.73,-252.68"/>
</g>
<!-- Node15&#45;&gt;Node16 -->
<g id="edge21" class="edge">
<title>Node15&#45;&gt;Node16</title>
<path fill="none" stroke="midnightblue" d="M445.45,-256.21C429.49,-243.41 407.29,-225.59 394.25,-215.13"/>
<polygon fill="midnightblue" stroke="midnightblue" points="443.59,-259.2 453.58,-262.73 447.97,-253.75 443.59,-259.2"/>
</g>
<!-- Node17&#45;&gt;Node14 -->
<g id="edge26" class="edge">
<title>Node17&#45;&gt;Node14</title>
<path fill="none" stroke="midnightblue" d="M470.26,-428.8C482.05,-415.36 494.15,-395.94 484.5,-380 473.24,-361.4 451.49,-350.12 432.68,-343.51"/>
<polygon fill="midnightblue" stroke="midnightblue" points="467.49,-426.64 463.16,-436.31 472.57,-431.45 467.49,-426.64"/>
</g>
<!-- Node18&#45;&gt;Node7 -->
<g id="edge29" class="edge">
<title>Node18&#45;&gt;Node7</title>
<path fill="none" stroke="midnightblue" d="M666.06,-370.87C658.66,-348.34 647.5,-308.59 647.5,-273.5 647.5,-273.5 647.5,-273.5 647.5,-204.5 647.5,-167.31 655,-149.09 628.5,-123 622.67,-117.26 535.29,-99.37 469.23,-86.51"/>
<polygon fill="midnightblue" stroke="midnightblue" points="662.79,-372.11 669.33,-380.44 669.42,-369.85 662.79,-372.11"/>
</g>
<!-- Node18&#45;&gt;Node9 -->
<g id="edge30" class="edge">
<title>Node18&#45;&gt;Node9</title>
<path fill="none" stroke="midnightblue" d="M685.27,-372.17C700.38,-350.55 723.5,-311.28 723.5,-273.5 723.5,-273.5 723.5,-273.5 723.5,-204.5 723.5,-135 633.76,-96.81 584.68,-81.12"/>
<polygon fill="midnightblue" stroke="midnightblue" points="682.41,-370.15 679.38,-380.3 688.08,-374.26 682.41,-370.15"/>
</g>
<!-- Node18&#45;&gt;Node11 -->
<g id="edge31" class="edge">
<title>Node18&#45;&gt;Node11</title>
<path fill="none" stroke="midnightblue" d="M671,-370.15C669.55,-356.95 666.76,-339.04 661.5,-324 636.13,-251.45 583.75,-173.77 565.74,-148.2"/>
<polygon fill="midnightblue" stroke="midnightblue" points="667.54,-370.73 671.96,-380.36 674.51,-370.07 667.54,-370.73"/>
</g>
<!-- Node18&#45;&gt;Node14 -->
<g id="edge32" class="edge">
<title>Node18&#45;&gt;Node14</title>
<path fill="none" stroke="midnightblue" d="M619.09,-378.47C567.3,-368.27 489.73,-352.98 441.71,-343.52"/>
<polygon fill="midnightblue" stroke="midnightblue" points="618.6,-381.94 629.08,-380.44 619.95,-375.08 618.6,-381.94"/>
</g>
<!-- Node19&#45;&gt;Node14 -->
<g id="edge35" class="edge">
<title>Node19&#45;&gt;Node14</title>
<path fill="none" stroke="midnightblue" d="M573.17,-430.2C555.31,-416.19 527.03,-395.11 500.5,-380 474.43,-365.15 442.54,-351.78 421.43,-343.55"/>
<polygon fill="midnightblue" stroke="midnightblue" points="571.04,-432.98 581.05,-436.45 575.39,-427.49 571.04,-432.98"/>
</g>
<!-- Node19&#45;&gt;Node15 -->
<g id="edge34" class="edge">
<title>Node19&#45;&gt;Node15</title>
<path fill="none" stroke="midnightblue" d="M579.06,-428.2C552.43,-392.24 490.71,-308.9 470.81,-282.02"/>
<polygon fill="midnightblue" stroke="midnightblue" points="576.26,-430.31 585.03,-436.26 581.89,-426.14 576.26,-430.31"/>
</g>
<!-- Node19&#45;&gt;Node18 -->
<g id="edge36" class="edge">
<title>Node19&#45;&gt;Node18</title>
<path fill="none" stroke="midnightblue" d="M613.07,-430.62C627.86,-420.76 647.01,-407.99 659.52,-399.65"/>
<polygon fill="midnightblue" stroke="midnightblue" points="610.89,-427.86 604.51,-436.32 614.78,-433.69 610.89,-427.86"/>
</g>
</g>
</svg>
