<?xml version="1.0" encoding="UTF-8" standalone="no"?>
<!DOCTYPE svg PUBLIC "-//W3C//DTD SVG 1.1//EN"
 "http://www.w3.org/Graphics/SVG/1.1/DTD/svg11.dtd">
<!-- Generated by graphviz version 2.43.0 (0)
 -->
<!-- Title: include/MVOptions.h Pages: 1 -->
<!--zoomable 688 -->
<svg id="main" version="1.1" xmlns="http://www.w3.org/2000/svg" xmlns:xlink="http://www.w3.org/1999/xlink" xml:space="preserve" onload="init(evt)">
<style type="text/css"><![CDATA[
.edge:hover path { stroke: red; }
.edge:hover polygon { stroke: red; fill: red; }
]]></style>
<script type="text/javascript"><![CDATA[
var edges = document.getElementsByTagName('g');
if (edges && edges.length) {
  for (var i=0;i<edges.length;i++) {
    if (edges[i].id.substr(0,4)=='edge') {
      edges[i].setAttribute('class','edge');
    }
  }
}
]]></script>
        <defs>
                <circle id="rim" cx="0" cy="0" r="7"/>
                <circle id="rim2" cx="0" cy="0" r="3.5"/>
                <g id="zoomPlus">
                        <use xlink:href="#rim" fill="#404040">
                                <set attributeName="fill" to="#808080" begin="zoomplus.mouseover" end="zoomplus.mouseout"/>
                        </use>
                        <path d="M-4,0h8M0,-4v8" fill="none" stroke="white" stroke-width="1.5" pointer-events="none"/>
                </g>
                <g id="zoomMin">
                        <use xlink:href="#rim" fill="#404040">
                                <set attributeName="fill" to="#808080" begin="zoomminus.mouseover" end="zoomminus.mouseout"/>
                        </use>
                        <path d="M-4,0h8" fill="none" stroke="white" stroke-width="1.5" pointer-events="none"/>
                </g>
                <g id="dirArrow">
                        <path fill="none" stroke="white" stroke-width="1.5" d="M0,-3.0v7 M-2.5,-0.5L0,-3.0L2.5,-0.5"/>
                </g>
               <g id="resetDef">
                       <use xlink:href="#rim2" fill="#404040">
                               <set attributeName="fill" to="#808080" begin="reset.mouseover" end="reset.mouseout"/>
                       </use>
               </g>
        </defs>

<script type="text/javascript">
var viewWidth = 1086;
var viewHeight = 688;
var sectionId = 'dynsection-1';
</script>
<script xlink:href="svgpan.js"/>
<svg id="graph" class="graph">
<g id="viewport">
<title>include/MVOptions.h</title>
<!-- Node1 -->
<g id="node1" class="node">
<title>Node1</title>
<g id="a_node1"><a xlink:title=" ">
<polygon fill="#bfbfbf" stroke="black" points="662.5,-660.5 662.5,-679.5 779.5,-679.5 779.5,-660.5 662.5,-660.5"/>
<text text-anchor="middle" x="721" y="-667.5" font-family="Helvetica,sans-Serif" font-size="10.00">include/MVOptions.h</text>
</a>
</g>
</g>
<!-- Node2 -->
<g id="node2" class="node">
<title>Node2</title>
<g id="a_node2"><a xlink:href="MVCostModel_8h.html" target="_top" xlink:title=" ">
<polygon fill="none" stroke="black" points="797.5,-56.5 797.5,-86.5 944.5,-86.5 944.5,-56.5 797.5,-56.5"/>
<text text-anchor="start" x="805.5" y="-74.5" font-family="Helvetica,sans-Serif" font-size="10.00">include/CostModel/MVCost</text>
<text text-anchor="middle" x="871" y="-63.5" font-family="Helvetica,sans-Serif" font-size="10.00">Model.h</text>
</a>
</g>
</g>
<!-- Node1&#45;&gt;Node2 -->
<g id="edge1" class="edge">
<title>Node1&#45;&gt;Node2</title>
<path fill="none" stroke="midnightblue" d="M789.69,-666.03C845.07,-661.63 924.01,-650.77 988,-624 1033.52,-604.96 1078,-608.34 1078,-559 1078,-559 1078,-559 1078,-204.5 1078,-137.69 1000.39,-103.21 940.22,-86.51"/>
<polygon fill="midnightblue" stroke="midnightblue" points="789.34,-662.54 779.63,-666.78 789.86,-669.53 789.34,-662.54"/>
</g>
<!-- Node3 -->
<g id="node3" class="node">
<title>Node3</title>
<g id="a_node3"><a xlink:href="Utils_8h.html" target="_top" xlink:title=" ">
<polygon fill="none" stroke="black" points="359,-604.5 359,-623.5 445,-623.5 445,-604.5 359,-604.5"/>
<text text-anchor="middle" x="402" y="-611.5" font-family="Helvetica,sans-Serif" font-size="10.00">include/Utils.h</text>
</a>
</g>
</g>
<!-- Node1&#45;&gt;Node3 -->
<g id="edge2" class="edge">
<title>Node1&#45;&gt;Node3</title>
<path fill="none" stroke="midnightblue" d="M660.27,-658.72C597.37,-648.07 500.65,-631.7 445.15,-622.3"/>
<polygon fill="midnightblue" stroke="midnightblue" points="660.01,-662.23 670.45,-660.44 661.18,-655.32 660.01,-662.23"/>
</g>
<!-- Node8 -->
<g id="node8" class="node">
<title>Node8</title>
<g id="a_node8"><a xlink:href="macveth_8cpp.html" target="_top" xlink:title=" ">
<polygon fill="none" stroke="black" points="9.5,-0.5 9.5,-19.5 104.5,-19.5 104.5,-0.5 9.5,-0.5"/>
<text text-anchor="middle" x="57" y="-7.5" font-family="Helvetica,sans-Serif" font-size="10.00">lib/macveth.cpp</text>
</a>
</g>
</g>
<!-- Node1&#45;&gt;Node8 -->
<g id="edge55" class="edge">
<title>Node1&#45;&gt;Node8</title>
<path fill="none" stroke="midnightblue" d="M652.14,-665.67C471.88,-656.04 0,-624.56 0,-559 0,-559 0,-559 0,-137.5 0,-89.32 34.79,-39.21 50.01,-19.6"/>
<polygon fill="midnightblue" stroke="midnightblue" points="652.13,-669.17 662.3,-666.21 652.5,-662.18 652.13,-669.17"/>
</g>
<!-- Node11 -->
<g id="node11" class="node">
<title>Node11</title>
<g id="a_node11"><a xlink:href="SIMDBackEndFactory_8h.html" target="_top" xlink:title=" ">
<polygon fill="none" stroke="black" points="562,-56.5 562,-86.5 720,-86.5 720,-56.5 562,-56.5"/>
<text text-anchor="start" x="570" y="-74.5" font-family="Helvetica,sans-Serif" font-size="10.00">include/Vectorization</text>
<text text-anchor="middle" x="641" y="-63.5" font-family="Helvetica,sans-Serif" font-size="10.00">/SIMD/SIMDBackEndFactory.h</text>
</a>
</g>
</g>
<!-- Node1&#45;&gt;Node11 -->
<g id="edge54" class="edge">
<title>Node1&#45;&gt;Node11</title>
<path fill="none" stroke="midnightblue" d="M789.49,-659.48C883.23,-644.49 1040,-611.57 1040,-559 1040,-559 1040,-559 1040,-389 1040,-249.65 987.97,-203.19 874,-123 849.42,-105.7 777.72,-91.78 720.29,-82.96"/>
<polygon fill="midnightblue" stroke="midnightblue" points="788.85,-656.04 779.51,-661.04 789.93,-662.95 788.85,-656.04"/>
</g>
<!-- Node4 -->
<g id="node4" class="node">
<title>Node4</title>
<g id="a_node4"><a xlink:href="CostTable_8h.html" target="_top" xlink:title=" ">
<polygon fill="none" stroke="black" points="703,-263 703,-282 869,-282 869,-263 703,-263"/>
<text text-anchor="middle" x="786" y="-270" font-family="Helvetica,sans-Serif" font-size="10.00">include/CostModel/CostTable.h</text>
</a>
</g>
</g>
<!-- Node3&#45;&gt;Node4 -->
<g id="edge3" class="edge">
<title>Node3&#45;&gt;Node4</title>
<path fill="none" stroke="midnightblue" d="M455.28,-608.83C602.15,-596.63 1002,-558.33 1002,-503 1002,-503 1002,-503 1002,-389 1002,-322.24 920.76,-293.92 857.92,-282.01"/>
<polygon fill="midnightblue" stroke="midnightblue" points="454.83,-605.36 445.15,-609.66 455.4,-612.33 454.83,-605.36"/>
</g>
<!-- Node3&#45;&gt;Node8 -->
<g id="edge53" class="edge">
<title>Node3&#45;&gt;Node8</title>
<path fill="none" stroke="midnightblue" d="M348.8,-608.09C247.74,-597.29 38,-567.14 38,-503 38,-503 38,-503 38,-137.5 38,-92.64 49.83,-39.81 54.82,-19.52"/>
<polygon fill="midnightblue" stroke="midnightblue" points="348.51,-611.58 358.82,-609.14 349.23,-604.62 348.51,-611.58"/>
</g>
<!-- Node12 -->
<g id="node12" class="node">
<title>Node12</title>
<g id="a_node12"><a xlink:href="Debug_8h.html" target="_top" xlink:title=" ">
<polygon fill="none" stroke="black" points="278.5,-548.5 278.5,-567.5 373.5,-567.5 373.5,-548.5 278.5,-548.5"/>
<text text-anchor="middle" x="326" y="-555.5" font-family="Helvetica,sans-Serif" font-size="10.00">include/Debug.h</text>
</a>
</g>
</g>
<!-- Node3&#45;&gt;Node12 -->
<g id="edge16" class="edge">
<title>Node3&#45;&gt;Node12</title>
<path fill="none" stroke="midnightblue" d="M381.42,-598.38C367.69,-588.62 350.07,-576.11 338.43,-567.83"/>
<polygon fill="midnightblue" stroke="midnightblue" points="379.61,-601.38 389.79,-604.32 383.66,-595.68 379.61,-601.38"/>
</g>
<!-- Node13 -->
<g id="node13" class="node">
<title>Node13</title>
<g id="a_node13"><a xlink:href="MVExpr_8h.html" target="_top" xlink:title=" ">
<polygon fill="none" stroke="black" points="430.5,-492.5 430.5,-511.5 571.5,-511.5 571.5,-492.5 430.5,-492.5"/>
<text text-anchor="middle" x="501" y="-499.5" font-family="Helvetica,sans-Serif" font-size="10.00">include/MVExpr/MVExpr.h</text>
</a>
</g>
</g>
<!-- Node3&#45;&gt;Node13 -->
<g id="edge50" class="edge">
<title>Node3&#45;&gt;Node13</title>
<path fill="none" stroke="midnightblue" d="M416.49,-596.9C437.78,-573.25 476.75,-529.95 493.27,-511.59"/>
<polygon fill="midnightblue" stroke="midnightblue" points="413.86,-594.59 409.77,-604.37 419.06,-599.28 413.86,-594.59"/>
</g>
<!-- Node22 -->
<g id="node22" class="node">
<title>Node22</title>
<g id="a_node22"><a xlink:href="StmtWrapper_8h.html" target="_top" xlink:title=" ">
<polygon fill="none" stroke="black" points="180,-380.5 180,-399.5 308,-399.5 308,-380.5 180,-380.5"/>
<text text-anchor="middle" x="244" y="-387.5" font-family="Helvetica,sans-Serif" font-size="10.00">include/StmtWrapper.h</text>
</a>
</g>
</g>
<!-- Node3&#45;&gt;Node22 -->
<g id="edge51" class="edge">
<title>Node3&#45;&gt;Node22</title>
<path fill="none" stroke="midnightblue" d="M348.83,-608.21C320.92,-602.84 288.54,-591.56 269,-568 226.6,-516.88 237.62,-427.54 242.37,-399.6"/>
<polygon fill="midnightblue" stroke="midnightblue" points="348.43,-611.69 358.88,-609.93 349.62,-604.79 348.43,-611.69"/>
</g>
<!-- Node23 -->
<g id="node23" class="node">
<title>Node23</title>
<g id="a_node23"><a xlink:href="TAC_8h.html" target="_top" xlink:title=" ">
<polygon fill="none" stroke="black" points="280.5,-436.5 280.5,-455.5 363.5,-455.5 363.5,-436.5 280.5,-436.5"/>
<text text-anchor="middle" x="322" y="-443.5" font-family="Helvetica,sans-Serif" font-size="10.00">include/TAC.h</text>
</a>
</g>
</g>
<!-- Node3&#45;&gt;Node23 -->
<g id="edge52" class="edge">
<title>Node3&#45;&gt;Node23</title>
<path fill="none" stroke="midnightblue" d="M397.57,-594.54C394.1,-581.3 388.73,-563.18 382,-548 365.96,-511.83 339.78,-472.48 328.03,-455.54"/>
<polygon fill="midnightblue" stroke="midnightblue" points="394.21,-595.5 400.04,-604.35 401,-593.8 394.21,-595.5"/>
</g>
<!-- Node5 -->
<g id="node5" class="node">
<title>Node5</title>
<g id="a_node5"><a xlink:href="SIMDCostInfo_8h.html" target="_top" xlink:title=" ">
<polygon fill="none" stroke="black" points="707.5,-123.5 707.5,-153.5 864.5,-153.5 864.5,-123.5 707.5,-123.5"/>
<text text-anchor="start" x="715.5" y="-141.5" font-family="Helvetica,sans-Serif" font-size="10.00">include/CostModel/SIMDCost</text>
<text text-anchor="middle" x="786" y="-130.5" font-family="Helvetica,sans-Serif" font-size="10.00">Info.h</text>
</a>
</g>
</g>
<!-- Node4&#45;&gt;Node5 -->
<g id="edge4" class="edge">
<title>Node4&#45;&gt;Node5</title>
<path fill="none" stroke="midnightblue" d="M786,-252.53C786,-225.81 786,-177.69 786,-153.78"/>
<polygon fill="midnightblue" stroke="midnightblue" points="782.5,-252.84 786,-262.84 789.5,-252.84 782.5,-252.84"/>
</g>
<!-- Node6 -->
<g id="node6" class="node">
<title>Node6</title>
<g id="a_node6"><a xlink:href="SIMDBackEnd_8h.html" target="_top" xlink:title=" ">
<polygon fill="none" stroke="black" points="559.5,-190.5 559.5,-220.5 684.5,-220.5 684.5,-190.5 559.5,-190.5"/>
<text text-anchor="start" x="567.5" y="-208.5" font-family="Helvetica,sans-Serif" font-size="10.00">include/Vectorization</text>
<text text-anchor="middle" x="622" y="-197.5" font-family="Helvetica,sans-Serif" font-size="10.00">/SIMD/SIMDBackEnd.h</text>
</a>
</g>
</g>
<!-- Node4&#45;&gt;Node6 -->
<g id="edge6" class="edge">
<title>Node4&#45;&gt;Node6</title>
<path fill="none" stroke="midnightblue" d="M754.61,-259.06C726.83,-248.05 686.32,-231.99 657.39,-220.53"/>
<polygon fill="midnightblue" stroke="midnightblue" points="753.64,-262.44 764.22,-262.87 756.22,-255.93 753.64,-262.44"/>
</g>
<!-- Node5&#45;&gt;Node2 -->
<g id="edge5" class="edge">
<title>Node5&#45;&gt;Node2</title>
<path fill="none" stroke="midnightblue" d="M812.59,-117.17C825.59,-107.23 840.9,-95.51 852.59,-86.58"/>
<polygon fill="midnightblue" stroke="midnightblue" points="810.26,-114.54 804.44,-123.4 814.51,-120.1 810.26,-114.54"/>
</g>
<!-- Node6&#45;&gt;Node2 -->
<g id="edge7" class="edge">
<title>Node6&#45;&gt;Node2</title>
<path fill="none" stroke="midnightblue" d="M638,-181.83C652.08,-163.45 674.18,-138.21 699,-123 728.72,-104.79 765.36,-92.85 797.17,-85.18"/>
<polygon fill="midnightblue" stroke="midnightblue" points="634.91,-180.11 631.75,-190.22 640.53,-184.29 634.91,-180.11"/>
</g>
<!-- Node6&#45;&gt;Node5 -->
<g id="edge8" class="edge">
<title>Node6&#45;&gt;Node5</title>
<path fill="none" stroke="midnightblue" d="M666.96,-186.68C693.26,-176.26 726,-163.28 750.48,-153.58"/>
<polygon fill="midnightblue" stroke="midnightblue" points="665.59,-183.46 657.59,-190.4 668.17,-189.97 665.59,-183.46"/>
</g>
<!-- Node7 -->
<g id="node7" class="node">
<title>Node7</title>
<g id="a_node7"><a xlink:href="MVFrontend_8h.html" target="_top" xlink:title=" ">
<polygon fill="none" stroke="black" points="162,-62 162,-81 284,-81 284,-62 162,-62"/>
<text text-anchor="middle" x="223" y="-69" font-family="Helvetica,sans-Serif" font-size="10.00">include/MVFrontend.h</text>
</a>
</g>
</g>
<!-- Node6&#45;&gt;Node7 -->
<g id="edge9" class="edge">
<title>Node6&#45;&gt;Node7</title>
<path fill="none" stroke="midnightblue" d="M617.02,-180.47C611.81,-161.75 601.71,-136.7 583,-123 536.66,-89.08 374.25,-77.86 284.23,-74.22"/>
<polygon fill="midnightblue" stroke="midnightblue" points="613.67,-181.52 619.48,-190.37 620.46,-179.83 613.67,-181.52"/>
</g>
<!-- Node9 -->
<g id="node9" class="node">
<title>Node9</title>
<g id="a_node9"><a xlink:href="MVRewriter_8h.html" target="_top" xlink:title=" ">
<polygon fill="none" stroke="black" points="207,-129 207,-148 327,-148 327,-129 207,-129"/>
<text text-anchor="middle" x="267" y="-136" font-family="Helvetica,sans-Serif" font-size="10.00">include/MVRewriter.h</text>
</a>
</g>
</g>
<!-- Node6&#45;&gt;Node9 -->
<g id="edge11" class="edge">
<title>Node6&#45;&gt;Node9</title>
<path fill="none" stroke="midnightblue" d="M549.19,-191.17C478.54,-178.23 373.47,-159 313.47,-148.01"/>
<polygon fill="midnightblue" stroke="midnightblue" points="548.88,-194.67 559.35,-193.03 550.14,-187.79 548.88,-194.67"/>
</g>
<!-- Node10 -->
<g id="node10" class="node">
<title>Node10</title>
<g id="a_node10"><a xlink:href="AVX2BackEnd_8h.html" target="_top" xlink:title=" ">
<polygon fill="none" stroke="black" points="421.5,-123.5 421.5,-153.5 574.5,-153.5 574.5,-123.5 421.5,-123.5"/>
<text text-anchor="start" x="429.5" y="-141.5" font-family="Helvetica,sans-Serif" font-size="10.00">include/Vectorization</text>
<text text-anchor="middle" x="498" y="-130.5" font-family="Helvetica,sans-Serif" font-size="10.00">/SIMD/AVX2/AVX2BackEnd.h</text>
</a>
</g>
</g>
<!-- Node6&#45;&gt;Node10 -->
<g id="edge13" class="edge">
<title>Node6&#45;&gt;Node10</title>
<path fill="none" stroke="midnightblue" d="M586.16,-185.71C566.61,-175.46 542.8,-162.98 524.85,-153.58"/>
<polygon fill="midnightblue" stroke="midnightblue" points="584.61,-188.85 595.09,-190.4 587.86,-182.65 584.61,-188.85"/>
</g>
<!-- Node6&#45;&gt;Node11 -->
<g id="edge15" class="edge">
<title>Node6&#45;&gt;Node11</title>
<path fill="none" stroke="midnightblue" d="M625.47,-180.39C629.43,-152.9 635.76,-108.89 638.98,-86.52"/>
<polygon fill="midnightblue" stroke="midnightblue" points="621.99,-179.98 624.03,-190.37 628.92,-180.97 621.99,-179.98"/>
</g>
<!-- Node7&#45;&gt;Node8 -->
<g id="edge10" class="edge">
<title>Node7&#45;&gt;Node8</title>
<path fill="none" stroke="midnightblue" d="M189.75,-58.58C157.48,-47.02 109.32,-29.75 80.74,-19.51"/>
<polygon fill="midnightblue" stroke="midnightblue" points="188.62,-61.9 199.22,-61.98 190.98,-55.31 188.62,-61.9"/>
</g>
<!-- Node9&#45;&gt;Node7 -->
<g id="edge12" class="edge">
<title>Node9&#45;&gt;Node7</title>
<path fill="none" stroke="midnightblue" d="M255.43,-120.4C246.88,-107.77 235.59,-91.1 228.84,-81.13"/>
<polygon fill="midnightblue" stroke="midnightblue" points="252.56,-122.41 261.07,-128.73 258.36,-118.49 252.56,-122.41"/>
</g>
<!-- Node10&#45;&gt;Node11 -->
<g id="edge14" class="edge">
<title>Node10&#45;&gt;Node11</title>
<path fill="none" stroke="midnightblue" d="M538.41,-119.13C561.13,-108.8 589.06,-96.11 610.03,-86.58"/>
<polygon fill="midnightblue" stroke="midnightblue" points="536.68,-116.07 529.03,-123.4 539.58,-122.44 536.68,-116.07"/>
</g>
<!-- Node12&#45;&gt;Node13 -->
<g id="edge17" class="edge">
<title>Node12&#45;&gt;Node13</title>
<path fill="none" stroke="midnightblue" d="M363.47,-545.44C396.47,-535.26 443.76,-520.66 473.4,-511.52"/>
<polygon fill="midnightblue" stroke="midnightblue" points="362.25,-542.15 353.73,-548.44 364.32,-548.84 362.25,-542.15"/>
</g>
<!-- Node12&#45;&gt;Node23 -->
<g id="edge49" class="edge">
<title>Node12&#45;&gt;Node23</title>
<path fill="none" stroke="midnightblue" d="M325.32,-538.35C324.45,-514.25 322.96,-473.31 322.31,-455.59"/>
<polygon fill="midnightblue" stroke="midnightblue" points="321.82,-538.5 325.69,-548.37 328.82,-538.25 321.82,-538.5"/>
</g>
<!-- Node24 -->
<g id="node24" class="node">
<title>Node24</title>
<g id="a_node24"><a xlink:href="MVPragmaHandler_8h.html" target="_top" xlink:title=" ">
<polygon fill="none" stroke="black" points="66.5,-436.5 66.5,-455.5 221.5,-455.5 221.5,-436.5 66.5,-436.5"/>
<text text-anchor="middle" x="144" y="-443.5" font-family="Helvetica,sans-Serif" font-size="10.00">include/MVPragmaHandler.h</text>
</a>
</g>
</g>
<!-- Node12&#45;&gt;Node24 -->
<g id="edge44" class="edge">
<title>Node12&#45;&gt;Node24</title>
<path fill="none" stroke="midnightblue" d="M302.85,-543.01C264.65,-519.92 189.52,-474.51 158.21,-455.59"/>
<polygon fill="midnightblue" stroke="midnightblue" points="301.35,-546.19 311.72,-548.37 304.97,-540.2 301.35,-546.19"/>
</g>
<!-- Node14 -->
<g id="node14" class="node">
<title>Node14</title>
<g id="a_node14"><a xlink:href="MVExprArray_8h.html" target="_top" xlink:title=" ">
<polygon fill="none" stroke="black" points="807.5,-380.5 807.5,-399.5 974.5,-399.5 974.5,-380.5 807.5,-380.5"/>
<text text-anchor="middle" x="891" y="-387.5" font-family="Helvetica,sans-Serif" font-size="10.00">include/MVExpr/MVExprArray.h</text>
</a>
</g>
</g>
<!-- Node13&#45;&gt;Node14 -->
<g id="edge18" class="edge">
<title>Node13&#45;&gt;Node14</title>
<path fill="none" stroke="midnightblue" d="M553.72,-490.36C593.38,-482 648.93,-469.54 697,-456 759.57,-438.38 831.82,-412.74 867.94,-399.54"/>
<polygon fill="midnightblue" stroke="midnightblue" points="552.81,-486.97 543.74,-492.44 554.25,-493.82 552.81,-486.97"/>
</g>
<!-- Node16 -->
<g id="node16" class="node">
<title>Node16</title>
<g id="a_node16"><a xlink:href="MVExprFactory_8h.html" target="_top" xlink:title=" ">
<polygon fill="none" stroke="black" points="458,-436.5 458,-455.5 634,-455.5 634,-436.5 458,-436.5"/>
<text text-anchor="middle" x="546" y="-443.5" font-family="Helvetica,sans-Serif" font-size="10.00">include/MVExpr/MVExprFactory.h</text>
</a>
</g>
</g>
<!-- Node13&#45;&gt;Node16 -->
<g id="edge22" class="edge">
<title>Node13&#45;&gt;Node16</title>
<path fill="none" stroke="midnightblue" d="M515.05,-484.14C522.89,-474.74 532.33,-463.4 538.71,-455.75"/>
<polygon fill="midnightblue" stroke="midnightblue" points="512.14,-482.16 508.43,-492.08 517.52,-486.64 512.14,-482.16"/>
</g>
<!-- Node17 -->
<g id="node17" class="node">
<title>Node17</title>
<g id="a_node17"><a xlink:href="MVExprLiteral_8h.html" target="_top" xlink:title=" ">
<polygon fill="none" stroke="black" points="616.5,-380.5 616.5,-399.5 789.5,-399.5 789.5,-380.5 616.5,-380.5"/>
<text text-anchor="middle" x="703" y="-387.5" font-family="Helvetica,sans-Serif" font-size="10.00">include/MVExpr/MVExprLiteral.h</text>
</a>
</g>
</g>
<!-- Node13&#45;&gt;Node17 -->
<g id="edge23" class="edge">
<title>Node13&#45;&gt;Node17</title>
<path fill="none" stroke="midnightblue" d="M581.7,-495.79C614.18,-490.02 650.01,-478.54 676,-456 693.17,-441.11 699.64,-413.54 701.9,-399.58"/>
<polygon fill="midnightblue" stroke="midnightblue" points="581.06,-492.35 571.75,-497.4 582.18,-499.26 581.06,-492.35"/>
</g>
<!-- Node18 -->
<g id="node18" class="node">
<title>Node18</title>
<g id="a_node18"><a xlink:href="Node_8h.html" target="_top" xlink:title=" ">
<polygon fill="none" stroke="black" points="543.5,-324.5 543.5,-343.5 632.5,-343.5 632.5,-324.5 543.5,-324.5"/>
<text text-anchor="middle" x="588" y="-331.5" font-family="Helvetica,sans-Serif" font-size="10.00">include/Node.h</text>
</a>
</g>
</g>
<!-- Node13&#45;&gt;Node18 -->
<g id="edge34" class="edge">
<title>Node13&#45;&gt;Node18</title>
<path fill="none" stroke="midnightblue" d="M581.36,-493.59C605.01,-487.22 628.43,-475.9 643,-456 660.48,-432.13 622.08,-425.46 607,-400 596.09,-381.59 591.09,-356.5 589.11,-343.54"/>
<polygon fill="midnightblue" stroke="midnightblue" points="580.49,-490.2 571.59,-495.95 582.13,-497 580.49,-490.2"/>
</g>
<!-- Node21 -->
<g id="node21" class="node">
<title>Node21</title>
<g id="a_node21"><a xlink:href="MVExprVar_8h.html" target="_top" xlink:title=" ">
<polygon fill="none" stroke="black" points="402.5,-380.5 402.5,-399.5 559.5,-399.5 559.5,-380.5 402.5,-380.5"/>
<text text-anchor="middle" x="481" y="-387.5" font-family="Helvetica,sans-Serif" font-size="10.00">include/MVExpr/MVExprVar.h</text>
</a>
</g>
</g>
<!-- Node13&#45;&gt;Node21 -->
<g id="edge32" class="edge">
<title>Node13&#45;&gt;Node21</title>
<path fill="none" stroke="midnightblue" d="M476.63,-486.73C466.05,-479.09 454.78,-468.64 449,-456 439.69,-435.64 458.8,-412.17 471.31,-399.75"/>
<polygon fill="midnightblue" stroke="midnightblue" points="474.96,-489.82 485.22,-492.47 478.85,-484 474.96,-489.82"/>
</g>
<!-- Node13&#45;&gt;Node22 -->
<g id="edge35" class="edge">
<title>Node13&#45;&gt;Node22</title>
<path fill="none" stroke="midnightblue" d="M476.42,-487.42C450.79,-473.55 409.24,-451.85 372,-436 338.19,-421.61 298.05,-408.05 271.86,-399.65"/>
<polygon fill="midnightblue" stroke="midnightblue" points="474.97,-490.61 485.42,-492.33 478.32,-484.47 474.97,-490.61"/>
</g>
<!-- Node13&#45;&gt;Node23 -->
<g id="edge40" class="edge">
<title>Node13&#45;&gt;Node23</title>
<path fill="none" stroke="midnightblue" d="M462.67,-489.44C428.92,-479.26 380.55,-464.66 350.23,-455.52"/>
<polygon fill="midnightblue" stroke="midnightblue" points="462.05,-492.91 472.64,-492.44 464.07,-486.2 462.05,-492.91"/>
</g>
<!-- Node15 -->
<g id="node15" class="node">
<title>Node15</title>
<g id="a_node15"><a xlink:href="VectorIR_8h.html" target="_top" xlink:title=" ">
<polygon fill="none" stroke="black" points="540.5,-257.5 540.5,-287.5 659.5,-287.5 659.5,-257.5 540.5,-257.5"/>
<text text-anchor="start" x="548.5" y="-275.5" font-family="Helvetica,sans-Serif" font-size="10.00">include/Vectorization</text>
<text text-anchor="middle" x="600" y="-264.5" font-family="Helvetica,sans-Serif" font-size="10.00">/VectorIR.h</text>
</a>
</g>
</g>
<!-- Node14&#45;&gt;Node15 -->
<g id="edge19" class="edge">
<title>Node14&#45;&gt;Node15</title>
<path fill="none" stroke="midnightblue" d="M859.62,-376.55C804.98,-354.86 692.72,-310.3 635.39,-287.55"/>
<polygon fill="midnightblue" stroke="midnightblue" points="858.54,-379.88 869.13,-380.32 861.12,-373.38 858.54,-379.88"/>
</g>
<!-- Node15&#45;&gt;Node6 -->
<g id="edge21" class="edge">
<title>Node15&#45;&gt;Node6</title>
<path fill="none" stroke="midnightblue" d="M608.06,-247.7C611.14,-238.59 614.56,-228.49 617.24,-220.58"/>
<polygon fill="midnightblue" stroke="midnightblue" points="604.66,-246.8 604.77,-257.4 611.29,-249.05 604.66,-246.8"/>
</g>
<!-- Node15&#45;&gt;Node10 -->
<g id="edge20" class="edge">
<title>Node15&#45;&gt;Node10</title>
<path fill="none" stroke="midnightblue" d="M576.82,-250.13C567.99,-241.47 558.1,-231.14 550,-221 532.29,-198.84 515.3,-170.42 505.8,-153.66"/>
<polygon fill="midnightblue" stroke="midnightblue" points="574.61,-252.85 584.25,-257.25 579.46,-247.8 574.61,-252.85"/>
</g>
<!-- Node17&#45;&gt;Node18 -->
<g id="edge24" class="edge">
<title>Node17&#45;&gt;Node18</title>
<path fill="none" stroke="midnightblue" d="M675.52,-376.1C654.03,-366.01 624.78,-352.27 606.14,-343.52"/>
<polygon fill="midnightblue" stroke="midnightblue" points="674.24,-379.36 684.78,-380.44 677.21,-373.02 674.24,-379.36"/>
</g>
<!-- Node18&#45;&gt;Node15 -->
<g id="edge31" class="edge">
<title>Node18&#45;&gt;Node15</title>
<path fill="none" stroke="midnightblue" d="M591.73,-314.53C593.48,-305.81 595.55,-295.59 597.17,-287.52"/>
<polygon fill="midnightblue" stroke="midnightblue" points="588.27,-313.98 589.72,-324.48 595.13,-315.36 588.27,-313.98"/>
</g>
<!-- Node19 -->
<g id="node19" class="node">
<title>Node19</title>
<g id="a_node19"><a xlink:href="CDAG_8h.html" target="_top" xlink:title=" ">
<polygon fill="none" stroke="black" points="316,-263 316,-282 408,-282 408,-263 316,-263"/>
<text text-anchor="middle" x="362" y="-270" font-family="Helvetica,sans-Serif" font-size="10.00">include/CDAG.h</text>
</a>
</g>
</g>
<!-- Node18&#45;&gt;Node19 -->
<g id="edge25" class="edge">
<title>Node18&#45;&gt;Node19</title>
<path fill="none" stroke="midnightblue" d="M545.82,-321.9C501.93,-310.34 434.15,-292.5 394.32,-282.01"/>
<polygon fill="midnightblue" stroke="midnightblue" points="545.06,-325.31 555.62,-324.48 546.84,-318.54 545.06,-325.31"/>
</g>
<!-- Node20 -->
<g id="node20" class="node">
<title>Node20</title>
<g id="a_node20"><a xlink:href="PlcmntAlgo_8h.html" target="_top" xlink:title=" ">
<polygon fill="none" stroke="black" points="383.5,-196 383.5,-215 502.5,-215 502.5,-196 383.5,-196"/>
<text text-anchor="middle" x="443" y="-203" font-family="Helvetica,sans-Serif" font-size="10.00">include/PlcmntAlgo.h</text>
</a>
</g>
</g>
<!-- Node18&#45;&gt;Node20 -->
<g id="edge30" class="edge">
<title>Node18&#45;&gt;Node20</title>
<path fill="none" stroke="midnightblue" d="M568.24,-318.01C557.12,-309.43 543.1,-298.35 531,-288 501.25,-262.55 467.74,-230.53 452.03,-215.31"/>
<polygon fill="midnightblue" stroke="midnightblue" points="566.37,-320.99 576.43,-324.29 570.62,-315.43 566.37,-320.99"/>
</g>
<!-- Node19&#45;&gt;Node6 -->
<g id="edge29" class="edge">
<title>Node19&#45;&gt;Node6</title>
<path fill="none" stroke="midnightblue" d="M406.09,-260.48C450.1,-249.47 517.9,-232.52 565.76,-220.56"/>
<polygon fill="midnightblue" stroke="midnightblue" points="405.11,-257.11 396.26,-262.94 406.81,-263.91 405.11,-257.11"/>
</g>
<!-- Node19&#45;&gt;Node7 -->
<g id="edge26" class="edge">
<title>Node19&#45;&gt;Node7</title>
<path fill="none" stroke="midnightblue" d="M363.97,-252.54C366.09,-221.95 365.81,-161.26 336,-123 318.76,-100.88 289.74,-88.19 265.42,-81.06"/>
<polygon fill="midnightblue" stroke="midnightblue" points="360.46,-252.42 363.09,-262.68 367.44,-253.02 360.46,-252.42"/>
</g>
<!-- Node19&#45;&gt;Node9 -->
<g id="edge27" class="edge">
<title>Node19&#45;&gt;Node9</title>
<path fill="none" stroke="midnightblue" d="M349.88,-254.66C329.39,-226.18 288.59,-169.5 273.13,-148.02"/>
<polygon fill="midnightblue" stroke="midnightblue" points="347.08,-256.77 355.77,-262.84 352.77,-252.68 347.08,-256.77"/>
</g>
<!-- Node19&#45;&gt;Node20 -->
<g id="edge28" class="edge">
<title>Node19&#45;&gt;Node20</title>
<path fill="none" stroke="midnightblue" d="M381.05,-256.21C397.01,-243.41 419.21,-225.59 432.25,-215.13"/>
<polygon fill="midnightblue" stroke="midnightblue" points="378.53,-253.75 372.92,-262.73 382.91,-259.2 378.53,-253.75"/>
</g>
<!-- Node21&#45;&gt;Node18 -->
<g id="edge33" class="edge">
<title>Node21&#45;&gt;Node18</title>
<path fill="none" stroke="midnightblue" d="M507.3,-375.73C527.11,-365.73 553.71,-352.31 570.85,-343.65"/>
<polygon fill="midnightblue" stroke="midnightblue" points="505.54,-372.69 498.19,-380.32 508.7,-378.94 505.54,-372.69"/>
</g>
<!-- Node22&#45;&gt;Node2 -->
<g id="edge36" class="edge">
<title>Node22&#45;&gt;Node2</title>
<path fill="none" stroke="midnightblue" d="M286.32,-377.89C342.53,-363.51 445.08,-338.57 534,-324 609.85,-311.57 826.56,-345.11 878,-288 929.99,-230.29 893.1,-124.55 877.26,-86.56"/>
<polygon fill="midnightblue" stroke="midnightblue" points="285.19,-374.57 276.38,-380.45 286.93,-381.35 285.19,-374.57"/>
</g>
<!-- Node22&#45;&gt;Node7 -->
<g id="edge37" class="edge">
<title>Node22&#45;&gt;Node7</title>
<path fill="none" stroke="midnightblue" d="M239.06,-370.31C228.89,-330.75 205.9,-235.52 198,-154 196.67,-140.29 194.86,-136.42 198,-123 201.66,-107.38 210.89,-91.05 217.05,-81.33"/>
<polygon fill="midnightblue" stroke="midnightblue" points="235.71,-371.33 241.62,-380.13 242.48,-369.57 235.71,-371.33"/>
</g>
<!-- Node22&#45;&gt;Node9 -->
<g id="edge38" class="edge">
<title>Node22&#45;&gt;Node9</title>
<path fill="none" stroke="midnightblue" d="M245.72,-370.34C250.35,-320.14 262.93,-183.6 266.21,-148.05"/>
<polygon fill="midnightblue" stroke="midnightblue" points="242.22,-370.13 244.79,-380.41 249.19,-370.78 242.22,-370.13"/>
</g>
<!-- Node22&#45;&gt;Node18 -->
<g id="edge39" class="edge">
<title>Node22&#45;&gt;Node18</title>
<path fill="none" stroke="midnightblue" d="M308.75,-378.84C377.27,-368.08 483.59,-351.39 543.33,-342.01"/>
<polygon fill="midnightblue" stroke="midnightblue" points="307.84,-375.44 298.51,-380.44 308.93,-382.35 307.84,-375.44"/>
</g>
<!-- Node23&#45;&gt;Node18 -->
<g id="edge42" class="edge">
<title>Node23&#45;&gt;Node18</title>
<path fill="none" stroke="midnightblue" d="M335.6,-428.4C348.75,-413.47 370,-392.09 393,-380 418.76,-366.46 494.29,-351.37 543.43,-342.56"/>
<polygon fill="midnightblue" stroke="midnightblue" points="332.67,-426.44 328.85,-436.32 338,-430.98 332.67,-426.44"/>
</g>
<!-- Node23&#45;&gt;Node19 -->
<g id="edge41" class="edge">
<title>Node23&#45;&gt;Node19</title>
<path fill="none" stroke="midnightblue" d="M326.35,-426.33C334.96,-389.43 353.85,-308.44 360.01,-282.02"/>
<polygon fill="midnightblue" stroke="midnightblue" points="322.9,-425.73 324.04,-436.26 329.72,-427.32 322.9,-425.73"/>
</g>
<!-- Node23&#45;&gt;Node22 -->
<g id="edge43" class="edge">
<title>Node23&#45;&gt;Node22</title>
<path fill="none" stroke="midnightblue" d="M301.23,-430.62C286.98,-420.76 268.54,-407.99 256.5,-399.65"/>
<polygon fill="midnightblue" stroke="midnightblue" points="299.25,-433.51 309.47,-436.32 303.24,-427.75 299.25,-433.51"/>
</g>
<!-- Node24&#45;&gt;Node7 -->
<g id="edge45" class="edge">
<title>Node24&#45;&gt;Node7</title>
<path fill="none" stroke="midnightblue" d="M135.89,-426.93C127,-405.47 114,-368.36 114,-335 114,-335 114,-335 114,-204.5 114,-146.25 177.89,-99.82 207.84,-81.25"/>
<polygon fill="midnightblue" stroke="midnightblue" points="132.78,-428.58 139.95,-436.38 139.21,-425.81 132.78,-428.58"/>
</g>
<!-- Node24&#45;&gt;Node8 -->
<g id="edge48" class="edge">
<title>Node24&#45;&gt;Node8</title>
<path fill="none" stroke="midnightblue" d="M126.58,-429.46C106.43,-409.69 76,-373.45 76,-335 76,-335 76,-335 76,-137.5 76,-92.64 64.17,-39.81 59.18,-19.52"/>
<polygon fill="midnightblue" stroke="midnightblue" points="124.29,-432.11 133.97,-436.43 129.1,-427.02 124.29,-432.11"/>
</g>
<!-- Node24&#45;&gt;Node9 -->
<g id="edge46" class="edge">
<title>Node24&#45;&gt;Node9</title>
<path fill="none" stroke="midnightblue" d="M151.32,-426.83C174.68,-368.81 246.91,-189.4 263.55,-148.06"/>
<polygon fill="midnightblue" stroke="midnightblue" points="148.04,-425.6 147.55,-436.19 154.53,-428.22 148.04,-425.6"/>
</g>
<!-- Node24&#45;&gt;Node22 -->
<g id="edge47" class="edge">
<title>Node24&#45;&gt;Node22</title>
<path fill="none" stroke="midnightblue" d="M169.09,-431.45C187.55,-421.48 212.1,-408.23 227.97,-399.65"/>
<polygon fill="midnightblue" stroke="midnightblue" points="167.2,-428.49 160.07,-436.32 170.53,-434.65 167.2,-428.49"/>
</g>
</g>
</svg>
        <g id="navigator" transform="translate(0 0)" fill="#404254">
                <rect fill="#f2f5e9" fill-opacity="0.5" stroke="#606060" stroke-width=".5" x="0" y="0" width="60" height="60"/>
                <use id="zoomplus" xlink:href="#zoomPlus" x="17" y="9" onmousedown="handleZoom(evt,'in')"/>
                <use id="zoomminus" xlink:href="#zoomMin" x="42" y="9" onmousedown="handleZoom(evt,'out')"/>
                <use id="reset" xlink:href="#resetDef" x="30" y="36" onmousedown="handleReset()"/>
                <g id="arrowUp" xlink:href="#dirArrow" transform="translate(30 24)" onmousedown="handlePan(0,-1)">
                  <use xlink:href="#rim" fill="#404040">
                        <set attributeName="fill" to="#808080" begin="arrowUp.mouseover" end="arrowUp.mouseout"/>
                  </use>
                  <path fill="none" stroke="white" stroke-width="1.5" d="M0,-3.0v7 M-2.5,-0.5L0,-3.0L2.5,-0.5"/>
                </g>
                <g id="arrowRight" xlink:href="#dirArrow" transform="rotate(90) translate(36 -43)" onmousedown="handlePan(1,0)">
                  <use xlink:href="#rim" fill="#404040">
                        <set attributeName="fill" to="#808080" begin="arrowRight.mouseover" end="arrowRight.mouseout"/>
                  </use>
                  <path fill="none" stroke="white" stroke-width="1.5" d="M0,-3.0v7 M-2.5,-0.5L0,-3.0L2.5,-0.5"/>
                </g>
                <g id="arrowDown" xlink:href="#dirArrow" transform="rotate(180) translate(-30 -48)" onmousedown="handlePan(0,1)">
                  <use xlink:href="#rim" fill="#404040">
                        <set attributeName="fill" to="#808080" begin="arrowDown.mouseover" end="arrowDown.mouseout"/>
                  </use>
                  <path fill="none" stroke="white" stroke-width="1.5" d="M0,-3.0v7 M-2.5,-0.5L0,-3.0L2.5,-0.5"/>
                </g>
                <g id="arrowLeft" xlink:href="#dirArrow" transform="rotate(270) translate(-36 17)" onmousedown="handlePan(-1,0)">
                  <use xlink:href="#rim" fill="#404040">
                        <set attributeName="fill" to="#808080" begin="arrowLeft.mouseover" end="arrowLeft.mouseout"/>
                  </use>
                  <path fill="none" stroke="white" stroke-width="1.5" d="M0,-3.0v7 M-2.5,-0.5L0,-3.0L2.5,-0.5"/>
                </g>
        </g>
        <svg viewBox="0 0 15 15" width="100%" height="30px" preserveAspectRatio="xMaxYMin meet">
         <g id="arrow_out" transform="scale(0.3 0.3)">
          <a xlink:href="MVOptions_8h__dep__incl_org.svg" target="_base">
           <rect id="button" ry="5" rx="5" y="6" x="6" height="38" width="38"
                fill="#f2f5e9" fill-opacity="0.5" stroke="#606060" stroke-width="1.0"/>
           <path id="arrow"
             d="M 11.500037,31.436501 C 11.940474,20.09759 22.043105,11.32322 32.158766,21.979434 L 37.068811,17.246167 C 37.068811,17.246167 37.088388,32 37.088388,32 L 22.160133,31.978069 C 22.160133,31.978069 26.997745,27.140456 26.997745,27.140456 C 18.528582,18.264221 13.291696,25.230495 11.500037,31.436501 z"
             style="fill:#404040;"/>
          </a>
         </g>
        </svg>
</svg>
