<?xml version="1.0" encoding="UTF-8" standalone="no"?>
<!DOCTYPE svg PUBLIC "-//W3C//DTD SVG 1.1//EN"
 "http://www.w3.org/Graphics/SVG/1.1/DTD/svg11.dtd">
<!-- Generated by graphviz version 2.43.0 (0)
 -->
<!-- Title: include/MVOptions.h Pages: 1 -->
<svg width="415pt" height="140pt"
 viewBox="0.00 0.00 415.00 140.00" xmlns="http://www.w3.org/2000/svg" xmlns:xlink="http://www.w3.org/1999/xlink">
<g id="graph0" class="graph" transform="scale(1 1) rotate(0) translate(4 136)">
<title>include/MVOptions.h</title>
<!-- Node1 -->
<g id="node1" class="node">
<title>Node1</title>
<g id="a_node1"><a xlink:title=" ">
<polygon fill="#bfbfbf" stroke="black" points="189.5,-112.5 189.5,-131.5 306.5,-131.5 306.5,-112.5 189.5,-112.5"/>
<text text-anchor="middle" x="248" y="-119.5" font-family="Helvetica,sans-Serif" font-size="10.00">include/MVOptions.h</text>
</a>
</g>
</g>
<!-- Node2 -->
<g id="node2" class="node">
<title>Node2</title>
<g id="a_node2"><a xlink:href="CPUID_8h.html" target="_top" xlink:title=" ">
<polygon fill="none" stroke="black" points="97.5,-56.5 97.5,-75.5 192.5,-75.5 192.5,-56.5 97.5,-56.5"/>
<text text-anchor="middle" x="145" y="-63.5" font-family="Helvetica,sans-Serif" font-size="10.00">include/CPUID.h</text>
</a>
</g>
</g>
<!-- Node1&#45;&gt;Node2 -->
<g id="edge1" class="edge">
<title>Node1&#45;&gt;Node2</title>
<path fill="none" stroke="midnightblue" d="M231.45,-112.32C215.01,-103.7 189.57,-90.36 170.53,-80.39"/>
<polygon fill="midnightblue" stroke="midnightblue" points="171.99,-77.2 161.51,-75.65 168.74,-83.4 171.99,-77.2"/>
</g>
<!-- Node3 -->
<g id="node3" class="node">
<title>Node3</title>
<g id="a_node3"><a xlink:title=" ">
<polygon fill="none" stroke="#bfbfbf" points="0,-0.5 0,-19.5 64,-19.5 64,-0.5 0,-0.5"/>
<text text-anchor="middle" x="32" y="-7.5" font-family="Helvetica,sans-Serif" font-size="10.00">algorithm</text>
</a>
</g>
</g>
<!-- Node1&#45;&gt;Node3 -->
<g id="edge6" class="edge">
<title>Node1&#45;&gt;Node3</title>
<path fill="none" stroke="midnightblue" d="M189.14,-112.68C157.63,-106.24 119.2,-95.07 89,-76 69.64,-63.77 53.11,-43.03 42.91,-28.27"/>
<polygon fill="midnightblue" stroke="midnightblue" points="45.6,-25.98 37.16,-19.58 39.76,-29.85 45.6,-25.98"/>
</g>
<!-- Node5 -->
<g id="node5" class="node">
<title>Node5</title>
<g id="a_node5"><a xlink:title=" ">
<polygon fill="none" stroke="#bfbfbf" points="232,-0.5 232,-19.5 276,-19.5 276,-0.5 232,-0.5"/>
<text text-anchor="middle" x="254" y="-7.5" font-family="Helvetica,sans-Serif" font-size="10.00">string</text>
</a>
</g>
</g>
<!-- Node1&#45;&gt;Node5 -->
<g id="edge10" class="edge">
<title>Node1&#45;&gt;Node5</title>
<path fill="none" stroke="midnightblue" d="M245.38,-112.15C242.01,-99.62 236.96,-76.01 240,-56 241.37,-47 244.19,-37.33 246.95,-29.26"/>
<polygon fill="midnightblue" stroke="midnightblue" points="250.27,-30.37 250.4,-19.78 243.69,-27.98 250.27,-30.37"/>
</g>
<!-- Node7 -->
<g id="node7" class="node">
<title>Node7</title>
<g id="a_node7"><a xlink:title=" ">
<polygon fill="none" stroke="#bfbfbf" points="249,-56.5 249,-75.5 301,-75.5 301,-56.5 249,-56.5"/>
<text text-anchor="middle" x="275" y="-63.5" font-family="Helvetica,sans-Serif" font-size="10.00">cassert</text>
</a>
</g>
</g>
<!-- Node1&#45;&gt;Node7 -->
<g id="edge7" class="edge">
<title>Node1&#45;&gt;Node7</title>
<path fill="none" stroke="midnightblue" d="M252.46,-112.08C256.15,-104.69 261.52,-93.95 266.09,-84.81"/>
<polygon fill="midnightblue" stroke="midnightblue" points="269.28,-86.26 270.62,-75.75 263.02,-83.13 269.28,-86.26"/>
</g>
<!-- Node8 -->
<g id="node8" class="node">
<title>Node8</title>
<g id="a_node8"><a xlink:title=" ">
<polygon fill="none" stroke="#bfbfbf" points="319,-56.5 319,-75.5 351,-75.5 351,-56.5 319,-56.5"/>
<text text-anchor="middle" x="335" y="-63.5" font-family="Helvetica,sans-Serif" font-size="10.00">list</text>
</a>
</g>
</g>
<!-- Node1&#45;&gt;Node8 -->
<g id="edge8" class="edge">
<title>Node1&#45;&gt;Node8</title>
<path fill="none" stroke="midnightblue" d="M261.98,-112.32C275.55,-103.9 296.38,-90.97 312.32,-81.07"/>
<polygon fill="midnightblue" stroke="midnightblue" points="314.41,-83.9 321.06,-75.65 310.71,-77.95 314.41,-83.9"/>
</g>
<!-- Node9 -->
<g id="node9" class="node">
<title>Node9</title>
<g id="a_node9"><a xlink:title=" ">
<polygon fill="none" stroke="#bfbfbf" points="369,-56.5 369,-75.5 407,-75.5 407,-56.5 369,-56.5"/>
<text text-anchor="middle" x="388" y="-63.5" font-family="Helvetica,sans-Serif" font-size="10.00">map</text>
</a>
</g>
</g>
<!-- Node1&#45;&gt;Node9 -->
<g id="edge9" class="edge">
<title>Node1&#45;&gt;Node9</title>
<path fill="none" stroke="midnightblue" d="M270.18,-112.44C294.25,-103.16 332.76,-88.31 359.16,-78.13"/>
<polygon fill="midnightblue" stroke="midnightblue" points="360.56,-81.34 368.63,-74.47 358.04,-74.81 360.56,-81.34"/>
</g>
<!-- Node2&#45;&gt;Node3 -->
<g id="edge2" class="edge">
<title>Node2&#45;&gt;Node3</title>
<path fill="none" stroke="midnightblue" d="M127.09,-56.44C108.75,-47.68 79.99,-33.94 58.91,-23.86"/>
<polygon fill="midnightblue" stroke="midnightblue" points="60.35,-20.67 49.82,-19.52 57.33,-26.99 60.35,-20.67"/>
</g>
<!-- Node4 -->
<g id="node4" class="node">
<title>Node4</title>
<g id="a_node4"><a xlink:title=" ">
<polygon fill="none" stroke="#bfbfbf" points="82,-0.5 82,-19.5 142,-19.5 142,-0.5 82,-0.5"/>
<text text-anchor="middle" x="112" y="-7.5" font-family="Helvetica,sans-Serif" font-size="10.00">iostream</text>
</a>
</g>
</g>
<!-- Node2&#45;&gt;Node4 -->
<g id="edge3" class="edge">
<title>Node2&#45;&gt;Node4</title>
<path fill="none" stroke="midnightblue" d="M139.55,-56.08C134.99,-48.61 128.33,-37.72 122.71,-28.52"/>
<polygon fill="midnightblue" stroke="midnightblue" points="125.55,-26.46 117.35,-19.75 119.58,-30.11 125.55,-26.46"/>
</g>
<!-- Node2&#45;&gt;Node5 -->
<g id="edge4" class="edge">
<title>Node2&#45;&gt;Node5</title>
<path fill="none" stroke="midnightblue" d="M162.51,-56.32C180.07,-47.62 207.33,-34.12 227.53,-24.11"/>
<polygon fill="midnightblue" stroke="midnightblue" points="229.12,-27.23 236.53,-19.65 226.02,-20.96 229.12,-27.23"/>
</g>
<!-- Node6 -->
<g id="node6" class="node">
<title>Node6</title>
<g id="a_node6"><a xlink:title=" ">
<polygon fill="none" stroke="#bfbfbf" points="160.5,-0.5 160.5,-19.5 213.5,-19.5 213.5,-0.5 160.5,-0.5"/>
<text text-anchor="middle" x="187" y="-7.5" font-family="Helvetica,sans-Serif" font-size="10.00">stdint.h</text>
</a>
</g>
</g>
<!-- Node2&#45;&gt;Node6 -->
<g id="edge5" class="edge">
<title>Node2&#45;&gt;Node6</title>
<path fill="none" stroke="midnightblue" d="M151.94,-56.08C157.93,-48.38 166.75,-37.03 174.05,-27.65"/>
<polygon fill="midnightblue" stroke="midnightblue" points="176.82,-29.79 180.19,-19.75 171.29,-25.5 176.82,-29.79"/>
</g>
</g>
</svg>
