<?xml version="1.0" encoding="UTF-8" standalone="no"?>
<!DOCTYPE svg PUBLIC "-//W3C//DTD SVG 1.1//EN"
 "http://www.w3.org/Graphics/SVG/1.1/DTD/svg11.dtd">
<!-- Generated by graphviz version 2.43.0 (0)
 -->
<!-- Title: include/MVOps.h Pages: 1 -->
<svg width="741pt" height="520pt"
 viewBox="0.00 0.00 740.73 520.00" xmlns="http://www.w3.org/2000/svg" xmlns:xlink="http://www.w3.org/1999/xlink">
<g id="graph0" class="graph" transform="scale(1 1) rotate(0) translate(4 516)">
<title>include/MVOps.h</title>
<!-- Node1 -->
<g id="node1" class="node">
<title>Node1</title>
<g id="a_node1"><a xlink:title=" ">
<polygon fill="#bfbfbf" stroke="black" points="572.73,-492.5 572.73,-511.5 670.73,-511.5 670.73,-492.5 572.73,-492.5"/>
<text text-anchor="middle" x="621.73" y="-499.5" font-family="Helvetica,sans-Serif" font-size="10.00">include/MVOps.h</text>
</a>
</g>
</g>
<!-- Node2 -->
<g id="node2" class="node">
<title>Node2</title>
<g id="a_node2"><a xlink:href="TAC_8h.html" target="_top" xlink:title=" ">
<polygon fill="none" stroke="black" points="580.23,-436.5 580.23,-455.5 663.23,-455.5 663.23,-436.5 580.23,-436.5"/>
<text text-anchor="middle" x="621.73" y="-443.5" font-family="Helvetica,sans-Serif" font-size="10.00">include/TAC.h</text>
</a>
</g>
</g>
<!-- Node1&#45;&gt;Node2 -->
<g id="edge1" class="edge">
<title>Node1&#45;&gt;Node2</title>
<path fill="none" stroke="midnightblue" d="M621.73,-481.8C621.73,-472.91 621.73,-462.78 621.73,-455.75"/>
<polygon fill="midnightblue" stroke="midnightblue" points="618.23,-482.08 621.73,-492.08 625.23,-482.08 618.23,-482.08"/>
</g>
<!-- Node3 -->
<g id="node3" class="node">
<title>Node3</title>
<g id="a_node3"><a xlink:href="CDAG_8h.html" target="_top" xlink:title=" ">
<polygon fill="none" stroke="black" points="640.73,-263 640.73,-282 732.73,-282 732.73,-263 640.73,-263"/>
<text text-anchor="middle" x="686.73" y="-270" font-family="Helvetica,sans-Serif" font-size="10.00">include/CDAG.h</text>
</a>
</g>
</g>
<!-- Node2&#45;&gt;Node3 -->
<g id="edge2" class="edge">
<title>Node2&#45;&gt;Node3</title>
<path fill="none" stroke="midnightblue" d="M630.17,-427.41C639.56,-407.46 654.83,-373.83 665.73,-344 673.7,-322.17 680.95,-295.75 684.48,-282.29"/>
<polygon fill="midnightblue" stroke="midnightblue" points="626.98,-425.96 625.85,-436.5 633.3,-428.97 626.98,-425.96"/>
</g>
<!-- Node13 -->
<g id="node13" class="node">
<title>Node13</title>
<g id="a_node13"><a xlink:href="Node_8h.html" target="_top" xlink:title=" ">
<polygon fill="none" stroke="black" points="568.23,-324.5 568.23,-343.5 657.23,-343.5 657.23,-324.5 568.23,-324.5"/>
<text text-anchor="middle" x="612.73" y="-331.5" font-family="Helvetica,sans-Serif" font-size="10.00">include/Node.h</text>
</a>
</g>
</g>
<!-- Node2&#45;&gt;Node13 -->
<g id="edge17" class="edge">
<title>Node2&#45;&gt;Node13</title>
<path fill="none" stroke="midnightblue" d="M620.2,-426.35C618.23,-402.25 614.88,-361.31 613.43,-343.59"/>
<polygon fill="midnightblue" stroke="midnightblue" points="616.72,-426.69 621.02,-436.37 623.69,-426.12 616.72,-426.69"/>
</g>
<!-- Node15 -->
<g id="node15" class="node">
<title>Node15</title>
<g id="a_node15"><a xlink:href="StmtWrapper_8h.html" target="_top" xlink:title=" ">
<polygon fill="none" stroke="black" points="465.73,-380.5 465.73,-399.5 593.73,-399.5 593.73,-380.5 465.73,-380.5"/>
<text text-anchor="middle" x="529.73" y="-387.5" font-family="Helvetica,sans-Serif" font-size="10.00">include/StmtWrapper.h</text>
</a>
</g>
</g>
<!-- Node2&#45;&gt;Node15 -->
<g id="edge23" class="edge">
<title>Node2&#45;&gt;Node15</title>
<path fill="none" stroke="midnightblue" d="M598.18,-431.18C581.25,-421.24 558.94,-408.15 544.47,-399.65"/>
<polygon fill="midnightblue" stroke="midnightblue" points="596.55,-434.28 606.95,-436.32 600.09,-428.24 596.55,-434.28"/>
</g>
<!-- Node4 -->
<g id="node4" class="node">
<title>Node4</title>
<g id="a_node4"><a xlink:href="MVFrontend_8h.html" target="_top" xlink:title=" ">
<polygon fill="none" stroke="black" points="514.73,-62 514.73,-81 636.73,-81 636.73,-62 514.73,-62"/>
<text text-anchor="middle" x="575.73" y="-69" font-family="Helvetica,sans-Serif" font-size="10.00">include/MVFrontend.h</text>
</a>
</g>
</g>
<!-- Node3&#45;&gt;Node4 -->
<g id="edge3" class="edge">
<title>Node3&#45;&gt;Node4</title>
<path fill="none" stroke="midnightblue" d="M699.22,-254.3C709.65,-237.75 721.62,-212.06 713.73,-190 693.74,-134.15 628.37,-96.84 595.28,-81.05"/>
<polygon fill="midnightblue" stroke="midnightblue" points="696.12,-252.64 693.43,-262.89 701.92,-256.56 696.12,-252.64"/>
</g>
<!-- Node6 -->
<g id="node6" class="node">
<title>Node6</title>
<g id="a_node6"><a xlink:href="MVRewriter_8h.html" target="_top" xlink:title=" ">
<polygon fill="none" stroke="black" points="529.73,-129 529.73,-148 649.73,-148 649.73,-129 529.73,-129"/>
<text text-anchor="middle" x="589.73" y="-136" font-family="Helvetica,sans-Serif" font-size="10.00">include/MVRewriter.h</text>
</a>
</g>
</g>
<!-- Node3&#45;&gt;Node6 -->
<g id="edge5" class="edge">
<title>Node3&#45;&gt;Node6</title>
<path fill="none" stroke="midnightblue" d="M695.28,-253.23C702.14,-235.67 708.8,-209.04 696.73,-190 682.6,-167.71 655.69,-155.07 632.4,-148.01"/>
<polygon fill="midnightblue" stroke="midnightblue" points="691.88,-252.28 691.15,-262.85 698.31,-255.04 691.88,-252.28"/>
</g>
<!-- Node7 -->
<g id="node7" class="node">
<title>Node7</title>
<g id="a_node7"><a xlink:href="PlcmntAlgo_8h.html" target="_top" xlink:title=" ">
<polygon fill="none" stroke="black" points="568.23,-196 568.23,-215 687.23,-215 687.23,-196 568.23,-196"/>
<text text-anchor="middle" x="627.73" y="-203" font-family="Helvetica,sans-Serif" font-size="10.00">include/PlcmntAlgo.h</text>
</a>
</g>
</g>
<!-- Node3&#45;&gt;Node7 -->
<g id="edge7" class="edge">
<title>Node3&#45;&gt;Node7</title>
<path fill="none" stroke="midnightblue" d="M671.87,-255.13C660.33,-242.42 644.79,-225.3 635.56,-215.13"/>
<polygon fill="midnightblue" stroke="midnightblue" points="669.46,-257.68 678.77,-262.73 674.64,-252.98 669.46,-257.68"/>
</g>
<!-- Node8 -->
<g id="node8" class="node">
<title>Node8</title>
<g id="a_node8"><a xlink:href="SIMDBackEnd_8h.html" target="_top" xlink:title=" ">
<polygon fill="none" stroke="black" points="348.23,-190.5 348.23,-220.5 473.23,-220.5 473.23,-190.5 348.23,-190.5"/>
<text text-anchor="start" x="356.23" y="-208.5" font-family="Helvetica,sans-Serif" font-size="10.00">include/Vectorization</text>
<text text-anchor="middle" x="410.73" y="-197.5" font-family="Helvetica,sans-Serif" font-size="10.00">/SIMD/SIMDBackEnd.h</text>
</a>
</g>
</g>
<!-- Node3&#45;&gt;Node8 -->
<g id="edge8" class="edge">
<title>Node3&#45;&gt;Node8</title>
<path fill="none" stroke="midnightblue" d="M640.51,-260.62C593.81,-249.62 521.45,-232.58 470.42,-220.56"/>
<polygon fill="midnightblue" stroke="midnightblue" points="639.83,-264.05 650.36,-262.94 641.43,-257.24 639.83,-264.05"/>
</g>
<!-- Node5 -->
<g id="node5" class="node">
<title>Node5</title>
<g id="a_node5"><a xlink:href="macveth_8cpp.html" target="_top" xlink:title=" ">
<polygon fill="none" stroke="black" points="528.23,-0.5 528.23,-19.5 623.23,-19.5 623.23,-0.5 528.23,-0.5"/>
<text text-anchor="middle" x="575.73" y="-7.5" font-family="Helvetica,sans-Serif" font-size="10.00">lib/macveth.cpp</text>
</a>
</g>
</g>
<!-- Node4&#45;&gt;Node5 -->
<g id="edge4" class="edge">
<title>Node4&#45;&gt;Node5</title>
<path fill="none" stroke="midnightblue" d="M575.73,-51.82C575.73,-41 575.73,-27.9 575.73,-19.51"/>
<polygon fill="midnightblue" stroke="midnightblue" points="572.23,-51.98 575.73,-61.98 579.23,-51.98 572.23,-51.98"/>
</g>
<!-- Node6&#45;&gt;Node4 -->
<g id="edge6" class="edge">
<title>Node6&#45;&gt;Node4</title>
<path fill="none" stroke="midnightblue" d="M585.72,-118.91C583.05,-106.49 579.65,-90.72 577.59,-81.13"/>
<polygon fill="midnightblue" stroke="midnightblue" points="582.31,-119.69 587.84,-128.73 589.16,-118.22 582.31,-119.69"/>
</g>
<!-- Node8&#45;&gt;Node4 -->
<g id="edge12" class="edge">
<title>Node8&#45;&gt;Node4</title>
<path fill="none" stroke="midnightblue" d="M428.51,-182.37C443.21,-164.94 465.26,-140.7 487.73,-123 509.86,-105.56 538.7,-90.19 557.22,-81.12"/>
<polygon fill="midnightblue" stroke="midnightblue" points="425.6,-180.39 421.91,-190.33 430.99,-184.86 425.6,-180.39"/>
</g>
<!-- Node8&#45;&gt;Node6 -->
<g id="edge13" class="edge">
<title>Node8&#45;&gt;Node6</title>
<path fill="none" stroke="midnightblue" d="M459.07,-186.95C493.83,-174.32 539.19,-157.85 566.3,-148.01"/>
<polygon fill="midnightblue" stroke="midnightblue" points="457.77,-183.69 449.57,-190.4 460.16,-190.27 457.77,-183.69"/>
</g>
<!-- Node9 -->
<g id="node9" class="node">
<title>Node9</title>
<g id="a_node9"><a xlink:href="MVCostModel_8h.html" target="_top" xlink:title=" ">
<polygon fill="none" stroke="black" points="138.23,-56.5 138.23,-86.5 285.23,-86.5 285.23,-56.5 138.23,-56.5"/>
<text text-anchor="start" x="146.23" y="-74.5" font-family="Helvetica,sans-Serif" font-size="10.00">include/CostModel/MVCost</text>
<text text-anchor="middle" x="211.73" y="-63.5" font-family="Helvetica,sans-Serif" font-size="10.00">Model.h</text>
</a>
</g>
</g>
<!-- Node8&#45;&gt;Node9 -->
<g id="edge9" class="edge">
<title>Node8&#45;&gt;Node9</title>
<path fill="none" stroke="midnightblue" d="M337.75,-201.12C300.91,-195.62 258.31,-182.84 230.73,-154 213.25,-135.73 210.76,-104.65 210.95,-86.61"/>
<polygon fill="midnightblue" stroke="midnightblue" points="337.59,-204.63 347.97,-202.49 338.52,-197.7 337.59,-204.63"/>
</g>
<!-- Node10 -->
<g id="node10" class="node">
<title>Node10</title>
<g id="a_node10"><a xlink:href="SIMDCostInfo_8h.html" target="_top" xlink:title=" ">
<polygon fill="none" stroke="black" points="240.23,-123.5 240.23,-153.5 397.23,-153.5 397.23,-123.5 240.23,-123.5"/>
<text text-anchor="start" x="248.23" y="-141.5" font-family="Helvetica,sans-Serif" font-size="10.00">include/CostModel/SIMDCost</text>
<text text-anchor="middle" x="318.73" y="-130.5" font-family="Helvetica,sans-Serif" font-size="10.00">Info.h</text>
</a>
</g>
</g>
<!-- Node8&#45;&gt;Node10 -->
<g id="edge10" class="edge">
<title>Node8&#45;&gt;Node10</title>
<path fill="none" stroke="midnightblue" d="M382.35,-184.45C368.2,-174.45 351.42,-162.6 338.65,-153.58"/>
<polygon fill="midnightblue" stroke="midnightblue" points="380.58,-187.48 390.76,-190.4 384.62,-181.77 380.58,-187.48"/>
</g>
<!-- Node11 -->
<g id="node11" class="node">
<title>Node11</title>
<g id="a_node11"><a xlink:href="AVX2BackEnd_8h.html" target="_top" xlink:title=" ">
<polygon fill="none" stroke="black" points="30.23,-123.5 30.23,-153.5 183.23,-153.5 183.23,-123.5 30.23,-123.5"/>
<text text-anchor="start" x="38.23" y="-141.5" font-family="Helvetica,sans-Serif" font-size="10.00">include/Vectorization</text>
<text text-anchor="middle" x="106.73" y="-130.5" font-family="Helvetica,sans-Serif" font-size="10.00">/SIMD/AVX2/AVX2BackEnd.h</text>
</a>
</g>
</g>
<!-- Node8&#45;&gt;Node11 -->
<g id="edge14" class="edge">
<title>Node8&#45;&gt;Node11</title>
<path fill="none" stroke="midnightblue" d="M338.26,-189C287.87,-178.23 221.26,-163.99 172.42,-153.55"/>
<polygon fill="midnightblue" stroke="midnightblue" points="337.6,-192.44 348.11,-191.11 339.06,-185.6 337.6,-192.44"/>
</g>
<!-- Node12 -->
<g id="node12" class="node">
<title>Node12</title>
<g id="a_node12"><a xlink:href="SIMDBackEndFactory_8h.html" target="_top" xlink:title=" ">
<polygon fill="none" stroke="black" points="324.73,-56.5 324.73,-86.5 482.73,-86.5 482.73,-56.5 324.73,-56.5"/>
<text text-anchor="start" x="332.73" y="-74.5" font-family="Helvetica,sans-Serif" font-size="10.00">include/Vectorization</text>
<text text-anchor="middle" x="403.73" y="-63.5" font-family="Helvetica,sans-Serif" font-size="10.00">/SIMD/SIMDBackEndFactory.h</text>
</a>
</g>
</g>
<!-- Node8&#45;&gt;Node12 -->
<g id="edge16" class="edge">
<title>Node8&#45;&gt;Node12</title>
<path fill="none" stroke="midnightblue" d="M409.43,-180.02C407.97,-152.51 405.65,-108.79 404.47,-86.52"/>
<polygon fill="midnightblue" stroke="midnightblue" points="405.95,-180.57 409.98,-190.37 412.94,-180.2 405.95,-180.57"/>
</g>
<!-- Node10&#45;&gt;Node9 -->
<g id="edge11" class="edge">
<title>Node10&#45;&gt;Node9</title>
<path fill="none" stroke="midnightblue" d="M286.65,-118.02C270,-107.9 250.03,-95.77 234.9,-86.58"/>
<polygon fill="midnightblue" stroke="midnightblue" points="285.15,-121.2 295.51,-123.4 288.78,-115.21 285.15,-121.2"/>
</g>
<!-- Node11&#45;&gt;Node12 -->
<g id="edge15" class="edge">
<title>Node11&#45;&gt;Node12</title>
<path fill="none" stroke="midnightblue" d="M180.68,-121.32C229.49,-110.63 292.81,-96.77 339.51,-86.55"/>
<polygon fill="midnightblue" stroke="midnightblue" points="179.83,-117.92 170.81,-123.48 181.32,-124.76 179.83,-117.92"/>
</g>
<!-- Node13&#45;&gt;Node3 -->
<g id="edge18" class="edge">
<title>Node13&#45;&gt;Node3</title>
<path fill="none" stroke="midnightblue" d="M631.42,-317.97C645.57,-306.59 664.5,-291.37 676.14,-282.01"/>
<polygon fill="midnightblue" stroke="midnightblue" points="628.93,-315.48 623.33,-324.48 633.32,-320.94 628.93,-315.48"/>
</g>
<!-- Node13&#45;&gt;Node7 -->
<g id="edge19" class="edge">
<title>Node13&#45;&gt;Node7</title>
<path fill="none" stroke="midnightblue" d="M614.94,-314.31C618.23,-286.58 624.27,-235.63 626.69,-215.26"/>
<polygon fill="midnightblue" stroke="midnightblue" points="611.46,-313.96 613.76,-324.31 618.41,-314.79 611.46,-313.96"/>
</g>
<!-- Node14 -->
<g id="node14" class="node">
<title>Node14</title>
<g id="a_node14"><a xlink:href="VectorIR_8h.html" target="_top" xlink:title=" ">
<polygon fill="none" stroke="black" points="351.23,-257.5 351.23,-287.5 470.23,-287.5 470.23,-257.5 351.23,-257.5"/>
<text text-anchor="start" x="359.23" y="-275.5" font-family="Helvetica,sans-Serif" font-size="10.00">include/Vectorization</text>
<text text-anchor="middle" x="410.73" y="-264.5" font-family="Helvetica,sans-Serif" font-size="10.00">/VectorIR.h</text>
</a>
</g>
</g>
<!-- Node13&#45;&gt;Node14 -->
<g id="edge20" class="edge">
<title>Node13&#45;&gt;Node14</title>
<path fill="none" stroke="midnightblue" d="M574.06,-321.61C541.1,-311.9 493.62,-297.92 458.33,-287.52"/>
<polygon fill="midnightblue" stroke="midnightblue" points="573.2,-325.01 583.79,-324.48 575.18,-318.29 573.2,-325.01"/>
</g>
<!-- Node14&#45;&gt;Node8 -->
<g id="edge22" class="edge">
<title>Node14&#45;&gt;Node8</title>
<path fill="none" stroke="midnightblue" d="M410.73,-247.11C410.73,-238.15 410.73,-228.32 410.73,-220.58"/>
<polygon fill="midnightblue" stroke="midnightblue" points="407.23,-247.4 410.73,-257.4 414.23,-247.4 407.23,-247.4"/>
</g>
<!-- Node14&#45;&gt;Node11 -->
<g id="edge21" class="edge">
<title>Node14&#45;&gt;Node11</title>
<path fill="none" stroke="midnightblue" d="M369.11,-253.43C307.83,-226.82 194.6,-177.65 139.1,-153.56"/>
<polygon fill="midnightblue" stroke="midnightblue" points="367.92,-256.73 378.48,-257.5 370.7,-250.31 367.92,-256.73"/>
</g>
<!-- Node15&#45;&gt;Node4 -->
<g id="edge25" class="edge">
<title>Node15&#45;&gt;Node4</title>
<path fill="none" stroke="midnightblue" d="M522.52,-370.93C514.22,-348.47 501.73,-308.79 501.73,-273.5 501.73,-273.5 501.73,-273.5 501.73,-204.5 501.73,-167.31 501.97,-155.12 520.73,-123 531.06,-105.31 549.59,-90.22 562.26,-81.26"/>
<polygon fill="midnightblue" stroke="midnightblue" points="519.33,-372.4 526.18,-380.48 525.87,-369.89 519.33,-372.4"/>
</g>
<!-- Node15&#45;&gt;Node6 -->
<g id="edge26" class="edge">
<title>Node15&#45;&gt;Node6</title>
<path fill="none" stroke="midnightblue" d="M529.96,-370.34C530.94,-334.37 535.76,-253.39 558.73,-190 564.48,-174.14 575.58,-157.87 582.82,-148.23"/>
<polygon fill="midnightblue" stroke="midnightblue" points="526.46,-370.29 529.76,-380.36 533.46,-370.43 526.46,-370.29"/>
</g>
<!-- Node15&#45;&gt;Node9 -->
<g id="edge24" class="edge">
<title>Node15&#45;&gt;Node9</title>
<path fill="none" stroke="midnightblue" d="M455.32,-388.07C309.83,-384.22 1.73,-365.25 1.73,-273.5 1.73,-273.5 1.73,-273.5 1.73,-204.5 1.73,-167.31 -5.18,-149.68 20.73,-123 37.24,-105.99 91.62,-92.62 138.16,-83.93"/>
<polygon fill="midnightblue" stroke="midnightblue" points="455.43,-391.57 465.51,-388.32 455.6,-384.57 455.43,-391.57"/>
</g>
<!-- Node15&#45;&gt;Node13 -->
<g id="edge27" class="edge">
<title>Node15&#45;&gt;Node13</title>
<path fill="none" stroke="midnightblue" d="M551.83,-374.62C566.99,-364.76 586.61,-351.99 599.43,-343.65"/>
<polygon fill="midnightblue" stroke="midnightblue" points="549.54,-371.94 543.06,-380.32 553.35,-377.8 549.54,-371.94"/>
</g>
</g>
</svg>
