<?xml version="1.0" encoding="UTF-8" standalone="no"?>
<!DOCTYPE svg PUBLIC "-//W3C//DTD SVG 1.1//EN"
 "http://www.w3.org/Graphics/SVG/1.1/DTD/svg11.dtd">
<!-- Generated by graphviz version 2.43.0 (0)
 -->
<!-- Title: include/MVPragmaHandler.h Pages: 1 -->
<!--zoomable 464 -->
<svg id="main" version="1.1" xmlns="http://www.w3.org/2000/svg" xmlns:xlink="http://www.w3.org/1999/xlink" xml:space="preserve" onload="init(evt)">
<style type="text/css"><![CDATA[
.edge:hover path { stroke: red; }
.edge:hover polygon { stroke: red; fill: red; }
]]></style>
<script type="text/javascript"><![CDATA[
var edges = document.getElementsByTagName('g');
if (edges && edges.length) {
  for (var i=0;i<edges.length;i++) {
    if (edges[i].id.substr(0,4)=='edge') {
      edges[i].setAttribute('class','edge');
    }
  }
}
]]></script>
        <defs>
                <circle id="rim" cx="0" cy="0" r="7"/>
                <circle id="rim2" cx="0" cy="0" r="3.5"/>
                <g id="zoomPlus">
                        <use xlink:href="#rim" fill="#404040">
                                <set attributeName="fill" to="#808080" begin="zoomplus.mouseover" end="zoomplus.mouseout"/>
                        </use>
                        <path d="M-4,0h8M0,-4v8" fill="none" stroke="white" stroke-width="1.5" pointer-events="none"/>
                </g>
                <g id="zoomMin">
                        <use xlink:href="#rim" fill="#404040">
                                <set attributeName="fill" to="#808080" begin="zoomminus.mouseover" end="zoomminus.mouseout"/>
                        </use>
                        <path d="M-4,0h8" fill="none" stroke="white" stroke-width="1.5" pointer-events="none"/>
                </g>
                <g id="dirArrow">
                        <path fill="none" stroke="white" stroke-width="1.5" d="M0,-3.0v7 M-2.5,-0.5L0,-3.0L2.5,-0.5"/>
                </g>
               <g id="resetDef">
                       <use xlink:href="#rim2" fill="#404040">
                               <set attributeName="fill" to="#808080" begin="reset.mouseover" end="reset.mouseout"/>
                       </use>
               </g>
        </defs>

<script type="text/javascript">
var viewWidth = 869;
var viewHeight = 464;
var sectionId = 'dynsection-1';
</script>
<script xlink:href="svgpan.js"/>
<svg id="graph" class="graph">
<g id="viewport">
<title>include/MVPragmaHandler.h</title>
<!-- Node1 -->
<g id="node1" class="node">
<title>Node1</title>
<g id="a_node1"><a xlink:title=" ">
<polygon fill="#bfbfbf" stroke="black" points="67.5,-436.5 67.5,-455.5 222.5,-455.5 222.5,-436.5 67.5,-436.5"/>
<text text-anchor="middle" x="145" y="-443.5" font-family="Helvetica,sans-Serif" font-size="10.00">include/MVPragmaHandler.h</text>
</a>
</g>
</g>
<!-- Node2 -->
<g id="node2" class="node">
<title>Node2</title>
<g id="a_node2"><a xlink:href="MVFrontend_8h.html" target="_top" xlink:title=" ">
<polygon fill="none" stroke="black" points="110,-62 110,-81 232,-81 232,-62 110,-62"/>
<text text-anchor="middle" x="171" y="-69" font-family="Helvetica,sans-Serif" font-size="10.00">include/MVFrontend.h</text>
</a>
</g>
</g>
<!-- Node1&#45;&gt;Node2 -->
<g id="edge1" class="edge">
<title>Node1&#45;&gt;Node2</title>
<path fill="none" stroke="midnightblue" d="M117.51,-431.77C85.8,-414.38 38,-380.59 38,-335 38,-335 38,-335 38,-204.5 38,-141.55 113.99,-98.35 151.09,-81.01"/>
<polygon fill="midnightblue" stroke="midnightblue" points="115.88,-434.87 126.36,-436.44 119.15,-428.68 115.88,-434.87"/>
</g>
<!-- Node3 -->
<g id="node3" class="node">
<title>Node3</title>
<g id="a_node3"><a xlink:href="macveth_8cpp.html" target="_top" xlink:title=" ">
<polygon fill="none" stroke="black" points="53.5,-0.5 53.5,-19.5 148.5,-19.5 148.5,-0.5 53.5,-0.5"/>
<text text-anchor="middle" x="101" y="-7.5" font-family="Helvetica,sans-Serif" font-size="10.00">lib/macveth.cpp</text>
</a>
</g>
</g>
<!-- Node1&#45;&gt;Node3 -->
<g id="edge27" class="edge">
<title>Node1&#45;&gt;Node3</title>
<path fill="none" stroke="midnightblue" d="M103.89,-433.24C61.02,-418.16 0,-387.47 0,-335 0,-335 0,-335 0,-137.5 0,-82.42 59.2,-37.53 86.96,-19.51"/>
<polygon fill="midnightblue" stroke="midnightblue" points="102.94,-436.61 113.54,-436.48 105.17,-429.98 102.94,-436.61"/>
</g>
<!-- Node4 -->
<g id="node4" class="node">
<title>Node4</title>
<g id="a_node4"><a xlink:href="MVRewriter_8h.html" target="_top" xlink:title=" ">
<polygon fill="none" stroke="black" points="249,-129 249,-148 369,-148 369,-129 249,-129"/>
<text text-anchor="middle" x="309" y="-136" font-family="Helvetica,sans-Serif" font-size="10.00">include/MVRewriter.h</text>
</a>
</g>
</g>
<!-- Node1&#45;&gt;Node4 -->
<g id="edge3" class="edge">
<title>Node1&#45;&gt;Node4</title>
<path fill="none" stroke="midnightblue" d="M232.8,-436.1C294.47,-424.42 366,-397.42 366,-335 366,-335 366,-335 366,-271.5 366,-221.33 330.86,-168.57 315.76,-148.21"/>
<polygon fill="midnightblue" stroke="midnightblue" points="231.84,-432.71 222.61,-437.91 233.06,-439.61 231.84,-432.71"/>
</g>
<!-- Node5 -->
<g id="node5" class="node">
<title>Node5</title>
<g id="a_node5"><a xlink:href="StmtWrapper_8h.html" target="_top" xlink:title=" ">
<polygon fill="none" stroke="black" points="189,-380.5 189,-399.5 317,-399.5 317,-380.5 189,-380.5"/>
<text text-anchor="middle" x="253" y="-387.5" font-family="Helvetica,sans-Serif" font-size="10.00">include/StmtWrapper.h</text>
</a>
</g>
</g>
<!-- Node1&#45;&gt;Node5 -->
<g id="edge5" class="edge">
<title>Node1&#45;&gt;Node5</title>
<path fill="none" stroke="midnightblue" d="M171.55,-431.73C191.55,-421.73 218.39,-408.31 235.69,-399.65"/>
<polygon fill="midnightblue" stroke="midnightblue" points="169.73,-428.72 162.35,-436.32 172.86,-434.98 169.73,-428.72"/>
</g>
<!-- Node2&#45;&gt;Node3 -->
<g id="edge2" class="edge">
<title>Node2&#45;&gt;Node3</title>
<path fill="none" stroke="midnightblue" d="M153.32,-55.47C139.93,-44.09 122.02,-28.87 111.01,-19.51"/>
<polygon fill="midnightblue" stroke="midnightblue" points="151.08,-58.17 160.97,-61.98 155.62,-52.83 151.08,-58.17"/>
</g>
<!-- Node4&#45;&gt;Node2 -->
<g id="edge4" class="edge">
<title>Node4&#45;&gt;Node2</title>
<path fill="none" stroke="midnightblue" d="M281.28,-124.44C253.95,-111.57 212.95,-92.26 189.4,-81.17"/>
<polygon fill="midnightblue" stroke="midnightblue" points="280.14,-127.77 290.67,-128.87 283.12,-121.44 280.14,-127.77"/>
</g>
<!-- Node5&#45;&gt;Node2 -->
<g id="edge7" class="edge">
<title>Node5&#45;&gt;Node2</title>
<path fill="none" stroke="midnightblue" d="M199.44,-377.9C147.34,-363.6 76,-333.14 76,-273.5 76,-273.5 76,-273.5 76,-204.5 76,-148.6 132.83,-100.21 158.58,-81.15"/>
<polygon fill="midnightblue" stroke="midnightblue" points="198.69,-381.32 209.25,-380.47 200.46,-374.55 198.69,-381.32"/>
</g>
<!-- Node5&#45;&gt;Node4 -->
<g id="edge8" class="edge">
<title>Node5&#45;&gt;Node4</title>
<path fill="none" stroke="midnightblue" d="M277.3,-374.96C288.13,-367.3 299.81,-356.77 306,-344 339.29,-275.3 318.78,-177.75 311.36,-148.27"/>
<polygon fill="midnightblue" stroke="midnightblue" points="275.36,-372.05 268.93,-380.47 279.2,-377.9 275.36,-372.05"/>
</g>
<!-- Node6 -->
<g id="node6" class="node">
<title>Node6</title>
<g id="a_node6"><a xlink:href="MVCostModel_8h.html" target="_top" xlink:title=" ">
<polygon fill="none" stroke="black" points="468.5,-56.5 468.5,-86.5 615.5,-86.5 615.5,-56.5 468.5,-56.5"/>
<text text-anchor="start" x="476.5" y="-74.5" font-family="Helvetica,sans-Serif" font-size="10.00">include/CostModel/MVCost</text>
<text text-anchor="middle" x="542" y="-63.5" font-family="Helvetica,sans-Serif" font-size="10.00">Model.h</text>
</a>
</g>
</g>
<!-- Node5&#45;&gt;Node6 -->
<g id="edge6" class="edge">
<title>Node5&#45;&gt;Node6</title>
<path fill="none" stroke="midnightblue" d="M327.64,-382.49C489.64,-367.37 859,-327.01 859,-273.5 859,-273.5 859,-273.5 859,-204.5 859,-167.31 867.09,-148.48 840,-123 831.82,-115.3 701.23,-95.31 615.67,-82.91"/>
<polygon fill="midnightblue" stroke="midnightblue" points="326.91,-379.05 317.28,-383.45 327.56,-386.02 326.91,-379.05"/>
</g>
<!-- Node7 -->
<g id="node7" class="node">
<title>Node7</title>
<g id="a_node7"><a xlink:href="Node_8h.html" target="_top" xlink:title=" ">
<polygon fill="none" stroke="black" points="208.5,-324.5 208.5,-343.5 297.5,-343.5 297.5,-324.5 208.5,-324.5"/>
<text text-anchor="middle" x="253" y="-331.5" font-family="Helvetica,sans-Serif" font-size="10.00">include/Node.h</text>
</a>
</g>
</g>
<!-- Node5&#45;&gt;Node7 -->
<g id="edge9" class="edge">
<title>Node5&#45;&gt;Node7</title>
<path fill="none" stroke="midnightblue" d="M253,-369.8C253,-360.91 253,-350.78 253,-343.75"/>
<polygon fill="midnightblue" stroke="midnightblue" points="249.5,-370.08 253,-380.08 256.5,-370.08 249.5,-370.08"/>
</g>
<!-- Node8 -->
<g id="node8" class="node">
<title>Node8</title>
<g id="a_node8"><a xlink:href="CDAG_8h.html" target="_top" xlink:title=" ">
<polygon fill="none" stroke="black" points="207,-263 207,-282 299,-282 299,-263 207,-263"/>
<text text-anchor="middle" x="253" y="-270" font-family="Helvetica,sans-Serif" font-size="10.00">include/CDAG.h</text>
</a>
</g>
</g>
<!-- Node7&#45;&gt;Node8 -->
<g id="edge10" class="edge">
<title>Node7&#45;&gt;Node8</title>
<path fill="none" stroke="midnightblue" d="M253,-314.32C253,-303.5 253,-290.4 253,-282.01"/>
<polygon fill="midnightblue" stroke="midnightblue" points="249.5,-314.48 253,-324.48 256.5,-314.48 249.5,-314.48"/>
</g>
<!-- Node9 -->
<g id="node9" class="node">
<title>Node9</title>
<g id="a_node9"><a xlink:href="PlcmntAlgo_8h.html" target="_top" xlink:title=" ">
<polygon fill="none" stroke="black" points="104.5,-196 104.5,-215 223.5,-215 223.5,-196 104.5,-196"/>
<text text-anchor="middle" x="164" y="-203" font-family="Helvetica,sans-Serif" font-size="10.00">include/PlcmntAlgo.h</text>
</a>
</g>
</g>
<!-- Node7&#45;&gt;Node9 -->
<g id="edge23" class="edge">
<title>Node7&#45;&gt;Node9</title>
<path fill="none" stroke="midnightblue" d="M230.4,-318.43C219.47,-310.49 206.84,-299.87 198,-288 180.51,-264.52 170.19,-230.71 166.08,-215.05"/>
<polygon fill="midnightblue" stroke="midnightblue" points="228.48,-321.37 238.69,-324.2 232.48,-315.62 228.48,-321.37"/>
</g>
<!-- Node14 -->
<g id="node14" class="node">
<title>Node14</title>
<g id="a_node14"><a xlink:href="VectorIR_8h.html" target="_top" xlink:title=" ">
<polygon fill="none" stroke="black" points="397.5,-257.5 397.5,-287.5 516.5,-287.5 516.5,-257.5 397.5,-257.5"/>
<text text-anchor="start" x="405.5" y="-275.5" font-family="Helvetica,sans-Serif" font-size="10.00">include/Vectorization</text>
<text text-anchor="middle" x="457" y="-264.5" font-family="Helvetica,sans-Serif" font-size="10.00">/VectorIR.h</text>
</a>
</g>
</g>
<!-- Node7&#45;&gt;Node14 -->
<g id="edge24" class="edge">
<title>Node7&#45;&gt;Node14</title>
<path fill="none" stroke="midnightblue" d="M292.05,-321.61C325.33,-311.9 373.29,-297.92 408.92,-287.52"/>
<polygon fill="midnightblue" stroke="midnightblue" points="290.85,-318.32 282.23,-324.48 292.81,-325.04 290.85,-318.32"/>
</g>
<!-- Node8&#45;&gt;Node2 -->
<g id="edge11" class="edge">
<title>Node8&#45;&gt;Node2</title>
<path fill="none" stroke="midnightblue" d="M249.4,-252.59C245.91,-235.83 239.98,-210.84 232,-190 215.65,-147.28 187.86,-99.98 176.29,-81.03"/>
<polygon fill="midnightblue" stroke="midnightblue" points="246.03,-253.61 251.42,-262.73 252.9,-252.24 246.03,-253.61"/>
</g>
<!-- Node8&#45;&gt;Node4 -->
<g id="edge12" class="edge">
<title>Node8&#45;&gt;Node4</title>
<path fill="none" stroke="midnightblue" d="M260.62,-253.54C272.85,-224.72 296.39,-169.22 305.38,-148.02"/>
<polygon fill="midnightblue" stroke="midnightblue" points="257.36,-252.27 256.67,-262.84 263.8,-255 257.36,-252.27"/>
</g>
<!-- Node8&#45;&gt;Node9 -->
<g id="edge13" class="edge">
<title>Node8&#45;&gt;Node9</title>
<path fill="none" stroke="midnightblue" d="M232.55,-256.57C214.99,-243.74 190.27,-225.69 175.81,-215.13"/>
<polygon fill="midnightblue" stroke="midnightblue" points="230.86,-259.66 241,-262.73 234.99,-254.01 230.86,-259.66"/>
</g>
<!-- Node10 -->
<g id="node10" class="node">
<title>Node10</title>
<g id="a_node10"><a xlink:href="SIMDBackEnd_8h.html" target="_top" xlink:title=" ">
<polygon fill="none" stroke="black" points="394.5,-190.5 394.5,-220.5 519.5,-220.5 519.5,-190.5 394.5,-190.5"/>
<text text-anchor="start" x="402.5" y="-208.5" font-family="Helvetica,sans-Serif" font-size="10.00">include/Vectorization</text>
<text text-anchor="middle" x="457" y="-197.5" font-family="Helvetica,sans-Serif" font-size="10.00">/SIMD/SIMDBackEnd.h</text>
</a>
</g>
</g>
<!-- Node8&#45;&gt;Node10 -->
<g id="edge14" class="edge">
<title>Node8&#45;&gt;Node10</title>
<path fill="none" stroke="midnightblue" d="M289.8,-259.77C324.39,-248.75 376.2,-232.24 412.97,-220.53"/>
<polygon fill="midnightblue" stroke="midnightblue" points="288.56,-256.5 280.09,-262.87 290.68,-263.17 288.56,-256.5"/>
</g>
<!-- Node10&#45;&gt;Node2 -->
<g id="edge18" class="edge">
<title>Node10&#45;&gt;Node2</title>
<path fill="none" stroke="midnightblue" d="M441.08,-182.11C426.69,-163.51 403.83,-137.8 378,-123 333.06,-97.26 275.37,-84.57 232.31,-78.36"/>
<polygon fill="midnightblue" stroke="midnightblue" points="438.46,-184.44 447.27,-190.33 444.06,-180.24 438.46,-184.44"/>
</g>
<!-- Node10&#45;&gt;Node4 -->
<g id="edge19" class="edge">
<title>Node10&#45;&gt;Node4</title>
<path fill="none" stroke="midnightblue" d="M415.55,-186.3C387.01,-173.76 350.4,-157.68 328.37,-148.01"/>
<polygon fill="midnightblue" stroke="midnightblue" points="414.32,-189.58 424.89,-190.4 417.14,-183.17 414.32,-189.58"/>
</g>
<!-- Node10&#45;&gt;Node6 -->
<g id="edge15" class="edge">
<title>Node10&#45;&gt;Node6</title>
<path fill="none" stroke="midnightblue" d="M450.17,-180.63C446.67,-163.46 445,-140.37 455,-123 464.67,-106.2 482.31,-94.48 499.19,-86.58"/>
<polygon fill="midnightblue" stroke="midnightblue" points="446.78,-181.52 452.49,-190.45 453.6,-179.91 446.78,-181.52"/>
</g>
<!-- Node11 -->
<g id="node11" class="node">
<title>Node11</title>
<g id="a_node11"><a xlink:href="SIMDCostInfo_8h.html" target="_top" xlink:title=" ">
<polygon fill="none" stroke="black" points="463.5,-123.5 463.5,-153.5 620.5,-153.5 620.5,-123.5 463.5,-123.5"/>
<text text-anchor="start" x="471.5" y="-141.5" font-family="Helvetica,sans-Serif" font-size="10.00">include/CostModel/SIMDCost</text>
<text text-anchor="middle" x="542" y="-130.5" font-family="Helvetica,sans-Serif" font-size="10.00">Info.h</text>
</a>
</g>
</g>
<!-- Node10&#45;&gt;Node11 -->
<g id="edge16" class="edge">
<title>Node10&#45;&gt;Node11</title>
<path fill="none" stroke="midnightblue" d="M483.59,-184.17C496.59,-174.23 511.9,-162.51 523.59,-153.58"/>
<polygon fill="midnightblue" stroke="midnightblue" points="481.26,-181.54 475.44,-190.4 485.51,-187.1 481.26,-181.54"/>
</g>
<!-- Node12 -->
<g id="node12" class="node">
<title>Node12</title>
<g id="a_node12"><a xlink:href="AVX2BackEnd_8h.html" target="_top" xlink:title=" ">
<polygon fill="none" stroke="black" points="677.5,-123.5 677.5,-153.5 830.5,-153.5 830.5,-123.5 677.5,-123.5"/>
<text text-anchor="start" x="685.5" y="-141.5" font-family="Helvetica,sans-Serif" font-size="10.00">include/Vectorization</text>
<text text-anchor="middle" x="754" y="-130.5" font-family="Helvetica,sans-Serif" font-size="10.00">/SIMD/AVX2/AVX2BackEnd.h</text>
</a>
</g>
</g>
<!-- Node10&#45;&gt;Node12 -->
<g id="edge20" class="edge">
<title>Node10&#45;&gt;Node12</title>
<path fill="none" stroke="midnightblue" d="M529.53,-188.63C578.58,-177.89 642.76,-163.85 689.93,-153.52"/>
<polygon fill="midnightblue" stroke="midnightblue" points="528.64,-185.24 519.62,-190.79 530.14,-192.08 528.64,-185.24"/>
</g>
<!-- Node13 -->
<g id="node13" class="node">
<title>Node13</title>
<g id="a_node13"><a xlink:href="SIMDBackEndFactory_8h.html" target="_top" xlink:title=" ">
<polygon fill="none" stroke="black" points="654,-56.5 654,-86.5 812,-86.5 812,-56.5 654,-56.5"/>
<text text-anchor="start" x="662" y="-74.5" font-family="Helvetica,sans-Serif" font-size="10.00">include/Vectorization</text>
<text text-anchor="middle" x="733" y="-63.5" font-family="Helvetica,sans-Serif" font-size="10.00">/SIMD/SIMDBackEndFactory.h</text>
</a>
</g>
</g>
<!-- Node10&#45;&gt;Node13 -->
<g id="edge22" class="edge">
<title>Node10&#45;&gt;Node13</title>
<path fill="none" stroke="midnightblue" d="M529.39,-190.01C561.33,-181.97 598.65,-170.23 630,-154 649.66,-143.82 651.64,-136.75 669,-123 684.53,-110.7 702.22,-96.75 715.06,-86.63"/>
<polygon fill="midnightblue" stroke="midnightblue" points="528.55,-186.62 519.67,-192.39 530.21,-193.42 528.55,-186.62"/>
</g>
<!-- Node11&#45;&gt;Node6 -->
<g id="edge17" class="edge">
<title>Node11&#45;&gt;Node6</title>
<path fill="none" stroke="midnightblue" d="M542,-113.11C542,-104.15 542,-94.32 542,-86.58"/>
<polygon fill="midnightblue" stroke="midnightblue" points="538.5,-113.4 542,-123.4 545.5,-113.4 538.5,-113.4"/>
</g>
<!-- Node12&#45;&gt;Node13 -->
<g id="edge21" class="edge">
<title>Node12&#45;&gt;Node13</title>
<path fill="none" stroke="midnightblue" d="M746.31,-113.7C743.37,-104.59 740.11,-94.49 737.55,-86.58"/>
<polygon fill="midnightblue" stroke="midnightblue" points="743.04,-114.96 749.44,-123.4 749.7,-112.8 743.04,-114.96"/>
</g>
<!-- Node14&#45;&gt;Node10 -->
<g id="edge26" class="edge">
<title>Node14&#45;&gt;Node10</title>
<path fill="none" stroke="midnightblue" d="M457,-247.11C457,-238.15 457,-228.32 457,-220.58"/>
<polygon fill="midnightblue" stroke="midnightblue" points="453.5,-247.4 457,-257.4 460.5,-247.4 453.5,-247.4"/>
</g>
<!-- Node14&#45;&gt;Node12 -->
<g id="edge25" class="edge">
<title>Node14&#45;&gt;Node12</title>
<path fill="none" stroke="midnightblue" d="M497.66,-253.43C557.53,-226.82 668.15,-177.65 722.37,-153.56"/>
<polygon fill="midnightblue" stroke="midnightblue" points="496.22,-250.24 488.5,-257.5 499.06,-256.64 496.22,-250.24"/>
</g>
</g>
</svg>
        <g id="navigator" transform="translate(0 0)" fill="#404254">
                <rect fill="#f2f5e9" fill-opacity="0.5" stroke="#606060" stroke-width=".5" x="0" y="0" width="60" height="60"/>
                <use id="zoomplus" xlink:href="#zoomPlus" x="17" y="9" onmousedown="handleZoom(evt,'in')"/>
                <use id="zoomminus" xlink:href="#zoomMin" x="42" y="9" onmousedown="handleZoom(evt,'out')"/>
                <use id="reset" xlink:href="#resetDef" x="30" y="36" onmousedown="handleReset()"/>
                <g id="arrowUp" xlink:href="#dirArrow" transform="translate(30 24)" onmousedown="handlePan(0,-1)">
                  <use xlink:href="#rim" fill="#404040">
                        <set attributeName="fill" to="#808080" begin="arrowUp.mouseover" end="arrowUp.mouseout"/>
                  </use>
                  <path fill="none" stroke="white" stroke-width="1.5" d="M0,-3.0v7 M-2.5,-0.5L0,-3.0L2.5,-0.5"/>
                </g>
                <g id="arrowRight" xlink:href="#dirArrow" transform="rotate(90) translate(36 -43)" onmousedown="handlePan(1,0)">
                  <use xlink:href="#rim" fill="#404040">
                        <set attributeName="fill" to="#808080" begin="arrowRight.mouseover" end="arrowRight.mouseout"/>
                  </use>
                  <path fill="none" stroke="white" stroke-width="1.5" d="M0,-3.0v7 M-2.5,-0.5L0,-3.0L2.5,-0.5"/>
                </g>
                <g id="arrowDown" xlink:href="#dirArrow" transform="rotate(180) translate(-30 -48)" onmousedown="handlePan(0,1)">
                  <use xlink:href="#rim" fill="#404040">
                        <set attributeName="fill" to="#808080" begin="arrowDown.mouseover" end="arrowDown.mouseout"/>
                  </use>
                  <path fill="none" stroke="white" stroke-width="1.5" d="M0,-3.0v7 M-2.5,-0.5L0,-3.0L2.5,-0.5"/>
                </g>
                <g id="arrowLeft" xlink:href="#dirArrow" transform="rotate(270) translate(-36 17)" onmousedown="handlePan(-1,0)">
                  <use xlink:href="#rim" fill="#404040">
                        <set attributeName="fill" to="#808080" begin="arrowLeft.mouseover" end="arrowLeft.mouseout"/>
                  </use>
                  <path fill="none" stroke="white" stroke-width="1.5" d="M0,-3.0v7 M-2.5,-0.5L0,-3.0L2.5,-0.5"/>
                </g>
        </g>
        <svg viewBox="0 0 15 15" width="100%" height="30px" preserveAspectRatio="xMaxYMin meet">
         <g id="arrow_out" transform="scale(0.3 0.3)">
          <a xlink:href="MVPragmaHandler_8h__dep__incl_org.svg" target="_base">
           <rect id="button" ry="5" rx="5" y="6" x="6" height="38" width="38"
                fill="#f2f5e9" fill-opacity="0.5" stroke="#606060" stroke-width="1.0"/>
           <path id="arrow"
             d="M 11.500037,31.436501 C 11.940474,20.09759 22.043105,11.32322 32.158766,21.979434 L 37.068811,17.246167 C 37.068811,17.246167 37.088388,32 37.088388,32 L 22.160133,31.978069 C 22.160133,31.978069 26.997745,27.140456 26.997745,27.140456 C 18.528582,18.264221 13.291696,25.230495 11.500037,31.436501 z"
             style="fill:#404040;"/>
          </a>
         </g>
        </svg>
</svg>
