<?xml version="1.0" encoding="UTF-8" standalone="no"?>
<!DOCTYPE svg PUBLIC "-//W3C//DTD SVG 1.1//EN"
 "http://www.w3.org/Graphics/SVG/1.1/DTD/svg11.dtd">
<!-- Generated by graphviz version 2.43.0 (0)
 -->
<!-- Title: include/MVSourceLocation.h Pages: 1 -->
<!--zoomable 285 -->
<svg id="main" version="1.1" xmlns="http://www.w3.org/2000/svg" xmlns:xlink="http://www.w3.org/1999/xlink" xml:space="preserve" onload="init(evt)">
<style type="text/css"><![CDATA[
.edge:hover path { stroke: red; }
.edge:hover polygon { stroke: red; fill: red; }
]]></style>
<script type="text/javascript"><![CDATA[
var edges = document.getElementsByTagName('g');
if (edges && edges.length) {
  for (var i=0;i<edges.length;i++) {
    if (edges[i].id.substr(0,4)=='edge') {
      edges[i].setAttribute('class','edge');
    }
  }
}
]]></script>
        <defs>
                <circle id="rim" cx="0" cy="0" r="7"/>
                <circle id="rim2" cx="0" cy="0" r="3.5"/>
                <g id="zoomPlus">
                        <use xlink:href="#rim" fill="#404040">
                                <set attributeName="fill" to="#808080" begin="zoomplus.mouseover" end="zoomplus.mouseout"/>
                        </use>
                        <path d="M-4,0h8M0,-4v8" fill="none" stroke="white" stroke-width="1.5" pointer-events="none"/>
                </g>
                <g id="zoomMin">
                        <use xlink:href="#rim" fill="#404040">
                                <set attributeName="fill" to="#808080" begin="zoomminus.mouseover" end="zoomminus.mouseout"/>
                        </use>
                        <path d="M-4,0h8" fill="none" stroke="white" stroke-width="1.5" pointer-events="none"/>
                </g>
                <g id="dirArrow">
                        <path fill="none" stroke="white" stroke-width="1.5" d="M0,-3.0v7 M-2.5,-0.5L0,-3.0L2.5,-0.5"/>
                </g>
               <g id="resetDef">
                       <use xlink:href="#rim2" fill="#404040">
                               <set attributeName="fill" to="#808080" begin="reset.mouseover" end="reset.mouseout"/>
                       </use>
               </g>
        </defs>

<script type="text/javascript">
var viewWidth = 601;
var viewHeight = 285;
var sectionId = 'dynsection-0';
</script>
<script xlink:href="svgpan.js"/>
<svg id="graph" class="graph">
<g id="viewport">
<title>include/MVSourceLocation.h</title>
<!-- Node1 -->
<g id="node1" class="node">
<title>Node1</title>
<g id="a_node1"><a xlink:title=" ">
<polygon fill="#bfbfbf" stroke="black" points="185.5,-257.5 185.5,-276.5 339.5,-276.5 339.5,-257.5 185.5,-257.5"/>
<text text-anchor="middle" x="262.5" y="-264.5" font-family="Helvetica,sans-Serif" font-size="10.00">include/MVSourceLocation.h</text>
</a>
</g>
</g>
<!-- Node2 -->
<g id="node2" class="node">
<title>Node2</title>
<g id="a_node2"><a xlink:href="SIMDBackEnd_8h.html" target="_top" xlink:title=" ">
<polygon fill="none" stroke="black" points="200,-190.5 200,-220.5 325,-220.5 325,-190.5 200,-190.5"/>
<text text-anchor="start" x="208" y="-208.5" font-family="Helvetica,sans-Serif" font-size="10.00">include/Vectorization</text>
<text text-anchor="middle" x="262.5" y="-197.5" font-family="Helvetica,sans-Serif" font-size="10.00">/SIMD/SIMDBackEnd.h</text>
</a>
</g>
</g>
<!-- Node1&#45;&gt;Node2 -->
<g id="edge1" class="edge">
<title>Node1&#45;&gt;Node2</title>
<path fill="none" stroke="midnightblue" d="M262.5,-247.23C262.5,-238.59 262.5,-228.5 262.5,-220.52"/>
<polygon fill="midnightblue" stroke="midnightblue" points="259,-247.48 262.5,-257.48 266,-247.48 259,-247.48"/>
</g>
<!-- Node3 -->
<g id="node3" class="node">
<title>Node3</title>
<g id="a_node3"><a xlink:href="MVCostModel_8h.html" target="_top" xlink:title=" ">
<polygon fill="none" stroke="black" points="0,-56.5 0,-86.5 147,-86.5 147,-56.5 0,-56.5"/>
<text text-anchor="start" x="8" y="-74.5" font-family="Helvetica,sans-Serif" font-size="10.00">include/CostModel/MVCost</text>
<text text-anchor="middle" x="73.5" y="-63.5" font-family="Helvetica,sans-Serif" font-size="10.00">Model.h</text>
</a>
</g>
</g>
<!-- Node2&#45;&gt;Node3 -->
<g id="edge2" class="edge">
<title>Node2&#45;&gt;Node3</title>
<path fill="none" stroke="midnightblue" d="M189.77,-199.03C127.32,-192.64 44.18,-179.51 23.5,-154 5.83,-132.21 33.28,-103.67 53.98,-86.79"/>
<polygon fill="midnightblue" stroke="midnightblue" points="189.7,-202.54 199.99,-200.03 190.38,-195.57 189.7,-202.54"/>
</g>
<!-- Node4 -->
<g id="node4" class="node">
<title>Node4</title>
<g id="a_node4"><a xlink:href="SIMDCostInfo_8h.html" target="_top" xlink:title=" ">
<polygon fill="none" stroke="black" points="33,-123.5 33,-153.5 190,-153.5 190,-123.5 33,-123.5"/>
<text text-anchor="start" x="41" y="-141.5" font-family="Helvetica,sans-Serif" font-size="10.00">include/CostModel/SIMDCost</text>
<text text-anchor="middle" x="111.5" y="-130.5" font-family="Helvetica,sans-Serif" font-size="10.00">Info.h</text>
</a>
</g>
</g>
<!-- Node2&#45;&gt;Node4 -->
<g id="edge3" class="edge">
<title>Node2&#45;&gt;Node4</title>
<path fill="none" stroke="midnightblue" d="M220.47,-186.41C196.36,-176.03 166.55,-163.2 144.2,-153.58"/>
<polygon fill="midnightblue" stroke="midnightblue" points="219.17,-189.66 229.74,-190.4 221.93,-183.23 219.17,-189.66"/>
</g>
<!-- Node5 -->
<g id="node5" class="node">
<title>Node5</title>
<g id="a_node5"><a xlink:href="MVFrontend_8h.html" target="_top" xlink:title=" ">
<polygon fill="none" stroke="black" points="195.5,-62 195.5,-81 317.5,-81 317.5,-62 195.5,-62"/>
<text text-anchor="middle" x="256.5" y="-69" font-family="Helvetica,sans-Serif" font-size="10.00">include/MVFrontend.h</text>
</a>
</g>
</g>
<!-- Node2&#45;&gt;Node5 -->
<g id="edge5" class="edge">
<title>Node2&#45;&gt;Node5</title>
<path fill="none" stroke="midnightblue" d="M248.29,-181.41C243.93,-173.08 239.7,-163.41 237.5,-154 231.28,-127.4 244.44,-95.92 251.87,-81.07"/>
<polygon fill="midnightblue" stroke="midnightblue" points="245.24,-183.13 253.17,-190.15 251.35,-179.72 245.24,-183.13"/>
</g>
<!-- Node7 -->
<g id="node7" class="node">
<title>Node7</title>
<g id="a_node7"><a xlink:href="MVRewriter_8h.html" target="_top" xlink:title=" ">
<polygon fill="none" stroke="black" points="246.5,-129 246.5,-148 366.5,-148 366.5,-129 246.5,-129"/>
<text text-anchor="middle" x="306.5" y="-136" font-family="Helvetica,sans-Serif" font-size="10.00">include/MVRewriter.h</text>
</a>
</g>
</g>
<!-- Node2&#45;&gt;Node7 -->
<g id="edge7" class="edge">
<title>Node2&#45;&gt;Node7</title>
<path fill="none" stroke="midnightblue" d="M277.75,-181.97C285.63,-170.33 294.79,-156.8 300.61,-148.19"/>
<polygon fill="midnightblue" stroke="midnightblue" points="274.75,-180.15 272.05,-190.4 280.55,-184.08 274.75,-180.15"/>
</g>
<!-- Node8 -->
<g id="node8" class="node">
<title>Node8</title>
<g id="a_node8"><a xlink:href="AVX2BackEnd_8h.html" target="_top" xlink:title=" ">
<polygon fill="none" stroke="black" points="385,-123.5 385,-153.5 538,-153.5 538,-123.5 385,-123.5"/>
<text text-anchor="start" x="393" y="-141.5" font-family="Helvetica,sans-Serif" font-size="10.00">include/Vectorization</text>
<text text-anchor="middle" x="461.5" y="-130.5" font-family="Helvetica,sans-Serif" font-size="10.00">/SIMD/AVX2/AVX2BackEnd.h</text>
</a>
</g>
</g>
<!-- Node2&#45;&gt;Node8 -->
<g id="edge9" class="edge">
<title>Node2&#45;&gt;Node8</title>
<path fill="none" stroke="midnightblue" d="M315.38,-187.23C347.57,-176.71 388.17,-163.45 418.4,-153.58"/>
<polygon fill="midnightblue" stroke="midnightblue" points="314.1,-183.96 305.68,-190.4 316.27,-190.62 314.1,-183.96"/>
</g>
<!-- Node9 -->
<g id="node9" class="node">
<title>Node9</title>
<g id="a_node9"><a xlink:href="SIMDBackEndFactory_8h.html" target="_top" xlink:title=" ">
<polygon fill="none" stroke="black" points="434.5,-56.5 434.5,-86.5 592.5,-86.5 592.5,-56.5 434.5,-56.5"/>
<text text-anchor="start" x="442.5" y="-74.5" font-family="Helvetica,sans-Serif" font-size="10.00">include/Vectorization</text>
<text text-anchor="middle" x="513.5" y="-63.5" font-family="Helvetica,sans-Serif" font-size="10.00">/SIMD/SIMDBackEndFactory.h</text>
</a>
</g>
</g>
<!-- Node2&#45;&gt;Node9 -->
<g id="edge11" class="edge">
<title>Node2&#45;&gt;Node9</title>
<path fill="none" stroke="midnightblue" d="M335.51,-201.9C410.82,-197.49 520.94,-185.67 547.5,-154 564.44,-133.79 543.27,-103.95 527.55,-86.54"/>
<polygon fill="midnightblue" stroke="midnightblue" points="334.91,-198.42 325.12,-202.47 335.3,-205.41 334.91,-198.42"/>
</g>
<!-- Node4&#45;&gt;Node3 -->
<g id="edge4" class="edge">
<title>Node4&#45;&gt;Node3</title>
<path fill="none" stroke="midnightblue" d="M98.1,-114.58C92.64,-105.24 86.51,-94.75 81.73,-86.58"/>
<polygon fill="midnightblue" stroke="midnightblue" points="95.19,-116.53 103.25,-123.4 101.23,-113 95.19,-116.53"/>
</g>
<!-- Node6 -->
<g id="node6" class="node">
<title>Node6</title>
<g id="a_node6"><a xlink:href="macveth_8cpp.html" target="_top" xlink:title=" ">
<polygon fill="none" stroke="black" points="209,-0.5 209,-19.5 304,-19.5 304,-0.5 209,-0.5"/>
<text text-anchor="middle" x="256.5" y="-7.5" font-family="Helvetica,sans-Serif" font-size="10.00">lib/macveth.cpp</text>
</a>
</g>
</g>
<!-- Node5&#45;&gt;Node6 -->
<g id="edge6" class="edge">
<title>Node5&#45;&gt;Node6</title>
<path fill="none" stroke="midnightblue" d="M256.5,-51.82C256.5,-41 256.5,-27.9 256.5,-19.51"/>
<polygon fill="midnightblue" stroke="midnightblue" points="253,-51.98 256.5,-61.98 260,-51.98 253,-51.98"/>
</g>
<!-- Node7&#45;&gt;Node5 -->
<g id="edge8" class="edge">
<title>Node7&#45;&gt;Node5</title>
<path fill="none" stroke="midnightblue" d="M293.63,-120.77C283.88,-108.1 270.89,-91.2 263.14,-81.13"/>
<polygon fill="midnightblue" stroke="midnightblue" points="290.89,-122.94 299.76,-128.73 296.43,-118.67 290.89,-122.94"/>
</g>
<!-- Node8&#45;&gt;Node9 -->
<g id="edge10" class="edge">
<title>Node8&#45;&gt;Node9</title>
<path fill="none" stroke="midnightblue" d="M479.14,-115.45C486.78,-105.9 495.5,-95 502.24,-86.58"/>
<polygon fill="midnightblue" stroke="midnightblue" points="476.3,-113.4 472.78,-123.4 481.76,-117.77 476.3,-113.4"/>
</g>
</g>
</svg>
        <g id="navigator" transform="translate(0 0)" fill="#404254">
                <rect fill="#f2f5e9" fill-opacity="0.5" stroke="#606060" stroke-width=".5" x="0" y="0" width="60" height="60"/>
                <use id="zoomplus" xlink:href="#zoomPlus" x="17" y="9" onmousedown="handleZoom(evt,'in')"/>
                <use id="zoomminus" xlink:href="#zoomMin" x="42" y="9" onmousedown="handleZoom(evt,'out')"/>
                <use id="reset" xlink:href="#resetDef" x="30" y="36" onmousedown="handleReset()"/>
                <g id="arrowUp" xlink:href="#dirArrow" transform="translate(30 24)" onmousedown="handlePan(0,-1)">
                  <use xlink:href="#rim" fill="#404040">
                        <set attributeName="fill" to="#808080" begin="arrowUp.mouseover" end="arrowUp.mouseout"/>
                  </use>
                  <path fill="none" stroke="white" stroke-width="1.5" d="M0,-3.0v7 M-2.5,-0.5L0,-3.0L2.5,-0.5"/>
                </g>
                <g id="arrowRight" xlink:href="#dirArrow" transform="rotate(90) translate(36 -43)" onmousedown="handlePan(1,0)">
                  <use xlink:href="#rim" fill="#404040">
                        <set attributeName="fill" to="#808080" begin="arrowRight.mouseover" end="arrowRight.mouseout"/>
                  </use>
                  <path fill="none" stroke="white" stroke-width="1.5" d="M0,-3.0v7 M-2.5,-0.5L0,-3.0L2.5,-0.5"/>
                </g>
                <g id="arrowDown" xlink:href="#dirArrow" transform="rotate(180) translate(-30 -48)" onmousedown="handlePan(0,1)">
                  <use xlink:href="#rim" fill="#404040">
                        <set attributeName="fill" to="#808080" begin="arrowDown.mouseover" end="arrowDown.mouseout"/>
                  </use>
                  <path fill="none" stroke="white" stroke-width="1.5" d="M0,-3.0v7 M-2.5,-0.5L0,-3.0L2.5,-0.5"/>
                </g>
                <g id="arrowLeft" xlink:href="#dirArrow" transform="rotate(270) translate(-36 17)" onmousedown="handlePan(-1,0)">
                  <use xlink:href="#rim" fill="#404040">
                        <set attributeName="fill" to="#808080" begin="arrowLeft.mouseover" end="arrowLeft.mouseout"/>
                  </use>
                  <path fill="none" stroke="white" stroke-width="1.5" d="M0,-3.0v7 M-2.5,-0.5L0,-3.0L2.5,-0.5"/>
                </g>
        </g>
        <svg viewBox="0 0 15 15" width="100%" height="30px" preserveAspectRatio="xMaxYMin meet">
         <g id="arrow_out" transform="scale(0.3 0.3)">
          <a xlink:href="MVSourceLocation_8h__dep__incl_org.svg" target="_base">
           <rect id="button" ry="5" rx="5" y="6" x="6" height="38" width="38"
                fill="#f2f5e9" fill-opacity="0.5" stroke="#606060" stroke-width="1.0"/>
           <path id="arrow"
             d="M 11.500037,31.436501 C 11.940474,20.09759 22.043105,11.32322 32.158766,21.979434 L 37.068811,17.246167 C 37.068811,17.246167 37.088388,32 37.088388,32 L 22.160133,31.978069 C 22.160133,31.978069 26.997745,27.140456 26.997745,27.140456 C 18.528582,18.264221 13.291696,25.230495 11.500037,31.436501 z"
             style="fill:#404040;"/>
          </a>
         </g>
        </svg>
</svg>
