<?xml version="1.0" encoding="UTF-8" standalone="no"?>
<!DOCTYPE svg PUBLIC "-//W3C//DTD SVG 1.1//EN"
 "http://www.w3.org/Graphics/SVG/1.1/DTD/svg11.dtd">
<!-- Generated by graphviz version 2.43.0 (0)
 -->
<!-- Title: include/Node.h Pages: 1 -->
<!--zoomable 487 -->
<svg id="main" version="1.1" xmlns="http://www.w3.org/2000/svg" xmlns:xlink="http://www.w3.org/1999/xlink" xml:space="preserve" onload="init(evt)">
<style type="text/css"><![CDATA[
.edge:hover path { stroke: red; }
.edge:hover polygon { stroke: red; fill: red; }
]]></style>
<script type="text/javascript"><![CDATA[
var edges = document.getElementsByTagName('g');
if (edges && edges.length) {
  for (var i=0;i<edges.length;i++) {
    if (edges[i].id.substr(0,4)=='edge') {
      edges[i].setAttribute('class','edge');
    }
  }
}
]]></script>
        <defs>
                <circle id="rim" cx="0" cy="0" r="7"/>
                <circle id="rim2" cx="0" cy="0" r="3.5"/>
                <g id="zoomPlus">
                        <use xlink:href="#rim" fill="#404040">
                                <set attributeName="fill" to="#808080" begin="zoomplus.mouseover" end="zoomplus.mouseout"/>
                        </use>
                        <path d="M-4,0h8M0,-4v8" fill="none" stroke="white" stroke-width="1.5" pointer-events="none"/>
                </g>
                <g id="zoomMin">
                        <use xlink:href="#rim" fill="#404040">
                                <set attributeName="fill" to="#808080" begin="zoomminus.mouseover" end="zoomminus.mouseout"/>
                        </use>
                        <path d="M-4,0h8" fill="none" stroke="white" stroke-width="1.5" pointer-events="none"/>
                </g>
                <g id="dirArrow">
                        <path fill="none" stroke="white" stroke-width="1.5" d="M0,-3.0v7 M-2.5,-0.5L0,-3.0L2.5,-0.5"/>
                </g>
               <g id="resetDef">
                       <use xlink:href="#rim2" fill="#404040">
                               <set attributeName="fill" to="#808080" begin="reset.mouseover" end="reset.mouseout"/>
                       </use>
               </g>
        </defs>

<script type="text/javascript">
var viewWidth = 1631;
var viewHeight = 487;
var sectionId = 'dynsection-0';
</script>
<script xlink:href="svgpan.js"/>
<svg id="graph" class="graph">
<g id="viewport">
<title>include/Node.h</title>
<!-- Node1 -->
<g id="node1" class="node">
<title>Node1</title>
<g id="a_node1"><a xlink:title=" ">
<polygon fill="#bfbfbf" stroke="black" points="313,-459.5 313,-478.5 402,-478.5 402,-459.5 313,-459.5"/>
<text text-anchor="middle" x="357.5" y="-466.5" font-family="Helvetica,sans-Serif" font-size="10.00">include/Node.h</text>
</a>
</g>
</g>
<!-- Node2 -->
<g id="node2" class="node">
<title>Node2</title>
<g id="a_node2"><a xlink:href="MVExpr_8h.html" target="_top" xlink:title=" ">
<polygon fill="none" stroke="black" points="306,-280.5 306,-299.5 447,-299.5 447,-280.5 306,-280.5"/>
<text text-anchor="middle" x="376.5" y="-287.5" font-family="Helvetica,sans-Serif" font-size="10.00">include/MVExpr/MVExpr.h</text>
</a>
</g>
</g>
<!-- Node1&#45;&gt;Node2 -->
<g id="edge1" class="edge">
<title>Node1&#45;&gt;Node2</title>
<path fill="none" stroke="midnightblue" d="M312.66,-465.83C259.45,-461.26 180.72,-447.07 204.5,-403 232.85,-350.45 297.78,-318.71 339.26,-303.05"/>
<polygon fill="midnightblue" stroke="midnightblue" points="340.55,-306.3 348.75,-299.59 338.15,-299.73 340.55,-306.3"/>
</g>
<!-- Node20 -->
<g id="node20" class="node">
<title>Node20</title>
<g id="a_node20"><a xlink:title=" ">
<polygon fill="none" stroke="#bfbfbf" points="582.5,-224.5 582.5,-243.5 680.5,-243.5 680.5,-224.5 582.5,-224.5"/>
<text text-anchor="middle" x="631.5" y="-231.5" font-family="Helvetica,sans-Serif" font-size="10.00">clang/AST/Expr.h</text>
</a>
</g>
</g>
<!-- Node1&#45;&gt;Node20 -->
<g id="edge67" class="edge">
<title>Node1&#45;&gt;Node20</title>
<path fill="none" stroke="midnightblue" d="M368.33,-459.3C377.68,-451.07 390.59,-437.79 396.5,-423 410.86,-387.05 378.57,-367.9 400.5,-336 412.48,-318.58 538,-269.91 598.82,-247.09"/>
<polygon fill="midnightblue" stroke="midnightblue" points="600.2,-250.31 608.34,-243.53 597.75,-243.75 600.2,-250.31"/>
</g>
<!-- Node23 -->
<g id="node23" class="node">
<title>Node23</title>
<g id="a_node23"><a xlink:href="MVExprLiteral_8h.html" target="_top" xlink:title=" ">
<polygon fill="none" stroke="black" points="214,-403.5 214,-422.5 387,-422.5 387,-403.5 214,-403.5"/>
<text text-anchor="middle" x="300.5" y="-410.5" font-family="Helvetica,sans-Serif" font-size="10.00">include/MVExpr/MVExprLiteral.h</text>
</a>
</g>
</g>
<!-- Node1&#45;&gt;Node23 -->
<g id="edge31" class="edge">
<title>Node1&#45;&gt;Node23</title>
<path fill="none" stroke="midnightblue" d="M348.34,-459.32C340,-451.42 327.47,-439.55 317.32,-429.94"/>
<polygon fill="midnightblue" stroke="midnightblue" points="319.49,-427.17 309.82,-422.83 314.68,-432.25 319.49,-427.17"/>
</g>
<!-- Node24 -->
<g id="node24" class="node">
<title>Node24</title>
<g id="a_node24"><a xlink:href="MVExprVar_8h.html" target="_top" xlink:title=" ">
<polygon fill="none" stroke="black" points="0,-403.5 0,-422.5 157,-422.5 157,-403.5 0,-403.5"/>
<text text-anchor="middle" x="78.5" y="-410.5" font-family="Helvetica,sans-Serif" font-size="10.00">include/MVExpr/MVExprVar.h</text>
</a>
</g>
</g>
<!-- Node1&#45;&gt;Node24 -->
<g id="edge33" class="edge">
<title>Node1&#45;&gt;Node24</title>
<path fill="none" stroke="midnightblue" d="M313.29,-459.44C264.21,-449.94 184.99,-434.61 132.34,-424.42"/>
<polygon fill="midnightblue" stroke="midnightblue" points="132.98,-420.98 122.5,-422.52 131.65,-427.85 132.98,-420.98"/>
</g>
<!-- Node26 -->
<g id="node26" class="node">
<title>Node26</title>
<g id="a_node26"><a xlink:href="StmtWrapper_8h.html" target="_top" xlink:title=" ">
<polygon fill="none" stroke="black" points="690.5,-403.5 690.5,-422.5 818.5,-422.5 818.5,-403.5 690.5,-403.5"/>
<text text-anchor="middle" x="754.5" y="-410.5" font-family="Helvetica,sans-Serif" font-size="10.00">include/StmtWrapper.h</text>
</a>
</g>
</g>
<!-- Node1&#45;&gt;Node26 -->
<g id="edge36" class="edge">
<title>Node1&#45;&gt;Node26</title>
<path fill="none" stroke="midnightblue" d="M402.27,-461.91C470.24,-452.67 600.16,-434.99 681.8,-423.89"/>
<polygon fill="midnightblue" stroke="midnightblue" points="682.56,-427.32 692,-422.5 681.62,-420.38 682.56,-427.32"/>
</g>
<!-- Node33 -->
<g id="node33" class="node">
<title>Node33</title>
<g id="a_node33"><a xlink:href="TAC_8h.html" target="_top" xlink:title=" ">
<polygon fill="none" stroke="black" points="993,-342 993,-361 1076,-361 1076,-342 993,-342"/>
<text text-anchor="middle" x="1034.5" y="-349" font-family="Helvetica,sans-Serif" font-size="10.00">include/TAC.h</text>
</a>
</g>
</g>
<!-- Node1&#45;&gt;Node33 -->
<g id="edge66" class="edge">
<title>Node1&#45;&gt;Node33</title>
<path fill="none" stroke="midnightblue" d="M402.09,-467.17C486.19,-464.86 673.64,-456.09 827.5,-423 892.51,-409.02 965.46,-381.17 1005.06,-364.97"/>
<polygon fill="midnightblue" stroke="midnightblue" points="1006.47,-368.17 1014.38,-361.12 1003.8,-361.7 1006.47,-368.17"/>
</g>
<!-- Node3 -->
<g id="node3" class="node">
<title>Node3</title>
<g id="a_node3"><a xlink:href="Debug_8h.html" target="_top" xlink:title=" ">
<polygon fill="none" stroke="black" points="851,-224.5 851,-243.5 946,-243.5 946,-224.5 851,-224.5"/>
<text text-anchor="middle" x="898.5" y="-231.5" font-family="Helvetica,sans-Serif" font-size="10.00">include/Debug.h</text>
</a>
</g>
</g>
<!-- Node2&#45;&gt;Node3 -->
<g id="edge2" class="edge">
<title>Node2&#45;&gt;Node3</title>
<path fill="none" stroke="midnightblue" d="M447.17,-281.69C551.44,-270.9 744.52,-250.93 840.79,-240.97"/>
<polygon fill="midnightblue" stroke="midnightblue" points="841.33,-244.43 850.92,-239.92 840.61,-237.47 841.33,-244.43"/>
</g>
<!-- Node4 -->
<g id="node4" class="node">
<title>Node4</title>
<g id="a_node4"><a xlink:href="Utils_8h.html" target="_top" xlink:title=" ">
<polygon fill="none" stroke="black" points="878.5,-168.5 878.5,-187.5 964.5,-187.5 964.5,-168.5 878.5,-168.5"/>
<text text-anchor="middle" x="921.5" y="-175.5" font-family="Helvetica,sans-Serif" font-size="10.00">include/Utils.h</text>
</a>
</g>
</g>
<!-- Node2&#45;&gt;Node4 -->
<g id="edge24" class="edge">
<title>Node2&#45;&gt;Node4</title>
<path fill="none" stroke="midnightblue" d="M411.24,-280.45C442.78,-272.32 490.35,-259.1 530.5,-244 550.23,-236.58 553.26,-229.86 573.5,-224 601.14,-215.99 777.59,-195.29 868.1,-184.99"/>
<polygon fill="midnightblue" stroke="midnightblue" points="868.63,-188.46 878.17,-183.85 867.84,-181.5 868.63,-188.46"/>
</g>
<!-- Node8 -->
<g id="node8" class="node">
<title>Node8</title>
<g id="a_node8"><a xlink:title=" ">
<polygon fill="none" stroke="#bfbfbf" points="1376.5,-0.5 1376.5,-19.5 1436.5,-19.5 1436.5,-0.5 1376.5,-0.5"/>
<text text-anchor="middle" x="1406.5" y="-7.5" font-family="Helvetica,sans-Serif" font-size="10.00">iostream</text>
</a>
</g>
</g>
<!-- Node2&#45;&gt;Node8 -->
<g id="edge28" class="edge">
<title>Node2&#45;&gt;Node8</title>
<path fill="none" stroke="midnightblue" d="M395.81,-280.46C424.86,-267.71 481.59,-243.14 530.5,-224 666.92,-170.61 698.99,-149.89 840.5,-112 1034.31,-60.1 1272.7,-27.44 1366.19,-15.8"/>
<polygon fill="midnightblue" stroke="midnightblue" points="1366.85,-19.24 1376.34,-14.54 1365.99,-12.29 1366.85,-19.24"/>
</g>
<!-- Node9 -->
<g id="node9" class="node">
<title>Node9</title>
<g id="a_node9"><a xlink:title=" ">
<polygon fill="none" stroke="#bfbfbf" points="648.5,-0.5 648.5,-19.5 692.5,-19.5 692.5,-0.5 648.5,-0.5"/>
<text text-anchor="middle" x="670.5" y="-7.5" font-family="Helvetica,sans-Serif" font-size="10.00">string</text>
</a>
</g>
</g>
<!-- Node2&#45;&gt;Node9 -->
<g id="edge30" class="edge">
<title>Node2&#45;&gt;Node9</title>
<path fill="none" stroke="midnightblue" d="M386.42,-280.24C395.97,-271.55 410.54,-257.59 421.5,-244 483.88,-166.65 464.52,-117.59 542.5,-56 557.6,-44.08 605.53,-29.05 638.26,-19.73"/>
<polygon fill="midnightblue" stroke="midnightblue" points="639.6,-22.99 648.29,-16.92 637.71,-16.25 639.6,-22.99"/>
</g>
<!-- Node14 -->
<g id="node14" class="node">
<title>Node14</title>
<g id="a_node14"><a xlink:title=" ">
<polygon fill="none" stroke="#bfbfbf" points="524,-112.5 524,-131.5 619,-131.5 619,-112.5 524,-112.5"/>
<text text-anchor="middle" x="571.5" y="-119.5" font-family="Helvetica,sans-Serif" font-size="10.00">clang/AST/AST.h</text>
</a>
</g>
</g>
<!-- Node2&#45;&gt;Node14 -->
<g id="edge25" class="edge">
<title>Node2&#45;&gt;Node14</title>
<path fill="none" stroke="midnightblue" d="M394.42,-280.48C410.83,-272.26 435.4,-258.91 454.5,-244 496.33,-211.35 537.69,-164.14 558.19,-139.45"/>
<polygon fill="midnightblue" stroke="midnightblue" points="560.9,-141.67 564.54,-131.72 555.49,-137.22 560.9,-141.67"/>
</g>
<!-- Node19 -->
<g id="node19" class="node">
<title>Node19</title>
<g id="a_node19"><a xlink:href="MVDataType_8h.html" target="_top" xlink:title=" ">
<polygon fill="none" stroke="black" points="263.5,-112.5 263.5,-131.5 429.5,-131.5 429.5,-112.5 263.5,-112.5"/>
<text text-anchor="middle" x="346.5" y="-119.5" font-family="Helvetica,sans-Serif" font-size="10.00">include/MVExpr/MVDataType.h</text>
</a>
</g>
</g>
<!-- Node2&#45;&gt;Node19 -->
<g id="edge21" class="edge">
<title>Node2&#45;&gt;Node19</title>
<path fill="none" stroke="midnightblue" d="M308.8,-280.45C264.78,-273.34 213.12,-261.52 199.5,-244 162.16,-195.97 254.49,-154.46 309.34,-134.92"/>
<polygon fill="midnightblue" stroke="midnightblue" points="310.8,-138.12 319.1,-131.53 308.51,-131.5 310.8,-138.12"/>
</g>
<!-- Node2&#45;&gt;Node20 -->
<g id="edge26" class="edge">
<title>Node2&#45;&gt;Node20</title>
<path fill="none" stroke="midnightblue" d="M416.91,-280.44C461.48,-271 533.27,-255.8 581.39,-245.61"/>
<polygon fill="midnightblue" stroke="midnightblue" points="582.23,-249.01 591.28,-243.52 580.78,-242.16 582.23,-249.01"/>
</g>
<!-- Node21 -->
<g id="node21" class="node">
<title>Node21</title>
<g id="a_node21"><a xlink:title=" ">
<polygon fill="none" stroke="#bfbfbf" points="208.5,-224.5 208.5,-243.5 336.5,-243.5 336.5,-224.5 208.5,-224.5"/>
<text text-anchor="middle" x="272.5" y="-231.5" font-family="Helvetica,sans-Serif" font-size="10.00">llvm/Support/Casting.h</text>
</a>
</g>
</g>
<!-- Node2&#45;&gt;Node21 -->
<g id="edge27" class="edge">
<title>Node2&#45;&gt;Node21</title>
<path fill="none" stroke="midnightblue" d="M359.79,-280.32C343.19,-271.7 317.5,-258.36 298.28,-248.39"/>
<polygon fill="midnightblue" stroke="midnightblue" points="299.66,-245.16 289.17,-243.65 296.43,-251.37 299.66,-245.16"/>
</g>
<!-- Node22 -->
<g id="node22" class="node">
<title>Node22</title>
<g id="a_node22"><a xlink:title=" ">
<polygon fill="none" stroke="#bfbfbf" points="354.5,-224.5 354.5,-243.5 412.5,-243.5 412.5,-224.5 354.5,-224.5"/>
<text text-anchor="middle" x="383.5" y="-231.5" font-family="Helvetica,sans-Serif" font-size="10.00">memory</text>
</a>
</g>
</g>
<!-- Node2&#45;&gt;Node22 -->
<g id="edge29" class="edge">
<title>Node2&#45;&gt;Node22</title>
<path fill="none" stroke="midnightblue" d="M377.66,-280.08C378.58,-272.93 379.92,-262.64 381.08,-253.69"/>
<polygon fill="midnightblue" stroke="midnightblue" points="384.55,-254.12 382.37,-243.75 377.61,-253.22 384.55,-254.12"/>
</g>
<!-- Node3&#45;&gt;Node4 -->
<g id="edge3" class="edge">
<title>Node3&#45;&gt;Node4</title>
<path fill="none" stroke="midnightblue" d="M902.3,-224.08C905.41,-216.77 909.92,-206.18 913.79,-197.1"/>
<polygon fill="midnightblue" stroke="midnightblue" points="917.07,-198.32 917.77,-187.75 910.63,-195.58 917.07,-198.32"/>
</g>
<!-- Node5 -->
<g id="node5" class="node">
<title>Node5</title>
<g id="a_node5"><a xlink:href="MVOptions_8h.html" target="_top" xlink:title=" ">
<polygon fill="none" stroke="black" points="637,-112.5 637,-131.5 754,-131.5 754,-112.5 637,-112.5"/>
<text text-anchor="middle" x="695.5" y="-119.5" font-family="Helvetica,sans-Serif" font-size="10.00">include/MVOptions.h</text>
</a>
</g>
</g>
<!-- Node4&#45;&gt;Node5 -->
<g id="edge4" class="edge">
<title>Node4&#45;&gt;Node5</title>
<path fill="none" stroke="midnightblue" d="M885.69,-168.44C846.51,-159.08 783.62,-144.06 740.98,-133.87"/>
<polygon fill="midnightblue" stroke="midnightblue" points="741.68,-130.44 731.14,-131.52 740.06,-137.24 741.68,-130.44"/>
</g>
<!-- Node4&#45;&gt;Node8 -->
<g id="edge20" class="edge">
<title>Node4&#45;&gt;Node8</title>
<path fill="none" stroke="midnightblue" d="M964.93,-174.65C1019.98,-170.61 1117.15,-159.87 1195.5,-132 1271.06,-105.13 1350.63,-51.54 1386.68,-25.66"/>
<polygon fill="midnightblue" stroke="midnightblue" points="1388.84,-28.41 1394.88,-19.71 1384.73,-22.75 1388.84,-28.41"/>
</g>
<!-- Node4&#45;&gt;Node14 -->
<g id="edge15" class="edge">
<title>Node4&#45;&gt;Node14</title>
<path fill="none" stroke="midnightblue" d="M878.3,-170.42C823.09,-162.01 724.28,-146.9 629.17,-132.1"/>
<polygon fill="midnightblue" stroke="midnightblue" points="629.5,-128.61 619.08,-130.53 628.43,-135.53 629.5,-128.61"/>
</g>
<!-- Node15 -->
<g id="node15" class="node">
<title>Node15</title>
<g id="a_node15"><a xlink:title=" ">
<polygon fill="none" stroke="#bfbfbf" points="849,-112.5 849,-131.5 994,-131.5 994,-112.5 849,-112.5"/>
<text text-anchor="middle" x="921.5" y="-119.5" font-family="Helvetica,sans-Serif" font-size="10.00">clang/Basic/LangOptions.h</text>
</a>
</g>
</g>
<!-- Node4&#45;&gt;Node15 -->
<g id="edge16" class="edge">
<title>Node4&#45;&gt;Node15</title>
<path fill="none" stroke="midnightblue" d="M921.5,-168.08C921.5,-161.01 921.5,-150.86 921.5,-141.99"/>
<polygon fill="midnightblue" stroke="midnightblue" points="925,-141.75 921.5,-131.75 918,-141.75 925,-141.75"/>
</g>
<!-- Node16 -->
<g id="node16" class="node">
<title>Node16</title>
<g id="a_node16"><a xlink:title=" ">
<polygon fill="none" stroke="#bfbfbf" points="1322,-112.5 1322,-131.5 1481,-131.5 1481,-112.5 1322,-112.5"/>
<text text-anchor="middle" x="1401.5" y="-119.5" font-family="Helvetica,sans-Serif" font-size="10.00">clang/Basic/SourceManager.h</text>
</a>
</g>
</g>
<!-- Node4&#45;&gt;Node16 -->
<g id="edge17" class="edge">
<title>Node4&#45;&gt;Node16</title>
<path fill="none" stroke="midnightblue" d="M964.52,-172.16C1043.35,-163.29 1212.34,-144.28 1315.53,-132.67"/>
<polygon fill="midnightblue" stroke="midnightblue" points="1316.07,-136.13 1325.61,-131.54 1315.29,-129.18 1316.07,-136.13"/>
</g>
<!-- Node17 -->
<g id="node17" class="node">
<title>Node17</title>
<g id="a_node17"><a xlink:title=" ">
<polygon fill="none" stroke="#bfbfbf" points="1012,-112.5 1012,-131.5 1113,-131.5 1113,-112.5 1012,-112.5"/>
<text text-anchor="middle" x="1062.5" y="-119.5" font-family="Helvetica,sans-Serif" font-size="10.00">clang/Lex/Lexer.h</text>
</a>
</g>
</g>
<!-- Node4&#45;&gt;Node17 -->
<g id="edge18" class="edge">
<title>Node4&#45;&gt;Node17</title>
<path fill="none" stroke="midnightblue" d="M943.84,-168.44C967.25,-159.48 1004.24,-145.31 1030.69,-135.18"/>
<polygon fill="midnightblue" stroke="midnightblue" points="1032.18,-138.36 1040.26,-131.52 1029.67,-131.82 1032.18,-138.36"/>
</g>
<!-- Node18 -->
<g id="node18" class="node">
<title>Node18</title>
<g id="a_node18"><a xlink:title=" ">
<polygon fill="none" stroke="#bfbfbf" points="1131,-112.5 1131,-131.5 1186,-131.5 1186,-112.5 1131,-112.5"/>
<text text-anchor="middle" x="1158.5" y="-119.5" font-family="Helvetica,sans-Serif" font-size="10.00">fstream</text>
</a>
</g>
</g>
<!-- Node4&#45;&gt;Node18 -->
<g id="edge19" class="edge">
<title>Node4&#45;&gt;Node18</title>
<path fill="none" stroke="midnightblue" d="M960.85,-168.49C999.36,-160.1 1059.93,-146.72 1121.17,-132.28"/>
<polygon fill="midnightblue" stroke="midnightblue" points="1122.07,-135.66 1131,-129.95 1120.46,-128.85 1122.07,-135.66"/>
</g>
<!-- Node6 -->
<g id="node6" class="node">
<title>Node6</title>
<g id="a_node6"><a xlink:href="CPUID_8h.html" target="_top" xlink:title=" ">
<polygon fill="none" stroke="black" points="551,-56.5 551,-75.5 646,-75.5 646,-56.5 551,-56.5"/>
<text text-anchor="middle" x="598.5" y="-63.5" font-family="Helvetica,sans-Serif" font-size="10.00">include/CPUID.h</text>
</a>
</g>
</g>
<!-- Node5&#45;&gt;Node6 -->
<g id="edge5" class="edge">
<title>Node5&#45;&gt;Node6</title>
<path fill="none" stroke="midnightblue" d="M679.92,-112.32C664.5,-103.74 640.69,-90.49 622.79,-80.52"/>
<polygon fill="midnightblue" stroke="midnightblue" points="624.49,-77.46 614.05,-75.65 621.08,-83.58 624.49,-77.46"/>
</g>
<!-- Node7 -->
<g id="node7" class="node">
<title>Node7</title>
<g id="a_node7"><a xlink:title=" ">
<polygon fill="none" stroke="#bfbfbf" points="434.5,-0.5 434.5,-19.5 498.5,-19.5 498.5,-0.5 434.5,-0.5"/>
<text text-anchor="middle" x="466.5" y="-7.5" font-family="Helvetica,sans-Serif" font-size="10.00">algorithm</text>
</a>
</g>
</g>
<!-- Node5&#45;&gt;Node7 -->
<g id="edge10" class="edge">
<title>Node5&#45;&gt;Node7</title>
<path fill="none" stroke="midnightblue" d="M647.98,-112.44C616.71,-105.53 575.6,-93.95 542.5,-76 518.8,-63.15 495.9,-41.98 481.54,-27.31"/>
<polygon fill="midnightblue" stroke="midnightblue" points="483.92,-24.74 474.49,-19.92 478.86,-29.57 483.92,-24.74"/>
</g>
<!-- Node5&#45;&gt;Node9 -->
<g id="edge14" class="edge">
<title>Node5&#45;&gt;Node9</title>
<path fill="none" stroke="midnightblue" d="M693.54,-112.37C689.5,-94.62 680.2,-53.67 674.73,-29.6"/>
<polygon fill="midnightblue" stroke="midnightblue" points="678.08,-28.57 672.45,-19.59 671.26,-30.12 678.08,-28.57"/>
</g>
<!-- Node11 -->
<g id="node11" class="node">
<title>Node11</title>
<g id="a_node11"><a xlink:title=" ">
<polygon fill="none" stroke="#bfbfbf" points="702.5,-56.5 702.5,-75.5 754.5,-75.5 754.5,-56.5 702.5,-56.5"/>
<text text-anchor="middle" x="728.5" y="-63.5" font-family="Helvetica,sans-Serif" font-size="10.00">cassert</text>
</a>
</g>
</g>
<!-- Node5&#45;&gt;Node11 -->
<g id="edge11" class="edge">
<title>Node5&#45;&gt;Node11</title>
<path fill="none" stroke="midnightblue" d="M700.95,-112.08C705.51,-104.61 712.17,-93.72 717.79,-84.52"/>
<polygon fill="midnightblue" stroke="midnightblue" points="720.92,-86.11 723.15,-75.75 714.95,-82.46 720.92,-86.11"/>
</g>
<!-- Node12 -->
<g id="node12" class="node">
<title>Node12</title>
<g id="a_node12"><a xlink:title=" ">
<polygon fill="none" stroke="#bfbfbf" points="1239.5,-56.5 1239.5,-75.5 1271.5,-75.5 1271.5,-56.5 1239.5,-56.5"/>
<text text-anchor="middle" x="1255.5" y="-63.5" font-family="Helvetica,sans-Serif" font-size="10.00">list</text>
</a>
</g>
</g>
<!-- Node5&#45;&gt;Node12 -->
<g id="edge12" class="edge">
<title>Node5&#45;&gt;Node12</title>
<path fill="none" stroke="midnightblue" d="M754.11,-115.35C874.22,-103.77 1144.16,-77.74 1229.27,-69.53"/>
<polygon fill="midnightblue" stroke="midnightblue" points="1229.75,-73 1239.37,-68.56 1229.08,-66.03 1229.75,-73"/>
</g>
<!-- Node13 -->
<g id="node13" class="node">
<title>Node13</title>
<g id="a_node13"><a xlink:title=" ">
<polygon fill="none" stroke="#bfbfbf" points="374.5,-56.5 374.5,-75.5 412.5,-75.5 412.5,-56.5 374.5,-56.5"/>
<text text-anchor="middle" x="393.5" y="-63.5" font-family="Helvetica,sans-Serif" font-size="10.00">map</text>
</a>
</g>
</g>
<!-- Node5&#45;&gt;Node13 -->
<g id="edge13" class="edge">
<title>Node5&#45;&gt;Node13</title>
<path fill="none" stroke="midnightblue" d="M636.93,-112.94C582.22,-104.99 498.42,-91.78 426.5,-76 425.23,-75.72 423.93,-75.42 422.62,-75.11"/>
<polygon fill="midnightblue" stroke="midnightblue" points="423.17,-71.64 412.61,-72.56 421.44,-78.42 423.17,-71.64"/>
</g>
<!-- Node6&#45;&gt;Node7 -->
<g id="edge6" class="edge">
<title>Node6&#45;&gt;Node7</title>
<path fill="none" stroke="midnightblue" d="M577.58,-56.44C555.76,-47.52 521.35,-33.44 496.61,-23.32"/>
<polygon fill="midnightblue" stroke="midnightblue" points="497.9,-20.06 487.32,-19.52 495.25,-26.54 497.9,-20.06"/>
</g>
<!-- Node6&#45;&gt;Node8 -->
<g id="edge7" class="edge">
<title>Node6&#45;&gt;Node8</title>
<path fill="none" stroke="midnightblue" d="M646.32,-60.17C661.4,-58.73 678.14,-57.21 693.5,-56 949.28,-35.82 1257.24,-18.87 1366.05,-13.11"/>
<polygon fill="midnightblue" stroke="midnightblue" points="1366.44,-16.59 1376.24,-12.57 1366.07,-9.6 1366.44,-16.59"/>
</g>
<!-- Node6&#45;&gt;Node9 -->
<g id="edge8" class="edge">
<title>Node6&#45;&gt;Node9</title>
<path fill="none" stroke="midnightblue" d="M610.07,-56.32C620.92,-48.18 637.38,-35.84 650.38,-26.09"/>
<polygon fill="midnightblue" stroke="midnightblue" points="652.82,-28.63 658.72,-19.83 648.62,-23.03 652.82,-28.63"/>
</g>
<!-- Node10 -->
<g id="node10" class="node">
<title>Node10</title>
<g id="a_node10"><a xlink:title=" ">
<polygon fill="none" stroke="#bfbfbf" points="572,-0.5 572,-19.5 625,-19.5 625,-0.5 572,-0.5"/>
<text text-anchor="middle" x="598.5" y="-7.5" font-family="Helvetica,sans-Serif" font-size="10.00">stdint.h</text>
</a>
</g>
</g>
<!-- Node6&#45;&gt;Node10 -->
<g id="edge9" class="edge">
<title>Node6&#45;&gt;Node10</title>
<path fill="none" stroke="midnightblue" d="M598.5,-56.08C598.5,-49.01 598.5,-38.86 598.5,-29.99"/>
<polygon fill="midnightblue" stroke="midnightblue" points="602,-29.75 598.5,-19.75 595,-29.75 602,-29.75"/>
</g>
<!-- Node19&#45;&gt;Node9 -->
<g id="edge23" class="edge">
<title>Node19&#45;&gt;Node9</title>
<path fill="none" stroke="midnightblue" d="M346.26,-112.27C346.4,-98.11 348.91,-70.25 365.5,-56 411.25,-16.7 575.26,-31.33 634.5,-20 635.75,-19.76 637.01,-19.51 638.29,-19.24"/>
<polygon fill="midnightblue" stroke="midnightblue" points="639.14,-22.64 648.12,-17.01 637.59,-15.81 639.14,-22.64"/>
</g>
<!-- Node19&#45;&gt;Node13 -->
<g id="edge22" class="edge">
<title>Node19&#45;&gt;Node13</title>
<path fill="none" stroke="midnightblue" d="M354.26,-112.08C361.04,-104.3 371.04,-92.8 379.26,-83.37"/>
<polygon fill="midnightblue" stroke="midnightblue" points="381.96,-85.59 385.88,-75.75 376.68,-81 381.96,-85.59"/>
</g>
<!-- Node23&#45;&gt;Node2 -->
<g id="edge32" class="edge">
<title>Node23&#45;&gt;Node2</title>
<path fill="none" stroke="midnightblue" d="M301.66,-403.36C303.96,-388.53 310.21,-357.74 324.5,-336 332.29,-324.15 344.04,-313.62 354.4,-305.72"/>
<polygon fill="midnightblue" stroke="midnightblue" points="356.62,-308.44 362.66,-299.74 352.51,-302.77 356.62,-308.44"/>
</g>
<!-- Node24&#45;&gt;Node2 -->
<g id="edge34" class="edge">
<title>Node24&#45;&gt;Node2</title>
<path fill="none" stroke="midnightblue" d="M71.1,-403.41C58.82,-388.09 37.24,-355.83 54.5,-336 85.16,-300.76 210.79,-292.27 295.75,-290.68"/>
<polygon fill="midnightblue" stroke="midnightblue" points="295.96,-294.18 305.91,-290.52 295.85,-287.18 295.96,-294.18"/>
</g>
<!-- Node25 -->
<g id="node25" class="node">
<title>Node25</title>
<g id="a_node25"><a xlink:title=" ">
<polygon fill="none" stroke="#bfbfbf" points="64,-342 64,-361 157,-361 157,-342 64,-342"/>
<text text-anchor="middle" x="110.5" y="-349" font-family="Helvetica,sans-Serif" font-size="10.00">unordered_map</text>
</a>
</g>
</g>
<!-- Node24&#45;&gt;Node25 -->
<g id="edge35" class="edge">
<title>Node24&#45;&gt;Node25</title>
<path fill="none" stroke="midnightblue" d="M83.08,-403.48C87.74,-394.82 95.09,-381.15 101.01,-370.15"/>
<polygon fill="midnightblue" stroke="midnightblue" points="104.27,-371.47 105.92,-361.01 98.1,-368.16 104.27,-371.47"/>
</g>
<!-- Node26&#45;&gt;Node2 -->
<g id="edge37" class="edge">
<title>Node26&#45;&gt;Node2</title>
<path fill="none" stroke="midnightblue" d="M690.37,-411.9C600.49,-410.44 443.24,-402.69 400.5,-367 383.77,-353.03 378.54,-327.48 377,-309.89"/>
<polygon fill="midnightblue" stroke="midnightblue" points="380.48,-309.47 376.43,-299.68 373.49,-309.86 380.48,-309.47"/>
</g>
<!-- Node26&#45;&gt;Node4 -->
<g id="edge60" class="edge">
<title>Node26&#45;&gt;Node4</title>
<path fill="none" stroke="midnightblue" d="M767.97,-403.25C779.35,-395.17 795.24,-382.14 804.5,-367 838.81,-310.9 802.37,-276.1 842.5,-224 853.67,-209.5 870.92,-198.91 886.46,-191.65"/>
<polygon fill="midnightblue" stroke="midnightblue" points="888.08,-194.77 895.84,-187.56 885.28,-188.35 888.08,-194.77"/>
</g>
<!-- Node26&#45;&gt;Node14 -->
<g id="edge61" class="edge">
<title>Node26&#45;&gt;Node14</title>
<path fill="none" stroke="midnightblue" d="M690.48,-412.49C606.78,-411.6 466.98,-404.37 434.5,-367 425.46,-356.6 426.58,-347.27 434.5,-336 469.12,-286.7 654.88,-293.3 689.5,-244 720.53,-199.82 646,-156.64 601.62,-135.85"/>
<polygon fill="midnightblue" stroke="midnightblue" points="602.94,-132.6 592.39,-131.64 600.03,-138.97 602.94,-132.6"/>
</g>
<!-- Node26&#45;&gt;Node20 -->
<g id="edge62" class="edge">
<title>Node26&#45;&gt;Node20</title>
<path fill="none" stroke="midnightblue" d="M763.84,-403.37C778.16,-389.06 802.54,-359.66 789.5,-336 775.04,-309.76 757.76,-316.11 732.5,-300 705.21,-282.6 673.88,-262.4 653.44,-249.2"/>
<polygon fill="midnightblue" stroke="midnightblue" points="655.17,-246.15 644.87,-243.66 651.37,-252.03 655.17,-246.15"/>
</g>
<!-- Node27 -->
<g id="node27" class="node">
<title>Node27</title>
<g id="a_node27"><a xlink:href="MVPragmaHandler_8h.html" target="_top" xlink:title=" ">
<polygon fill="none" stroke="black" points="1161,-280.5 1161,-299.5 1316,-299.5 1316,-280.5 1161,-280.5"/>
<text text-anchor="middle" x="1238.5" y="-287.5" font-family="Helvetica,sans-Serif" font-size="10.00">include/MVPragmaHandler.h</text>
</a>
</g>
</g>
<!-- Node26&#45;&gt;Node27 -->
<g id="edge38" class="edge">
<title>Node26&#45;&gt;Node27</title>
<path fill="none" stroke="midnightblue" d="M818.66,-409.45C886.33,-405.35 995.42,-394.68 1085.5,-367 1134.41,-351.97 1186.87,-322.69 1215.9,-305.19"/>
<polygon fill="midnightblue" stroke="midnightblue" points="1218.1,-307.94 1224.8,-299.74 1214.44,-301.97 1218.1,-307.94"/>
</g>
<!-- Node26&#45;&gt;Node33 -->
<g id="edge49" class="edge">
<title>Node26&#45;&gt;Node33</title>
<path fill="none" stroke="midnightblue" d="M804.34,-403.44C850.91,-395.15 922.23,-381.7 983.5,-367 987.63,-366.01 991.93,-364.9 996.19,-363.76"/>
<polygon fill="midnightblue" stroke="midnightblue" points="997.31,-367.08 1006.02,-361.05 995.45,-360.34 997.31,-367.08"/>
</g>
<!-- Node35 -->
<g id="node35" class="node">
<title>Node35</title>
<g id="a_node35"><a xlink:title=" ">
<polygon fill="none" stroke="#bfbfbf" points="874.5,-342 874.5,-361 974.5,-361 974.5,-342 874.5,-342"/>
<text text-anchor="middle" x="924.5" y="-349" font-family="Helvetica,sans-Serif" font-size="10.00">clang/AST/Stmt.h</text>
</a>
</g>
</g>
<!-- Node26&#45;&gt;Node35 -->
<g id="edge63" class="edge">
<title>Node26&#45;&gt;Node35</title>
<path fill="none" stroke="midnightblue" d="M778.86,-403.48C808.14,-393.22 857.47,-375.96 890.5,-364.4"/>
<polygon fill="midnightblue" stroke="midnightblue" points="891.91,-367.62 900.19,-361.01 889.59,-361.01 891.91,-367.62"/>
</g>
<!-- Node36 -->
<g id="node36" class="node">
<title>Node36</title>
<g id="a_node36"><a xlink:title=" ">
<polygon fill="none" stroke="#bfbfbf" points="443,-336.5 443,-366.5 604,-366.5 604,-336.5 443,-336.5"/>
<text text-anchor="start" x="451" y="-354.5" font-family="Helvetica,sans-Serif" font-size="10.00">clang/ASTMatchers/ASTMatch</text>
<text text-anchor="middle" x="523.5" y="-343.5" font-family="Helvetica,sans-Serif" font-size="10.00">Finder.h</text>
</a>
</g>
</g>
<!-- Node26&#45;&gt;Node36 -->
<g id="edge64" class="edge">
<title>Node26&#45;&gt;Node36</title>
<path fill="none" stroke="midnightblue" d="M721.4,-403.48C686.68,-394.53 631.23,-380.25 587.85,-369.07"/>
<polygon fill="midnightblue" stroke="midnightblue" points="588.5,-365.63 577.94,-366.52 586.75,-372.41 588.5,-365.63"/>
</g>
<!-- Node37 -->
<g id="node37" class="node">
<title>Node37</title>
<g id="a_node37"><a xlink:title=" ">
<polygon fill="none" stroke="#bfbfbf" points="622.5,-342 622.5,-361 780.5,-361 780.5,-342 622.5,-342"/>
<text text-anchor="middle" x="701.5" y="-349" font-family="Helvetica,sans-Serif" font-size="10.00">clang/Basic/SourceLocation.h</text>
</a>
</g>
</g>
<!-- Node26&#45;&gt;Node37 -->
<g id="edge65" class="edge">
<title>Node26&#45;&gt;Node37</title>
<path fill="none" stroke="midnightblue" d="M746.91,-403.48C738.8,-394.37 725.77,-379.74 715.74,-368.48"/>
<polygon fill="midnightblue" stroke="midnightblue" points="718.34,-366.15 709.08,-361.01 713.12,-370.8 718.34,-366.15"/>
</g>
<!-- Node27&#45;&gt;Node3 -->
<g id="edge39" class="edge">
<title>Node27&#45;&gt;Node3</title>
<path fill="none" stroke="midnightblue" d="M1184.63,-280.44C1122.24,-270.54 1019.89,-254.28 956,-244.13"/>
<polygon fill="midnightblue" stroke="midnightblue" points="956.51,-240.67 946.09,-242.56 955.41,-247.58 956.51,-240.67"/>
</g>
<!-- Node27&#45;&gt;Node8 -->
<g id="edge47" class="edge">
<title>Node27&#45;&gt;Node8</title>
<path fill="none" stroke="midnightblue" d="M1316.26,-283.22C1384.36,-276.88 1477.08,-264.73 1507.5,-244 1535.34,-225.03 1546.5,-212.69 1546.5,-179 1546.5,-179 1546.5,-179 1546.5,-121 1546.5,-69.35 1486.85,-38.26 1445.42,-22.9"/>
<polygon fill="midnightblue" stroke="midnightblue" points="1446.44,-19.54 1435.85,-19.5 1444.1,-26.14 1446.44,-19.54"/>
</g>
<!-- Node27&#45;&gt;Node16 -->
<g id="edge45" class="edge">
<title>Node27&#45;&gt;Node16</title>
<path fill="none" stroke="midnightblue" d="M1316.19,-285.69C1381.52,-281.08 1467.66,-270.1 1489.5,-244 1520.41,-207.06 1460.37,-160.15 1424.92,-137.09"/>
<polygon fill="midnightblue" stroke="midnightblue" points="1426.41,-133.9 1416.09,-131.51 1422.67,-139.81 1426.41,-133.9"/>
</g>
<!-- Node28 -->
<g id="node28" class="node">
<title>Node28</title>
<g id="a_node28"><a xlink:href="MVAssert_8h.html" target="_top" xlink:title=" ">
<polygon fill="none" stroke="black" points="1002.5,-224.5 1002.5,-243.5 1112.5,-243.5 1112.5,-224.5 1002.5,-224.5"/>
<text text-anchor="middle" x="1057.5" y="-231.5" font-family="Helvetica,sans-Serif" font-size="10.00">include/MVAssert.h</text>
</a>
</g>
</g>
<!-- Node27&#45;&gt;Node28 -->
<g id="edge40" class="edge">
<title>Node27&#45;&gt;Node28</title>
<path fill="none" stroke="midnightblue" d="M1209.82,-280.44C1178.97,-271.24 1129.77,-256.56 1095.67,-246.39"/>
<polygon fill="midnightblue" stroke="midnightblue" points="1096.63,-243.02 1086.05,-243.52 1094.63,-249.73 1096.63,-243.02"/>
</g>
<!-- Node30 -->
<g id="node30" class="node">
<title>Node30</title>
<g id="a_node30"><a xlink:title=" ">
<polygon fill="none" stroke="#bfbfbf" points="1327,-224.5 1327,-243.5 1480,-243.5 1480,-224.5 1327,-224.5"/>
<text text-anchor="middle" x="1403.5" y="-231.5" font-family="Helvetica,sans-Serif" font-size="10.00">clang/Basic/IdentifierTable.h</text>
</a>
</g>
</g>
<!-- Node27&#45;&gt;Node30 -->
<g id="edge44" class="edge">
<title>Node27&#45;&gt;Node30</title>
<path fill="none" stroke="midnightblue" d="M1264.64,-280.44C1292.52,-271.32 1336.85,-256.81 1367.9,-246.65"/>
<polygon fill="midnightblue" stroke="midnightblue" points="1369.06,-249.95 1377.48,-243.52 1366.88,-243.3 1369.06,-249.95"/>
</g>
<!-- Node31 -->
<g id="node31" class="node">
<title>Node31</title>
<g id="a_node31"><a xlink:title=" ">
<polygon fill="none" stroke="#bfbfbf" points="1131,-224.5 1131,-243.5 1244,-243.5 1244,-224.5 1131,-224.5"/>
<text text-anchor="middle" x="1187.5" y="-231.5" font-family="Helvetica,sans-Serif" font-size="10.00">clang/Parse/Parser.h</text>
</a>
</g>
</g>
<!-- Node27&#45;&gt;Node31 -->
<g id="edge46" class="edge">
<title>Node27&#45;&gt;Node31</title>
<path fill="none" stroke="midnightblue" d="M1230.08,-280.08C1222.65,-272.22 1211.65,-260.57 1202.69,-251.08"/>
<polygon fill="midnightblue" stroke="midnightblue" points="1205.18,-248.62 1195.76,-243.75 1200.09,-253.42 1205.18,-248.62"/>
</g>
<!-- Node32 -->
<g id="node32" class="node">
<title>Node32</title>
<g id="a_node32"><a xlink:title=" ">
<polygon fill="none" stroke="#bfbfbf" points="1262,-224.5 1262,-243.5 1309,-243.5 1309,-224.5 1262,-224.5"/>
<text text-anchor="middle" x="1285.5" y="-231.5" font-family="Helvetica,sans-Serif" font-size="10.00">vector</text>
</a>
</g>
</g>
<!-- Node27&#45;&gt;Node32 -->
<g id="edge48" class="edge">
<title>Node27&#45;&gt;Node32</title>
<path fill="none" stroke="midnightblue" d="M1246.26,-280.08C1253.04,-272.3 1263.04,-260.8 1271.26,-251.37"/>
<polygon fill="midnightblue" stroke="midnightblue" points="1273.96,-253.59 1277.88,-243.75 1268.68,-249 1273.96,-253.59"/>
</g>
<!-- Node28&#45;&gt;Node8 -->
<g id="edge41" class="edge">
<title>Node28&#45;&gt;Node8</title>
<path fill="none" stroke="midnightblue" d="M1112.92,-225.27C1164.66,-217.56 1243.84,-204.5 1311.5,-188 1392.48,-168.24 1441.13,-199.17 1490.5,-132 1518.44,-93.98 1462.47,-47.91 1429.03,-25.14"/>
<polygon fill="midnightblue" stroke="midnightblue" points="1430.95,-22.22 1420.68,-19.62 1427.09,-28.06 1430.95,-22.22"/>
</g>
<!-- Node28&#45;&gt;Node9 -->
<g id="edge43" class="edge">
<title>Node28&#45;&gt;Node9</title>
<path fill="none" stroke="midnightblue" d="M1082.48,-224.39C1132.2,-205.96 1235.47,-160.4 1195.5,-112 1132.2,-35.37 807.36,-16.27 702.9,-12.07"/>
<polygon fill="midnightblue" stroke="midnightblue" points="702.78,-8.56 692.66,-11.68 702.52,-15.56 702.78,-8.56"/>
</g>
<!-- Node29 -->
<g id="node29" class="node">
<title>Node29</title>
<g id="a_node29"><a xlink:title=" ">
<polygon fill="none" stroke="#bfbfbf" points="1243,-168.5 1243,-187.5 1302,-187.5 1302,-168.5 1243,-168.5"/>
<text text-anchor="middle" x="1272.5" y="-175.5" font-family="Helvetica,sans-Serif" font-size="10.00">setjmp.h</text>
</a>
</g>
</g>
<!-- Node28&#45;&gt;Node29 -->
<g id="edge42" class="edge">
<title>Node28&#45;&gt;Node29</title>
<path fill="none" stroke="midnightblue" d="M1091.57,-224.44C1129.99,-214.79 1192.39,-199.12 1232.94,-188.94"/>
<polygon fill="midnightblue" stroke="midnightblue" points="1233.9,-192.3 1242.75,-186.47 1232.19,-185.51 1233.9,-192.3"/>
</g>
<!-- Node33&#45;&gt;Node2 -->
<g id="edge51" class="edge">
<title>Node33&#45;&gt;Node2</title>
<path fill="none" stroke="midnightblue" d="M1008.27,-341.94C1000.38,-339.67 991.66,-337.45 983.5,-336 797.16,-302.96 574.46,-294.12 457.48,-291.8"/>
<polygon fill="midnightblue" stroke="midnightblue" points="457.24,-288.29 447.18,-291.6 457.11,-295.29 457.24,-288.29"/>
</g>
<!-- Node33&#45;&gt;Node3 -->
<g id="edge50" class="edge">
<title>Node33&#45;&gt;Node3</title>
<path fill="none" stroke="midnightblue" d="M1004.86,-341.94C965.24,-330.21 899.21,-309.51 892.5,-300 883.02,-286.57 886.21,-267.5 890.75,-253.48"/>
<polygon fill="midnightblue" stroke="midnightblue" points="894.1,-254.52 894.3,-243.93 887.54,-252.08 894.1,-254.52"/>
</g>
<!-- Node33&#45;&gt;Node4 -->
<g id="edge55" class="edge">
<title>Node33&#45;&gt;Node4</title>
<path fill="none" stroke="midnightblue" d="M1032.38,-341.82C1028.78,-328.06 1020.68,-300.68 1008.5,-280 988.77,-246.5 957.47,-213.47 938.28,-194.72"/>
<polygon fill="midnightblue" stroke="midnightblue" points="940.5,-192 930.87,-187.6 935.65,-197.05 940.5,-192"/>
</g>
<!-- Node33&#45;&gt;Node8 -->
<g id="edge57" class="edge">
<title>Node33&#45;&gt;Node8</title>
<path fill="none" stroke="midnightblue" d="M1076.32,-351.18C1210.65,-352.25 1622.5,-346.45 1622.5,-235 1622.5,-235 1622.5,-235 1622.5,-121 1622.5,-43.03 1509.35,-20.3 1446.84,-13.69"/>
<polygon fill="midnightblue" stroke="midnightblue" points="1446.82,-10.18 1436.53,-12.7 1446.15,-17.14 1446.82,-10.18"/>
</g>
<!-- Node33&#45;&gt;Node9 -->
<g id="edge59" class="edge">
<title>Node33&#45;&gt;Node9</title>
<path fill="none" stroke="midnightblue" d="M1005.41,-341.98C963.93,-329.68 891.65,-307.57 881.5,-300 857.18,-281.87 857.12,-270.57 842.5,-244 798.8,-164.6 825.87,-121.76 763.5,-56 746.92,-38.52 722.14,-27 702.33,-19.99"/>
<polygon fill="midnightblue" stroke="midnightblue" points="703.37,-16.65 692.77,-16.82 701.16,-23.29 703.37,-16.65"/>
</g>
<!-- Node33&#45;&gt;Node12 -->
<g id="edge58" class="edge">
<title>Node33&#45;&gt;Node12</title>
<path fill="none" stroke="midnightblue" d="M1076.29,-350.61C1204.64,-349.84 1584.5,-338.79 1584.5,-235 1584.5,-235 1584.5,-235 1584.5,-177 1584.5,-113.3 1359.83,-79.76 1281.81,-70.04"/>
<polygon fill="midnightblue" stroke="midnightblue" points="1282.16,-66.55 1271.82,-68.82 1281.32,-73.5 1282.16,-66.55"/>
</g>
<!-- Node33&#45;&gt;Node14 -->
<g id="edge56" class="edge">
<title>Node33&#45;&gt;Node14</title>
<path fill="none" stroke="midnightblue" d="M1006.01,-342C998.7,-339.93 990.83,-337.79 983.5,-336 906.37,-317.13 874.36,-344.37 808.5,-300 750.02,-260.61 777.14,-210 720.5,-168 704.48,-156.12 657.39,-142.98 620.39,-133.98"/>
<polygon fill="midnightblue" stroke="midnightblue" points="620.8,-130.48 610.26,-131.56 619.17,-137.29 620.8,-130.48"/>
</g>
<!-- Node34 -->
<g id="node34" class="node">
<title>Node34</title>
<g id="a_node34"><a xlink:href="MVOps_8h.html" target="_top" xlink:title=" ">
<polygon fill="none" stroke="black" points="901.5,-280.5 901.5,-299.5 999.5,-299.5 999.5,-280.5 901.5,-280.5"/>
<text text-anchor="middle" x="950.5" y="-287.5" font-family="Helvetica,sans-Serif" font-size="10.00">include/MVOps.h</text>
</a>
</g>
</g>
<!-- Node33&#45;&gt;Node34 -->
<g id="edge52" class="edge">
<title>Node33&#45;&gt;Node34</title>
<path fill="none" stroke="midnightblue" d="M1022.46,-341.98C1008.99,-332.43 986.93,-316.81 970.78,-305.37"/>
<polygon fill="midnightblue" stroke="midnightblue" points="972.7,-302.43 962.51,-299.51 968.65,-308.15 972.7,-302.43"/>
</g>
<!-- Node34&#45;&gt;Node20 -->
<g id="edge54" class="edge">
<title>Node34&#45;&gt;Node20</title>
<path fill="none" stroke="midnightblue" d="M901.36,-280.68C844.69,-271.09 751.57,-255.32 690.89,-245.05"/>
<polygon fill="midnightblue" stroke="midnightblue" points="691.14,-241.55 680.7,-243.33 689.98,-248.45 691.14,-241.55"/>
</g>
<!-- Node34&#45;&gt;Node28 -->
<g id="edge53" class="edge">
<title>Node34&#45;&gt;Node28</title>
<path fill="none" stroke="midnightblue" d="M967.69,-280.32C984.85,-271.66 1011.45,-258.24 1031.25,-248.25"/>
<polygon fill="midnightblue" stroke="midnightblue" points="1033,-251.28 1040.35,-243.65 1029.85,-245.04 1033,-251.28"/>
</g>
</g>
</svg>
        <g id="navigator" transform="translate(0 0)" fill="#404254">
                <rect fill="#f2f5e9" fill-opacity="0.5" stroke="#606060" stroke-width=".5" x="0" y="0" width="60" height="60"/>
                <use id="zoomplus" xlink:href="#zoomPlus" x="17" y="9" onmousedown="handleZoom(evt,'in')"/>
                <use id="zoomminus" xlink:href="#zoomMin" x="42" y="9" onmousedown="handleZoom(evt,'out')"/>
                <use id="reset" xlink:href="#resetDef" x="30" y="36" onmousedown="handleReset()"/>
                <g id="arrowUp" xlink:href="#dirArrow" transform="translate(30 24)" onmousedown="handlePan(0,-1)">
                  <use xlink:href="#rim" fill="#404040">
                        <set attributeName="fill" to="#808080" begin="arrowUp.mouseover" end="arrowUp.mouseout"/>
                  </use>
                  <path fill="none" stroke="white" stroke-width="1.5" d="M0,-3.0v7 M-2.5,-0.5L0,-3.0L2.5,-0.5"/>
                </g>
                <g id="arrowRight" xlink:href="#dirArrow" transform="rotate(90) translate(36 -43)" onmousedown="handlePan(1,0)">
                  <use xlink:href="#rim" fill="#404040">
                        <set attributeName="fill" to="#808080" begin="arrowRight.mouseover" end="arrowRight.mouseout"/>
                  </use>
                  <path fill="none" stroke="white" stroke-width="1.5" d="M0,-3.0v7 M-2.5,-0.5L0,-3.0L2.5,-0.5"/>
                </g>
                <g id="arrowDown" xlink:href="#dirArrow" transform="rotate(180) translate(-30 -48)" onmousedown="handlePan(0,1)">
                  <use xlink:href="#rim" fill="#404040">
                        <set attributeName="fill" to="#808080" begin="arrowDown.mouseover" end="arrowDown.mouseout"/>
                  </use>
                  <path fill="none" stroke="white" stroke-width="1.5" d="M0,-3.0v7 M-2.5,-0.5L0,-3.0L2.5,-0.5"/>
                </g>
                <g id="arrowLeft" xlink:href="#dirArrow" transform="rotate(270) translate(-36 17)" onmousedown="handlePan(-1,0)">
                  <use xlink:href="#rim" fill="#404040">
                        <set attributeName="fill" to="#808080" begin="arrowLeft.mouseover" end="arrowLeft.mouseout"/>
                  </use>
                  <path fill="none" stroke="white" stroke-width="1.5" d="M0,-3.0v7 M-2.5,-0.5L0,-3.0L2.5,-0.5"/>
                </g>
        </g>
        <svg viewBox="0 0 15 15" width="100%" height="30px" preserveAspectRatio="xMaxYMin meet">
         <g id="arrow_out" transform="scale(0.3 0.3)">
          <a xlink:href="Node_8h__incl_org.svg" target="_base">
           <rect id="button" ry="5" rx="5" y="6" x="6" height="38" width="38"
                fill="#f2f5e9" fill-opacity="0.5" stroke="#606060" stroke-width="1.0"/>
           <path id="arrow"
             d="M 11.500037,31.436501 C 11.940474,20.09759 22.043105,11.32322 32.158766,21.979434 L 37.068811,17.246167 C 37.068811,17.246167 37.088388,32 37.088388,32 L 22.160133,31.978069 C 22.160133,31.978069 26.997745,27.140456 26.997745,27.140456 C 18.528582,18.264221 13.291696,25.230495 11.500037,31.436501 z"
             style="fill:#404040;"/>
          </a>
         </g>
        </svg>
</svg>
