<?xml version="1.0" encoding="UTF-8" standalone="no"?>
<!DOCTYPE svg PUBLIC "-//W3C//DTD SVG 1.1//EN"
 "http://www.w3.org/Graphics/SVG/1.1/DTD/svg11.dtd">
<!-- Generated by graphviz version 2.43.0 (0)
 -->
<!-- Title: include/Vectorization/SIMD/SIMDBackEnd.h Pages: 1 -->
<svg width="601pt" height="229pt"
 viewBox="0.00 0.00 600.50 229.00" xmlns="http://www.w3.org/2000/svg" xmlns:xlink="http://www.w3.org/1999/xlink">
<g id="graph0" class="graph" transform="scale(1 1) rotate(0) translate(4 225)">
<title>include/Vectorization/SIMD/SIMDBackEnd.h</title>
<!-- Node1 -->
<g id="node1" class="node">
<title>Node1</title>
<g id="a_node1"><a xlink:title=" ">
<polygon fill="#bfbfbf" stroke="black" points="200,-190.5 200,-220.5 325,-220.5 325,-190.5 200,-190.5"/>
<text text-anchor="start" x="208" y="-208.5" font-family="Helvetica,sans-Serif" font-size="10.00">include/Vectorization</text>
<text text-anchor="middle" x="262.5" y="-197.5" font-family="Helvetica,sans-Serif" font-size="10.00">/SIMD/SIMDBackEnd.h</text>
</a>
</g>
</g>
<!-- Node2 -->
<g id="node2" class="node">
<title>Node2</title>
<g id="a_node2"><a xlink:href="MVCostModel_8h.html" target="_top" xlink:title=" ">
<polygon fill="none" stroke="black" points="0,-56.5 0,-86.5 147,-86.5 147,-56.5 0,-56.5"/>
<text text-anchor="start" x="8" y="-74.5" font-family="Helvetica,sans-Serif" font-size="10.00">include/CostModel/MVCost</text>
<text text-anchor="middle" x="73.5" y="-63.5" font-family="Helvetica,sans-Serif" font-size="10.00">Model.h</text>
</a>
</g>
</g>
<!-- Node1&#45;&gt;Node2 -->
<g id="edge1" class="edge">
<title>Node1&#45;&gt;Node2</title>
<path fill="none" stroke="midnightblue" d="M189.77,-199.03C127.32,-192.64 44.18,-179.51 23.5,-154 5.83,-132.21 33.28,-103.67 53.98,-86.79"/>
<polygon fill="midnightblue" stroke="midnightblue" points="189.7,-202.54 199.99,-200.03 190.38,-195.57 189.7,-202.54"/>
</g>
<!-- Node3 -->
<g id="node3" class="node">
<title>Node3</title>
<g id="a_node3"><a xlink:href="SIMDCostInfo_8h.html" target="_top" xlink:title=" ">
<polygon fill="none" stroke="black" points="33,-123.5 33,-153.5 190,-153.5 190,-123.5 33,-123.5"/>
<text text-anchor="start" x="41" y="-141.5" font-family="Helvetica,sans-Serif" font-size="10.00">include/CostModel/SIMDCost</text>
<text text-anchor="middle" x="111.5" y="-130.5" font-family="Helvetica,sans-Serif" font-size="10.00">Info.h</text>
</a>
</g>
</g>
<!-- Node1&#45;&gt;Node3 -->
<g id="edge2" class="edge">
<title>Node1&#45;&gt;Node3</title>
<path fill="none" stroke="midnightblue" d="M220.47,-186.41C196.36,-176.03 166.55,-163.2 144.2,-153.58"/>
<polygon fill="midnightblue" stroke="midnightblue" points="219.17,-189.66 229.74,-190.4 221.93,-183.23 219.17,-189.66"/>
</g>
<!-- Node4 -->
<g id="node4" class="node">
<title>Node4</title>
<g id="a_node4"><a xlink:href="MVFrontend_8h.html" target="_top" xlink:title=" ">
<polygon fill="none" stroke="black" points="195.5,-62 195.5,-81 317.5,-81 317.5,-62 195.5,-62"/>
<text text-anchor="middle" x="256.5" y="-69" font-family="Helvetica,sans-Serif" font-size="10.00">include/MVFrontend.h</text>
</a>
</g>
</g>
<!-- Node1&#45;&gt;Node4 -->
<g id="edge4" class="edge">
<title>Node1&#45;&gt;Node4</title>
<path fill="none" stroke="midnightblue" d="M248.29,-181.41C243.93,-173.08 239.7,-163.41 237.5,-154 231.28,-127.4 244.44,-95.92 251.87,-81.07"/>
<polygon fill="midnightblue" stroke="midnightblue" points="245.24,-183.13 253.17,-190.15 251.35,-179.72 245.24,-183.13"/>
</g>
<!-- Node6 -->
<g id="node6" class="node">
<title>Node6</title>
<g id="a_node6"><a xlink:href="MVRewriter_8h.html" target="_top" xlink:title=" ">
<polygon fill="none" stroke="black" points="246.5,-129 246.5,-148 366.5,-148 366.5,-129 246.5,-129"/>
<text text-anchor="middle" x="306.5" y="-136" font-family="Helvetica,sans-Serif" font-size="10.00">include/MVRewriter.h</text>
</a>
</g>
</g>
<!-- Node1&#45;&gt;Node6 -->
<g id="edge6" class="edge">
<title>Node1&#45;&gt;Node6</title>
<path fill="none" stroke="midnightblue" d="M277.75,-181.97C285.63,-170.33 294.79,-156.8 300.61,-148.19"/>
<polygon fill="midnightblue" stroke="midnightblue" points="274.75,-180.15 272.05,-190.4 280.55,-184.08 274.75,-180.15"/>
</g>
<!-- Node7 -->
<g id="node7" class="node">
<title>Node7</title>
<g id="a_node7"><a xlink:href="AVX2BackEnd_8h.html" target="_top" xlink:title=" ">
<polygon fill="none" stroke="black" points="385,-123.5 385,-153.5 538,-153.5 538,-123.5 385,-123.5"/>
<text text-anchor="start" x="393" y="-141.5" font-family="Helvetica,sans-Serif" font-size="10.00">include/Vectorization</text>
<text text-anchor="middle" x="461.5" y="-130.5" font-family="Helvetica,sans-Serif" font-size="10.00">/SIMD/AVX2/AVX2BackEnd.h</text>
</a>
</g>
</g>
<!-- Node1&#45;&gt;Node7 -->
<g id="edge8" class="edge">
<title>Node1&#45;&gt;Node7</title>
<path fill="none" stroke="midnightblue" d="M315.38,-187.23C347.57,-176.71 388.17,-163.45 418.4,-153.58"/>
<polygon fill="midnightblue" stroke="midnightblue" points="314.1,-183.96 305.68,-190.4 316.27,-190.62 314.1,-183.96"/>
</g>
<!-- Node8 -->
<g id="node8" class="node">
<title>Node8</title>
<g id="a_node8"><a xlink:href="SIMDBackEndFactory_8h.html" target="_top" xlink:title=" ">
<polygon fill="none" stroke="black" points="434.5,-56.5 434.5,-86.5 592.5,-86.5 592.5,-56.5 434.5,-56.5"/>
<text text-anchor="start" x="442.5" y="-74.5" font-family="Helvetica,sans-Serif" font-size="10.00">include/Vectorization</text>
<text text-anchor="middle" x="513.5" y="-63.5" font-family="Helvetica,sans-Serif" font-size="10.00">/SIMD/SIMDBackEndFactory.h</text>
</a>
</g>
</g>
<!-- Node1&#45;&gt;Node8 -->
<g id="edge10" class="edge">
<title>Node1&#45;&gt;Node8</title>
<path fill="none" stroke="midnightblue" d="M335.51,-201.9C410.82,-197.49 520.94,-185.67 547.5,-154 564.44,-133.79 543.27,-103.95 527.55,-86.54"/>
<polygon fill="midnightblue" stroke="midnightblue" points="334.91,-198.42 325.12,-202.47 335.3,-205.41 334.91,-198.42"/>
</g>
<!-- Node3&#45;&gt;Node2 -->
<g id="edge3" class="edge">
<title>Node3&#45;&gt;Node2</title>
<path fill="none" stroke="midnightblue" d="M98.1,-114.58C92.64,-105.24 86.51,-94.75 81.73,-86.58"/>
<polygon fill="midnightblue" stroke="midnightblue" points="95.19,-116.53 103.25,-123.4 101.23,-113 95.19,-116.53"/>
</g>
<!-- Node5 -->
<g id="node5" class="node">
<title>Node5</title>
<g id="a_node5"><a xlink:href="macveth_8cpp.html" target="_top" xlink:title=" ">
<polygon fill="none" stroke="black" points="209,-0.5 209,-19.5 304,-19.5 304,-0.5 209,-0.5"/>
<text text-anchor="middle" x="256.5" y="-7.5" font-family="Helvetica,sans-Serif" font-size="10.00">lib/macveth.cpp</text>
</a>
</g>
</g>
<!-- Node4&#45;&gt;Node5 -->
<g id="edge5" class="edge">
<title>Node4&#45;&gt;Node5</title>
<path fill="none" stroke="midnightblue" d="M256.5,-51.82C256.5,-41 256.5,-27.9 256.5,-19.51"/>
<polygon fill="midnightblue" stroke="midnightblue" points="253,-51.98 256.5,-61.98 260,-51.98 253,-51.98"/>
</g>
<!-- Node6&#45;&gt;Node4 -->
<g id="edge7" class="edge">
<title>Node6&#45;&gt;Node4</title>
<path fill="none" stroke="midnightblue" d="M293.63,-120.77C283.88,-108.1 270.89,-91.2 263.14,-81.13"/>
<polygon fill="midnightblue" stroke="midnightblue" points="290.89,-122.94 299.76,-128.73 296.43,-118.67 290.89,-122.94"/>
</g>
<!-- Node7&#45;&gt;Node8 -->
<g id="edge9" class="edge">
<title>Node7&#45;&gt;Node8</title>
<path fill="none" stroke="midnightblue" d="M479.14,-115.45C486.78,-105.9 495.5,-95 502.24,-86.58"/>
<polygon fill="midnightblue" stroke="midnightblue" points="476.3,-113.4 472.78,-123.4 481.76,-117.77 476.3,-113.4"/>
</g>
</g>
</svg>
