<?xml version="1.0" encoding="UTF-8" standalone="no"?>
<!DOCTYPE svg PUBLIC "-//W3C//DTD SVG 1.1//EN"
 "http://www.w3.org/Graphics/SVG/1.1/DTD/svg11.dtd">
<!-- Generated by graphviz version 2.43.0 (0)
 -->
<!-- Title: include/CostModel/SIMDCostInfo.h Pages: 1 -->
<svg width="1811pt" height="688pt"
 viewBox="0.00 0.00 1810.79 688.00" xmlns="http://www.w3.org/2000/svg" xmlns:xlink="http://www.w3.org/1999/xlink">
<g id="graph0" class="graph" transform="scale(1 1) rotate(0) translate(4 684)">
<title>include/CostModel/SIMDCostInfo.h</title>
<!-- Node1 -->
<g id="node1" class="node">
<title>Node1</title>
<g id="a_node1"><a xlink:title=" ">
<polygon fill="#bfbfbf" stroke="black" points="0,-649.5 0,-679.5 157,-679.5 157,-649.5 0,-649.5"/>
<text text-anchor="start" x="8" y="-667.5" font-family="Helvetica,sans-Serif" font-size="10.00">include/CostModel/SIMDCost</text>
<text text-anchor="middle" x="78.5" y="-656.5" font-family="Helvetica,sans-Serif" font-size="10.00">Info.h</text>
</a>
</g>
</g>
<!-- Node2 -->
<g id="node2" class="node">
<title>Node2</title>
<g id="a_node2"><a xlink:href="CostTable_8h.html" target="_top" xlink:title=" ">
<polygon fill="none" stroke="black" points="68.5,-342 68.5,-361 234.5,-361 234.5,-342 68.5,-342"/>
<text text-anchor="middle" x="151.5" y="-349" font-family="Helvetica,sans-Serif" font-size="10.00">include/CostModel/CostTable.h</text>
</a>
</g>
</g>
<!-- Node1&#45;&gt;Node2 -->
<g id="edge1" class="edge">
<title>Node1&#45;&gt;Node2</title>
<path fill="none" stroke="midnightblue" d="M78.5,-649.24C78.5,-625.03 78.5,-574.35 78.5,-531.5 78.5,-531.5 78.5,-531.5 78.5,-468 78.5,-426.98 111.8,-388.68 133.42,-368.14"/>
<polygon fill="midnightblue" stroke="midnightblue" points="136.03,-370.5 141.04,-361.17 131.3,-365.34 136.03,-370.5"/>
</g>
<!-- Node12 -->
<g id="node12" class="node">
<title>Node12</title>
<g id="a_node12"><a xlink:title=" ">
<polygon fill="none" stroke="#bfbfbf" points="122.5,-56.5 122.5,-75.5 160.5,-75.5 160.5,-56.5 122.5,-56.5"/>
<text text-anchor="middle" x="141.5" y="-63.5" font-family="Helvetica,sans-Serif" font-size="10.00">map</text>
</a>
</g>
</g>
<!-- Node1&#45;&gt;Node12 -->
<g id="edge88" class="edge">
<title>Node1&#45;&gt;Node12</title>
<path fill="none" stroke="midnightblue" d="M63.48,-649.23C41.34,-626.55 2.5,-579.89 2.5,-531.5 2.5,-531.5 2.5,-531.5 2.5,-177 2.5,-121.25 72.1,-89.32 112.8,-75.42"/>
<polygon fill="midnightblue" stroke="midnightblue" points="114.04,-78.69 122.46,-72.26 111.87,-72.04 114.04,-78.69"/>
</g>
<!-- Node20 -->
<g id="node20" class="node">
<title>Node20</title>
<g id="a_node20"><a xlink:href="SIMDBackEnd_8h.html" target="_top" xlink:title=" ">
<polygon fill="none" stroke="black" points="153,-582.5 153,-612.5 278,-612.5 278,-582.5 153,-582.5"/>
<text text-anchor="start" x="161" y="-600.5" font-family="Helvetica,sans-Serif" font-size="10.00">include/Vectorization</text>
<text text-anchor="middle" x="215.5" y="-589.5" font-family="Helvetica,sans-Serif" font-size="10.00">/SIMD/SIMDBackEnd.h</text>
</a>
</g>
</g>
<!-- Node1&#45;&gt;Node20 -->
<g id="edge24" class="edge">
<title>Node1&#45;&gt;Node20</title>
<path fill="none" stroke="midnightblue" d="M108.23,-649.4C128.24,-639.9 154.85,-627.28 176.55,-616.98"/>
<polygon fill="midnightblue" stroke="midnightblue" points="178.3,-620.03 185.83,-612.58 175.3,-613.7 178.3,-620.03"/>
</g>
<!-- Node3 -->
<g id="node3" class="node">
<title>Node3</title>
<g id="a_node3"><a xlink:href="Utils_8h.html" target="_top" xlink:title=" ">
<polygon fill="none" stroke="black" points="929.5,-168.5 929.5,-187.5 1015.5,-187.5 1015.5,-168.5 929.5,-168.5"/>
<text text-anchor="middle" x="972.5" y="-175.5" font-family="Helvetica,sans-Serif" font-size="10.00">include/Utils.h</text>
</a>
</g>
</g>
<!-- Node2&#45;&gt;Node3 -->
<g id="edge2" class="edge">
<title>Node2&#45;&gt;Node3</title>
<path fill="none" stroke="midnightblue" d="M179.96,-341.93C206.81,-333.26 247.72,-318.5 280.5,-300 328.8,-272.73 327.69,-243.81 379.5,-224 477.29,-186.61 792.28,-180.22 918.98,-179.18"/>
<polygon fill="midnightblue" stroke="midnightblue" points="919.24,-182.68 929.21,-179.1 919.19,-175.68 919.24,-182.68"/>
</g>
<!-- Node11 -->
<g id="node11" class="node">
<title>Node11</title>
<g id="a_node11"><a xlink:title=" ">
<polygon fill="none" stroke="#bfbfbf" points="714.5,-56.5 714.5,-75.5 746.5,-75.5 746.5,-56.5 714.5,-56.5"/>
<text text-anchor="middle" x="730.5" y="-63.5" font-family="Helvetica,sans-Serif" font-size="10.00">list</text>
</a>
</g>
</g>
<!-- Node2&#45;&gt;Node11 -->
<g id="edge20" class="edge">
<title>Node2&#45;&gt;Node11</title>
<path fill="none" stroke="midnightblue" d="M162.96,-341.7C191.7,-319.89 269.64,-262.3 340.5,-224 452.62,-163.4 485.77,-158.34 604.5,-112 638.92,-98.56 679.22,-84.45 704.8,-75.69"/>
<polygon fill="midnightblue" stroke="midnightblue" points="706.14,-78.93 714.48,-72.39 703.88,-72.3 706.14,-78.93"/>
</g>
<!-- Node2&#45;&gt;Node12 -->
<g id="edge21" class="edge">
<title>Node2&#45;&gt;Node12</title>
<path fill="none" stroke="midnightblue" d="M142.46,-341.87C124.6,-323.84 86.5,-280.1 86.5,-235 86.5,-235 86.5,-235 86.5,-177 86.5,-140.57 110.93,-103.84 127.23,-83.39"/>
<polygon fill="midnightblue" stroke="midnightblue" points="129.94,-85.6 133.62,-75.67 124.55,-81.14 129.94,-85.6"/>
</g>
<!-- Node18 -->
<g id="node18" class="node">
<title>Node18</title>
<g id="a_node18"><a xlink:title=" ">
<polygon fill="none" stroke="#bfbfbf" points="123.5,-280.5 123.5,-299.5 179.5,-299.5 179.5,-280.5 123.5,-280.5"/>
<text text-anchor="middle" x="151.5" y="-287.5" font-family="Helvetica,sans-Serif" font-size="10.00">sstream</text>
</a>
</g>
</g>
<!-- Node2&#45;&gt;Node18 -->
<g id="edge22" class="edge">
<title>Node2&#45;&gt;Node18</title>
<path fill="none" stroke="midnightblue" d="M151.5,-341.98C151.5,-333.58 151.5,-320.48 151.5,-309.66"/>
<polygon fill="midnightblue" stroke="midnightblue" points="155,-309.51 151.5,-299.51 148,-309.51 155,-309.51"/>
</g>
<!-- Node19 -->
<g id="node19" class="node">
<title>Node19</title>
<g id="a_node19"><a xlink:title=" ">
<polygon fill="none" stroke="#bfbfbf" points="333,-280.5 333,-299.5 386,-299.5 386,-280.5 333,-280.5"/>
<text text-anchor="middle" x="359.5" y="-287.5" font-family="Helvetica,sans-Serif" font-size="10.00">string.h</text>
</a>
</g>
</g>
<!-- Node2&#45;&gt;Node19 -->
<g id="edge23" class="edge">
<title>Node2&#45;&gt;Node19</title>
<path fill="none" stroke="midnightblue" d="M181.3,-341.98C218.68,-331.28 282.76,-312.95 323.03,-301.43"/>
<polygon fill="midnightblue" stroke="midnightblue" points="324.07,-304.77 332.73,-298.66 322.15,-298.04 324.07,-304.77"/>
</g>
<!-- Node4 -->
<g id="node4" class="node">
<title>Node4</title>
<g id="a_node4"><a xlink:href="MVOptions_8h.html" target="_top" xlink:title=" ">
<polygon fill="none" stroke="black" points="1158,-112.5 1158,-131.5 1275,-131.5 1275,-112.5 1158,-112.5"/>
<text text-anchor="middle" x="1216.5" y="-119.5" font-family="Helvetica,sans-Serif" font-size="10.00">include/MVOptions.h</text>
</a>
</g>
</g>
<!-- Node3&#45;&gt;Node4 -->
<g id="edge3" class="edge">
<title>Node3&#45;&gt;Node4</title>
<path fill="none" stroke="midnightblue" d="M1011.16,-168.44C1053.64,-159.04 1121.93,-143.93 1167.97,-133.74"/>
<polygon fill="midnightblue" stroke="midnightblue" points="1169.01,-137.09 1178.02,-131.52 1167.5,-130.26 1169.01,-137.09"/>
</g>
<!-- Node7 -->
<g id="node7" class="node">
<title>Node7</title>
<g id="a_node7"><a xlink:title=" ">
<polygon fill="none" stroke="#bfbfbf" points="1525.5,-0.5 1525.5,-19.5 1585.5,-19.5 1585.5,-0.5 1525.5,-0.5"/>
<text text-anchor="middle" x="1555.5" y="-7.5" font-family="Helvetica,sans-Serif" font-size="10.00">iostream</text>
</a>
</g>
</g>
<!-- Node3&#45;&gt;Node7 -->
<g id="edge19" class="edge">
<title>Node3&#45;&gt;Node7</title>
<path fill="none" stroke="midnightblue" d="M1015.68,-175.4C1076.88,-172.11 1191.71,-162.12 1284.5,-132 1302.65,-126.11 1305.29,-120.25 1322.5,-112 1394.03,-77.73 1480.09,-41.75 1524.93,-23.39"/>
<polygon fill="midnightblue" stroke="midnightblue" points="1526.44,-26.55 1534.38,-19.53 1523.79,-20.07 1526.44,-26.55"/>
</g>
<!-- Node13 -->
<g id="node13" class="node">
<title>Node13</title>
<g id="a_node13"><a xlink:title=" ">
<polygon fill="none" stroke="#bfbfbf" points="613,-112.5 613,-131.5 708,-131.5 708,-112.5 613,-112.5"/>
<text text-anchor="middle" x="660.5" y="-119.5" font-family="Helvetica,sans-Serif" font-size="10.00">clang/AST/AST.h</text>
</a>
</g>
</g>
<!-- Node3&#45;&gt;Node13 -->
<g id="edge14" class="edge">
<title>Node3&#45;&gt;Node13</title>
<path fill="none" stroke="midnightblue" d="M929.45,-169.55C874.5,-160.04 779.25,-143.55 718.1,-132.97"/>
<polygon fill="midnightblue" stroke="midnightblue" points="718.67,-129.52 708.22,-131.26 717.47,-136.41 718.67,-129.52"/>
</g>
<!-- Node14 -->
<g id="node14" class="node">
<title>Node14</title>
<g id="a_node14"><a xlink:title=" ">
<polygon fill="none" stroke="#bfbfbf" points="995,-112.5 995,-131.5 1140,-131.5 1140,-112.5 995,-112.5"/>
<text text-anchor="middle" x="1067.5" y="-119.5" font-family="Helvetica,sans-Serif" font-size="10.00">clang/Basic/LangOptions.h</text>
</a>
</g>
</g>
<!-- Node3&#45;&gt;Node14 -->
<g id="edge15" class="edge">
<title>Node3&#45;&gt;Node14</title>
<path fill="none" stroke="midnightblue" d="M987.76,-168.32C1002.72,-159.82 1025.75,-146.73 1043.23,-136.8"/>
<polygon fill="midnightblue" stroke="midnightblue" points="1045.31,-139.64 1052.27,-131.65 1041.85,-133.55 1045.31,-139.64"/>
</g>
<!-- Node15 -->
<g id="node15" class="node">
<title>Node15</title>
<g id="a_node15"><a xlink:title=" ">
<polygon fill="none" stroke="#bfbfbf" points="1331,-112.5 1331,-131.5 1490,-131.5 1490,-112.5 1331,-112.5"/>
<text text-anchor="middle" x="1410.5" y="-119.5" font-family="Helvetica,sans-Serif" font-size="10.00">clang/Basic/SourceManager.h</text>
</a>
</g>
</g>
<!-- Node3&#45;&gt;Node15 -->
<g id="edge16" class="edge">
<title>Node3&#45;&gt;Node15</title>
<path fill="none" stroke="midnightblue" d="M1015.7,-171.67C1088.92,-162.65 1238.46,-144.21 1331.03,-132.8"/>
<polygon fill="midnightblue" stroke="midnightblue" points="1331.69,-136.24 1341.19,-131.55 1330.84,-129.3 1331.69,-136.24"/>
</g>
<!-- Node16 -->
<g id="node16" class="node">
<title>Node16</title>
<g id="a_node16"><a xlink:title=" ">
<polygon fill="none" stroke="#bfbfbf" points="803,-112.5 803,-131.5 904,-131.5 904,-112.5 803,-112.5"/>
<text text-anchor="middle" x="853.5" y="-119.5" font-family="Helvetica,sans-Serif" font-size="10.00">clang/Lex/Lexer.h</text>
</a>
</g>
</g>
<!-- Node3&#45;&gt;Node16 -->
<g id="edge17" class="edge">
<title>Node3&#45;&gt;Node16</title>
<path fill="none" stroke="midnightblue" d="M953.64,-168.44C934.23,-159.64 903.77,-145.81 881.54,-135.72"/>
<polygon fill="midnightblue" stroke="midnightblue" points="882.82,-132.46 872.27,-131.52 879.93,-138.84 882.82,-132.46"/>
</g>
<!-- Node17 -->
<g id="node17" class="node">
<title>Node17</title>
<g id="a_node17"><a xlink:title=" ">
<polygon fill="none" stroke="#bfbfbf" points="922,-112.5 922,-131.5 977,-131.5 977,-112.5 922,-112.5"/>
<text text-anchor="middle" x="949.5" y="-119.5" font-family="Helvetica,sans-Serif" font-size="10.00">fstream</text>
</a>
</g>
</g>
<!-- Node3&#45;&gt;Node17 -->
<g id="edge18" class="edge">
<title>Node3&#45;&gt;Node17</title>
<path fill="none" stroke="midnightblue" d="M968.7,-168.08C965.59,-160.77 961.08,-150.18 957.21,-141.1"/>
<polygon fill="midnightblue" stroke="midnightblue" points="960.37,-139.58 953.23,-131.75 953.93,-142.32 960.37,-139.58"/>
</g>
<!-- Node5 -->
<g id="node5" class="node">
<title>Node5</title>
<g id="a_node5"><a xlink:href="CPUID_8h.html" target="_top" xlink:title=" ">
<polygon fill="none" stroke="black" points="1283,-56.5 1283,-75.5 1378,-75.5 1378,-56.5 1283,-56.5"/>
<text text-anchor="middle" x="1330.5" y="-63.5" font-family="Helvetica,sans-Serif" font-size="10.00">include/CPUID.h</text>
</a>
</g>
</g>
<!-- Node4&#45;&gt;Node5 -->
<g id="edge4" class="edge">
<title>Node4&#45;&gt;Node5</title>
<path fill="none" stroke="midnightblue" d="M1234.56,-112.44C1253.07,-103.68 1282.08,-89.94 1303.36,-79.86"/>
<polygon fill="midnightblue" stroke="midnightblue" points="1304.98,-82.96 1312.52,-75.52 1301.99,-76.63 1304.98,-82.96"/>
</g>
<!-- Node6 -->
<g id="node6" class="node">
<title>Node6</title>
<g id="a_node6"><a xlink:title=" ">
<polygon fill="none" stroke="#bfbfbf" points="1203.5,-0.5 1203.5,-19.5 1267.5,-19.5 1267.5,-0.5 1203.5,-0.5"/>
<text text-anchor="middle" x="1235.5" y="-7.5" font-family="Helvetica,sans-Serif" font-size="10.00">algorithm</text>
</a>
</g>
</g>
<!-- Node4&#45;&gt;Node6 -->
<g id="edge9" class="edge">
<title>Node4&#45;&gt;Node6</title>
<path fill="none" stroke="midnightblue" d="M1217.99,-112.37C1221.06,-94.62 1228.13,-53.67 1232.29,-29.6"/>
<polygon fill="midnightblue" stroke="midnightblue" points="1235.76,-30.04 1234.02,-19.59 1228.86,-28.85 1235.76,-30.04"/>
</g>
<!-- Node8 -->
<g id="node8" class="node">
<title>Node8</title>
<g id="a_node8"><a xlink:title=" ">
<polygon fill="none" stroke="#bfbfbf" points="919.5,-0.5 919.5,-19.5 963.5,-19.5 963.5,-0.5 919.5,-0.5"/>
<text text-anchor="middle" x="941.5" y="-7.5" font-family="Helvetica,sans-Serif" font-size="10.00">string</text>
</a>
</g>
</g>
<!-- Node4&#45;&gt;Node8 -->
<g id="edge13" class="edge">
<title>Node4&#45;&gt;Node8</title>
<path fill="none" stroke="midnightblue" d="M1194.92,-112.37C1146.43,-92.97 1028.67,-45.87 972.42,-23.37"/>
<polygon fill="midnightblue" stroke="midnightblue" points="973.56,-20.06 962.98,-19.59 970.96,-26.56 973.56,-20.06"/>
</g>
<!-- Node10 -->
<g id="node10" class="node">
<title>Node10</title>
<g id="a_node10"><a xlink:title=" ">
<polygon fill="none" stroke="#bfbfbf" points="1136.5,-56.5 1136.5,-75.5 1188.5,-75.5 1188.5,-56.5 1136.5,-56.5"/>
<text text-anchor="middle" x="1162.5" y="-63.5" font-family="Helvetica,sans-Serif" font-size="10.00">cassert</text>
</a>
</g>
</g>
<!-- Node4&#45;&gt;Node10 -->
<g id="edge10" class="edge">
<title>Node4&#45;&gt;Node10</title>
<path fill="none" stroke="midnightblue" d="M1207.58,-112.08C1199.72,-104.22 1188.07,-92.57 1178.58,-83.08"/>
<polygon fill="midnightblue" stroke="midnightblue" points="1180.8,-80.35 1171.25,-75.75 1175.85,-85.3 1180.8,-80.35"/>
</g>
<!-- Node4&#45;&gt;Node11 -->
<g id="edge11" class="edge">
<title>Node4&#45;&gt;Node11</title>
<path fill="none" stroke="midnightblue" d="M1157.69,-113.01C1154.92,-112.66 1152.18,-112.32 1149.5,-112 1001.19,-94.08 822.91,-76.12 756.82,-69.58"/>
<polygon fill="midnightblue" stroke="midnightblue" points="756.8,-66.06 746.5,-68.56 756.11,-73.03 756.8,-66.06"/>
</g>
<!-- Node4&#45;&gt;Node12 -->
<g id="edge12" class="edge">
<title>Node4&#45;&gt;Node12</title>
<path fill="none" stroke="midnightblue" d="M1157.71,-112.8C1154.94,-112.51 1152.19,-112.24 1149.5,-112 763.73,-77.55 292.43,-69.04 171.09,-67.36"/>
<polygon fill="midnightblue" stroke="midnightblue" points="170.81,-63.86 160.76,-67.22 170.71,-70.86 170.81,-63.86"/>
</g>
<!-- Node5&#45;&gt;Node6 -->
<g id="edge5" class="edge">
<title>Node5&#45;&gt;Node6</title>
<path fill="none" stroke="midnightblue" d="M1315.24,-56.32C1300.28,-47.82 1277.25,-34.73 1259.77,-24.8"/>
<polygon fill="midnightblue" stroke="midnightblue" points="1261.15,-21.55 1250.73,-19.65 1257.69,-27.64 1261.15,-21.55"/>
</g>
<!-- Node5&#45;&gt;Node7 -->
<g id="edge6" class="edge">
<title>Node5&#45;&gt;Node7</title>
<path fill="none" stroke="midnightblue" d="M1366.15,-56.44C1406.79,-46.69 1473.06,-30.79 1515.45,-20.61"/>
<polygon fill="midnightblue" stroke="midnightblue" points="1516.51,-23.96 1525.42,-18.22 1514.87,-17.15 1516.51,-23.96"/>
</g>
<!-- Node5&#45;&gt;Node8 -->
<g id="edge7" class="edge">
<title>Node5&#45;&gt;Node8</title>
<path fill="none" stroke="midnightblue" d="M1282.78,-58.04C1277.96,-57.34 1273.13,-56.65 1268.5,-56 1160.6,-40.74 1032.56,-23.32 973.85,-15.37"/>
<polygon fill="midnightblue" stroke="midnightblue" points="974.09,-11.87 963.71,-14 973.15,-18.81 974.09,-11.87"/>
</g>
<!-- Node9 -->
<g id="node9" class="node">
<title>Node9</title>
<g id="a_node9"><a xlink:title=" ">
<polygon fill="none" stroke="#bfbfbf" points="1304,-0.5 1304,-19.5 1357,-19.5 1357,-0.5 1304,-0.5"/>
<text text-anchor="middle" x="1330.5" y="-7.5" font-family="Helvetica,sans-Serif" font-size="10.00">stdint.h</text>
</a>
</g>
</g>
<!-- Node5&#45;&gt;Node9 -->
<g id="edge8" class="edge">
<title>Node5&#45;&gt;Node9</title>
<path fill="none" stroke="midnightblue" d="M1330.5,-56.08C1330.5,-49.01 1330.5,-38.86 1330.5,-29.99"/>
<polygon fill="midnightblue" stroke="midnightblue" points="1334,-29.75 1330.5,-19.75 1327,-29.75 1334,-29.75"/>
</g>
<!-- Node20&#45;&gt;Node2 -->
<g id="edge78" class="edge">
<title>Node20&#45;&gt;Node2</title>
<path fill="none" stroke="midnightblue" d="M211.78,-582.33C200.82,-540.52 168.6,-417.71 156.33,-370.91"/>
<polygon fill="midnightblue" stroke="midnightblue" points="159.7,-369.98 153.78,-361.2 152.93,-371.76 159.7,-369.98"/>
</g>
<!-- Node21 -->
<g id="node21" class="node">
<title>Node21</title>
<g id="a_node21"><a xlink:href="CDAG_8h.html" target="_top" xlink:title=" ">
<polygon fill="none" stroke="black" points="534.5,-521 534.5,-540 626.5,-540 626.5,-521 534.5,-521"/>
<text text-anchor="middle" x="580.5" y="-528" font-family="Helvetica,sans-Serif" font-size="10.00">include/CDAG.h</text>
</a>
</g>
</g>
<!-- Node20&#45;&gt;Node21 -->
<g id="edge25" class="edge">
<title>Node20&#45;&gt;Node21</title>
<path fill="none" stroke="midnightblue" d="M278.25,-585.33C347.56,-572.98 458.12,-553.29 524.57,-541.46"/>
<polygon fill="midnightblue" stroke="midnightblue" points="525.22,-544.9 534.45,-539.7 523.99,-538.01 525.22,-544.9"/>
</g>
<!-- Node25 -->
<g id="node25" class="node">
<title>Node25</title>
<g id="a_node25"><a xlink:href="MVDataType_8h.html" target="_top" xlink:title=" ">
<polygon fill="none" stroke="black" points="114.5,-224.5 114.5,-243.5 280.5,-243.5 280.5,-224.5 114.5,-224.5"/>
<text text-anchor="middle" x="197.5" y="-231.5" font-family="Helvetica,sans-Serif" font-size="10.00">include/MVExpr/MVDataType.h</text>
</a>
</g>
</g>
<!-- Node20&#45;&gt;Node25 -->
<g id="edge79" class="edge">
<title>Node20&#45;&gt;Node25</title>
<path fill="none" stroke="midnightblue" d="M185.42,-582.39C135.38,-556.58 40.5,-496.75 40.5,-414 40.5,-414 40.5,-414 40.5,-350.5 40.5,-293.79 107.78,-261.84 154.25,-246.52"/>
<polygon fill="midnightblue" stroke="midnightblue" points="155.34,-249.85 163.82,-243.51 153.23,-243.18 155.34,-249.85"/>
</g>
<!-- Node44 -->
<g id="node44" class="node">
<title>Node44</title>
<g id="a_node44"><a xlink:href="MVSourceLocation_8h.html" target="_top" xlink:title=" ">
<polygon fill="none" stroke="black" points="644.5,-521 644.5,-540 798.5,-540 798.5,-521 644.5,-521"/>
<text text-anchor="middle" x="721.5" y="-528" font-family="Helvetica,sans-Serif" font-size="10.00">include/MVSourceLocation.h</text>
</a>
</g>
</g>
<!-- Node20&#45;&gt;Node44 -->
<g id="edge80" class="edge">
<title>Node20&#45;&gt;Node44</title>
<path fill="none" stroke="midnightblue" d="M278.24,-589.89C360.45,-581.02 509.02,-564.26 635.5,-546 644.52,-544.7 654.06,-543.21 663.37,-541.68"/>
<polygon fill="midnightblue" stroke="midnightblue" points="664.06,-545.12 673.35,-540.03 662.91,-538.21 664.06,-545.12"/>
</g>
<!-- Node45 -->
<g id="node45" class="node">
<title>Node45</title>
<g id="a_node45"><a xlink:href="VectorIR_8h.html" target="_top" xlink:title=" ">
<polygon fill="none" stroke="black" points="240,-515.5 240,-545.5 359,-545.5 359,-515.5 240,-515.5"/>
<text text-anchor="start" x="248" y="-533.5" font-family="Helvetica,sans-Serif" font-size="10.00">include/Vectorization</text>
<text text-anchor="middle" x="299.5" y="-522.5" font-family="Helvetica,sans-Serif" font-size="10.00">/VectorIR.h</text>
</a>
</g>
</g>
<!-- Node20&#45;&gt;Node45 -->
<g id="edge81" class="edge">
<title>Node20&#45;&gt;Node45</title>
<path fill="none" stroke="midnightblue" d="M233.73,-582.4C245.28,-573.45 260.42,-561.74 273.26,-551.8"/>
<polygon fill="midnightblue" stroke="midnightblue" points="275.54,-554.46 281.31,-545.58 271.26,-548.93 275.54,-554.46"/>
</g>
<!-- Node22 -->
<g id="node22" class="node">
<title>Node22</title>
<g id="a_node22"><a xlink:href="Node_8h.html" target="_top" xlink:title=" ">
<polygon fill="none" stroke="black" points="638,-459.5 638,-478.5 727,-478.5 727,-459.5 638,-459.5"/>
<text text-anchor="middle" x="682.5" y="-466.5" font-family="Helvetica,sans-Serif" font-size="10.00">include/Node.h</text>
</a>
</g>
</g>
<!-- Node21&#45;&gt;Node22 -->
<g id="edge26" class="edge">
<title>Node21&#45;&gt;Node22</title>
<path fill="none" stroke="midnightblue" d="M595.11,-520.98C611.85,-511.21 639.5,-495.08 659.22,-483.58"/>
<polygon fill="midnightblue" stroke="midnightblue" points="661.04,-486.57 667.91,-478.51 657.51,-480.52 661.04,-486.57"/>
</g>
<!-- Node39 -->
<g id="node39" class="node">
<title>Node39</title>
<g id="a_node39"><a xlink:href="TAC_8h.html" target="_top" xlink:title=" ">
<polygon fill="none" stroke="black" points="1289,-342 1289,-361 1372,-361 1372,-342 1289,-342"/>
<text text-anchor="middle" x="1330.5" y="-349" font-family="Helvetica,sans-Serif" font-size="10.00">include/TAC.h</text>
</a>
</g>
</g>
<!-- Node21&#45;&gt;Node39 -->
<g id="edge77" class="edge">
<title>Node21&#45;&gt;Node39</title>
<path fill="none" stroke="midnightblue" d="M610.33,-520.97C618.45,-518.83 627.27,-516.67 635.5,-515 915.81,-458 1023.26,-563.37 1272.5,-423 1294.43,-410.65 1311.48,-386.49 1321.25,-369.92"/>
<polygon fill="midnightblue" stroke="midnightblue" points="1324.31,-371.63 1326.15,-361.2 1318.21,-368.2 1324.31,-371.63"/>
</g>
<!-- Node23 -->
<g id="node23" class="node">
<title>Node23</title>
<g id="a_node23"><a xlink:href="MVExpr_8h.html" target="_top" xlink:title=" ">
<polygon fill="none" stroke="black" points="588,-280.5 588,-299.5 729,-299.5 729,-280.5 588,-280.5"/>
<text text-anchor="middle" x="658.5" y="-287.5" font-family="Helvetica,sans-Serif" font-size="10.00">include/MVExpr/MVExpr.h</text>
</a>
</g>
</g>
<!-- Node22&#45;&gt;Node23 -->
<g id="edge27" class="edge">
<title>Node22&#45;&gt;Node23</title>
<path fill="none" stroke="midnightblue" d="M638,-462.97C590.77,-456.6 520.75,-443.87 504.5,-423 480.74,-392.49 481.31,-366.94 504.5,-336 515.81,-320.91 558.24,-309.2 595.7,-301.51"/>
<polygon fill="midnightblue" stroke="midnightblue" points="596.47,-304.92 605.6,-299.54 595.11,-298.05 596.47,-304.92"/>
</g>
<!-- Node26 -->
<g id="node26" class="node">
<title>Node26</title>
<g id="a_node26"><a xlink:title=" ">
<polygon fill="none" stroke="#bfbfbf" points="1676.5,-224.5 1676.5,-243.5 1774.5,-243.5 1774.5,-224.5 1676.5,-224.5"/>
<text text-anchor="middle" x="1725.5" y="-231.5" font-family="Helvetica,sans-Serif" font-size="10.00">clang/AST/Expr.h</text>
</a>
</g>
</g>
<!-- Node22&#45;&gt;Node26 -->
<g id="edge76" class="edge">
<title>Node22&#45;&gt;Node26</title>
<path fill="none" stroke="midnightblue" d="M727.28,-468.84C855.35,-469.94 1232.74,-464.08 1525.5,-367 1594.42,-344.15 1617.32,-344.75 1674.5,-300 1691.39,-286.78 1705.94,-266.84 1715.13,-252.53"/>
<polygon fill="midnightblue" stroke="midnightblue" points="1718.32,-254.02 1720.6,-243.67 1712.37,-250.34 1718.32,-254.02"/>
</g>
<!-- Node29 -->
<g id="node29" class="node">
<title>Node29</title>
<g id="a_node29"><a xlink:href="MVExprLiteral_8h.html" target="_top" xlink:title=" ">
<polygon fill="none" stroke="black" points="688,-403.5 688,-422.5 861,-422.5 861,-403.5 688,-403.5"/>
<text text-anchor="middle" x="774.5" y="-410.5" font-family="Helvetica,sans-Serif" font-size="10.00">include/MVExpr/MVExprLiteral.h</text>
</a>
</g>
</g>
<!-- Node22&#45;&gt;Node29 -->
<g id="edge40" class="edge">
<title>Node22&#45;&gt;Node29</title>
<path fill="none" stroke="midnightblue" d="M697.28,-459.32C711.77,-450.82 734.07,-437.73 750.99,-427.8"/>
<polygon fill="midnightblue" stroke="midnightblue" points="752.9,-430.74 759.76,-422.65 749.36,-424.7 752.9,-430.74"/>
</g>
<!-- Node30 -->
<g id="node30" class="node">
<title>Node30</title>
<g id="a_node30"><a xlink:href="MVExprVar_8h.html" target="_top" xlink:title=" ">
<polygon fill="none" stroke="black" points="513,-403.5 513,-422.5 670,-422.5 670,-403.5 513,-403.5"/>
<text text-anchor="middle" x="591.5" y="-410.5" font-family="Helvetica,sans-Serif" font-size="10.00">include/MVExpr/MVExprVar.h</text>
</a>
</g>
</g>
<!-- Node22&#45;&gt;Node30 -->
<g id="edge42" class="edge">
<title>Node22&#45;&gt;Node30</title>
<path fill="none" stroke="midnightblue" d="M667.88,-459.32C653.55,-450.82 631.49,-437.73 614.75,-427.8"/>
<polygon fill="midnightblue" stroke="midnightblue" points="616.47,-424.75 606.08,-422.65 612.9,-430.77 616.47,-424.75"/>
</g>
<!-- Node32 -->
<g id="node32" class="node">
<title>Node32</title>
<g id="a_node32"><a xlink:href="StmtWrapper_8h.html" target="_top" xlink:title=" ">
<polygon fill="none" stroke="black" points="1104.5,-403.5 1104.5,-422.5 1232.5,-422.5 1232.5,-403.5 1104.5,-403.5"/>
<text text-anchor="middle" x="1168.5" y="-410.5" font-family="Helvetica,sans-Serif" font-size="10.00">include/StmtWrapper.h</text>
</a>
</g>
</g>
<!-- Node22&#45;&gt;Node32 -->
<g id="edge45" class="edge">
<title>Node22&#45;&gt;Node32</title>
<path fill="none" stroke="midnightblue" d="M727.35,-463.02C811.15,-453.71 992.24,-433.58 1094.43,-422.23"/>
<polygon fill="midnightblue" stroke="midnightblue" points="1094.82,-425.71 1104.37,-421.13 1094.04,-418.75 1094.82,-425.71"/>
</g>
<!-- Node22&#45;&gt;Node39 -->
<g id="edge75" class="edge">
<title>Node22&#45;&gt;Node39</title>
<path fill="none" stroke="midnightblue" d="M727.04,-467.73C842.35,-466.51 1148.08,-459.79 1241.5,-423 1271.61,-411.15 1299.69,-385.51 1315.97,-368.64"/>
<polygon fill="midnightblue" stroke="midnightblue" points="1318.7,-370.85 1322.98,-361.16 1313.59,-366.07 1318.7,-370.85"/>
</g>
<!-- Node23&#45;&gt;Node3 -->
<g id="edge33" class="edge">
<title>Node23&#45;&gt;Node3</title>
<path fill="none" stroke="midnightblue" d="M674.23,-280.38C699.42,-266.86 750.65,-240.49 796.5,-224 837.02,-209.43 884.37,-197.6 919.75,-189.73"/>
<polygon fill="midnightblue" stroke="midnightblue" points="920.84,-193.08 929.86,-187.52 919.34,-186.24 920.84,-193.08"/>
</g>
<!-- Node23&#45;&gt;Node7 -->
<g id="edge37" class="edge">
<title>Node23&#45;&gt;Node7</title>
<path fill="none" stroke="midnightblue" d="M693.14,-280.43C746.79,-267.31 853.31,-241.9 944.5,-224 1189.85,-175.83 1300.58,-283.48 1499.5,-132 1532.7,-106.72 1546.91,-57.05 1552.41,-29.87"/>
<polygon fill="midnightblue" stroke="midnightblue" points="1555.91,-30.21 1554.27,-19.74 1549.02,-28.94 1555.91,-30.21"/>
</g>
<!-- Node23&#45;&gt;Node8 -->
<g id="edge39" class="edge">
<title>Node23&#45;&gt;Node8</title>
<path fill="none" stroke="midnightblue" d="M624.23,-280.45C603.91,-273.72 579.14,-262.33 563.5,-244 543.96,-221.1 544.5,-209.1 544.5,-179 544.5,-179 544.5,-179 544.5,-121 544.5,-45.51 814.49,-19.72 909.17,-13"/>
<polygon fill="midnightblue" stroke="midnightblue" points="909.57,-16.48 919.3,-12.3 909.09,-9.49 909.57,-16.48"/>
</g>
<!-- Node23&#45;&gt;Node13 -->
<g id="edge34" class="edge">
<title>Node23&#45;&gt;Node13</title>
<path fill="none" stroke="midnightblue" d="M658.61,-280.08C658.92,-253.95 659.85,-177.21 660.28,-141.58"/>
<polygon fill="midnightblue" stroke="midnightblue" points="663.78,-141.61 660.4,-131.57 656.78,-141.53 663.78,-141.61"/>
</g>
<!-- Node24 -->
<g id="node24" class="node">
<title>Node24</title>
<g id="a_node24"><a xlink:href="Debug_8h.html" target="_top" xlink:title=" ">
<polygon fill="none" stroke="black" points="953,-224.5 953,-243.5 1048,-243.5 1048,-224.5 953,-224.5"/>
<text text-anchor="middle" x="1000.5" y="-231.5" font-family="Helvetica,sans-Serif" font-size="10.00">include/Debug.h</text>
</a>
</g>
</g>
<!-- Node23&#45;&gt;Node24 -->
<g id="edge28" class="edge">
<title>Node23&#45;&gt;Node24</title>
<path fill="none" stroke="midnightblue" d="M712.69,-280.44C775.53,-270.52 878.69,-254.23 942.94,-244.09"/>
<polygon fill="midnightblue" stroke="midnightblue" points="943.57,-247.53 952.9,-242.52 942.48,-240.62 943.57,-247.53"/>
</g>
<!-- Node23&#45;&gt;Node25 -->
<g id="edge30" class="edge">
<title>Node23&#45;&gt;Node25</title>
<path fill="none" stroke="midnightblue" d="M587.98,-280.74C505.25,-271.05 368.26,-255 280.48,-244.72"/>
<polygon fill="midnightblue" stroke="midnightblue" points="280.63,-241.21 270.29,-243.53 279.82,-248.17 280.63,-241.21"/>
</g>
<!-- Node23&#45;&gt;Node26 -->
<g id="edge35" class="edge">
<title>Node23&#45;&gt;Node26</title>
<path fill="none" stroke="midnightblue" d="M729.03,-288.5C892.21,-286.78 1308.53,-279.11 1666.15,-244.02"/>
<polygon fill="midnightblue" stroke="midnightblue" points="1666.58,-247.5 1676.19,-243.03 1665.89,-240.53 1666.58,-247.5"/>
</g>
<!-- Node27 -->
<g id="node27" class="node">
<title>Node27</title>
<g id="a_node27"><a xlink:title=" ">
<polygon fill="none" stroke="#bfbfbf" points="388.5,-224.5 388.5,-243.5 516.5,-243.5 516.5,-224.5 388.5,-224.5"/>
<text text-anchor="middle" x="452.5" y="-231.5" font-family="Helvetica,sans-Serif" font-size="10.00">llvm/Support/Casting.h</text>
</a>
</g>
</g>
<!-- Node23&#45;&gt;Node27 -->
<g id="edge36" class="edge">
<title>Node23&#45;&gt;Node27</title>
<path fill="none" stroke="midnightblue" d="M625.86,-280.44C590.45,-271.16 533.79,-256.31 494.95,-246.13"/>
<polygon fill="midnightblue" stroke="midnightblue" points="495.55,-242.67 484.99,-243.52 493.77,-249.44 495.55,-242.67"/>
</g>
<!-- Node28 -->
<g id="node28" class="node">
<title>Node28</title>
<g id="a_node28"><a xlink:title=" ">
<polygon fill="none" stroke="#bfbfbf" points="572.5,-224.5 572.5,-243.5 630.5,-243.5 630.5,-224.5 572.5,-224.5"/>
<text text-anchor="middle" x="601.5" y="-231.5" font-family="Helvetica,sans-Serif" font-size="10.00">memory</text>
</a>
</g>
</g>
<!-- Node23&#45;&gt;Node28 -->
<g id="edge38" class="edge">
<title>Node23&#45;&gt;Node28</title>
<path fill="none" stroke="midnightblue" d="M649.34,-280.32C641,-272.42 628.47,-260.55 618.32,-250.94"/>
<polygon fill="midnightblue" stroke="midnightblue" points="620.49,-248.17 610.82,-243.83 615.68,-253.25 620.49,-248.17"/>
</g>
<!-- Node24&#45;&gt;Node3 -->
<g id="edge29" class="edge">
<title>Node24&#45;&gt;Node3</title>
<path fill="none" stroke="midnightblue" d="M995.88,-224.08C992.04,-216.69 986.48,-205.95 981.74,-196.81"/>
<polygon fill="midnightblue" stroke="midnightblue" points="984.75,-195.02 977.04,-187.75 978.53,-198.24 984.75,-195.02"/>
</g>
<!-- Node25&#45;&gt;Node8 -->
<g id="edge32" class="edge">
<title>Node25&#45;&gt;Node8</title>
<path fill="none" stroke="midnightblue" d="M209.45,-224.44C251.2,-195.02 395.35,-97.63 530.5,-56 666.55,-14.09 838.46,-10.11 909.03,-10.44"/>
<polygon fill="midnightblue" stroke="midnightblue" points="909.05,-13.94 919.07,-10.52 909.1,-6.94 909.05,-13.94"/>
</g>
<!-- Node25&#45;&gt;Node12 -->
<g id="edge31" class="edge">
<title>Node25&#45;&gt;Node12</title>
<path fill="none" stroke="midnightblue" d="M194.49,-224.08C185.64,-197.83 159.56,-120.55 147.61,-85.12"/>
<polygon fill="midnightblue" stroke="midnightblue" points="150.9,-83.92 144.39,-75.57 144.27,-86.16 150.9,-83.92"/>
</g>
<!-- Node29&#45;&gt;Node23 -->
<g id="edge41" class="edge">
<title>Node29&#45;&gt;Node23</title>
<path fill="none" stroke="midnightblue" d="M752.34,-403.42C735.32,-395.91 712.15,-383.61 696.5,-367 680.9,-350.44 670.3,-326.25 664.35,-309.64"/>
<polygon fill="midnightblue" stroke="midnightblue" points="667.6,-308.33 661.09,-299.97 660.96,-310.56 667.6,-308.33"/>
</g>
<!-- Node30&#45;&gt;Node23 -->
<g id="edge43" class="edge">
<title>Node30&#45;&gt;Node23</title>
<path fill="none" stroke="midnightblue" d="M596.32,-403.3C607.28,-383.5 634.26,-334.78 648.81,-308.49"/>
<polygon fill="midnightblue" stroke="midnightblue" points="651.94,-310.07 653.73,-299.62 645.82,-306.68 651.94,-310.07"/>
</g>
<!-- Node31 -->
<g id="node31" class="node">
<title>Node31</title>
<g id="a_node31"><a xlink:title=" ">
<polygon fill="none" stroke="#bfbfbf" points="513,-342 513,-361 606,-361 606,-342 513,-342"/>
<text text-anchor="middle" x="559.5" y="-349" font-family="Helvetica,sans-Serif" font-size="10.00">unordered_map</text>
</a>
</g>
</g>
<!-- Node30&#45;&gt;Node31 -->
<g id="edge44" class="edge">
<title>Node30&#45;&gt;Node31</title>
<path fill="none" stroke="midnightblue" d="M586.92,-403.48C582.26,-394.82 574.91,-381.15 568.99,-370.15"/>
<polygon fill="midnightblue" stroke="midnightblue" points="571.9,-368.16 564.08,-361.01 565.73,-371.47 571.9,-368.16"/>
</g>
<!-- Node32&#45;&gt;Node3 -->
<g id="edge69" class="edge">
<title>Node32&#45;&gt;Node3</title>
<path fill="none" stroke="midnightblue" d="M1191.95,-403.41C1207.66,-396.28 1227.12,-384.46 1236.5,-367 1243.02,-354.86 1245.36,-346.56 1236.5,-336 1177.32,-265.47 1118.31,-333.35 1032.5,-300 989.29,-283.21 966.81,-284.64 944.5,-244 935.77,-228.1 946.43,-208.91 957.01,-195.53"/>
<polygon fill="midnightblue" stroke="midnightblue" points="959.9,-197.53 963.75,-187.66 954.58,-192.98 959.9,-197.53"/>
</g>
<!-- Node32&#45;&gt;Node13 -->
<g id="edge70" class="edge">
<title>Node32&#45;&gt;Node13</title>
<path fill="none" stroke="midnightblue" d="M1178.35,-403.16C1194.05,-388.01 1221.25,-356.76 1203.5,-336 1170.02,-296.85 1024.94,-310.48 974.5,-300 877.4,-279.83 842.08,-297.38 758.5,-244 716.89,-217.42 684.76,-167.17 669.77,-140.56"/>
<polygon fill="midnightblue" stroke="midnightblue" points="672.75,-138.71 664.88,-131.61 666.61,-142.07 672.75,-138.71"/>
</g>
<!-- Node32&#45;&gt;Node23 -->
<g id="edge46" class="edge">
<title>Node32&#45;&gt;Node23</title>
<path fill="none" stroke="midnightblue" d="M1104.42,-410.91C998.88,-408.21 793.75,-398.89 729.5,-367 722.36,-363.46 691.3,-328.65 672.7,-307.39"/>
<polygon fill="midnightblue" stroke="midnightblue" points="675.25,-304.98 666.05,-299.74 669.97,-309.58 675.25,-304.98"/>
</g>
<!-- Node32&#45;&gt;Node26 -->
<g id="edge71" class="edge">
<title>Node32&#45;&gt;Node26</title>
<path fill="none" stroke="midnightblue" d="M1232.86,-406.83C1327.81,-397.07 1508.93,-370.17 1645.5,-300 1670.48,-287.17 1694.9,-265.64 1710.05,-250.9"/>
<polygon fill="midnightblue" stroke="midnightblue" points="1712.86,-253.05 1717.47,-243.51 1707.91,-248.09 1712.86,-253.05"/>
</g>
<!-- Node33 -->
<g id="node33" class="node">
<title>Node33</title>
<g id="a_node33"><a xlink:href="MVPragmaHandler_8h.html" target="_top" xlink:title=" ">
<polygon fill="none" stroke="black" points="1311,-280.5 1311,-299.5 1466,-299.5 1466,-280.5 1311,-280.5"/>
<text text-anchor="middle" x="1388.5" y="-287.5" font-family="Helvetica,sans-Serif" font-size="10.00">include/MVPragmaHandler.h</text>
</a>
</g>
</g>
<!-- Node32&#45;&gt;Node33 -->
<g id="edge47" class="edge">
<title>Node32&#45;&gt;Node33</title>
<path fill="none" stroke="midnightblue" d="M1232.71,-406.73C1288.05,-400.76 1362.03,-388.88 1381.5,-367 1395.23,-351.57 1394.84,-326.76 1392.43,-309.71"/>
<polygon fill="midnightblue" stroke="midnightblue" points="1395.86,-309.04 1390.68,-299.8 1388.97,-310.26 1395.86,-309.04"/>
</g>
<!-- Node32&#45;&gt;Node39 -->
<g id="edge58" class="edge">
<title>Node32&#45;&gt;Node39</title>
<path fill="none" stroke="midnightblue" d="M1191.71,-403.48C1219.5,-393.27 1266.22,-376.11 1297.69,-364.55"/>
<polygon fill="midnightblue" stroke="midnightblue" points="1299.15,-367.74 1307.33,-361.01 1296.74,-361.17 1299.15,-367.74"/>
</g>
<!-- Node41 -->
<g id="node41" class="node">
<title>Node41</title>
<g id="a_node41"><a xlink:title=" ">
<polygon fill="none" stroke="#bfbfbf" points="738.5,-342 738.5,-361 838.5,-361 838.5,-342 738.5,-342"/>
<text text-anchor="middle" x="788.5" y="-349" font-family="Helvetica,sans-Serif" font-size="10.00">clang/AST/Stmt.h</text>
</a>
</g>
</g>
<!-- Node32&#45;&gt;Node41 -->
<g id="edge72" class="edge">
<title>Node32&#45;&gt;Node41</title>
<path fill="none" stroke="midnightblue" d="M1104.45,-404.85C1039.63,-397.19 936.67,-383.81 848.5,-367 842.97,-365.95 837.19,-364.71 831.49,-363.42"/>
<polygon fill="midnightblue" stroke="midnightblue" points="831.92,-359.93 821.38,-361.06 830.32,-366.75 831.92,-359.93"/>
</g>
<!-- Node42 -->
<g id="node42" class="node">
<title>Node42</title>
<g id="a_node42"><a xlink:title=" ">
<polygon fill="none" stroke="#bfbfbf" points="857,-336.5 857,-366.5 1018,-366.5 1018,-336.5 857,-336.5"/>
<text text-anchor="start" x="865" y="-354.5" font-family="Helvetica,sans-Serif" font-size="10.00">clang/ASTMatchers/ASTMatch</text>
<text text-anchor="middle" x="937.5" y="-343.5" font-family="Helvetica,sans-Serif" font-size="10.00">Finder.h</text>
</a>
</g>
</g>
<!-- Node32&#45;&gt;Node42 -->
<g id="edge73" class="edge">
<title>Node32&#45;&gt;Node42</title>
<path fill="none" stroke="midnightblue" d="M1135.4,-403.48C1100.68,-394.53 1045.23,-380.25 1001.85,-369.07"/>
<polygon fill="midnightblue" stroke="midnightblue" points="1002.5,-365.63 991.94,-366.52 1000.75,-372.41 1002.5,-365.63"/>
</g>
<!-- Node43 -->
<g id="node43" class="node">
<title>Node43</title>
<g id="a_node43"><a xlink:title=" ">
<polygon fill="none" stroke="#bfbfbf" points="1036.5,-342 1036.5,-361 1194.5,-361 1194.5,-342 1036.5,-342"/>
<text text-anchor="middle" x="1115.5" y="-349" font-family="Helvetica,sans-Serif" font-size="10.00">clang/Basic/SourceLocation.h</text>
</a>
</g>
</g>
<!-- Node32&#45;&gt;Node43 -->
<g id="edge74" class="edge">
<title>Node32&#45;&gt;Node43</title>
<path fill="none" stroke="midnightblue" d="M1160.91,-403.48C1152.8,-394.37 1139.77,-379.74 1129.74,-368.48"/>
<polygon fill="midnightblue" stroke="midnightblue" points="1132.34,-366.15 1123.08,-361.01 1127.12,-370.8 1132.34,-366.15"/>
</g>
<!-- Node33&#45;&gt;Node7 -->
<g id="edge56" class="edge">
<title>Node33&#45;&gt;Node7</title>
<path fill="none" stroke="midnightblue" d="M1413.22,-280.43C1447.6,-266.97 1508.25,-237.19 1531.5,-188 1556.63,-134.83 1557.7,-63.31 1556.56,-29.8"/>
<polygon fill="midnightblue" stroke="midnightblue" points="1560.05,-29.45 1556.11,-19.62 1553.06,-29.77 1560.05,-29.45"/>
</g>
<!-- Node33&#45;&gt;Node15 -->
<g id="edge54" class="edge">
<title>Node33&#45;&gt;Node15</title>
<path fill="none" stroke="midnightblue" d="M1415.78,-280.45C1432.79,-273.55 1453.33,-261.97 1463.5,-244 1483.82,-208.12 1449.45,-162.95 1427.19,-139.24"/>
<polygon fill="midnightblue" stroke="midnightblue" points="1429.42,-136.51 1419.93,-131.8 1424.41,-141.4 1429.42,-136.51"/>
</g>
<!-- Node33&#45;&gt;Node24 -->
<g id="edge48" class="edge">
<title>Node33&#45;&gt;Node24</title>
<path fill="none" stroke="midnightblue" d="M1327.02,-280.44C1253.29,-270.18 1130.65,-253.11 1058.5,-243.07"/>
<polygon fill="midnightblue" stroke="midnightblue" points="1058.62,-239.56 1048.24,-241.64 1057.66,-246.49 1058.62,-239.56"/>
</g>
<!-- Node34 -->
<g id="node34" class="node">
<title>Node34</title>
<g id="a_node34"><a xlink:href="MVAssert_8h.html" target="_top" xlink:title=" ">
<polygon fill="none" stroke="black" points="1548.5,-224.5 1548.5,-243.5 1658.5,-243.5 1658.5,-224.5 1548.5,-224.5"/>
<text text-anchor="middle" x="1603.5" y="-231.5" font-family="Helvetica,sans-Serif" font-size="10.00">include/MVAssert.h</text>
</a>
</g>
</g>
<!-- Node33&#45;&gt;Node34 -->
<g id="edge49" class="edge">
<title>Node33&#45;&gt;Node34</title>
<path fill="none" stroke="midnightblue" d="M1422.57,-280.44C1459.68,-271.12 1519.16,-256.18 1559.71,-246"/>
<polygon fill="midnightblue" stroke="midnightblue" points="1560.75,-249.35 1569.59,-243.52 1559.04,-242.56 1560.75,-249.35"/>
</g>
<!-- Node36 -->
<g id="node36" class="node">
<title>Node36</title>
<g id="a_node36"><a xlink:title=" ">
<polygon fill="none" stroke="#bfbfbf" points="1301,-224.5 1301,-243.5 1454,-243.5 1454,-224.5 1301,-224.5"/>
<text text-anchor="middle" x="1377.5" y="-231.5" font-family="Helvetica,sans-Serif" font-size="10.00">clang/Basic/IdentifierTable.h</text>
</a>
</g>
</g>
<!-- Node33&#45;&gt;Node36 -->
<g id="edge53" class="edge">
<title>Node33&#45;&gt;Node36</title>
<path fill="none" stroke="midnightblue" d="M1386.68,-280.08C1385.23,-272.93 1383.13,-262.64 1381.31,-253.69"/>
<polygon fill="midnightblue" stroke="midnightblue" points="1384.71,-252.85 1379.28,-243.75 1377.85,-254.25 1384.71,-252.85"/>
</g>
<!-- Node37 -->
<g id="node37" class="node">
<title>Node37</title>
<g id="a_node37"><a xlink:title=" ">
<polygon fill="none" stroke="#bfbfbf" points="1105,-224.5 1105,-243.5 1218,-243.5 1218,-224.5 1105,-224.5"/>
<text text-anchor="middle" x="1161.5" y="-231.5" font-family="Helvetica,sans-Serif" font-size="10.00">clang/Parse/Parser.h</text>
</a>
</g>
</g>
<!-- Node33&#45;&gt;Node37 -->
<g id="edge55" class="edge">
<title>Node33&#45;&gt;Node37</title>
<path fill="none" stroke="midnightblue" d="M1352.53,-280.44C1313.18,-271.08 1250.01,-256.06 1207.19,-245.87"/>
<polygon fill="midnightblue" stroke="midnightblue" points="1207.84,-242.43 1197.3,-243.52 1206.22,-249.24 1207.84,-242.43"/>
</g>
<!-- Node38 -->
<g id="node38" class="node">
<title>Node38</title>
<g id="a_node38"><a xlink:title=" ">
<polygon fill="none" stroke="#bfbfbf" points="1236,-224.5 1236,-243.5 1283,-243.5 1283,-224.5 1236,-224.5"/>
<text text-anchor="middle" x="1259.5" y="-231.5" font-family="Helvetica,sans-Serif" font-size="10.00">vector</text>
</a>
</g>
</g>
<!-- Node33&#45;&gt;Node38 -->
<g id="edge57" class="edge">
<title>Node33&#45;&gt;Node38</title>
<path fill="none" stroke="midnightblue" d="M1368.06,-280.44C1346.83,-271.56 1313.4,-257.56 1289.25,-247.45"/>
<polygon fill="midnightblue" stroke="midnightblue" points="1290.42,-244.15 1279.84,-243.52 1287.72,-250.61 1290.42,-244.15"/>
</g>
<!-- Node34&#45;&gt;Node7 -->
<g id="edge50" class="edge">
<title>Node34&#45;&gt;Node7</title>
<path fill="none" stroke="midnightblue" d="M1638.51,-224.45C1657.43,-217.84 1679.18,-206.59 1690.5,-188 1695.12,-180.41 1693.29,-176.44 1690.5,-168 1669.69,-104.97 1608.67,-51.19 1576.27,-26.1"/>
<polygon fill="midnightblue" stroke="midnightblue" points="1578.03,-23.05 1567.95,-19.81 1573.81,-28.63 1578.03,-23.05"/>
</g>
<!-- Node34&#45;&gt;Node8 -->
<g id="edge52" class="edge">
<title>Node34&#45;&gt;Node8</title>
<path fill="none" stroke="midnightblue" d="M1599.03,-224.47C1586.66,-201.82 1549.55,-139.98 1499.5,-112 1411.1,-62.58 1373.62,-96.75 1274.5,-76 1239.89,-68.75 1232.05,-63.51 1197.5,-56 1117.39,-38.58 1022.06,-23.22 973.45,-15.77"/>
<polygon fill="midnightblue" stroke="midnightblue" points="973.94,-12.31 963.53,-14.26 972.89,-19.23 973.94,-12.31"/>
</g>
<!-- Node35 -->
<g id="node35" class="node">
<title>Node35</title>
<g id="a_node35"><a xlink:title=" ">
<polygon fill="none" stroke="#bfbfbf" points="1622,-168.5 1622,-187.5 1681,-187.5 1681,-168.5 1622,-168.5"/>
<text text-anchor="middle" x="1651.5" y="-175.5" font-family="Helvetica,sans-Serif" font-size="10.00">setjmp.h</text>
</a>
</g>
</g>
<!-- Node34&#45;&gt;Node35 -->
<g id="edge51" class="edge">
<title>Node34&#45;&gt;Node35</title>
<path fill="none" stroke="midnightblue" d="M1611.43,-224.08C1618.35,-216.3 1628.57,-204.8 1636.95,-195.37"/>
<polygon fill="midnightblue" stroke="midnightblue" points="1639.69,-197.55 1643.72,-187.75 1634.46,-192.9 1639.69,-197.55"/>
</g>
<!-- Node39&#45;&gt;Node3 -->
<g id="edge64" class="edge">
<title>Node39&#45;&gt;Node3</title>
<path fill="none" stroke="midnightblue" d="M1310.6,-341.89C1270.02,-324.23 1174.88,-282.34 1096.5,-244 1077.78,-234.84 1028.52,-208.8 998.02,-192.59"/>
<polygon fill="midnightblue" stroke="midnightblue" points="999.31,-189.32 988.84,-187.71 996.03,-195.5 999.31,-189.32"/>
</g>
<!-- Node39&#45;&gt;Node7 -->
<g id="edge66" class="edge">
<title>Node39&#45;&gt;Node7</title>
<path fill="none" stroke="midnightblue" d="M1372.14,-346.67C1473.39,-336.47 1728.25,-305.14 1783.5,-244 1803.68,-221.67 1802.5,-209.1 1802.5,-179 1802.5,-179 1802.5,-179 1802.5,-121 1802.5,-31.7 1666.11,-14.38 1596.03,-11.37"/>
<polygon fill="midnightblue" stroke="midnightblue" points="1595.9,-7.86 1585.79,-11.01 1595.66,-14.86 1595.9,-7.86"/>
</g>
<!-- Node39&#45;&gt;Node8 -->
<g id="edge68" class="edge">
<title>Node39&#45;&gt;Node8</title>
<path fill="none" stroke="midnightblue" d="M1288.84,-342.58C1277.09,-340.4 1264.3,-338.06 1252.5,-336 1032.99,-297.64 894.37,-331.2 794.5,-132 766.72,-76.6 858.49,-37.44 909.59,-20.45"/>
<polygon fill="midnightblue" stroke="midnightblue" points="910.78,-23.75 919.22,-17.35 908.63,-17.09 910.78,-23.75"/>
</g>
<!-- Node39&#45;&gt;Node11 -->
<g id="edge67" class="edge">
<title>Node39&#45;&gt;Node11</title>
<path fill="none" stroke="midnightblue" d="M1288.88,-344.92C1268.05,-342.17 1242.45,-338.84 1219.5,-336 1082.28,-319.05 1033.2,-363.72 910.5,-300 821.67,-253.87 815.41,-215.69 760.5,-132 750.82,-117.24 742.64,-98.85 737.29,-85.4"/>
<polygon fill="midnightblue" stroke="midnightblue" points="740.47,-83.92 733.62,-75.84 733.93,-86.43 740.47,-83.92"/>
</g>
<!-- Node39&#45;&gt;Node13 -->
<g id="edge65" class="edge">
<title>Node39&#45;&gt;Node13</title>
<path fill="none" stroke="midnightblue" d="M1288.91,-342.14C1277.17,-339.95 1264.36,-337.72 1252.5,-336 1101.25,-314.02 1053.52,-353.91 910.5,-300 858.98,-280.58 727.24,-176.77 678.76,-137.8"/>
<polygon fill="midnightblue" stroke="midnightblue" points="680.95,-135.07 670.97,-131.51 676.55,-140.51 680.95,-135.07"/>
</g>
<!-- Node39&#45;&gt;Node23 -->
<g id="edge60" class="edge">
<title>Node39&#45;&gt;Node23</title>
<path fill="none" stroke="midnightblue" d="M1288.78,-345.4C1264.02,-342.46 1231.99,-338.8 1203.5,-336 1038.74,-319.8 845.57,-304.79 739.14,-296.87"/>
<polygon fill="midnightblue" stroke="midnightblue" points="739.34,-293.37 729.11,-296.12 738.83,-300.35 739.34,-293.37"/>
</g>
<!-- Node39&#45;&gt;Node24 -->
<g id="edge59" class="edge">
<title>Node39&#45;&gt;Node24</title>
<path fill="none" stroke="midnightblue" d="M1299.51,-341.97C1291.4,-339.88 1282.65,-337.74 1274.5,-336 1181.04,-316 1146.89,-344.86 1062.5,-300 1041.29,-288.72 1023.16,-267.49 1012.08,-252.36"/>
<polygon fill="midnightblue" stroke="midnightblue" points="1014.73,-250.05 1006.13,-243.87 1009,-254.07 1014.73,-250.05"/>
</g>
<!-- Node40 -->
<g id="node40" class="node">
<title>Node40</title>
<g id="a_node40"><a xlink:href="MVOps_8h.html" target="_top" xlink:title=" ">
<polygon fill="none" stroke="black" points="1538.5,-280.5 1538.5,-299.5 1636.5,-299.5 1636.5,-280.5 1538.5,-280.5"/>
<text text-anchor="middle" x="1587.5" y="-287.5" font-family="Helvetica,sans-Serif" font-size="10.00">include/MVOps.h</text>
</a>
</g>
</g>
<!-- Node39&#45;&gt;Node40 -->
<g id="edge61" class="edge">
<title>Node39&#45;&gt;Node40</title>
<path fill="none" stroke="midnightblue" d="M1367.32,-341.98C1413.03,-331.39 1491.03,-313.34 1540.87,-301.8"/>
<polygon fill="midnightblue" stroke="midnightblue" points="1541.79,-305.17 1550.75,-299.51 1540.21,-298.35 1541.79,-305.17"/>
</g>
<!-- Node40&#45;&gt;Node26 -->
<g id="edge63" class="edge">
<title>Node40&#45;&gt;Node26</title>
<path fill="none" stroke="midnightblue" d="M1609.37,-280.44C1632.28,-271.48 1668.48,-257.31 1694.37,-247.18"/>
<polygon fill="midnightblue" stroke="midnightblue" points="1695.7,-250.42 1703.74,-243.52 1693.15,-243.9 1695.7,-250.42"/>
</g>
<!-- Node40&#45;&gt;Node34 -->
<g id="edge62" class="edge">
<title>Node40&#45;&gt;Node34</title>
<path fill="none" stroke="midnightblue" d="M1590.14,-280.08C1592.29,-272.85 1595.38,-262.41 1598.05,-253.4"/>
<polygon fill="midnightblue" stroke="midnightblue" points="1601.42,-254.33 1600.91,-243.75 1594.71,-252.34 1601.42,-254.33"/>
</g>
<!-- Node45&#45;&gt;Node22 -->
<g id="edge87" class="edge">
<title>Node45&#45;&gt;Node22</title>
<path fill="none" stroke="midnightblue" d="M359.34,-520.2C432.84,-508.79 556.47,-489.58 627.62,-478.53"/>
<polygon fill="midnightblue" stroke="midnightblue" points="628.38,-481.95 637.72,-476.96 627.3,-475.03 628.38,-481.95"/>
</g>
<!-- Node45&#45;&gt;Node25 -->
<g id="edge82" class="edge">
<title>Node45&#45;&gt;Node25</title>
<path fill="none" stroke="midnightblue" d="M292.31,-515.41C275.85,-481 239.89,-391.41 280.5,-336 313.87,-290.47 429.69,-324.14 394.5,-280 380.95,-263.01 334.39,-251.93 289.93,-245.01"/>
<polygon fill="midnightblue" stroke="midnightblue" points="290.3,-241.53 279.89,-243.51 289.27,-248.45 290.3,-241.53"/>
</g>
<!-- Node46 -->
<g id="node46" class="node">
<title>Node46</title>
<g id="a_node46"><a xlink:href="MVExprArray_8h.html" target="_top" xlink:title=" ">
<polygon fill="none" stroke="black" points="290,-342 290,-361 457,-361 457,-342 290,-342"/>
<text text-anchor="middle" x="373.5" y="-349" font-family="Helvetica,sans-Serif" font-size="10.00">include/MVExpr/MVExprArray.h</text>
</a>
</g>
</g>
<!-- Node45&#45;&gt;Node46 -->
<g id="edge83" class="edge">
<title>Node45&#45;&gt;Node46</title>
<path fill="none" stroke="midnightblue" d="M305.43,-515.31C318.73,-483.5 350.95,-406.45 365.78,-370.96"/>
<polygon fill="midnightblue" stroke="midnightblue" points="369.16,-371.95 369.79,-361.37 362.7,-369.25 369.16,-371.95"/>
</g>
<!-- Node46&#45;&gt;Node19 -->
<g id="edge86" class="edge">
<title>Node46&#45;&gt;Node19</title>
<path fill="none" stroke="midnightblue" d="M371.49,-341.98C369.5,-333.49 366.37,-320.2 363.81,-309.32"/>
<polygon fill="midnightblue" stroke="midnightblue" points="367.2,-308.44 361.5,-299.51 360.39,-310.04 367.2,-308.44"/>
</g>
<!-- Node46&#45;&gt;Node23 -->
<g id="edge84" class="edge">
<title>Node46&#45;&gt;Node23</title>
<path fill="none" stroke="midnightblue" d="M414.33,-341.98C465.34,-331.33 552.6,-313.11 607.82,-301.58"/>
<polygon fill="midnightblue" stroke="midnightblue" points="608.67,-304.98 617.74,-299.51 607.24,-298.13 608.67,-304.98"/>
</g>
<!-- Node46&#45;&gt;Node27 -->
<g id="edge85" class="edge">
<title>Node46&#45;&gt;Node27</title>
<path fill="none" stroke="midnightblue" d="M386.03,-341.79C398.35,-332.64 416.95,-317.22 428.5,-300 438.03,-285.8 444.38,-267.32 448.14,-253.7"/>
<polygon fill="midnightblue" stroke="midnightblue" points="451.63,-254.15 450.7,-243.6 444.85,-252.43 451.63,-254.15"/>
</g>
</g>
</svg>
