<?xml version="1.0" encoding="UTF-8" standalone="no"?>
<!DOCTYPE svg PUBLIC "-//W3C//DTD SVG 1.1//EN"
 "http://www.w3.org/Graphics/SVG/1.1/DTD/svg11.dtd">
<!-- Generated by graphviz version 2.43.0 (0)
 -->
<!-- Title: include/StmtWrapper.h Pages: 1 -->
<svg width="687pt" height="408pt"
 viewBox="0.00 0.00 687.11 408.00" xmlns="http://www.w3.org/2000/svg" xmlns:xlink="http://www.w3.org/1999/xlink">
<g id="graph0" class="graph" transform="scale(1 1) rotate(0) translate(4 404)">
<title>include/StmtWrapper.h</title>
<!-- Node1 -->
<g id="node1" class="node">
<title>Node1</title>
<g id="a_node1"><a xlink:title=" ">
<polygon fill="#bfbfbf" stroke="black" points="468.94,-380.5 468.94,-399.5 596.94,-399.5 596.94,-380.5 468.94,-380.5"/>
<text text-anchor="middle" x="532.94" y="-387.5" font-family="Helvetica,sans-Serif" font-size="10.00">include/StmtWrapper.h</text>
</a>
</g>
</g>
<!-- Node2 -->
<g id="node2" class="node">
<title>Node2</title>
<g id="a_node2"><a xlink:href="MVCostModel_8h.html" target="_top" xlink:title=" ">
<polygon fill="none" stroke="black" points="204.44,-56.5 204.44,-86.5 351.44,-86.5 351.44,-56.5 204.44,-56.5"/>
<text text-anchor="start" x="212.44" y="-74.5" font-family="Helvetica,sans-Serif" font-size="10.00">include/CostModel/MVCost</text>
<text text-anchor="middle" x="277.94" y="-63.5" font-family="Helvetica,sans-Serif" font-size="10.00">Model.h</text>
</a>
</g>
</g>
<!-- Node1&#45;&gt;Node2 -->
<g id="edge1" class="edge">
<title>Node1&#45;&gt;Node2</title>
<path fill="none" stroke="midnightblue" d="M458.66,-388.17C312.57,-384.5 1.94,-365.86 1.94,-273.5 1.94,-273.5 1.94,-273.5 1.94,-204.5 1.94,-167.31 -5.82,-148.84 20.94,-123 24.3,-119.75 129.46,-99.83 204.2,-86"/>
<polygon fill="midnightblue" stroke="midnightblue" points="458.81,-391.67 468.89,-388.4 458.97,-384.67 458.81,-391.67"/>
</g>
<!-- Node3 -->
<g id="node3" class="node">
<title>Node3</title>
<g id="a_node3"><a xlink:href="MVFrontend_8h.html" target="_top" xlink:title=" ">
<polygon fill="none" stroke="black" points="484.94,-62 484.94,-81 606.94,-81 606.94,-62 484.94,-62"/>
<text text-anchor="middle" x="545.94" y="-69" font-family="Helvetica,sans-Serif" font-size="10.00">include/MVFrontend.h</text>
</a>
</g>
</g>
<!-- Node1&#45;&gt;Node3 -->
<g id="edge2" class="edge">
<title>Node1&#45;&gt;Node3</title>
<path fill="none" stroke="midnightblue" d="M571.56,-376.98C614.51,-360.93 677.94,-327.99 677.94,-273.5 677.94,-273.5 677.94,-273.5 677.94,-204.5 677.94,-167.31 682.61,-151.69 658.94,-123 640.75,-100.95 610.96,-88.19 586.53,-81"/>
<polygon fill="midnightblue" stroke="midnightblue" points="570.17,-373.76 561.93,-380.43 572.53,-380.35 570.17,-373.76"/>
</g>
<!-- Node5 -->
<g id="node5" class="node">
<title>Node5</title>
<g id="a_node5"><a xlink:href="MVRewriter_8h.html" target="_top" xlink:title=" ">
<polygon fill="none" stroke="black" points="529.94,-129 529.94,-148 649.94,-148 649.94,-129 529.94,-129"/>
<text text-anchor="middle" x="589.94" y="-136" font-family="Helvetica,sans-Serif" font-size="10.00">include/MVRewriter.h</text>
</a>
</g>
</g>
<!-- Node1&#45;&gt;Node5 -->
<g id="edge4" class="edge">
<title>Node1&#45;&gt;Node5</title>
<path fill="none" stroke="midnightblue" d="M537.13,-370.66C548.54,-320.71 579.85,-183.67 587.99,-148.05"/>
<polygon fill="midnightblue" stroke="midnightblue" points="533.72,-369.88 534.9,-380.41 540.54,-371.44 533.72,-369.88"/>
</g>
<!-- Node6 -->
<g id="node6" class="node">
<title>Node6</title>
<g id="a_node6"><a xlink:href="Node_8h.html" target="_top" xlink:title=" ">
<polygon fill="none" stroke="black" points="406.44,-324.5 406.44,-343.5 495.44,-343.5 495.44,-324.5 406.44,-324.5"/>
<text text-anchor="middle" x="450.94" y="-331.5" font-family="Helvetica,sans-Serif" font-size="10.00">include/Node.h</text>
</a>
</g>
</g>
<!-- Node1&#45;&gt;Node6 -->
<g id="edge6" class="edge">
<title>Node1&#45;&gt;Node6</title>
<path fill="none" stroke="midnightblue" d="M511.11,-374.62C496.13,-364.76 476.74,-351.99 464.08,-343.65"/>
<polygon fill="midnightblue" stroke="midnightblue" points="509.49,-377.75 519.76,-380.32 513.34,-371.9 509.49,-377.75"/>
</g>
<!-- Node4 -->
<g id="node4" class="node">
<title>Node4</title>
<g id="a_node4"><a xlink:href="macveth_8cpp.html" target="_top" xlink:title=" ">
<polygon fill="none" stroke="black" points="498.44,-0.5 498.44,-19.5 593.44,-19.5 593.44,-0.5 498.44,-0.5"/>
<text text-anchor="middle" x="545.94" y="-7.5" font-family="Helvetica,sans-Serif" font-size="10.00">lib/macveth.cpp</text>
</a>
</g>
</g>
<!-- Node3&#45;&gt;Node4 -->
<g id="edge3" class="edge">
<title>Node3&#45;&gt;Node4</title>
<path fill="none" stroke="midnightblue" d="M545.94,-51.82C545.94,-41 545.94,-27.9 545.94,-19.51"/>
<polygon fill="midnightblue" stroke="midnightblue" points="542.44,-51.98 545.94,-61.98 549.44,-51.98 542.44,-51.98"/>
</g>
<!-- Node5&#45;&gt;Node3 -->
<g id="edge5" class="edge">
<title>Node5&#45;&gt;Node3</title>
<path fill="none" stroke="midnightblue" d="M578.37,-120.4C569.82,-107.77 558.53,-91.1 551.78,-81.13"/>
<polygon fill="midnightblue" stroke="midnightblue" points="575.5,-122.41 584,-128.73 581.3,-118.49 575.5,-122.41"/>
</g>
<!-- Node7 -->
<g id="node7" class="node">
<title>Node7</title>
<g id="a_node7"><a xlink:href="CDAG_8h.html" target="_top" xlink:title=" ">
<polygon fill="none" stroke="black" points="441.94,-263 441.94,-282 533.94,-282 533.94,-263 441.94,-263"/>
<text text-anchor="middle" x="487.94" y="-270" font-family="Helvetica,sans-Serif" font-size="10.00">include/CDAG.h</text>
</a>
</g>
</g>
<!-- Node6&#45;&gt;Node7 -->
<g id="edge7" class="edge">
<title>Node6&#45;&gt;Node7</title>
<path fill="none" stroke="midnightblue" d="M461.72,-315.67C468.59,-304.61 477.21,-290.75 482.65,-282.01"/>
<polygon fill="midnightblue" stroke="midnightblue" points="458.55,-314.13 456.24,-324.48 464.49,-317.83 458.55,-314.13"/>
</g>
<!-- Node8 -->
<g id="node8" class="node">
<title>Node8</title>
<g id="a_node8"><a xlink:href="PlcmntAlgo_8h.html" target="_top" xlink:title=" ">
<polygon fill="none" stroke="black" points="354.44,-196 354.44,-215 473.44,-215 473.44,-196 354.44,-196"/>
<text text-anchor="middle" x="413.94" y="-203" font-family="Helvetica,sans-Serif" font-size="10.00">include/PlcmntAlgo.h</text>
</a>
</g>
</g>
<!-- Node6&#45;&gt;Node8 -->
<g id="edge20" class="edge">
<title>Node6&#45;&gt;Node8</title>
<path fill="none" stroke="midnightblue" d="M442.99,-314.94C439.6,-306.81 435.78,-297.03 432.94,-288 424.74,-261.94 418.34,-230.2 415.51,-215.18"/>
<polygon fill="midnightblue" stroke="midnightblue" points="439.79,-316.37 446.95,-324.18 446.23,-313.61 439.79,-316.37"/>
</g>
<!-- Node13 -->
<g id="node13" class="node">
<title>Node13</title>
<g id="a_node13"><a xlink:href="VectorIR_8h.html" target="_top" xlink:title=" ">
<polygon fill="none" stroke="black" points="214.44,-257.5 214.44,-287.5 333.44,-287.5 333.44,-257.5 214.44,-257.5"/>
<text text-anchor="start" x="222.44" y="-275.5" font-family="Helvetica,sans-Serif" font-size="10.00">include/Vectorization</text>
<text text-anchor="middle" x="273.94" y="-264.5" font-family="Helvetica,sans-Serif" font-size="10.00">/VectorIR.h</text>
</a>
</g>
</g>
<!-- Node6&#45;&gt;Node13 -->
<g id="edge21" class="edge">
<title>Node6&#45;&gt;Node13</title>
<path fill="none" stroke="midnightblue" d="M415.93,-321.23C387.11,-311.54 346.17,-297.78 315.65,-287.52"/>
<polygon fill="midnightblue" stroke="midnightblue" points="414.99,-324.61 425.58,-324.48 417.22,-317.97 414.99,-324.61"/>
</g>
<!-- Node7&#45;&gt;Node3 -->
<g id="edge8" class="edge">
<title>Node7&#45;&gt;Node3</title>
<path fill="none" stroke="midnightblue" d="M490.61,-252.78C495.02,-224.22 504.95,-168.31 520.94,-123 526.34,-107.69 535.25,-91 540.85,-81.16"/>
<polygon fill="midnightblue" stroke="midnightblue" points="487.11,-252.52 489.1,-262.93 494.04,-253.55 487.11,-252.52"/>
</g>
<!-- Node7&#45;&gt;Node5 -->
<g id="edge9" class="edge">
<title>Node7&#45;&gt;Node5</title>
<path fill="none" stroke="midnightblue" d="M500.95,-254.66C522.96,-226.18 566.75,-169.5 583.35,-148.02"/>
<polygon fill="midnightblue" stroke="midnightblue" points="497.98,-252.79 494.63,-262.84 503.52,-257.07 497.98,-252.79"/>
</g>
<!-- Node7&#45;&gt;Node8 -->
<g id="edge10" class="edge">
<title>Node7&#45;&gt;Node8</title>
<path fill="none" stroke="midnightblue" d="M470.13,-255.86C455.58,-243.08 435.56,-225.49 423.76,-215.13"/>
<polygon fill="midnightblue" stroke="midnightblue" points="468.14,-258.76 477.96,-262.73 472.76,-253.5 468.14,-258.76"/>
</g>
<!-- Node9 -->
<g id="node9" class="node">
<title>Node9</title>
<g id="a_node9"><a xlink:href="SIMDBackEnd_8h.html" target="_top" xlink:title=" ">
<polygon fill="none" stroke="black" points="211.44,-190.5 211.44,-220.5 336.44,-220.5 336.44,-190.5 211.44,-190.5"/>
<text text-anchor="start" x="219.44" y="-208.5" font-family="Helvetica,sans-Serif" font-size="10.00">include/Vectorization</text>
<text text-anchor="middle" x="273.94" y="-197.5" font-family="Helvetica,sans-Serif" font-size="10.00">/SIMD/SIMDBackEnd.h</text>
</a>
</g>
</g>
<!-- Node7&#45;&gt;Node9 -->
<g id="edge11" class="edge">
<title>Node7&#45;&gt;Node9</title>
<path fill="none" stroke="midnightblue" d="M449.8,-259.92C413.52,-248.9 358.86,-232.29 320.12,-220.53"/>
<polygon fill="midnightblue" stroke="midnightblue" points="448.94,-263.31 459.52,-262.87 450.97,-256.61 448.94,-263.31"/>
</g>
<!-- Node9&#45;&gt;Node2 -->
<g id="edge12" class="edge">
<title>Node9&#45;&gt;Node2</title>
<path fill="none" stroke="midnightblue" d="M271.12,-180.11C269.64,-163.91 268.43,-142.16 269.94,-123 270.91,-110.61 273.22,-96.67 275.1,-86.58"/>
<polygon fill="midnightblue" stroke="midnightblue" points="267.67,-180.75 272.15,-190.35 274.63,-180.05 267.67,-180.75"/>
</g>
<!-- Node9&#45;&gt;Node3 -->
<g id="edge15" class="edge">
<title>Node9&#45;&gt;Node3</title>
<path fill="none" stroke="midnightblue" d="M346.72,-189.71C378.03,-181.67 414.39,-170.02 444.94,-154 464.79,-143.59 514.81,-100.12 536.1,-81.27"/>
<polygon fill="midnightblue" stroke="midnightblue" points="345.6,-186.38 336.74,-192.19 347.29,-193.17 345.6,-186.38"/>
</g>
<!-- Node9&#45;&gt;Node5 -->
<g id="edge16" class="edge">
<title>Node9&#45;&gt;Node5</title>
<path fill="none" stroke="midnightblue" d="M346.56,-189.56C409.09,-176.7 497.13,-158.59 548.39,-148.05"/>
<polygon fill="midnightblue" stroke="midnightblue" points="345.84,-186.14 336.75,-191.58 347.25,-192.99 345.84,-186.14"/>
</g>
<!-- Node10 -->
<g id="node10" class="node">
<title>Node10</title>
<g id="a_node10"><a xlink:href="SIMDCostInfo_8h.html" target="_top" xlink:title=" ">
<polygon fill="none" stroke="black" points="278.44,-123.5 278.44,-153.5 435.44,-153.5 435.44,-123.5 278.44,-123.5"/>
<text text-anchor="start" x="286.44" y="-141.5" font-family="Helvetica,sans-Serif" font-size="10.00">include/CostModel/SIMDCost</text>
<text text-anchor="middle" x="356.94" y="-130.5" font-family="Helvetica,sans-Serif" font-size="10.00">Info.h</text>
</a>
</g>
</g>
<!-- Node9&#45;&gt;Node10 -->
<g id="edge13" class="edge">
<title>Node9&#45;&gt;Node10</title>
<path fill="none" stroke="midnightblue" d="M299.9,-184.17C312.59,-174.23 327.55,-162.51 338.96,-153.58"/>
<polygon fill="midnightblue" stroke="midnightblue" points="297.66,-181.47 291.95,-190.4 301.98,-186.99 297.66,-181.47"/>
</g>
<!-- Node11 -->
<g id="node11" class="node">
<title>Node11</title>
<g id="a_node11"><a xlink:href="AVX2BackEnd_8h.html" target="_top" xlink:title=" ">
<polygon fill="none" stroke="black" points="30.44,-123.5 30.44,-153.5 183.44,-153.5 183.44,-123.5 30.44,-123.5"/>
<text text-anchor="start" x="38.44" y="-141.5" font-family="Helvetica,sans-Serif" font-size="10.00">include/Vectorization</text>
<text text-anchor="middle" x="106.94" y="-130.5" font-family="Helvetica,sans-Serif" font-size="10.00">/SIMD/AVX2/AVX2BackEnd.h</text>
</a>
</g>
</g>
<!-- Node9&#45;&gt;Node11 -->
<g id="edge17" class="edge">
<title>Node9&#45;&gt;Node11</title>
<path fill="none" stroke="midnightblue" d="M228.16,-186.68C201.38,-176.26 168.04,-163.28 143.1,-153.58"/>
<polygon fill="midnightblue" stroke="midnightblue" points="227.11,-190.03 237.7,-190.4 229.65,-183.51 227.11,-190.03"/>
</g>
<!-- Node12 -->
<g id="node12" class="node">
<title>Node12</title>
<g id="a_node12"><a xlink:href="SIMDBackEndFactory_8h.html" target="_top" xlink:title=" ">
<polygon fill="none" stroke="black" points="27.94,-56.5 27.94,-86.5 185.94,-86.5 185.94,-56.5 27.94,-56.5"/>
<text text-anchor="start" x="35.94" y="-74.5" font-family="Helvetica,sans-Serif" font-size="10.00">include/Vectorization</text>
<text text-anchor="middle" x="106.94" y="-63.5" font-family="Helvetica,sans-Serif" font-size="10.00">/SIMD/SIMDBackEndFactory.h</text>
</a>
</g>
</g>
<!-- Node9&#45;&gt;Node12 -->
<g id="edge19" class="edge">
<title>Node9&#45;&gt;Node12</title>
<path fill="none" stroke="midnightblue" d="M254.98,-182.51C239.36,-165.16 216.1,-140.97 192.94,-123 174.88,-108.99 152.58,-96 135.21,-86.71"/>
<polygon fill="midnightblue" stroke="midnightblue" points="252.74,-185.27 261.99,-190.43 257.98,-180.62 252.74,-185.27"/>
</g>
<!-- Node10&#45;&gt;Node2 -->
<g id="edge14" class="edge">
<title>Node10&#45;&gt;Node2</title>
<path fill="none" stroke="midnightblue" d="M331.88,-116.88C319.88,-107.01 305.81,-95.43 295.05,-86.58"/>
<polygon fill="midnightblue" stroke="midnightblue" points="329.85,-119.75 339.8,-123.4 334.3,-114.34 329.85,-119.75"/>
</g>
<!-- Node11&#45;&gt;Node12 -->
<g id="edge18" class="edge">
<title>Node11&#45;&gt;Node12</title>
<path fill="none" stroke="midnightblue" d="M106.94,-113.11C106.94,-104.15 106.94,-94.32 106.94,-86.58"/>
<polygon fill="midnightblue" stroke="midnightblue" points="103.44,-113.4 106.94,-123.4 110.44,-113.4 103.44,-113.4"/>
</g>
<!-- Node13&#45;&gt;Node9 -->
<g id="edge23" class="edge">
<title>Node13&#45;&gt;Node9</title>
<path fill="none" stroke="midnightblue" d="M273.94,-247.11C273.94,-238.15 273.94,-228.32 273.94,-220.58"/>
<polygon fill="midnightblue" stroke="midnightblue" points="270.44,-247.4 273.94,-257.4 277.44,-247.4 270.44,-247.4"/>
</g>
<!-- Node13&#45;&gt;Node11 -->
<g id="edge22" class="edge">
<title>Node13&#45;&gt;Node11</title>
<path fill="none" stroke="midnightblue" d="M244.55,-251.44C231.61,-242.39 216.33,-231.41 202.94,-221 173.95,-198.45 141.66,-170.4 122.89,-153.78"/>
<polygon fill="midnightblue" stroke="midnightblue" points="242.88,-254.54 253.09,-257.37 246.87,-248.79 242.88,-254.54"/>
</g>
</g>
</svg>
