<?xml version="1.0" encoding="UTF-8" standalone="no"?>
<!DOCTYPE svg PUBLIC "-//W3C//DTD SVG 1.1//EN"
 "http://www.w3.org/Graphics/SVG/1.1/DTD/svg11.dtd">
<!-- Generated by graphviz version 2.43.0 (0)
 -->
<!-- Title: macveth::CostTable::Ports Pages: 1 -->
<svg width="131pt" height="106pt"
 viewBox="0.00 0.00 131.00 106.00" xmlns="http://www.w3.org/2000/svg" xmlns:xlink="http://www.w3.org/1999/xlink">
<g id="graph0" class="graph" transform="scale(1 1) rotate(0) translate(4 102)">
<title>macveth::CostTable::Ports</title>
<!-- Node1 -->
<g id="node1" class="node">
<title>Node1</title>
<g id="a_node1"><a xlink:title="This is a future feature, if is implemented any port algorithm.">
<polygon fill="#bfbfbf" stroke="black" points="10,-0.5 10,-30.5 123,-30.5 123,-0.5 10,-0.5"/>
<text text-anchor="start" x="18" y="-18.5" font-family="Helvetica,sans-Serif" font-size="10.00">macveth::CostTable</text>
<text text-anchor="middle" x="66.5" y="-7.5" font-family="Helvetica,sans-Serif" font-size="10.00">::Ports</text>
</a>
</g>
</g>
<!-- Node2 -->
<g id="node2" class="node">
<title>Node2</title>
<g id="a_node2"><a xlink:title=" ">
<polygon fill="none" stroke="#bfbfbf" points="0,-78.5 0,-97.5 67,-97.5 67,-78.5 0,-78.5"/>
<text text-anchor="middle" x="33.5" y="-85.5" font-family="Helvetica,sans-Serif" font-size="10.00">list&lt; int &gt;</text>
</a>
</g>
</g>
<!-- Node2&#45;&gt;Node1 -->
<g id="edge1" class="edge">
<title>Node2&#45;&gt;Node1</title>
<path fill="none" stroke="#9a32cd" stroke-dasharray="5,2" d="M41.94,-68.96C47.53,-57.03 54.75,-41.61 59.91,-30.58"/>
<polygon fill="#9a32cd" stroke="#9a32cd" points="38.62,-67.81 37.55,-78.36 44.96,-70.78 38.62,-67.81"/>
<text text-anchor="middle" x="56.5" y="-52" font-family="Helvetica,sans-Serif" font-size="10.00"> P</text>
</g>
<!-- Node3 -->
<g id="node3" class="node">
<title>Node3</title>
<g id="a_node3"><a xlink:title=" ">
<polygon fill="none" stroke="#bfbfbf" points="85,-78.5 85,-97.5 114,-97.5 114,-78.5 85,-78.5"/>
<text text-anchor="middle" x="99.5" y="-85.5" font-family="Helvetica,sans-Serif" font-size="10.00">int</text>
</a>
</g>
</g>
<!-- Node3&#45;&gt;Node1 -->
<g id="edge2" class="edge">
<title>Node3&#45;&gt;Node1</title>
<path fill="none" stroke="#9a32cd" stroke-dasharray="5,2" d="M91.06,-68.96C85.47,-57.03 78.25,-41.61 73.09,-30.58"/>
<polygon fill="#9a32cd" stroke="#9a32cd" points="88.04,-70.78 95.45,-78.36 94.38,-67.81 88.04,-70.78"/>
<text text-anchor="middle" x="103.5" y="-52" font-family="Helvetica,sans-Serif" font-size="10.00"> NUops</text>
</g>
</g>
</svg>
