<?xml version="1.0" encoding="UTF-8" standalone="no"?>
<!DOCTYPE svg PUBLIC "-//W3C//DTD SVG 1.1//EN"
 "http://www.w3.org/Graphics/SVG/1.1/DTD/svg11.dtd">
<!-- Generated by graphviz version 2.43.0 (0)
 -->
<!-- Title: macveth::PragmaEndScopHandler Pages: 1 -->
<svg width="295pt" height="162pt"
 viewBox="0.00 0.00 294.50 162.00" xmlns="http://www.w3.org/2000/svg" xmlns:xlink="http://www.w3.org/1999/xlink">
<g id="graph0" class="graph" transform="scale(1 1) rotate(0) translate(4 158)">
<title>macveth::PragmaEndScopHandler</title>
<!-- Node1 -->
<g id="node1" class="node">
<title>Node1</title>
<g id="a_node1"><a xlink:title="Handle pragmas of the form.">
<polygon fill="#bfbfbf" stroke="black" points="0,-0.5 0,-19.5 182,-19.5 182,-0.5 0,-0.5"/>
<text text-anchor="middle" x="91" y="-7.5" font-family="Helvetica,sans-Serif" font-size="10.00">macveth::PragmaEndScopHandler</text>
</a>
</g>
</g>
<!-- Node2 -->
<g id="node2" class="node">
<title>Node2</title>
<g id="a_node2"><a xlink:href="classPragmaHandler.html" target="_top" xlink:title=" ">
<polygon fill="none" stroke="black" points="29,-67.5 29,-86.5 121,-86.5 121,-67.5 29,-67.5"/>
<text text-anchor="middle" x="75" y="-74.5" font-family="Helvetica,sans-Serif" font-size="10.00">PragmaHandler</text>
</a>
</g>
</g>
<!-- Node2&#45;&gt;Node1 -->
<g id="edge1" class="edge">
<title>Node2&#45;&gt;Node1</title>
<path fill="none" stroke="midnightblue" d="M79.57,-57.41C82.63,-44.99 86.52,-29.22 88.88,-19.63"/>
<polygon fill="midnightblue" stroke="midnightblue" points="76.15,-56.69 77.16,-67.23 82.95,-58.36 76.15,-56.69"/>
</g>
<!-- Node3 -->
<g id="node3" class="node">
<title>Node3</title>
<g id="a_node3"><a xlink:href="structmacveth_1_1ScopHandler.html" target="_top" xlink:title="List of pairs of #pragma macveth and #pragma endmacveth source locations.">
<polygon fill="none" stroke="black" points="139.5,-67.5 139.5,-86.5 266.5,-86.5 266.5,-67.5 139.5,-67.5"/>
<text text-anchor="middle" x="203" y="-74.5" font-family="Helvetica,sans-Serif" font-size="10.00">macveth::ScopHandler</text>
</a>
</g>
</g>
<!-- Node3&#45;&gt;Node1 -->
<g id="edge2" class="edge">
<title>Node3&#45;&gt;Node1</title>
<path fill="none" stroke="#9a32cd" stroke-dasharray="5,2" d="M179.08,-62.12C156.89,-49.24 124.56,-30.48 105.87,-19.63"/>
<polygon fill="#9a32cd" stroke="#9a32cd" points="177.49,-65.24 187.9,-67.23 181,-59.19 177.49,-65.24"/>
<text text-anchor="middle" x="169" y="-41" font-family="Helvetica,sans-Serif" font-size="10.00"> Scops</text>
</g>
<!-- Node4 -->
<g id="node4" class="node">
<title>Node4</title>
<g id="a_node4"><a xlink:title=" ">
<polygon fill="none" stroke="#bfbfbf" points="119.5,-134.5 119.5,-153.5 286.5,-153.5 286.5,-134.5 119.5,-134.5"/>
<text text-anchor="middle" x="203" y="-141.5" font-family="Helvetica,sans-Serif" font-size="10.00">vector&lt; macveth::ScopLoc * &gt;</text>
</a>
</g>
</g>
<!-- Node4&#45;&gt;Node3 -->
<g id="edge3" class="edge">
<title>Node4&#45;&gt;Node3</title>
<path fill="none" stroke="#9a32cd" stroke-dasharray="5,2" d="M203,-124.04C203,-111.67 203,-96.12 203,-86.63"/>
<polygon fill="#9a32cd" stroke="#9a32cd" points="199.5,-124.23 203,-134.23 206.5,-124.23 199.5,-124.23"/>
<text text-anchor="middle" x="213.5" y="-108" font-family="Helvetica,sans-Serif" font-size="10.00"> List</text>
</g>
</g>
</svg>
