<?xml version="1.0" encoding="UTF-8" standalone="no"?>
<!DOCTYPE svg PUBLIC "-//W3C//DTD SVG 1.1//EN"
 "http://www.w3.org/Graphics/SVG/1.1/DTD/svg11.dtd">
<!-- Generated by graphviz version 2.43.0 (0)
 -->
<!-- Title: macveth::Node::OutputInfo Pages: 1 -->
<svg width="506pt" height="162pt"
 viewBox="0.00 0.00 505.50 162.00" xmlns="http://www.w3.org/2000/svg" xmlns:xlink="http://www.w3.org/1999/xlink">
<g id="graph0" class="graph" transform="scale(1 1) rotate(0) translate(4 158)">
<title>macveth::Node::OutputInfo</title>
<!-- Node1 -->
<g id="node1" class="node">
<title>Node1</title>
<g id="a_node1"><a xlink:title="If the node is NODE_OP type, then it will hold a result value.">
<polygon fill="#bfbfbf" stroke="black" points="264,-0.5 264,-19.5 413,-19.5 413,-0.5 264,-0.5"/>
<text text-anchor="middle" x="338.5" y="-7.5" font-family="Helvetica,sans-Serif" font-size="10.00">macveth::Node::OutputInfo</text>
</a>
</g>
</g>
<!-- Node2 -->
<g id="node2" class="node">
<title>Node2</title>
<g id="a_node2"><a xlink:href="structmacveth_1_1MVOp.html" target="_top" xlink:title="MVOp is meant to identify those operations that Clang lacks.">
<polygon fill="none" stroke="black" points="132,-67.5 132,-86.5 227,-86.5 227,-67.5 132,-67.5"/>
<text text-anchor="middle" x="179.5" y="-74.5" font-family="Helvetica,sans-Serif" font-size="10.00">macveth::MVOp</text>
</a>
</g>
</g>
<!-- Node2&#45;&gt;Node1 -->
<g id="edge1" class="edge">
<title>Node2&#45;&gt;Node1</title>
<path fill="none" stroke="#9a32cd" stroke-dasharray="5,2" d="M210.23,-63.44C241.81,-50.53 290.12,-30.78 317.55,-19.56"/>
<polygon fill="#9a32cd" stroke="#9a32cd" points="208.55,-60.34 200.61,-67.37 211.19,-66.82 208.55,-60.34"/>
<text text-anchor="middle" x="286" y="-41" font-family="Helvetica,sans-Serif" font-size="10.00"> MVOP</text>
</g>
<!-- Node3 -->
<g id="node3" class="node">
<title>Node3</title>
<g id="a_node3"><a xlink:title=" ">
<polygon fill="none" stroke="#bfbfbf" points="0,-134.5 0,-153.5 53,-153.5 53,-134.5 0,-134.5"/>
<text text-anchor="middle" x="26.5" y="-141.5" font-family="Helvetica,sans-Serif" font-size="10.00">Opcode</text>
</a>
</g>
</g>
<!-- Node3&#45;&gt;Node2 -->
<g id="edge2" class="edge">
<title>Node3&#45;&gt;Node2</title>
<path fill="none" stroke="#9a32cd" stroke-dasharray="5,2" d="M46.93,-128.88C58.93,-121.05 74.61,-111.6 89.5,-105 106.8,-97.33 126.9,-91.07 143.71,-86.51"/>
<polygon fill="#9a32cd" stroke="#9a32cd" points="44.92,-126.01 38.55,-134.47 48.81,-131.83 44.92,-126.01"/>
<text text-anchor="middle" x="112" y="-108" font-family="Helvetica,sans-Serif" font-size="10.00"> ClangOP</text>
</g>
<!-- Node4 -->
<g id="node4" class="node">
<title>Node4</title>
<g id="a_node4"><a xlink:title=" ">
<polygon fill="none" stroke="#bfbfbf" points="71.5,-134.5 71.5,-153.5 139.5,-153.5 139.5,-134.5 71.5,-134.5"/>
<text text-anchor="middle" x="105.5" y="-141.5" font-family="Helvetica,sans-Serif" font-size="10.00">MVOpType</text>
</a>
</g>
</g>
<!-- Node4&#45;&gt;Node2 -->
<g id="edge3" class="edge">
<title>Node4&#45;&gt;Node2</title>
<path fill="none" stroke="#9a32cd" stroke-dasharray="5,2" d="M123.31,-127.36C137.86,-114.58 157.88,-96.99 169.68,-86.63"/>
<polygon fill="#9a32cd" stroke="#9a32cd" points="120.68,-125 115.48,-134.23 125.3,-130.26 120.68,-125"/>
<text text-anchor="middle" x="152.5" y="-108" font-family="Helvetica,sans-Serif" font-size="10.00"> T</text>
</g>
<!-- Node5 -->
<g id="node5" class="node">
<title>Node5</title>
<g id="a_node5"><a xlink:title=" ">
<polygon fill="none" stroke="#bfbfbf" points="157.5,-134.5 157.5,-153.5 201.5,-153.5 201.5,-134.5 157.5,-134.5"/>
<text text-anchor="middle" x="179.5" y="-141.5" font-family="Helvetica,sans-Serif" font-size="10.00">string</text>
</a>
</g>
</g>
<!-- Node5&#45;&gt;Node2 -->
<g id="edge4" class="edge">
<title>Node5&#45;&gt;Node2</title>
<path fill="none" stroke="#9a32cd" stroke-dasharray="5,2" d="M179.5,-124.04C179.5,-111.67 179.5,-96.12 179.5,-86.63"/>
<polygon fill="#9a32cd" stroke="#9a32cd" points="176,-124.23 179.5,-134.23 183,-124.23 176,-124.23"/>
<text text-anchor="middle" x="195" y="-108" font-family="Helvetica,sans-Serif" font-size="10.00"> Prefix</text>
</g>
<!-- Node6 -->
<g id="node6" class="node">
<title>Node6</title>
<g id="a_node6"><a xlink:title=" ">
<polygon fill="none" stroke="#bfbfbf" points="220,-134.5 220,-153.5 291,-153.5 291,-134.5 220,-134.5"/>
<text text-anchor="middle" x="255.5" y="-141.5" font-family="Helvetica,sans-Serif" font-size="10.00">MVOpCode</text>
</a>
</g>
</g>
<!-- Node6&#45;&gt;Node2 -->
<g id="edge5" class="edge">
<title>Node6&#45;&gt;Node2</title>
<path fill="none" stroke="#9a32cd" stroke-dasharray="5,2" d="M239.27,-127.32C231.86,-120.33 222.88,-112.09 214.5,-105 206.88,-98.56 197.98,-91.69 191.05,-86.5"/>
<polygon fill="#9a32cd" stroke="#9a32cd" points="236.94,-129.94 246.59,-134.31 241.77,-124.87 236.94,-129.94"/>
<text text-anchor="middle" x="246.5" y="-108" font-family="Helvetica,sans-Serif" font-size="10.00"> MVOpC</text>
</g>
<!-- Node7 -->
<g id="node7" class="node">
<title>Node7</title>
<g id="a_node7"><a xlink:title=" ">
<polygon fill="none" stroke="#bfbfbf" points="309.5,-134.5 309.5,-153.5 401.5,-153.5 401.5,-134.5 309.5,-134.5"/>
<text text-anchor="middle" x="355.5" y="-141.5" font-family="Helvetica,sans-Serif" font-size="10.00">anonymous:@1</text>
</a>
</g>
</g>
<!-- Node7&#45;&gt;Node2 -->
<g id="edge6" class="edge">
<title>Node7&#45;&gt;Node2</title>
<path fill="none" stroke="#9a32cd" stroke-dasharray="5,2" d="M329.11,-130.12C312.51,-122.29 290.52,-112.41 270.5,-105 251.49,-97.97 229.74,-91.46 212.27,-86.59"/>
<polygon fill="#9a32cd" stroke="#9a32cd" points="327.67,-133.31 338.2,-134.45 330.68,-126.99 327.67,-133.31"/>
<text text-anchor="middle" x="306" y="-108" font-family="Helvetica,sans-Serif" font-size="10.00"> @1</text>
</g>
<!-- Node8 -->
<g id="node8" class="node">
<title>Node8</title>
<g id="a_node8"><a xlink:href="classmacveth_1_1MVExpr.html" target="_top" xlink:title="Expressions in MACVETH inherit from MVExpr.">
<polygon fill="none" stroke="black" points="245,-67.5 245,-86.5 348,-86.5 348,-67.5 245,-67.5"/>
<text text-anchor="middle" x="296.5" y="-74.5" font-family="Helvetica,sans-Serif" font-size="10.00">macveth::MVExpr</text>
</a>
</g>
</g>
<!-- Node8&#45;&gt;Node1 -->
<g id="edge7" class="edge">
<title>Node8&#45;&gt;Node1</title>
<path fill="none" stroke="#9a32cd" stroke-dasharray="5,2" d="M307.79,-58.53C315.92,-45.95 326.54,-29.51 332.93,-19.63"/>
<polygon fill="#9a32cd" stroke="#9a32cd" points="304.65,-56.94 302.16,-67.23 310.53,-60.73 304.65,-56.94"/>
<text text-anchor="middle" x="324.5" y="-41" font-family="Helvetica,sans-Serif" font-size="10.00"> E</text>
</g>
<!-- Node9 -->
<g id="node9" class="node">
<title>Node9</title>
<g id="a_node9"><a xlink:title=" ">
<polygon fill="none" stroke="#bfbfbf" points="366.5,-67.5 366.5,-86.5 404.5,-86.5 404.5,-67.5 366.5,-67.5"/>
<text text-anchor="middle" x="385.5" y="-74.5" font-family="Helvetica,sans-Serif" font-size="10.00">bool</text>
</a>
</g>
</g>
<!-- Node9&#45;&gt;Node1 -->
<g id="edge8" class="edge">
<title>Node9&#45;&gt;Node1</title>
<path fill="none" stroke="#9a32cd" stroke-dasharray="5,2" d="M373.14,-58.9C364.01,-46.27 351.95,-29.6 344.74,-19.63"/>
<polygon fill="#9a32cd" stroke="#9a32cd" points="370.47,-61.18 379.16,-67.23 376.14,-57.08 370.47,-61.18"/>
<text text-anchor="middle" x="393" y="-41" font-family="Helvetica,sans-Serif" font-size="10.00"> IsBinaryOp</text>
</g>
<!-- Node10 -->
<g id="node10" class="node">
<title>Node10</title>
<g id="a_node10"><a xlink:title=" ">
<polygon fill="none" stroke="#bfbfbf" points="425.5,-67.5 425.5,-86.5 497.5,-86.5 497.5,-67.5 425.5,-67.5"/>
<text text-anchor="middle" x="461.5" y="-74.5" font-family="Helvetica,sans-Serif" font-size="10.00">OutputType</text>
</a>
</g>
</g>
<!-- Node10&#45;&gt;Node1 -->
<g id="edge9" class="edge">
<title>Node10&#45;&gt;Node1</title>
<path fill="none" stroke="#9a32cd" stroke-dasharray="5,2" d="M448.84,-59.14C442.54,-51.75 434.37,-43.52 425.5,-38 412.07,-29.64 395.86,-23.7 381.09,-19.55"/>
<polygon fill="#9a32cd" stroke="#9a32cd" points="446.33,-61.6 455.32,-67.22 451.79,-57.23 446.33,-61.6"/>
<text text-anchor="middle" x="451.5" y="-41" font-family="Helvetica,sans-Serif" font-size="10.00"> Type</text>
</g>
</g>
</svg>
