<?xml version="1.0" encoding="UTF-8" standalone="no"?>
<!DOCTYPE svg PUBLIC "-//W3C//DTD SVG 1.1//EN"
 "http://www.w3.org/Graphics/SVG/1.1/DTD/svg11.dtd">
<!-- Generated by graphviz version 2.43.0 (0)
 -->
<!-- Title: macveth::InstCostInfo Pages: 1 -->
<svg width="227pt" height="106pt"
 viewBox="0.00 0.00 227.00 106.00" xmlns="http://www.w3.org/2000/svg" xmlns:xlink="http://www.w3.org/1999/xlink">
<g id="graph0" class="graph" transform="scale(1 1) rotate(0) translate(4 102)">
<title>macveth::InstCostInfo</title>
<!-- Node1 -->
<g id="node1" class="node">
<title>Node1</title>
<g id="a_node1"><a xlink:title="Wrapper for calculating the cost of instructions.">
<polygon fill="#bfbfbf" stroke="black" points="52,-0.5 52,-19.5 176,-19.5 176,-0.5 52,-0.5"/>
<text text-anchor="middle" x="114" y="-7.5" font-family="Helvetica,sans-Serif" font-size="10.00">macveth::InstCostInfo</text>
</a>
</g>
</g>
<!-- Node2 -->
<g id="node2" class="node">
<title>Node2</title>
<g id="a_node2"><a xlink:title=" ">
<polygon fill="none" stroke="#bfbfbf" points="0,-78.5 0,-97.5 50,-97.5 50,-78.5 0,-78.5"/>
<text text-anchor="middle" x="25" y="-85.5" font-family="Helvetica,sans-Serif" font-size="10.00">double</text>
</a>
</g>
</g>
<!-- Node2&#45;&gt;Node1 -->
<g id="edge1" class="edge">
<title>Node2&#45;&gt;Node1</title>
<path fill="none" stroke="#9a32cd" stroke-dasharray="5,2" d="M31.23,-68.68C35.46,-58.53 41.95,-46.33 51,-38 60.02,-29.7 71.98,-23.71 83.05,-19.51"/>
<polygon fill="#9a32cd" stroke="#9a32cd" points="27.87,-67.67 27.62,-78.26 34.42,-70.13 27.87,-67.67"/>
<text text-anchor="middle" x="80.5" y="-46.5" font-family="Helvetica,sans-Serif" font-size="10.00"> Throughput</text>
</g>
<!-- Node3 -->
<g id="node3" class="node">
<title>Node3</title>
<g id="a_node3"><a xlink:title=" ">
<polygon fill="none" stroke="#bfbfbf" points="68,-78.5 68,-97.5 160,-97.5 160,-78.5 68,-78.5"/>
<text text-anchor="middle" x="114" y="-85.5" font-family="Helvetica,sans-Serif" font-size="10.00">map&lt; int, int &gt;</text>
</a>
</g>
</g>
<!-- Node3&#45;&gt;Node1 -->
<g id="edge2" class="edge">
<title>Node3&#45;&gt;Node1</title>
<path fill="none" stroke="#9a32cd" stroke-dasharray="5,2" d="M114,-68.22C114,-52.7 114,-31.36 114,-19.62"/>
<polygon fill="#9a32cd" stroke="#9a32cd" points="110.5,-68.28 114,-78.28 117.5,-68.28 110.5,-68.28"/>
<text text-anchor="middle" x="135" y="-46.5" font-family="Helvetica,sans-Serif" font-size="10.00"> NoPorts</text>
</g>
<!-- Node4 -->
<g id="node4" class="node">
<title>Node4</title>
<g id="a_node4"><a xlink:title=" ">
<polygon fill="none" stroke="#bfbfbf" points="178.5,-78.5 178.5,-97.5 207.5,-97.5 207.5,-78.5 178.5,-78.5"/>
<text text-anchor="middle" x="193" y="-85.5" font-family="Helvetica,sans-Serif" font-size="10.00">int</text>
</a>
</g>
</g>
<!-- Node4&#45;&gt;Node1 -->
<g id="edge3" class="edge">
<title>Node4&#45;&gt;Node1</title>
<path fill="none" stroke="#9a32cd" stroke-dasharray="5,2" d="M183.61,-69.13C177.75,-59.15 169.53,-46.96 160,-38 152.04,-30.52 141.64,-24.2 132.75,-19.55"/>
<polygon fill="#9a32cd" stroke="#9a32cd" points="180.71,-71.13 188.63,-78.17 186.83,-67.73 180.71,-71.13"/>
<text text-anchor="middle" x="198" y="-52" font-family="Helvetica,sans-Serif" font-size="10.00"> Latency</text>
<text text-anchor="middle" x="198" y="-41" font-family="Helvetica,sans-Serif" font-size="10.00">UOps</text>
</g>
</g>
</svg>
