<?xml version="1.0" encoding="UTF-8" standalone="no"?>
<!DOCTYPE svg PUBLIC "-//W3C//DTD SVG 1.1//EN"
 "http://www.w3.org/Graphics/SVG/1.1/DTD/svg11.dtd">
<!-- Generated by graphviz version 2.43.0 (0)
 -->
<!-- Title: macveth::VectorIR::VectorOP Pages: 1 -->
<svg width="874pt" height="318pt"
 viewBox="0.00 0.00 873.50 318.00" xmlns="http://www.w3.org/2000/svg" xmlns:xlink="http://www.w3.org/1999/xlink">
<g id="graph0" class="graph" transform="scale(1 1) rotate(0) translate(4 314)">
<title>macveth::VectorIR::VectorOP</title>
<!-- Node1 -->
<g id="node1" class="node">
<title>Node1</title>
<g id="a_node1"><a xlink:title="Main component of the VectorIR which wraps the selected DAGs based on the placement and/or free sched...">
<polygon fill="#bfbfbf" stroke="black" points="320.5,-0.5 320.5,-30.5 432.5,-30.5 432.5,-0.5 320.5,-0.5"/>
<text text-anchor="start" x="328.5" y="-18.5" font-family="Helvetica,sans-Serif" font-size="10.00">macveth::VectorIR::</text>
<text text-anchor="middle" x="376.5" y="-7.5" font-family="Helvetica,sans-Serif" font-size="10.00">VectorOP</text>
</a>
</g>
</g>
<!-- Node2 -->
<g id="node2" class="node">
<title>Node2</title>
<g id="a_node2"><a xlink:title=" ">
<polygon fill="none" stroke="#bfbfbf" points="0,-290.5 0,-309.5 69,-309.5 69,-290.5 0,-290.5"/>
<text text-anchor="middle" x="34.5" y="-297.5" font-family="Helvetica,sans-Serif" font-size="10.00">VDataType</text>
</a>
</g>
</g>
<!-- Node2&#45;&gt;Node1 -->
<g id="edge1" class="edge">
<title>Node2&#45;&gt;Node1</title>
<path fill="none" stroke="#9a32cd" stroke-dasharray="5,2" d="M31.47,-280C27.73,-250.25 24.51,-191.87 48.5,-151 104.27,-55.99 242.41,-28.09 320.47,-19.9"/>
<polygon fill="#9a32cd" stroke="#9a32cd" points="28.05,-280.82 32.93,-290.22 34.98,-279.83 28.05,-280.82"/>
<text text-anchor="middle" x="101" y="-114" font-family="Helvetica,sans-Serif" font-size="10.00"> DT</text>
</g>
<!-- Node4 -->
<g id="node4" class="node">
<title>Node4</title>
<g id="a_node4"><a xlink:href="structmacveth_1_1VectorIR_1_1VOperand.html" target="_top" xlink:title="Vector operand basically is a wrap of VL (vector length) operands in the original Node.">
<polygon fill="none" stroke="black" points="320.5,-101.5 320.5,-131.5 432.5,-131.5 432.5,-101.5 320.5,-101.5"/>
<text text-anchor="start" x="328.5" y="-119.5" font-family="Helvetica,sans-Serif" font-size="10.00">macveth::VectorIR::</text>
<text text-anchor="middle" x="376.5" y="-108.5" font-family="Helvetica,sans-Serif" font-size="10.00">VOperand</text>
</a>
</g>
</g>
<!-- Node2&#45;&gt;Node4 -->
<g id="edge4" class="edge">
<title>Node2&#45;&gt;Node4</title>
<path fill="none" stroke="#9a32cd" stroke-dasharray="5,2" d="M42.05,-280.74C43.22,-277.82 44.41,-274.83 45.5,-272 66.08,-218.6 44.62,-186.49 89.5,-151 91.75,-149.22 237.44,-132.87 320.35,-123.68"/>
<polygon fill="#9a32cd" stroke="#9a32cd" points="38.79,-279.45 38.25,-290.03 45.27,-282.1 38.79,-279.45"/>
<text text-anchor="middle" x="106.5" y="-209" font-family="Helvetica,sans-Serif" font-size="10.00"> DType</text>
</g>
<!-- Node3 -->
<g id="node3" class="node">
<title>Node3</title>
<g id="a_node3"><a xlink:title=" ">
<polygon fill="none" stroke="#bfbfbf" points="87.5,-290.5 87.5,-309.5 139.5,-309.5 139.5,-290.5 87.5,-290.5"/>
<text text-anchor="middle" x="113.5" y="-297.5" font-family="Helvetica,sans-Serif" font-size="10.00">VWidth</text>
</a>
</g>
</g>
<!-- Node3&#45;&gt;Node1 -->
<g id="edge2" class="edge">
<title>Node3&#45;&gt;Node1</title>
<path fill="none" stroke="#9a32cd" stroke-dasharray="5,2" d="M111.11,-280.06C108.31,-250.39 106.72,-192.11 130.5,-151 170.65,-81.58 261,-45.81 320.32,-29.12"/>
<polygon fill="#9a32cd" stroke="#9a32cd" points="107.66,-280.7 112.23,-290.25 114.61,-279.93 107.66,-280.7"/>
<text text-anchor="middle" x="184.5" y="-114" font-family="Helvetica,sans-Serif" font-size="10.00"> VW</text>
</g>
<!-- Node3&#45;&gt;Node4 -->
<g id="edge5" class="edge">
<title>Node3&#45;&gt;Node4</title>
<path fill="none" stroke="#9a32cd" stroke-dasharray="5,2" d="M123.17,-281.15C124.68,-278.13 126.18,-275 127.5,-272 150.5,-219.6 127.44,-187.51 171.5,-151 182.87,-141.58 263.57,-130.5 320.25,-123.75"/>
<polygon fill="#9a32cd" stroke="#9a32cd" points="120,-279.66 118.46,-290.14 126.2,-282.9 120,-279.66"/>
<text text-anchor="middle" x="187.5" y="-209" font-family="Helvetica,sans-Serif" font-size="10.00"> Width</text>
</g>
<!-- Node4&#45;&gt;Node1 -->
<g id="edge3" class="edge">
<title>Node4&#45;&gt;Node1</title>
<path fill="none" stroke="#9a32cd" stroke-dasharray="5,2" d="M376.5,-91.3C376.5,-72.28 376.5,-46.45 376.5,-30.66"/>
<polygon fill="#9a32cd" stroke="#9a32cd" points="373,-91.32 376.5,-101.32 380,-91.32 373,-91.32"/>
<text text-anchor="middle" x="387" y="-74" font-family="Helvetica,sans-Serif" font-size="10.00"> R</text>
<text text-anchor="middle" x="387" y="-63" font-family="Helvetica,sans-Serif" font-size="10.00">OpA</text>
<text text-anchor="middle" x="387" y="-52" font-family="Helvetica,sans-Serif" font-size="10.00">OpB</text>
</g>
<!-- Node5 -->
<g id="node5" class="node">
<title>Node5</title>
<g id="a_node5"><a xlink:title=" ">
<polygon fill="none" stroke="#bfbfbf" points="471,-290.5 471,-309.5 590,-309.5 590,-290.5 471,-290.5"/>
<text text-anchor="middle" x="530.5" y="-297.5" font-family="Helvetica,sans-Serif" font-size="10.00">vector&lt; std::string &gt;</text>
</a>
</g>
</g>
<!-- Node5&#45;&gt;Node4 -->
<g id="edge6" class="edge">
<title>Node5&#45;&gt;Node4</title>
<path fill="none" stroke="#9a32cd" stroke-dasharray="5,2" d="M473.15,-286.71C464.83,-283.02 456.92,-278.23 450.5,-272 409.31,-232.05 434.74,-200.37 405.5,-151 401.42,-144.12 395.87,-137.3 390.72,-131.63"/>
<polygon fill="#9a32cd" stroke="#9a32cd" points="472.07,-290.05 482.66,-290.42 474.61,-283.53 472.07,-290.05"/>
<text text-anchor="middle" x="481" y="-209" font-family="Helvetica,sans-Serif" font-size="10.00"> StoreValues</text>
</g>
<!-- Node6 -->
<g id="node6" class="node">
<title>Node6</title>
<g id="a_node6"><a xlink:title=" ">
<polygon fill="none" stroke="#bfbfbf" points="158,-290.5 158,-309.5 187,-309.5 187,-290.5 158,-290.5"/>
<text text-anchor="middle" x="172.5" y="-297.5" font-family="Helvetica,sans-Serif" font-size="10.00">int</text>
</a>
</g>
</g>
<!-- Node6&#45;&gt;Node1 -->
<g id="edge13" class="edge">
<title>Node6&#45;&gt;Node1</title>
<path fill="none" stroke="#9a32cd" stroke-dasharray="5,2" d="M179.7,-280.51C180.7,-277.68 181.67,-274.78 182.5,-272 198.34,-219.12 181.24,-197.81 210.5,-151 245.59,-94.86 312.45,-51.62 349.72,-30.58"/>
<polygon fill="#9a32cd" stroke="#9a32cd" points="176.34,-279.5 176.12,-290.1 182.9,-281.95 176.34,-279.5"/>
<text text-anchor="middle" x="269" y="-125" font-family="Helvetica,sans-Serif" font-size="10.00"> Offset</text>
<text text-anchor="middle" x="269" y="-114" font-family="Helvetica,sans-Serif" font-size="10.00">Order</text>
<text text-anchor="middle" x="269" y="-103" font-family="Helvetica,sans-Serif" font-size="10.00">Cost</text>
</g>
<!-- Node6&#45;&gt;Node4 -->
<g id="edge7" class="edge">
<title>Node6&#45;&gt;Node4</title>
<path fill="none" stroke="#9a32cd" stroke-dasharray="5,2" d="M195.62,-285.21C200.21,-281.47 204.52,-277.03 207.5,-272 235.24,-225.16 189.26,-190.7 226.5,-151 239.32,-137.33 283.25,-128.57 320.28,-123.46"/>
<polygon fill="#9a32cd" stroke="#9a32cd" points="193.39,-282.5 187.31,-291.17 197.47,-288.19 193.39,-282.5"/>
<text text-anchor="middle" x="243" y="-214.5" font-family="Helvetica,sans-Serif" font-size="10.00"> Offset</text>
<text text-anchor="middle" x="243" y="-203.5" font-family="Helvetica,sans-Serif" font-size="10.00">Order</text>
</g>
<!-- Node7 -->
<g id="node7" class="node">
<title>Node7</title>
<g id="a_node7"><a xlink:title=" ">
<polygon fill="none" stroke="#bfbfbf" points="665,-290.5 665,-309.5 756,-309.5 756,-290.5 665,-290.5"/>
<text text-anchor="middle" x="710.5" y="-297.5" font-family="Helvetica,sans-Serif" font-size="10.00">vector&lt; long &gt;</text>
</a>
</g>
</g>
<!-- Node7&#45;&gt;Node4 -->
<g id="edge8" class="edge">
<title>Node7&#45;&gt;Node4</title>
<path fill="none" stroke="#9a32cd" stroke-dasharray="5,2" d="M686.84,-284.51C682.02,-280.84 677.28,-276.61 673.5,-272 635.92,-226.18 665.11,-186.28 617.5,-151 589.03,-129.91 494.39,-122.07 432.52,-119.18"/>
<polygon fill="#9a32cd" stroke="#9a32cd" points="685.19,-287.63 695.39,-290.48 689.2,-281.89 685.19,-287.63"/>
<text text-anchor="middle" x="683" y="-209" font-family="Helvetica,sans-Serif" font-size="10.00"> Idx</text>
</g>
<!-- Node8 -->
<g id="node8" class="node">
<title>Node8</title>
<g id="a_node8"><a xlink:title=" ">
<polygon fill="none" stroke="#bfbfbf" points="608.5,-290.5 608.5,-309.5 646.5,-309.5 646.5,-290.5 608.5,-290.5"/>
<text text-anchor="middle" x="627.5" y="-297.5" font-family="Helvetica,sans-Serif" font-size="10.00">bool</text>
</a>
</g>
</g>
<!-- Node8&#45;&gt;Node1 -->
<g id="edge14" class="edge">
<title>Node8&#45;&gt;Node1</title>
<path fill="none" stroke="#9a32cd" stroke-dasharray="5,2" d="M630.83,-280.57C635.19,-250.73 639.49,-191.15 613.5,-151 571.08,-85.47 484.89,-48.54 428.97,-30.56"/>
<polygon fill="#9a32cd" stroke="#9a32cd" points="627.38,-280.01 629.22,-290.44 634.28,-281.14 627.38,-280.01"/>
<text text-anchor="middle" x="620" y="-114" font-family="Helvetica,sans-Serif" font-size="10.00"> IsUnary</text>
</g>
<!-- Node8&#45;&gt;Node4 -->
<g id="edge9" class="edge">
<title>Node8&#45;&gt;Node4</title>
<path fill="none" stroke="#9a32cd" stroke-dasharray="5,2" d="M598.8,-290.09C598.7,-290.06 598.6,-290.03 598.5,-290 570.17,-281.62 554.47,-293.78 534.5,-272 497.5,-231.66 549.12,-190.76 511.5,-151 500.51,-139.38 464.73,-130.81 432.77,-125.25"/>
<polygon fill="#9a32cd" stroke="#9a32cd" points="597.91,-293.47 608.49,-293.02 599.93,-286.77 597.91,-293.47"/>
<text text-anchor="middle" x="574" y="-264" font-family="Helvetica,sans-Serif" font-size="10.00"> IsTmpResult</text>
<text text-anchor="middle" x="574" y="-253" font-family="Helvetica,sans-Serif" font-size="10.00">IsPartial</text>
<text text-anchor="middle" x="574" y="-242" font-family="Helvetica,sans-Serif" font-size="10.00">LowBits</text>
<text text-anchor="middle" x="574" y="-231" font-family="Helvetica,sans-Serif" font-size="10.00">IsStore</text>
<text text-anchor="middle" x="574" y="-220" font-family="Helvetica,sans-Serif" font-size="10.00">OutOfCacheLine</text>
<text text-anchor="middle" x="574" y="-209" font-family="Helvetica,sans-Serif" font-size="10.00">HighBits</text>
<text text-anchor="middle" x="574" y="-198" font-family="Helvetica,sans-Serif" font-size="10.00">SameVector</text>
<text text-anchor="middle" x="574" y="-187" font-family="Helvetica,sans-Serif" font-size="10.00">Unaligned</text>
<text text-anchor="middle" x="574" y="-176" font-family="Helvetica,sans-Serif" font-size="10.00">IsLoad</text>
<text text-anchor="middle" x="574" y="-165" font-family="Helvetica,sans-Serif" font-size="10.00">EqualVal</text>
<text text-anchor="middle" x="574" y="-154" font-family="Helvetica,sans-Serif" font-size="10.00">...</text>
</g>
<!-- Node9 -->
<g id="node9" class="node">
<title>Node9</title>
<g id="a_node9"><a xlink:title=" ">
<polygon fill="none" stroke="#bfbfbf" points="774.5,-290.5 774.5,-309.5 818.5,-309.5 818.5,-290.5 774.5,-290.5"/>
<text text-anchor="middle" x="796.5" y="-297.5" font-family="Helvetica,sans-Serif" font-size="10.00">string</text>
</a>
</g>
</g>
<!-- Node9&#45;&gt;Node1 -->
<g id="edge15" class="edge">
<title>Node9&#45;&gt;Node1</title>
<path fill="none" stroke="#9a32cd" stroke-dasharray="5,2" d="M798.41,-280C800.42,-249.37 799.87,-188.69 769.5,-151 686.23,-47.69 519.64,-23.4 432.51,-17.92"/>
<polygon fill="#9a32cd" stroke="#9a32cd" points="794.9,-279.91 797.57,-290.16 801.88,-280.49 794.9,-279.91"/>
<text text-anchor="middle" x="761.5" y="-114" font-family="Helvetica,sans-Serif" font-size="10.00"> VN</text>
</g>
<!-- Node9&#45;&gt;Node4 -->
<g id="edge10" class="edge">
<title>Node9&#45;&gt;Node4</title>
<path fill="none" stroke="#9a32cd" stroke-dasharray="5,2" d="M764.54,-289.16C742.65,-282.3 717.26,-274.01 715.5,-272 679.47,-230.79 732.77,-188.08 692.5,-151 683.08,-142.32 520.96,-128.6 432.7,-121.72"/>
<polygon fill="#9a32cd" stroke="#9a32cd" points="763.67,-292.56 774.26,-292.19 765.75,-285.88 763.67,-292.56"/>
<text text-anchor="middle" x="742.5" y="-214.5" font-family="Helvetica,sans-Serif" font-size="10.00"> BaseArray</text>
<text text-anchor="middle" x="742.5" y="-203.5" font-family="Helvetica,sans-Serif" font-size="10.00">Name</text>
</g>
<!-- Node10 -->
<g id="node10" class="node">
<title>Node10</title>
<g id="a_node10"><a xlink:title=" ">
<polygon fill="none" stroke="#bfbfbf" points="205,-290.5 205,-309.5 282,-309.5 282,-290.5 205,-290.5"/>
<text text-anchor="middle" x="243.5" y="-297.5" font-family="Helvetica,sans-Serif" font-size="10.00">unsigned int</text>
</a>
</g>
</g>
<!-- Node10&#45;&gt;Node4 -->
<g id="edge11" class="edge">
<title>Node10&#45;&gt;Node4</title>
<path fill="none" stroke="#9a32cd" stroke-dasharray="5,2" d="M256.32,-281.95C258.73,-278.67 261.22,-275.24 263.5,-272 300.77,-219.09 304,-201.47 344.5,-151 349.84,-144.35 356.24,-137.46 361.91,-131.68"/>
<polygon fill="#9a32cd" stroke="#9a32cd" points="253.43,-279.97 250.27,-290.08 259.05,-284.14 253.43,-279.97"/>
<text text-anchor="middle" x="358.5" y="-220" font-family="Helvetica,sans-Serif" font-size="10.00"> Size</text>
<text text-anchor="middle" x="358.5" y="-209" font-family="Helvetica,sans-Serif" font-size="10.00">VSize</text>
<text text-anchor="middle" x="358.5" y="-198" font-family="Helvetica,sans-Serif" font-size="10.00">Mask</text>
</g>
<!-- Node11 -->
<g id="node11" class="node">
<title>Node11</title>
<g id="a_node11"><a xlink:title=" ">
<polygon fill="none" stroke="#bfbfbf" points="300.5,-290.5 300.5,-309.5 452.5,-309.5 452.5,-290.5 300.5,-290.5"/>
<text text-anchor="middle" x="376.5" y="-297.5" font-family="Helvetica,sans-Serif" font-size="10.00">vector&lt; macveth::Node * &gt;</text>
</a>
</g>
</g>
<!-- Node11&#45;&gt;Node4 -->
<g id="edge12" class="edge">
<title>Node11&#45;&gt;Node4</title>
<path fill="none" stroke="#9a32cd" stroke-dasharray="5,2" d="M376.5,-279.99C376.5,-243.39 376.5,-163.95 376.5,-131.62"/>
<polygon fill="#9a32cd" stroke="#9a32cd" points="373,-280.25 376.5,-290.25 380,-280.25 373,-280.25"/>
<text text-anchor="middle" x="389" y="-209" font-family="Helvetica,sans-Serif" font-size="10.00"> UOP</text>
</g>
<!-- Node12 -->
<g id="node12" class="node">
<title>Node12</title>
<g id="a_node12"><a xlink:title=" ">
<polygon fill="none" stroke="#bfbfbf" points="819.5,-107 819.5,-126 865.5,-126 865.5,-107 819.5,-107"/>
<text text-anchor="middle" x="842.5" y="-114" font-family="Helvetica,sans-Serif" font-size="10.00">VType</text>
</a>
</g>
</g>
<!-- Node12&#45;&gt;Node1 -->
<g id="edge16" class="edge">
<title>Node12&#45;&gt;Node1</title>
<path fill="none" stroke="#9a32cd" stroke-dasharray="5,2" d="M835.63,-97.45C828.61,-81.72 816.09,-59.8 797.5,-49 766.72,-31.11 540.26,-21.66 432.8,-18.14"/>
<polygon fill="#9a32cd" stroke="#9a32cd" points="832.4,-98.8 839.46,-106.7 838.87,-96.13 832.4,-98.8"/>
<text text-anchor="middle" x="835.5" y="-63" font-family="Helvetica,sans-Serif" font-size="10.00"> VT</text>
</g>
</g>
</svg>
