<?xml version="1.0" encoding="UTF-8" standalone="no"?>
<!DOCTYPE svg PUBLIC "-//W3C//DTD SVG 1.1//EN"
 "http://www.w3.org/Graphics/SVG/1.1/DTD/svg11.dtd">
<!-- Generated by graphviz version 2.43.0 (0)
 -->
<!-- Title: macveth::PragmaScopHandler Pages: 1 -->
<svg width="286pt" height="162pt"
 viewBox="0.00 0.00 285.50 162.00" xmlns="http://www.w3.org/2000/svg" xmlns:xlink="http://www.w3.org/1999/xlink">
<g id="graph0" class="graph" transform="scale(1 1) rotate(0) translate(4 158)">
<title>macveth::PragmaScopHandler</title>
<!-- Node1 -->
<g id="node1" class="node">
<title>Node1</title>
<g id="a_node1"><a xlink:title="Handle pragmas of the form.">
<polygon fill="#bfbfbf" stroke="black" points="0,-0.5 0,-19.5 164,-19.5 164,-0.5 0,-0.5"/>
<text text-anchor="middle" x="82" y="-7.5" font-family="Helvetica,sans-Serif" font-size="10.00">macveth::PragmaScopHandler</text>
</a>
</g>
</g>
<!-- Node2 -->
<g id="node2" class="node">
<title>Node2</title>
<g id="a_node2"><a xlink:href="classPragmaHandler.html" target="_top" xlink:title=" ">
<polygon fill="none" stroke="black" points="20,-67.5 20,-86.5 112,-86.5 112,-67.5 20,-67.5"/>
<text text-anchor="middle" x="66" y="-74.5" font-family="Helvetica,sans-Serif" font-size="10.00">PragmaHandler</text>
</a>
</g>
</g>
<!-- Node2&#45;&gt;Node1 -->
<g id="edge1" class="edge">
<title>Node2&#45;&gt;Node1</title>
<path fill="none" stroke="midnightblue" d="M70.57,-57.41C73.63,-44.99 77.52,-29.22 79.88,-19.63"/>
<polygon fill="midnightblue" stroke="midnightblue" points="67.15,-56.69 68.16,-67.23 73.95,-58.36 67.15,-56.69"/>
</g>
<!-- Node3 -->
<g id="node3" class="node">
<title>Node3</title>
<g id="a_node3"><a xlink:href="structmacveth_1_1ScopHandler.html" target="_top" xlink:title="List of pairs of #pragma macveth and #pragma endmacveth source locations.">
<polygon fill="none" stroke="black" points="130.5,-67.5 130.5,-86.5 257.5,-86.5 257.5,-67.5 130.5,-67.5"/>
<text text-anchor="middle" x="194" y="-74.5" font-family="Helvetica,sans-Serif" font-size="10.00">macveth::ScopHandler</text>
</a>
</g>
</g>
<!-- Node3&#45;&gt;Node1 -->
<g id="edge2" class="edge">
<title>Node3&#45;&gt;Node1</title>
<path fill="none" stroke="#9a32cd" stroke-dasharray="5,2" d="M170.08,-62.12C147.89,-49.24 115.56,-30.48 96.87,-19.63"/>
<polygon fill="#9a32cd" stroke="#9a32cd" points="168.49,-65.24 178.9,-67.23 172,-59.19 168.49,-65.24"/>
<text text-anchor="middle" x="160" y="-41" font-family="Helvetica,sans-Serif" font-size="10.00"> Scops</text>
</g>
<!-- Node4 -->
<g id="node4" class="node">
<title>Node4</title>
<g id="a_node4"><a xlink:title=" ">
<polygon fill="none" stroke="#bfbfbf" points="110.5,-134.5 110.5,-153.5 277.5,-153.5 277.5,-134.5 110.5,-134.5"/>
<text text-anchor="middle" x="194" y="-141.5" font-family="Helvetica,sans-Serif" font-size="10.00">vector&lt; macveth::ScopLoc * &gt;</text>
</a>
</g>
</g>
<!-- Node4&#45;&gt;Node3 -->
<g id="edge3" class="edge">
<title>Node4&#45;&gt;Node3</title>
<path fill="none" stroke="#9a32cd" stroke-dasharray="5,2" d="M194,-124.04C194,-111.67 194,-96.12 194,-86.63"/>
<polygon fill="#9a32cd" stroke="#9a32cd" points="190.5,-124.23 194,-134.23 197.5,-124.23 190.5,-124.23"/>
<text text-anchor="middle" x="204.5" y="-108" font-family="Helvetica,sans-Serif" font-size="10.00"> List</text>
</g>
</g>
</svg>
