<?xml version="1.0" encoding="UTF-8" standalone="no"?>
<!DOCTYPE svg PUBLIC "-//W3C//DTD SVG 1.1//EN"
 "http://www.w3.org/Graphics/SVG/1.1/DTD/svg11.dtd">
<!-- Generated by graphviz version 2.43.0 (0)
 -->
<!-- Title: macveth::ScopLoc Pages: 1 -->
<svg width="721pt" height="228pt"
 viewBox="0.00 0.00 721.00 228.00" xmlns="http://www.w3.org/2000/svg" xmlns:xlink="http://www.w3.org/1999/xlink">
<g id="graph0" class="graph" transform="scale(1 1) rotate(0) translate(4 224)">
<title>macveth::ScopLoc</title>
<!-- Node1 -->
<g id="node1" class="node">
<title>Node1</title>
<g id="a_node1"><a xlink:title="The Location of the Scop, as delimited by macveth and endmacveth pragmas by the user.">
<polygon fill="#bfbfbf" stroke="black" points="242,-0.5 242,-19.5 347,-19.5 347,-0.5 242,-0.5"/>
<text text-anchor="middle" x="294.5" y="-7.5" font-family="Helvetica,sans-Serif" font-size="10.00">macveth::ScopLoc</text>
</a>
</g>
</g>
<!-- Node2 -->
<g id="node2" class="node">
<title>Node2</title>
<g id="a_node2"><a xlink:title=" ">
<polygon fill="none" stroke="#bfbfbf" points="0,-100.5 0,-119.5 91,-119.5 91,-100.5 0,-100.5"/>
<text text-anchor="middle" x="45.5" y="-107.5" font-family="Helvetica,sans-Serif" font-size="10.00">SourceLocation</text>
</a>
</g>
</g>
<!-- Node2&#45;&gt;Node1 -->
<g id="edge1" class="edge">
<title>Node2&#45;&gt;Node1</title>
<path fill="none" stroke="#9a32cd" stroke-dasharray="5,2" d="M58.99,-92.46C73.56,-75.82 98.34,-50.86 125.5,-38 162.02,-20.71 207.44,-14.17 241.99,-11.84"/>
<polygon fill="#9a32cd" stroke="#9a32cd" points="56.15,-90.4 52.35,-100.29 61.49,-94.92 56.15,-90.4"/>
<text text-anchor="middle" x="146.5" y="-63" font-family="Helvetica,sans-Serif" font-size="10.00"> Scop</text>
<text text-anchor="middle" x="146.5" y="-52" font-family="Helvetica,sans-Serif" font-size="10.00">EndScop</text>
</g>
<!-- Node3 -->
<g id="node3" class="node">
<title>Node3</title>
<g id="a_node3"><a xlink:title=" ">
<polygon fill="none" stroke="#bfbfbf" points="109,-100.5 109,-119.5 212,-119.5 212,-100.5 109,-100.5"/>
<text text-anchor="middle" x="160.5" y="-107.5" font-family="Helvetica,sans-Serif" font-size="10.00">list&lt; std::string &gt;</text>
</a>
</g>
</g>
<!-- Node3&#45;&gt;Node1 -->
<g id="edge2" class="edge">
<title>Node3&#45;&gt;Node1</title>
<path fill="none" stroke="#9a32cd" stroke-dasharray="5,2" d="M167.14,-90.69C173.91,-74.56 185.91,-51.58 203.5,-38 214.59,-29.44 228.35,-23.59 241.78,-19.59"/>
<polygon fill="#9a32cd" stroke="#9a32cd" points="163.83,-89.55 163.45,-100.14 170.35,-92.1 163.83,-89.55"/>
<text text-anchor="middle" x="232.5" y="-57.5" font-family="Helvetica,sans-Serif" font-size="10.00"> DimVisited</text>
</g>
<!-- Node4 -->
<g id="node4" class="node">
<title>Node4</title>
<g id="a_node4"><a xlink:title=" ">
<polygon fill="none" stroke="#bfbfbf" points="230.5,-100.5 230.5,-119.5 274.5,-119.5 274.5,-100.5 230.5,-100.5"/>
<text text-anchor="middle" x="252.5" y="-107.5" font-family="Helvetica,sans-Serif" font-size="10.00">FileID</text>
</a>
</g>
</g>
<!-- Node4&#45;&gt;Node1 -->
<g id="edge3" class="edge">
<title>Node4&#45;&gt;Node1</title>
<path fill="none" stroke="#9a32cd" stroke-dasharray="5,2" d="M260.17,-91.1C269.26,-69.89 284.03,-35.44 290.84,-19.54"/>
<polygon fill="#9a32cd" stroke="#9a32cd" points="256.95,-89.73 256.23,-100.3 263.38,-92.49 256.95,-89.73"/>
<text text-anchor="middle" x="292.5" y="-57.5" font-family="Helvetica,sans-Serif" font-size="10.00"> FID</text>
</g>
<!-- Node5 -->
<g id="node5" class="node">
<title>Node5</title>
<g id="a_node5"><a xlink:href="structmacveth_1_1ScopLoc_1_1PragmaArgs.html" target="_top" xlink:title=" ">
<polygon fill="none" stroke="black" points="292.5,-100.5 292.5,-119.5 462.5,-119.5 462.5,-100.5 292.5,-100.5"/>
<text text-anchor="middle" x="377.5" y="-107.5" font-family="Helvetica,sans-Serif" font-size="10.00">macveth::ScopLoc::PragmaArgs</text>
</a>
</g>
</g>
<!-- Node5&#45;&gt;Node1 -->
<g id="edge4" class="edge">
<title>Node5&#45;&gt;Node1</title>
<path fill="none" stroke="#9a32cd" stroke-dasharray="5,2" d="M363.54,-92.52C345.71,-71.46 315.5,-35.8 301.73,-19.54"/>
<polygon fill="#9a32cd" stroke="#9a32cd" points="361,-94.93 370.13,-100.3 366.34,-90.41 361,-94.93"/>
<text text-anchor="middle" x="361.5" y="-57.5" font-family="Helvetica,sans-Serif" font-size="10.00"> PA</text>
</g>
<!-- Node6 -->
<g id="node6" class="node">
<title>Node6</title>
<g id="a_node6"><a xlink:title=" ">
<polygon fill="none" stroke="#bfbfbf" points="56,-195 56,-214 193,-214 193,-195 56,-195"/>
<text text-anchor="middle" x="124.5" y="-202" font-family="Helvetica,sans-Serif" font-size="10.00">map&lt; std::string, bool &gt;</text>
</a>
</g>
</g>
<!-- Node6&#45;&gt;Node5 -->
<g id="edge5" class="edge">
<title>Node6&#45;&gt;Node5</title>
<path fill="none" stroke="#9a32cd" stroke-dasharray="5,2" d="M142.14,-188.53C161.01,-173.35 192.45,-150.37 223.5,-138 245.06,-129.41 269.4,-123.55 292.25,-119.55"/>
<polygon fill="#9a32cd" stroke="#9a32cd" points="139.9,-185.84 134.4,-194.9 144.34,-191.25 139.9,-185.84"/>
<text text-anchor="middle" x="248.5" y="-152" font-family="Helvetica,sans-Serif" font-size="10.00"> FullUnroll</text>
</g>
<!-- Node7 -->
<g id="node7" class="node">
<title>Node7</title>
<g id="a_node7"><a xlink:title=" ">
<polygon fill="none" stroke="#bfbfbf" points="211.5,-189.5 211.5,-219.5 329.5,-219.5 329.5,-189.5 211.5,-189.5"/>
<text text-anchor="start" x="219.5" y="-207.5" font-family="Helvetica,sans-Serif" font-size="10.00">vector&lt; std::tuple</text>
<text text-anchor="middle" x="270.5" y="-196.5" font-family="Helvetica,sans-Serif" font-size="10.00">&lt; std::string, int &gt; &gt;</text>
</a>
</g>
</g>
<!-- Node7&#45;&gt;Node5 -->
<g id="edge6" class="edge">
<title>Node7&#45;&gt;Node5</title>
<path fill="none" stroke="#9a32cd" stroke-dasharray="5,2" d="M274.4,-179.42C277.8,-165.62 284.06,-148.92 295.5,-138 304.5,-129.41 316.28,-123.55 328.1,-119.56"/>
<polygon fill="#9a32cd" stroke="#9a32cd" points="270.96,-178.76 272.32,-189.27 277.81,-180.21 270.96,-178.76"/>
<text text-anchor="middle" x="322" y="-152" font-family="Helvetica,sans-Serif" font-size="10.00"> UnrollDim</text>
</g>
<!-- Node8 -->
<g id="node8" class="node">
<title>Node8</title>
<g id="a_node8"><a xlink:title=" ">
<polygon fill="none" stroke="#bfbfbf" points="348,-195 348,-214 377,-214 377,-195 348,-195"/>
<text text-anchor="middle" x="362.5" y="-202" font-family="Helvetica,sans-Serif" font-size="10.00">int</text>
</a>
</g>
</g>
<!-- Node8&#45;&gt;Node5 -->
<g id="edge7" class="edge">
<title>Node8&#45;&gt;Node5</title>
<path fill="none" stroke="#9a32cd" stroke-dasharray="5,2" d="M356.23,-184.81C352.75,-171.42 350.11,-153.15 355.5,-138 357.93,-131.16 362.92,-124.8 367.53,-119.98"/>
<polygon fill="#9a32cd" stroke="#9a32cd" points="352.98,-186.15 359.19,-194.74 359.69,-184.15 352.98,-186.15"/>
<text text-anchor="middle" x="386.5" y="-152" font-family="Helvetica,sans-Serif" font-size="10.00"> UnrollFactor</text>
</g>
<!-- Node9 -->
<g id="node9" class="node">
<title>Node9</title>
<g id="a_node9"><a xlink:title=" ">
<polygon fill="none" stroke="#bfbfbf" points="461.5,-195 461.5,-214 499.5,-214 499.5,-195 461.5,-195"/>
<text text-anchor="middle" x="480.5" y="-202" font-family="Helvetica,sans-Serif" font-size="10.00">bool</text>
</a>
</g>
</g>
<!-- Node9&#45;&gt;Node1 -->
<g id="edge9" class="edge">
<title>Node9&#45;&gt;Node1</title>
<path fill="none" stroke="#9a32cd" stroke-dasharray="5,2" d="M497.41,-187.58C501.51,-182.69 505.33,-177.01 507.5,-171 512.48,-157.21 512.93,-151.62 507.5,-138 498.89,-116.39 489.47,-114.78 471.5,-100 431.69,-67.26 419.98,-60.27 373.5,-38 357.94,-30.55 339.78,-24.19 324.79,-19.52"/>
<polygon fill="#9a32cd" stroke="#9a32cd" points="494.78,-185.27 490.5,-194.96 499.89,-190.05 494.78,-185.27"/>
<text text-anchor="middle" x="552.5" y="-107.5" font-family="Helvetica,sans-Serif" font-size="10.00"> ScopHasBeenScanned</text>
</g>
<!-- Node9&#45;&gt;Node5 -->
<g id="edge8" class="edge">
<title>Node9&#45;&gt;Node5</title>
<path fill="none" stroke="#9a32cd" stroke-dasharray="5,2" d="M460.22,-188.83C453.59,-183.57 446.41,-177.36 440.5,-171 428.33,-157.9 430.24,-150.55 417.5,-138 410.22,-130.83 400.79,-124.36 392.92,-119.55"/>
<polygon fill="#9a32cd" stroke="#9a32cd" points="458.12,-191.63 468.2,-194.92 462.37,-186.07 458.12,-191.63"/>
<text text-anchor="middle" x="474" y="-163" font-family="Helvetica,sans-Serif" font-size="10.00"> SIMDCode</text>
<text text-anchor="middle" x="474" y="-152" font-family="Helvetica,sans-Serif" font-size="10.00">Unroll</text>
<text text-anchor="middle" x="474" y="-141" font-family="Helvetica,sans-Serif" font-size="10.00">UnrollAndJam</text>
</g>
<!-- Node10 -->
<g id="node10" class="node">
<title>Node10</title>
<g id="a_node10"><a xlink:title=" ">
<polygon fill="none" stroke="#bfbfbf" points="652,-100.5 652,-119.5 713,-119.5 713,-100.5 652,-100.5"/>
<text text-anchor="middle" x="682.5" y="-107.5" font-family="Helvetica,sans-Serif" font-size="10.00">unsigned</text>
</a>
</g>
</g>
<!-- Node10&#45;&gt;Node1 -->
<g id="edge10" class="edge">
<title>Node10&#45;&gt;Node1</title>
<path fill="none" stroke="#9a32cd" stroke-dasharray="5,2" d="M660.34,-95.33C632.36,-78.79 582.23,-51.48 535.5,-38 472.39,-19.8 396.7,-13.76 347.2,-11.81"/>
<polygon fill="#9a32cd" stroke="#9a32cd" points="658.57,-98.35 668.94,-100.49 662.17,-92.35 658.57,-98.35"/>
<text text-anchor="middle" x="656.5" y="-74" font-family="Helvetica,sans-Serif" font-size="10.00"> EndLine</text>
<text text-anchor="middle" x="656.5" y="-63" font-family="Helvetica,sans-Serif" font-size="10.00">End</text>
<text text-anchor="middle" x="656.5" y="-52" font-family="Helvetica,sans-Serif" font-size="10.00">Start</text>
<text text-anchor="middle" x="656.5" y="-41" font-family="Helvetica,sans-Serif" font-size="10.00">StartLine</text>
</g>
</g>
</svg>
