<?xml version="1.0" encoding="UTF-8" standalone="no"?>
<!DOCTYPE svg PUBLIC "-//W3C//DTD SVG 1.1//EN"
 "http://www.w3.org/Graphics/SVG/1.1/DTD/svg11.dtd">
<!-- Generated by graphviz version 2.43.0 (0)
 -->
<!-- Title: include/TAC.h Pages: 1 -->
<!--zoomable 364 -->
<svg id="main" version="1.1" xmlns="http://www.w3.org/2000/svg" xmlns:xlink="http://www.w3.org/1999/xlink" xml:space="preserve" onload="init(evt)">
<style type="text/css"><![CDATA[
.edge:hover path { stroke: red; }
.edge:hover polygon { stroke: red; fill: red; }
]]></style>
<script type="text/javascript"><![CDATA[
var edges = document.getElementsByTagName('g');
if (edges && edges.length) {
  for (var i=0;i<edges.length;i++) {
    if (edges[i].id.substr(0,4)=='edge') {
      edges[i].setAttribute('class','edge');
    }
  }
}
]]></script>
        <defs>
                <circle id="rim" cx="0" cy="0" r="7"/>
                <circle id="rim2" cx="0" cy="0" r="3.5"/>
                <g id="zoomPlus">
                        <use xlink:href="#rim" fill="#404040">
                                <set attributeName="fill" to="#808080" begin="zoomplus.mouseover" end="zoomplus.mouseout"/>
                        </use>
                        <path d="M-4,0h8M0,-4v8" fill="none" stroke="white" stroke-width="1.5" pointer-events="none"/>
                </g>
                <g id="zoomMin">
                        <use xlink:href="#rim" fill="#404040">
                                <set attributeName="fill" to="#808080" begin="zoomminus.mouseover" end="zoomminus.mouseout"/>
                        </use>
                        <path d="M-4,0h8" fill="none" stroke="white" stroke-width="1.5" pointer-events="none"/>
                </g>
                <g id="dirArrow">
                        <path fill="none" stroke="white" stroke-width="1.5" d="M0,-3.0v7 M-2.5,-0.5L0,-3.0L2.5,-0.5"/>
                </g>
               <g id="resetDef">
                       <use xlink:href="#rim2" fill="#404040">
                               <set attributeName="fill" to="#808080" begin="reset.mouseover" end="reset.mouseout"/>
                       </use>
               </g>
        </defs>

<script type="text/javascript">
var viewWidth = 1318;
var viewHeight = 364;
var sectionId = 'dynsection-0';
</script>
<script xlink:href="svgpan.js"/>
<svg id="graph" class="graph">
<g id="viewport">
<title>include/TAC.h</title>
<!-- Node1 -->
<g id="node1" class="node">
<title>Node1</title>
<g id="a_node1"><a xlink:title=" ">
<polygon fill="#bfbfbf" stroke="black" points="664.5,-336.5 664.5,-355.5 747.5,-355.5 747.5,-336.5 664.5,-336.5"/>
<text text-anchor="middle" x="706" y="-343.5" font-family="Helvetica,sans-Serif" font-size="10.00">include/TAC.h</text>
</a>
</g>
</g>
<!-- Node2 -->
<g id="node2" class="node">
<title>Node2</title>
<g id="a_node2"><a xlink:href="Debug_8h.html" target="_top" xlink:title=" ">
<polygon fill="none" stroke="black" points="544.5,-224.5 544.5,-243.5 639.5,-243.5 639.5,-224.5 544.5,-224.5"/>
<text text-anchor="middle" x="592" y="-231.5" font-family="Helvetica,sans-Serif" font-size="10.00">include/Debug.h</text>
</a>
</g>
</g>
<!-- Node1&#45;&gt;Node2 -->
<g id="edge1" class="edge">
<title>Node1&#45;&gt;Node2</title>
<path fill="none" stroke="midnightblue" d="M695.38,-336.32C684.69,-327.46 667.83,-313.18 654,-300 637.17,-283.97 618.92,-264.57 606.61,-251.16"/>
<polygon fill="midnightblue" stroke="midnightblue" points="609.1,-248.7 599.77,-243.67 603.93,-253.41 609.1,-248.7"/>
</g>
<!-- Node3 -->
<g id="node3" class="node">
<title>Node3</title>
<g id="a_node3"><a xlink:href="Utils_8h.html" target="_top" xlink:title=" ">
<polygon fill="none" stroke="black" points="489,-168.5 489,-187.5 575,-187.5 575,-168.5 489,-168.5"/>
<text text-anchor="middle" x="532" y="-175.5" font-family="Helvetica,sans-Serif" font-size="10.00">include/Utils.h</text>
</a>
</g>
</g>
<!-- Node1&#45;&gt;Node3 -->
<g id="edge38" class="edge">
<title>Node1&#45;&gt;Node3</title>
<path fill="none" stroke="midnightblue" d="M675.1,-336.47C635.23,-323.66 567.27,-295.3 536,-244 527.63,-230.27 527.33,-211.74 528.71,-197.98"/>
<polygon fill="midnightblue" stroke="midnightblue" points="532.22,-198.14 530.12,-187.75 525.28,-197.17 532.22,-198.14"/>
</g>
<!-- Node7 -->
<g id="node7" class="node">
<title>Node7</title>
<g id="a_node7"><a xlink:title=" ">
<polygon fill="none" stroke="#bfbfbf" points="579,-0.5 579,-19.5 639,-19.5 639,-0.5 579,-0.5"/>
<text text-anchor="middle" x="609" y="-7.5" font-family="Helvetica,sans-Serif" font-size="10.00">iostream</text>
</a>
</g>
</g>
<!-- Node1&#45;&gt;Node7 -->
<g id="edge40" class="edge">
<title>Node1&#45;&gt;Node7</title>
<path fill="none" stroke="midnightblue" d="M664.47,-342.94C513.14,-334.91 0,-302.68 0,-235 0,-235 0,-235 0,-121 0,-63.02 433.06,-24.6 568.81,-13.99"/>
<polygon fill="midnightblue" stroke="midnightblue" points="569.1,-17.47 578.8,-13.21 568.56,-10.5 569.1,-17.47"/>
</g>
<!-- Node8 -->
<g id="node8" class="node">
<title>Node8</title>
<g id="a_node8"><a xlink:title=" ">
<polygon fill="none" stroke="#bfbfbf" points="1065,-0.5 1065,-19.5 1109,-19.5 1109,-0.5 1065,-0.5"/>
<text text-anchor="middle" x="1087" y="-7.5" font-family="Helvetica,sans-Serif" font-size="10.00">string</text>
</a>
</g>
</g>
<!-- Node1&#45;&gt;Node8 -->
<g id="edge42" class="edge">
<title>Node1&#45;&gt;Node8</title>
<path fill="none" stroke="midnightblue" d="M747.55,-345.55C859.44,-346.42 1164.6,-344.52 1253,-300 1287.32,-282.72 1310,-273.42 1310,-235 1310,-235 1310,-235 1310,-121 1310,-85.86 1293.87,-76.03 1265,-56 1241.54,-39.73 1163.75,-24.19 1119.16,-16.33"/>
<polygon fill="midnightblue" stroke="midnightblue" points="1119.57,-12.85 1109.12,-14.59 1118.37,-19.75 1119.57,-12.85"/>
</g>
<!-- Node11 -->
<g id="node11" class="node">
<title>Node11</title>
<g id="a_node11"><a xlink:title=" ">
<polygon fill="none" stroke="#bfbfbf" points="897,-56.5 897,-75.5 929,-75.5 929,-56.5 897,-56.5"/>
<text text-anchor="middle" x="913" y="-63.5" font-family="Helvetica,sans-Serif" font-size="10.00">list</text>
</a>
</g>
</g>
<!-- Node1&#45;&gt;Node11 -->
<g id="edge41" class="edge">
<title>Node1&#45;&gt;Node11</title>
<path fill="none" stroke="midnightblue" d="M713.73,-336.49C738.95,-308.49 820.44,-216.26 877,-132 887.31,-116.64 897.37,-98.08 904.22,-84.74"/>
<polygon fill="midnightblue" stroke="midnightblue" points="907.41,-86.19 908.79,-75.69 901.16,-83.04 907.41,-86.19"/>
</g>
<!-- Node13 -->
<g id="node13" class="node">
<title>Node13</title>
<g id="a_node13"><a xlink:title=" ">
<polygon fill="none" stroke="#bfbfbf" points="772.5,-112.5 772.5,-131.5 867.5,-131.5 867.5,-112.5 772.5,-112.5"/>
<text text-anchor="middle" x="820" y="-119.5" font-family="Helvetica,sans-Serif" font-size="10.00">clang/AST/AST.h</text>
</a>
</g>
</g>
<!-- Node1&#45;&gt;Node13 -->
<g id="edge39" class="edge">
<title>Node1&#45;&gt;Node13</title>
<path fill="none" stroke="midnightblue" d="M706.18,-336.29C706.92,-315.68 710.72,-262.73 730,-224 747.48,-188.89 780.45,-156.61 801.26,-138.4"/>
<polygon fill="midnightblue" stroke="midnightblue" points="803.77,-140.87 809.1,-131.71 799.23,-135.54 803.77,-140.87"/>
</g>
<!-- Node18 -->
<g id="node18" class="node">
<title>Node18</title>
<g id="a_node18"><a xlink:href="MVExpr_8h.html" target="_top" xlink:title=" ">
<polygon fill="none" stroke="black" points="780.5,-280.5 780.5,-299.5 921.5,-299.5 921.5,-280.5 780.5,-280.5"/>
<text text-anchor="middle" x="851" y="-287.5" font-family="Helvetica,sans-Serif" font-size="10.00">include/MVExpr/MVExpr.h</text>
</a>
</g>
</g>
<!-- Node1&#45;&gt;Node18 -->
<g id="edge20" class="edge">
<title>Node1&#45;&gt;Node18</title>
<path fill="none" stroke="midnightblue" d="M728.98,-336.44C753.16,-327.44 791.42,-313.19 818.65,-303.05"/>
<polygon fill="midnightblue" stroke="midnightblue" points="819.98,-306.29 828.13,-299.52 817.54,-299.73 819.98,-306.29"/>
</g>
<!-- Node23 -->
<g id="node23" class="node">
<title>Node23</title>
<g id="a_node23"><a xlink:href="MVOps_8h.html" target="_top" xlink:title=" ">
<polygon fill="none" stroke="black" points="1146,-280.5 1146,-299.5 1244,-299.5 1244,-280.5 1146,-280.5"/>
<text text-anchor="middle" x="1195" y="-287.5" font-family="Helvetica,sans-Serif" font-size="10.00">include/MVOps.h</text>
</a>
</g>
</g>
<!-- Node1&#45;&gt;Node23 -->
<g id="edge32" class="edge">
<title>Node1&#45;&gt;Node23</title>
<path fill="none" stroke="midnightblue" d="M747.69,-340.4C834.67,-330.79 1035.67,-308.59 1135.92,-297.52"/>
<polygon fill="midnightblue" stroke="midnightblue" points="1136.33,-301 1145.88,-296.42 1135.56,-294.04 1136.33,-301"/>
</g>
<!-- Node2&#45;&gt;Node3 -->
<g id="edge2" class="edge">
<title>Node2&#45;&gt;Node3</title>
<path fill="none" stroke="midnightblue" d="M582.36,-224.32C573.49,-216.34 560.13,-204.31 549.39,-194.65"/>
<polygon fill="midnightblue" stroke="midnightblue" points="551.59,-191.92 541.82,-187.83 546.91,-197.13 551.59,-191.92"/>
</g>
<!-- Node4 -->
<g id="node4" class="node">
<title>Node4</title>
<g id="a_node4"><a xlink:href="MVOptions_8h.html" target="_top" xlink:title=" ">
<polygon fill="none" stroke="black" points="637.5,-112.5 637.5,-131.5 754.5,-131.5 754.5,-112.5 637.5,-112.5"/>
<text text-anchor="middle" x="696" y="-119.5" font-family="Helvetica,sans-Serif" font-size="10.00">include/MVOptions.h</text>
</a>
</g>
</g>
<!-- Node3&#45;&gt;Node4 -->
<g id="edge3" class="edge">
<title>Node3&#45;&gt;Node4</title>
<path fill="none" stroke="midnightblue" d="M557.99,-168.44C585.7,-159.32 629.75,-144.81 660.62,-134.65"/>
<polygon fill="midnightblue" stroke="midnightblue" points="661.73,-137.97 670.14,-131.52 659.54,-131.32 661.73,-137.97"/>
</g>
<!-- Node3&#45;&gt;Node7 -->
<g id="edge19" class="edge">
<title>Node3&#45;&gt;Node7</title>
<path fill="none" stroke="midnightblue" d="M536.14,-168.08C548.37,-141.72 584.47,-63.88 600.81,-28.66"/>
<polygon fill="midnightblue" stroke="midnightblue" points="603.99,-30.11 605.03,-19.57 597.64,-27.17 603.99,-30.11"/>
</g>
<!-- Node3&#45;&gt;Node13 -->
<g id="edge14" class="edge">
<title>Node3&#45;&gt;Node13</title>
<path fill="none" stroke="midnightblue" d="M575.12,-168.92C625.49,-159.47 708.96,-143.82 764.23,-133.46"/>
<polygon fill="midnightblue" stroke="midnightblue" points="765.02,-136.87 774.21,-131.59 763.73,-129.99 765.02,-136.87"/>
</g>
<!-- Node14 -->
<g id="node14" class="node">
<title>Node14</title>
<g id="a_node14"><a xlink:title=" ">
<polygon fill="none" stroke="#bfbfbf" points="28.5,-112.5 28.5,-131.5 173.5,-131.5 173.5,-112.5 28.5,-112.5"/>
<text text-anchor="middle" x="101" y="-119.5" font-family="Helvetica,sans-Serif" font-size="10.00">clang/Basic/LangOptions.h</text>
</a>
</g>
</g>
<!-- Node3&#45;&gt;Node14 -->
<g id="edge15" class="edge">
<title>Node3&#45;&gt;Node14</title>
<path fill="none" stroke="midnightblue" d="M488.7,-171.58C416.27,-162.5 269.59,-144.12 178.87,-132.76"/>
<polygon fill="midnightblue" stroke="midnightblue" points="179.26,-129.28 168.91,-131.51 178.39,-136.22 179.26,-129.28"/>
</g>
<!-- Node15 -->
<g id="node15" class="node">
<title>Node15</title>
<g id="a_node15"><a xlink:title=" ">
<polygon fill="none" stroke="#bfbfbf" points="191.5,-112.5 191.5,-131.5 350.5,-131.5 350.5,-112.5 191.5,-112.5"/>
<text text-anchor="middle" x="271" y="-119.5" font-family="Helvetica,sans-Serif" font-size="10.00">clang/Basic/SourceManager.h</text>
</a>
</g>
</g>
<!-- Node3&#45;&gt;Node15 -->
<g id="edge16" class="edge">
<title>Node3&#45;&gt;Node15</title>
<path fill="none" stroke="midnightblue" d="M490.64,-168.44C444.92,-158.98 371.24,-143.74 321.98,-133.55"/>
<polygon fill="midnightblue" stroke="midnightblue" points="322.66,-130.12 312.16,-131.52 321.25,-136.97 322.66,-130.12"/>
</g>
<!-- Node16 -->
<g id="node16" class="node">
<title>Node16</title>
<g id="a_node16"><a xlink:title=" ">
<polygon fill="none" stroke="#bfbfbf" points="368.5,-112.5 368.5,-131.5 469.5,-131.5 469.5,-112.5 368.5,-112.5"/>
<text text-anchor="middle" x="419" y="-119.5" font-family="Helvetica,sans-Serif" font-size="10.00">clang/Lex/Lexer.h</text>
</a>
</g>
</g>
<!-- Node3&#45;&gt;Node16 -->
<g id="edge17" class="edge">
<title>Node3&#45;&gt;Node16</title>
<path fill="none" stroke="midnightblue" d="M514.09,-168.44C495.75,-159.68 466.99,-145.94 445.91,-135.86"/>
<polygon fill="midnightblue" stroke="midnightblue" points="447.35,-132.67 436.82,-131.52 444.33,-138.99 447.35,-132.67"/>
</g>
<!-- Node17 -->
<g id="node17" class="node">
<title>Node17</title>
<g id="a_node17"><a xlink:title=" ">
<polygon fill="none" stroke="#bfbfbf" points="487.5,-112.5 487.5,-131.5 542.5,-131.5 542.5,-112.5 487.5,-112.5"/>
<text text-anchor="middle" x="515" y="-119.5" font-family="Helvetica,sans-Serif" font-size="10.00">fstream</text>
</a>
</g>
</g>
<!-- Node3&#45;&gt;Node17 -->
<g id="edge18" class="edge">
<title>Node3&#45;&gt;Node17</title>
<path fill="none" stroke="midnightblue" d="M529.19,-168.08C526.92,-160.85 523.63,-150.41 520.79,-141.4"/>
<polygon fill="midnightblue" stroke="midnightblue" points="524.1,-140.24 517.75,-131.75 517.42,-142.34 524.1,-140.24"/>
</g>
<!-- Node5 -->
<g id="node5" class="node">
<title>Node5</title>
<g id="a_node5"><a xlink:href="CPUID_8h.html" target="_top" xlink:title=" ">
<polygon fill="none" stroke="black" points="745.5,-56.5 745.5,-75.5 840.5,-75.5 840.5,-56.5 745.5,-56.5"/>
<text text-anchor="middle" x="793" y="-63.5" font-family="Helvetica,sans-Serif" font-size="10.00">include/CPUID.h</text>
</a>
</g>
</g>
<!-- Node4&#45;&gt;Node5 -->
<g id="edge4" class="edge">
<title>Node4&#45;&gt;Node5</title>
<path fill="none" stroke="midnightblue" d="M711.58,-112.32C727,-103.74 750.81,-90.49 768.71,-80.52"/>
<polygon fill="midnightblue" stroke="midnightblue" points="770.42,-83.58 777.45,-75.65 767.01,-77.46 770.42,-83.58"/>
</g>
<!-- Node6 -->
<g id="node6" class="node">
<title>Node6</title>
<g id="a_node6"><a xlink:title=" ">
<polygon fill="none" stroke="#bfbfbf" points="671,-0.5 671,-19.5 735,-19.5 735,-0.5 671,-0.5"/>
<text text-anchor="middle" x="703" y="-7.5" font-family="Helvetica,sans-Serif" font-size="10.00">algorithm</text>
</a>
</g>
</g>
<!-- Node4&#45;&gt;Node6 -->
<g id="edge9" class="edge">
<title>Node4&#45;&gt;Node6</title>
<path fill="none" stroke="midnightblue" d="M687.26,-112.37C675.96,-100.12 658.54,-76.83 666,-56 669.94,-45 677.86,-34.77 685.36,-26.85"/>
<polygon fill="midnightblue" stroke="midnightblue" points="687.89,-29.27 692.56,-19.76 682.98,-24.28 687.89,-29.27"/>
</g>
<!-- Node4&#45;&gt;Node8 -->
<g id="edge13" class="edge">
<title>Node4&#45;&gt;Node8</title>
<path fill="none" stroke="midnightblue" d="M732.79,-112.46C764.44,-104.59 811.01,-91.77 850,-76 867.69,-68.84 870.09,-62.61 888,-56 945.05,-34.95 1015.06,-21.9 1055.01,-15.58"/>
<polygon fill="midnightblue" stroke="midnightblue" points="1055.62,-19.03 1064.97,-14.05 1054.55,-12.11 1055.62,-19.03"/>
</g>
<!-- Node10 -->
<g id="node10" class="node">
<title>Node10</title>
<g id="a_node10"><a xlink:title=" ">
<polygon fill="none" stroke="#bfbfbf" points="675,-56.5 675,-75.5 727,-75.5 727,-56.5 675,-56.5"/>
<text text-anchor="middle" x="701" y="-63.5" font-family="Helvetica,sans-Serif" font-size="10.00">cassert</text>
</a>
</g>
</g>
<!-- Node4&#45;&gt;Node10 -->
<g id="edge10" class="edge">
<title>Node4&#45;&gt;Node10</title>
<path fill="none" stroke="midnightblue" d="M696.83,-112.08C697.48,-105.01 698.42,-94.86 699.24,-85.99"/>
<polygon fill="midnightblue" stroke="midnightblue" points="702.75,-86.03 700.19,-75.75 695.78,-85.39 702.75,-86.03"/>
</g>
<!-- Node4&#45;&gt;Node11 -->
<g id="edge11" class="edge">
<title>Node4&#45;&gt;Node11</title>
<path fill="none" stroke="midnightblue" d="M734.12,-112.48C772.02,-103.85 831.74,-89.84 883,-76 884.27,-75.66 885.57,-75.3 886.88,-74.93"/>
<polygon fill="midnightblue" stroke="midnightblue" points="888.23,-78.18 896.85,-72.02 886.27,-71.46 888.23,-78.18"/>
</g>
<!-- Node12 -->
<g id="node12" class="node">
<title>Node12</title>
<g id="a_node12"><a xlink:title=" ">
<polygon fill="none" stroke="#bfbfbf" points="967,-56.5 967,-75.5 1005,-75.5 1005,-56.5 967,-56.5"/>
<text text-anchor="middle" x="986" y="-63.5" font-family="Helvetica,sans-Serif" font-size="10.00">map</text>
</a>
</g>
</g>
<!-- Node4&#45;&gt;Node12 -->
<g id="edge12" class="edge">
<title>Node4&#45;&gt;Node12</title>
<path fill="none" stroke="midnightblue" d="M741.95,-112.48C790.63,-103.44 869.74,-88.75 938,-76 944.09,-74.86 950.61,-73.64 956.82,-72.48"/>
<polygon fill="midnightblue" stroke="midnightblue" points="957.66,-75.88 966.85,-70.6 956.37,-69 957.66,-75.88"/>
</g>
<!-- Node5&#45;&gt;Node6 -->
<g id="edge5" class="edge">
<title>Node5&#45;&gt;Node6</title>
<path fill="none" stroke="midnightblue" d="M778.54,-56.32C764.5,-47.9 742.95,-34.97 726.46,-25.07"/>
<polygon fill="midnightblue" stroke="midnightblue" points="727.8,-21.8 717.42,-19.65 724.2,-27.8 727.8,-21.8"/>
</g>
<!-- Node5&#45;&gt;Node7 -->
<g id="edge6" class="edge">
<title>Node5&#45;&gt;Node7</title>
<path fill="none" stroke="midnightblue" d="M763.84,-56.44C732.49,-47.24 682.47,-32.56 647.8,-22.39"/>
<polygon fill="midnightblue" stroke="midnightblue" points="648.6,-18.97 638.02,-19.52 646.63,-25.69 648.6,-18.97"/>
</g>
<!-- Node5&#45;&gt;Node8 -->
<g id="edge7" class="edge">
<title>Node5&#45;&gt;Node8</title>
<path fill="none" stroke="midnightblue" d="M839.59,-56.44C899.72,-45.4 1002.81,-26.46 1054.88,-16.9"/>
<polygon fill="midnightblue" stroke="midnightblue" points="1055.69,-20.31 1064.89,-15.06 1054.42,-13.43 1055.69,-20.31"/>
</g>
<!-- Node9 -->
<g id="node9" class="node">
<title>Node9</title>
<g id="a_node9"><a xlink:title=" ">
<polygon fill="none" stroke="#bfbfbf" points="766.5,-0.5 766.5,-19.5 819.5,-19.5 819.5,-0.5 766.5,-0.5"/>
<text text-anchor="middle" x="793" y="-7.5" font-family="Helvetica,sans-Serif" font-size="10.00">stdint.h</text>
</a>
</g>
</g>
<!-- Node5&#45;&gt;Node9 -->
<g id="edge8" class="edge">
<title>Node5&#45;&gt;Node9</title>
<path fill="none" stroke="midnightblue" d="M793,-56.08C793,-49.01 793,-38.86 793,-29.99"/>
<polygon fill="midnightblue" stroke="midnightblue" points="796.5,-29.75 793,-19.75 789.5,-29.75 796.5,-29.75"/>
</g>
<!-- Node18&#45;&gt;Node2 -->
<g id="edge21" class="edge">
<title>Node18&#45;&gt;Node2</title>
<path fill="none" stroke="midnightblue" d="M809.96,-280.44C764.68,-271 691.77,-255.8 642.89,-245.61"/>
<polygon fill="midnightblue" stroke="midnightblue" points="643.35,-242.13 632.85,-243.52 641.92,-248.98 643.35,-242.13"/>
</g>
<!-- Node18&#45;&gt;Node3 -->
<g id="edge25" class="edge">
<title>Node18&#45;&gt;Node3</title>
<path fill="none" stroke="midnightblue" d="M826.23,-280.46C769.82,-261.01 631.63,-213.36 566.73,-190.98"/>
<polygon fill="midnightblue" stroke="midnightblue" points="567.56,-187.56 556.97,-187.61 565.28,-194.18 567.56,-187.56"/>
</g>
<!-- Node18&#45;&gt;Node7 -->
<g id="edge29" class="edge">
<title>Node18&#45;&gt;Node7</title>
<path fill="none" stroke="midnightblue" d="M828.93,-280.39C783.22,-261.3 678.36,-210.81 629,-132 609.1,-100.23 607.11,-54.94 607.81,-29.74"/>
<polygon fill="midnightblue" stroke="midnightblue" points="611.31,-29.85 608.27,-19.7 604.32,-29.53 611.31,-29.85"/>
</g>
<!-- Node18&#45;&gt;Node8 -->
<g id="edge31" class="edge">
<title>Node18&#45;&gt;Node8</title>
<path fill="none" stroke="midnightblue" d="M921.52,-284.38C985.42,-278.78 1073.39,-267.06 1099,-244 1121.37,-223.86 1118,-209.1 1118,-179 1118,-179 1118,-179 1118,-121 1118,-87.41 1104.44,-50.14 1095.26,-28.75"/>
<polygon fill="midnightblue" stroke="midnightblue" points="1098.45,-27.31 1091.18,-19.61 1092.06,-30.17 1098.45,-27.31"/>
</g>
<!-- Node18&#45;&gt;Node13 -->
<g id="edge26" class="edge">
<title>Node18&#45;&gt;Node13</title>
<path fill="none" stroke="midnightblue" d="M849.33,-280.08C844.45,-253.95 830.12,-177.21 823.47,-141.58"/>
<polygon fill="midnightblue" stroke="midnightblue" points="826.88,-140.76 821.6,-131.57 820,-142.04 826.88,-140.76"/>
</g>
<!-- Node19 -->
<g id="node19" class="node">
<title>Node19</title>
<g id="a_node19"><a xlink:href="MVDataType_8h.html" target="_top" xlink:title=" ">
<polygon fill="none" stroke="black" points="924,-112.5 924,-131.5 1090,-131.5 1090,-112.5 924,-112.5"/>
<text text-anchor="middle" x="1007" y="-119.5" font-family="Helvetica,sans-Serif" font-size="10.00">include/MVExpr/MVDataType.h</text>
</a>
</g>
</g>
<!-- Node18&#45;&gt;Node19 -->
<g id="edge22" class="edge">
<title>Node18&#45;&gt;Node19</title>
<path fill="none" stroke="midnightblue" d="M852.93,-280.28C856.17,-267.07 863.69,-241.67 877,-224 906.04,-185.44 953.35,-153.79 982.18,-136.73"/>
<polygon fill="midnightblue" stroke="midnightblue" points="984.3,-139.55 991.2,-131.51 980.79,-133.49 984.3,-139.55"/>
</g>
<!-- Node20 -->
<g id="node20" class="node">
<title>Node20</title>
<g id="a_node20"><a xlink:title=" ">
<polygon fill="none" stroke="#bfbfbf" points="1146,-224.5 1146,-243.5 1244,-243.5 1244,-224.5 1146,-224.5"/>
<text text-anchor="middle" x="1195" y="-231.5" font-family="Helvetica,sans-Serif" font-size="10.00">clang/AST/Expr.h</text>
</a>
</g>
</g>
<!-- Node18&#45;&gt;Node20 -->
<g id="edge27" class="edge">
<title>Node18&#45;&gt;Node20</title>
<path fill="none" stroke="midnightblue" d="M905.51,-280.44C968.27,-270.59 1071.01,-254.46 1135.72,-244.31"/>
<polygon fill="midnightblue" stroke="midnightblue" points="1136.43,-247.74 1145.76,-242.73 1135.34,-240.82 1136.43,-247.74"/>
</g>
<!-- Node21 -->
<g id="node21" class="node">
<title>Node21</title>
<g id="a_node21"><a xlink:title=" ">
<polygon fill="none" stroke="#bfbfbf" points="886,-224.5 886,-243.5 1014,-243.5 1014,-224.5 886,-224.5"/>
<text text-anchor="middle" x="950" y="-231.5" font-family="Helvetica,sans-Serif" font-size="10.00">llvm/Support/Casting.h</text>
</a>
</g>
</g>
<!-- Node18&#45;&gt;Node21 -->
<g id="edge28" class="edge">
<title>Node18&#45;&gt;Node21</title>
<path fill="none" stroke="midnightblue" d="M866.91,-280.32C882.64,-271.74 906.94,-258.49 925.21,-248.52"/>
<polygon fill="midnightblue" stroke="midnightblue" points="927.03,-251.52 934.13,-243.65 923.68,-245.37 927.03,-251.52"/>
</g>
<!-- Node22 -->
<g id="node22" class="node">
<title>Node22</title>
<g id="a_node22"><a xlink:title=" ">
<polygon fill="none" stroke="#bfbfbf" points="1032,-224.5 1032,-243.5 1090,-243.5 1090,-224.5 1032,-224.5"/>
<text text-anchor="middle" x="1061" y="-231.5" font-family="Helvetica,sans-Serif" font-size="10.00">memory</text>
</a>
</g>
</g>
<!-- Node18&#45;&gt;Node22 -->
<g id="edge30" class="edge">
<title>Node18&#45;&gt;Node22</title>
<path fill="none" stroke="midnightblue" d="M884.28,-280.44C921.72,-270.81 982.49,-255.19 1022.1,-245"/>
<polygon fill="midnightblue" stroke="midnightblue" points="1023.13,-248.35 1031.94,-242.47 1021.38,-241.57 1023.13,-248.35"/>
</g>
<!-- Node19&#45;&gt;Node8 -->
<g id="edge24" class="edge">
<title>Node19&#45;&gt;Node8</title>
<path fill="none" stroke="midnightblue" d="M1013.28,-112.37C1026.48,-94.22 1057.33,-51.8 1074.64,-27.99"/>
<polygon fill="midnightblue" stroke="midnightblue" points="1077.7,-29.74 1080.75,-19.59 1072.04,-25.62 1077.7,-29.74"/>
</g>
<!-- Node19&#45;&gt;Node12 -->
<g id="edge23" class="edge">
<title>Node19&#45;&gt;Node12</title>
<path fill="none" stroke="midnightblue" d="M1003.53,-112.08C1000.69,-104.77 996.57,-94.18 993.04,-85.1"/>
<polygon fill="midnightblue" stroke="midnightblue" points="996.29,-83.8 989.4,-75.75 989.77,-86.34 996.29,-83.8"/>
</g>
<!-- Node23&#45;&gt;Node20 -->
<g id="edge37" class="edge">
<title>Node23&#45;&gt;Node20</title>
<path fill="none" stroke="midnightblue" d="M1195,-280.08C1195,-273.01 1195,-262.86 1195,-253.99"/>
<polygon fill="midnightblue" stroke="midnightblue" points="1198.5,-253.75 1195,-243.75 1191.5,-253.75 1198.5,-253.75"/>
</g>
<!-- Node24 -->
<g id="node24" class="node">
<title>Node24</title>
<g id="a_node24"><a xlink:href="MVAssert_8h.html" target="_top" xlink:title=" ">
<polygon fill="none" stroke="black" points="1146,-56.5 1146,-75.5 1256,-75.5 1256,-56.5 1146,-56.5"/>
<text text-anchor="middle" x="1201" y="-63.5" font-family="Helvetica,sans-Serif" font-size="10.00">include/MVAssert.h</text>
</a>
</g>
</g>
<!-- Node23&#45;&gt;Node24 -->
<g id="edge33" class="edge">
<title>Node23&#45;&gt;Node24</title>
<path fill="none" stroke="midnightblue" d="M1213.39,-280.47C1227.1,-273 1244.81,-260.71 1253,-244 1280.06,-188.76 1237.26,-116.79 1214.18,-84.28"/>
<polygon fill="midnightblue" stroke="midnightblue" points="1216.74,-81.86 1208.01,-75.86 1211.1,-85.99 1216.74,-81.86"/>
</g>
<!-- Node24&#45;&gt;Node7 -->
<g id="edge34" class="edge">
<title>Node24&#45;&gt;Node7</title>
<path fill="none" stroke="midnightblue" d="M1145.75,-61.94C1047.95,-56.18 838.07,-42.26 662,-20 657.83,-19.47 653.49,-18.85 649.17,-18.19"/>
<polygon fill="midnightblue" stroke="midnightblue" points="649.63,-14.72 639.2,-16.58 648.52,-21.63 649.63,-14.72"/>
</g>
<!-- Node24&#45;&gt;Node8 -->
<g id="edge36" class="edge">
<title>Node24&#45;&gt;Node8</title>
<path fill="none" stroke="midnightblue" d="M1182.94,-56.44C1164.43,-47.68 1135.42,-33.94 1114.14,-23.86"/>
<polygon fill="midnightblue" stroke="midnightblue" points="1115.51,-20.63 1104.98,-19.52 1112.52,-26.96 1115.51,-20.63"/>
</g>
<!-- Node25 -->
<g id="node25" class="node">
<title>Node25</title>
<g id="a_node25"><a xlink:title=" ">
<polygon fill="none" stroke="#bfbfbf" points="1171.5,-0.5 1171.5,-19.5 1230.5,-19.5 1230.5,-0.5 1171.5,-0.5"/>
<text text-anchor="middle" x="1201" y="-7.5" font-family="Helvetica,sans-Serif" font-size="10.00">setjmp.h</text>
</a>
</g>
</g>
<!-- Node24&#45;&gt;Node25 -->
<g id="edge35" class="edge">
<title>Node24&#45;&gt;Node25</title>
<path fill="none" stroke="midnightblue" d="M1201,-56.08C1201,-49.01 1201,-38.86 1201,-29.99"/>
<polygon fill="midnightblue" stroke="midnightblue" points="1204.5,-29.75 1201,-19.75 1197.5,-29.75 1204.5,-29.75"/>
</g>
</g>
</svg>
        <g id="navigator" transform="translate(0 0)" fill="#404254">
                <rect fill="#f2f5e9" fill-opacity="0.5" stroke="#606060" stroke-width=".5" x="0" y="0" width="60" height="60"/>
                <use id="zoomplus" xlink:href="#zoomPlus" x="17" y="9" onmousedown="handleZoom(evt,'in')"/>
                <use id="zoomminus" xlink:href="#zoomMin" x="42" y="9" onmousedown="handleZoom(evt,'out')"/>
                <use id="reset" xlink:href="#resetDef" x="30" y="36" onmousedown="handleReset()"/>
                <g id="arrowUp" xlink:href="#dirArrow" transform="translate(30 24)" onmousedown="handlePan(0,-1)">
                  <use xlink:href="#rim" fill="#404040">
                        <set attributeName="fill" to="#808080" begin="arrowUp.mouseover" end="arrowUp.mouseout"/>
                  </use>
                  <path fill="none" stroke="white" stroke-width="1.5" d="M0,-3.0v7 M-2.5,-0.5L0,-3.0L2.5,-0.5"/>
                </g>
                <g id="arrowRight" xlink:href="#dirArrow" transform="rotate(90) translate(36 -43)" onmousedown="handlePan(1,0)">
                  <use xlink:href="#rim" fill="#404040">
                        <set attributeName="fill" to="#808080" begin="arrowRight.mouseover" end="arrowRight.mouseout"/>
                  </use>
                  <path fill="none" stroke="white" stroke-width="1.5" d="M0,-3.0v7 M-2.5,-0.5L0,-3.0L2.5,-0.5"/>
                </g>
                <g id="arrowDown" xlink:href="#dirArrow" transform="rotate(180) translate(-30 -48)" onmousedown="handlePan(0,1)">
                  <use xlink:href="#rim" fill="#404040">
                        <set attributeName="fill" to="#808080" begin="arrowDown.mouseover" end="arrowDown.mouseout"/>
                  </use>
                  <path fill="none" stroke="white" stroke-width="1.5" d="M0,-3.0v7 M-2.5,-0.5L0,-3.0L2.5,-0.5"/>
                </g>
                <g id="arrowLeft" xlink:href="#dirArrow" transform="rotate(270) translate(-36 17)" onmousedown="handlePan(-1,0)">
                  <use xlink:href="#rim" fill="#404040">
                        <set attributeName="fill" to="#808080" begin="arrowLeft.mouseover" end="arrowLeft.mouseout"/>
                  </use>
                  <path fill="none" stroke="white" stroke-width="1.5" d="M0,-3.0v7 M-2.5,-0.5L0,-3.0L2.5,-0.5"/>
                </g>
        </g>
        <svg viewBox="0 0 15 15" width="100%" height="30px" preserveAspectRatio="xMaxYMin meet">
         <g id="arrow_out" transform="scale(0.3 0.3)">
          <a xlink:href="TAC_8h__incl_org.svg" target="_base">
           <rect id="button" ry="5" rx="5" y="6" x="6" height="38" width="38"
                fill="#f2f5e9" fill-opacity="0.5" stroke="#606060" stroke-width="1.0"/>
           <path id="arrow"
             d="M 11.500037,31.436501 C 11.940474,20.09759 22.043105,11.32322 32.158766,21.979434 L 37.068811,17.246167 C 37.068811,17.246167 37.088388,32 37.088388,32 L 22.160133,31.978069 C 22.160133,31.978069 26.997745,27.140456 26.997745,27.140456 C 18.528582,18.264221 13.291696,25.230495 11.500037,31.436501 z"
             style="fill:#404040;"/>
          </a>
         </g>
        </svg>
</svg>
