<?xml version="1.0" encoding="UTF-8" standalone="no"?>
<!DOCTYPE svg PUBLIC "-//W3C//DTD SVG 1.1//EN"
 "http://www.w3.org/Graphics/SVG/1.1/DTD/svg11.dtd">
<!-- Generated by graphviz version 2.43.0 (0)
 -->
<!-- Title: include/Utils.h Pages: 1 -->
<svg width="997pt" height="632pt"
 viewBox="0.00 0.00 996.50 632.00" xmlns="http://www.w3.org/2000/svg" xmlns:xlink="http://www.w3.org/1999/xlink">
<g id="graph0" class="graph" transform="scale(1 1) rotate(0) translate(4 628)">
<title>include/Utils.h</title>
<!-- Node1 -->
<g id="node1" class="node">
<title>Node1</title>
<g id="a_node1"><a xlink:title=" ">
<polygon fill="#bfbfbf" stroke="black" points="534,-604.5 534,-623.5 620,-623.5 620,-604.5 534,-604.5"/>
<text text-anchor="middle" x="577" y="-611.5" font-family="Helvetica,sans-Serif" font-size="10.00">include/Utils.h</text>
</a>
</g>
</g>
<!-- Node2 -->
<g id="node2" class="node">
<title>Node2</title>
<g id="a_node2"><a xlink:href="CostTable_8h.html" target="_top" xlink:title=" ">
<polygon fill="none" stroke="black" points="225,-263 225,-282 391,-282 391,-263 225,-263"/>
<text text-anchor="middle" x="308" y="-270" font-family="Helvetica,sans-Serif" font-size="10.00">include/CostModel/CostTable.h</text>
</a>
</g>
</g>
<!-- Node1&#45;&gt;Node2 -->
<g id="edge1" class="edge">
<title>Node1&#45;&gt;Node2</title>
<path fill="none" stroke="midnightblue" d="M523.61,-613.31C387.45,-612.67 38,-601.43 38,-503 38,-503 38,-503 38,-389 38,-306.66 145.46,-282.24 224.79,-275.44"/>
<polygon fill="midnightblue" stroke="midnightblue" points="523.79,-616.81 533.8,-613.34 523.81,-609.81 523.79,-616.81"/>
</g>
<!-- Node7 -->
<g id="node7" class="node">
<title>Node7</title>
<g id="a_node7"><a xlink:href="macveth_8cpp.html" target="_top" xlink:title=" ">
<polygon fill="none" stroke="black" points="751.5,-0.5 751.5,-19.5 846.5,-19.5 846.5,-0.5 751.5,-0.5"/>
<text text-anchor="middle" x="799" y="-7.5" font-family="Helvetica,sans-Serif" font-size="10.00">lib/macveth.cpp</text>
</a>
</g>
</g>
<!-- Node1&#45;&gt;Node7 -->
<g id="edge51" class="edge">
<title>Node1&#45;&gt;Node7</title>
<path fill="none" stroke="midnightblue" d="M523.68,-612.55C410.71,-610.89 151.03,-603.26 71,-568 31.85,-550.75 0,-545.78 0,-503 0,-503 0,-503 0,-137.5 0,-23.59 131.41,-78.87 243,-56 428.24,-18.03 654.34,-11.8 751.22,-10.98"/>
<polygon fill="midnightblue" stroke="midnightblue" points="523.78,-616.05 533.82,-612.68 523.87,-609.05 523.78,-616.05"/>
</g>
<!-- Node11 -->
<g id="node11" class="node">
<title>Node11</title>
<g id="a_node11"><a xlink:href="Debug_8h.html" target="_top" xlink:title=" ">
<polygon fill="none" stroke="black" points="562.5,-548.5 562.5,-567.5 657.5,-567.5 657.5,-548.5 562.5,-548.5"/>
<text text-anchor="middle" x="610" y="-555.5" font-family="Helvetica,sans-Serif" font-size="10.00">include/Debug.h</text>
</a>
</g>
</g>
<!-- Node1&#45;&gt;Node11 -->
<g id="edge14" class="edge">
<title>Node1&#45;&gt;Node11</title>
<path fill="none" stroke="midnightblue" d="M587.83,-595.27C593.47,-586.05 600.12,-575.17 604.65,-567.75"/>
<polygon fill="midnightblue" stroke="midnightblue" points="584.68,-593.73 582.45,-604.08 590.65,-597.38 584.68,-593.73"/>
</g>
<!-- Node12 -->
<g id="node12" class="node">
<title>Node12</title>
<g id="a_node12"><a xlink:href="MVExpr_8h.html" target="_top" xlink:title=" ">
<polygon fill="none" stroke="black" points="451.5,-492.5 451.5,-511.5 592.5,-511.5 592.5,-492.5 451.5,-492.5"/>
<text text-anchor="middle" x="522" y="-499.5" font-family="Helvetica,sans-Serif" font-size="10.00">include/MVExpr/MVExpr.h</text>
</a>
</g>
</g>
<!-- Node1&#45;&gt;Node12 -->
<g id="edge48" class="edge">
<title>Node1&#45;&gt;Node12</title>
<path fill="none" stroke="midnightblue" d="M567.37,-595.39C562.91,-587.12 557.6,-577.1 553,-568 542.97,-548.13 531.9,-524.47 526.09,-511.89"/>
<polygon fill="midnightblue" stroke="midnightblue" points="564.44,-597.32 572.28,-604.43 570.59,-593.98 564.44,-597.32"/>
</g>
<!-- Node21 -->
<g id="node21" class="node">
<title>Node21</title>
<g id="a_node21"><a xlink:href="StmtWrapper_8h.html" target="_top" xlink:title=" ">
<polygon fill="none" stroke="black" points="731,-380.5 731,-399.5 859,-399.5 859,-380.5 731,-380.5"/>
<text text-anchor="middle" x="795" y="-387.5" font-family="Helvetica,sans-Serif" font-size="10.00">include/StmtWrapper.h</text>
</a>
</g>
</g>
<!-- Node1&#45;&gt;Node21 -->
<g id="edge49" class="edge">
<title>Node1&#45;&gt;Node21</title>
<path fill="none" stroke="midnightblue" d="M619.64,-601.2C640.97,-593.92 666.36,-583.05 686,-568 735.82,-529.83 742.05,-511.15 772,-456 782.28,-437.06 789.48,-412.62 792.84,-399.78"/>
<polygon fill="midnightblue" stroke="midnightblue" points="618.27,-597.96 609.84,-604.39 620.44,-604.62 618.27,-597.96"/>
</g>
<!-- Node22 -->
<g id="node22" class="node">
<title>Node22</title>
<g id="a_node22"><a xlink:href="TAC_8h.html" target="_top" xlink:title=" ">
<polygon fill="none" stroke="black" points="655.5,-436.5 655.5,-455.5 738.5,-455.5 738.5,-436.5 655.5,-436.5"/>
<text text-anchor="middle" x="697" y="-443.5" font-family="Helvetica,sans-Serif" font-size="10.00">include/TAC.h</text>
</a>
</g>
</g>
<!-- Node1&#45;&gt;Node22 -->
<g id="edge50" class="edge">
<title>Node1&#45;&gt;Node22</title>
<path fill="none" stroke="midnightblue" d="M618.27,-600.66C635.3,-593.62 653.85,-583.12 666,-568 693.7,-533.51 696.94,-477.15 697.11,-455.68"/>
<polygon fill="midnightblue" stroke="midnightblue" points="616.56,-597.56 608.47,-604.4 619.06,-604.1 616.56,-597.56"/>
</g>
<!-- Node3 -->
<g id="node3" class="node">
<title>Node3</title>
<g id="a_node3"><a xlink:href="SIMDCostInfo_8h.html" target="_top" xlink:title=" ">
<polygon fill="none" stroke="black" points="411.5,-123.5 411.5,-153.5 568.5,-153.5 568.5,-123.5 411.5,-123.5"/>
<text text-anchor="start" x="419.5" y="-141.5" font-family="Helvetica,sans-Serif" font-size="10.00">include/CostModel/SIMDCost</text>
<text text-anchor="middle" x="490" y="-130.5" font-family="Helvetica,sans-Serif" font-size="10.00">Info.h</text>
</a>
</g>
</g>
<!-- Node2&#45;&gt;Node3 -->
<g id="edge2" class="edge">
<title>Node2&#45;&gt;Node3</title>
<path fill="none" stroke="midnightblue" d="M323.34,-255.26C340.32,-237.83 369,-209.97 397,-190 416.75,-175.92 440.85,-162.93 459.58,-153.66"/>
<polygon fill="midnightblue" stroke="midnightblue" points="320.4,-253.26 316,-262.9 325.45,-258.11 320.4,-253.26"/>
</g>
<!-- Node5 -->
<g id="node5" class="node">
<title>Node5</title>
<g id="a_node5"><a xlink:href="SIMDBackEnd_8h.html" target="_top" xlink:title=" ">
<polygon fill="none" stroke="black" points="406.5,-190.5 406.5,-220.5 531.5,-220.5 531.5,-190.5 406.5,-190.5"/>
<text text-anchor="start" x="414.5" y="-208.5" font-family="Helvetica,sans-Serif" font-size="10.00">include/Vectorization</text>
<text text-anchor="middle" x="469" y="-197.5" font-family="Helvetica,sans-Serif" font-size="10.00">/SIMD/SIMDBackEnd.h</text>
</a>
</g>
</g>
<!-- Node2&#45;&gt;Node5 -->
<g id="edge4" class="edge">
<title>Node2&#45;&gt;Node5</title>
<path fill="none" stroke="midnightblue" d="M338.82,-259.06C366.09,-248.05 405.86,-231.99 434.25,-220.53"/>
<polygon fill="midnightblue" stroke="midnightblue" points="337.34,-255.88 329.38,-262.87 339.96,-262.37 337.34,-255.88"/>
</g>
<!-- Node4 -->
<g id="node4" class="node">
<title>Node4</title>
<g id="a_node4"><a xlink:href="MVCostModel_8h.html" target="_top" xlink:title=" ">
<polygon fill="none" stroke="black" points="523.5,-56.5 523.5,-86.5 670.5,-86.5 670.5,-56.5 523.5,-56.5"/>
<text text-anchor="start" x="531.5" y="-74.5" font-family="Helvetica,sans-Serif" font-size="10.00">include/CostModel/MVCost</text>
<text text-anchor="middle" x="597" y="-63.5" font-family="Helvetica,sans-Serif" font-size="10.00">Model.h</text>
</a>
</g>
</g>
<!-- Node3&#45;&gt;Node4 -->
<g id="edge3" class="edge">
<title>Node3&#45;&gt;Node4</title>
<path fill="none" stroke="midnightblue" d="M522.08,-118.02C538.73,-107.9 558.69,-95.77 573.83,-86.58"/>
<polygon fill="midnightblue" stroke="midnightblue" points="519.95,-115.21 513.22,-123.4 523.58,-121.2 519.95,-115.21"/>
</g>
<!-- Node5&#45;&gt;Node3 -->
<g id="edge6" class="edge">
<title>Node5&#45;&gt;Node3</title>
<path fill="none" stroke="midnightblue" d="M476.69,-180.7C479.63,-171.59 482.89,-161.49 485.45,-153.58"/>
<polygon fill="midnightblue" stroke="midnightblue" points="473.3,-179.8 473.56,-190.4 479.96,-181.96 473.3,-179.8"/>
</g>
<!-- Node5&#45;&gt;Node4 -->
<g id="edge5" class="edge">
<title>Node5&#45;&gt;Node4</title>
<path fill="none" stroke="midnightblue" d="M531.28,-186.57C548.22,-178.99 565.15,-168.45 577,-154 592.99,-134.51 596.5,-104.14 597.1,-86.5"/>
<polygon fill="midnightblue" stroke="midnightblue" points="529.77,-183.41 521.89,-190.49 532.47,-189.87 529.77,-183.41"/>
</g>
<!-- Node6 -->
<g id="node6" class="node">
<title>Node6</title>
<g id="a_node6"><a xlink:href="MVFrontend_8h.html" target="_top" xlink:title=" ">
<polygon fill="none" stroke="black" points="738,-62 738,-81 860,-81 860,-62 738,-62"/>
<text text-anchor="middle" x="799" y="-69" font-family="Helvetica,sans-Serif" font-size="10.00">include/MVFrontend.h</text>
</a>
</g>
</g>
<!-- Node5&#45;&gt;Node6 -->
<g id="edge7" class="edge">
<title>Node5&#45;&gt;Node6</title>
<path fill="none" stroke="midnightblue" d="M515.31,-186.72C540.16,-177.13 571.29,-165.03 599,-154 664.67,-127.87 742.07,-96.03 778.32,-81.06"/>
<polygon fill="midnightblue" stroke="midnightblue" points="513.84,-183.54 505.77,-190.4 516.36,-190.07 513.84,-183.54"/>
</g>
<!-- Node8 -->
<g id="node8" class="node">
<title>Node8</title>
<g id="a_node8"><a xlink:href="MVRewriter_8h.html" target="_top" xlink:title=" ">
<polygon fill="none" stroke="black" points="739,-129 739,-148 859,-148 859,-129 739,-129"/>
<text text-anchor="middle" x="799" y="-136" font-family="Helvetica,sans-Serif" font-size="10.00">include/MVRewriter.h</text>
</a>
</g>
</g>
<!-- Node5&#45;&gt;Node8 -->
<g id="edge9" class="edge">
<title>Node5&#45;&gt;Node8</title>
<path fill="none" stroke="midnightblue" d="M542.01,-189.61C622.38,-173.6 705.02,-157.59 754.52,-148.05"/>
<polygon fill="midnightblue" stroke="midnightblue" points="540.84,-186.27 531.71,-191.66 542.21,-193.14 540.84,-186.27"/>
</g>
<!-- Node9 -->
<g id="node9" class="node">
<title>Node9</title>
<g id="a_node9"><a xlink:href="AVX2BackEnd_8h.html" target="_top" xlink:title=" ">
<polygon fill="none" stroke="black" points="201.5,-123.5 201.5,-153.5 354.5,-153.5 354.5,-123.5 201.5,-123.5"/>
<text text-anchor="start" x="209.5" y="-141.5" font-family="Helvetica,sans-Serif" font-size="10.00">include/Vectorization</text>
<text text-anchor="middle" x="278" y="-130.5" font-family="Helvetica,sans-Serif" font-size="10.00">/SIMD/AVX2/AVX2BackEnd.h</text>
</a>
</g>
</g>
<!-- Node5&#45;&gt;Node9 -->
<g id="edge11" class="edge">
<title>Node5&#45;&gt;Node9</title>
<path fill="none" stroke="midnightblue" d="M417.85,-187.09C387.01,-176.6 348.25,-163.41 319.36,-153.58"/>
<polygon fill="midnightblue" stroke="midnightblue" points="416.96,-190.49 427.56,-190.4 419.22,-183.86 416.96,-190.49"/>
</g>
<!-- Node10 -->
<g id="node10" class="node">
<title>Node10</title>
<g id="a_node10"><a xlink:href="SIMDBackEndFactory_8h.html" target="_top" xlink:title=" ">
<polygon fill="none" stroke="black" points="252,-56.5 252,-86.5 410,-86.5 410,-56.5 252,-56.5"/>
<text text-anchor="start" x="260" y="-74.5" font-family="Helvetica,sans-Serif" font-size="10.00">include/Vectorization</text>
<text text-anchor="middle" x="331" y="-63.5" font-family="Helvetica,sans-Serif" font-size="10.00">/SIMD/SIMDBackEndFactory.h</text>
</a>
</g>
</g>
<!-- Node5&#45;&gt;Node10 -->
<g id="edge13" class="edge">
<title>Node5&#45;&gt;Node10</title>
<path fill="none" stroke="midnightblue" d="M439.46,-184.29C427.39,-175.51 413.58,-164.79 402,-154 378.66,-132.25 355.01,-103.45 341.75,-86.55"/>
<polygon fill="midnightblue" stroke="midnightblue" points="437.72,-187.34 447.89,-190.3 441.79,-181.64 437.72,-187.34"/>
</g>
<!-- Node6&#45;&gt;Node7 -->
<g id="edge8" class="edge">
<title>Node6&#45;&gt;Node7</title>
<path fill="none" stroke="midnightblue" d="M799,-51.82C799,-41 799,-27.9 799,-19.51"/>
<polygon fill="midnightblue" stroke="midnightblue" points="795.5,-51.98 799,-61.98 802.5,-51.98 795.5,-51.98"/>
</g>
<!-- Node8&#45;&gt;Node6 -->
<g id="edge10" class="edge">
<title>Node8&#45;&gt;Node6</title>
<path fill="none" stroke="midnightblue" d="M799,-118.54C799,-106.17 799,-90.62 799,-81.13"/>
<polygon fill="midnightblue" stroke="midnightblue" points="795.5,-118.73 799,-128.73 802.5,-118.73 795.5,-118.73"/>
</g>
<!-- Node9&#45;&gt;Node10 -->
<g id="edge12" class="edge">
<title>Node9&#45;&gt;Node10</title>
<path fill="none" stroke="midnightblue" d="M295.98,-115.45C303.77,-105.9 312.65,-95 319.52,-86.58"/>
<polygon fill="midnightblue" stroke="midnightblue" points="293.11,-113.43 289.5,-123.4 298.53,-117.86 293.11,-113.43"/>
</g>
<!-- Node11&#45;&gt;Node12 -->
<g id="edge15" class="edge">
<title>Node11&#45;&gt;Node12</title>
<path fill="none" stroke="midnightblue" d="M587.02,-542.9C570.89,-533 549.82,-520.07 536.1,-511.65"/>
<polygon fill="midnightblue" stroke="midnightblue" points="585.51,-546.08 595.86,-548.32 589.17,-540.11 585.51,-546.08"/>
</g>
<!-- Node11&#45;&gt;Node22 -->
<g id="edge47" class="edge">
<title>Node11&#45;&gt;Node22</title>
<path fill="none" stroke="midnightblue" d="M617.47,-539.12C623.69,-525.44 633.37,-506.5 645,-492 656.65,-477.47 673.41,-463.94 684.73,-455.58"/>
<polygon fill="midnightblue" stroke="midnightblue" points="614.21,-537.84 613.43,-548.41 620.63,-540.64 614.21,-537.84"/>
</g>
<!-- Node23 -->
<g id="node23" class="node">
<title>Node23</title>
<g id="a_node23"><a xlink:href="MVPragmaHandler_8h.html" target="_top" xlink:title=" ">
<polygon fill="none" stroke="black" points="833.5,-436.5 833.5,-455.5 988.5,-455.5 988.5,-436.5 833.5,-436.5"/>
<text text-anchor="middle" x="911" y="-443.5" font-family="Helvetica,sans-Serif" font-size="10.00">include/MVPragmaHandler.h</text>
</a>
</g>
</g>
<!-- Node11&#45;&gt;Node23 -->
<g id="edge42" class="edge">
<title>Node11&#45;&gt;Node23</title>
<path fill="none" stroke="midnightblue" d="M643.21,-544.86C704.57,-522.44 834.3,-475.03 887.49,-455.59"/>
<polygon fill="midnightblue" stroke="midnightblue" points="641.81,-541.65 633.62,-548.37 644.21,-548.22 641.81,-541.65"/>
</g>
<!-- Node13 -->
<g id="node13" class="node">
<title>Node13</title>
<g id="a_node13"><a xlink:href="MVExprArray_8h.html" target="_top" xlink:title=" ">
<polygon fill="none" stroke="black" points="65.5,-380.5 65.5,-399.5 232.5,-399.5 232.5,-380.5 65.5,-380.5"/>
<text text-anchor="middle" x="149" y="-387.5" font-family="Helvetica,sans-Serif" font-size="10.00">include/MVExpr/MVExprArray.h</text>
</a>
</g>
</g>
<!-- Node12&#45;&gt;Node13 -->
<g id="edge16" class="edge">
<title>Node12&#45;&gt;Node13</title>
<path fill="none" stroke="midnightblue" d="M483.04,-489.51C407.87,-467.34 244.38,-419.13 177.94,-399.53"/>
<polygon fill="midnightblue" stroke="midnightblue" points="482.46,-492.99 493.04,-492.46 484.44,-486.27 482.46,-492.99"/>
</g>
<!-- Node15 -->
<g id="node15" class="node">
<title>Node15</title>
<g id="a_node15"><a xlink:href="MVExprFactory_8h.html" target="_top" xlink:title=" ">
<polygon fill="none" stroke="black" points="423,-436.5 423,-455.5 599,-455.5 599,-436.5 423,-436.5"/>
<text text-anchor="middle" x="511" y="-443.5" font-family="Helvetica,sans-Serif" font-size="10.00">include/MVExpr/MVExprFactory.h</text>
</a>
</g>
</g>
<!-- Node12&#45;&gt;Node15 -->
<g id="edge20" class="edge">
<title>Node12&#45;&gt;Node15</title>
<path fill="none" stroke="midnightblue" d="M518.15,-482.1C516.32,-473.14 514.23,-462.86 512.78,-455.75"/>
<polygon fill="midnightblue" stroke="midnightblue" points="514.76,-482.98 520.18,-492.08 521.62,-481.59 514.76,-482.98"/>
</g>
<!-- Node16 -->
<g id="node16" class="node">
<title>Node16</title>
<g id="a_node16"><a xlink:href="MVExprLiteral_8h.html" target="_top" xlink:title=" ">
<polygon fill="none" stroke="black" points="250.5,-380.5 250.5,-399.5 423.5,-399.5 423.5,-380.5 250.5,-380.5"/>
<text text-anchor="middle" x="337" y="-387.5" font-family="Helvetica,sans-Serif" font-size="10.00">include/MVExpr/MVExprLiteral.h</text>
</a>
</g>
</g>
<!-- Node12&#45;&gt;Node16 -->
<g id="edge21" class="edge">
<title>Node12&#45;&gt;Node16</title>
<path fill="none" stroke="midnightblue" d="M480.86,-489.34C457.82,-481.78 429.16,-470.61 406,-456 380.39,-439.84 355.95,-413.33 344.23,-399.7"/>
<polygon fill="midnightblue" stroke="midnightblue" points="480.09,-492.77 490.68,-492.46 482.21,-486.1 480.09,-492.77"/>
</g>
<!-- Node17 -->
<g id="node17" class="node">
<title>Node17</title>
<g id="a_node17"><a xlink:href="Node_8h.html" target="_top" xlink:title=" ">
<polygon fill="none" stroke="black" points="565.5,-324.5 565.5,-343.5 654.5,-343.5 654.5,-324.5 565.5,-324.5"/>
<text text-anchor="middle" x="610" y="-331.5" font-family="Helvetica,sans-Serif" font-size="10.00">include/Node.h</text>
</a>
</g>
</g>
<!-- Node12&#45;&gt;Node17 -->
<g id="edge32" class="edge">
<title>Node12&#45;&gt;Node17</title>
<path fill="none" stroke="midnightblue" d="M565.49,-488.77C581.7,-481.89 598.46,-471.47 608,-456 630.39,-419.7 618.53,-364.88 612.66,-343.74"/>
<polygon fill="midnightblue" stroke="midnightblue" points="564.13,-485.54 556.07,-492.42 566.66,-492.07 564.13,-485.54"/>
</g>
<!-- Node20 -->
<g id="node20" class="node">
<title>Node20</title>
<g id="a_node20"><a xlink:href="MVExprVar_8h.html" target="_top" xlink:title=" ">
<polygon fill="none" stroke="black" points="441.5,-380.5 441.5,-399.5 598.5,-399.5 598.5,-380.5 441.5,-380.5"/>
<text text-anchor="middle" x="520" y="-387.5" font-family="Helvetica,sans-Serif" font-size="10.00">include/MVExpr/MVExprVar.h</text>
</a>
</g>
</g>
<!-- Node12&#45;&gt;Node20 -->
<g id="edge30" class="edge">
<title>Node12&#45;&gt;Node20</title>
<path fill="none" stroke="midnightblue" d="M460.73,-489.21C442.63,-482.56 424.79,-472.19 414,-456 394.9,-427.35 440.75,-409.17 478.03,-399.53"/>
<polygon fill="midnightblue" stroke="midnightblue" points="459.88,-492.61 470.47,-492.44 462.08,-485.97 459.88,-492.61"/>
</g>
<!-- Node12&#45;&gt;Node21 -->
<g id="edge33" class="edge">
<title>Node12&#45;&gt;Node21</title>
<path fill="none" stroke="midnightblue" d="M602.68,-491.25C657.48,-483.46 724.15,-471.31 748,-456 769.8,-442.01 784.73,-414.04 791.27,-399.78"/>
<polygon fill="midnightblue" stroke="midnightblue" points="602.02,-487.81 592.6,-492.66 602.99,-494.74 602.02,-487.81"/>
</g>
<!-- Node12&#45;&gt;Node22 -->
<g id="edge38" class="edge">
<title>Node12&#45;&gt;Node22</title>
<path fill="none" stroke="midnightblue" d="M559.47,-489.44C592.47,-479.26 639.76,-464.66 669.4,-455.52"/>
<polygon fill="midnightblue" stroke="midnightblue" points="558.25,-486.15 549.73,-492.44 560.32,-492.84 558.25,-486.15"/>
</g>
<!-- Node14 -->
<g id="node14" class="node">
<title>Node14</title>
<g id="a_node14"><a xlink:href="VectorIR_8h.html" target="_top" xlink:title=" ">
<polygon fill="none" stroke="black" points="409.5,-257.5 409.5,-287.5 528.5,-287.5 528.5,-257.5 409.5,-257.5"/>
<text text-anchor="start" x="417.5" y="-275.5" font-family="Helvetica,sans-Serif" font-size="10.00">include/Vectorization</text>
<text text-anchor="middle" x="469" y="-264.5" font-family="Helvetica,sans-Serif" font-size="10.00">/VectorIR.h</text>
</a>
</g>
</g>
<!-- Node13&#45;&gt;Node14 -->
<g id="edge17" class="edge">
<title>Node13&#45;&gt;Node14</title>
<path fill="none" stroke="midnightblue" d="M182.47,-376.92C242.14,-355.38 366.57,-310.47 430,-287.58"/>
<polygon fill="midnightblue" stroke="midnightblue" points="181.01,-373.73 172.79,-380.41 183.38,-380.31 181.01,-373.73"/>
</g>
<!-- Node14&#45;&gt;Node5 -->
<g id="edge19" class="edge">
<title>Node14&#45;&gt;Node5</title>
<path fill="none" stroke="midnightblue" d="M469,-247.11C469,-238.15 469,-228.32 469,-220.58"/>
<polygon fill="midnightblue" stroke="midnightblue" points="465.5,-247.4 469,-257.4 472.5,-247.4 465.5,-247.4"/>
</g>
<!-- Node14&#45;&gt;Node9 -->
<g id="edge18" class="edge">
<title>Node14&#45;&gt;Node9</title>
<path fill="none" stroke="midnightblue" d="M440.24,-251.62C401.19,-224.64 332.37,-177.08 298.29,-153.52"/>
<polygon fill="midnightblue" stroke="midnightblue" points="438.34,-254.57 448.56,-257.37 442.32,-248.81 438.34,-254.57"/>
</g>
<!-- Node16&#45;&gt;Node17 -->
<g id="edge22" class="edge">
<title>Node16&#45;&gt;Node17</title>
<path fill="none" stroke="midnightblue" d="M390.22,-378.47C441.81,-368.27 519.1,-352.98 566.94,-343.52"/>
<polygon fill="midnightblue" stroke="midnightblue" points="389.39,-375.07 380.26,-380.44 390.75,-381.94 389.39,-375.07"/>
</g>
<!-- Node17&#45;&gt;Node14 -->
<g id="edge29" class="edge">
<title>Node17&#45;&gt;Node14</title>
<path fill="none" stroke="midnightblue" d="M580.28,-320.46C557.45,-310.82 525.9,-297.51 502.23,-287.52"/>
<polygon fill="midnightblue" stroke="midnightblue" points="579.22,-323.81 589.8,-324.48 581.95,-317.36 579.22,-323.81"/>
</g>
<!-- Node18 -->
<g id="node18" class="node">
<title>Node18</title>
<g id="a_node18"><a xlink:href="CDAG_8h.html" target="_top" xlink:title=" ">
<polygon fill="none" stroke="black" points="621,-263 621,-282 713,-282 713,-263 621,-263"/>
<text text-anchor="middle" x="667" y="-270" font-family="Helvetica,sans-Serif" font-size="10.00">include/CDAG.h</text>
</a>
</g>
</g>
<!-- Node17&#45;&gt;Node18 -->
<g id="edge23" class="edge">
<title>Node17&#45;&gt;Node18</title>
<path fill="none" stroke="midnightblue" d="M625.33,-317C636.12,-305.74 650.14,-291.1 658.85,-282.01"/>
<polygon fill="midnightblue" stroke="midnightblue" points="622.56,-314.83 618.17,-324.48 627.61,-319.68 622.56,-314.83"/>
</g>
<!-- Node19 -->
<g id="node19" class="node">
<title>Node19</title>
<g id="a_node19"><a xlink:href="PlcmntAlgo_8h.html" target="_top" xlink:title=" ">
<polygon fill="none" stroke="black" points="549.5,-196 549.5,-215 668.5,-215 668.5,-196 549.5,-196"/>
<text text-anchor="middle" x="609" y="-203" font-family="Helvetica,sans-Serif" font-size="10.00">include/PlcmntAlgo.h</text>
</a>
</g>
</g>
<!-- Node17&#45;&gt;Node19 -->
<g id="edge28" class="edge">
<title>Node17&#45;&gt;Node19</title>
<path fill="none" stroke="midnightblue" d="M609.85,-313.94C609.63,-286.12 609.23,-235.54 609.07,-215.26"/>
<polygon fill="midnightblue" stroke="midnightblue" points="606.35,-314.33 609.93,-324.31 613.35,-314.28 606.35,-314.33"/>
</g>
<!-- Node18&#45;&gt;Node5 -->
<g id="edge27" class="edge">
<title>Node18&#45;&gt;Node5</title>
<path fill="none" stroke="midnightblue" d="M630.85,-259.63C597.28,-248.61 547.27,-232.19 511.73,-220.53"/>
<polygon fill="midnightblue" stroke="midnightblue" points="630.11,-263.07 640.71,-262.87 632.3,-256.42 630.11,-263.07"/>
</g>
<!-- Node18&#45;&gt;Node6 -->
<g id="edge24" class="edge">
<title>Node18&#45;&gt;Node6</title>
<path fill="none" stroke="midnightblue" d="M671.38,-253.1C679.19,-223.28 697.77,-163.68 730,-123 744.47,-104.73 767.15,-89.88 782.52,-81.12"/>
<polygon fill="midnightblue" stroke="midnightblue" points="667.95,-252.41 668.91,-262.96 674.74,-254.11 667.95,-252.41"/>
</g>
<!-- Node18&#45;&gt;Node8 -->
<g id="edge25" class="edge">
<title>Node18&#45;&gt;Node8</title>
<path fill="none" stroke="midnightblue" d="M682.74,-255.76C710.84,-227.66 768.72,-169.78 790.48,-148.02"/>
<polygon fill="midnightblue" stroke="midnightblue" points="680.26,-253.29 675.66,-262.84 685.21,-258.24 680.26,-253.29"/>
</g>
<!-- Node18&#45;&gt;Node19 -->
<g id="edge26" class="edge">
<title>Node18&#45;&gt;Node19</title>
<path fill="none" stroke="midnightblue" d="M652.4,-255.13C641.05,-242.42 625.77,-225.3 616.7,-215.13"/>
<polygon fill="midnightblue" stroke="midnightblue" points="649.91,-257.6 659.18,-262.73 655.13,-252.94 649.91,-257.6"/>
</g>
<!-- Node20&#45;&gt;Node17 -->
<g id="edge31" class="edge">
<title>Node20&#45;&gt;Node17</title>
<path fill="none" stroke="midnightblue" d="M543.04,-375.18C559.6,-365.24 581.42,-352.15 595.58,-343.65"/>
<polygon fill="midnightblue" stroke="midnightblue" points="541.23,-372.18 534.46,-380.32 544.84,-378.18 541.23,-372.18"/>
</g>
<!-- Node21&#45;&gt;Node4 -->
<g id="edge34" class="edge">
<title>Node21&#45;&gt;Node4</title>
<path fill="none" stroke="midnightblue" d="M785.84,-371.31C772.45,-345.72 746.46,-297.05 722,-257 703.3,-226.39 697.09,-219.71 677,-190 651.7,-152.59 621.69,-108.62 606.63,-86.59"/>
<polygon fill="midnightblue" stroke="midnightblue" points="782.75,-372.95 790.47,-380.2 788.96,-369.72 782.75,-372.95"/>
</g>
<!-- Node21&#45;&gt;Node6 -->
<g id="edge35" class="edge">
<title>Node21&#45;&gt;Node6</title>
<path fill="none" stroke="midnightblue" d="M802.73,-370.83C818.79,-331.94 855.35,-237.39 868,-154 870.07,-140.38 874.23,-135.29 868,-123 857.93,-103.14 835.97,-89.22 819.51,-81.09"/>
<polygon fill="midnightblue" stroke="midnightblue" points="799.41,-369.69 798.78,-380.26 805.87,-372.39 799.41,-369.69"/>
</g>
<!-- Node21&#45;&gt;Node8 -->
<g id="edge36" class="edge">
<title>Node21&#45;&gt;Node8</title>
<path fill="none" stroke="midnightblue" d="M795.3,-370.34C796.1,-320.14 798.29,-183.6 798.86,-148.05"/>
<polygon fill="midnightblue" stroke="midnightblue" points="791.8,-370.36 795.14,-380.41 798.8,-370.47 791.8,-370.36"/>
</g>
<!-- Node21&#45;&gt;Node17 -->
<g id="edge37" class="edge">
<title>Node21&#45;&gt;Node17</title>
<path fill="none" stroke="midnightblue" d="M755.83,-377.57C720.93,-367.38 670.65,-352.7 639.18,-343.52"/>
<polygon fill="midnightblue" stroke="midnightblue" points="755.11,-381 765.69,-380.44 757.07,-374.28 755.11,-381"/>
</g>
<!-- Node22&#45;&gt;Node17 -->
<g id="edge40" class="edge">
<title>Node22&#45;&gt;Node17</title>
<path fill="none" stroke="midnightblue" d="M683.77,-428.27C664.96,-404.49 631.19,-361.79 616.8,-343.59"/>
<polygon fill="midnightblue" stroke="midnightblue" points="681.22,-430.7 690.17,-436.37 686.72,-426.35 681.22,-430.7"/>
</g>
<!-- Node22&#45;&gt;Node18 -->
<g id="edge39" class="edge">
<title>Node22&#45;&gt;Node18</title>
<path fill="none" stroke="midnightblue" d="M693.73,-426.33C687.28,-389.43 673.11,-308.44 668.49,-282.02"/>
<polygon fill="midnightblue" stroke="midnightblue" points="690.3,-427.01 695.47,-436.26 697.2,-425.81 690.3,-427.01"/>
</g>
<!-- Node22&#45;&gt;Node21 -->
<g id="edge41" class="edge">
<title>Node22&#45;&gt;Node21</title>
<path fill="none" stroke="midnightblue" d="M721.59,-431.45C739.68,-421.48 763.73,-408.23 779.29,-399.65"/>
<polygon fill="midnightblue" stroke="midnightblue" points="719.81,-428.43 712.75,-436.32 723.19,-434.56 719.81,-428.43"/>
</g>
<!-- Node23&#45;&gt;Node6 -->
<g id="edge43" class="edge">
<title>Node23&#45;&gt;Node6</title>
<path fill="none" stroke="midnightblue" d="M914.78,-426.64C918.93,-404.88 925,-367.46 925,-335 925,-335 925,-335 925,-204.5 925,-163.75 910.86,-152.74 883,-123 865.09,-103.87 838.33,-89.48 819.85,-81.05"/>
<polygon fill="midnightblue" stroke="midnightblue" points="911.34,-426 912.83,-436.49 918.21,-427.36 911.34,-426"/>
</g>
<!-- Node23&#45;&gt;Node7 -->
<g id="edge46" class="edge">
<title>Node23&#45;&gt;Node7</title>
<path fill="none" stroke="midnightblue" d="M924.7,-428.21C940.11,-407.58 963,-370.88 963,-335 963,-335 963,-335 963,-137.5 963,-71.16 877.82,-34.74 830.23,-19.57"/>
<polygon fill="midnightblue" stroke="midnightblue" points="921.82,-426.21 918.45,-436.26 927.35,-430.5 921.82,-426.21"/>
</g>
<!-- Node23&#45;&gt;Node8 -->
<g id="edge44" class="edge">
<title>Node23&#45;&gt;Node8</title>
<path fill="none" stroke="midnightblue" d="M904.2,-426.46C882.79,-368.06 817.26,-189.31 802.14,-148.06"/>
<polygon fill="midnightblue" stroke="midnightblue" points="901.04,-428 907.77,-436.19 907.61,-425.59 901.04,-428"/>
</g>
<!-- Node23&#45;&gt;Node21 -->
<g id="edge45" class="edge">
<title>Node23&#45;&gt;Node21</title>
<path fill="none" stroke="midnightblue" d="M883.28,-432.1C861.61,-422.01 832.1,-408.27 813.29,-399.52"/>
<polygon fill="midnightblue" stroke="midnightblue" points="882.08,-435.4 892.62,-436.44 885.03,-429.05 882.08,-435.4"/>
</g>
</g>
</svg>
