<?xml version="1.0" encoding="UTF-8" standalone="no"?>
<!DOCTYPE svg PUBLIC "-//W3C//DTD SVG 1.1//EN"
 "http://www.w3.org/Graphics/SVG/1.1/DTD/svg11.dtd">
<!-- Generated by graphviz version 2.43.0 (0)
 -->
<!-- Title: include/Vectorization/VectorIR.h Pages: 1 -->
<svg width="590pt" height="296pt"
 viewBox="0.00 0.00 589.50 296.00" xmlns="http://www.w3.org/2000/svg" xmlns:xlink="http://www.w3.org/1999/xlink">
<g id="graph0" class="graph" transform="scale(1 1) rotate(0) translate(4 292)">
<title>include/Vectorization/VectorIR.h</title>
<!-- Node1 -->
<g id="node1" class="node">
<title>Node1</title>
<g id="a_node1"><a xlink:title=" ">
<polygon fill="#bfbfbf" stroke="black" points="88,-257.5 88,-287.5 207,-287.5 207,-257.5 88,-257.5"/>
<text text-anchor="start" x="96" y="-275.5" font-family="Helvetica,sans-Serif" font-size="10.00">include/Vectorization</text>
<text text-anchor="middle" x="147.5" y="-264.5" font-family="Helvetica,sans-Serif" font-size="10.00">/VectorIR.h</text>
</a>
</g>
</g>
<!-- Node2 -->
<g id="node2" class="node">
<title>Node2</title>
<g id="a_node2"><a xlink:href="AVX2BackEnd_8h.html" target="_top" xlink:title=" ">
<polygon fill="none" stroke="black" points="0,-123.5 0,-153.5 153,-153.5 153,-123.5 0,-123.5"/>
<text text-anchor="start" x="8" y="-141.5" font-family="Helvetica,sans-Serif" font-size="10.00">include/Vectorization</text>
<text text-anchor="middle" x="76.5" y="-130.5" font-family="Helvetica,sans-Serif" font-size="10.00">/SIMD/AVX2/AVX2BackEnd.h</text>
</a>
</g>
</g>
<!-- Node1&#45;&gt;Node2 -->
<g id="edge1" class="edge">
<title>Node1&#45;&gt;Node2</title>
<path fill="none" stroke="midnightblue" d="M135.12,-248.48C120.38,-221.07 96.23,-176.19 84.04,-153.52"/>
<polygon fill="midnightblue" stroke="midnightblue" points="132.08,-250.22 139.9,-257.37 138.25,-246.91 132.08,-250.22"/>
</g>
<!-- Node4 -->
<g id="node4" class="node">
<title>Node4</title>
<g id="a_node4"><a xlink:href="SIMDBackEnd_8h.html" target="_top" xlink:title=" ">
<polygon fill="none" stroke="black" points="157,-190.5 157,-220.5 282,-220.5 282,-190.5 157,-190.5"/>
<text text-anchor="start" x="165" y="-208.5" font-family="Helvetica,sans-Serif" font-size="10.00">include/Vectorization</text>
<text text-anchor="middle" x="219.5" y="-197.5" font-family="Helvetica,sans-Serif" font-size="10.00">/SIMD/SIMDBackEnd.h</text>
</a>
</g>
</g>
<!-- Node1&#45;&gt;Node4 -->
<g id="edge3" class="edge">
<title>Node1&#45;&gt;Node4</title>
<path fill="none" stroke="midnightblue" d="M170.65,-250.6C181.52,-240.78 194.2,-229.34 203.91,-220.58"/>
<polygon fill="midnightblue" stroke="midnightblue" points="168.2,-248.1 163.12,-257.4 172.89,-253.29 168.2,-248.1"/>
</g>
<!-- Node3 -->
<g id="node3" class="node">
<title>Node3</title>
<g id="a_node3"><a xlink:href="SIMDBackEndFactory_8h.html" target="_top" xlink:title=" ">
<polygon fill="none" stroke="black" points="33.5,-56.5 33.5,-86.5 191.5,-86.5 191.5,-56.5 33.5,-56.5"/>
<text text-anchor="start" x="41.5" y="-74.5" font-family="Helvetica,sans-Serif" font-size="10.00">include/Vectorization</text>
<text text-anchor="middle" x="112.5" y="-63.5" font-family="Helvetica,sans-Serif" font-size="10.00">/SIMD/SIMDBackEndFactory.h</text>
</a>
</g>
</g>
<!-- Node2&#45;&gt;Node3 -->
<g id="edge2" class="edge">
<title>Node2&#45;&gt;Node3</title>
<path fill="none" stroke="midnightblue" d="M89.2,-114.58C94.37,-105.24 100.18,-94.75 104.7,-86.58"/>
<polygon fill="midnightblue" stroke="midnightblue" points="86.09,-112.95 84.31,-123.4 92.22,-116.34 86.09,-112.95"/>
</g>
<!-- Node4&#45;&gt;Node2 -->
<g id="edge11" class="edge">
<title>Node4&#45;&gt;Node2</title>
<path fill="none" stroke="midnightblue" d="M179.09,-186.13C156.37,-175.8 128.44,-163.11 107.47,-153.58"/>
<polygon fill="midnightblue" stroke="midnightblue" points="177.92,-189.44 188.47,-190.4 180.82,-183.07 177.92,-189.44"/>
</g>
<!-- Node4&#45;&gt;Node3 -->
<g id="edge12" class="edge">
<title>Node4&#45;&gt;Node3</title>
<path fill="none" stroke="midnightblue" d="M204.77,-181.89C193.54,-165.15 177.35,-142.03 161.5,-123 150.71,-110.05 137.32,-96.38 127.26,-86.54"/>
<polygon fill="midnightblue" stroke="midnightblue" points="202.02,-184.08 210.46,-190.47 207.85,-180.21 202.02,-184.08"/>
</g>
<!-- Node5 -->
<g id="node5" class="node">
<title>Node5</title>
<g id="a_node5"><a xlink:href="MVCostModel_8h.html" target="_top" xlink:title=" ">
<polygon fill="none" stroke="black" points="226,-56.5 226,-86.5 373,-86.5 373,-56.5 226,-56.5"/>
<text text-anchor="start" x="234" y="-74.5" font-family="Helvetica,sans-Serif" font-size="10.00">include/CostModel/MVCost</text>
<text text-anchor="middle" x="299.5" y="-63.5" font-family="Helvetica,sans-Serif" font-size="10.00">Model.h</text>
</a>
</g>
</g>
<!-- Node4&#45;&gt;Node5 -->
<g id="edge4" class="edge">
<title>Node4&#45;&gt;Node5</title>
<path fill="none" stroke="midnightblue" d="M221.06,-180.22C223.1,-163.14 227.78,-140.33 238.5,-123 247.76,-108.04 263.01,-95.41 275.95,-86.53"/>
<polygon fill="midnightblue" stroke="midnightblue" points="217.55,-180.21 220.07,-190.5 224.52,-180.88 217.55,-180.21"/>
</g>
<!-- Node6 -->
<g id="node6" class="node">
<title>Node6</title>
<g id="a_node6"><a xlink:href="SIMDCostInfo_8h.html" target="_top" xlink:title=" ">
<polygon fill="none" stroke="black" points="248,-123.5 248,-153.5 405,-153.5 405,-123.5 248,-123.5"/>
<text text-anchor="start" x="256" y="-141.5" font-family="Helvetica,sans-Serif" font-size="10.00">include/CostModel/SIMDCost</text>
<text text-anchor="middle" x="326.5" y="-130.5" font-family="Helvetica,sans-Serif" font-size="10.00">Info.h</text>
</a>
</g>
</g>
<!-- Node4&#45;&gt;Node6 -->
<g id="edge5" class="edge">
<title>Node4&#45;&gt;Node6</title>
<path fill="none" stroke="midnightblue" d="M251.58,-185.02C268.23,-174.9 288.19,-162.77 303.33,-153.58"/>
<polygon fill="midnightblue" stroke="midnightblue" points="249.45,-182.21 242.72,-190.4 253.08,-188.2 249.45,-182.21"/>
</g>
<!-- Node7 -->
<g id="node7" class="node">
<title>Node7</title>
<g id="a_node7"><a xlink:href="MVFrontend_8h.html" target="_top" xlink:title=" ">
<polygon fill="none" stroke="black" points="399.5,-62 399.5,-81 521.5,-81 521.5,-62 399.5,-62"/>
<text text-anchor="middle" x="460.5" y="-69" font-family="Helvetica,sans-Serif" font-size="10.00">include/MVFrontend.h</text>
</a>
</g>
</g>
<!-- Node4&#45;&gt;Node7 -->
<g id="edge7" class="edge">
<title>Node4&#45;&gt;Node7</title>
<path fill="none" stroke="midnightblue" d="M292.19,-199.16C331.41,-193.14 378.74,-180.49 413.5,-154 438.7,-134.79 452.7,-97.89 458,-81.15"/>
<polygon fill="midnightblue" stroke="midnightblue" points="291.56,-195.71 282.15,-200.58 292.54,-202.64 291.56,-195.71"/>
</g>
<!-- Node9 -->
<g id="node9" class="node">
<title>Node9</title>
<g id="a_node9"><a xlink:href="MVRewriter_8h.html" target="_top" xlink:title=" ">
<polygon fill="none" stroke="black" points="461.5,-129 461.5,-148 581.5,-148 581.5,-129 461.5,-129"/>
<text text-anchor="middle" x="521.5" y="-136" font-family="Helvetica,sans-Serif" font-size="10.00">include/MVRewriter.h</text>
</a>
</g>
</g>
<!-- Node4&#45;&gt;Node9 -->
<g id="edge9" class="edge">
<title>Node4&#45;&gt;Node9</title>
<path fill="none" stroke="midnightblue" d="M292.16,-188.86C351.61,-176.07 433.47,-158.45 481.61,-148.09"/>
<polygon fill="midnightblue" stroke="midnightblue" points="291.11,-185.51 282.07,-191.03 292.59,-192.35 291.11,-185.51"/>
</g>
<!-- Node6&#45;&gt;Node5 -->
<g id="edge6" class="edge">
<title>Node6&#45;&gt;Node5</title>
<path fill="none" stroke="midnightblue" d="M316.73,-113.99C312.92,-104.8 308.67,-94.58 305.35,-86.58"/>
<polygon fill="midnightblue" stroke="midnightblue" points="313.57,-115.5 320.64,-123.4 320.04,-112.82 313.57,-115.5"/>
</g>
<!-- Node8 -->
<g id="node8" class="node">
<title>Node8</title>
<g id="a_node8"><a xlink:href="macveth_8cpp.html" target="_top" xlink:title=" ">
<polygon fill="none" stroke="black" points="413,-0.5 413,-19.5 508,-19.5 508,-0.5 413,-0.5"/>
<text text-anchor="middle" x="460.5" y="-7.5" font-family="Helvetica,sans-Serif" font-size="10.00">lib/macveth.cpp</text>
</a>
</g>
</g>
<!-- Node7&#45;&gt;Node8 -->
<g id="edge8" class="edge">
<title>Node7&#45;&gt;Node8</title>
<path fill="none" stroke="midnightblue" d="M460.5,-51.82C460.5,-41 460.5,-27.9 460.5,-19.51"/>
<polygon fill="midnightblue" stroke="midnightblue" points="457,-51.98 460.5,-61.98 464,-51.98 457,-51.98"/>
</g>
<!-- Node9&#45;&gt;Node7 -->
<g id="edge10" class="edge">
<title>Node9&#45;&gt;Node7</title>
<path fill="none" stroke="midnightblue" d="M506.14,-121.13C494.21,-108.42 478.14,-91.3 468.6,-81.13"/>
<polygon fill="midnightblue" stroke="midnightblue" points="503.88,-123.84 513.27,-128.73 508.98,-119.05 503.88,-123.84"/>
</g>
</g>
</svg>
